<svg width="48" height="48" viewBox="0 0 48 48" fill="none" xmlns="http://www.w3.org/2000/svg">
<g opacity="0.7">
<path d="M18.6683 27.7619C16.3845 29.4377 14.9469 32.2007 15.1463 35.2947C15.4261 39.6476 19.0575 43.1876 23.4159 43.3607C28.3505 43.5587 32.4126 39.6158 32.4126 34.7255C32.4126 31.8628 31.0152 29.3338 28.8727 27.7605V9.95962C28.8727 7.15369 26.5764 4.85742 23.7705 4.85742C20.9646 4.85742 18.6683 7.15369 18.6683 9.95962V22.5351" stroke="white" stroke-width="3" stroke-miterlimit="10"/>
<path d="M23.7705 33.2743V9.24805" stroke="white" stroke-width="3" stroke-miterlimit="10"/>
<path d="M23.7709 35.7767C24.8525 35.7767 25.7293 34.8999 25.7293 33.8183C25.7293 32.7367 24.8525 31.8599 23.7709 31.8599C22.6893 31.8599 21.8125 32.7367 21.8125 33.8183C21.8125 34.8999 22.6893 35.7767 23.7709 35.7767Z" fill="white" stroke="white" stroke-width="3" stroke-miterlimit="10"/>
</g>
</svg>
