<svg width="48" height="48" viewBox="0 0 48 48" fill="none" xmlns="http://www.w3.org/2000/svg">
<g opacity="0.7">
<path d="M36.8668 23.3179L24 36.0841L11.3945 23.5784" stroke="white" stroke-width="3.375" stroke-miterlimit="10"/>
<path d="M26.9026 23.2532C25.6208 21.9814 24.8267 20.2232 24.8267 18.2814C24.8267 14.3978 27.9993 11.25 31.9135 11.25C35.8277 11.25 39.0003 14.3978 39.0003 18.2814C39.0003 20.5831 37.886 22.6254 36.1628 23.9083" stroke="white" stroke-width="3.375" stroke-miterlimit="10"/>
<path d="M11.9375 23.982C11.1834 23.4411 10.5407 22.7549 10.0505 21.967C9.38517 20.895 9 19.6331 9 18.2819C9 14.3983 12.1726 11.2505 16.0868 11.2505C17.9701 11.2505 19.6834 11.9801 20.9527 13.17" stroke="white" stroke-width="3.375" stroke-miterlimit="10"/>
</g>
</svg>
