<svg width="48" height="48" viewBox="0 0 48 48" fill="none" xmlns="http://www.w3.org/2000/svg">
<g opacity="0.7">
<path d="M30.9319 30.6837H17.1182C16.3976 30.6837 15.8135 30.1042 15.8135 29.3892V25.7823C15.8135 25.0673 16.3976 24.4878 17.1182 24.4878H30.9333C31.6539 24.4878 32.238 25.0673 32.238 25.7823V29.3892C32.2366 30.1042 31.6525 30.6837 30.9319 30.6837Z" stroke="white" stroke-width="3" stroke-miterlimit="10"/>
<path d="M29.7286 43.3295H24.8364H18.3229C16.9366 43.3295 15.8135 42.2151 15.8135 40.8397V36.7091V33.3814C15.8135 32.6664 16.3976 32.0869 17.1182 32.0869H30.9333C31.6539 32.0869 32.238 32.6664 32.238 33.3814V40.8397C32.2366 42.2151 31.1135 43.3295 29.7286 43.3295Z" stroke="white" stroke-width="3" stroke-miterlimit="10"/>
<path d="M21.5514 2.98828V4.7729L21.5529 4.893V6.33829C21.5529 7.06583 21.322 7.77381 20.8914 8.3631L19.8541 9.78465L17.9569 12.3862L16.4735 14.4208C16.0442 15.0101 15.812 15.718 15.812 16.4456V21.7869C15.812 22.5018 16.3961 23.0814 17.1167 23.0814H30.9319C31.6525 23.0814 32.2365 22.5018 32.2365 21.7869V16.4456C32.2365 15.718 32.0057 15.0101 31.5751 14.4208L27.1586 8.3617C26.7293 7.77241 26.4971 7.06443 26.4971 6.33689V4.8916V4.77151V2.98828" stroke="white" stroke-width="3" stroke-miterlimit="10"/>
</g>
</svg>
