<svg width="529" height="767" viewBox="0 0 529 767" fill="none" xmlns="http://www.w3.org/2000/svg">
<g style="mix-blend-mode:overlay" opacity="0.15">
<path fill-rule="evenodd" clip-rule="evenodd" d="M-3.53632 237.199C-3.53632 164.821 55.1377 106.147 127.516 106.147C199.894 106.147 258.568 164.821 258.568 237.199C258.568 308.588 201.487 366.645 130.476 368.219L130.138 368.218L129.822 368.218V368.232C129.055 368.245 128.286 368.251 127.516 368.251C55.1377 368.251 -3.53632 309.577 -3.53632 237.199ZM131.304 474.369C130.044 474.389 128.781 474.399 127.516 474.399C-3.48584 474.399 -109.684 368.201 -109.684 237.199C-109.684 106.198 -3.48584 0 127.516 0C258.517 0 364.715 106.198 364.715 237.199C364.715 302.401 338.408 361.458 295.828 404.336C433.035 467.293 528.327 605.881 528.327 766.724H422.18C422.18 605.756 292.085 475.168 131.304 474.369ZM-142.774 660.81C-127.956 622.695 -105.365 588.456 -76.9154 560.007L-151.973 484.95C-224.034 557.01 -268.685 656.719 -268.685 766.743H-207.12V766.957H115.359V660.81H-142.774Z" fill="white"/>
</g>
</svg>
