<svg width="422" height="902" viewBox="0 0 422 902" fill="none" xmlns="http://www.w3.org/2000/svg">
<g style="mix-blend-mode:overlay" opacity="0.1">
<path fill-rule="evenodd" clip-rule="evenodd" d="M194.343 0.234619H122.202V38.7411L122.232 41.3178V72.1235C122.232 80.1501 119.71 87.9279 115.017 94.4L115.009 94.411L52.516 180.762L52.5138 180.765L20.9294 224.426L20.9203 224.439C7.36156 243.199 0 265.777 0 289.019V403.64C0 420.147 6.26352 435.19 16.5436 446.524C6.28093 457.853 0.0292969 472.884 0.0292969 489.375V566.778C0.0292969 583.262 6.27523 598.286 16.5296 609.614C6.27523 620.942 0.0292969 635.966 0.0292969 652.45V812.5C0.0292969 861.938 40.0916 902 89.5296 902H332.376C381.804 902 421.826 861.925 421.876 812.536L421.876 812.518V652.45C421.876 635.959 415.625 620.929 405.363 609.6C415.602 598.284 421.844 583.288 421.876 566.848L421.876 566.813V489.375C421.876 472.868 415.613 457.824 405.332 446.491C415.595 435.162 421.847 420.131 421.847 403.64V289.019C421.847 265.832 414.547 243.235 400.914 224.421L400.894 224.393L306.892 94.4154C302.172 87.884 299.645 80.0767 299.645 72.0936V0.234619H227.503V72.0936C227.503 95.3352 234.865 117.914 248.424 136.674L248.43 136.682L342.477 266.724L342.491 266.742C347.184 273.214 349.706 280.992 349.706 289.019V395.348H72.1412V289.019C72.1412 281.036 74.668 273.23 79.3877 266.699L79.3891 266.697L110.962 223.052L110.964 223.049L173.42 136.749L173.435 136.728L173.436 136.727C187.072 117.912 194.373 95.3126 194.373 72.1235V40.8988L194.343 38.3221V0.234619ZM72.1705 497.667V558.486H349.735V497.667H72.1705ZM72.1705 660.742V812.5C72.1705 822.095 79.9342 829.859 89.5296 829.859H332.376C341.921 829.859 349.725 822.107 349.735 812.463V660.742H72.1705Z" fill="white"/>
</g>
</svg>
