<svg width="553" height="709" viewBox="0 0 553 709" fill="none" xmlns="http://www.w3.org/2000/svg">
<g style="mix-blend-mode:overlay" opacity="0.1">
<path fill-rule="evenodd" clip-rule="evenodd" d="M-149.689 216.734C-149.689 153.319 -98.2919 101.922 -34.8772 101.922C-4.34549 101.922 23.3398 113.788 43.9451 133.257L113.942 59.1722C75.1655 22.5347 22.6993 0 -34.8772 0C-154.582 0 -251.611 97.0293 -251.611 216.734C-251.611 258.333 -239.818 297.291 -219.473 330.333L-219.442 330.383C-208.676 347.824 -195.502 363.644 -180.373 377.357L-180.664 377.648L150.235 708.513L487.246 371.503L487.131 371.388C527.139 332.111 552.046 277.338 552.046 216.734C552.046 97.0293 455.017 0 335.312 0C215.607 0 118.577 97.0293 118.577 216.734C118.577 276.582 142.919 330.84 182.063 369.983L254.132 297.913C233.308 277.089 220.5 248.446 220.5 216.734C220.5 153.319 271.897 101.922 335.312 101.922C398.726 101.922 450.123 153.319 450.123 216.734C450.123 254.278 432.164 287.592 404.125 308.632L404.919 309.69L150.231 564.377L-103.03 311.141L-102.077 309.823C-114.289 300.992 -124.734 289.764 -132.698 276.87C-143.468 259.369 -149.689 238.837 -149.689 216.734Z" fill="white"/>
</g>
</svg>
