<svg width="467" height="877" viewBox="0 0 467 877" fill="none" xmlns="http://www.w3.org/2000/svg">
<g style="mix-blend-mode:overlay" opacity="0.1">
<path fill-rule="evenodd" clip-rule="evenodd" d="M203.459 12.8395L178.451 0L153.444 12.8395L153.423 12.85C146.579 16.3559 84.0191 49.4064 21.63 114.281C-41.0128 179.419 -105.173 278.522 -109.767 412.951C-115.299 574.503 -21.0461 682.973 54.1647 743.318L99.3115 687.05C39.1707 638.796 -27.3083 561.852 -36.7239 452.783L142.38 617.892V876.654H214.522V801.23C232.374 791.983 265.737 772.996 302.464 743.56C377.734 683.274 472.229 574.717 466.699 412.953C462.104 278.509 397.936 179.403 335.285 114.268C272.871 49.379 210.286 16.3361 203.474 12.8473L203.459 12.8395ZM142.38 519.774L-31.4135 359.56C-24.1626 321.898 -11.2912 288.075 4.78354 257.99L142.38 387.896V519.774ZM142.38 288.683L45.1103 196.85C54.3862 185.171 63.9787 174.32 73.6279 164.287C117.244 118.933 160.943 91.4752 178.452 81.3941C195.965 91.4742 239.67 118.927 283.291 164.278C293.033 174.406 302.717 185.367 312.076 197.173L214.522 288.91V154.625H142.38V288.683ZM214.522 387.938V519.51L388.298 359.312C381.067 321.895 368.289 288.271 352.336 258.341L214.522 387.938ZM214.522 617.628L393.681 452.468C384.348 561.876 317.614 639.001 257.357 687.26L257.347 687.268C241.969 699.593 227.281 709.802 214.522 717.937V617.628Z" fill="white"/>
</g>
</svg>
