<svg width="479" height="991" viewBox="0 0 479 991" fill="none" xmlns="http://www.w3.org/2000/svg">
<g style="mix-blend-mode:overlay" opacity="0.15">
<path fill-rule="evenodd" clip-rule="evenodd" d="M61.4247 133.581C61.4247 42.4244 135.849 -32 227.006 -32C318.162 -32 392.586 42.4244 392.586 133.581V548.464C445.35 594.533 479 662.282 479 738.137C479 880.711 360.564 995.694 216.722 989.93C89.3559 984.871 -16.2821 881.921 -24.4643 754.672L-24.4648 754.664C-30.2793 664.417 11.7678 583.803 78.1822 535.069L126.731 601.232C81.648 634.312 53.51 688.589 57.4294 749.393L57.4299 749.401C62.9099 834.666 134.56 904.539 219.979 907.931L219.988 907.932L219.996 907.932C317.063 911.828 396.936 834.311 396.936 738.137C396.936 681.976 369.585 632.263 327.269 601.189L310.523 588.892V133.581C310.523 87.7469 272.84 50.0636 227.006 50.0636C181.172 50.0636 143.488 87.7469 143.488 133.581V440.558H61.4247V133.581ZM185.975 637.18C157.565 652.001 138.17 681.733 138.17 715.995C138.17 765.059 177.944 804.834 227.008 804.834C276.072 804.834 315.847 765.059 315.847 715.995C315.847 681.732 296.45 652 268.039 637.179V116.205H185.975V637.18Z" fill="white"/>
</g>
</svg>
