<svg width="83" height="106" viewBox="0 0 83 106" fill="none" xmlns="http://www.w3.org/2000/svg">
<path d="M39.4709 32.3929C39.5669 32.4167 39.6551 32.4331 39.7385 32.4416C39.822 32.45 39.8887 32.5317 39.9466 32.6818C40.1731 32.5071 40.2945 32.3892 40.316 32.324C40.1549 32.3994 40.0238 32.3805 39.925 32.2638C39.8227 32.1448 39.6723 32.1876 39.4709 32.3929C39.1185 32.4238 38.8335 32.3518 38.6122 32.1871C38.4226 31.8007 38.0123 31.467 37.3777 31.1836C36.741 30.9037 36.2296 30.5504 35.8385 30.1278L36.0395 29.9739C35.5451 29.7768 35.1271 29.5566 34.7832 29.3166C34.4393 29.0767 34.0435 28.7669 33.5991 28.3894C33.6622 28.2937 33.7161 28.2514 33.7666 28.2612C33.8142 28.2717 33.8835 28.244 33.9731 28.1725C33.5883 27.9388 33.2067 27.8131 32.8327 27.7883C32.4558 27.7642 32.0828 27.6094 31.7122 27.3181C31.8461 27.2155 31.8977 27.1495 31.8711 27.1253C31.3689 27.1747 30.9578 27.0253 30.6366 26.6716C30.3131 26.3213 29.9429 26.1387 29.5286 26.123C29.8044 26.0067 29.8995 25.946 29.8132 25.9383C29.7275 25.9333 29.7953 25.8456 30.0167 25.6751C29.7608 25.5845 29.574 25.56 29.4594 25.6009C29.3419 25.6424 29.3283 25.7028 29.4123 25.7806C29.4962 25.8584 29.5826 25.8662 29.6699 25.7983C29.637 25.9204 29.5397 25.9574 29.3762 25.9156C29.2128 25.8737 29.0877 25.8142 29.0031 25.7336C29.2789 25.6172 29.3623 25.5049 29.2483 25.4006C29.0769 25.3908 29.0202 25.4337 29.0837 25.5282C29.1444 25.6233 29.1058 25.6803 28.9611 25.6947C28.0089 25.1806 27.1377 24.7178 26.3484 24.297C25.554 23.8803 24.6697 23.4265 23.6904 22.9396C23.9226 22.8573 24.0564 22.8483 24.0956 22.915C24.1319 22.9824 24.267 23.0457 24.5007 23.105C24.3964 22.8022 24.1567 22.5962 23.7748 22.4827C23.3929 22.3691 23.0398 22.249 22.7169 22.1161C22.6011 22.2992 22.71 22.4077 23.0403 22.4392C23.3676 22.4714 23.5504 22.5723 23.5815 22.7375C23.1866 22.7537 22.7457 22.593 22.2584 22.2524C21.401 21.9586 20.5775 21.6271 19.7877 21.2577C18.9928 20.8925 18.2476 20.5736 17.5549 20.3002C17.0199 20.2845 16.457 20.1451 15.8619 19.8891C15.2674 19.636 14.7522 19.4134 14.3228 19.2229C14.1872 19.1839 14.0641 19.1602 13.9586 19.1476C13.8524 19.1322 13.7265 19.1363 13.5767 19.1548C13.2062 19.0115 12.7861 18.8491 12.3136 18.6683C11.841 18.4875 11.3392 18.3646 10.8053 18.3002C10.4826 18.0737 10.14 17.9603 9.77912 17.9538C9.41828 17.9472 9.07281 17.8345 8.7478 17.6115C7.85708 17.4914 6.90116 17.256 5.87782 16.9089C4.85226 16.5653 3.81355 16.3244 2.76745 16.1848C2.58304 16.1839 2.41596 16.2063 2.26044 16.2534C2.10781 16.2997 1.93785 16.3228 1.75344 16.3219C1.15575 15.84 1.07391 15.369 1.50599 14.9004C1.94094 14.4312 2.49217 13.9419 3.15745 13.436C5.09987 13.6401 6.99882 13.9597 8.85208 14.3983C10.6923 14.8459 12.5045 15.3571 14.2846 15.9269C16.0494 16.5092 17.7789 17.1357 19.4694 17.8041C21.1447 18.4851 22.8244 19.1318 24.5157 19.7367C25.0671 20.1203 25.7942 20.4795 26.6935 20.8122C27.5906 21.1484 28.3495 21.5549 28.9731 22.031C29.0298 22.0817 29.0857 22.0752 29.1379 22.0121C29.1895 21.9462 29.2454 21.9396 29.3028 21.9932C29.3896 22.0704 29.4145 22.1675 29.3845 22.289C29.9502 22.4277 30.5624 22.7192 31.2201 23.1726C31.872 23.6272 32.5041 23.9534 33.1193 24.1506C33.3803 24.4786 33.7085 24.716 34.1046 24.8657C34.5007 25.0153 34.8517 25.1661 35.1621 25.3108C35.0088 25.4751 35.0423 25.5703 35.2648 25.5928C35.4845 25.616 35.6689 25.6168 35.8136 25.6025C36.0043 25.7922 36.1998 25.99 36.403 26.195C36.6033 26.4007 36.8306 26.5521 37.0814 26.6468C37.1796 26.667 37.2909 26.6783 37.4123 26.6812C37.5338 26.6841 37.6569 26.7078 37.7829 26.758C37.8345 26.8129 37.8462 26.8647 37.815 26.914C37.7838 26.9632 37.7926 27.0156 37.8471 27.0699C37.88 27.1893 37.9719 27.2623 38.1206 27.2924C38.2664 27.323 38.4174 27.3767 38.5672 27.4518C38.7965 27.6118 39.0048 27.8127 39.1921 28.0546C39.3765 28.2971 39.6228 28.3716 39.9287 28.2818C39.9724 28.5831 40.1643 28.7514 40.5031 28.781C40.5911 29.0513 40.7858 29.2854 41.0855 29.49C41.3852 29.6945 41.7047 29.9067 42.0492 30.1223C42.3915 30.3415 42.7187 30.561 43.0252 30.7821C43.3323 31.0061 43.5595 31.2511 43.714 31.5215C44.3633 31.8438 44.9411 32.291 45.4544 32.8675C45.959 33.4458 46.5648 33.9501 47.2732 34.374C47.2272 34.5052 47.288 34.6546 47.4521 34.8201C47.6162 34.9857 47.791 35.0914 47.9778 35.1431C48.6755 35.8684 49.2319 36.4351 49.6447 36.8469C50.0546 37.2592 50.5894 37.7704 51.2447 38.3875C51.2379 38.5853 51.2978 38.7712 51.4217 38.9458C51.5426 39.121 51.7189 39.166 51.951 39.0837C51.8745 39.3878 52.0397 39.6256 52.4445 39.8005C53.0272 40.7661 53.686 41.627 54.4203 42.3803C55.1495 43.1378 55.6641 43.9888 55.9678 44.9356C56.0535 44.9677 56.1395 44.9604 56.2219 44.9238C56.3036 44.8843 56.364 44.8979 56.4038 44.9675C56.5669 45.236 56.7285 45.538 56.895 45.8751C57.0586 46.213 57.1913 46.4671 57.2931 46.6375C57.3721 46.7739 57.482 46.873 57.6199 46.9357C57.7578 46.9983 57.878 47.1163 57.9769 47.2874C58.5568 48.0664 58.993 48.8504 59.287 49.6332C59.5758 50.4201 59.9564 51.1986 60.4257 51.9691C60.5706 52.2507 60.7332 52.5706 60.9151 52.9225C61.0947 53.2778 61.2504 53.5268 61.3879 53.6681C61.8996 54.707 62.3525 55.7531 62.7529 56.808C63.1426 57.8683 63.5642 58.8429 64.0208 59.7311C64.8226 62.6894 65.6394 65.581 66.4765 68.4015C67.2633 71.2665 67.8224 74.3277 68.1567 77.5843C68.2149 78.3928 68.2634 79.1854 68.3052 79.9614C68.3441 80.738 68.3006 81.5513 68.1783 82.4034C68.3285 83.6474 68.2897 84.9912 68.0664 86.4278C67.8351 87.8692 67.4575 89.3042 66.9293 90.7278C66.5732 91.1581 66.2707 91.5583 66.0144 91.9361C65.7604 92.3103 65.4557 92.714 65.1047 93.1402C64.8464 93.2405 64.6312 93.3311 64.4576 93.4185C64.2805 93.5036 63.9984 93.6726 63.6115 93.9257C63.7433 93.5185 63.7011 93.1836 63.4777 92.9287C63.2536 92.671 63.0146 92.4679 62.7588 92.3109C62.7394 92.2246 62.825 92.1087 63.0122 91.9609C62.7542 91.8075 62.6239 91.6041 62.6219 91.3539C62.62 91.1036 62.5588 90.8455 62.4428 90.5846C62.7858 90.6193 63.0821 90.7551 63.3317 90.9921C63.5807 91.2261 63.9184 91.3043 64.3477 91.226C64.4599 90.9864 64.5007 90.7386 64.4709 90.4855C64.4412 90.2324 64.5377 89.9902 64.7675 89.7634C64.7403 89.8843 64.7468 90.0339 64.785 90.2035C64.8609 90.0445 64.9191 89.82 64.9659 89.5316C65.0099 89.2438 64.9762 89.0943 64.8621 89.0837C65.0415 87.0226 65.0701 85.1102 64.9466 83.3406C64.8107 81.583 64.6954 79.863 64.6022 78.1742C64.5777 78.0921 64.6117 78.015 64.7071 77.9423C64.8024 77.8695 64.8897 77.7744 64.9754 77.6585C64.6267 77.6794 64.4052 77.5268 64.302 77.2026C64.2017 76.8777 64.1458 76.5218 64.1408 76.1242C64.133 75.7272 64.1304 75.3532 64.1352 74.9987C64.1371 74.6449 64.0898 74.4078 63.9897 74.2853C63.951 74.1672 64.0723 73.9949 64.3577 73.7737C64.3304 73.6923 64.3034 73.653 64.2727 73.6509C64.242 73.6487 64.2151 73.6094 64.1883 73.5309C64.3325 73.42 64.3977 73.4416 64.3905 73.5972C64.4859 73.5245 64.5142 73.4758 64.4789 73.4535C64.4409 73.4319 64.4618 73.3637 64.5452 73.2514C64.3891 73.3227 64.3184 73.2902 64.333 73.154C64.3477 73.0178 64.3643 72.8903 64.3863 72.7735C64.4055 72.6575 64.3994 72.5501 64.3682 72.4514C64.334 72.3533 64.24 72.3382 64.0839 72.4095C64.0619 72.5262 64.0677 72.6729 64.0986 72.8503C64.1265 73.0282 64.0603 73.2304 63.897 73.4574C63.5672 73.0119 63.3865 72.4907 63.3592 71.8866C63.3291 71.2832 63.0741 70.8209 62.5906 70.4976C62.5956 70.3454 62.6242 70.2575 62.681 70.2417C62.7343 70.2237 62.8164 70.1992 62.9259 70.1625C62.9501 69.8943 62.9323 69.6808 62.8765 69.5272C62.8202 69.3707 62.9244 69.163 63.1951 68.9029C63.1654 68.825 63.1121 68.843 63.0316 68.9547C62.951 69.0664 62.8563 69.1421 62.7461 69.1759C62.5014 68.518 62.3039 67.922 62.1592 67.3866C62.0117 66.8519 61.892 66.3471 61.7974 65.873C61.6999 65.3995 61.5874 64.9264 61.4576 64.4571C61.325 63.9885 61.1261 63.5076 60.8567 63.0214C60.9839 63.023 61.1319 62.9294 61.3049 62.7455C61.2236 62.7064 61.0833 62.5929 60.8754 62.407C60.6675 62.2211 60.6833 62.0363 60.9193 61.8504C60.7255 61.7006 60.6448 61.5164 60.6764 61.2948C60.8636 61.147 61.0005 61.1646 61.0818 61.3518C61.2083 61.2025 61.227 61.1379 61.1408 61.1573C61.0539 61.1738 61.0096 61.1112 61.0066 60.9639C60.8166 61.1123 60.649 61.0925 60.5047 60.9075C60.4094 60.9802 60.3776 61.0538 60.4123 61.1276C60.1526 60.8325 59.9145 60.4722 59.6922 60.0479C59.4676 59.6271 59.2544 59.2702 59.0561 58.9795C59.0214 58.9057 59.0605 58.8516 59.1729 58.8143C59.2825 58.7776 59.3619 58.7416 59.4107 58.7035C59.2007 58.6691 59.0015 58.4148 58.8104 57.9412C58.617 57.4711 58.4445 57.1474 58.295 56.9665C58.2115 56.9309 58.2609 56.8684 58.4454 56.7757C58.627 56.6835 58.6763 56.6211 58.5957 56.5848C58.5439 56.4756 58.4583 56.4707 58.3396 56.5608C58.2216 56.6537 58.1375 56.6424 58.0836 56.5367C57.983 56.4657 57.9838 56.4021 58.0894 56.3481C58.1915 56.292 58.2758 56.264 58.3394 56.2648C57.9971 56.233 57.8249 56.0451 57.8179 55.7053C57.8109 55.3656 57.7221 55.159 57.5586 55.09C57.5676 54.9822 57.6082 54.8674 57.6762 54.7403C57.7414 54.6139 57.7717 54.4803 57.7665 54.3364C57.7 54.3363 57.6473 54.33 57.607 54.3119C57.5638 54.2944 57.511 54.2881 57.4474 54.2873C57.3521 54.3601 57.3315 54.416 57.3814 54.4501C57.4314 54.4842 57.4005 54.5214 57.2881 54.5587C57.0966 54.3117 56.9639 54.0576 56.8922 53.7928C56.8177 53.5286 56.685 53.2745 56.4913 53.031C56.6207 53.0291 56.6928 52.9737 56.7017 52.8659C56.5235 52.906 56.4455 52.8812 56.4647 52.7923C56.484 52.7034 56.5387 52.6247 56.6334 52.549C56.4937 52.4112 56.319 52.239 56.1066 52.033C55.8941 51.827 55.8648 51.6161 56.0128 51.4016C55.8147 51.4069 55.679 51.3407 55.6022 51.2009C55.5261 51.0639 55.4445 50.9161 55.3581 50.7603C55.2717 50.6045 55.1825 50.4765 55.0934 50.3757C55.0007 50.2727 54.8574 50.2263 54.6593 50.2316C54.5501 49.9208 54.4333 49.6571 54.3078 49.4346C54.1793 49.2127 54.1188 48.9303 54.1191 48.5828C53.9017 48.5561 53.7061 48.4249 53.5322 48.1891C53.359 47.9561 53.2112 47.6752 53.0879 47.3555C52.9617 47.0365 52.8021 46.7431 52.6061 46.476C52.4078 46.2124 52.1804 46.0339 51.9181 45.9418L52.1264 45.7802C51.2182 44.6702 50.2837 43.4967 49.3199 42.2603C48.3386 41.0398 47.2918 39.958 46.1802 39.0175C46.1331 38.9556 46.1808 38.8724 46.3169 38.7663C46.2476 38.6731 46.1492 38.665 46.026 38.735C45.9006 38.8084 45.8248 38.7802 45.8021 38.6524L46.1443 38.3882C45.777 38.3801 45.5298 38.194 45.4026 37.8299C45.2724 37.4664 45.2171 37.207 45.2403 37.0417C45.0791 37.1172 45.0217 37.1844 45.0689 37.2463C45.116 37.3082 45.0712 37.3908 44.9322 37.4975C44.7442 37.2528 44.6839 37.079 44.7521 36.9792C44.5653 36.9275 44.3772 36.87 44.1779 36.803C43.9793 36.7389 43.8217 36.6293 43.7059 36.4771C43.7962 36.4085 43.8671 36.4016 43.9143 36.4635C43.9608 36.5226 44.0295 36.5192 44.1226 36.45C44.0039 36.2984 43.8757 36.2517 43.7378 36.3099C43.5998 36.368 43.4733 36.3693 43.3552 36.3142C43.2087 36.039 43.1235 35.8618 43.0997 35.7826C43.0729 35.704 42.9555 35.5311 42.738 35.2627C42.62 35.2077 42.5567 35.2219 42.547 35.2996C42.538 35.3802 42.4866 35.4068 42.3935 35.3824C42.4366 35.2519 42.398 35.1609 42.28 35.1058C42.1619 35.0508 42.0486 35.0038 41.943 34.964C41.8375 34.9243 41.7523 34.8679 41.6933 34.7936C41.6314 34.7199 41.6793 34.5974 41.8377 34.4289C41.4346 34.3019 41.1498 34.1363 40.9795 33.9299C40.8063 33.7241 40.5283 33.4815 40.1389 33.2005C40.0645 33.1114 40.1189 33.0448 40.3051 33C40.4907 32.9523 40.5208 32.8579 40.397 32.7105C40.3233 32.6244 40.2398 32.6159 40.1496 32.6845C40.06 32.756 39.9572 32.8093 39.8426 32.8502C39.602 32.7471 39.4549 32.617 39.3998 32.4663L39.4709 32.3929ZM19.8063 18.8582C19.7808 18.9727 19.8401 19.0349 19.9807 19.0425C20.122 19.0531 20.204 19.0015 20.2324 18.8863C20.1149 18.9278 20.0267 18.9114 19.9734 18.8358C19.9173 18.7608 19.8614 18.7673 19.8063 18.8582ZM21.1816 19.2259C20.9909 19.2778 20.9416 19.3402 21.0329 19.4103C21.1248 19.4833 21.1742 19.4209 21.1816 19.2259ZM21.5288 19.601C21.8589 19.7262 22.1619 19.8515 22.4393 19.9704C22.7168 20.0894 23.0402 20.198 23.4118 20.2927C23.3477 20.1017 23.1052 19.9236 22.6797 19.7503C22.2519 19.5806 21.8664 19.5312 21.5288 19.601ZM21.9302 20.4321C21.9455 20.5133 22.0521 20.5981 22.2473 20.6871C22.4396 20.7769 22.6104 20.811 22.7574 20.7931C22.5136 20.4612 22.2355 20.3394 21.9302 20.4321ZM22.8919 20.9079C22.9969 21.0655 23.1529 21.0879 23.3578 20.9784C23.1768 20.8318 23.023 20.8059 22.8919 20.9079ZM24.3463 20.6477C24.4671 20.8894 24.6441 20.9644 24.8791 20.8814C24.891 20.6794 24.7134 20.6015 24.3463 20.6477ZM25.3 21.1282C25.1968 21.1121 25.1372 21.0621 25.1213 20.978C25.1054 20.894 25.0526 20.8877 24.9681 20.955C24.9102 21.0466 24.9286 21.115 25.024 21.163C25.1209 21.2047 25.2126 21.1961 25.3 21.1282C25.8016 21.4112 26.3432 21.6974 26.9275 21.986C27.5097 22.2781 28.0246 22.5129 28.4757 22.6925C28.0292 22.2249 27.5336 21.9012 26.9946 21.7202C26.4527 21.5399 25.889 21.3433 25.3 21.1282ZM23.5787 22.7382C23.8108 22.6558 23.8504 22.6711 23.699 22.7897C23.544 22.906 23.5065 22.8873 23.5787 22.7382ZM25.2601 21.9437C25.4058 22.068 25.5449 22.0821 25.676 21.9801C25.5036 21.8316 25.3617 21.8181 25.2601 21.9437ZM25.6987 22.1079C25.8888 22.2012 26.0456 22.2807 26.1705 22.3524C26.2953 22.424 26.4516 22.4342 26.6423 22.3823C26.5827 22.3323 26.4476 22.269 26.2371 22.1924C26.0244 22.1194 25.8457 22.09 25.6987 22.1079ZM24.8048 23.1545C24.6164 23.2028 24.611 23.2192 24.7938 23.1993C24.973 23.1771 24.979 23.1637 24.8048 23.1545ZM25.4136 23.4708C25.4396 23.6402 25.5429 23.6563 25.7183 23.5232C25.6587 23.4732 25.602 23.4225 25.5453 23.3718C25.4879 23.3182 25.4442 23.3522 25.4136 23.4708ZM26.3109 22.8555C26.1627 23.0156 26.1679 23.0386 26.3222 22.9194C26.4766 22.8001 26.4714 22.7771 26.3109 22.8555ZM26.7938 22.6262C26.955 22.5507 27.0616 22.6083 27.1206 22.8035C27.1767 22.9993 27.2771 23.016 27.4253 22.8559C27.4826 22.7615 27.387 22.6591 27.1317 22.5443C26.8792 22.4288 26.7649 22.4575 26.7938 22.6262ZM27.9014 23.2806C27.8447 23.2299 27.8191 23.2236 27.8259 23.2673C27.8321 23.3082 27.8577 23.3146 27.9014 23.2806C27.9723 23.2737 28.0058 23.2481 28.0019 23.2037C27.995 23.1599 27.9615 23.1855 27.9014 23.2806ZM62.6468 57.9464C62.4825 57.7266 62.3126 57.5352 62.1406 57.3745C61.9678 57.2109 61.9495 56.928 62.0848 56.5231C61.7461 55.9437 61.4275 55.387 61.1342 54.8487C60.8352 54.3118 60.6528 53.6489 60.587 52.8602C60.3799 52.9732 60.3217 52.956 60.413 52.8117C60.5044 52.6673 60.4132 52.6516 60.1396 52.7644C60.1605 52.5482 60.1428 52.4163 60.0826 52.3633C60.0224 52.3104 59.9128 52.1991 59.7554 52.023C59.6675 51.351 59.4117 50.8316 58.9841 50.4745C58.5536 50.1181 58.429 49.6719 58.6081 49.1393C58.4469 49.2147 58.3385 49.2028 58.2816 49.0978C58.2254 48.9957 58.1554 48.8724 58.0793 48.7355C58.2206 48.6252 58.2727 48.535 58.2336 48.4682C58.1382 48.541 58.0696 48.5715 58.0264 48.554C57.9838 48.5394 57.9378 48.5498 57.8913 48.5844C57.4555 47.9362 57.0079 47.3027 56.5415 46.6795C56.0729 46.0598 55.649 45.3304 55.2763 44.4928C54.7578 44.1078 54.3262 43.5856 53.9785 42.9266C53.6252 42.2689 53.1709 41.7397 52.6207 41.3346C52.6955 41.1305 52.6622 40.9961 52.5163 40.9382C52.3705 40.8804 52.2651 40.8013 52.2015 40.7069C51.9557 40.5537 51.7797 40.3485 51.6728 40.0886C51.566 39.8286 51.4366 39.5889 51.2809 39.3671C51.0123 39.0861 50.6924 38.8589 50.3184 38.6861C49.9414 38.5141 49.8031 38.1947 49.9034 37.7282C49.5583 37.7513 49.3756 37.6504 49.3545 37.4225C49.3334 37.1947 49.2318 36.9577 49.0489 36.7088C48.9337 36.6532 48.8596 36.6728 48.8251 36.7742C48.7905 36.8756 48.7135 36.8959 48.6012 36.8396C48.231 36.4425 47.8554 36.0888 47.4717 35.7793C47.0851 35.4705 46.8775 35.0579 46.8496 34.5447C46.7565 34.5203 46.645 34.5212 46.5178 34.5467C46.3878 34.5729 46.2667 34.5578 46.1486 34.5028C46.1445 34.3103 46.0855 34.236 45.9709 34.2769C45.8534 34.3183 45.7478 34.2786 45.6542 34.1577C45.3362 33.5767 44.8846 33.1132 44.3023 32.7668C43.7142 32.4216 43.232 31.9832 42.855 31.4486C42.7841 31.4555 42.7148 31.4831 42.6456 31.5379C42.5758 31.5899 42.5412 31.5704 42.5355 31.4781C41.574 30.7214 40.5779 29.9181 39.5455 29.0747C38.5 28.2402 37.4864 27.6009 36.5069 27.1534C36.5886 26.9931 36.5433 26.8854 36.3673 26.8283C36.1914 26.7712 36.1102 26.6655 36.1188 26.5156C35.9389 26.6557 35.7942 26.6701 35.6881 26.561C35.3907 26.2593 34.9188 25.9877 34.2719 25.7433C33.6222 25.4996 33.2144 25.1773 33.0436 24.7807C32.7083 24.847 32.4841 24.8037 32.369 24.6544C32.2509 24.5057 32.0557 24.4166 31.7834 24.3872C31.3861 24.1653 30.9331 23.8562 30.4212 23.4607C29.9066 23.0658 29.3718 22.9171 28.8185 23.0082C30.9514 24.1391 33.097 25.3397 35.2545 26.607C37.3764 27.9036 39.2561 29.2514 40.8924 30.6449C42.8512 32.0355 44.5726 33.431 46.0645 34.8267C47.5286 36.2468 49.0062 37.7938 50.4922 39.4717C52.1497 41.2682 53.7758 43.247 55.3731 45.4195C56.9222 47.6331 58.2805 49.965 59.4531 52.4111C59.6764 52.5845 59.8195 52.6701 59.8853 52.6674C60.3539 53.9849 60.8136 55.0476 61.2735 55.8565C61.7254 56.6703 62.1641 57.6803 62.5845 58.8908C63.3656 60.9657 64.0802 63.1613 64.7225 65.4788C65.3321 67.8248 65.9194 70.354 66.4779 73.077C66.7757 72.696 66.8401 72.3916 66.6752 72.1688C66.5103 71.9461 66.4998 71.6041 66.6458 71.1394C66.6191 71.0608 66.5586 71.02 66.4671 71.0164C66.3757 71.0128 66.3078 70.9525 66.2663 70.835C66.0871 69.2743 65.7973 67.7989 65.4026 66.4074C64.9955 65.0278 64.5453 63.6579 64.0519 62.2977C64.02 62.2233 64.0594 62.1299 64.1729 62.0168C64.2835 61.9043 64.349 61.793 64.3659 61.6804C64.0803 61.6056 63.9178 61.4065 63.8766 61.0895C63.8355 60.7726 63.6735 60.5763 63.3851 60.5022C63.4627 60.3911 63.5405 60.3072 63.6126 60.2517C63.6846 60.1963 63.6959 60.1122 63.6464 59.9995C63.2949 59.9274 63.0954 59.658 63.052 59.1966C63.013 58.7281 62.8776 58.3145 62.6468 57.9464ZM28.5505 23.6422C28.4762 23.7949 28.4974 23.8354 28.6234 23.7648C28.7459 23.692 28.8445 23.7273 28.9142 23.8626L29.0453 23.7607C29.0152 23.7342 29.0058 23.7061 29.0144 23.677C29.0229 23.6479 29.01 23.6176 28.9834 23.5933C28.8659 23.6348 28.788 23.6373 28.7431 23.599C28.704 23.5595 28.6379 23.5743 28.5505 23.6422ZM29.3029 23.9928C29.5043 24.0291 29.7015 24.154 29.891 24.3652C30.0782 24.5799 30.3123 24.627 30.591 24.51C30.3594 24.4472 30.1532 24.3093 29.9631 24.0952C29.7736 23.8841 29.5514 23.8494 29.3029 23.9928ZM30.2237 25.8702C30.008 25.8915 29.9223 25.8866 29.966 25.8526C30.037 25.8457 30.0773 25.8638 30.0841 25.9076C30.0881 25.952 30.1334 25.9388 30.2237 25.8702ZM31.2623 25.1446C31.4343 25.1573 31.5114 25.1914 31.4949 25.2524C31.4785 25.3135 31.5641 25.3184 31.7526 25.2701C31.769 25.209 31.7247 25.1464 31.6204 25.0853C31.5154 25.0213 31.3962 25.042 31.2623 25.1446ZM30.4739 26.11C30.5585 26.1907 30.607 26.2584 30.6285 26.3139C30.6472 26.3701 30.6605 26.4427 30.6742 26.5302C30.8955 26.3597 30.9386 26.2292 30.807 26.1409C30.6726 26.0533 30.5613 26.0421 30.4739 26.11ZM32.0272 25.4168C32.1118 25.4975 32.1928 25.576 32.2746 25.6573C32.3563 25.7386 32.48 25.738 32.6412 25.6625C32.5594 25.5812 32.4678 25.4961 32.3713 25.403C32.2778 25.3092 32.1611 25.3142 32.0272 25.4168ZM32.4624 26.3038C32.4079 26.2496 32.401 26.2058 32.4476 26.1712C32.4913 26.1372 32.4641 26.1101 32.3659 26.0899C32.2211 26.1042 32.1798 26.1619 32.2411 26.2599C32.2995 26.3585 32.3756 26.3746 32.4624 26.3038ZM33.8845 26.6519L34.006 26.7757L34.14 26.6731L34.0185 26.5493L33.8845 26.6519ZM33.3556 28.1391C33.5247 28.1524 33.5193 28.1688 33.3416 28.1845C33.1646 28.2031 33.17 28.1868 33.3556 28.1391ZM34.9242 27.2189C35.1012 27.3211 35.3404 27.4849 35.6424 27.7131C35.938 27.9397 36.2408 28.0106 36.5461 27.9179C36.2867 27.7314 36.0271 27.5843 35.7638 27.4743C35.4976 27.365 35.2187 27.2796 34.9242 27.2189ZM36.4712 28.3364C36.5615 28.2678 36.6247 28.2536 36.6644 28.296C36.7042 28.3385 36.7782 28.2916 36.8878 28.1613C36.8792 28.0696 36.7936 28.0647 36.6324 28.1401C36.4741 28.215 36.4189 28.2787 36.4712 28.3364ZM36.7266 28.3576C36.9802 28.5453 37.2243 28.7442 37.4576 28.9486C37.6886 29.1565 37.9513 29.2908 38.2407 29.3556C38.1749 29.1167 37.9952 28.8822 37.7012 28.6492C37.4078 28.419 37.0813 28.3232 36.7266 28.3576ZM36.7158 29.088C36.6063 29.2183 36.6367 29.2326 36.8086 29.1245C36.9777 29.0171 36.948 29.0056 36.7158 29.088ZM38.6318 29.7783C38.6562 29.806 38.6608 29.8533 38.6414 29.9151C38.6221 29.9768 38.659 30.0199 38.7578 30.043L39.0279 29.8343C38.8775 29.7563 38.7464 29.7374 38.6318 29.7783ZM39.4139 30.2611C39.5285 30.2203 39.6182 30.2968 39.6772 30.492C39.7363 30.6871 39.8929 30.7123 40.1437 30.5654C40.1817 30.4391 40.0801 30.3229 39.8373 30.2234C39.5938 30.121 39.4519 30.1348 39.4139 30.2611ZM39.4179 30.9096C39.2874 31.1081 39.2939 31.1369 39.4415 31.001C39.5885 30.8623 39.5791 30.8342 39.4179 30.9096ZM39.7545 31.1573C39.725 31.469 39.8976 31.5782 40.2693 31.4857C40.1376 31.2494 39.9651 31.1402 39.7545 31.1573ZM41.116 31.4103C41.1319 31.2527 41.0717 31.2269 40.9356 31.333C40.7994 31.4391 40.8595 31.4649 41.116 31.4103ZM41.1309 31.6909C41.3256 31.8314 41.5148 31.9611 41.697 32.0863C41.8792 32.2115 42.0645 32.2967 42.2564 32.3443C42.0617 32.2037 41.8928 32.0302 41.7554 31.8225C41.6158 31.6182 41.4067 31.5746 41.1309 31.6909ZM42.3058 32.6715C42.3495 32.6375 42.3901 32.6163 42.4258 32.6143C42.4616 32.6123 42.4993 32.5918 42.5459 32.5571C42.5208 32.5265 42.5246 32.4894 42.5586 32.4395C42.5898 32.3902 42.5958 32.3496 42.5714 32.3218C42.295 32.4353 42.2064 32.5518 42.3058 32.6715ZM41.9012 33.1278C41.9693 33.1216 42.0176 33.1349 42.0419 33.1627C42.0822 33.0328 42.0919 32.9551 42.0668 32.9245C41.9335 33.03 41.8762 33.0972 41.9012 33.1278ZM42.7697 33.7665C42.7203 33.7081 42.672 33.6948 42.629 33.7316C42.6755 33.7906 42.7232 33.8011 42.7697 33.7665ZM43.3225 33.4852C43.4155 33.5096 43.4751 33.5597 43.5019 33.6383C43.5251 33.7146 43.5847 33.671 43.6744 33.5059L43.5285 33.3272L43.3225 33.4852ZM42.9104 33.8013C42.8236 33.9658 42.841 33.9891 42.9646 33.8677C43.0889 33.7491 43.0716 33.7258 42.9104 33.8013ZM42.4696 34.2175C42.544 34.3065 42.6478 34.2983 42.784 34.1922C42.688 34.1684 42.6301 34.1391 42.6058 34.1114C42.5807 34.0808 42.5348 34.1183 42.4696 34.2175ZM43.8866 33.6304C43.7901 33.5101 43.7036 33.5416 43.6264 33.722C43.5493 33.9025 43.5694 34.0188 43.6904 34.0732C43.7584 34.067 43.8331 34.023 43.9131 33.9356C43.9902 33.8488 44.0569 33.8368 44.1034 33.8958C43.9678 34.0985 43.9366 34.2414 44.011 34.3304C44.2437 34.3446 44.4369 34.425 44.5936 34.5711C44.7474 34.7178 44.8965 34.8837 45.0395 35.063C45.1495 34.7332 45.0186 34.4333 44.6519 34.1593C44.2865 33.8909 44.0291 33.7132 43.8866 33.6304ZM43.8866 33.6304C43.936 33.6888 43.9349 33.7373 43.8912 33.7713C43.8662 33.7407 43.8441 33.7366 43.8208 33.7539C43.7975 33.7712 43.7748 33.7642 43.7505 33.7365L43.8866 33.6304ZM44.9937 33.0615L45.0653 33.1512L45.2706 32.9903L45.1991 32.9006L44.9937 33.0615ZM44.3796 35.0692C44.5476 35.2792 44.7094 35.3002 44.87 35.1282L44.6923 34.9023C44.5533 35.0091 44.4476 35.063 44.3796 35.0692ZM44.3656 36.0269C44.5064 36.2097 44.6353 36.2321 44.7493 36.0948C44.6278 35.9438 44.5018 35.9208 44.3656 36.0269ZM44.5502 36.6862L44.691 36.869C44.8522 36.7936 44.9246 36.726 44.9132 36.6621C44.899 36.5988 44.893 36.5186 44.8924 36.4221L44.5502 36.6862ZM47.4221 36.5788C47.2825 36.589 47.1673 36.5334 47.0759 36.4089C46.9816 36.2851 46.8825 36.1805 46.7781 36.0922C46.6737 36.0039 46.5549 35.946 46.4296 35.9258C46.3007 35.9034 46.1682 35.9452 46.032 36.0513C46.7065 36.5523 47.2795 37.0186 47.7525 37.4561C48.2232 37.8971 48.5908 38.4036 48.8612 38.9742C49.0211 38.7993 49.1363 38.7342 49.2067 38.7787C49.2743 38.824 49.4009 38.8227 49.5842 38.7785C49.1532 38.38 48.7678 38.0225 48.4236 37.7011C48.0808 37.3854 47.7458 37.0106 47.4221 36.5788ZM47.835 35.5286C47.6966 35.7318 47.7092 35.7743 47.8708 35.6474C48.0303 35.524 48.0206 35.4808 47.835 35.5286ZM47.4525 39.1154L47.3832 39.0222C47.361 38.9909 47.3127 38.9776 47.2476 38.9832C47.1329 39.024 47.1318 39.0726 47.2476 39.1312C47.36 39.1875 47.428 39.1813 47.4525 39.1154ZM48.5144 39.0974L48.448 39.0035C48.5178 38.8036 48.3827 38.7131 48.0376 38.7363C47.9933 38.6737 47.9677 38.6674 47.9694 38.7153C47.9683 38.7639 47.991 38.7709 48.0376 38.7363C48.0336 38.9335 48.1716 39.0233 48.448 39.0035L48.5144 39.0974L48.3754 39.2041C48.4418 39.2979 48.5159 39.3991 48.5955 39.5111C48.6744 39.6202 48.8262 39.6375 49.0555 39.5558C48.8744 39.5028 48.7716 39.4081 48.7517 39.2797C48.7312 39.1483 48.6512 39.0878 48.5144 39.0974ZM47.8573 39.6799C47.9964 39.5732 47.9618 39.5266 47.7563 39.5395C47.8006 39.602 47.7994 39.6506 47.7564 39.6875C47.7098 39.7221 47.7421 39.7179 47.8573 39.6799ZM49.3329 39.3394C49.4016 39.3361 49.4417 39.3663 49.4502 39.4309C49.4586 39.4954 49.5215 39.5599 49.6338 39.6162C49.7263 39.5441 49.7728 39.4823 49.7739 39.4337C49.7751 39.3851 49.7971 39.3892 49.842 39.4546C49.8404 39.5547 49.8202 39.6529 49.7857 39.7543C49.7482 39.8563 49.7871 39.9352 49.9001 39.9944C50.0187 39.7563 50.0339 39.475 49.9515 39.1491C49.7649 39.3934 49.6263 39.4487 49.5378 39.3236C49.6302 39.2515 49.7227 39.1794 49.8152 39.1073C49.9077 39.0351 49.9088 38.9866 49.818 38.9586C49.7493 38.962 49.6395 39.0108 49.4914 39.1045C49.3405 39.1988 49.2887 39.2769 49.3329 39.3394ZM49.1667 40.9354C49.2165 40.7007 49.1848 40.6534 49.0678 40.7915C48.9509 40.9295 48.9856 40.9761 49.1667 40.9354ZM50.4826 40.0599C50.2931 40.3048 50.3292 40.5323 50.5836 40.7501C50.8379 40.9678 51.08 41.0373 51.3093 40.9556C51.1787 40.7644 51.0696 40.6016 50.981 40.4765C50.8953 40.3508 50.7278 40.2102 50.4826 40.0599ZM49.356 41.6692C49.4003 41.7317 49.4423 41.7978 49.4866 41.8603C49.5309 41.9229 49.6103 41.8869 49.7272 41.7489L49.5642 41.5076L49.356 41.6692ZM50.4769 41.6047C50.4724 41.7054 50.5275 41.7353 50.645 41.6938C50.7596 41.653 50.8163 41.5828 50.8214 41.485C50.729 41.5571 50.6597 41.5848 50.6143 41.5708C50.5666 41.5604 50.5206 41.5707 50.4769 41.6047ZM51.1257 41.468C51.1898 41.5654 51.2937 41.5572 51.4327 41.4504C51.3419 41.4225 51.2868 41.3926 51.2647 41.3613C51.2426 41.33 51.196 41.3646 51.1257 41.468ZM51.5929 41.6923C51.4272 41.8685 51.4273 41.8957 51.5918 41.7681C51.7535 41.6412 51.7541 41.6169 51.5929 41.6923ZM50.7984 43.1938C50.8449 43.1592 50.8897 43.1703 50.9317 43.2364L51.2092 43.02L51.1132 42.8754C50.8788 43.0549 50.7756 43.1597 50.7984 43.1938ZM52.2102 42.4629C52.1415 42.4662 52.1092 42.4433 52.1126 42.3912C52.1131 42.3397 52.091 42.3356 52.0444 42.3702C52.1093 42.4705 52.1643 42.5004 52.2102 42.4629ZM52.0315 42.6752C52.1195 42.7038 52.2302 42.7393 52.3642 42.7847C52.4976 42.8273 52.5901 42.7823 52.6406 42.6441C52.5032 42.6508 52.405 42.6306 52.3374 42.5853C52.275 42.5359 52.1734 42.5678 52.0315 42.6752ZM52.5204 43.1031C52.5534 43.3705 52.6642 43.4333 52.8491 43.289C52.8758 43.2196 52.7686 43.1591 52.5204 43.1031ZM55.0774 46.1988C54.9743 45.6873 54.7229 45.1336 54.3202 44.5384C53.9123 43.9473 53.422 43.5802 52.8441 43.4412C52.8749 43.7121 53.0135 43.8985 53.2548 44.0044C53.496 44.1103 53.5733 44.3195 53.4923 44.6307C53.9614 45.0509 54.269 45.4379 54.415 45.7918C54.5611 46.1456 54.8499 46.5701 55.2856 47.0703C55.4802 46.8212 55.6181 46.763 55.6971 46.8993C55.5751 47.0415 55.4784 47.1085 55.4023 47.0924C55.3269 47.0792 55.2925 47.1412 55.305 47.2774C55.4987 47.3728 55.64 47.5314 55.7384 47.7539C55.834 47.9772 55.9521 48.153 56.0969 48.2866C56.3833 47.7209 56.3569 47.2949 56.0224 47.0166C55.6867 46.7325 55.3721 46.4618 55.0774 46.1988ZM53.0592 44.5981C53.0393 44.5633 53.0404 44.5147 53.0671 44.4453C53.0909 44.3765 53.0613 44.3257 52.9734 44.2972C52.8388 44.3032 52.802 44.381 52.8599 44.5311C52.9185 44.684 52.9866 44.705 53.0592 44.5981ZM53.2762 44.945C53.1304 45.156 53.1401 45.1991 53.3018 45.0722C53.4664 44.9446 53.4573 44.9044 53.2762 44.945ZM52.9116 45.5253C52.7458 45.7015 52.743 45.7293 52.9076 45.6017C53.0693 45.4748 53.0692 45.4476 52.9116 45.5253ZM55.3692 44.1276C55.3272 44.0615 55.2846 44.0469 55.2381 44.0815C55.2779 44.1511 55.3233 44.1651 55.3692 44.1276ZM53.8284 45.842C53.8676 45.9087 53.8821 45.9598 53.8684 45.9931C53.8554 46.0292 53.8597 46.0615 53.8796 46.0963L54.0907 45.9341L54.0287 45.8332L53.8284 45.842ZM53.8551 47.0744C53.9562 47.242 54.0749 47.2728 54.2162 47.1625C54.115 46.9949 53.997 46.967 53.8551 47.0744ZM54.467 46.8947C54.526 46.9962 54.6243 47.0436 54.7559 47.0382C54.7168 46.9715 54.7153 46.9114 54.7516 46.858C54.7879 46.8045 54.7865 46.7444 54.7473 46.6777L54.467 46.8947ZM54.9555 47.5492C54.9488 47.6534 54.9982 47.739 55.1032 47.803C55.2089 47.8699 55.3434 47.8638 55.5017 47.789C55.3967 47.725 55.3143 47.6408 55.2524 47.5399C55.1955 47.4349 55.0968 47.4389 54.9555 47.5492ZM55.6451 48.5603C55.6088 48.7346 55.6529 48.8364 55.7716 48.8672C55.8902 48.8979 55.8985 49.0018 55.7964 49.1787C55.8622 49.176 55.9465 49.148 56.0515 49.0912C56.1536 49.0351 56.188 48.973 56.1488 48.9063C56.0534 48.979 55.9938 48.9018 55.9676 48.6781C55.9414 48.4545 55.8329 48.4154 55.6451 48.5603ZM56.396 48.2738C56.1918 48.6278 56.2735 48.9236 56.6426 49.1548C57.0089 49.3867 57.183 49.6104 57.1667 49.8195C57.2873 49.4299 57.1927 49.1702 56.8826 49.0405C56.5732 48.9136 56.4127 48.6567 56.396 48.2738ZM55.3825 49.8758C55.5675 49.7316 55.6429 49.624 55.606 49.5538C55.4743 49.5592 55.392 49.5958 55.3653 49.6652C55.3364 49.7382 55.3427 49.8062 55.3825 49.8758ZM55.8853 50.5936C55.9052 50.6284 55.9018 50.6533 55.8791 50.6735C55.8558 50.6908 55.853 50.7186 55.873 50.7534C56.0608 50.6085 56.1101 50.5189 56.0272 50.4862L55.8853 50.5936ZM57.0549 49.9805C57.2065 50.0099 57.3113 50.1132 57.3744 50.2863C57.4346 50.46 57.5012 50.6082 57.5648 50.7298C57.6313 50.8508 57.7163 50.9465 57.819 51.0141C57.9218 51.0816 58.1097 51.0575 58.3833 50.9447C58.1379 50.7401 57.9289 50.5091 57.7556 50.249C57.5794 49.9895 57.3449 49.9002 57.0549 49.9805ZM56.2527 50.8977C56.2158 50.8274 56.1703 50.8135 56.1266 50.8475L56.1562 50.8982C56.1739 50.9365 56.2068 50.9352 56.2527 50.8977ZM56.5802 51.682C56.6268 51.6473 56.6398 51.6112 56.6227 51.5758C56.6028 51.541 56.5699 51.5423 56.524 51.5798C56.5439 51.6146 56.5329 51.6594 56.4966 51.7128C56.4568 51.7641 56.4849 51.7547 56.5802 51.682ZM56.6904 51.8898C56.5196 52.0701 56.5299 52.089 56.7171 51.9412C56.9078 51.7957 56.8982 51.7797 56.6904 51.8898ZM58.2715 51.1058C58.3085 51.176 58.2852 51.1933 58.1994 51.1612C58.1137 51.1291 58.0575 51.1478 58.0315 51.2201C58.3927 52.2747 58.811 53.2077 59.293 54.0208C59.767 54.8386 60.2354 55.8601 60.6962 57.0887C60.8692 56.9049 60.9045 56.7399 60.8028 56.5966C60.7011 56.4533 60.8109 56.3773 61.1362 56.3737C60.6998 55.8706 60.3818 55.2896 60.1866 54.6236C59.9863 53.9617 59.6906 53.4391 59.2958 53.0536C59.3911 52.9808 59.4419 52.9513 59.4521 52.9701C59.4618 52.9861 59.4905 52.9796 59.5364 52.9421C59.3132 52.7687 59.1612 52.6035 59.0799 52.4436C58.9964 52.2871 58.9301 52.1268 58.8824 51.9684C58.8318 51.8106 58.771 51.6611 58.6971 51.5207C58.6168 51.3786 58.4771 51.2408 58.2715 51.1058ZM57.5918 51.7085C57.4409 51.9236 57.4484 51.9703 57.6123 51.8398C57.7769 51.7122 57.77 51.6685 57.5918 51.7085ZM57.3798 52.2424C57.2016 52.2825 57.1933 52.2994 57.3585 52.2955C57.5209 52.2923 57.5291 52.2753 57.3798 52.2424ZM57.1503 52.9404C57.1873 53.0106 57.2111 53.0898 57.2248 53.1774C57.2385 53.2649 57.2919 53.2741 57.3844 53.202C57.3933 53.0942 57.4126 53.0053 57.4421 52.9353C57.4681 52.863 57.4902 52.7734 57.4999 52.6686L57.1503 52.9404ZM58.8515 52.5825C58.8974 52.545 58.9509 52.5813 59.0049 52.687C58.9554 52.7222 58.9055 52.6881 58.8515 52.5825ZM58.3937 53.232C58.2354 53.3068 58.173 53.3783 58.2099 53.4485C58.2469 53.5187 58.2838 53.589 58.3179 53.6598L58.6004 53.4393C58.5635 53.3691 58.5231 53.3238 58.4834 53.3085C58.4409 53.2939 58.4108 53.2674 58.3937 53.232ZM57.783 54.1545C57.9242 54.0443 57.9395 53.8838 57.8315 53.6724C57.6902 53.7827 57.6721 53.9438 57.783 54.1545ZM58.7691 54.3499C58.8645 54.2771 58.9309 54.2501 58.9734 54.2647C59.0137 54.2829 59.0398 54.2377 59.0517 54.1294C59.0058 54.1669 58.9467 54.1862 58.8831 54.1853C58.8173 54.1881 58.7787 54.245 58.7691 54.3499ZM59.0375 54.8847C59.2741 54.7017 59.3319 54.5558 59.2143 54.4493C59.1019 54.4866 59.0627 54.5407 59.1003 54.6138C59.1344 54.6847 59.1129 54.7771 59.0375 54.8847ZM58.6229 55.4309C58.5888 55.36 58.5456 55.3425 58.4997 55.38C58.5331 55.448 58.5734 55.4662 58.6229 55.4309ZM59.0194 55.0458C59.0615 55.2599 59.2154 55.3129 59.489 55.2001C59.3595 55.202 59.2843 55.1494 59.2632 55.0424C59.2421 54.9354 59.1606 54.9356 59.0194 55.0458ZM58.6321 55.6463L58.6861 55.752L58.8273 55.6417L58.7734 55.536L58.6321 55.6463ZM59.7249 55.6848C59.7315 55.4326 59.6639 55.3602 59.5226 55.4705C59.3813 55.5807 59.449 55.6531 59.7249 55.6848ZM59.5662 55.9591C59.7297 56.0281 59.8198 56.1468 59.8324 56.3101C59.845 56.4734 59.8953 56.6433 59.9818 56.8263C60.0883 56.6423 60.1025 56.4367 60.0222 56.201C59.9414 55.9624 59.7874 55.8822 59.5662 55.9591ZM59.1661 56.3419C58.8836 56.5625 58.8765 56.6788 59.1428 56.6945C59.4091 56.7102 59.5222 56.6093 59.4823 56.3917C59.2175 56.6506 59.1135 56.6316 59.1661 56.3419ZM60.0358 56.932C60.1482 56.8946 60.1904 56.9214 60.1718 57.0132C60.1503 57.1056 60.2181 57.1115 60.3771 57.0396C60.4547 56.9285 60.4283 56.8378 60.2977 56.7674C60.1629 56.692 60.0765 56.7506 60.0358 56.932ZM60.4079 57.3105C60.3591 57.3487 60.3452 57.4213 60.3663 57.5283C60.3851 57.6388 60.4501 57.6726 60.5625 57.6353C60.4648 57.5636 60.4534 57.4725 60.531 57.3614C60.6094 57.2532 60.569 57.2351 60.4079 57.3105ZM60.7688 57.2506C60.8724 57.469 60.9933 57.5234 61.1368 57.4096C61.1974 57.2631 61.1812 57.164 61.0932 57.1083C61.0029 57.0561 60.896 57.1043 60.7688 57.2506ZM60.6631 57.8543C60.5218 57.9646 60.4518 58.0558 60.4536 58.1309C60.4547 58.2032 60.4483 58.2952 60.4371 58.4065C60.5436 58.2225 60.6212 58.1779 60.6627 58.2682C60.7041 58.3586 60.7958 58.3501 60.94 58.2392C60.7935 58.2056 60.7336 58.1405 60.7551 58.0481C60.7759 57.9528 60.7438 57.8906 60.6631 57.8543ZM61.0003 57.7423C61.6218 59.0949 62.2205 60.6278 62.7998 62.3433C63.3588 64.0754 63.8891 65.8412 64.392 67.6463C64.5361 67.5354 64.6382 67.4792 64.7019 67.4801C64.463 67.6666 64.3785 67.8547 64.4525 68.0496C64.7872 68.2885 64.9345 68.6481 64.8946 69.1283C64.8525 69.612 64.9097 70.0673 65.064 70.4979C65.2421 70.3098 65.2953 70.1167 65.227 69.9206C65.1558 69.7251 65.2425 69.5335 65.4814 69.3469C65.1464 68.7576 64.9775 68.128 64.9741 67.4552C64.9684 66.7859 64.7446 66.2743 64.2968 65.9218C64.3817 65.655 64.3587 65.3249 64.2324 64.9243C64.1031 64.5245 63.9547 64.2678 63.7837 64.1522C63.8855 63.6249 63.8037 63.2747 63.5447 63.1033C63.2857 62.9319 63.0847 62.6025 62.9446 62.1144L63.2294 61.8904C62.7203 61.4399 62.3653 60.7614 62.1579 59.8535C61.9439 58.9561 61.5552 58.249 61.0003 57.7423ZM61.0197 58.62C60.8466 58.8038 60.8438 58.8317 61.0084 58.7041C61.1752 58.573 61.178 58.5452 61.0197 58.62ZM60.786 58.9504C60.613 59.1342 60.6204 59.1537 60.8104 59.0053C60.9983 58.8604 60.9909 58.8409 60.786 58.9504ZM60.9517 58.895C61.0353 59.0786 61.1489 59.1135 61.2901 59.0033C61.2065 58.8197 61.093 58.7848 60.9517 58.895ZM60.8641 59.3376C60.8494 59.4466 60.8129 59.5394 60.7482 59.6143C60.6864 59.6886 60.6697 59.7619 60.7044 59.8356C60.7821 59.7245 60.841 59.6781 60.8814 59.6962C60.9217 59.7143 60.9881 59.6873 61.0834 59.6146C61.1441 59.468 61.148 59.3645 61.0906 59.3109C61.0326 59.2544 60.9588 59.262 60.8641 59.3376ZM61.2562 59.7781C61.3657 59.7415 61.405 59.648 61.372 59.5014C61.3362 59.3554 61.2802 59.3348 61.2025 59.4458C61.2831 59.4821 61.3028 59.529 61.2636 59.5831C61.2251 59.6401 61.2214 59.7044 61.2562 59.7781ZM61.2085 59.8885C61.1945 60.0004 61.2217 60.0275 61.2938 59.9721C61.3658 59.9166 61.4549 59.8694 61.5673 59.8321L61.4939 59.6673L61.2085 59.8885ZM61.7277 60.3035C61.7015 60.1735 61.6413 60.1477 61.546 60.2205L61.5949 60.3304L61.5717 60.4957C61.7017 60.4966 61.754 60.4336 61.7277 60.3035ZM61.7936 60.9986L61.8675 61.1662L62.0809 61.0005L62.0069 60.8329L61.7936 60.9986ZM61.2986 61.8317C60.9983 62.0139 60.9626 62.0431 61.1937 61.9157C61.4205 61.7832 61.4569 61.7569 61.2986 61.8317ZM61.9875 61.4444C61.8604 61.5907 61.8835 61.6127 62.0605 61.5005C62.2319 61.3895 62.2094 61.3704 61.9875 61.4444ZM61.5392 62.3908C61.3173 62.4648 61.2988 62.4901 61.4793 62.4738C61.6621 62.4538 61.6805 62.4286 61.5392 62.3908ZM62.2973 61.9487C62.2655 61.8743 62.2251 61.8562 62.1786 61.8908C62.2104 61.9652 62.2507 61.9833 62.2973 61.9487ZM61.8004 62.5587C61.9417 62.4484 61.9201 62.3929 61.7293 62.3904C61.7612 62.4648 61.7527 62.5211 61.7068 62.5586C61.658 62.5967 61.688 62.596 61.8004 62.5587ZM62.7235 63.1851C62.5963 63.0354 62.5152 62.8362 62.4758 62.5943C62.4365 62.3524 62.3515 62.2295 62.2271 62.2273C62.2597 62.4525 62.2944 62.6471 62.3326 62.8167C62.373 62.9829 62.5038 63.1075 62.7235 63.1851ZM62.0111 63.9643C61.9156 63.8891 61.8812 63.8032 61.9056 63.7101C61.9299 63.617 61.8767 63.5686 61.753 63.5692C61.6902 63.7192 61.6931 63.8394 61.763 63.9354C61.8323 64.0286 61.9157 64.0371 62.0111 63.9643ZM63.2084 64.6016C63.2423 64.3765 63.2024 64.1589 63.0858 63.9495C62.9699 63.7429 62.8731 63.5411 62.7946 63.3533C62.5876 63.6143 62.5866 63.838 62.7901 64.031C62.9929 64.221 63.1322 64.4103 63.2084 64.6016ZM61.9136 64.1886C61.9277 64.2247 61.9256 64.2554 61.9023 64.2727C61.8762 64.2906 61.8734 64.3184 61.891 64.3568C61.937 64.3193 61.965 64.3099 61.9725 64.3294C61.9799 64.3489 62.008 64.3396 62.0539 64.3021C62.0391 64.2631 62.0419 64.2353 62.0651 64.218C62.0884 64.2007 62.0935 64.1693 62.0764 64.1339C62.0276 64.172 62.0024 64.1807 61.995 64.1612C61.9905 64.1411 61.9624 64.1504 61.9136 64.1886ZM62.4793 64.421C62.4645 64.382 62.4624 64.3462 62.4812 64.3088C62.4971 64.272 62.4973 64.2327 62.4831 64.1966C62.3559 64.1949 62.3043 64.2609 62.3277 64.3916C62.3482 64.5229 62.3987 64.5327 62.4793 64.421ZM63.4425 66.1378C63.6199 65.7989 63.6492 65.5537 63.527 65.3999C63.4049 65.2461 63.3218 65.0382 63.2767 64.7705C63.0845 65.0704 63.0812 65.2977 63.267 65.4523C63.4528 65.6069 63.5103 65.8356 63.4425 66.1378ZM62.6463 66.0085C62.6781 65.935 62.6495 65.7813 62.5591 65.5539C62.3853 65.5869 62.3335 65.6922 62.4024 65.864C62.4713 66.0358 62.5516 66.0842 62.6463 66.0085ZM62.7532 66.7518C62.6875 66.9025 62.7221 66.9491 62.8555 66.8979C62.9883 66.8439 63.0399 66.778 63.011 66.7029C62.9163 66.7786 62.8677 66.7774 62.8716 66.701C62.8714 66.6195 62.8302 66.6378 62.7532 66.7518ZM64.0077 67.1194C63.9491 66.9665 63.87 66.803 63.7733 66.6284C63.6738 66.4544 63.6589 66.2946 63.724 66.141C63.5926 66.4424 63.574 66.6822 63.6729 66.8533C63.7703 67.0308 63.8805 67.1178 64.0077 67.1194ZM64.31 66.2088C64.356 66.1713 64.4043 66.2118 64.4481 66.3258C64.3993 66.3639 64.3545 66.3257 64.31 66.2088ZM64.4427 66.5566C64.5374 66.4809 64.6027 66.5297 64.6387 66.7028C64.6717 66.8767 64.6276 66.9621 64.5026 66.9569C64.5189 66.8415 64.4973 66.7859 64.4366 66.7845C64.373 66.7837 64.3741 66.7079 64.4427 66.5566ZM63.8359 67.4027C63.8803 67.5196 63.8382 67.5743 63.7139 67.5721C63.6941 67.6853 63.7144 67.7351 63.7677 67.717C63.821 67.699 63.8639 67.7287 63.8935 67.8066L64.0377 67.6957L64.1374 67.4679C64.0427 67.5435 63.9915 67.5308 63.9852 67.4356C63.9817 67.3397 63.9312 67.3299 63.8359 67.4027ZM63.4338 68.5412C63.4995 68.3905 63.4858 68.2758 63.3983 68.1957C63.3079 68.1163 63.2642 68.0023 63.2685 67.8473C63.1392 67.9972 63.107 68.1494 63.1627 68.303C63.2191 68.4595 63.3066 68.5395 63.4338 68.5412ZM63.9602 67.9819C64.1557 68.1797 64.2872 68.576 64.3553 69.1739C64.4177 69.7731 64.5924 70.2141 64.876 70.4948C64.7218 70.0642 64.6319 69.5981 64.6031 69.0941C64.5713 68.5907 64.3578 68.2188 63.9602 67.9819ZM63.3701 69.1173L63.4339 69.2933C63.5434 69.2566 63.5883 69.174 63.5693 69.0363C63.5511 68.9014 63.4999 68.8888 63.42 69.0034C63.4342 69.0395 63.4161 69.0798 63.3701 69.1173ZM63.5608 69.6423L63.6023 69.7599L63.8157 69.5941L63.7741 69.4766L63.5608 69.6423ZM63.66 70.1638C63.7554 70.091 63.8353 69.9764 63.9039 69.825C63.665 70.0116 63.5845 70.1233 63.66 70.1638ZM63.6739 70.4536C63.7198 70.4161 63.7534 70.4177 63.7653 70.4573C63.9095 70.3464 63.9332 70.2504 63.8457 70.1704C63.8117 70.2475 63.7678 70.2936 63.7144 70.3116C63.6576 70.3274 63.6443 70.3757 63.6739 70.4536ZM63.9288 70.4054C63.7507 70.5935 63.7008 70.7074 63.7764 70.7478C63.8519 70.7882 63.898 70.9259 63.9232 71.1588C63.9912 71.0046 64.0393 70.8428 64.0699 70.6698C64.0975 70.4974 64.0503 70.4084 63.9288 70.4054ZM64.0982 71.923C64.1514 71.7298 64.1584 71.6135 64.1129 71.5723C64.0674 71.5312 64.049 71.4357 64.0562 71.28C63.8365 71.3505 63.7634 71.4817 63.8323 71.6807C63.9006 71.8768 63.9887 71.9597 64.0982 71.923ZM65.1635 70.7927C65.1368 70.7141 65.1163 70.7036 65.1085 70.7627C65.0943 70.8203 65.1147 70.8308 65.1635 70.7927C65.1711 70.9873 65.2063 71.0096 65.2772 70.8547C65.3423 70.7012 65.3048 70.6824 65.1635 70.7927ZM64.7539 71.1867C64.8074 71.3439 64.9091 71.3663 65.0504 71.2561L64.9895 71.0794C64.9407 71.1176 64.9024 71.1352 64.8717 71.1331C64.8388 71.1344 64.8005 71.1521 64.7539 71.1867ZM65.4295 71.035C65.4147 70.996 65.3613 71.0141 65.266 71.0868L65.3075 71.2044C65.4029 71.1316 65.4414 71.0746 65.4295 71.035ZM65.0814 71.6085C65.0666 71.5696 65.0052 71.5652 64.8957 71.6019L64.9566 71.7785C65.052 71.7058 65.0933 71.6482 65.0814 71.6085ZM65.297 71.4393C65.4801 71.7969 65.5557 72.1998 65.5272 72.6502C65.4952 73.0984 65.7122 73.2974 66.1754 73.2356C66.1361 73.1146 66.1633 73.0208 66.2609 72.9446C66.2681 72.7889 66.2255 72.7471 66.1301 72.8199C66.0326 72.8962 65.9485 72.912 65.8752 72.8681C66.0361 72.4423 66.0173 72.1172 65.8195 71.8959C65.6195 71.678 65.4458 71.5237 65.297 71.4393ZM64.9525 72.8337C65.0966 72.7228 65.1532 72.6255 65.1265 72.5469C64.9859 72.66 64.9257 72.7551 64.9525 72.8337ZM65.4855 74.4508C65.5142 74.1755 65.5026 73.9093 65.4507 73.6521C65.396 73.3956 65.3082 73.086 65.1887 72.7293C65.0499 73.0383 65.0354 73.3497 65.1408 73.6704C65.2449 73.9853 65.361 74.2462 65.4855 74.4508ZM63.9012 73.7313C64.0693 73.6996 64.071 73.7475 63.9042 73.8786C63.7368 74.0069 63.7379 73.9583 63.9012 73.7313ZM64.4363 73.9887C64.2701 74.2163 64.2699 74.2556 64.4293 74.105C64.5893 73.9573 64.5924 73.9174 64.4363 73.9887ZM64.4651 74.3447C64.287 74.5327 64.2819 74.564 64.4487 74.4329C64.6155 74.3018 64.6205 74.2705 64.4651 74.3447ZM66.3092 73.6556C66.0948 73.9243 66.0071 73.9772 66.0479 73.8231C66.0881 73.666 66.057 73.528 65.9569 73.4055L65.7414 73.5747C65.9194 73.9365 66.003 74.3346 65.992 74.769C65.9811 75.2034 66.1219 75.507 66.4145 75.68C66.412 75.4811 66.4353 75.2222 66.4855 74.9088C66.5352 74.5926 66.4082 74.4308 66.1032 74.4178C66.4397 74.1549 66.5093 73.9007 66.3092 73.6556ZM67.8115 83.3496C67.8093 82.897 67.8615 82.3778 67.9683 81.792C68.0721 81.2069 68.042 80.7243 67.8822 80.3494C67.8605 80.2667 67.8848 80.1464 67.9579 79.9881C67.9333 79.906 67.8779 79.861 67.7894 79.8567C67.7008 79.8525 67.6681 79.7873 67.6923 79.6671C67.8654 79.0271 67.852 78.4713 67.6551 77.999C67.4547 77.5245 67.4284 77.032 67.5728 76.5193C67.436 76.0728 67.3769 75.7296 67.3926 75.4905C67.4082 75.2514 67.4121 74.9333 67.4101 74.5351C67.1784 74.5659 67.0475 74.4806 67.0143 74.2796C66.9812 74.0786 66.9608 73.8808 66.9584 73.682C66.953 73.4838 66.9324 73.3253 66.8931 73.2043C66.8538 73.0832 66.7295 73.081 66.5275 73.1898C66.8426 74.3484 67.0302 75.5175 67.0939 76.6994C67.1524 77.8854 67.3798 78.9761 67.7824 79.9731C67.6479 80.1271 67.5687 80.3655 67.5418 80.6887C67.6853 80.5749 67.788 80.5216 67.8494 80.5259C67.7637 80.6418 67.7014 80.7404 67.668 80.8204C67.6312 80.8981 67.5688 80.9967 67.4867 81.1149C67.6344 82.308 67.6592 83.6255 67.566 85.0631C67.9121 84.8434 68.0427 84.5513 67.9532 84.1938C67.8486 83.8367 67.806 83.5533 67.8115 83.3496ZM65.3636 74.6201C65.3416 74.7369 65.3604 74.8474 65.4252 74.9476C65.4872 75.0485 65.5962 75.0633 65.7523 74.992C65.679 74.948 65.6397 74.827 65.6378 74.631C65.6303 74.4364 65.5389 74.4328 65.3636 74.6201ZM64.9711 75.0768C64.8544 75.2692 64.8765 75.3004 65.0462 75.1687C65.2136 75.0405 65.1879 75.007 64.9711 75.0768ZM64.7153 75.9528C64.8107 75.8801 64.9054 75.8044 65.0001 75.7288C65.0954 75.656 65.1243 75.5559 65.0849 75.4349C65.0116 75.3909 64.9069 75.4356 64.7708 75.5688C64.6347 75.7021 64.6153 75.8303 64.7153 75.9528ZM65.7076 75.7058C65.6831 75.6237 65.6626 75.6132 65.6519 75.673C65.6412 75.7328 65.6588 75.744 65.7076 75.7058C65.7683 75.7073 65.7502 75.7476 65.6555 75.8232L65.6948 75.9443C65.8141 75.9507 65.8685 75.8841 65.8554 75.7451C65.8387 75.6039 65.7904 75.5906 65.7076 75.7058ZM65.7506 76.1251C65.7751 76.2072 65.7795 76.2666 65.7607 76.304C65.7426 76.3444 65.7463 76.4009 65.7708 76.483C65.8781 76.4499 65.945 76.3714 65.967 76.2547C65.9884 76.1351 66.0424 76.12 66.1305 76.2029C66.2887 76.5298 66.3683 76.8835 66.3658 77.2616C66.3611 77.6433 66.4145 78.0149 66.5217 78.3835C66.6289 78.3503 66.6973 78.332 66.728 78.3341C66.7587 78.3363 66.8277 78.3208 66.9343 78.2848C66.9709 78.0047 66.9383 77.7523 66.8421 77.5262C66.743 77.3007 66.7439 77.0498 66.839 76.7747C66.6461 76.9238 66.544 76.9799 66.5321 76.9403C66.8172 76.5168 66.8439 76.2058 66.6046 76.0148C66.3724 75.8284 66.0849 75.8658 65.7506 76.1251ZM65.8629 76.4895C65.7552 76.7221 65.7828 76.7643 65.945 76.613C66.1073 76.4618 66.0797 76.4197 65.8629 76.4895ZM66.1104 78.1798C66.276 77.9493 66.3235 77.8118 66.2531 77.7672C66.1798 77.7232 66.1388 77.5814 66.1238 77.3401C65.9922 77.4935 65.9596 77.6307 66.0268 77.7546C66.0939 77.8785 66.1205 78.0235 66.1104 78.1798ZM66.2911 79.3988C66.2324 79.1915 66.2243 79.0212 66.2747 78.883C66.3223 78.7454 66.3522 78.5967 66.3646 78.4369C66.2204 78.5478 66.1315 78.743 66.0948 79.0231C66.0553 79.3038 66.1225 79.4277 66.2911 79.3988ZM66.4881 78.8652C66.595 79.0315 66.6492 79.2187 66.6488 79.4182C66.6491 79.6205 66.6826 79.7429 66.7559 79.7868C66.9732 79.5175 67.0581 79.2507 67.01 78.9836C66.9604 78.7229 66.7884 78.683 66.4881 78.8652ZM66.8729 80.8298C67.0533 80.6383 67.1218 80.4598 67.0757 80.2949C67.0295 80.1301 66.9753 79.9429 66.9172 79.7385C66.7 80.0078 66.6519 80.1968 66.7702 80.3062C66.8884 80.4155 66.9215 80.5893 66.8729 80.8298ZM66.3932 80.3757C66.5032 80.1396 66.4756 80.0975 66.3133 80.2487C66.151 80.3999 66.1786 80.442 66.3932 80.3757ZM65.2605 81.636C65.2263 81.5108 65.1837 81.469 65.1378 81.5065C65.1714 81.6288 65.2118 81.6741 65.2605 81.636ZM66.4939 81.0509C66.4234 81.0063 66.3989 80.9242 66.4261 80.8033C66.4503 80.6831 66.4151 80.6608 66.3204 80.7364C66.3449 80.8185 66.3535 80.9102 66.3525 81.0132C66.3508 81.1132 66.3991 81.1265 66.4939 81.0509ZM66.89 80.8924C66.9316 81.4661 66.9313 82.0552 66.8933 82.6648C66.8525 83.2751 66.8875 83.7928 66.9941 84.2129C67.1751 83.5681 67.231 82.9575 67.1639 82.3775C67.0945 81.801 67.0046 81.3077 66.89 80.8924ZM66.4852 81.9651C66.3536 82.1185 66.3684 82.1302 66.538 81.9985C66.7048 81.8674 66.6872 81.8563 66.4852 81.9651ZM66.3716 82.5071L66.4401 82.7575C66.6301 82.6091 66.6566 82.4854 66.5158 82.3962L66.3716 82.5071ZM65.0962 83.5759C65.0816 83.7392 65.137 83.7842 65.2624 83.7107C65.385 83.6379 65.4556 83.5223 65.4702 83.359C65.3755 83.4346 65.311 83.4702 65.2832 83.4674C65.2525 83.4653 65.1915 83.5031 65.0962 83.5759ZM67.0261 84.3416C66.9502 84.5006 66.8999 84.6932 66.8717 84.917C66.8436 85.1408 66.8851 85.2583 67.0021 85.2683C66.9924 85.2251 67.0338 85.1675 67.1314 85.0912C67.1091 85.0056 67.1161 84.8621 67.1516 84.6578C67.1843 84.4541 67.1425 84.3487 67.0261 84.3416ZM66.5904 86.7261C66.6343 86.4383 66.6022 86.376 66.5013 86.5316C66.3947 86.6885 66.4268 86.7507 66.5904 86.7261Z" fill="#00D8DA"/>
<path d="M62.439 95.1577C62.6926 95.0373 62.9722 95.0591 63.2835 95.2218C63.5948 95.3845 63.908 95.4078 64.2223 95.289C64.0996 95.1595 63.8046 95.0294 63.3362 94.8929C62.8678 94.7564 62.5363 94.8127 62.3447 95.061C61.5942 94.9184 60.8791 94.5443 60.2009 93.9325C59.5228 93.3206 58.9385 92.6968 58.4481 92.0609C58.1412 91.6768 57.7561 91.3072 57.2934 90.955C56.8301 90.6 56.6635 90.2357 56.7966 89.8616C56.7981 89.7344 56.7363 89.6879 56.6099 89.7163C56.4835 89.7446 56.3889 89.7266 56.3296 89.6644C56.3961 89.4773 56.5212 89.4161 56.7089 89.4857C56.0944 88.781 55.5126 88.0479 54.9631 87.2834C54.4136 86.5188 53.992 85.5988 53.699 84.526C53.015 84.1963 52.6025 83.6246 52.463 82.8043C52.3206 81.9846 51.9417 81.3479 51.3241 80.8976C51.262 80.7696 51.2964 80.7075 51.4206 80.7099C51.5449 80.7122 51.6093 80.6494 51.6115 80.5251C51.5508 80.3364 51.4762 80.2867 51.3791 80.3779C51.2819 80.4692 51.1715 80.5151 51.0472 80.5128C50.9267 80.259 50.7755 79.9094 50.5972 79.4663C50.4189 79.0231 50.1719 78.704 49.8627 78.5107L50.1507 78.2347C49.5931 77.783 49.3228 77.2125 49.3367 76.5239C49.2139 76.3944 49.1036 76.3467 49.0107 76.3766C48.9143 76.4043 48.8039 76.4502 48.6789 76.5115C48.6285 75.8191 48.4506 75.2974 48.1451 74.9462C47.8367 74.5956 47.5009 74.2572 47.1297 73.9359C46.1666 71.8448 45.0453 69.9222 43.7599 68.1692C42.4774 66.4155 41.2268 64.6155 40.0057 62.7726C39.9465 62.6439 39.8693 62.5827 39.7751 62.5797C39.6808 62.5767 39.573 62.5133 39.4502 62.3838C39.1506 61.7505 38.7362 61.2244 38.2101 60.8049C37.6868 60.3848 37.176 59.9528 36.682 59.502C36.4342 59.4338 36.276 59.4149 36.2132 59.4441C36.151 59.4762 35.9628 59.4852 35.6478 59.4804C35.5893 59.3546 35.4951 59.2579 35.3716 59.192C35.2481 59.1261 35.1545 59.0324 35.0953 58.9037C35.1699 58.4038 35.38 58.0638 35.728 57.88C36.0767 57.6991 36.4709 57.6136 36.9102 57.6208C37.3502 57.6308 37.7883 57.6865 38.2254 57.7907C38.6624 57.895 39.067 58.0428 39.4404 58.2399C39.569 58.1808 39.6154 58.119 39.5855 58.0533C39.5563 57.9904 39.5098 57.9585 39.4463 57.9577C39.949 58.0321 40.4764 58.2158 41.0376 58.5096C41.596 58.8041 41.9346 59.2354 42.0472 59.802C43.0396 60.3887 43.8398 61.1272 44.4508 62.0168C45.0588 62.9071 45.639 63.8611 46.1819 64.8777C46.7958 65.5795 47.3621 66.298 47.8803 67.0303C48.3984 67.7626 48.8376 68.573 49.197 69.4587C49.5047 69.7792 49.8277 70.1144 50.1668 70.4671C50.5052 70.817 50.6381 71.2462 50.5636 71.7461C50.7492 71.8735 50.918 72.0199 51.0722 72.1816C51.2257 72.3404 51.3638 72.4846 51.4865 72.6141C51.4836 72.8019 51.4021 72.8957 51.2471 72.8912C51.0893 72.8874 51.0107 72.9805 51.0048 73.1691C51.1269 73.2957 51.2216 73.3137 51.2852 73.2209C51.3488 73.1281 51.4756 73.1148 51.6627 73.1815C52.0938 73.5679 52.3985 74.0764 52.5739 74.7074C52.7493 75.3385 53.0846 75.8491 53.5794 76.2363C53.9418 76.9341 54.2736 77.6297 54.5731 78.3296C54.872 79.0265 55.3009 79.6309 55.8548 80.1468C56.4504 81.665 57.1778 83.0449 58.0313 84.2878C58.8848 85.5307 59.6415 86.8799 60.305 88.3376C60.7997 88.7248 61.1823 89.2037 61.4526 89.7742C61.723 90.3447 62.1071 90.79 62.6032 91.1165C62.6588 91.4302 62.825 91.7794 63.1012 92.1614C63.3774 92.5433 63.6997 92.8485 64.071 93.0762C64.4423 93.304 64.8478 93.4696 65.2842 93.571C65.7213 93.6753 66.1309 93.6045 66.5139 93.3616C67.7251 92.3198 68.7835 91.1491 69.6892 89.8498C70.5919 88.551 71.2214 86.9633 71.571 85.085C72.2925 83.531 72.8135 81.7834 73.1345 79.8452C73.4549 77.904 73.5716 75.93 73.487 73.9197C74.2391 73.9352 74.8092 73.7589 75.1908 73.3894C75.8749 73.6527 76.5627 73.7309 77.2562 73.6206C77.9492 73.5074 78.5397 73.6769 79.0337 74.1277C79.09 74.3778 79.0413 74.5367 78.8827 74.5964C78.7241 74.6562 78.6119 74.7478 78.5462 74.8713C78.6683 74.9979 78.6971 75.1394 78.6327 75.2957C78.5677 75.4492 78.5315 75.6235 78.5285 75.8114C78.3794 76.9984 78.1942 78.4411 77.9712 80.1309C77.7481 81.8207 77.3752 83.2875 76.8496 84.5318C76.6508 85.0294 76.4219 85.5277 76.1624 86.0238C75.9 86.5205 75.6705 87.0159 75.4752 87.5157C75.3437 87.7627 75.2764 88.0133 75.2726 88.2648C75.2683 88.5134 75.1981 88.7647 75.0701 89.0139C74.7404 89.7613 74.2887 90.4092 73.7134 90.9641C73.1374 91.5161 72.6549 92.1347 72.2653 92.817C71.6265 93.3046 70.9113 93.761 70.1197 94.1862C69.3274 94.6086 68.3966 94.7782 67.3332 94.6937C66.6359 95.0555 65.8469 95.305 64.964 95.4457C64.0919 95.581 63.2466 95.4868 62.439 95.1577ZM40.9239 59.4924C40.6717 59.552 40.6568 59.5795 40.8753 59.5848C41.0967 59.5895 41.111 59.5591 40.9239 59.4924ZM44.5887 64.6524C44.6538 64.526 44.7159 64.4668 44.7795 64.4676C44.8402 64.4691 44.8745 64.407 44.8767 64.2827C44.3754 64.1476 44.132 63.8579 44.1422 63.4208C44.1518 62.9808 43.9362 62.694 43.5013 62.559C43.6189 63.0007 43.7505 63.397 43.901 63.7437C44.0487 64.091 44.2774 64.3961 44.5887 64.6524C44.6442 64.966 44.7681 65.1406 44.9544 65.1773C45.1437 65.2133 45.3005 65.1057 45.4321 64.8587C45.3093 64.7292 45.2001 64.633 45.1073 64.5692C45.0144 64.5055 44.8394 64.5327 44.5887 64.6524ZM43.2163 62.6471C43.03 62.5168 43.0153 62.5322 43.1695 62.6939C43.323 62.8527 43.3376 62.8373 43.2163 62.6471ZM45.4145 65.7052C45.4182 65.4537 45.2961 65.3271 45.044 65.3203C44.9782 65.4437 45.0075 65.5066 45.1353 65.5112C45.2596 65.5135 45.3531 65.5801 45.4145 65.7052C45.3487 65.8287 45.3776 65.8765 45.5069 65.8475C45.6327 65.8163 45.6951 65.8657 45.6936 65.9929C45.5057 65.9897 45.4893 66.0508 45.6421 66.1796C45.7948 66.3084 45.8756 66.2782 45.8785 66.0903L45.9728 66.0933C46.0372 65.8433 45.8515 65.7159 45.4145 65.7052ZM45.6907 65.9935C45.815 65.9958 45.8793 66.0267 45.8757 66.0909C45.8156 66.0923 45.7506 66.0586 45.6907 65.9935ZM46.249 66.3816C46.1219 66.38 46.059 66.4091 46.0583 66.4727C46.0568 66.5335 45.9954 66.5019 45.8733 66.3753C45.8075 66.4988 45.8353 66.6889 45.9558 66.9427C46.2036 67.0109 46.3476 66.9665 46.3819 66.8108C46.4156 66.6523 46.3718 66.5111 46.249 66.3816ZM46.2321 67.231C46.3534 67.4212 46.4923 67.5954 46.6464 67.7571C46.7999 67.9159 46.9066 68.1215 46.9636 68.3744C47.1492 68.5019 47.2121 68.4727 47.1543 68.2833C47.0937 68.0946 47.1274 68.0296 47.2516 68.0984C47.2486 68.2863 47.3429 68.2893 47.5337 68.1046C47.2838 67.9734 47.0532 67.7806 46.8384 67.5237C46.6207 67.2676 46.4207 67.1705 46.2321 67.231ZM47.2369 68.757L47.6133 68.7662C47.6162 68.5783 47.5877 68.4518 47.5278 68.3867C47.462 68.5102 47.4127 68.5726 47.3827 68.5733C47.3491 68.5718 47.302 68.6307 47.2369 68.757ZM47.6103 68.9541C47.6001 69.3912 47.8463 69.6802 48.3448 69.816L48.3536 69.3459C48.2272 69.2807 48.1041 69.2298 47.9791 69.1975C47.8563 69.1616 47.7324 69.0807 47.6103 68.9541ZM48.7035 70.8589L48.6122 70.668C48.7387 70.546 48.7409 70.4489 48.6181 70.3858C48.4917 70.3206 48.3695 70.2876 48.2446 70.2824C48.2424 70.4067 48.3652 70.5362 48.6151 70.6673C48.4829 70.7906 48.5128 70.8564 48.7035 70.8589C48.7005 71.0468 48.762 71.0783 48.8884 70.9563C49.0149 70.8343 48.9528 70.7999 48.7035 70.8589ZM49.3561 71.0627C49.2276 71.1218 49.1197 71.152 49.0254 71.149C48.9312 71.146 48.8504 71.1762 48.789 71.2383C49.1594 71.6233 49.4474 72.0841 49.6557 72.6202C49.864 73.1563 50.1526 73.62 50.523 74.005C50.5355 73.377 50.4183 72.8568 50.1772 72.4428C49.9331 72.0295 49.6602 71.5683 49.3561 71.0627ZM49.3473 71.5328C49.5951 71.601 49.5958 71.631 49.3444 71.6271C49.0952 71.6196 49.0945 71.5895 49.3473 71.5328ZM51.3834 73.362L51.3804 73.5499L51.5683 73.553L51.5712 73.3651L51.3834 73.362ZM51.625 75.4397C51.8151 75.3186 51.9108 75.1944 51.9159 75.0695C51.7288 75.0027 51.5417 74.936 51.3546 74.8693C51.1675 74.8025 51.1998 74.6775 51.4577 74.4958C51.0813 74.4867 50.8927 74.5471 50.8905 74.6714C51.1361 74.8639 51.2245 75.1491 51.155 75.524C51.4671 75.5295 51.6085 75.5944 51.5735 75.7201C51.5384 75.8457 51.5512 75.9697 51.6132 76.0977C52.0503 76.1083 52.2426 75.9836 52.1862 75.7336C52.1878 75.6064 52.1103 75.5573 51.9539 75.5864C51.7945 75.6161 51.6835 75.5655 51.625 75.4397ZM51.8924 76.1981C51.8903 76.3224 51.9488 76.4482 52.0744 76.577C52.0766 76.4527 52.0152 76.3276 51.8924 76.1981ZM52.6334 76.7807C52.635 76.6536 52.6057 76.5907 52.5421 76.5898C52.54 76.7142 52.5692 76.777 52.6334 76.7807ZM52.7211 77.1567C52.5948 77.0914 52.4106 76.9304 52.1657 76.6743C52.2168 77.303 52.5194 77.8421 53.074 78.2945C52.9557 77.9164 52.9736 77.8218 53.1256 78.0141C53.2776 78.2065 53.4198 78.2078 53.5499 78.0216C53.3657 77.767 53.1626 77.6827 52.9418 77.7745C52.7204 77.8635 52.6473 77.6594 52.7211 77.1567ZM53.0917 77.3544C52.8381 77.4747 52.8188 77.5364 53.0402 77.5411C53.2616 77.5458 53.2774 77.4818 53.0917 77.3544ZM53.0682 78.5766C53.1917 78.6425 53.2531 78.7677 53.2473 78.9562C53.2443 79.1441 53.3678 79.21 53.6207 79.1533C54.0614 79.0997 54.1254 78.9283 53.8191 78.6407C53.5122 78.3502 53.2633 78.3305 53.0682 78.5766ZM54.1878 79.1649C53.9999 79.1618 53.9042 79.2195 53.9027 79.3467C53.9005 79.471 53.834 79.5644 53.709 79.6257C53.8325 79.6916 53.9085 79.8013 53.9384 79.9607C53.9676 80.1172 54.0115 80.2584 54.0707 80.387C54.1957 80.3258 54.3375 80.3121 54.4938 80.3495C54.6495 80.384 54.7292 80.3088 54.735 80.1202C54.2307 80.173 54.0433 80.0912 54.1755 79.8743C54.3036 79.6523 54.3083 79.4187 54.1878 79.1649ZM52.6748 79.5104C52.5521 79.3809 52.4728 79.3504 52.4413 79.4118C52.407 79.4739 52.4062 79.5375 52.4384 79.5997C52.4676 79.6626 52.5144 79.7095 52.5765 79.7439C52.635 79.776 52.669 79.699 52.6748 79.5104ZM54.2498 80.673C54.2476 80.7973 54.3083 80.8924 54.4318 80.9583C54.5546 81.0213 54.6167 81.1493 54.6137 81.3372C54.9259 81.3427 55.1151 81.2851 55.1809 81.1617C54.9938 81.0949 54.8364 81.0125 54.715 80.9159C54.5914 80.8228 54.4397 80.7391 54.2498 80.673ZM55.3488 82.2957C55.3518 82.1078 55.2897 82.0734 55.1639 82.1983C55.0345 82.3209 55.096 82.3524 55.3488 82.2957C55.2831 82.4191 55.313 82.4849 55.4401 82.4866C55.5644 82.4889 55.6887 82.4912 55.8165 82.4957C55.7544 82.3677 55.7113 82.2566 55.6813 82.1637C55.6507 82.0679 55.5732 82.0188 55.4489 82.0165C55.4468 82.1408 55.4109 82.2364 55.3488 82.2957ZM56.2688 83.4451C56.1395 83.5678 56.0758 83.7542 56.0692 84.0063L56.5392 84.0156C56.5422 83.8277 56.4515 83.6397 56.2688 83.4451ZM56.8979 84.9649C56.83 85.2127 56.8906 85.3078 57.0799 85.2502C57.2685 85.1897 57.3942 85.225 57.4534 85.3536C57.46 85.1015 57.2743 84.9741 56.8979 84.9649ZM57.4533 85.4472C57.1997 85.5676 57.1989 85.6312 57.4504 85.6351C57.6996 85.6426 57.7004 85.579 57.4533 85.4472ZM56.9805 85.4386L56.9746 85.7207L57.1625 85.7239L57.1684 85.4417L56.9805 85.4386ZM58.0913 86.4033C58.0928 86.2761 58.0782 86.1979 58.0503 86.1679C58.0189 86.1357 58.0043 86.0574 58.0094 85.9325C57.6951 85.8641 57.492 85.8734 57.3955 85.9676C57.2983 86.0588 57.4715 86.0773 57.9122 86.0237C57.91 86.148 57.9686 86.2738 58.0913 86.4033C58.0869 86.6519 58.1469 86.717 58.2762 86.5944C58.4055 86.4717 58.3427 86.4073 58.0913 86.4033ZM58.2703 86.9701C58.3296 87.0323 58.4406 87.0829 58.5963 87.1174C58.752 87.152 58.8009 87.0745 58.7432 86.8852C58.4282 86.8804 58.2717 86.9094 58.2703 86.9701ZM58.7321 87.4524C58.7277 87.701 58.8191 87.7982 59.0083 87.7407L59.0113 87.5528C58.8842 87.5511 58.8224 87.5317 58.8246 87.5011C58.8232 87.4682 58.7928 87.4538 58.7321 87.4524ZM59.2816 88.2169C59.2721 88.6569 59.4248 88.8793 59.7398 88.8841C59.7414 88.757 59.7118 88.679 59.6503 88.6475C59.5882 88.6131 59.6193 88.5367 59.7487 88.4141C59.6851 88.4132 59.528 88.3458 59.2816 88.2169ZM60.1987 89.4606C59.9451 89.5809 59.9443 89.6445 60.1958 89.6485C60.4443 89.6531 60.4451 89.5896 60.1987 89.4606Z" fill="#00D8DA"/>
</svg>
