<svg width="266" height="229" viewBox="0 0 266 229" fill="none" xmlns="http://www.w3.org/2000/svg">
<path d="M90.9074 90.3342C91.0888 90.185 91.2453 90.04 91.3797 89.8929C91.5142 89.7458 91.7645 89.7345 92.1328 89.8369C92.1209 89.1575 92.0684 88.7588 91.9745 88.6251C91.8898 89.0395 91.6679 89.2626 91.3052 89.2852C90.9333 89.3115 90.8016 89.659 90.9074 90.3342C90.4664 91.0498 89.9251 91.491 89.2972 91.6793C88.2917 91.4929 87.0735 91.8018 85.6333 92.6096C84.1966 93.4266 82.7977 93.9004 81.4373 94.0465L81.4289 93.4452C80.3521 94.1081 79.3394 94.5926 78.3943 94.908C77.4491 95.2234 76.297 95.5387 74.9472 95.8504C74.8541 95.5946 74.8499 95.4318 74.9402 95.3494C75.0277 95.2734 75.0733 95.1021 75.0641 94.8299C74.0727 95.2319 73.2918 95.7812 72.7142 96.4591C72.1338 97.1434 71.3095 97.6351 70.2285 97.9284C70.2229 97.5275 70.1703 97.3356 70.0864 97.3519C69.4682 98.3795 68.6005 98.9515 67.4705 99.0621C66.3441 99.182 65.4707 99.6289 64.8533 100.396C65.0227 99.7055 65.0419 99.4383 64.9047 99.5918C64.7738 99.7481 64.7027 99.4944 64.6915 98.8306C64.156 99.1901 63.8444 99.5113 63.7597 99.7877C63.6722 100.071 63.7681 100.182 64.0355 100.132C64.3029 100.083 64.4402 99.9293 64.4346 99.6663C64.6208 99.9023 64.5532 100.14 64.2417 100.393C63.9302 100.645 63.6393 100.799 63.3655 100.846C63.5349 100.155 63.439 99.8367 63.0785 99.9063C62.8167 100.219 62.8181 100.388 63.0883 100.401C63.3556 100.42 63.4097 100.574 63.2318 100.871C60.9012 101.957 58.7833 102.962 56.8616 103.869C54.9407 104.793 52.8213 105.835 50.5042 107.012C50.6764 106.452 50.8493 106.184 51.0321 106.204C51.212 106.231 51.5242 106.063 51.9687 105.701C51.2434 105.471 50.5109 105.636 49.7527 106.203C48.9946 106.77 48.2648 107.273 47.5536 107.7C47.7384 108.18 48.0996 108.126 48.6281 107.542C49.1538 106.963 49.6054 106.758 49.9645 106.933C49.4352 107.709 48.5035 108.321 47.1629 108.767C45.387 109.985 43.5869 111.085 41.7626 112.067C39.9391 113.064 38.2741 114.033 36.7706 114.965C35.9817 115.963 34.9177 116.839 33.5856 117.61C32.2599 118.385 31.1049 119.051 30.1326 119.599C29.8659 119.803 29.6461 120.004 29.4726 120.187C29.2926 120.368 29.1219 120.613 28.9448 120.925C28.146 121.428 27.2407 121.999 26.2257 122.643C25.2108 123.288 24.2648 124.07 23.385 124.997C22.4953 125.291 21.7933 125.783 21.269 126.462C20.7448 127.14 20.04 127.639 19.1538 127.943C17.6615 129.47 15.8571 130.959 13.744 132.418C11.6344 133.885 9.70196 135.524 7.95216 137.32C7.68897 137.671 7.49476 138.021 7.36383 138.384C7.23573 138.741 7.03867 139.098 6.77548 139.448C5.00895 139.904 3.99501 139.392 3.71448 137.904C3.4368 136.409 3.28577 134.664 3.26492 132.678C6.40888 129.265 9.71135 126.098 13.1759 123.187C16.639 120.313 20.1839 117.583 23.7949 114.998C27.408 112.459 31.0552 110.05 34.7272 107.775C38.4014 105.547 42.0165 103.262 45.5684 100.896C47.0818 100.388 48.7979 99.5118 50.7076 98.2691C52.6208 97.0357 54.472 96.1655 56.2642 95.652C56.4412 95.6158 56.5081 95.4999 56.4619 95.3109C56.4093 95.119 56.4762 95.0031 56.6597 94.9697C56.9299 94.9137 57.1504 95.004 57.3395 95.2336C58.4064 94.3518 59.8302 93.598 61.6273 92.9871C63.4188 92.3891 64.9372 91.6466 66.1854 90.7535C67.181 90.721 68.0991 90.432 68.9462 89.8891C69.7932 89.3463 70.5784 88.8909 71.2946 88.5044C71.3905 89.0297 71.6194 89.1008 71.9779 88.7085C72.3336 88.3227 72.5968 87.9723 72.7746 87.676C73.4069 87.5816 74.0611 87.4893 74.7402 87.3928C75.4165 87.3027 76.0274 87.0839 76.5637 86.74C76.7415 86.5816 76.9208 86.3855 77.0986 86.1581C77.2764 85.9307 77.4962 85.7296 77.7707 85.5605C77.9485 85.5399 78.0637 85.5911 78.1135 85.7205C78.1632 85.8498 78.2756 85.9074 78.4562 85.8804C78.7306 85.9871 79.0002 85.9154 79.2683 85.6745C79.5336 85.44 79.8501 85.2283 80.2057 85.0493C80.8358 84.839 81.5143 84.7268 82.241 84.7128C82.965 84.7051 83.4564 84.3413 83.719 83.6306C84.3553 83.9748 84.9485 83.8477 85.4855 83.2437C86.1254 83.4591 86.8479 83.4202 87.663 83.1389C88.478 82.8576 89.3356 82.5493 90.2353 82.1984C91.1385 81.8568 92.0211 81.5442 92.8773 81.2736C93.74 81.0058 94.5293 80.92 95.2639 81.009C96.7994 80.2282 98.4713 79.7609 100.298 79.5999C102.117 79.4582 103.937 79.0186 105.75 78.2691C105.935 78.5428 106.306 78.6388 106.854 78.5608C107.403 78.4827 107.852 78.2994 108.215 78.0166C110.588 77.715 112.457 77.4581 113.828 77.2551C115.195 77.0585 116.928 76.7639 119.034 76.3898C119.402 76.6834 119.841 76.8327 120.349 76.8442C120.855 76.8621 121.191 76.59 121.363 76.0306C121.834 76.6078 122.522 76.63 123.43 76.1064C126.097 76.3649 128.673 76.3299 131.15 75.9985C133.628 75.6827 135.981 75.9085 138.216 76.6723C138.399 76.5543 138.507 76.3802 138.554 76.1713C138.595 75.9595 138.706 75.8636 138.896 75.8863C139.639 75.9561 140.444 76.0764 141.323 76.2372C142.199 76.4044 142.871 76.5119 143.341 76.5596C143.713 76.6023 144.057 76.5334 144.373 76.3594C144.688 76.1853 145.083 76.1235 145.549 76.1776C147.857 76.1767 149.97 76.4571 151.88 77.0069C153.79 77.5723 155.813 77.9508 157.948 78.1488C158.69 78.2719 159.531 78.4157 160.46 78.568C161.392 78.7295 162.087 78.7858 162.552 78.724C165.258 79.2221 167.895 79.8423 170.474 80.5749C173.048 81.3359 175.504 81.9142 177.845 82.3034C184.622 84.9707 191.293 87.5143 197.857 89.9186C204.435 92.482 211.064 95.7577 217.747 99.739C219.371 100.775 220.951 101.806 222.489 102.827C224.025 103.855 225.514 105.091 226.965 106.533C229.549 108.011 232.056 109.991 234.478 112.454C236.898 114.939 239.099 117.694 241.063 120.72C241.379 122.009 241.713 123.154 242.07 124.178C242.423 125.193 242.76 126.346 243.075 127.62C242.9 128.255 242.767 128.793 242.688 129.248C242.599 129.707 242.521 130.484 242.455 131.581C241.865 130.752 241.167 130.357 240.364 130.422C239.555 130.484 238.829 130.651 238.167 130.916C237.975 130.831 237.875 130.503 237.859 129.937C237.201 130.211 236.628 130.171 236.148 129.82C235.668 129.469 235.089 129.219 234.427 129.07C234.98 128.466 235.659 128.093 236.465 127.953C237.264 127.811 237.892 127.278 238.352 126.348C238.054 125.795 237.64 125.365 237.115 125.063C236.59 124.761 236.265 124.234 236.159 123.474C236.351 123.697 236.645 123.897 237.023 124.064C236.827 123.694 236.482 123.265 235.998 122.767C235.512 122.275 235.179 122.127 234.997 122.329C231.322 119.064 227.717 116.297 224.168 114.023C220.625 111.789 217.182 109.57 213.83 107.352C213.639 107.283 213.54 107.108 213.537 106.823C213.533 106.538 213.476 106.237 213.376 105.909C212.922 106.604 212.316 106.81 211.552 106.547C210.791 106.277 210.033 105.879 209.268 105.324C208.5 104.776 207.783 104.251 207.114 103.739C206.442 103.234 205.923 102.988 205.548 103.004C205.267 102.911 205.111 102.435 205.094 101.577C204.9 101.514 204.787 101.51 204.739 101.565C204.692 101.621 204.579 101.616 204.391 101.556C204.384 101.124 204.518 101.03 204.804 101.264C204.801 100.979 204.748 100.857 204.656 100.892C204.56 100.934 204.46 100.797 204.364 100.479C204.279 100.878 204.117 100.967 203.878 100.745C203.639 100.524 203.419 100.312 203.228 100.104C203.034 99.9031 202.821 99.7623 202.588 99.682C202.353 99.608 202.19 99.7658 202.105 100.164C202.296 100.372 202.584 100.569 202.966 100.762C203.345 100.961 203.636 101.374 203.838 102.007C202.521 102.004 201.271 101.609 200.08 100.804C198.887 100.006 197.644 99.8366 196.342 100.3C196.059 100.074 195.932 99.8953 195.982 99.7645C196.024 99.6373 196.093 99.4461 196.179 99.1853C195.702 98.7588 195.27 98.4901 194.898 98.3784C194.519 98.2639 194.271 97.7706 194.159 96.8857C193.969 96.8317 193.927 96.9589 194.026 97.2709C194.125 97.5829 194.135 97.8708 194.043 98.1288C192.442 97.6622 191.025 97.1936 189.799 96.71C188.571 96.2329 187.439 95.7451 186.401 95.2531C185.36 94.7674 184.298 94.3109 183.219 93.8928C182.138 93.4811 180.939 93.1781 179.63 93.0023C179.813 92.7621 179.845 92.347 179.74 91.7564C179.55 91.8559 179.134 91.9624 178.485 92.0952C177.836 92.228 177.506 91.9358 177.486 91.2222C176.926 91.3792 176.46 91.2718 176.083 90.8971C176.066 90.3307 176.294 90.0948 176.766 90.205C176.661 89.7523 176.564 89.625 176.479 89.8169C176.387 90.0059 176.205 90.0016 175.92 89.7983C175.933 90.3712 175.658 90.6625 175.101 90.6752C175.104 90.9602 175.199 91.1251 175.389 91.1635C174.458 91.2401 173.434 91.183 172.309 91.0051C171.189 90.8364 170.206 90.7367 169.37 90.7025C169.181 90.664 169.133 90.5127 169.221 90.2454C169.307 89.9846 169.351 89.7821 169.347 89.6349C168.984 89.9867 168.216 90.0057 167.042 89.6985C165.872 89.4004 165.01 89.2702 164.453 89.2985C164.267 89.4072 164.218 89.2245 164.303 88.7413C164.385 88.2644 164.336 88.0817 164.152 88.184C163.871 88.1278 163.74 88.2842 163.743 88.6381C163.753 88.9949 163.612 89.1391 163.334 89.0922C163.056 89.1831 162.936 89.0914 162.983 88.8135C163.021 88.5392 163.087 88.3388 163.179 88.2187C162.632 88.8262 162.03 88.8879 161.372 88.4194C160.715 87.9509 160.195 87.8272 159.831 88.041C159.639 87.8711 159.477 87.6309 159.332 87.321C159.183 87.0175 158.971 86.7701 158.69 86.576C158.595 86.7025 158.508 86.7942 158.417 86.8453C158.322 86.9029 158.235 86.9945 158.144 87.1146C158.147 87.3996 158.224 87.5183 158.36 87.4714C158.496 87.4246 158.523 87.5362 158.435 87.8034C157.692 87.8181 157.02 87.7107 156.413 87.4718C155.804 87.2392 155.131 87.1318 154.392 87.1558C154.572 86.9064 154.569 86.6903 154.376 86.5204C154.2 86.917 154.042 87.0306 153.9 86.8679C153.757 86.7051 153.685 86.489 153.675 86.2012C153.214 86.2721 152.638 86.3609 151.944 86.4737C151.25 86.5866 150.806 86.3434 150.607 85.757C150.336 86.1422 150.018 86.307 149.642 86.2551C149.273 86.206 148.876 86.1519 148.456 86.0956C148.037 86.0394 147.666 86.028 147.348 86.0549C147.02 86.0854 146.728 86.2929 146.457 86.678C145.71 86.4455 145.041 86.294 144.439 86.2178C143.834 86.148 143.21 85.8629 142.548 85.3695C142.189 85.7461 141.661 85.9329 140.965 85.93C140.275 85.9298 139.53 85.8131 138.745 85.5948C137.958 85.3828 137.172 85.2711 136.385 85.2659C135.602 85.27 134.939 85.4504 134.391 85.8199L134.378 85.1937C130.974 85.3508 127.412 85.4681 123.687 85.5519C119.969 85.6919 116.422 86.1532 113.052 86.9385C112.868 86.9406 112.777 86.7317 112.767 86.3216C112.491 86.3215 112.336 86.4978 112.295 86.8318C112.257 87.1751 112.096 87.2795 111.82 87.1416L111.802 86.1146C111.265 86.8031 110.56 87.0105 109.685 86.7367C108.808 86.4693 108.235 86.207 107.953 85.9283C107.868 86.3426 107.915 86.5473 108.1 86.5452C108.284 86.5431 108.378 86.7457 108.385 87.1622C107.651 87.1734 107.235 87.0419 107.141 86.7703C106.778 87.0531 106.401 87.3302 105.991 87.6152C105.587 87.9029 105.154 88.0478 104.7 88.0527C104.697 87.7833 104.785 87.6384 104.97 87.6363C105.148 87.6313 105.239 87.4956 105.239 87.2198C104.782 87.2311 104.511 87.4095 104.426 87.7548C104.342 88.1002 104.165 88.3433 103.892 88.4903C103.16 88.3793 102.701 88.2904 102.516 88.2235C102.328 88.1631 101.832 88.1417 101.012 88.1756C100.74 88.3227 100.677 88.4634 100.812 88.5921C100.952 88.7236 100.93 88.8593 100.752 89.0021C100.564 88.7349 100.336 88.6794 100.063 88.8265C99.791 88.9735 99.5407 89.1227 99.3152 89.2677C99.0898 89.4126 98.8615 89.495 98.6361 89.5021C98.4078 89.5155 98.2422 89.2504 98.1456 88.7095C97.3319 89.2978 96.6122 89.6061 95.9772 89.638C95.3393 89.6762 94.4823 89.8623 93.3942 90.206C93.119 90.2216 93.0693 90.0233 93.2479 89.6047C93.4201 89.1833 93.2829 88.9921 92.8264 89.019C92.5576 89.0375 92.4231 89.1845 92.4259 89.4539C92.4351 89.7261 92.3909 89.9976 92.3062 90.2741C91.7686 90.5867 91.312 90.6825 90.9465 90.5737L90.9074 90.3342ZM37.2145 108.628C37.3965 108.839 37.5991 108.814 37.8133 108.557C38.0338 108.303 38.0516 108.073 37.8724 107.856C37.7849 108.138 37.6284 108.283 37.4087 108.278C37.1861 108.278 37.1192 108.394 37.2145 108.628ZM39.866 106.528C39.6945 106.965 39.7436 107.147 40.0067 107.073C40.2762 107.001 40.2272 106.818 39.866 106.528ZM41.0735 106.398C41.7805 105.946 42.449 105.546 43.0692 105.186C43.6894 104.826 44.3551 104.363 45.0628 103.789C44.6077 103.64 43.9243 103.85 42.9905 104.415C42.0602 104.99 41.4193 105.655 41.0735 106.398ZM43.2274 106.811C43.4037 106.897 43.7167 106.814 44.1633 106.568C44.6071 106.329 44.9143 106.052 45.0886 105.746C44.1102 105.74 43.4836 106.098 43.2274 106.811ZM45.4983 105.652C45.9477 105.676 46.2116 105.41 46.2935 104.864C45.7573 105.002 45.4898 105.258 45.4983 105.652ZM47.0649 102.511C47.6971 102.623 48.0911 102.392 48.2662 101.827C47.8979 101.517 47.4975 101.745 47.0649 102.511ZM49.3337 101.374C49.1565 101.548 48.9766 101.591 48.7939 101.502C48.6111 101.413 48.5244 101.505 48.5328 101.761C48.6252 102.001 48.7817 102.063 49.0085 101.95C49.2254 101.824 49.3393 101.637 49.3337 101.374C50.5846 100.819 51.8982 100.193 53.2773 99.4878C54.6598 98.7923 55.8376 98.1437 56.8198 97.5383C55.2951 97.7264 53.9752 98.2122 52.8656 98.9831C51.7533 99.7604 50.579 100.556 49.3337 101.374ZM49.9616 106.939C50.1339 106.38 50.2192 106.326 50.2305 106.783C50.2325 107.243 50.1436 107.288 49.9616 106.939ZM50.8317 102.607C51.2754 102.505 51.4995 102.26 51.4911 101.866C50.9634 101.983 50.7365 102.235 50.8317 102.607ZM51.7669 102.003C52.2143 101.773 52.5884 101.587 52.902 101.451C53.2156 101.314 53.4568 101.031 53.6283 100.594C53.4483 100.636 53.1361 100.804 52.6916 101.097C52.2506 101.399 51.9412 101.698 51.7669 102.003ZM52.4943 105.192C52.3193 105.62 52.3428 105.653 52.564 105.277C52.776 104.903 52.7589 104.873 52.4943 105.192ZM53.9608 104.48C54.3206 104.671 54.4977 104.497 54.4929 103.973C54.3129 104.016 54.1359 104.052 53.9588 104.088C53.7753 104.122 53.7781 104.253 53.9608 104.48ZM54.0603 101.897C54.1555 102.406 54.2067 102.429 54.1982 101.966C54.1898 101.502 54.1386 101.479 54.0603 101.897ZM54.3081 100.651C54.3928 100.236 54.6538 100.115 55.1096 100.279C55.5625 100.45 55.7368 100.282 55.6416 99.7726C55.5429 99.5295 55.2122 99.5664 54.6311 99.8904C54.0529 100.208 53.9455 100.467 54.3081 100.651ZM57.1265 99.4673C56.9494 99.5035 56.9011 99.5433 56.9942 99.5923C57.081 99.6386 57.1293 99.5988 57.1265 99.4673C57.214 99.3223 57.2126 99.2221 57.1223 99.1667C57.0292 99.1176 57.0306 99.2178 57.1265 99.4673ZM172.494 82.3919C171.841 82.3932 171.236 82.4457 170.685 82.5458C170.128 82.643 169.563 82.2769 168.983 81.4445C167.398 81.2687 165.885 81.0864 164.443 80.8821C162.995 80.6907 161.473 80.0983 159.876 79.1051C159.797 79.6602 159.682 79.7469 159.536 79.368C159.391 78.9892 159.231 79.1405 159.058 79.8221C158.676 79.4759 158.399 79.3223 158.213 79.3621C158.027 79.4019 157.659 79.453 157.1 79.5033C155.694 78.7177 154.341 78.4686 153.054 78.7776C151.764 79.0928 150.736 78.6975 149.975 77.6007C149.89 78.015 149.714 78.2047 149.433 78.1642C149.159 78.1265 148.824 78.0852 148.455 78.0361C148.445 77.6103 148.347 77.3829 148.165 77.3629C148.168 77.6479 148.129 77.8221 148.034 77.8796C147.946 77.94 147.901 78.0423 147.901 78.1802C146.047 78.0917 144.204 78.0466 142.355 78.0519C140.509 78.0664 138.517 77.84 136.391 77.3627C134.922 77.8052 133.314 77.8873 131.565 77.6155C129.81 77.3564 128.157 77.4719 126.604 77.9464C126.321 77.5142 126.018 77.3869 125.7 77.583C125.383 77.7791 125.083 77.8679 124.813 77.8551C124.172 78.1065 123.531 78.1512 122.884 77.9861C122.237 77.8211 121.597 77.7279 120.953 77.71C120.036 77.8235 119.15 78.1112 118.29 78.5794C117.427 79.054 116.622 78.8648 115.875 78.0118C115.43 78.7025 114.978 78.9078 114.514 78.6248C114.049 78.3419 113.453 78.1996 112.72 78.1952C112.45 78.3359 112.382 78.505 112.527 78.7147C112.671 78.9244 112.601 79.0999 112.334 79.2342C111.052 79.3768 109.845 79.5912 108.711 79.8838C107.573 80.1828 106.493 79.9935 105.474 79.3188C105.296 79.4616 105.139 79.6755 105.008 79.9541C104.873 80.2391 104.673 80.4487 104.4 80.5958C104.028 80.3306 103.802 80.3376 103.718 80.6141C103.63 80.897 103.405 81.0419 103.041 81.0489C101.483 80.8311 99.9587 81.0348 98.4723 81.6535C96.9802 82.2851 95.4605 82.5826 93.9067 82.5432C93.8192 82.6881 93.7736 82.8594 93.78 83.0691C93.7799 83.2759 93.6939 83.3142 93.5097 83.1941C90.7035 83.954 87.7593 84.7139 84.6871 85.4858C81.6134 86.2954 78.9572 87.3212 76.7147 88.5538C76.5249 88.1707 76.2554 88.1046 75.897 88.3589C75.5385 88.6133 75.2221 88.6182 74.9484 88.3893C74.9603 88.9309 74.7825 89.2272 74.424 89.2748C73.427 89.4139 72.2401 89.9282 70.8567 90.8149C69.4705 91.708 68.2779 92.0283 67.2796 91.7914C66.9302 92.5248 66.5298 92.8907 66.0818 92.8985C65.6309 92.9126 65.1843 93.1584 64.7419 93.6359C63.7554 94.0785 62.5237 94.504 61.0437 94.9187C59.561 95.3399 58.519 96.1485 57.9078 97.3324C63.0889 94.8701 68.4207 92.4825 73.8969 90.1666C79.378 87.9602 84.6136 86.2882 89.591 85.145C95.0201 83.3827 100.122 82.0803 104.899 81.2156C109.683 80.4383 114.727 79.8153 120.034 79.3622C125.81 78.75 131.888 78.4563 138.296 78.4924C144.713 78.6785 151.085 79.3962 157.411 80.6299C158.058 80.4502 158.425 80.2989 158.513 80.1695C161.689 81.1446 164.367 81.7755 166.562 82.046C168.754 82.3386 171.302 82.9347 174.206 83.85C179.269 85.3037 184.468 87.0552 189.798 89.1174C195.135 91.2826 200.79 93.7499 206.773 96.5471C206.469 95.439 205.98 94.8846 205.321 94.883C204.663 94.8815 203.996 94.4165 203.317 93.479C203.129 93.4185 202.966 93.476 202.829 93.6452C202.693 93.8143 202.481 93.8583 202.198 93.7708C198.969 91.8989 195.745 90.3588 192.533 89.1378C189.325 87.9574 186.075 86.8729 182.782 85.8843C182.595 85.8395 182.473 85.632 182.418 85.2553C182.36 84.885 182.241 84.6021 182.05 84.4102C181.503 84.8486 180.893 84.8762 180.23 84.505C179.567 84.1339 178.964 84.1643 178.413 84.6091C178.311 84.3035 178.262 84.0363 178.258 83.8202C178.255 83.6041 178.11 83.4634 177.825 83.398C177.189 83.9657 176.393 83.9641 175.452 83.3925C174.503 82.8024 173.523 82.4739 172.494 82.3919ZM58.7366 98.7427C58.9222 99.1009 59.0296 99.118 59.0737 98.7776C59.1087 98.4407 59.3156 98.3029 59.6726 98.3619L59.6642 97.9675C59.571 97.9873 59.5041 97.9653 59.4608 97.9077C59.4174 97.8501 59.3413 97.8316 59.2574 97.848C59.1699 98.1308 59.0639 98.2829 58.9273 98.3141C58.7965 98.3326 58.731 98.4797 58.7366 98.7427ZM60.472 97.8056C60.8269 97.473 61.3447 97.2741 62.016 97.2124C62.6908 97.16 63.1126 96.7805 63.2849 96.0834C62.8368 96.4358 62.2814 96.6333 61.6037 96.6921C60.9324 96.7538 60.5511 97.1283 60.472 97.8056ZM65.3572 98.7127C65.0918 99.154 64.9609 99.3104 64.9581 99.1789C65.0456 99.0339 65.1373 98.9828 65.2305 99.0318C65.3208 99.0873 65.3599 98.9821 65.3572 98.7127ZM65.4468 95.7036C65.7149 95.3937 65.8892 95.295 65.9823 95.413C66.0754 95.531 66.2063 95.3746 66.3814 94.9468C66.2882 94.8288 66.1062 94.8245 65.8416 94.9368C65.5707 95.0462 65.4412 95.3027 65.4468 95.7036ZM66.1693 98.5757C66.4431 98.5289 66.6407 98.5325 66.7773 98.5702C66.911 98.6142 67.0681 98.6918 67.2544 98.7899C67.2432 98.126 67.0555 97.8588 66.7006 97.9845C66.3429 98.1166 66.1637 98.3128 66.1693 98.5757ZM67.0506 94.6314C67.3244 94.5845 67.5889 94.5412 67.8599 94.5008C68.1308 94.4603 68.3051 94.2237 68.3898 93.8094C68.1189 93.8498 67.8266 93.9038 67.5123 93.9556C67.2008 94.001 67.045 94.2306 67.0506 94.6314ZM69.3588 95.0597C69.1781 95.0867 69.085 95.0376 69.085 94.8998C69.0822 94.7683 68.9919 94.7818 68.8141 94.9402C68.6362 95.2365 68.6874 95.3972 68.9612 95.4193C69.2321 95.4477 69.3708 95.3255 69.3588 95.0597ZM72.0395 92.8421L72.4477 92.786L72.4421 92.3852L72.0339 92.4412L72.0395 92.8421ZM74.1245 95.9597C74.3898 95.6563 74.4132 95.6897 74.1913 96.0507C73.9757 96.4146 73.9523 96.3812 74.1245 95.9597ZM74.5948 91.6642C75.0407 91.4717 75.6922 91.248 76.5555 90.9958C77.4068 90.7536 77.9716 90.2769 78.2277 89.5634C77.5045 89.7935 76.8559 90.0798 76.2727 90.4258C75.6866 90.7782 75.1283 91.1889 74.5948 91.6642ZM78.9195 90.2998C78.9167 90.0304 78.9793 89.8897 79.1166 89.8741C79.2538 89.8585 79.2695 89.651 79.1764 89.2572C78.9894 89.1435 78.8585 89.2998 78.7738 89.7141C78.692 90.1221 78.7353 90.3175 78.9195 90.2998ZM79.3221 89.8429C80.0396 89.6256 80.765 89.4423 81.4854 89.2875C82.2094 89.142 82.8381 88.8315 83.3722 88.3718C82.8233 88.1585 82.1214 88.1683 81.2602 88.3984C80.4054 88.6313 79.7596 89.118 79.3221 89.8429ZM80.6992 90.8993C80.7923 91.2931 80.8627 91.2554 80.9005 90.7743C80.9355 90.2995 80.8715 90.34 80.6992 90.8993ZM84.7326 88.2257C84.8201 88.2186 84.9168 88.2769 85.0071 88.4013C85.0974 88.5257 85.2318 88.5164 85.416 88.3608L85.4012 87.5499C85.0392 87.7261 84.8173 87.9492 84.7326 88.2257ZM86.7624 87.4194C86.8471 87.1429 87.1201 87.0805 87.5759 87.2447C88.0317 87.409 88.302 87.1461 88.3775 86.4595C88.1906 86.2079 87.825 86.237 87.2909 86.5588C86.7504 86.8778 86.5754 87.1678 86.7624 87.4194ZM88.0044 88.3315C88.1977 88.8617 88.2617 88.8902 88.2121 88.4161C88.156 87.9392 88.0892 87.9172 88.0044 88.3315ZM88.9539 88.041C89.5063 88.5393 89.9593 88.3653 90.3101 87.5253C89.6729 87.4413 89.2199 87.6153 88.9539 88.041ZM91.3672 85.8041C91.0892 85.5504 90.9548 85.6285 90.964 86.0386C90.9731 86.4487 91.1075 86.3705 91.3672 85.8041ZM91.9232 86.1738C92.4673 86.0019 92.9829 85.8251 93.48 85.6553C93.9771 85.4856 94.4024 85.2532 94.7651 84.9548C94.2211 85.1267 93.6508 85.2026 93.0598 85.1698C92.4725 85.1462 92.0926 85.4831 91.9232 86.1738ZM95.4591 85.3245C95.4563 85.193 95.4734 85.0857 95.5203 85.0147C95.5673 84.9436 95.5815 84.8427 95.5816 84.7048C95.4877 84.709 95.4223 84.6493 95.3754 84.5136C95.3256 84.3842 95.2567 84.3153 95.1692 84.3223C94.9934 85.0103 95.09 85.3443 95.4591 85.3245ZM95.7553 86.7432C95.8399 86.6046 95.9338 86.5314 96.0213 86.5243C95.8308 86.2635 95.6964 86.1348 95.6025 86.139C95.6145 86.5427 95.6614 86.7474 95.7553 86.7432ZM98.2045 85.9931C98.0232 86.0045 97.9293 86.0777 97.9385 86.212C98.117 86.2071 98.2045 86.131 98.2045 85.9931ZM98.4524 84.5405C98.6309 84.3977 98.8108 84.3551 98.9985 84.4155C99.177 84.4795 99.1785 84.304 98.9908 83.8988L98.4433 83.9236L98.4524 84.5405ZM98.4706 85.7743C98.661 86.1731 98.73 86.1731 98.6739 85.7651C98.6243 85.36 98.5553 85.36 98.4706 85.7743ZM98.6388 87.205C98.914 87.1894 99.0456 86.9798 99.0364 86.5697C98.855 86.7189 98.7171 86.7878 98.6296 86.7949C98.5357 86.7992 98.5421 86.9399 98.6388 87.205ZM99.5292 83.6708C99.163 83.6842 99.1004 83.8939 99.3349 84.2969C99.5695 84.6999 99.8198 84.8265 100.095 84.673C100.18 84.5344 100.202 84.3298 100.149 84.0533C100.092 83.7832 100.164 83.6389 100.343 83.634C100.537 84.1799 100.765 84.4422 101.04 84.4266C101.397 84.0031 101.825 83.7487 102.325 83.6571C102.823 83.5719 103.351 83.523 103.896 83.5046C103.423 82.8272 102.665 82.6515 101.623 82.9619C100.593 83.278 99.8891 83.5166 99.5292 83.6708ZM99.5292 83.6708C99.7106 83.6594 99.8016 83.7305 99.8044 83.862C99.7105 83.8663 99.6714 83.9025 99.6714 83.9714C99.6713 84.0404 99.6258 84.0738 99.5384 84.0809L99.5292 83.6708ZM100.015 80.7534L100.287 80.7442L100.272 80.1244L99.9994 80.1336L100.015 80.7534ZM102.971 84.7717C103.61 84.7491 103.88 84.4705 103.779 83.9204L103.097 83.9387C103.103 84.3552 103.056 84.6331 102.971 84.7717ZM104.777 86.1565C105.326 86.1474 105.551 85.9335 105.451 85.5213C104.991 85.5389 104.768 85.7464 104.777 86.1565ZM106.296 86.7396L106.844 86.7305C106.929 86.3161 106.903 86.0823 106.765 86.0134C106.624 85.9508 106.463 85.8484 106.278 85.7126L106.296 86.7396ZM110.165 81.1122C109.986 81.3929 109.716 81.5336 109.35 81.5313C108.98 81.5355 108.64 81.576 108.323 81.6498C108.007 81.7237 107.728 81.8679 107.512 82.0782C107.286 82.2921 107.178 82.6041 107.187 83.0142C109.099 82.4389 110.801 82.0078 112.306 81.7267C113.814 81.4548 115.301 81.4721 116.772 81.766C116.666 81.213 116.705 80.901 116.89 80.83C117.072 80.7653 117.249 80.5223 117.425 80.1101C116.054 80.3664 114.825 80.5943 113.724 80.7945C112.636 81.0004 111.447 81.1075 110.165 81.1122ZM108.748 78.8355C108.939 79.3877 109.038 79.424 109.025 78.9357C109.016 78.4567 108.92 78.414 108.748 78.8355ZM115.043 84.6518L114.767 84.6518C114.676 84.6496 114.583 84.7228 114.501 84.855C114.416 85.1315 114.507 85.2025 114.783 85.0647C115.05 84.9304 115.134 84.7919 115.043 84.6518ZM116.515 82.6017L116.242 82.5953C115.96 82.1787 115.596 82.308 115.15 82.9987C114.968 82.9944 114.92 83.0342 115.014 83.0989C115.105 83.17 115.15 83.1366 115.15 82.9987C115.521 83.2859 115.888 83.1503 116.242 82.5953L116.515 82.6017L116.521 83.0182C116.795 83.0246 117.093 83.0268 117.419 83.034C117.739 83.0383 117.987 82.7733 118.157 82.2204C117.799 82.4904 117.472 82.5522 117.199 82.4078C116.92 82.2606 116.691 82.3274 116.515 82.6017ZM116.694 84.6806C116.688 84.2641 116.55 84.2641 116.283 84.6741C116.465 84.6784 116.556 84.7495 116.565 84.8838C116.565 85.0217 116.603 84.9542 116.694 84.6806ZM118.138 81.3846C118.229 81.2488 118.343 81.2155 118.478 81.2908C118.613 81.3662 118.825 81.3378 119.092 81.2035C119.086 80.9249 119.034 80.7487 118.943 80.6776C118.852 80.6065 118.891 80.5702 119.079 80.5774C119.268 80.7224 119.426 80.9001 119.571 81.1098C119.712 81.3259 119.917 81.3636 120.191 81.2322C119.905 80.6685 119.39 80.2406 118.652 79.9355C118.853 80.6377 118.762 80.9803 118.398 80.9717C118.392 80.6931 118.385 80.4145 118.379 80.1359C118.373 79.8573 118.282 79.7862 118.099 79.9198C118.008 80.0555 117.946 80.3341 117.914 80.7491C117.88 81.1706 117.955 81.3803 118.138 81.3846ZM120.944 83.9651C120.568 83.5371 120.432 83.5307 120.53 83.9493C120.627 84.368 120.765 84.368 120.944 83.9651ZM121.142 80.2146C121.34 80.9232 121.825 81.1771 122.601 81.001C123.376 80.8249 123.852 80.4618 124.022 79.9089C123.472 79.8867 123.007 79.8639 122.643 79.8553C122.282 79.8403 121.776 79.9603 121.142 80.2146ZM122.612 84.6448C122.794 84.6491 122.979 84.6627 123.161 84.667C123.344 84.6713 123.388 84.4687 123.29 84.0501L122.599 84.0187L122.612 84.6448ZM124.079 82.4163C124.264 82.5677 124.399 82.5052 124.487 82.2224C124.572 81.9459 124.518 81.7384 124.339 81.5898C124.345 81.8684 124.3 82.0397 124.209 82.1065C124.121 82.1825 124.076 82.2848 124.079 82.4163ZM124.738 80.9858C125.015 81.0015 125.146 80.7918 125.14 80.3753C124.958 80.5089 124.823 80.5714 124.732 80.5693C124.641 80.5671 124.641 80.705 124.738 80.9858ZM125.828 80.4131C125.929 80.9789 125.981 81.0173 125.971 80.5226C125.959 80.0344 125.913 79.9988 125.828 80.4131ZM127.564 84.0574C127.564 83.9195 127.649 83.8498 127.834 83.8634L127.815 83.0276L127.404 83.0054C127.413 83.7069 127.467 84.0524 127.564 84.0574ZM128.173 80.329C128.082 80.4648 127.992 80.4939 127.898 80.4136C127.8 80.3396 127.761 80.3759 127.761 80.5137C128.044 80.5323 128.179 80.4698 128.173 80.329ZM128.324 80.9709C128.504 80.8437 128.728 80.6831 129.005 80.492C129.275 80.298 129.321 80.0578 129.129 79.7656C128.947 80.0371 128.769 80.1955 128.587 80.2602C128.404 80.3092 128.321 80.548 128.324 80.9709ZM129.833 80.6456C130.39 80.962 130.667 80.8398 130.654 80.2826C130.56 80.1334 130.292 80.252 129.833 80.6456ZM139.362 80.1614C138.24 79.6324 136.828 79.3265 135.122 79.2501C133.417 79.1894 132.022 79.6034 130.937 80.508C131.497 80.8336 132.049 80.8337 132.593 80.5239C133.137 80.2142 133.646 80.3635 134.124 80.9592C135.591 80.661 136.765 80.6236 137.646 80.8469C138.528 81.0703 139.747 81.1217 141.319 81.0005C141.12 80.2762 141.204 79.9308 141.576 79.9735C141.674 80.4078 141.665 80.6871 141.526 80.8093C141.394 80.9344 141.464 81.0879 141.741 81.2571C142.198 81.0234 142.7 80.9787 143.264 81.1067C143.825 81.2412 144.328 81.2655 144.788 81.1788C144.116 79.8305 143.266 79.2766 142.261 79.5195C141.244 79.7567 140.281 79.9725 139.362 80.1614ZM133.448 81.7387C133.353 81.7274 133.262 81.6563 133.168 81.507C133.07 81.3641 132.932 81.3485 132.752 81.4756C132.573 81.7407 132.669 81.9212 133.037 82.0237C133.412 82.1289 133.549 82.0287 133.448 81.7387ZM134.417 81.8171C134.612 82.3943 134.708 82.4369 134.696 81.9487C134.686 81.454 134.596 81.4142 134.417 81.8171ZM135.006 83.3353C135.107 83.9011 135.156 83.9459 135.146 83.4512C135.134 82.9629 135.082 82.9245 135.006 83.3353ZM135.827 76.6675C135.641 76.654 135.553 76.7144 135.553 76.8522C135.742 76.875 135.833 76.8082 135.827 76.6675ZM136.91 82.0365C137.093 82.0564 137.211 82.1013 137.255 82.1745C137.305 82.2505 137.373 82.2882 137.468 82.2996L137.458 81.6671L137.178 81.6421L136.91 82.0365ZM139.298 83.7335C139.761 83.7784 139.987 83.5958 139.978 83.17C139.515 83.1252 139.294 83.3106 139.298 83.7335ZM139.823 82.3122C140.1 82.3435 140.33 82.2234 140.506 81.9647C140.323 81.9448 140.207 81.8623 140.156 81.7174C140.106 81.5724 139.989 81.4899 139.807 81.4699L139.823 82.3122ZM141.763 82.309C141.953 82.4697 142.186 82.4967 142.457 82.3873C142.734 82.2808 142.913 82.0157 142.995 81.6078C142.724 81.7171 142.447 81.7548 142.167 81.7298C141.886 81.6893 141.754 81.8833 141.763 82.309ZM144.669 82.4283C144.95 82.7446 145.207 82.8051 145.433 82.6224C145.66 82.4398 145.87 82.5714 146.063 83.017C146.151 82.8877 146.217 82.6873 146.258 82.4066C146.295 82.1322 146.226 81.9787 146.043 81.9588C146.046 82.2438 145.815 82.248 145.351 81.9806C144.887 81.7133 144.659 81.8647 144.669 82.4283ZM145.188 80.5904C145.573 81.4818 146.253 81.7456 147.217 81.3698C148.179 81.0004 148.852 80.9856 149.228 81.3133C148.656 80.5307 148.027 80.343 147.34 80.7501C146.659 81.16 145.942 81.1016 145.188 80.5904ZM146.805 84.7947C146.792 84.2375 146.694 83.9411 146.508 83.9119C146.331 84.1706 146.284 84.3795 146.379 84.5288C146.477 84.6873 146.615 84.7719 146.805 84.7947ZM148.886 84.8541C148.981 84.8655 149.023 84.9074 149.03 84.9792C149.03 85.0481 149.079 85.0929 149.173 85.1043C149.163 84.5407 149.063 84.3197 148.883 84.4312L148.886 84.8541ZM149.376 81.7547C149.647 81.5075 149.993 81.4542 150.412 81.5794C150.829 81.711 151.206 81.7942 151.528 81.8454C151.853 81.8903 152.156 81.864 152.43 81.7639C152.705 81.6637 152.925 81.2714 153.098 80.5899C152.36 80.7674 151.623 80.8384 150.882 80.7998C150.137 80.7677 149.634 81.0881 149.376 81.7547ZM149.987 84.5849C149.801 84.5558 149.71 84.6226 149.712 84.754L149.851 84.7697C149.949 84.7903 149.993 84.7257 149.987 84.5849ZM151.947 85.0729C151.947 84.935 151.896 84.859 151.804 84.8412C151.71 84.8298 151.666 84.8944 151.672 85.0352C151.767 85.0466 151.836 85.1312 151.887 85.2762C151.928 85.4247 151.95 85.3579 151.947 85.0729ZM152.499 85.1576C152.601 85.739 152.651 85.7461 152.635 85.1796C152.628 84.6096 152.584 84.6054 152.499 85.1576ZM153.247 81.0313C153.433 81.0605 153.433 81.1294 153.25 81.2473C153.068 81.3653 153.023 81.4989 153.124 81.651C155.647 82.4582 158.019 82.9839 160.253 83.2182C162.484 83.4745 165.096 84.0301 168.092 84.8942C167.987 84.3036 167.722 84.0022 167.305 83.9928C166.887 83.9835 166.898 83.6665 167.353 83.0412C165.775 83.1596 164.216 82.9418 162.669 82.3693C161.124 81.8125 159.708 81.6353 158.413 81.8411C158.409 81.5561 158.425 81.4175 158.476 81.4246C158.52 81.4289 158.548 81.365 158.542 81.2242C157.895 81.4039 157.364 81.4593 156.944 81.3874C156.527 81.3248 156.128 81.2238 155.758 81.0901C155.385 80.9628 155.014 80.8668 154.641 80.8084C154.257 80.76 153.796 80.831 153.247 81.0313ZM153.432 83.182C153.628 83.7747 153.728 83.8266 153.711 83.3291C153.702 82.8345 153.608 82.7854 153.432 83.182ZM154.149 84.3434C153.973 84.74 153.993 84.7798 154.22 84.4593C154.444 84.1452 154.424 84.1054 154.149 84.3434ZM155.154 85.7708C155.341 85.7999 155.525 85.8668 155.712 85.9649C155.898 86.063 155.991 85.9742 155.985 85.6956C155.792 85.5257 155.65 85.3629 155.558 85.2072C155.457 85.0551 155.318 84.8859 155.132 84.7189L155.154 85.7708ZM156.885 82.0199C156.878 81.8792 157.023 81.8288 157.301 81.8757C157.299 82.02 157.163 82.0669 156.885 82.0199ZM157.474 83.8139C157.392 84.2218 157.439 84.4422 157.626 84.4713C157.812 84.5005 157.998 84.5297 158.182 84.5653L158.162 83.7138C157.976 83.6846 157.832 83.6974 157.747 83.7514C157.659 83.8118 157.565 83.8317 157.474 83.8139ZM158.366 86.2867C158.356 85.861 158.072 85.6043 157.516 85.5104C157.526 85.9361 157.807 86.1991 158.366 86.2867ZM160.137 84.6836C160.134 84.3986 160.177 84.2338 160.265 84.1734C160.357 84.1222 160.307 84.0085 160.118 83.8322C160.124 83.9729 160.077 84.1129 159.985 84.233C159.897 84.3623 159.951 84.5166 160.137 84.6836ZM161.537 84.9305C161.524 84.2198 161.328 83.9028 160.958 83.9759C160.87 84.2431 160.918 84.3945 161.11 84.4266C161.294 84.4621 161.439 84.6342 161.537 84.9305ZM161.991 86.4956C161.807 86.4601 161.713 86.5176 161.719 86.6583C161.896 86.6911 161.988 86.6399 161.991 86.4956ZM161.819 85.1936C162.287 85.4168 162.606 85.1987 162.779 84.5172C162.599 84.7666 162.392 84.8355 162.158 84.7238C161.924 84.6122 161.809 84.7678 161.819 85.1936ZM162.415 86.7836L162.693 86.8305L162.683 86.4048L162.405 86.3578L162.415 86.7836ZM164.038 84.7548C163.566 84.3844 163.332 84.4107 163.342 84.8364C163.352 85.2621 163.586 85.2359 164.038 84.7548ZM164.336 85.4464C164.699 85.2325 165.053 85.2291 165.382 85.4366C165.712 85.6442 166.107 85.7893 166.578 85.8839C166.379 85.4198 166.007 85.1013 165.444 84.92C164.874 84.7358 164.503 84.9155 164.336 85.4464ZM164.498 86.752C164.518 87.6035 164.73 87.7819 165.137 87.2965C165.545 86.8112 165.513 86.4523 165.042 86.2198C165.159 87.0919 164.976 87.2631 164.498 86.752ZM166.856 85.9309C166.945 85.6637 167.056 85.6211 167.204 85.7867C167.35 85.9587 167.457 85.8379 167.546 85.4328C167.444 85.1272 167.233 85.049 166.914 85.1981C166.579 85.348 166.568 85.5961 166.856 85.9309ZM168.106 85.7584C168.109 85.9056 168.228 86.0349 168.462 86.1466C168.7 86.2674 168.856 86.1914 168.944 85.9242C168.669 86.0087 168.479 85.9014 168.378 85.5957C168.282 85.2929 168.191 85.3441 168.106 85.7584ZM168.504 84.9852C169.067 85.0976 169.342 84.9442 169.329 84.5092C169.135 84.1858 168.923 84.0763 168.692 84.1651C168.465 84.2632 168.405 84.5353 168.504 84.9852ZM169.505 86.043C169.514 86.4687 169.589 86.7317 169.735 86.8348C169.874 86.935 170.04 87.0779 170.237 87.2571C170.037 86.7929 170.062 86.5818 170.293 86.6309C170.524 86.68 170.638 86.4931 170.631 86.061C170.359 86.2926 170.15 86.3146 170.004 86.1426C169.852 85.9677 169.688 85.9407 169.505 86.043ZM169.769 85.2414C173.229 85.9748 177.001 87.0075 181.093 88.336C185.188 89.727 189.306 91.2203 193.461 92.8217C193.454 92.3896 193.492 92.1152 193.584 91.9952C193.601 92.7151 193.839 93.143 194.316 93.2781C195.246 92.9791 196.14 93.2082 196.999 93.9652C197.862 94.7316 198.811 95.2684 199.851 95.5848C199.745 94.9786 199.452 94.6033 198.981 94.4553C198.508 94.3138 198.265 93.8767 198.248 93.1567C196.65 92.9595 195.21 92.3885 193.922 91.4409C192.638 90.5024 191.345 90.2037 190.038 90.5574C189.65 90.0171 188.988 89.5927 188.045 89.2656C187.1 88.9449 186.4 88.8637 185.937 89.0256C185.076 88.0838 184.292 87.7432 183.598 87.9939C182.904 88.2447 181.991 88.1606 180.862 87.7354L180.839 86.8747C179.258 87.2063 177.461 86.9209 175.436 86.0286C173.422 85.1639 171.522 84.902 169.769 85.2414ZM171.47 86.4492C171.575 87.0398 171.624 87.0846 171.614 86.59C171.601 86.0861 171.552 86.0413 171.47 86.4492ZM171.768 87.3633C171.874 87.9539 171.921 87.9674 171.908 87.3946C171.898 86.831 171.85 86.8175 171.768 87.3633ZM171.898 86.9688C172.367 87.0699 172.594 86.9029 172.584 86.4772C172.116 86.3761 171.888 86.5431 171.898 86.9688ZM172.617 87.7636C172.804 87.9463 172.929 88.1474 172.981 88.377C173.035 88.6002 173.15 88.7359 173.34 88.7744C173.239 88.4687 173.234 88.2903 173.326 88.2392C173.417 88.188 173.46 88.0231 173.457 87.7382C173.263 87.4147 173.071 87.2605 172.888 87.2938C172.698 87.3244 172.608 87.4757 172.617 87.7636ZM174.013 87.6409C174.099 87.3801 173.976 87.1725 173.65 87.0275C173.321 86.8888 173.202 86.9663 173.304 87.2719C173.487 87.1696 173.605 87.1987 173.652 87.3501C173.706 87.5044 173.823 87.6025 174.013 87.6409ZM174.156 87.8883C174.35 88.0738 174.44 88.0603 174.436 87.8443C174.433 87.6282 174.469 87.3915 174.557 87.1243L174.139 87.0304L174.156 87.8883ZM175.684 87.487C175.399 87.3526 175.264 87.4308 175.268 87.7158L175.546 87.7784L175.829 88.057C176.015 87.8104 175.969 87.6214 175.684 87.487ZM177.102 88.3473L177.527 88.444L177.513 87.8022L177.089 87.7055L177.102 88.3473ZM177.989 90.4725C177.91 91.3033 177.915 91.4128 178 90.7916C178.069 90.1712 178.07 90.0646 177.989 90.4725ZM178.227 88.6097C178.326 89.0597 178.401 89.0469 178.438 88.5501C178.469 88.0661 178.401 88.0817 178.227 88.6097ZM179.396 90.8068C179.222 91.3348 179.244 91.4059 179.469 91.0385C179.69 90.6619 179.668 90.5908 179.396 90.8068ZM179.628 88.7344C179.441 88.6896 179.349 88.7407 179.349 88.8786C179.536 88.9234 179.628 88.8723 179.628 88.7344ZM180.086 90.5468C180.076 90.1211 179.94 90.0834 179.665 90.4437C179.852 90.4885 179.947 90.5845 179.953 90.7252C179.957 90.8723 179.998 90.814 180.086 90.5468ZM182.59 89.6753C182.124 89.7057 181.629 89.5777 181.112 89.3097C180.595 89.0416 180.24 89.0295 180.06 89.2633C180.535 89.5206 180.955 89.7304 181.333 89.8982C181.707 90.0568 182.13 89.9843 182.59 89.6753ZM183.065 92.1387C182.786 92.214 182.573 92.1578 182.43 91.9794C182.288 91.801 182.12 91.8336 181.945 92.0703C182.142 92.4029 182.376 92.5679 182.658 92.5708C182.934 92.5708 183.068 92.4237 183.065 92.1387ZM185.978 90.7598C185.597 90.3759 185.125 90.1434 184.561 90.0687C184.003 89.9968 183.481 89.8951 183.011 89.7784C183.215 90.5432 183.64 90.8624 184.297 90.7481C184.947 90.631 185.505 90.6339 185.978 90.7598ZM183.354 92.6427C183.443 92.6669 183.498 92.7145 183.498 92.7834C183.496 92.8588 183.545 92.9036 183.643 92.9242C183.636 92.7835 183.658 92.7167 183.706 92.7302C183.754 92.7437 183.776 92.6769 183.769 92.5362C183.674 92.5091 183.625 92.4644 183.625 92.3954C183.625 92.3265 183.572 92.2725 183.481 92.2547C183.484 92.4018 183.465 92.4622 183.417 92.4487C183.373 92.4288 183.351 92.4956 183.354 92.6427ZM184.599 91.8938C184.504 91.8668 184.433 91.8199 184.388 91.731C184.341 91.6486 184.266 91.5924 184.177 91.5682C183.994 91.8084 184.046 92.0003 184.328 92.1411C184.608 92.2883 184.698 92.2059 184.599 91.8938ZM189.239 92.4925C188.844 91.6737 188.418 91.2699 187.952 91.2847C187.485 91.2995 186.971 91.163 186.397 90.8693C186.696 91.6611 187.125 91.9896 187.683 91.8547C188.241 91.7197 188.759 91.9345 189.239 92.4925ZM187.863 93.8269C187.768 93.662 187.434 93.4985 186.872 93.3484C186.689 93.7265 186.816 93.9746 187.241 94.0869C187.667 94.1993 187.873 94.1148 187.863 93.8269ZM189.431 94.6773C189.626 95.0163 189.763 95.0164 189.855 94.6895C189.941 94.3597 189.888 94.1678 189.704 94.1166C189.714 94.4044 189.643 94.4954 189.503 94.3795C189.347 94.2643 189.323 94.3688 189.431 94.6773ZM191.912 92.8072C191.537 92.7019 191.113 92.6208 190.643 92.5575C190.17 92.5005 189.844 92.3021 189.644 91.9602C190.032 92.6383 190.463 93.0137 190.929 93.0678C191.406 93.134 191.728 93.0474 191.912 92.8072ZM190.604 90.9391C190.598 90.7984 190.744 90.7636 191.023 90.8418C191.027 90.989 190.89 91.0202 190.604 90.9391ZM191.455 91.1795C191.446 90.8917 191.631 90.8363 192.012 91.0133C192.391 91.1968 192.491 91.4022 192.304 91.6331C192.107 91.4384 191.97 91.4007 191.881 91.5144C191.79 91.6345 191.647 91.525 191.455 91.1795ZM192.208 93.5364C192.494 93.6175 192.539 93.7753 192.358 94.0091C192.546 94.2074 192.669 94.2394 192.711 94.1122C192.752 93.985 192.869 93.9452 193.06 93.9993L193.053 93.5672L192.76 93.054C192.77 93.3418 192.673 93.4214 192.482 93.2984C192.295 93.169 192.204 93.2514 192.208 93.5364ZM193.808 95.9177C193.614 95.5786 193.376 95.4421 193.099 95.4954C192.82 95.555 192.54 95.4768 192.251 95.2486C192.353 95.7077 192.598 95.9849 192.97 96.0966C193.348 96.2111 193.625 96.1578 193.808 95.9177ZM193.489 94.1209C194.143 94.0286 195.085 94.3401 196.321 95.0582C197.552 95.7891 198.641 96.0814 199.578 95.9387C198.538 95.6222 197.522 95.1324 196.521 94.4726C195.516 93.8193 194.504 93.6989 193.489 94.1209ZM194.816 96.856L195.242 96.984C195.328 96.7232 195.234 96.5206 194.944 96.3614C194.661 96.205 194.565 96.2845 194.67 96.5994C194.759 96.6236 194.81 96.7153 194.816 96.856ZM196.088 97.2372L196.371 97.3247L196.357 96.6829L196.074 96.5954L196.088 97.2372ZM197.222 97.7875C197.219 97.5026 197.114 97.1877 196.923 96.8422C196.939 97.5622 197.038 97.8742 197.222 97.7875ZM197.795 98.1722C197.788 98.0314 197.839 97.9696 197.931 98.003C197.924 97.5709 197.775 97.3897 197.498 97.4429C197.597 97.6171 197.623 97.7663 197.581 97.8935C197.531 98.0243 197.604 98.1181 197.795 98.1722ZM198.064 97.6178C198.17 98.2241 198.317 98.4807 198.501 98.394C198.685 98.3074 199.013 98.4148 199.493 98.697C199.295 98.3487 199.055 98.0274 198.768 97.7239C198.479 97.4268 198.242 97.3905 198.064 97.6178ZM201.198 99.4472C200.905 99.0718 200.693 98.8934 200.55 98.9218C200.407 98.9502 200.199 98.85 199.912 98.6154C199.735 99.1342 199.882 99.4597 200.359 99.6105C200.829 99.7584 201.112 99.708 201.198 99.4472ZM200.554 95.8131C200.366 95.7527 200.317 95.7768 200.419 95.8756C200.508 95.9844 200.557 95.9602 200.554 95.8131C200.936 96.0748 201.028 96.0392 200.833 95.6845C200.633 95.3426 200.544 95.3874 200.554 95.8131ZM200.724 97.1529C201.1 97.2738 201.287 97.1118 201.277 96.686L200.854 96.5516C200.857 96.6987 200.837 96.7968 200.789 96.8522C200.745 96.9169 200.724 97.015 200.724 97.1529ZM201.393 95.6498C201.298 95.6228 201.256 95.75 201.26 96.035L201.543 96.1225C201.539 95.8375 201.485 95.6832 201.393 95.6498ZM201.993 97.1268C201.897 97.0998 201.802 97.2107 201.717 97.4715L202.14 97.6059C202.136 97.3209 202.085 97.1602 201.993 97.1268ZM201.976 96.4758C202.917 96.6338 203.793 97.0611 204.611 97.7542C205.42 98.4509 206.107 98.3195 206.646 97.3488C206.36 97.2521 206.22 97.0673 206.213 96.773C205.926 96.5384 205.786 96.5604 205.789 96.8454C205.796 97.1397 205.708 97.3223 205.52 97.3997C204.936 96.4892 204.29 96.064 203.587 96.1272C202.888 96.1995 202.348 96.3117 201.976 96.4758ZM204.145 99.1102C204.138 98.678 204.033 98.4321 203.846 98.3717C203.862 98.8002 203.958 99.0497 204.145 99.1102ZM207.985 100.387C207.5 99.9424 206.976 99.5869 206.412 99.321C205.846 99.0615 205.131 98.7898 204.281 98.5118C204.674 99.2148 205.247 99.6839 206.008 99.9378C206.756 100.186 207.418 100.335 207.985 100.387ZM204.366 102.387C204.544 102.022 204.638 102.087 204.651 102.591C204.658 103.092 204.567 103.021 204.366 102.387ZM205.615 101.732C205.814 102.372 205.888 102.428 205.827 101.911C205.773 101.396 205.701 101.334 205.615 101.732ZM206.335 102.182C206.441 102.789 206.493 102.843 206.48 102.339C206.467 101.835 206.414 101.781 206.335 102.182ZM207.637 97.6894C207.845 98.4791 207.821 98.7214 207.585 98.425C207.343 98.1257 207.036 97.9892 206.66 98.0062L206.677 98.6572C207.619 98.8308 208.497 99.2361 209.309 99.8731C210.122 100.51 210.901 100.672 211.645 100.36C211.263 100.082 210.802 99.6708 210.276 99.1306C209.744 98.5875 209.255 98.6002 208.798 99.163C208.774 98.1488 208.388 97.6555 207.637 97.6894ZM228.249 108.574C227.383 107.936 226.467 107.1 225.501 106.066C224.533 105.038 223.57 104.411 222.629 104.184C222.441 104.108 222.246 103.891 222.047 103.527C221.856 103.458 221.692 103.5 221.558 103.662C221.424 103.825 221.254 103.795 221.059 103.578C220.084 102.341 219.006 101.578 217.826 101.283C216.637 100.993 215.661 100.344 214.888 99.3419C213.843 98.9693 213.105 98.5953 212.671 98.2263C212.238 97.8574 211.637 97.3988 210.875 96.8379C210.605 97.3233 210.257 97.4519 209.826 97.23C209.396 97.0082 208.99 96.7665 208.608 96.4892C208.222 96.2184 207.891 96.0328 207.604 95.9361C207.318 95.8394 207.137 96.0731 207.058 96.6126C209.714 97.655 212.209 98.9554 214.552 100.51C216.897 102.081 219.298 103.194 221.77 103.841C221.873 104.316 222.215 104.805 222.793 105.314C222.78 104.879 222.824 104.608 222.919 104.497C223.019 104.825 223.118 105.083 223.223 105.26C223.319 105.441 223.419 105.7 223.527 106.024C226.012 107.434 228.558 109.256 231.167 111.472C231.239 110.501 230.867 109.837 230.059 109.501C229.23 109.194 228.629 108.873 228.249 108.574ZM208.134 100.86C208.326 101.068 208.563 101.188 208.846 101.207C209.126 101.232 209.309 101.045 209.395 100.646C209.207 100.724 208.92 100.627 208.544 100.353C208.162 100.091 208.026 100.26 208.134 100.86ZM208.448 102.256C208.65 102.751 208.741 102.754 208.73 102.243C208.723 101.742 208.623 101.744 208.448 102.256ZM209.756 103.986C209.752 103.701 209.742 103.413 209.732 103.125C209.729 102.84 209.579 102.644 209.292 102.547C209.105 102.624 209.041 102.887 209.102 103.336C209.163 103.784 209.38 104.003 209.756 103.986ZM210.692 101.744C210.501 101.674 210.452 101.698 210.551 101.804C210.649 101.909 210.696 101.891 210.692 101.744C210.781 101.63 210.832 101.722 210.842 102.01L211.129 102.107C211.31 101.888 211.26 101.69 210.977 101.518C210.684 101.35 210.59 101.423 210.692 101.744ZM211.552 102.257C211.744 102.326 211.863 102.402 211.908 102.491C211.959 102.583 212.072 102.656 212.263 102.726C212.352 102.474 212.298 102.235 212.106 102.028C211.909 101.817 211.956 101.693 212.24 101.643C213.087 101.805 213.874 102.155 214.592 102.696C215.313 103.246 216.097 103.671 216.952 103.99C217.04 103.738 217.102 103.582 217.15 103.526C217.198 103.471 217.266 103.317 217.349 103.063C216.867 102.596 216.339 102.3 215.771 102.163C215.201 102.032 214.724 101.674 214.335 101.103C214.345 101.682 214.307 101.957 214.215 101.923C213.812 100.779 213.257 100.287 212.553 100.472C211.869 100.65 211.532 101.252 211.552 102.257ZM212.406 102.56C212.697 103.095 212.817 103.102 212.758 102.578C212.7 102.054 212.581 102.047 212.406 102.56ZM215.98 104.485C215.775 103.842 215.581 103.557 215.396 103.628C215.208 103.705 214.879 103.582 214.398 103.269C214.504 103.737 214.719 103.994 215.051 104.041C215.382 104.089 215.696 104.244 215.98 104.485ZM218.56 105.869C218.082 105.687 217.745 105.461 217.554 105.169C217.359 104.883 217.118 104.615 216.831 104.365C216.838 104.797 217.083 105.243 217.565 105.71C218.045 106.184 218.376 106.232 218.56 105.869ZM217.822 104.737C218.291 104.769 218.725 104.931 219.104 105.215C219.491 105.501 219.771 105.611 219.959 105.533C219.754 104.737 219.366 104.197 218.788 103.91C218.221 103.635 217.901 103.906 217.822 104.737ZM222.114 106.79C222.004 106.174 221.761 105.79 221.381 105.644C221.002 105.499 220.568 105.337 220.096 105.157C220.301 105.953 220.593 106.313 220.969 106.243C221.346 106.172 221.724 106.356 222.114 106.79ZM220.567 107.06C220.273 106.516 220.154 106.508 220.212 107.032C220.27 107.556 220.39 107.563 220.567 107.06ZM221.364 111.007C221.076 110.894 220.936 110.916 220.943 111.057C221.224 111.167 221.367 111.154 221.364 111.007ZM221.997 107.826C221.812 107.897 221.621 107.827 221.429 107.604C221.234 107.387 221.142 107.423 221.152 107.71C221.343 107.78 221.53 107.894 221.725 108.042C221.913 108.187 222.007 108.114 221.997 107.826ZM222.257 106.846C223.41 107.58 224.532 108.416 225.641 109.353C226.746 110.296 227.783 110.964 228.735 111.357C227.763 110.097 226.678 109.124 225.477 108.43C224.279 107.744 223.211 107.216 222.257 106.846ZM223.728 109.139C223.834 109.607 223.877 109.596 223.867 109.086C223.853 108.582 223.807 108.599 223.728 109.139ZM224.6 110.124L225.175 110.349C225.161 109.776 224.963 109.55 224.593 109.692L224.6 110.124ZM224.829 114.071C225.12 114.331 225.284 114.289 225.322 113.946C225.357 113.609 225.237 113.31 224.946 113.051C224.956 113.339 224.932 113.512 224.887 113.561C224.84 113.617 224.825 113.786 224.829 114.071ZM229.026 111.478C229.221 111.848 229.517 112.217 229.904 112.588C230.291 112.96 230.574 113.047 230.759 112.838C230.663 112.795 230.611 112.635 230.604 112.341C230.409 112.262 230.146 112.045 229.807 111.687C229.465 111.336 229.204 111.266 229.026 111.478ZM232.954 115.691C232.467 115.199 232.303 115.172 232.457 115.585C232.604 116.01 232.769 116.037 232.954 115.691Z" fill="#00D8DA"/>
<path d="M243.141 135.563C243.272 134.909 243.71 134.407 244.462 134.044C245.213 133.681 245.702 133.117 245.921 132.349C245.5 132.4 244.834 132.778 243.909 133.477C242.985 134.177 242.622 134.888 242.824 135.606C241.487 136.834 239.76 137.667 237.632 138.092C235.503 138.517 233.485 138.746 231.578 138.779C230.41 138.82 229.159 139.03 227.832 139.412C226.498 139.792 225.567 139.593 225.042 138.809C224.802 138.625 224.626 138.677 224.501 138.959C224.375 139.24 224.207 139.395 224.004 139.419C223.742 139.027 223.802 138.702 224.201 138.443C221.986 138.615 219.764 138.684 217.527 138.648C215.29 138.611 212.938 138.11 210.477 137.147C208.879 137.983 207.203 137.959 205.442 137.062C203.677 136.171 201.926 135.99 200.192 136.529C199.859 136.465 199.79 136.312 199.971 136.078C200.151 135.845 200.123 135.633 199.889 135.452C199.443 135.3 199.243 135.372 199.279 135.687C199.315 136.001 199.246 136.277 199.065 136.511C198.41 136.381 197.529 136.173 196.432 135.884C195.334 135.596 194.375 135.614 193.568 135.929L193.451 134.989C191.799 135.411 190.328 135.118 189.035 134.114C188.614 134.165 188.366 134.308 188.291 134.527C188.207 134.75 188.138 135.026 188.078 135.351C186.687 134.465 185.44 134.064 184.337 134.148C183.231 134.239 182.11 134.4 180.971 134.651C175.618 133.522 170.362 132.933 165.197 132.897C160.035 132.855 154.83 132.686 149.584 132.401C149.255 132.331 149.029 132.391 148.89 132.567C148.75 132.742 148.476 132.858 148.056 132.908C146.423 132.581 144.832 132.625 143.287 133.033C141.743 133.435 140.195 133.796 138.635 134.099C138.154 134.474 137.894 134.749 137.86 134.91C137.833 135.074 137.583 135.446 137.127 136.04C136.805 135.973 136.487 136.015 136.186 136.157C135.885 136.299 135.574 136.345 135.244 136.275C134.397 135.424 134.047 134.541 134.19 133.617C134.34 132.696 134.736 131.823 135.373 130.995C136.016 130.171 136.743 129.414 137.562 128.729C138.38 128.044 139.236 127.482 140.141 127.05C140.211 126.721 140.159 126.545 139.991 126.508C139.83 126.475 139.703 126.518 139.612 126.638C140.467 125.785 141.565 125.041 142.921 124.387C144.274 123.74 145.577 123.707 146.817 124.296C149.343 123.236 151.885 122.757 154.448 122.854C157.008 122.958 159.649 123.205 162.357 123.612C164.566 123.436 166.739 123.376 168.87 123.427C171.001 123.477 173.169 123.79 175.367 124.36C176.414 124.228 177.512 124.088 178.665 123.942C179.812 123.793 180.819 124.148 181.666 124.999C182.172 124.826 182.691 124.712 183.217 124.647C183.738 124.58 184.209 124.521 184.63 124.471C184.984 124.743 185.047 125.031 184.819 125.32C184.587 125.616 184.653 125.898 185.005 126.176C185.419 126.123 185.588 125.968 185.501 125.715C185.414 125.462 185.569 125.202 185.961 124.94C187.31 124.666 188.711 124.806 190.163 125.367C191.614 125.927 193.064 126.012 194.504 125.618C196.348 125.917 198.145 126.271 199.904 126.692C201.656 127.111 203.417 127.15 205.186 126.826C208.925 127.844 212.587 128.414 216.167 128.55C219.747 128.685 223.393 129.156 227.113 129.959C228.553 129.565 230.008 129.515 231.479 129.808C232.95 130.102 234.344 130.001 235.67 129.518C236.347 129.857 237.249 130.036 238.368 130.051C239.488 130.066 240.527 129.884 241.488 129.5C242.449 129.115 243.34 128.577 244.152 127.888C244.971 127.203 245.417 126.322 245.497 125.247C245.228 121.46 244.498 117.782 243.305 114.213C242.109 110.65 239.975 107.198 236.89 103.868C234.951 100.288 232.358 96.8164 229.118 93.4553C225.872 90.0915 222.274 87.0692 218.321 84.3794C219.417 82.9675 219.89 81.6308 219.727 80.3792C221.199 79.4482 222.323 78.248 223.097 76.7693C223.864 75.2878 225.024 74.4022 226.584 74.0999C227.141 74.3472 227.375 74.6654 227.264 75.0525C227.153 75.4396 227.168 75.7834 227.311 76.0839C227.725 76.0307 228.036 76.1764 228.243 76.5209C228.443 76.8626 228.724 77.1787 229.078 77.4508C231.129 79.4187 233.617 81.8179 236.522 84.6397C239.428 87.4615 241.695 90.2527 243.322 93.0196C243.988 94.1043 244.614 95.2473 245.191 96.4457C245.766 97.6505 246.385 98.7906 247.061 99.8718C247.345 100.473 247.728 100.957 248.202 101.32C248.67 101.681 249.049 102.171 249.343 102.769C250.3 104.457 250.895 106.237 251.137 108.121C251.372 110.002 251.867 111.799 252.615 113.51C252.639 115.419 252.495 117.43 252.183 119.542C251.864 121.652 250.868 123.667 249.198 125.574C248.899 127.417 248.256 129.275 247.272 131.158C246.293 133.012 244.914 134.49 243.141 135.563ZM144.633 125.998C144.389 126.563 144.42 126.631 144.741 126.222C145.063 125.806 145.026 125.736 144.633 125.998ZM159.668 126.329C159.52 126.026 159.495 125.824 159.586 125.704C159.675 125.59 159.606 125.437 159.372 125.256C158.403 126.02 157.506 126.073 156.687 125.434C155.862 124.792 155.009 124.796 154.135 125.433C155.144 125.836 156.086 126.147 156.96 126.352C157.832 126.563 158.738 126.559 159.668 126.329C160.345 126.668 160.853 126.68 161.188 126.377C161.525 126.067 161.542 125.615 161.258 125.014C160.837 125.065 160.498 125.136 160.245 125.223C159.992 125.309 159.796 125.682 159.668 126.329ZM153.899 126.102C153.386 126.272 153.395 126.322 153.921 126.257C154.442 126.19 154.433 126.14 153.899 126.102ZM162.846 126.248C162.372 125.885 161.958 125.938 161.587 126.409C161.729 126.709 161.891 126.742 162.081 126.505C162.261 126.272 162.521 126.188 162.846 126.248C162.989 126.549 163.121 126.562 163.249 126.274C163.368 125.99 163.55 125.941 163.791 126.124C163.518 126.478 163.611 126.596 164.074 126.487C164.536 126.379 164.593 126.182 164.239 125.91L164.378 125.734C163.993 125.257 163.487 125.43 162.846 126.248ZM163.788 126.131C163.969 125.897 164.119 125.818 164.236 125.916C164.153 126.033 163.997 126.109 163.788 126.131ZM165.32 125.617C165.136 125.857 165.103 126.018 165.223 126.109C165.336 126.198 165.189 126.271 164.775 126.324C164.917 126.624 165.319 126.841 165.973 126.971C166.455 126.596 166.574 126.258 166.326 125.972C166.072 125.683 165.741 125.566 165.32 125.617ZM166.915 126.853C167.45 126.892 167.979 126.874 168.505 126.81C169.026 126.742 169.569 126.83 170.132 127.081C170.639 126.907 170.672 126.746 170.229 126.588C169.783 126.436 169.707 126.279 170.014 126.14C170.368 126.412 170.508 126.237 170.426 125.611C169.822 125.901 169.127 126.068 168.333 126.113C167.536 126.165 167.067 126.408 166.915 126.853ZM171.249 127.102L171.801 126.398C171.446 126.125 171.165 126 170.956 126.022C171.098 126.323 171.147 126.505 171.106 126.564C171.055 126.625 171.101 126.799 171.249 127.102ZM172.155 126.67C172.973 127.309 173.874 127.25 174.839 126.492L173.956 125.808C173.652 125.957 173.381 126.119 173.142 126.312C172.899 126.495 172.569 126.616 172.155 126.67ZM177.336 127.287L176.843 127.19C176.79 126.776 176.608 126.634 176.313 126.779C176.01 126.927 175.774 127.114 175.587 127.344C175.82 127.525 176.241 127.474 176.846 127.184C176.893 127.611 177.061 127.647 177.336 127.287C177.69 127.559 177.838 127.487 177.784 127.073C177.731 126.659 177.578 126.728 177.336 127.287ZM178.651 126.332C178.581 126.661 178.486 126.909 178.346 127.085C178.207 127.26 178.15 127.457 178.181 127.662C179.44 127.502 180.727 127.607 182.045 127.97C183.362 128.333 184.656 128.441 185.915 128.28C184.735 127.366 183.577 126.851 182.446 126.724C181.312 126.603 180.046 126.469 178.651 126.332ZM179.534 127.015C180.016 126.64 180.074 126.681 179.71 127.155C179.342 127.619 179.284 127.578 179.534 127.015ZM185.909 125.728L186.263 126L186.536 125.647L186.182 125.374L185.909 125.728ZM190.213 128.214C190.252 127.68 190.151 127.321 189.92 127.134C189.527 127.397 189.135 127.659 188.742 127.921C188.349 128.183 188.157 127.944 188.176 127.195C187.625 127.899 187.473 128.344 187.707 128.525C188.422 128.33 189.091 128.566 189.707 129.23C190.16 128.643 190.485 128.465 190.674 128.71C190.864 128.955 191.119 129.107 191.451 129.17C192.091 128.352 192.126 127.808 191.569 127.561C191.329 127.378 191.126 127.456 190.959 127.795C190.79 128.141 190.536 128.281 190.213 128.214ZM192.038 128.78C192.272 128.96 192.595 129.027 193.019 128.97C192.785 128.79 192.459 128.73 192.038 128.78ZM194.2 128.194C193.96 128.01 193.798 127.977 193.706 128.097C193.94 128.277 194.102 128.311 194.2 128.194ZM195.041 128.56C194.737 128.708 194.169 128.831 193.334 128.934C194.605 129.729 196.062 129.916 197.711 129.5C196.822 129.19 196.667 129.022 197.249 129.005C197.832 128.988 198.036 128.718 197.865 128.206C197.119 128.196 196.67 128.464 196.532 129.015C196.387 129.563 195.895 129.413 195.041 128.56ZM195.943 128.134C195.813 128.788 195.903 128.912 196.226 128.497C196.549 128.081 196.45 127.96 195.943 128.134ZM198.24 129.912C198.541 129.77 198.867 129.83 199.218 130.109C199.572 130.381 199.873 130.239 200.123 129.676C200.646 128.76 200.41 128.395 199.427 128.571C198.438 128.744 198.048 129.191 198.24 129.912ZM200.95 128.612C200.677 128.965 200.652 129.23 200.892 129.413C201.126 129.593 201.21 129.853 201.149 130.178C201.45 130.036 201.767 130.047 202.113 130.216C202.453 130.382 202.784 130.499 203.113 130.568C203.174 130.243 203.349 129.953 203.642 129.708C203.929 129.46 203.898 129.202 203.547 128.923C202.932 129.96 202.511 130.201 202.285 129.641C202.043 129.082 201.604 128.742 200.95 128.612ZM199.463 131.986C199.042 132.036 198.871 132.144 198.943 132.291C199.013 132.445 199.133 132.537 199.297 132.564C199.459 132.597 199.615 132.574 199.768 132.505C199.913 132.439 199.814 132.265 199.463 131.986ZM203.913 130.632C204.147 130.813 204.414 130.832 204.715 130.69C205.009 130.545 205.341 130.608 205.695 130.881C206.148 130.293 206.307 129.851 206.165 129.55C205.772 129.812 205.392 129.995 205.036 130.09C204.683 130.194 204.308 130.364 203.913 130.632ZM208.565 130.838C208.211 130.566 208.057 130.636 208.117 131.053C208.167 131.473 208.315 131.401 208.565 130.838C208.707 131.139 208.875 131.175 209.058 130.935C209.239 130.701 209.42 130.468 209.61 130.231C209.278 130.167 209.005 130.092 208.785 130.017C208.559 129.94 208.355 130.018 208.175 130.252C208.409 130.432 208.54 130.636 208.565 130.838ZM212.061 130.715C212.112 131.135 212.377 131.521 212.848 131.891L213.532 131.008C213.178 130.736 212.691 130.642 212.061 130.715ZM215.851 131.671C216.227 132.152 216.494 132.171 216.653 131.728C216.805 131.283 217.05 131.094 217.38 131.163C216.908 130.793 216.402 130.966 215.851 131.671ZM217.558 131.296C217.428 131.95 217.548 132.042 217.912 131.568C218.28 131.104 218.16 131.012 217.558 131.296ZM216.871 132.185L217.401 132.597L217.673 132.243L217.143 131.832L216.871 132.185ZM220.286 131.436C220.045 131.252 219.875 131.169 219.779 131.18C219.673 131.194 219.503 131.111 219.272 130.924C218.696 131.426 218.425 131.827 218.468 132.144C218.504 132.459 218.785 132.155 219.308 131.239C219.542 131.419 219.865 131.486 220.286 131.436C220.753 131.797 220.962 131.775 220.912 131.354C220.862 130.934 220.65 130.962 220.286 131.436ZM221.62 131.898C221.823 131.874 222.077 131.734 222.363 131.486C222.65 131.238 222.572 131.035 222.129 130.876C221.673 131.47 221.506 131.81 221.62 131.898ZM223.194 131.702C223.662 132.063 223.977 132.027 224.136 131.584L223.782 131.312C223.598 131.552 223.474 131.642 223.418 131.595C223.354 131.551 223.283 131.588 223.194 131.702ZM225.431 131.739C226.257 132.381 226.897 132.405 227.353 131.811C227.113 131.628 226.922 131.574 226.775 131.646C226.622 131.716 226.52 131.548 226.47 131.128C226.378 131.248 226.027 131.452 225.431 131.739ZM229.103 131.754C228.973 132.408 229.093 132.5 229.457 132.026C229.818 131.559 229.698 131.467 229.103 131.754Z" fill="#00D8DA"/>
</svg>
