<svg width="145" height="145" viewBox="0 0 145 145" fill="none" xmlns="http://www.w3.org/2000/svg">
<g opacity="0.9">
<path d="M56.8376 83.3824C49.8843 88.4846 45.5074 96.8968 46.1146 106.317C46.9664 119.57 58.0225 130.348 71.2924 130.875C86.3164 131.478 98.6839 119.473 98.6839 104.584C98.6839 95.868 94.4293 88.1683 87.9061 83.3782V29.1812C87.9061 20.6382 80.9149 13.647 72.3719 13.647C63.8289 13.647 56.8376 20.6382 56.8376 29.1812V67.4686" stroke="white" stroke-width="10.2353" stroke-miterlimit="10"/>
<path d="M72.3721 100.165V27.0142" stroke="white" stroke-width="10.2353" stroke-miterlimit="10"/>
<path d="M72.3723 107.785C75.6654 107.785 78.335 105.115 78.335 101.822C78.335 98.5292 75.6654 95.8596 72.3723 95.8596C69.0792 95.8596 66.4097 98.5292 66.4097 101.822C66.4097 105.115 69.0792 107.785 72.3723 107.785Z" fill="white" stroke="white" stroke-width="10.2353" stroke-miterlimit="10"/>
</g>
</svg>
