<svg width="220" height="53" viewBox="0 0 220 53" fill="none" xmlns="http://www.w3.org/2000/svg">
<path d="M4.25085 45.9263C4.39165 46.1113 4.68207 46.129 4.85807 46.314C4.99888 46.4638 5.14849 46.4726 4.95488 46.6752C4.81407 46.825 5.01648 47.0805 5.13968 47.0893C5.6325 47.1157 5.5533 47.4682 5.75571 47.7589C5.89651 47.3713 6.29253 47.0981 5.73811 46.7721C5.4477 46.5959 5.90532 46.4902 5.90532 46.3052C5.90532 46.0497 6.13412 46.2523 6.20453 46.2699C6.43334 46.3228 6.73255 46.3757 6.84695 46.5254C7.02296 46.7281 7.09336 46.5959 7.11096 46.5078C7.19897 46.129 7.58618 46.5078 7.74459 46.3316C7.78859 46.3845 7.88539 46.4638 7.86779 46.4902C7.74459 46.684 7.50698 46.6752 7.28697 46.6488C7.25177 46.825 7.45418 46.8162 7.52458 46.9219C7.83259 47.4329 8.38701 47.4946 8.92384 47.1334C9.09104 47.0188 9.67187 47.0453 9.97988 47.1774C10.1295 46.6223 9.65427 46.7105 9.27585 46.7105C9.14384 46.7105 9.00304 46.9219 8.87983 46.6752C8.80063 46.5166 8.74783 46.4373 8.92384 46.2523C9.08224 46.0937 9.64546 45.6356 8.73903 45.5563C8.62462 45.5475 8.52782 45.4505 8.52782 45.3272C8.53662 45.1334 8.64222 45.1598 8.80943 45.2215C8.86223 45.2391 9.03824 45.1686 8.94144 45.0717C8.53662 44.6312 9.18785 44.6135 9.35505 44.4638C9.55746 44.2876 9.82147 44.4197 9.97988 44.6664C10.0591 44.7986 10.2263 45.0188 10.4639 44.7193C10.5255 44.64 10.7983 44.6664 11.0095 44.64C10.9567 44.7986 10.9479 44.9572 10.8423 45.0629C10.4111 45.521 10.8775 45.7149 11.2119 45.9263C11.5551 46.1466 12.136 46.1378 12.1712 46.6576C12.18 46.7809 12.4088 46.5166 12.5408 46.7193C12.1448 46.966 12.752 47.2831 12.5232 47.6003C12.4968 47.6356 12.6376 47.6796 12.7168 47.6708C12.8312 47.662 12.796 47.6179 12.7872 47.5475C12.7344 47.151 12.8752 46.9924 13.412 47.1598C13.7288 47.2567 14.2304 47.4065 14.2832 46.8426C14.2832 46.8338 14.6001 46.4638 14.7497 46.8426C14.8289 47.0453 14.9433 46.9043 15.0665 46.9131C15.3393 46.9307 15.6561 46.6576 15.8145 46.8338C16.1225 47.1774 16.2809 47.0717 16.6329 46.8867C16.8442 46.7721 17.1522 47.1246 17.4866 47.0981C17.6362 46.9924 17.4954 46.8955 17.4778 46.7986C17.3546 46.64 17.2226 46.4814 17.0906 46.314C17.3106 46.2171 17.8034 46.2347 17.6714 45.9351C17.557 45.6708 17.1522 45.8558 16.8794 45.9175C16.7649 45.9439 16.6593 45.988 16.5449 46.0232C16.4657 45.9968 16.3777 46.0144 16.2985 46.0232C16.3777 46.0232 16.4657 45.9968 16.5449 46.032C16.4745 45.6972 16.3161 45.3624 17.0202 45.292C17.2226 45.2743 17.5394 44.8955 17.4778 44.5959C17.4426 44.4197 17.4514 44.3668 17.6362 44.4109C17.8474 44.4549 18.0058 44.499 18.0234 44.2523C18.0234 44.2259 18.0586 44.2083 18.085 44.1818C18.6218 44.6576 19.7835 44.0849 20.0827 44.9836C20.1091 45.0453 20.1179 45.2215 20.3115 45.1598C20.4259 45.1246 20.5051 45.0629 20.4171 44.9307C20.2763 44.7281 20.2851 44.4814 20.5315 44.3757C20.8835 44.2259 21.2971 44.3757 21.4907 44.5871C21.7724 44.8955 22.1772 44.9836 22.538 45.1686C22.6436 45.2215 22.6964 45.1422 22.7756 45.0981C23.4708 44.7633 24.1572 44.9395 24.5005 45.5475C24.6941 45.8911 24.9317 46.0937 25.4333 46.0585C25.6533 46.0409 25.9173 46.1201 26.1197 46.2259C26.3749 46.3492 26.6037 46.3228 26.8502 46.2523C27.035 46.2171 27.0966 46.0585 27.2286 45.9792C27.4662 45.9616 27.6686 45.8646 27.8886 46.1113C28.0206 46.2611 28.3462 46.2259 28.4782 45.9704C28.663 45.6179 28.8038 45.292 29.4639 45.5739C29.8599 45.7501 29.8247 45.2831 29.9567 45.1069C30.0975 44.9131 29.9567 44.7633 29.7103 44.684C29.4727 44.6047 29.4551 44.7986 29.4375 44.869C29.2879 45.4682 28.7246 45.2479 28.3814 45.1598C28.1174 45.0893 27.8798 45.0364 27.6246 45.0541C27.3342 45.0717 27.079 45.1157 26.9206 44.8338C26.859 44.7193 26.6741 44.684 26.4981 44.684C25.9349 44.7016 25.9349 44.6928 25.6445 44.2964C25.4421 44.6135 25.0197 44.6488 24.6941 44.7721C24.1836 44.966 23.8932 44.5166 23.6644 44.2699C23.1364 43.7237 22.538 43.3801 21.6843 43.3096C21.4995 43.292 21.3763 43.2127 21.2355 43.3977C21.1475 43.5122 20.8923 43.477 20.7163 43.4153C20.6811 43.3977 20.6635 43.292 20.6723 43.2391C20.7251 42.9748 20.9627 43.1686 21.1035 43.1246C21.1563 43.1069 21.2267 43.0805 21.2619 43.0981C21.4907 43.195 21.7107 43.1598 21.7459 42.9572C21.7811 42.7545 21.4995 42.7281 21.3147 42.6752C20.7691 42.5254 20.2147 42.5783 19.6603 42.64C19.5547 42.5695 19.5899 42.4902 19.6515 42.4109C19.9331 41.9175 20.4699 42.173 20.9011 42.1113C20.9803 42.129 21.0595 42.173 21.1387 42.1201C21.1211 42.032 21.2531 41.8911 21.0243 41.8735C20.7691 41.847 20.6723 41.7149 20.6459 41.521C20.5227 41.3889 20.3995 41.4858 20.2675 41.521C20.0651 41.4594 20.0475 41.6003 19.9683 41.6884C19.9067 41.7589 19.7307 41.8206 19.7307 41.7942C19.6339 41.1774 19.009 41.5387 18.6658 41.3977C18.4986 41.4505 18.3402 41.5563 18.1378 41.4946C18.0762 41.5387 17.953 41.6003 17.9618 41.6179C18.2786 42.2699 17.5834 42.1466 17.2226 42.2787C17.1522 42.3052 17.073 42.3052 17.0202 42.2171C16.7297 41.7237 16.5097 42.1201 16.2809 42.2611C16.2545 42.2787 16.2457 42.3492 16.2457 42.3492C15.6033 42.3052 15.2249 42.6576 14.8289 42.9836C14.7673 43.0364 14.6001 43.0012 14.4857 42.9131C14.3537 42.8074 14.2392 42.5783 14.072 42.9395C14.0016 43.0981 13.7024 42.9131 13.5528 42.8162C13.4824 42.7721 13.4736 42.5871 13.6408 42.5783C14.4417 42.5166 13.9576 42.032 13.852 41.9263C13.5616 41.6708 13.632 41.4594 13.7552 41.2038C14.0368 40.5783 14.4681 40.0673 15.1193 39.6444C15.4097 39.4505 15.6033 39.5739 15.7969 39.6003C16.0873 39.6356 16.2897 39.5563 16.4569 39.4241C16.7033 39.2391 16.2633 39.1686 16.3161 38.9924C16.8002 39.0629 17.2754 38.8602 17.7858 39.0453C18.0674 39.151 18.2874 38.8338 18.3754 38.64C18.4194 38.5519 18.0938 38.4109 17.8386 38.3933C17.5306 38.3757 17.2578 38.3492 17.0202 38.5695C16.941 38.64 16.7649 38.6488 16.7033 38.5342C16.6505 38.4461 16.6681 38.358 16.8178 38.2875C17.249 38.0849 17.6714 37.8823 18.1466 37.7677C18.3314 37.7237 18.5514 37.7765 18.5954 37.8294C19.0354 38.2699 19.2466 37.8382 19.4051 37.662C19.8539 37.1774 20.3643 36.9924 21.0595 37.1686C21.1827 37.2038 21.2883 37.2215 21.4115 37.1598C22.0892 36.8426 22.4236 37.1422 22.67 37.6268C22.6876 37.6708 22.7404 37.6972 22.802 37.7501C22.846 37.6972 22.8988 37.662 22.9076 37.6268C22.9604 37.3889 22.7492 37.0717 23.1452 36.9483C23.5236 36.8338 23.418 37.2831 23.6644 37.3272C23.902 37.3713 23.858 37.6972 24.166 37.6356C24.3421 37.6003 24.2805 37.477 24.2893 37.3889C24.3245 37.1422 24.3069 36.9131 23.946 36.8338C23.9108 36.825 23.8844 36.7986 23.8316 36.7721C24.1308 36.4109 24.5797 36.3933 25.0197 36.4638C25.3365 36.5166 25.7765 36.4285 25.8997 36.8514C25.9349 36.9572 26.6213 36.6576 26.6829 36.499C26.8766 35.9968 27.2462 35.5915 27.7478 35.2479C27.783 35.3096 27.8094 35.3801 27.8622 35.4241C28.0206 35.5475 27.5454 35.6179 27.8182 35.7237C28.003 35.7942 28.0206 35.6003 28.1262 35.5475C28.1966 35.5122 28.3374 35.477 28.3902 35.5034C28.7862 35.7765 29.2262 35.7413 29.6839 35.6532C29.7983 35.6268 29.9919 35.6091 30.0447 35.662C30.6695 36.2259 31.1271 35.6532 31.4351 35.4241C31.7784 35.1686 32.0864 35.2743 32.3064 35.3448C32.6496 35.4505 33.028 35.4946 33.3272 35.7149C33.512 35.8558 33.7496 35.7942 33.8992 35.6003C34.1544 35.2567 34.3921 35.4241 34.5505 35.6444C34.7353 35.8999 34.9817 36.0232 35.3249 36.0497L35.3161 36.0585C35.2105 35.7149 35.0785 35.4065 34.5593 35.336C34.4889 35.3272 34.2248 35.292 34.3129 35.1157C34.3657 35.0012 34.5065 34.9572 34.6737 34.966C34.9201 34.9748 35.1665 34.9748 35.4129 34.9483C35.7121 34.9219 36.0641 34.9748 36.2049 35.2831C36.3369 35.5915 36.7329 35.7061 36.9618 35.9527C37.1202 35.7677 36.8914 35.662 36.865 35.521C36.8474 35.4417 36.6097 35.3977 36.777 35.3096C36.865 35.2567 37.1114 35.1069 37.129 35.2479C37.1642 35.5475 37.8242 35.1686 37.6482 35.6091C37.6922 35.7061 37.789 35.7325 37.9122 35.7237C38.1762 35.7677 38.5634 36.0849 38.581 35.5298C38.581 35.477 38.7042 35.4417 38.7482 35.3889C38.8274 35.292 39.2234 35.4858 39.0474 35.2038C38.9418 35.0276 38.7042 35.1069 38.493 35.1686C38.053 35.3008 37.8242 35.0805 37.5778 34.7809C38.0002 34.7545 38.3346 34.8426 38.6866 34.7369C38.9506 34.6576 39.0738 34.869 39.153 35.0364C39.2938 35.3184 39.4171 35.6091 39.8571 35.6708C39.9451 35.5387 40.0243 35.3624 40.1475 35.2127C40.4643 34.8426 40.0243 34.6312 39.8131 34.6752C39.3731 34.7633 39.153 34.4285 38.7834 34.4373C38.625 34.4373 38.5018 34.3228 38.5282 34.1466C38.5546 33.9616 38.7042 34.0056 38.8362 33.9792C39.2146 33.9087 39.6107 33.5827 39.9627 34.0409C39.9891 34.0761 40.1827 34.032 40.2971 33.9968C40.9747 33.7853 41.5819 34.0232 42.2068 34.2964C42.2068 34.0144 41.934 33.9439 42.0132 33.7061C42.1364 33.6268 42.4444 33.8823 42.6204 33.6091C42.7524 33.3977 43.0076 33.5739 43.0868 33.6444C43.386 33.9616 43.6852 33.8206 43.9228 33.6444C44.1164 33.5034 44.2748 33.4858 44.5125 33.521C45.2253 33.6268 45.9557 33.6179 46.6333 33.8735C46.8798 33.9704 47.2934 33.7942 47.4254 33.8294C48.1206 33.988 48.2614 33.6179 48.3846 33.2655C48.5254 32.8602 48.7454 33.2038 48.763 33.2479C48.8598 33.5475 49.1502 33.6356 49.4407 33.7765C49.6871 33.8911 49.9071 33.9351 50.1359 33.8382C50.4263 33.7237 50.1711 33.5387 50.1447 33.3977C50.1095 33.2303 50.1359 33.2303 50.3295 33.1598C50.8575 32.966 51.3679 33.1422 51.8696 33.1686C52.1336 33.1862 52.3448 33.0981 52.5648 33.0717C53.0312 33.01 53.4536 33.1422 53.8496 33.2391C54.2632 33.336 54.5977 33.1422 55.0025 33.1774C55.4425 33.2127 55.8649 33.3624 56.2961 33.336C56.7978 33.3008 57.0618 33.4858 57.2114 33.8558C57.2466 33.9351 57.2906 34.1113 57.4314 34.0497C58.0826 33.7765 58.1706 34.2523 58.4346 34.6047C58.4874 34.4638 58.4874 34.3492 58.549 34.314C59.1914 33.988 58.7778 33.7589 58.4346 33.5651C58.3026 33.4858 58.241 33.4594 58.3466 33.3536C58.4346 33.2655 58.593 33.2038 58.6458 33.3184C58.9362 33.9087 59.4467 34.129 60.2123 34.1378C60.3795 34.1466 60.5027 34.2964 60.7843 34.1642C61.1099 34.0056 61.4619 34.314 61.9371 34.3668C61.6027 34.1466 61.7083 33.8294 61.4091 33.6091C61.1539 33.4153 61.4883 33.2127 61.6555 33.0629C61.7787 32.9483 61.9019 32.825 62.1308 33.0276C62.5356 33.3713 63.2748 33.4241 63.7852 33.1862C65.0525 32.5959 65.5277 32.6488 66.5133 33.5387C66.6277 33.6444 66.7861 33.7061 66.9005 33.8382C67.0942 34.0585 67.2878 33.9704 67.3318 33.7149C67.367 33.4858 67.5254 33.477 67.7542 33.477C68.1766 33.4858 68.6166 33.521 69.0302 33.4505C69.3559 33.3977 69.5319 33.6708 69.8663 33.6091C69.7695 33.3272 69.4527 33.2303 69.2414 33.0629C69.0742 32.9219 68.9598 32.7105 69.1622 32.5871C69.3206 32.499 69.5407 32.173 69.8311 32.4902C69.8839 32.5519 70.0335 32.6223 70.0951 32.5959C70.7903 32.3404 71.3975 32.8426 72.0664 32.7369C72.4448 32.6752 72.7968 32.7809 73.1224 32.9395C73.3512 33.0541 73.5976 33.0893 73.4128 33.4153C73.2456 33.7061 73.6416 33.9263 73.8352 34.1466C73.8704 34.1906 74.1608 34.0761 74.3368 34.032C74.2576 33.8646 74.2312 33.662 74.0992 33.5387C73.8264 33.3008 73.7296 33.2038 74.2136 33.0364C74.6713 32.8867 74.1696 32.5959 74.2048 32.3668C74.4249 32.2611 74.6009 32.4197 74.7857 32.4638C75.0321 32.5254 75.2961 32.4638 75.4633 32.499C76.1145 32.6223 76.7657 32.455 77.417 32.6135C77.6986 32.684 78.0594 32.9924 78.4026 32.6752C78.429 32.6312 78.429 32.5695 78.5082 32.5607C78.9042 32.5431 78.9394 33.151 79.4499 32.9219C79.9955 33.5475 80.4971 32.825 81.0339 32.8779C81.0955 32.8867 81.2011 32.7721 81.2275 32.7105C81.2803 32.5783 81.2275 32.3052 81.4211 32.3492C81.6939 32.4197 82.0812 32.3492 82.222 32.5871C82.3276 32.7721 82.6004 32.7721 82.662 32.9836C82.6972 33.0893 82.8028 33.0717 82.9436 33.01C83.5156 32.7633 83.9204 32.8602 84.3516 33.3096C84.5365 33.5034 84.7741 33.5298 85.0205 33.4241C85.1613 33.3624 85.0733 33.0453 85.3461 33.151C85.6541 33.2743 86.0237 33.3096 86.2701 33.5387C86.3493 33.6091 86.3669 33.7061 86.4813 33.7677C86.8949 34.0056 87.2822 33.9616 87.5198 33.6356C87.7134 33.3801 87.9334 33.3096 88.2326 33.3713C88.5318 33.4329 88.7078 33.6091 88.7254 33.8823C88.7518 34.2523 89.007 34.4109 89.4471 34.3933C89.7991 34.3845 90.1423 34.3933 90.5383 34.4021C90.3271 34.1113 90.0983 33.8735 89.9575 33.6091C89.8167 33.3536 89.5791 33.0188 90.2567 33.0012C90.3887 33.0012 90.5295 32.9395 90.6527 32.8779C91.3919 32.5342 91.9551 33.1862 92.6416 33.1157C92.7296 33.1069 92.7912 33.2215 92.9232 33.1686C93.5392 32.9219 94.0232 32.9748 94.6129 33.195C95.1145 33.3801 95.1497 33.8118 95.4489 34.0937C95.8801 34.499 96.9538 34.8338 97.3498 34.4285C97.913 33.847 98.1242 34.3933 98.3002 34.5783C98.5818 34.8867 98.5994 34.6135 98.6698 34.5078C98.7754 34.358 98.6258 34.173 98.8634 34.0056C98.9954 33.9175 98.661 33.6091 98.8634 33.3889C99.321 33.6884 99.9195 33.3624 100.412 33.6532C100.852 33.9087 101.301 34.1906 101.908 34.2347C102.234 34.2611 102.507 34.3316 102.744 34.1025C102.832 34.0144 102.973 33.9351 103.07 33.9968C103.721 34.4549 104.575 34.358 105.305 34.5695C106.141 34.8074 106.986 35.1246 107.91 34.825C108.069 34.7721 108.297 34.8514 108.491 34.8779C108.588 34.8955 108.755 34.966 108.764 34.9483C109.133 34.4373 109.529 34.9043 109.908 34.9307C109.961 34.9395 110.022 34.9219 110.057 34.9483C110.321 35.1246 110.506 35.336 110.559 35.6179C110.841 35.5387 111.131 35.4153 111.316 35.7589C111.369 35.847 111.642 35.8735 111.606 35.847C111.351 35.6003 112.24 35.5651 111.73 35.3096C111.51 35.2038 111.149 35.2391 111.087 34.8779C111.642 35.0893 112.222 35.2038 112.768 35.1157C113.243 35.0453 113.666 35.0453 114.15 35.0629C115.232 35.1246 116.332 35.0012 117.353 35.4241C117.511 35.4946 117.907 35.7501 117.793 35.2479C117.767 35.1334 117.907 35.2215 117.969 35.2215C118.717 35.292 119.483 35.1774 120.16 35.662C120.319 35.7765 120.882 35.8382 121.252 35.7677C121.7 35.6708 122.158 35.7149 122.466 35.9439C122.871 36.2435 123.284 36.2347 123.768 36.2876C124.208 36.3404 124.719 36.358 125.124 36.5783C125.264 36.6576 125.344 36.5695 125.458 36.5431C125.687 36.4814 125.96 36.4549 126.153 36.5431C126.541 36.7369 126.849 36.7105 127.245 36.5254C127.447 36.4285 127.737 36.4638 127.975 36.7721C128.16 37.0188 128.6 37.3008 129.11 37.2655C129.189 37.2831 129.269 37.3184 129.348 37.2743C129.7 37.01 129.629 36.8514 129.172 36.7545C128.996 36.7193 128.688 36.7016 128.767 36.4726C128.846 36.2523 129.084 36.3933 129.277 36.4197C130.061 36.499 130.835 36.5871 131.601 36.7809C131.794 36.8338 131.935 36.8162 132.032 37.0276C132.146 37.2655 132.507 37.0276 132.754 37.1422C133.475 37.4682 134.329 37.477 135.059 37.7765C135.323 37.8823 135.596 37.8999 135.869 37.847C136.679 37.6972 137.427 38.0144 138.21 38.0409C138.403 38.0497 138.562 38.032 138.729 37.9792C139.178 37.8294 139.521 37.8294 139.926 38.1554C140.163 38.3492 140.7 38.2611 141.088 38.3668C141.624 38.5078 142.1 38.4021 142.566 38.2083C142.619 38.1818 142.68 38.1466 142.733 38.1554C143.992 38.3757 145.356 38.1906 146.526 38.6664C147.406 39.0188 148.401 39.2567 149.069 39.9175C149.166 40.0144 149.245 39.9263 149.333 39.9616C149.58 40.0497 149.897 40.0232 149.729 40.4197C149.668 40.5783 149.817 40.9307 150.328 40.8867C150.724 40.8514 151.155 41.1598 151.507 40.7721C151.252 40.4726 150.662 40.6928 150.433 40.314C151.287 40.1113 152 40.5254 152.783 40.5959C153.056 40.6224 153.214 40.8867 153.311 41.1069C153.443 41.4065 153.681 41.3889 153.954 41.292C154.068 41.2567 154.156 41.195 154.279 41.1686C155.274 40.9395 155.978 41.4946 156.814 41.7325C157.21 41.847 157.377 42.3052 157.958 42.1466C158.38 42.032 158.891 42.2523 159.357 42.1201C159.436 42.1025 159.507 42.0761 159.586 42.0585C159.718 42.6576 160.29 42.2083 160.624 42.3492C160.721 42.3933 160.853 42.3757 160.959 42.455C161.073 42.5431 160.941 42.7281 161.135 42.7457C161.337 42.7721 161.232 42.5871 161.32 42.5342C161.337 42.5166 161.443 42.5431 161.452 42.5607C161.645 42.966 162.006 42.8074 162.358 42.7809C163.124 42.7281 163.423 42.9043 163.784 43.5298C163.889 43.7061 164.065 43.7501 164.329 43.7413C164.611 43.7325 164.611 43.5563 164.593 43.4682C164.532 43.1598 164.681 43.151 164.972 43.195C165.112 43.2127 165.28 43.151 165.456 43.1246C165.57 43.3448 165.324 43.5475 165.412 43.7853C165.764 43.7237 165.975 43.5475 166.028 43.2655C166.063 43.0629 166.151 43.0805 166.292 43.195C166.749 43.5827 167.612 43.7942 168.254 43.6268C168.571 43.5475 168.58 43.7149 168.545 43.8382C168.501 44.0056 168.474 44.1642 168.562 44.358C169.029 44.1818 169.521 44.0761 169.988 44.0056C170.331 43.9527 170.903 43.9263 171.167 44.3492C171.22 44.4285 171.387 44.5431 171.449 44.4285C171.59 44.1466 171.713 44.3228 171.898 44.3668C172.698 44.5783 173.499 44.7898 174.353 44.7105C174.749 44.6752 175.136 44.7193 175.242 45.1334C175.277 45.2655 175.444 45.2215 175.559 45.2215C175.831 45.2303 176.122 45.1774 176.368 45.2479C176.72 45.3448 177.336 45.3448 176.984 45.9087C176.923 46.0144 176.958 46.2083 177.151 46.1378C177.495 46.0144 177.873 46.0497 178.19 45.9439C178.392 45.8823 178.427 45.8735 178.612 45.988C179.14 46.314 179.712 46.5342 180.451 46.3228C180.768 46.2347 181.235 46.4638 181.42 46.7193C181.569 46.9483 181.613 46.9307 181.78 46.7809C182.229 46.3845 183.514 46.499 183.769 47.0012C183.901 47.2567 184.06 47.2303 184.271 47.2303C185.054 47.2215 185.785 47.3977 186.445 47.7325C186.841 47.9263 187.193 48.173 187.747 48.0056C187.958 47.9351 188.284 47.9351 188.592 48.1113C188.873 48.2787 189.349 48.2171 189.745 48.2523C190.017 48.2787 190.176 48.3404 190.097 48.6224C190.017 48.869 190.158 49.0541 190.51 49.0188C191.214 48.9395 191.901 49.0364 192.561 49.2215C192.869 49.3096 193.115 49.1334 193.406 49.1422C194.004 49.1598 194.576 49.3536 195.007 49.6003C195.526 49.8911 196.046 49.7942 196.556 49.8911C196.653 49.9087 196.829 49.8911 196.847 49.9351C196.97 50.2259 197.207 50.2964 197.577 50.3668C197.859 50.4197 197.929 50.2347 198.114 50.2611C198.061 49.988 198.422 49.7854 198.29 49.5034C198.131 49.151 197.674 49.0805 197.383 48.8338C196.231 47.847 194.699 47.6356 193.15 47.477C192.526 47.4153 192.209 47.1334 191.989 46.6488C192.35 46.6488 192.649 46.7193 192.957 46.6928C193.265 46.6576 193.388 46.869 193.476 47.0629C193.617 47.3801 193.925 47.521 194.259 47.4241C194.831 47.2479 195.166 47.5563 195.562 47.7589C196.503 48.2171 197.304 48.8338 198.237 49.3008C198.334 49.3536 198.343 49.4417 198.404 49.5034C198.844 49.6444 199.284 49.803 199.707 49.9616C200.085 50.1113 200.349 50.5431 200.675 50.8514C200.921 51.0805 201.053 51.3272 201.572 51.3272C201.819 51.3272 202.505 51.4858 202.505 52.0232C202.505 52.3668 202.804 52.5078 203.209 52.5078C203.79 52.5078 204.371 52.5254 204.96 52.5166C205.163 52.5166 205.515 52.6224 205.524 52.3668C205.524 52.2259 205.075 52.1378 204.908 52.1818C204.424 52.3052 204.177 51.8999 204.098 51.7853C203.737 51.3008 202.699 50.7281 202.021 50.7986C201.924 50.8074 201.836 50.8867 201.784 50.7721C201.74 50.6928 201.845 50.6576 201.907 50.6223C201.845 50.5342 201.81 50.4021 201.713 50.3668C201.212 50.1818 200.956 49.6972 200.358 49.6356C200.191 49.6179 199.979 49.6179 200.015 49.3713C200.041 49.1422 200.287 49.3184 200.358 49.2303C200.543 48.9572 200.904 48.8514 201.15 48.64C201.344 48.4726 201.511 48.3845 201.713 48.6752C201.907 48.9572 202.804 49.0012 203.095 48.7809C203.623 48.3757 203.816 48.4197 204.089 49.0453C204.16 48.8514 204.556 48.8338 204.327 48.5519C204.318 48.5431 204.388 48.4726 204.441 48.4461C204.52 48.4109 204.608 48.4197 204.635 48.499C204.908 49.2215 205.26 48.6664 205.515 48.5166C205.656 48.4373 205.744 48.4285 205.797 48.5166C206.131 49.0981 206.518 48.7986 206.914 48.5783C206.976 48.5431 207.037 48.5166 207.09 48.4902C207.002 48.314 206.905 48.3757 206.809 48.455C206.694 48.5519 206.571 48.5783 206.439 48.4814C206.597 48.3933 206.395 48.2171 206.536 48.1378C207.108 47.8294 206.501 47.292 206.888 46.9572C206.826 46.9219 206.721 46.8426 206.712 46.8514C206.272 47.1686 205.691 46.64 205.268 47.0188C204.556 46.6135 203.473 47.2391 202.901 46.4197C202.796 46.2699 202.62 46.4021 202.47 46.4373C202.285 46.4814 202.232 46.6928 202.241 46.6928C202.734 47.0276 201.968 47.0893 202.03 47.3448C202.074 47.5034 201.916 47.4065 201.845 47.3801C201.678 47.3272 201.484 47.1862 201.352 47.2127C200.727 47.3713 200.551 47.0364 200.314 46.684C200.155 46.455 199.751 46.3228 199.539 46.4461C199.047 46.7369 198.871 46.4461 198.607 46.2259C198.563 46.1906 198.448 46.2259 198.422 46.1378C198.695 46.0849 198.967 46.032 199.249 45.9704C199.293 45.803 198.809 45.7501 199.108 45.477C199.231 45.3624 198.915 45.3713 198.818 45.3448C198.369 45.195 197.903 44.9307 197.436 45.3184C197.304 45.4241 197.207 45.336 197.119 45.2743C196.741 45.0453 196.301 44.9043 195.914 44.6928C195.526 44.4726 194.937 44.2699 194.374 44.2523C194.057 44.2435 194.083 44.4373 194.083 44.6047C194.083 44.7016 193.995 44.7898 193.907 44.7898C193.819 44.7986 193.74 44.7193 193.722 44.6135C193.687 44.3757 193.15 44.1025 192.895 44.2259C192.561 44.3845 192.394 44.2611 192.191 44.0497C191.892 43.7413 191.584 43.4417 191.021 43.7501C190.941 43.7942 190.748 43.7237 190.633 43.6708C190.343 43.5475 190.07 43.6003 189.859 43.7589C189.481 44.0585 189.146 44.0761 188.865 43.6884C188.777 43.5739 188.671 43.521 188.583 43.5739C188.222 43.7765 187.958 43.5915 187.685 43.4505C187.184 43.1774 186.629 43.3008 186.154 43.3977C185.802 43.4682 185.679 43.3184 185.573 43.195C185.327 42.9307 185.925 43.1157 185.829 42.8602C185.564 42.8426 185.274 42.7986 185.001 42.8162C184.588 42.8426 184.139 42.9924 184.174 42.4109C184.183 42.3228 183.989 42.3052 183.866 42.2875C183.567 42.2347 183.276 42.1642 182.995 42.0761C182.625 41.9527 182.379 41.9704 182.432 42.3757C182.106 42.3404 182.106 42.1113 182 41.9616C181.921 41.847 181.851 41.7677 181.684 41.7589C181.446 41.7501 181.534 41.9263 181.472 42.0144C181.349 42.173 181.376 42.5519 180.936 42.1994C180.812 42.1025 180.504 42.0937 180.249 42.129C179.915 42.173 179.554 42.2347 179.246 41.9968C178.982 41.7942 178.665 41.9968 178.375 41.9968C177.899 42.0056 177.574 41.5122 177.046 41.7589C176.967 41.7942 176.887 41.6444 176.879 41.5298C176.852 41.336 177.019 41.0276 176.755 40.9748C176.368 40.8867 175.937 40.684 175.523 40.8867C175.233 41.0276 175.03 40.9924 174.828 40.7809C174.758 40.7016 174.573 40.5783 174.555 40.5871C173.966 41.0012 173.279 40.0849 172.698 40.6664C172.646 40.7193 172.558 40.7457 172.496 40.6752C171.977 40.0849 171.352 40.3845 170.727 40.4902C170.375 40.5519 169.847 40.684 169.794 40.2083C169.741 39.7413 169.442 39.8823 169.134 39.8911C168.932 39.8999 168.756 39.8558 168.553 39.7765C167.99 39.5651 167.392 39.3977 166.758 39.5387C166.371 39.6268 166.028 39.7237 165.702 39.4329C165.632 39.3713 165.561 39.2127 165.359 39.336C165.051 39.5298 164.804 39.6003 164.892 39.1334C164.91 39.0629 164.831 38.9572 164.646 38.9924C164.127 39.0893 163.748 38.6928 163.238 38.6664C163.044 38.6576 162.71 38.3668 162.675 38.0761C162.657 37.9527 162.613 37.8823 162.446 37.8999C162.296 37.9087 162.34 37.988 162.323 38.0761C162.279 38.2787 162.076 38.3404 161.856 38.2787C161.46 38.1642 161.337 38.2699 161.408 38.5959C161.478 38.9307 161.126 38.966 160.959 38.869C160.545 38.6047 159.85 38.6928 159.656 38.1642C159.612 38.0497 159.454 38.0849 159.331 38.1113C158.477 38.3228 157.579 38.3668 156.717 38.3316C156.171 38.314 155.599 38.1466 155.115 37.7765C154.737 37.4946 154.226 37.2391 153.61 37.292C152.686 37.3713 151.762 37.4241 150.838 37.4946C150.706 37.5034 150.504 37.4153 150.53 37.3889C150.706 37.2215 150.548 37.0453 150.601 36.8779C150.671 36.6312 150.962 36.4021 150.821 36.1378C150.724 35.9616 150.715 35.8558 150.918 35.7677C151.129 35.6796 151.331 35.6796 151.472 35.8735C151.613 36.0673 151.683 36.1378 151.789 35.8294C151.93 35.4417 152.51 35.4065 152.827 35.7325C153.153 36.0585 153.522 35.7061 153.883 35.7589C154.702 35.8735 155.573 35.6972 156.339 36.0585C156.611 36.1906 156.805 35.988 157.078 36.0937C157.879 36.3757 158.741 36.5254 159.621 36.5519C159.691 36.5519 159.815 36.5871 159.832 36.6312C160.114 37.3889 161.029 37.2038 161.654 37.4417C161.733 37.4682 161.856 37.4858 161.936 37.5475C162.164 37.7413 162.376 37.7501 162.64 37.5827C163.062 37.3184 163.476 37.7853 163.467 37.8382C163.405 38.2435 163.59 38.4373 164.048 38.5342C164.426 38.6135 164.778 38.5607 165.165 38.5254C165.614 38.4814 166.063 38.3668 166.582 38.4726C167.049 38.5695 167.594 38.8338 168.131 38.5607C168.263 38.499 168.43 38.4461 168.527 38.6312C168.641 38.8514 168.809 38.7986 168.958 38.6752C169.187 38.4902 168.861 38.4814 168.8 38.3845C168.633 38.1466 168.36 38.0144 168.061 37.8735C167.832 37.7765 167.453 37.7325 167.506 37.3713C167.515 37.3008 167.357 37.0541 167.189 37.0893C167.022 37.1157 166.829 37.2391 166.846 37.4505C166.855 37.6268 166.881 37.8294 166.547 37.8294C166.23 37.8294 166.292 37.6796 166.353 37.521C166.406 37.3713 166.239 37.4329 166.169 37.4241C165.57 37.3272 164.972 37.2655 164.382 37.4153C164.259 37.4505 164.144 37.6003 164.065 37.3713C163.942 37.01 163.722 36.9131 163.308 37.0012C163 37.0629 162.833 36.8162 162.587 36.7369C162.384 36.6664 162.534 36.3668 162.64 36.3052C163.124 36.0232 162.604 36.0673 162.499 35.9968C162.437 35.9616 162.314 35.9704 162.235 35.988C162.068 36.0409 161.98 35.9351 161.874 35.8823C161.988 35.803 162.024 35.6356 162.244 35.6972C162.534 35.7677 162.763 35.6972 162.912 35.3801C162.983 35.7149 163.282 35.8999 163.115 36.2083C163.053 36.3228 163.132 36.4461 163.388 36.3933C163.801 36.3052 164.136 36.4726 164.461 36.684C164.822 36.9131 165.57 36.8514 165.825 36.5695C166.01 36.358 166.265 36.3933 166.433 36.455C166.855 36.6135 167.277 36.7721 167.744 36.8162C168.017 36.8338 168.069 36.9924 168.096 37.1774C168.421 36.8074 168.993 36.6928 169.469 36.8955C169.715 37.0012 169.961 37.0981 170.234 37.0188C170.71 36.8867 171.106 36.9748 171.475 37.2391C172.03 37.6356 172.69 37.4065 173.306 37.4153C173.807 37.4241 174.212 37.6091 174.582 37.8646C174.687 37.9351 174.722 38.0232 174.546 38.0937C174.318 38.173 174.071 38.2347 173.895 38.3933C173.798 38.4726 173.596 38.4549 173.614 38.3492C173.64 38.129 173.482 38.1466 173.385 38.2083C173.253 38.2875 173.279 38.4285 173.411 38.5078C173.57 38.6047 173.754 38.6488 173.966 38.6224C174.212 38.5871 174.476 38.5078 174.687 38.5695C174.872 38.6135 175.118 38.8162 175.206 38.64C175.312 38.4373 174.916 38.3757 174.758 38.2523C175.33 37.8823 175.699 38.1113 175.884 38.5695C176.016 38.8867 176.421 38.8779 176.641 39.0981C176.703 39.1598 177.019 39.0276 176.949 38.7986C176.914 38.6928 176.843 38.5871 176.799 38.4814C177.512 38.173 178.049 38.5342 178.533 38.8074C178.885 39.01 179.07 38.9483 179.307 38.7721C179.835 38.3757 180.355 38.4726 180.531 39.0188C180.61 39.2655 180.883 39.4241 181.076 39.5563C181.393 39.7942 181.411 39.3184 181.64 39.2567C181.49 38.9748 181.833 38.9748 181.948 38.9836C182.748 39.0453 183.549 39.0717 184.341 39.2479C184.684 39.3272 184.711 39.5475 184.904 39.6796C185.38 39.988 185.934 40.032 186.462 40.1201C186.981 40.1994 187.474 40.455 187.923 40.4814C188.759 40.5342 189.384 41.1069 190.237 40.9924C190.308 40.9836 190.449 41.0012 190.466 41.0364C190.633 41.4153 191.056 41.4329 191.417 41.4682C192.015 41.521 192.578 41.6003 193.01 41.988C193.054 42.0232 193.168 42.032 193.247 42.0232C193.52 41.988 193.793 41.8558 193.573 42.2875C193.494 42.4373 193.96 42.5078 194.189 42.6224C194.33 42.3845 193.951 42.1642 194.171 41.9439C194.25 41.8646 194.25 41.6884 194.462 41.7413C194.532 41.7589 194.646 41.7942 194.655 41.8382C194.699 42.0056 194.47 41.8911 194.426 41.9616C194.4 41.9968 194.382 42.0585 194.4 42.0937C194.418 42.1378 194.506 42.2083 194.523 42.1994C194.866 42.0409 195.166 42.4461 195.5 42.2611L195.526 42.2259L195.482 42.2435C195.606 42.7898 196.195 42.684 196.547 42.64C197.269 42.5342 197.999 42.6576 198.712 42.499C198.915 42.455 199.17 42.6928 199.284 42.7105C199.795 42.7545 200.076 43.1774 200.613 43.1774C201.115 43.1774 201.467 43.4065 201.59 43.8294C201.748 44.3757 202.417 44.7016 203.042 44.5342C203.077 44.5254 203.112 44.4902 203.148 44.4902C203.464 44.4285 203.825 44.1201 204.089 44.3668C204.3 44.5695 204.195 44.9395 204.116 45.2303C204.01 45.6532 204.432 46.032 204.952 45.9704C205.321 45.9263 205.656 45.8823 206.043 46.0056C206.518 46.1642 207.002 45.7325 206.87 45.3184C206.826 45.1774 206.817 45.0629 206.888 44.869C207.24 45.2215 207.565 45.336 207.944 44.9395C208.049 44.825 208.366 44.8338 208.56 44.9395C208.797 45.0629 208.701 45.1598 208.516 45.2655C208.445 45.3008 208.551 45.3801 208.613 45.4065C208.701 45.4505 208.771 45.4241 208.806 45.3448C208.947 45.0629 209.22 45.01 209.563 45.0276C209.73 45.0364 210.012 45.0805 209.985 44.869C209.959 44.64 209.563 44.9307 209.466 44.7016C209.413 44.7545 209.378 44.8955 209.273 44.7721C209.237 44.7281 209.29 44.5519 209.422 44.5431C209.669 44.5166 209.897 44.499 210.1 44.2875C209.704 44.1906 209.352 44.0761 208.973 44.1554C208.745 44.1994 208.577 44.2787 208.393 44.0673C208.269 43.9263 208.032 44.0937 207.988 44.1554C207.662 44.6223 207.231 44.2611 207.099 44.129C206.835 43.8646 206.545 43.8206 206.254 43.9263C205.955 44.032 205.849 43.8823 205.761 43.7589C205.603 43.5122 205.946 43.6356 206.025 43.5563C206.421 43.1334 206.985 43.4065 207.451 43.3713C208.173 43.3184 208.894 43.3448 209.607 43.151C209.827 43.0893 210.126 43.1422 210.355 43.2303C210.707 43.3536 210.337 43.5739 210.39 43.7325C210.487 44.0144 210.17 44.4197 210.76 44.5695C210.998 44.6312 211.033 44.9483 210.997 44.9924C210.681 45.336 211.156 45.336 211.27 45.3448C211.851 45.3889 212.335 45.7325 212.951 45.6708C213.11 45.6532 213.312 45.7237 213.365 45.5739C213.409 45.4329 213.286 45.3008 213.083 45.2567C213.004 45.2391 212.934 45.1862 212.854 45.195C212.133 45.2391 211.666 44.825 211.112 44.5695C210.989 44.5078 210.883 44.4814 211.033 44.3668C211.191 44.2435 211.842 44.4109 212.027 44.4902C212.3 44.6047 212.634 44.7809 212.925 44.6576C213.145 44.5695 213.338 44.5519 213.558 44.5254C213.682 44.5078 213.972 44.5959 213.849 44.3228C213.84 44.3052 213.937 44.2611 213.981 44.2347C214.174 44.869 214.685 44.173 214.993 44.4021C215.195 44.5519 215.415 44.684 215.679 44.7721C215.846 44.825 216.093 44.869 216.137 44.7721C216.375 44.314 216.735 44.5254 217.052 44.6312C217.237 44.6928 217.387 44.6664 217.501 44.5871C218.284 44.0497 219.111 43.5298 219.49 42.7016C219.516 42.6488 219.613 42.6224 219.683 42.5871C219.683 42.5519 219.683 42.5166 219.683 42.4814C219.604 42.3404 219.569 42.2083 219.692 42.0673C219.701 41.1069 219.71 40.1554 219.719 39.195C219.437 38.966 219.349 38.6312 219.085 38.3845C218.812 38.1201 218.627 37.8735 218.126 37.988C217.862 38.0497 217.756 37.8206 217.642 37.6532C217.422 37.336 217.175 37.0364 216.647 37.0629C216.401 37.0717 216.278 36.9307 216.207 36.7545C216.111 36.5254 215.943 36.3228 215.847 36.1025C215.688 35.7237 215.389 35.5387 214.914 35.5827C214.702 35.6003 214.553 35.5387 214.43 35.4153C214.086 35.0629 213.62 34.8955 213.101 34.7809C212.661 34.684 212.247 34.5078 211.825 34.3668C210.329 33.8823 208.868 33.3184 207.293 33.0012C206.694 32.8779 206.166 32.5607 205.541 32.4902C204.415 32.3668 203.447 31.7853 202.303 31.7149C202.074 31.6972 201.872 31.5827 201.66 31.5298C201.379 31.4594 201.053 31.4417 200.877 31.6796C200.692 31.9263 200.948 32.0673 201.159 32.2259C201.361 32.3757 201.564 32.5078 201.845 32.5342C201.995 32.5519 202.127 32.6047 202.215 32.7105C202.294 32.8162 202.338 32.9395 202.276 33.0541C202.188 33.2127 202.03 33.1069 201.898 33.0893C201.176 33.0188 200.912 32.6664 200.868 32.1113C200.833 31.7501 200.886 31.3624 200.12 31.3624C199.733 31.3624 199.249 31.0981 198.827 30.9131C198.422 30.7369 197.964 30.6928 197.551 30.5607C196.037 30.0849 194.426 29.8999 192.904 29.4946C190.836 28.9572 188.706 28.6664 186.647 28.1201C185.881 27.9175 185.098 27.7589 184.332 27.5475C183.866 27.4153 183.408 27.2215 182.889 27.4329C182.722 27.5034 182.564 27.4153 182.449 27.3008C182.08 26.9395 181.631 26.8602 181.05 26.8074C180.337 26.7369 179.598 26.5871 178.903 26.358C177.512 25.9087 176.007 25.7765 174.573 25.4417C173.658 25.2303 172.707 25.1246 171.827 24.8074C171.669 24.7545 171.493 24.7193 171.334 24.7545C170.595 24.9483 169.891 24.6488 169.24 24.5166C168.65 24.3933 168.025 24.2083 167.427 24.0232C166.512 23.7237 165.579 23.5475 164.576 23.5387C163.687 23.5298 162.851 23.2391 161.988 23.1246C160.519 22.9219 159.102 22.5607 157.676 22.1994C156.576 21.9175 155.423 21.7501 154.306 21.5122C152.053 21.0453 149.782 20.6135 147.494 20.3404C145.866 20.1466 144.3 19.7589 142.672 19.5827C141.792 19.4858 140.973 19.1157 140.084 19.0717C139.195 19.0276 138.351 18.825 137.471 18.7809C136.635 18.7369 135.895 18.3845 135.077 18.2787C134.091 18.1554 133.141 17.8911 132.155 17.803C130.536 17.6532 128.952 17.3713 127.579 17.0981C128.397 17.0629 129.401 17.195 130.421 17.2215C130.624 17.2303 130.791 17.1598 130.879 17.01C131.02 16.7633 130.598 15.8823 130.263 15.803C129.365 15.5915 128.468 15.3624 127.526 15.3536C127.315 15.3536 127.104 15.3624 126.919 15.4417C126.224 15.7061 125.511 15.6179 124.789 15.521C123.953 15.4065 123.1 15.4858 122.255 15.3624C121.956 15.3184 121.718 15.477 121.797 15.7677C121.885 16.0761 121.718 16.129 121.401 16.0849C120.829 16.0144 120.266 15.9263 119.703 15.8118C118.629 15.6003 117.564 15.2215 116.42 15.336C116.253 15.3536 116.077 15.3184 115.927 15.2655C114.475 14.7369 112.891 14.7281 111.36 14.5519C110.084 14.4109 108.913 14.0585 107.708 13.7413C106.986 13.5475 106.265 13.3272 105.472 13.4153C105.217 13.4417 104.971 13.4153 104.742 13.3184C104.337 13.1422 103.88 13.2038 103.484 13.1157C102.595 12.9219 101.644 13.0629 100.808 12.8162C99.3034 12.3757 97.7282 12.1378 96.2321 11.6884C95.8889 11.5827 95.5369 11.477 95.3785 11.2127C95.0793 10.7105 94.5777 10.6312 93.988 10.6752C93.768 10.7457 93.5392 10.825 93.3368 10.9219C93.4864 10.7281 93.7504 10.7721 93.9616 10.6928C94.1464 10.5695 94.3136 10.7016 94.4985 10.7016C94.8065 10.7105 95.0001 10.5607 95.1321 10.358C95.2729 10.1378 95.1585 9.97037 94.9473 9.82059C94.6745 9.63557 94.384 9.46816 94.1376 9.25671C94.032 9.16861 93.8912 9.10693 93.7504 9.11574C92.536 9.23028 91.2863 9.09812 90.1071 9.45935C89.7111 9.5827 89.5967 9.87345 89.8695 10.1378C90.0543 10.314 90.3007 10.4021 90.7495 10.4549C90.7759 10.4902 90.7495 10.5254 90.6967 10.5078C89.7287 10.0937 88.6022 10.3316 87.6166 9.98799C87.5638 9.97037 87.511 9.95275 87.4582 9.93513C87.2734 9.89107 87.0534 9.85583 86.9478 9.7501C86.4461 9.22147 85.7509 9.35363 85.1437 9.42411C84.3605 9.52103 83.6652 9.36244 82.9436 9.19504C82.2396 9.03645 81.5707 8.68402 80.7875 8.93953C80.6555 8.98358 80.5147 8.90429 80.3827 8.84262C79.1418 8.2435 77.7514 7.92632 76.4401 7.46817C75.2345 7.05407 74.9705 6.65759 75.1289 5.59151C75.1729 5.31839 75.2345 5.04526 75.1025 4.78975C74.9265 4.44614 75.1641 4.31398 75.5073 4.2435C76.6337 4.01442 76.9594 4.12896 77.637 4.93072C78.0066 5.37125 78.1562 5.37125 78.781 5.20385C79.4586 5.01002 80.1363 4.76332 80.8931 4.85143C81.1747 4.87786 81.4211 4.76332 81.6675 4.67521C82.1076 4.50781 82.1604 4.31398 81.8523 4.00561C81.7379 3.89107 81.5267 3.79416 81.6763 3.61794C81.8083 3.45935 82.0107 3.4946 82.178 3.5827C82.4508 3.72367 82.6972 3.65319 82.9436 3.55627C82.9964 3.52984 83.0404 3.50341 83.0844 3.46816C83.2164 3.33601 83.322 3.17742 83.5508 3.14217C83.9204 3.0805 84.1404 2.93072 84.158 2.59592C84.1756 2.37565 84.3781 2.3316 84.6157 2.34922C84.7565 2.36684 84.9413 2.39328 85.0205 2.47257C85.4781 2.99239 86.2965 3.05407 86.8158 3.50341C87.1502 3.78535 87.6254 3.97918 88.0742 4.13777C88.7254 4.36684 89.2622 4.01442 89.2534 3.40649C89.2534 2.71927 89.2534 2.71927 88.831 2.52543C89.1654 2.5783 89.4998 2.55187 89.8167 2.63997C90.1511 2.72808 90.4767 2.6664 90.8023 2.63997C91.0575 2.62235 91.2423 2.73689 91.3831 2.89548C91.5591 3.10693 91.8671 3.16861 92.096 3.14217C93.1784 3.01002 94.2872 3.18623 95.3433 2.89548C95.5809 2.82499 95.7393 2.95715 95.8625 3.10693C96.0649 3.35363 96.3201 3.42411 96.6721 3.36244C96.9185 3.31839 97.1826 3.3272 97.2794 3.0805C97.3674 2.84261 97.1914 2.70165 96.9801 2.56949C96.9273 2.53424 96.9009 2.49019 96.9098 2.41971C97.0506 2.27874 97.2706 2.28755 97.4026 2.38446C97.7282 2.62235 98.1858 2.78094 98.3706 3.0805C98.8106 3.80297 99.6819 3.98799 100.43 4.28755C101.02 4.52543 101.407 4.37565 101.495 4.02323C101.592 3.63557 101.16 3.13336 100.694 3.05407C100.491 3.01883 100.139 3.21266 100.131 2.92191C100.122 2.64878 100.491 2.79856 100.694 2.76332C100.967 2.70165 101.116 2.56068 101.178 2.34041C101.248 2.12015 101.424 2.03204 101.697 2.09372C101.952 2.15539 102.058 2.31398 102.058 2.52543C102.058 3.36244 102.208 3.50341 103.281 3.65319C103.413 3.67081 103.431 3.75891 103.51 3.80297C103.695 3.92631 103.888 3.95275 104.073 3.82059C104.249 3.68843 104.249 3.52984 104.161 3.35363C103.994 3.02764 103.677 2.77213 103.492 2.4109C103.88 2.37565 104.091 2.50781 104.249 2.72808C104.46 3.02764 104.76 3.11574 105.147 2.95715C105.402 2.85142 105.604 2.92191 105.851 3.01002C106.379 3.22147 106.916 3.4946 107.549 3.27433C107.673 3.23028 107.849 3.23028 107.981 3.27433C108.817 3.53865 109.767 3.55627 110.524 4.01442C111.034 4.3316 111.791 4.06728 111.844 3.57389C111.897 3.02764 112.214 2.78975 112.891 2.84261C113.217 2.86905 113.498 2.86905 113.78 2.71046C114 2.5783 114.273 2.65759 114.502 2.71927C115.32 2.92191 116.077 2.86905 116.807 2.49019C117.107 2.34041 117.432 2.45495 117.696 2.5783C118.409 2.89548 119.113 3.19504 119.896 3.39768C120.486 3.54746 120.926 3.88226 121.243 4.3316C121.692 4.95715 122.396 5.2479 123.249 5.30958C123.584 5.3272 123.883 5.26552 123.988 4.96596C124.094 4.68402 123.918 4.50781 123.619 4.39328C123.064 4.18182 122.862 3.73248 122.58 3.33601C122.334 2.99239 122.07 2.6664 121.551 2.52543C122.299 2.55187 122.976 2.68402 123.628 2.9131C123.76 2.95715 123.927 2.98358 124.059 2.93072C124.525 2.76332 124.983 2.78975 125.458 2.90429C125.81 2.99239 126.021 2.86905 126.092 2.5783C126.136 2.52543 126.171 2.46376 126.215 2.4109C126.171 2.46376 126.136 2.52543 126.092 2.5783C126.259 2.90429 127.069 3.33601 127.482 3.23909C127.913 3.13336 128.441 3.12455 128.732 2.75451C128.925 2.51662 129.154 2.53424 129.339 2.73689C129.937 3.38887 130.712 3.42411 131.566 3.20385C131.75 3.1598 131.935 3.16861 132.111 3.23028C132.516 3.37125 132.947 3.45054 133.37 3.52984C133.774 3.60032 134.091 3.74129 134.364 4.00561C134.725 4.36684 135.2 4.28755 135.446 3.86464C135.684 3.45935 136.124 3.22147 136.679 3.29195C137.268 3.37125 137.831 3.35363 138.403 3.23028C138.879 3.12455 139.292 3.19504 139.662 3.4946C140.031 3.79416 140.463 3.92631 140.947 3.62676C141.079 3.54746 141.246 3.48579 141.413 3.50341C141.932 3.55627 142.302 3.38006 142.672 3.0805C143.05 2.76332 143.868 2.87786 144.238 3.23028C144.916 3.87345 145.699 4.02323 146.667 3.83821C147.433 3.68843 147.952 3.25671 148.594 2.96596C148.788 2.87786 148.885 2.71046 148.797 2.52543C148.717 2.3316 148.524 2.25231 148.277 2.21706C146.667 1.98799 145.039 1.97037 143.42 2.00561C142.575 2.03204 141.844 1.83821 141.079 1.65319C140.586 1.52984 140.102 1.45935 139.618 1.62676C139.116 1.79416 138.588 1.7501 138.078 1.73248C136.969 1.69724 135.842 1.8294 134.742 1.52103C134.329 1.40649 133.871 1.52103 133.44 1.51222C132.094 1.48579 130.765 1.34482 129.436 1.16861C129.181 1.13336 128.943 1.15098 128.714 1.23909C128.547 1.30957 128.371 1.43292 128.204 1.40649C127.341 1.27433 126.435 1.43292 125.634 1.29195C124.851 1.15098 124.138 1.16861 123.381 1.23028C123.196 1.2479 123.003 1.28314 122.827 1.23028C122.044 0.983583 121.216 1.06288 120.433 0.957152C119.386 0.816183 118.347 1.15098 117.335 0.851425C115.338 1.0805 113.349 0.754509 111.342 0.816183C109.802 0.869046 108.245 0.860235 106.705 0.728077C106.564 0.710456 106.414 0.728077 106.291 0.648782C105.42 0.639971 104.54 0.631161 103.668 0.631161C103.088 0.701645 102.507 0.763319 101.917 0.613539C101.09 0.604729 100.254 0.604729 99.4267 0.595918C99.2154 0.675213 99.0042 0.675213 98.8018 0.587108C97.1386 0.569487 95.4753 0.560676 93.812 0.543055C92.5624 0.692835 91.3127 0.710456 90.0719 0.507812C89.9487 0.507812 89.8255 0.507812 89.7023 0.507812C88.7606 0.807372 87.7926 0.560676 86.851 0.543055C86.2261 0.534244 85.6277 0.613539 85.0117 0.631161C84.5277 0.639971 84.07 0.657592 83.586 0.595918C82.8556 0.507812 82.1164 0.543055 81.3771 0.62235C81.2715 0.631161 81.1835 0.657592 81.0779 0.648782C79.8547 0.534244 78.6402 0.551865 77.4434 0.833804C77.329 0.860235 77.197 0.886667 77.0738 0.869046C76.0617 0.745698 75.1993 1.17742 74.2752 1.38006C74.0376 1.43292 73.8176 1.52103 73.5536 1.47698C73.0432 1.38887 72.524 1.44173 72.0136 1.4153C70.6759 1.34482 69.7343 2.04085 68.6166 2.40209C67.411 2.78975 66.8125 3.70605 65.8885 4.34041C65.4573 4.63116 65.4309 5.10693 65.6333 5.52984C65.7829 5.85583 65.8005 6.15539 65.6509 6.47257C65.4397 6.93072 65.4749 7.33601 65.9853 7.67081C66.2317 7.8294 66.2229 8.01442 66.1261 8.26112C65.8797 8.89548 66.6893 9.61794 67.5078 9.47698C67.4462 9.97037 67.6926 10.1994 68.3174 10.2083C68.8366 10.2171 69.1006 10.5695 69.303 10.9131C69.4263 11.1157 69.5231 11.3096 69.6815 11.3712C69.4879 11.2831 69.1886 11.1598 68.8982 11.0276C68.6782 10.9219 68.467 10.9043 68.2558 11.0364C68.0622 11.1598 68.0886 11.336 68.1238 11.5034C68.247 12.1113 68.863 12.6135 69.6199 12.7281C69.8927 12.7721 70.7463 13.6003 70.7551 13.8206C70.7551 14.0144 70.5967 14.0761 70.4207 14.032C69.8927 13.9175 69.2854 14.0937 68.819 13.7149C68.6694 13.5915 68.4142 13.6444 68.2118 13.662C67.8422 13.7061 67.4814 13.7237 67.1118 13.6003C66.8477 13.5122 66.6013 13.5915 66.4781 13.803C66.3373 14.0497 66.5485 14.1818 66.7861 14.2875C66.8565 14.3228 66.9357 14.3492 66.9974 14.3933C67.6046 14.7281 67.587 14.8602 67.0062 15.2303C66.5749 15.5034 66.0821 15.6796 65.6333 15.9263C65.2901 16.1113 64.9733 16.1554 64.5773 16.032C64.0668 15.8735 63.7764 16.1113 63.8908 16.5607C63.926 16.6928 64.058 16.8338 63.9084 16.9395C63.7236 17.0805 63.486 16.9924 63.3276 16.9043C62.9492 16.7016 62.5092 16.5871 62.2012 16.2875C61.7611 15.8823 61.1187 15.9704 60.5643 15.9704C60.2651 15.9704 59.9395 16.0937 59.6139 16.1378C59.2706 16.1818 59.121 16.4197 59.1034 16.7016C59.0946 16.9307 59.2442 17.1598 59.4995 17.151C60.0275 17.1422 60.3355 17.4241 60.6699 17.662C61.1099 17.9704 61.5323 18.1201 62.0428 17.7942C62.1308 17.7413 62.2628 17.6972 62.4212 17.803C62.2804 18.0849 62.0692 18.4461 62.5092 18.6488C62.9932 18.8602 63.5476 19.0717 64.102 18.8338C64.4276 18.6928 64.7269 18.5783 65.0965 18.64C65.2197 18.6576 65.3517 18.64 65.4573 18.5783C65.9501 18.2875 66.2669 18.4814 66.5133 18.8426C66.6629 19.0541 66.8125 19.2479 66.9622 19.4594C67.2262 19.8382 67.499 20.1113 68.1326 20.173C68.7046 20.2259 69.171 20.64 69.6727 20.9131C69.7871 20.9748 69.8575 21.1157 69.7695 21.2303C69.6815 21.3448 69.5319 21.2303 69.4351 21.2479C68.7222 21.4153 68.0182 21.2479 67.3054 21.2127C67.0326 21.2038 66.8301 21.3096 66.7245 21.521C66.6189 21.7501 66.8037 21.8911 66.971 21.9968C67.279 22.1994 67.5342 22.4373 67.7806 22.7016C68.0622 23.0012 68.423 23.1334 68.8542 22.869C68.9686 22.7986 69.0918 22.6928 69.2326 22.7898C69.347 22.869 69.2678 22.9748 69.2238 23.0717C69.0566 23.4153 69.2238 23.6884 69.5583 23.8735C69.9367 24.0761 70.3591 24.1642 70.7463 23.8558C70.7815 23.8118 70.7991 23.7677 70.7991 23.7149C70.7287 23.4858 70.8343 23.2743 71.1071 23.2567C71.8551 23.2127 72.5768 22.9395 73.3688 23.2038C73.9056 23.3801 74.3985 23.5827 74.7857 23.9087C75.0585 24.1378 75.3225 24.173 75.6833 24.1025C76.4489 23.9439 77.5754 24.2523 78.0594 24.7545C78.2618 24.9572 78.473 25.0364 78.7634 24.9483C79.0538 24.8602 79.133 24.6576 79.133 24.4109C79.133 24.2611 78.9658 24.0144 79.3002 23.9968C79.5467 23.988 79.6259 24.1994 79.6347 24.3668C79.6523 24.6135 79.7843 24.7721 80.0395 24.8955C80.4267 25.0805 80.5851 25.3977 80.7523 25.7149C80.8667 25.9263 80.9635 26.1642 81.3067 26.1025C81.6587 26.0409 81.5883 25.7677 81.5971 25.5563C81.5971 25.4858 81.5883 25.4153 81.5883 25.3096C82.2836 25.9968 83.19 26.4638 83.7532 27.2038C83.894 27.3889 84.0964 27.5563 84.3164 27.6796C84.5189 27.7942 84.7565 27.9263 84.9941 27.7501C85.1877 27.6003 85.1261 27.4065 85.0117 27.2303C84.9413 27.1246 84.8445 27.0364 84.8181 26.9131C84.7653 26.684 84.8533 26.5431 85.1613 26.5342C85.1965 26.5342 85.2493 26.5254 85.2845 26.5342C86.3493 26.9219 87.643 26.6047 88.611 27.3184C88.8838 27.521 89.315 27.5827 89.6759 27.4505C90.7231 27.0541 91.7087 27.4153 92.6944 27.6091C93.0992 27.6884 93.4688 27.8206 93.9 27.8206C94.2256 27.8206 94.5689 27.8735 94.8153 28.0937C95.0089 28.2611 95.2729 28.2347 95.5105 28.2787C95.7129 28.314 95.9681 28.3404 95.9065 28.5783C95.8537 28.7809 95.6249 28.7986 95.3961 28.7898C95.2465 28.7809 95.1145 28.6664 94.9913 28.6752C94.2608 28.7281 93.6008 28.7016 93.1168 28.1466C93.02 28.0409 92.712 28.0761 92.6064 28.1994C92.1752 28.6752 91.5679 28.6047 90.9695 28.6224C90.3271 28.64 90.1159 28.9219 90.3095 29.4329C89.9663 28.9043 89.6583 28.8074 89.0686 29.0541C89.0158 29.0805 88.963 29.1334 88.9102 29.1246C87.8894 29.0717 86.851 29.2567 85.8477 29.0276C85.3373 28.9131 84.8973 28.7721 84.4484 29.0717C84.2724 29.1862 84.0524 29.151 83.8588 29.1862C83.366 29.2655 83.146 29.6708 83.454 30.0144C83.7532 30.3492 84.0524 30.7281 84.6861 30.684C84.8445 30.6752 85.0029 30.7809 85.1701 30.7281C85.3637 30.6135 85.5661 30.5959 85.8037 30.5959C86.4021 30.5959 86.9742 30.7721 87.6958 30.7105C87.4406 30.8602 87.2558 30.825 87.1238 30.9219C86.7893 31.1598 86.4285 31.195 86.0237 31.0453C85.8565 30.9836 85.6629 30.966 85.4781 31.0541C84.9061 31.3008 84.4397 31.195 84.0524 30.7369C83.6036 30.2083 83.1724 30.2083 82.7764 30.7369C82.3628 31.292 81.2803 31.3889 80.5323 30.869C81.2011 30.8867 81.7555 30.7898 82.3012 30.6047C82.838 30.4197 82.9436 30.3228 82.8468 29.803C82.8292 29.7589 82.8028 29.7149 82.7588 29.6796C82.002 29.1774 81.1131 29.195 80.2243 29.3096C79.7843 29.3624 79.397 29.3624 79.045 29.1422C78.1914 28.6135 77.2234 28.825 76.2905 28.8602C76.0441 28.869 75.7977 28.9748 75.7625 29.2215C75.7273 29.4594 75.9913 29.5122 76.1673 29.6268C76.2553 29.6884 76.4049 29.6972 76.3961 29.9263C75.9297 29.2831 75.2433 29.2655 74.5393 29.3008C74.0288 29.3272 73.5008 29.0188 72.9904 29.3536C72.9112 29.4065 72.656 29.2391 72.5064 29.1598C72.128 28.9572 71.7231 28.9395 71.3095 28.9748C70.3327 29.0629 69.3646 29.0893 68.3966 29.292C67.6134 29.4594 66.6717 29.5915 65.8621 29.151C65.6597 29.0364 65.4397 29.0453 65.2109 29.0981C64.8149 29.2038 64.4365 29.3096 64.0492 29.0276C63.8644 28.8955 63.6092 28.9748 63.4332 29.1246C63.2836 29.2655 63.2572 29.4065 63.3628 29.5915C63.6004 30.0144 63.9172 30.3404 64.5333 30.3933C64.6829 30.4109 64.8325 30.455 64.9205 30.5519C65.2549 30.9395 65.6245 30.9483 66.1525 30.7633C67.0414 30.455 67.675 30.5959 68.0798 31.0276C68.3262 31.3008 68.3878 31.5739 68.2294 31.9351C67.6662 31.3272 66.9182 31.6003 66.2317 31.6356C66.0117 31.6532 65.7653 31.7589 65.5805 31.6356C65.0261 31.3008 64.4365 31.4065 63.8468 31.4946C63.2396 31.5915 62.65 31.5651 62.078 31.3977C62.0164 31.3977 61.9548 31.4065 61.9019 31.4153C61.7259 31.4329 61.5147 31.5298 61.3739 31.3801C61.0219 30.9748 60.6963 31.1069 60.3355 31.3624C60.2299 31.4417 60.1243 31.5298 59.9571 31.4946C59.9395 31.477 59.9219 31.4682 59.9219 31.4505C59.9483 31.1246 59.9923 30.7545 59.4731 30.6664C59.033 30.5959 58.6722 30.7721 58.4434 31.0981C58.1794 31.4858 57.7482 31.6356 57.2378 31.5827C56.7273 31.5298 56.2169 31.4505 55.6977 31.4858C55.5041 31.5034 55.2753 31.4594 55.1697 31.2479C55.8561 31.0893 56.5337 30.9483 57.2378 31.01C57.7834 31.0629 58.2674 30.9307 58.6986 30.6752C59.0154 30.4814 59.2794 30.5254 59.6667 30.6312C60.3179 30.8162 60.9603 31.2391 61.7347 30.8602C62.1748 30.6488 62.1572 30.3404 62.0956 30.0232C62.034 29.7061 61.7523 29.6179 61.3739 29.5827C60.7579 29.521 60.1419 29.4946 59.5171 29.4858C59.2882 29.477 59.0418 29.4682 58.857 29.3536C58.4874 29.1334 58.1002 29.1069 57.6778 29.2215C57.4666 29.2743 57.2554 29.2391 57.0706 29.1598C56.5953 28.966 56.1025 29.0276 55.6977 29.2215C55.2577 29.4417 54.8089 29.4065 54.3953 29.3096C53.6736 29.1334 53.0048 29.0629 52.2832 29.336C51.9048 29.477 51.4647 29.5122 51.0071 29.4241C50.3911 29.3008 49.9775 29.6003 49.6607 29.988C49.4583 30.2435 49.6167 30.6664 49.9863 30.7457C50.3647 30.825 50.6287 31.01 50.9191 31.2127C51.3943 31.5387 51.94 31.6356 52.5296 31.3448C52.9608 31.1334 53.4184 31.0805 53.788 31.477C53.8584 31.5122 53.9288 31.5386 54.0168 31.521C53.9376 31.5298 53.8584 31.5122 53.788 31.477C53.5152 31.2479 53.2776 31.1422 52.8816 31.3624C52.5912 31.521 52.1952 31.6268 51.8167 31.5915C51.2975 31.5387 50.7783 31.6356 50.3647 31.8206C49.6431 32.1466 48.9654 31.9263 48.2614 31.8823C47.6102 31.8382 46.9766 31.7149 46.3253 31.6532C45.8325 31.6091 45.7181 31.4858 45.9469 31.1422C46.1933 30.7633 45.9645 30.5078 45.7357 30.2171C45.5069 29.9263 45.2077 29.8735 44.8293 29.9087C43.6148 30.032 42.4092 30.0232 41.1859 29.9087C40.4467 29.847 39.6635 29.7589 38.9154 30.0144C38.405 30.1906 37.8858 30.0056 37.3754 30.0144C36.6273 30.0232 35.9233 30.1201 35.5537 30.7633C35.4657 30.9219 35.3073 30.966 35.1489 30.9131C34.8057 30.7986 34.4097 30.825 34.0928 30.64C33.3712 30.2171 32.6056 30.4109 31.8928 30.6135C31.6023 30.7016 31.3383 30.8074 31.0215 30.7986C30.6871 30.7986 30.3615 30.8602 30.0623 30.9748C29.6751 31.1246 29.4463 31.4241 29.5255 31.7149C29.6047 32.0232 29.8599 32.3668 30.3703 32.358C31.0039 32.3404 31.6287 32.5166 32.2712 32.3668C32.5792 32.2964 32.9224 32.3052 33.2568 32.358C33.7408 32.4461 34.2072 32.3052 34.6561 32.1818C35.3161 32.0056 35.9585 31.8382 36.5745 32.3228C36.865 32.5519 37.2698 32.4902 37.5426 32.2699C38.0882 31.8294 38.8626 32.0585 39.4523 31.7765C39.6195 31.6972 39.7867 31.8646 39.9275 31.9704C40.2355 32.1994 40.5963 32.2259 40.8603 31.9616C41.2123 31.6091 41.6787 31.6091 42.1452 31.5386C42.5236 31.4858 42.6908 31.7061 42.77 31.9351C42.8668 32.2171 42.5676 32.2171 42.3476 32.2435C42.1628 32.2699 42.066 32.3668 41.9428 32.4638C41.4675 32.869 41.0275 32.9131 40.5259 32.5695C40.0155 32.2171 39.5227 32.2259 38.9858 32.4902C38.6954 32.6312 38.3786 32.7369 38.0442 32.7105C37.613 32.6664 37.5514 33.0717 37.261 33.1246C36.9442 33.1774 36.7681 32.7369 36.3897 32.825C35.8969 32.9307 35.4569 32.869 35.0169 32.6576C34.8145 32.5519 34.5769 32.6312 34.3833 32.7545C34.172 32.8955 33.9608 32.8779 33.7584 32.7369C33.072 32.2435 32.3328 32.2787 31.5671 32.5695C31.1183 32.7457 30.5815 32.825 30.5375 33.3889C30.5199 33.6179 30.2471 33.8118 29.8863 33.7325C29.4903 33.6444 29.0502 33.5827 28.9182 33.1774C28.8654 33.0012 29.0062 32.8955 29.1822 32.8074C29.3847 32.7105 29.6223 32.7105 29.8423 32.6488C29.8951 32.6224 29.9391 32.5871 29.9743 32.5431C30.0623 32.3933 29.9567 32.2875 29.8511 32.173C29.6311 31.9351 29.4023 31.7237 29.5519 31.3536C29.6575 31.0981 29.2703 30.8514 28.9006 30.9131C28.663 30.9483 28.399 30.9572 28.179 31.0629C27.563 31.3889 26.815 31.0893 26.1901 31.3536C26.1901 31.3536 26.1549 31.3624 26.1285 31.3448C25.5125 30.8955 25.0197 31.292 24.4213 31.4329C23.418 31.6708 22.3444 31.7325 21.2883 31.6091C20.9099 31.5651 20.6723 31.5739 20.4787 31.8823C20.2059 32.3052 19.7483 32.2523 19.2819 32.1113C18.569 31.8911 18.1554 31.9968 17.7418 32.5519C17.6362 32.6928 17.513 32.7281 17.337 32.7281C16.809 32.7281 16.3161 32.869 15.8145 32.966C14.8729 33.1422 13.896 33.1686 12.9368 33.195C12.1888 33.2127 11.7223 33.5739 11.1591 33.8206C10.9919 33.8911 10.9831 34.0673 10.9743 34.2347C10.9655 34.7633 10.5255 34.9571 9.98868 34.684C9.55746 34.4638 9.31105 34.5254 9.13504 34.9219C8.98544 35.2567 8.72143 35.5122 8.29901 35.5034C7.79739 35.4858 7.50698 35.6268 7.33097 35.988C7.24297 36.1642 6.99656 36.2435 6.91736 36.4197C6.73255 36.0673 6.43334 35.988 6.05492 36.2083C5.87891 36.314 5.70291 36.3757 5.5005 36.4197C5.26289 36.4726 5.13969 36.6135 5.08688 36.825C4.84047 37.7942 4.64687 38.7633 5.10448 39.7237C4.77007 39.7942 4.62046 40.1994 4.14525 40.0497C3.96044 39.988 4.11884 40.1466 4.11004 40.1994C4.09244 40.3316 4.04844 40.3933 3.83723 40.3757C3.44122 40.3404 3.098 40.4902 2.86039 40.7633C2.74599 40.8955 2.65799 40.7721 2.55238 40.7457C2.38517 40.7105 2.24437 40.5431 2.03316 40.6664C1.98916 40.9131 2.38517 40.8074 2.39398 41.0188C2.28837 41.1422 2.11236 40.8867 1.93636 41.01C1.84835 41.0717 1.69875 41.0893 1.66355 41.195C1.61074 41.3624 1.80435 41.3096 1.89236 41.3448C2.41158 41.5915 1.94516 41.6268 1.76915 41.6972C1.79555 41.8911 1.97156 41.8735 2.05076 41.8382C2.63158 41.6268 3.0364 41.9792 3.41482 42.1906C3.89004 42.4549 3.59082 42.7633 3.18601 43.0364C3.75803 43.1334 4.28605 43.0629 4.76127 43.3272C4.95488 43.4329 5.08688 42.9748 5.38609 42.9043C6.70615 42.5342 7.75339 42.8779 8.56302 43.7149C8.51902 43.6884 8.44862 43.6268 8.37821 43.5651C8.22861 43.4241 8.0878 43.2567 7.80619 43.3536C7.54218 43.4505 7.46298 43.6356 7.51578 43.8646C7.55978 44.0409 7.55978 44.2171 7.30457 44.2875C7.04936 44.358 6.74135 44.4726 6.55654 44.2523C6.26613 43.9175 5.87011 43.9351 5.4653 43.9351C5.17489 43.7853 4.73487 43.803 4.47966 43.9792C4.27725 44.1202 4.55886 44.173 4.54126 44.2523C4.52366 44.4109 4.60286 44.6664 4.36525 44.7105C4.17165 44.7457 4.14525 44.5166 4.10124 44.3845C3.97804 43.9792 3.53802 43.7765 3.24761 43.477C3.0716 43.292 2.78999 43.1774 2.9484 42.8426C3.0276 42.684 1.81315 42.0585 1.54914 42.0497C1.16193 42.0497 1.16193 42.314 1.29393 42.4197C2.07716 43.0276 1.02992 42.9924 0.924316 43.3272C1.12672 43.3801 1.34673 43.477 1.66355 43.4329C1.92756 43.3977 2.30597 43.3889 2.36757 43.7942C2.42918 44.2171 3.01 43.803 3.19481 44.1378C3.0716 44.1994 3.1156 44.4021 2.74599 44.4373C2.39398 44.4726 2.33237 44.9395 2.16517 45.2215C2.14757 45.2567 2.34997 45.5651 2.61398 45.3713C2.77239 45.2567 3.01 45.1598 3.0804 45.3272C3.30041 45.8294 3.35321 45.2479 3.49402 45.3184C3.73163 45.4858 3.78443 45.8294 4.19805 45.8646C4.22445 45.8206 4.23325 45.8735 4.25085 45.9263Z" fill="#00D8DA"/>
</svg>
