<svg width="241" height="63" viewBox="0 0 241 63" fill="none" xmlns="http://www.w3.org/2000/svg">
<path d="M3.75786 55.1304C3.91739 55.352 4.22759 55.3697 4.43144 55.5913C4.5821 55.7686 4.7505 55.7774 4.53779 56.0256C4.37826 56.2029 4.59983 56.513 4.74164 56.5219C5.28227 56.5485 5.19364 56.9739 5.42408 57.3284C5.57475 56.8587 6.00903 56.5396 5.39749 56.1408C5.07842 55.9281 5.58361 55.804 5.58361 55.5824C5.58361 55.2811 5.83177 55.5115 5.91153 55.5381C6.1597 55.6002 6.49648 55.6711 6.62056 55.8395C6.80668 56.0876 6.89531 55.9192 6.91304 55.8129C7.01053 55.3609 7.43595 55.8129 7.60434 55.6002C7.64866 55.6622 7.75501 55.7597 7.73729 55.7863C7.59548 56.0167 7.33846 56.0079 7.09916 55.9724C7.05485 56.1851 7.28528 56.1674 7.35618 56.3003C7.69297 56.9119 8.30451 56.9916 8.88946 56.5485C9.07558 56.4067 9.71371 56.4421 10.0505 56.6017C10.2189 55.937 9.69598 56.0433 9.27056 56.0433C9.11989 56.0433 8.96923 56.3003 8.83628 55.999C8.75652 55.804 8.68561 55.7065 8.88946 55.485C9.05785 55.29 9.67826 54.7405 8.68561 54.6518C8.56153 54.643 8.45518 54.5189 8.45518 54.3771C8.46404 54.1467 8.57926 54.1733 8.76538 54.253C8.82742 54.2796 9.0224 54.191 8.91605 54.0669C8.47291 53.5351 9.18193 53.5085 9.37692 53.3313C9.59849 53.1186 9.89096 53.2781 10.0594 53.5706C10.148 53.7301 10.3341 53.996 10.5911 53.6326C10.662 53.5351 10.9545 53.5617 11.1849 53.5351C11.1229 53.7212 11.114 53.9162 10.9988 54.0403C10.5202 54.5898 11.0343 54.8202 11.3977 55.0773C11.7788 55.3432 12.408 55.3254 12.4523 55.9547C12.4612 56.0965 12.7094 55.7863 12.86 56.0256C12.4257 56.3269 13.0905 56.6992 12.8423 57.0803C12.8068 57.1246 12.9664 57.1689 13.055 57.16C13.1791 57.1512 13.1436 57.098 13.1348 57.0094C13.0816 56.5308 13.2323 56.3447 13.8261 56.5396C14.1717 56.6549 14.7212 56.8321 14.7833 56.1585C14.7833 56.1497 15.1378 55.6977 15.2973 56.1585C15.3771 56.4067 15.51 56.2294 15.643 56.2383C15.9354 56.256 16.29 55.9281 16.4672 56.1408C16.804 56.5485 16.9813 56.4244 17.3712 56.2028C17.6017 56.0699 17.9473 56.4865 18.3107 56.4599C18.4791 56.3358 18.3196 56.2206 18.3018 56.0965C18.16 55.9015 18.0182 55.7154 17.8764 55.5204C18.1157 55.4052 18.6563 55.4229 18.5234 55.0684C18.3993 54.7493 17.9562 54.9709 17.6548 55.0418C17.5308 55.0684 17.4155 55.1216 17.2915 55.1659C17.2028 55.1393 17.1142 55.157 17.0167 55.1659C17.1053 55.1659 17.2028 55.1393 17.2915 55.1748C17.2206 54.7671 17.0344 54.3682 17.8144 54.2885C18.0359 54.2619 18.3816 53.8099 18.3107 53.4554C18.2664 53.2515 18.2752 53.1806 18.4791 53.2338C18.7095 53.287 18.8868 53.3401 18.9045 53.0477C18.9045 53.0211 18.9488 52.9945 18.9754 52.9679C19.5692 53.5351 20.8455 52.8527 21.1645 53.934C21.1911 54.0137 21.2 54.2176 21.4127 54.1467C21.5368 54.1023 21.6254 54.0314 21.5279 53.8719C21.3772 53.6326 21.3861 53.3313 21.652 53.2072C22.0331 53.0299 22.494 53.2072 22.7067 53.4554C23.0169 53.8187 23.46 53.934 23.85 54.1467C23.9652 54.2087 24.0184 54.1201 24.1159 54.0669C24.8781 53.6592 25.6403 53.8719 26.0125 54.6075C26.2252 55.0241 26.4823 55.2634 27.0406 55.2279C27.2888 55.2102 27.5724 55.3077 27.8028 55.4229C28.0864 55.5736 28.3346 55.5381 28.6094 55.4584C28.8132 55.4141 28.8752 55.2279 29.0259 55.1304C29.2829 55.1039 29.5134 54.9886 29.7438 55.29C29.8856 55.4761 30.2401 55.4229 30.3908 55.1216C30.5946 54.6962 30.7542 54.3062 31.4721 54.643C31.9063 54.8468 31.8709 54.2973 32.0127 54.0758C32.1634 53.8453 32.0127 53.6592 31.7379 53.5706C31.4809 53.4731 31.4543 53.7124 31.4366 53.7921C31.2771 54.51 30.6567 54.253 30.2756 54.1467C29.992 54.0669 29.7172 53.996 29.4425 54.0137C29.1234 54.0314 28.8398 54.0935 28.6714 53.7478C28.6005 53.606 28.3966 53.5706 28.2105 53.5706C27.5901 53.5883 27.5901 53.5794 27.2711 53.1008C27.0406 53.4819 26.5886 53.5174 26.2252 53.6681C25.658 53.9074 25.3478 53.3579 25.0996 53.0743C24.5236 52.4184 23.8588 52.0018 22.9194 51.9221C22.7155 51.9044 22.5826 51.798 22.4231 52.0284C22.3256 52.1702 22.042 52.1171 21.8558 52.0462C21.8115 52.0284 21.7938 51.9044 21.8027 51.8335C21.8558 51.5144 22.1217 51.7537 22.2813 51.7005C22.3344 51.6828 22.4142 51.6473 22.4585 51.6739C22.7067 51.7891 22.9548 51.7537 22.9903 51.5055C23.0346 51.2574 22.7244 51.2308 22.5206 51.1687C21.9179 50.9915 21.3152 51.0535 20.6948 51.1244C20.5796 51.0358 20.615 50.9472 20.6859 50.8497C20.9961 50.2647 21.59 50.5572 22.0597 50.4952C22.1483 50.5217 22.2369 50.5661 22.3256 50.504C22.3078 50.3977 22.4497 50.2381 22.2015 50.2027C21.9179 50.1672 21.8115 50.0077 21.7938 49.7773C21.6609 49.6177 21.5191 49.733 21.3772 49.7773C21.1557 49.7064 21.1291 49.8748 21.0493 49.9811C20.9873 50.0609 20.7923 50.1406 20.7834 50.1052C20.6771 49.3696 19.9858 49.8039 19.6135 49.6266C19.4274 49.6886 19.259 49.8216 19.0286 49.7418C18.9577 49.795 18.8247 49.8659 18.8336 49.8836C19.1881 50.6636 18.417 50.5217 18.0271 50.6813C17.9562 50.7079 17.8675 50.7079 17.8055 50.6104C17.4864 50.0166 17.2471 50.4952 16.9901 50.6636C16.9547 50.6813 16.9547 50.7699 16.9458 50.7699C16.2368 50.7256 15.8202 51.1421 15.3859 51.541C15.3239 51.603 15.1289 51.5587 15.0137 51.4612C14.8719 51.3371 14.739 51.0535 14.5617 51.4878C14.4908 51.6739 14.154 51.4523 13.9856 51.346C13.9058 51.2928 13.9058 51.0801 14.0831 51.0624C14.9694 50.9915 14.4376 50.4065 14.3135 50.2825C13.9945 49.9723 14.0742 49.7152 14.2072 49.4139C14.5174 48.6694 14.996 48.049 15.7139 47.535C16.0418 47.3045 16.2456 47.4463 16.4672 47.4818C16.7863 47.5261 17.0078 47.4286 17.194 47.2691C17.4599 47.0475 16.9724 46.9589 17.0344 46.755C17.5662 46.8348 18.0891 46.5955 18.6475 46.8171C18.9577 46.9411 19.197 46.56 19.2945 46.3296C19.3388 46.2233 18.9843 46.0549 18.7007 46.0371C18.3639 46.0105 18.0625 45.984 17.8055 46.2498C17.7257 46.3296 17.5219 46.3473 17.451 46.2144C17.3978 46.108 17.4155 46.0017 17.5839 45.9219C18.0537 45.6826 18.5234 45.4345 19.0463 45.2927C19.2502 45.2395 19.4895 45.3015 19.5426 45.3636C20.0212 45.8953 20.2605 45.3724 20.4378 45.1686C20.9341 44.5836 21.4925 44.3621 22.2635 44.5748C22.3965 44.6102 22.5117 44.6368 22.6446 44.5659C23.3891 44.1848 23.7614 44.5482 24.0272 45.1243C24.045 45.1686 24.107 45.204 24.169 45.2661C24.2222 45.204 24.2754 45.1597 24.2843 45.1154C24.3463 44.8318 24.1159 44.4418 24.5413 44.3C24.9578 44.1582 24.8426 44.7077 25.1174 44.752C25.3833 44.8052 25.3301 45.204 25.6669 45.1243C25.8619 45.0799 25.791 44.9381 25.8087 44.8229C25.8441 44.5304 25.8353 44.2557 25.4364 44.1582C25.3921 44.1493 25.3655 44.1228 25.3124 44.0873C25.6491 43.6619 26.1366 43.6264 26.6152 43.7239C26.9609 43.7948 27.4483 43.6885 27.5813 44.1848C27.6167 44.3177 28.3701 43.9455 28.441 43.7682C28.6537 43.1656 29.0614 42.6781 29.6109 42.2616C29.6552 42.3325 29.6818 42.4211 29.7438 42.4654C29.9122 42.6161 29.3981 42.6958 29.6995 42.8288C29.9033 42.9174 29.9211 42.687 30.0451 42.6161C30.1249 42.5718 30.2844 42.5274 30.3287 42.5629C30.763 42.8908 31.2505 42.8465 31.7557 42.7401C31.8886 42.7136 32.0925 42.687 32.1545 42.749C32.8369 43.4226 33.3421 42.7401 33.6878 42.4654C34.0689 42.1641 34.3968 42.2793 34.645 42.3679C35.0172 42.5009 35.4426 42.5452 35.7705 42.8111C35.9744 42.9794 36.2403 42.9085 36.3909 42.6692C36.6657 42.2527 36.9316 42.4565 37.1088 42.7224C37.3127 43.0238 37.5786 43.1744 37.9597 43.201L37.9508 43.2187C37.8356 42.8022 37.6938 42.4299 37.1266 42.3502C37.0468 42.3325 36.7632 42.297 36.8518 42.0843C36.9139 41.9425 37.0645 41.8982 37.2506 41.8982C37.5254 41.907 37.7913 41.907 38.066 41.8804C38.394 41.845 38.7839 41.907 38.9346 42.2793C39.0853 42.6515 39.5107 42.7845 39.7588 43.0858C39.9361 42.8642 39.6791 42.7401 39.6525 42.5718C39.6348 42.4743 39.3777 42.4211 39.555 42.3147C39.6525 42.2527 39.9272 42.0754 39.945 42.235C39.9804 42.5983 40.7072 42.1375 40.5122 42.6692C40.5654 42.7845 40.6717 42.8199 40.8047 42.8111C41.0971 42.8642 41.5137 43.2453 41.5403 42.5806C41.5403 42.5186 41.6732 42.4743 41.7264 42.4122C41.815 42.297 42.2493 42.5363 42.0632 42.1907C41.948 41.9779 41.6909 42.0754 41.4605 42.1463C40.9819 42.3059 40.7249 42.0488 40.459 41.6855C40.9287 41.65 41.2921 41.7652 41.6732 41.6323C41.9657 41.5348 42.0986 41.7918 42.1873 41.9957C42.3379 42.3325 42.4797 42.6781 42.9583 42.749C43.047 42.5895 43.1445 42.3768 43.2774 42.1995C43.6231 41.7564 43.1445 41.5082 42.9052 41.5525C42.4177 41.6589 42.1784 41.26 41.7707 41.2689C41.5935 41.2689 41.4694 41.136 41.4871 40.9233C41.5137 40.7105 41.6732 40.7549 41.8239 40.7194C42.2404 40.6308 42.6747 40.2408 43.0558 40.7903C43.0824 40.8258 43.304 40.7815 43.4192 40.7371C44.1637 40.4801 44.8284 40.7637 45.5197 41.0917C45.5197 40.7549 45.2184 40.6751 45.307 40.3826C45.4399 40.2851 45.7856 40.5865 45.9717 40.2674C46.1224 40.0104 46.3971 40.2231 46.4858 40.3117C46.8137 40.6928 47.1416 40.5244 47.4075 40.3029C47.6202 40.1345 47.7975 40.1079 48.0545 40.1522C48.8344 40.2851 49.6409 40.2674 50.3854 40.5776C50.6602 40.6928 51.1122 40.489 51.254 40.5244C52.0162 40.7194 52.1757 40.2763 52.3087 39.842C52.4593 39.3545 52.7075 39.7711 52.7252 39.8154C52.8316 40.1788 53.1506 40.2851 53.4697 40.4447C53.7444 40.5865 53.9837 40.6308 54.2319 40.5156C54.551 40.3738 54.2762 40.1522 54.2408 39.9838C54.2053 39.7888 54.2319 39.7799 54.4446 39.6913C55.0296 39.4609 55.5879 39.6647 56.1374 39.7002C56.4299 39.7179 56.6603 39.6116 56.8996 39.585C57.4137 39.5052 57.8745 39.6647 58.3177 39.7799C58.7786 39.8952 59.1419 39.6647 59.5851 39.709C60.0637 39.7534 60.5334 39.9306 61.012 39.8952C61.5704 39.8509 61.854 40.0724 62.0135 40.5156C62.049 40.6131 62.1021 40.8258 62.2617 40.7549C62.9796 40.4269 63.0682 40.9942 63.3607 41.4284C63.4227 41.26 63.4227 41.1182 63.4936 41.0828C64.1938 40.6928 63.7418 40.4181 63.3607 40.1788C63.2189 40.0901 63.148 40.0458 63.2632 39.9218C63.3518 39.8154 63.5291 39.7445 63.5911 39.8863C63.9102 40.5953 64.4774 40.8524 65.3105 40.8701C65.4966 40.8789 65.6296 41.0651 65.9309 40.9055C66.2943 40.7194 66.6754 41.0917 67.1983 41.1448C66.8349 40.8789 66.9413 40.4978 66.6133 40.232C66.3297 40.0015 66.702 39.7622 66.8881 39.5761C67.021 39.4432 67.1628 39.2925 67.411 39.5318C67.863 39.9483 68.6695 40.0015 69.2279 39.7268C70.6282 39.0177 71.1511 39.0886 72.2235 40.1433C72.3565 40.2763 72.5249 40.3472 72.649 40.5067C72.8528 40.7726 73.0744 40.6662 73.1187 40.356C73.163 40.0813 73.3314 40.0636 73.5884 40.0724C74.0582 40.0901 74.5367 40.1256 74.9888 40.0458C75.3521 39.9749 75.5383 40.3029 75.9105 40.232C75.8041 39.8863 75.4585 39.7799 75.2192 39.5761C75.0331 39.4077 74.9179 39.1507 75.1306 39.0089C75.3078 38.8937 75.5471 38.5126 75.8662 38.8937C75.9282 38.9646 76.0966 39.0532 76.1587 39.0266C76.9209 38.7164 77.5856 39.3191 78.3301 39.195C78.7466 39.1241 79.1277 39.2482 79.4911 39.4432C79.7393 39.5761 80.014 39.6204 79.8102 40.0104C79.6329 40.356 80.0583 40.6219 80.271 40.8878C80.3065 40.9321 80.6255 40.808 80.8205 40.7549C80.7408 40.551 80.7053 40.3029 80.5546 40.1611C80.2533 39.8686 80.1469 39.7534 80.6876 39.5584C81.1839 39.3811 80.6344 39.0266 80.6787 38.7519C80.918 38.6189 81.113 38.8139 81.3168 38.8759C81.5916 38.9468 81.8841 38.8759 82.0613 38.9202C82.7792 39.0621 83.4971 38.8671 84.2061 39.0621C84.5163 39.1507 84.9063 39.5141 85.2963 39.133C85.3229 39.0709 85.3317 39.0089 85.4204 39C85.8546 38.9734 85.8901 39.709 86.4573 39.4343C87.06 40.1788 87.6095 39.3191 88.1944 39.3811C88.2565 39.39 88.3806 39.257 88.416 39.1773C88.478 39.0177 88.416 38.6898 88.6287 38.743C88.9212 38.8228 89.3466 38.743 89.5061 39.0266C89.6213 39.2482 89.9227 39.257 89.9936 39.5052C90.029 39.6381 90.1531 39.6116 90.3038 39.5406C90.9331 39.2482 91.3762 39.3634 91.8548 39.8952C92.0586 40.1256 92.3157 40.1522 92.5904 40.0281C92.7499 39.9572 92.6525 39.5672 92.9449 39.7002C93.2817 39.8508 93.6894 39.8863 93.9642 40.1611C94.0439 40.2497 94.0705 40.356 94.1946 40.4358C94.6555 40.7194 95.072 40.6662 95.3379 40.2763C95.5506 39.9749 95.7899 39.8863 96.1178 39.9661C96.4458 40.037 96.6407 40.2497 96.6585 40.5776C96.6851 41.0208 96.9598 41.2069 97.4561 41.1891C97.8372 41.1714 98.2183 41.1891 98.6615 41.198C98.4222 40.8524 98.1829 40.5687 98.0234 40.2408C97.8638 39.9306 97.6068 39.5318 98.3513 39.5052C98.5019 39.5052 98.6526 39.4254 98.7856 39.3545C99.6009 38.938 100.212 39.7268 100.966 39.6381C101.063 39.6293 101.134 39.7622 101.267 39.7002C101.941 39.3988 102.473 39.4697 103.128 39.7356C103.678 39.9572 103.713 40.4713 104.05 40.8169C104.52 41.3044 105.707 41.7032 106.142 41.2246C106.762 40.5244 106.993 41.1803 107.188 41.4019C107.498 41.7652 107.515 41.4462 107.595 41.3221C107.71 41.1448 107.542 40.9144 107.808 40.7194C107.95 40.6131 107.586 40.2408 107.808 39.9749C108.313 40.3294 108.96 39.9395 109.518 40.2851C110.006 40.5865 110.493 40.9321 111.158 40.9853C111.513 41.0208 111.814 41.1094 112.071 40.8258C112.16 40.7194 112.328 40.6308 112.426 40.7017C113.143 41.2512 114.074 41.136 114.889 41.3841C115.811 41.6677 116.733 42.0488 117.752 41.6943C117.929 41.6323 118.178 41.7209 118.399 41.7564C118.505 41.7741 118.692 41.8627 118.7 41.845C119.108 41.2335 119.542 41.783 119.959 41.8184C120.012 41.8273 120.092 41.8095 120.127 41.8361C120.42 42.0488 120.615 42.3059 120.677 42.6427C120.987 42.554 121.315 42.4034 121.51 42.8111C121.563 42.9174 121.864 42.9529 121.829 42.9174C121.545 42.6249 122.529 42.5718 121.962 42.2793C121.714 42.1463 121.315 42.1995 121.262 41.7564C121.873 42.0045 122.503 42.1463 123.114 42.0488C123.637 41.9602 124.098 41.9602 124.63 41.9868C125.817 42.0577 127.023 41.907 128.157 42.4211C128.334 42.5008 128.769 42.8111 128.645 42.2084C128.618 42.0754 128.769 42.1729 128.831 42.1818C129.655 42.2616 130.497 42.1286 131.241 42.7047C131.419 42.8376 132.03 42.9174 132.438 42.8288C132.934 42.7136 133.439 42.7667 133.776 43.0326C134.219 43.396 134.68 43.3783 135.203 43.4492C135.682 43.5112 136.249 43.5378 136.692 43.7948C136.852 43.8923 136.94 43.786 137.055 43.7505C137.312 43.6796 137.605 43.6353 137.827 43.7505C138.252 43.9809 138.598 43.9455 139.023 43.7239C139.245 43.6087 139.564 43.653 139.821 44.0164C140.024 44.3089 140.512 44.6457 141.07 44.6102C141.159 44.6368 141.248 44.6811 141.336 44.6191C141.717 44.3 141.646 44.105 141.141 43.9987C140.946 43.9544 140.609 43.9366 140.698 43.653C140.787 43.3871 141.044 43.5555 141.256 43.5821C142.116 43.6796 142.976 43.7771 143.809 44.0075C144.031 44.0696 144.172 44.0519 144.288 44.3089C144.412 44.5925 144.81 44.3089 145.076 44.4418C145.865 44.8318 146.805 44.8406 147.611 45.1952C147.904 45.3281 148.196 45.3458 148.497 45.2749C149.384 45.0888 150.208 45.4788 151.077 45.5054C151.298 45.5142 151.466 45.4965 151.644 45.4256C152.131 45.2483 152.512 45.2395 152.955 45.6383C153.212 45.8687 153.806 45.7624 154.232 45.8865C154.826 46.0637 155.34 45.9219 155.862 45.7003C155.924 45.6738 155.995 45.6294 156.049 45.6383C157.431 45.9042 158.929 45.6826 160.214 46.2498C161.18 46.6753 162.279 46.9589 163.006 47.7477C163.112 47.8629 163.192 47.7654 163.298 47.8008C163.573 47.9072 163.91 47.8717 163.733 48.3503C163.662 48.5365 163.83 48.9619 164.389 48.9176C164.823 48.8821 165.301 49.2455 165.683 48.7758C165.408 48.4212 164.752 48.6783 164.504 48.2351C165.443 47.9958 166.232 48.4922 167.083 48.5719C167.384 48.5985 167.561 48.9176 167.668 49.1835C167.81 49.538 168.075 49.5202 168.368 49.405C168.492 49.3607 168.59 49.2898 168.722 49.2544C169.813 48.9796 170.593 49.6443 171.514 49.9279C171.949 50.0609 172.135 50.6104 172.773 50.4243C173.243 50.2825 173.801 50.5483 174.315 50.3888C174.395 50.3622 174.483 50.3356 174.563 50.3179C174.714 51.0358 175.343 50.504 175.706 50.6724C175.813 50.7256 175.955 50.7079 176.07 50.7965C176.194 50.9029 176.052 51.1244 176.256 51.151C176.477 51.1776 176.362 50.9649 176.451 50.894C176.469 50.8763 176.584 50.9029 176.602 50.9294C176.814 51.4169 177.204 51.2308 177.594 51.1953C178.436 51.1333 178.764 51.3371 179.163 52.0905C179.278 52.3032 179.473 52.3475 179.757 52.3386C180.067 52.3209 180.067 52.1171 180.049 52.0107C179.978 51.6473 180.147 51.6296 180.466 51.6828C180.625 51.7094 180.803 51.6296 180.998 51.5942C181.122 51.86 180.856 52.1082 180.953 52.3829C181.343 52.3032 181.574 52.0993 181.636 51.7626C181.68 51.5233 181.777 51.541 181.919 51.6828C182.424 52.1437 183.373 52.4007 184.073 52.2057C184.419 52.1082 184.427 52.312 184.392 52.4627C184.339 52.6666 184.321 52.8527 184.41 53.0831C184.915 52.8704 185.464 52.7463 185.978 52.6577C186.36 52.5868 186.989 52.5691 187.272 53.0743C187.326 53.1717 187.521 53.3047 187.583 53.1629C187.742 52.8261 187.875 53.0388 188.079 53.092C188.956 53.3401 189.834 53.5972 190.782 53.5085C191.216 53.4731 191.642 53.5174 191.766 54.0226C191.801 54.1821 191.996 54.1201 192.112 54.1289C192.413 54.1378 192.732 54.0758 192.998 54.1555C193.388 54.2707 194.061 54.2707 193.68 54.9532C193.609 55.0773 193.654 55.3166 193.866 55.2279C194.239 55.0773 194.655 55.1127 195.01 54.9975C195.24 54.9177 195.267 54.9089 195.471 55.0507C196.056 55.4406 196.676 55.7065 197.491 55.4495C197.846 55.3343 198.36 55.6179 198.555 55.9281C198.723 56.2029 198.768 56.1763 198.954 55.999C199.441 55.5204 200.859 55.6534 201.143 56.2649C201.294 56.5751 201.462 56.5396 201.692 56.5396C202.561 56.5308 203.35 56.7435 204.085 57.1423C204.52 57.3816 204.91 57.6741 205.512 57.4614C205.743 57.3816 206.106 57.3728 206.443 57.5943C206.753 57.7893 207.276 57.7273 207.71 57.7627C208.012 57.7893 208.189 57.8691 208.091 58.2059C208.012 58.4983 208.162 58.7288 208.543 58.6845C209.323 58.587 210.068 58.7022 210.795 58.9238C211.14 59.0301 211.397 58.8174 211.725 58.8263C212.381 58.8529 213.01 59.0833 213.489 59.3669C214.065 59.7126 214.632 59.5973 215.191 59.7126C215.297 59.7391 215.492 59.7125 215.51 59.7569C215.643 60.1114 215.908 60.1823 216.307 60.2709C216.617 60.3329 216.688 60.1114 216.892 60.138C216.839 59.81 217.229 59.5707 217.087 59.234C216.91 58.8174 216.405 58.7288 216.095 58.4363C214.827 57.2487 213.143 57.0005 211.442 56.8055C210.759 56.7258 210.405 56.3978 210.156 55.8129C210.555 55.804 210.883 55.8926 211.22 55.8572C211.557 55.8217 211.699 56.061 211.796 56.3003C211.947 56.6726 212.292 56.8498 212.656 56.7346C213.294 56.5219 213.648 56.8942 214.092 57.1334C215.128 57.6829 216.006 58.4274 217.034 58.9769C217.14 59.039 217.149 59.1453 217.211 59.2251C217.69 59.3935 218.177 59.5885 218.638 59.7746C219.055 59.9518 219.347 60.4748 219.702 60.847C219.976 61.1217 220.118 61.4142 220.685 61.4142C220.951 61.4142 221.705 61.6092 221.714 62.2562C221.714 62.6639 222.05 62.8411 222.494 62.8411C223.132 62.8411 223.779 62.8589 224.417 62.85C224.647 62.8411 225.028 62.9741 225.028 62.6727C225.028 62.5043 224.541 62.398 224.355 62.4512C223.823 62.593 223.557 62.1144 223.468 61.9726C223.07 61.3876 221.935 60.7052 221.182 60.7938C221.075 60.8115 220.978 60.9002 220.916 60.7672C220.872 60.6697 220.978 60.6343 221.058 60.59C220.987 60.4836 220.951 60.3241 220.845 60.2886C220.296 60.0671 220.012 59.491 219.356 59.4112C219.179 59.3846 218.939 59.3846 218.984 59.101C219.019 58.8263 219.285 59.039 219.356 58.9326C219.56 58.6047 219.959 58.4806 220.225 58.2236C220.437 58.0197 220.623 57.9134 220.836 58.2679C221.049 58.6047 222.042 58.649 222.361 58.392C222.946 57.9045 223.149 57.9577 223.46 58.7022C223.539 58.4629 223.974 58.4452 223.717 58.1084C223.708 58.0906 223.787 58.0109 223.841 57.9843C223.929 57.94 224.027 57.9488 224.053 58.0552C224.346 58.9238 224.736 58.2502 225.019 58.0729C225.179 57.9754 225.276 57.9666 225.33 58.0729C225.702 58.7642 226.127 58.4186 226.553 58.1438C226.615 58.1084 226.686 58.0729 226.748 58.0375C226.65 57.8336 226.544 57.9045 226.437 57.9931C226.313 58.1084 226.18 58.1438 226.03 58.0197C226.207 57.9134 225.977 57.7007 226.136 57.612C226.774 57.2487 226.101 56.5928 226.526 56.1851C226.455 56.1408 226.349 56.0522 226.331 56.061C225.853 56.4421 225.206 55.804 224.745 56.2649C223.965 55.7774 222.768 56.5308 222.139 55.5559C222.024 55.3786 221.829 55.5293 221.66 55.5736C221.465 55.6268 221.403 55.8749 221.403 55.8749C221.944 56.2738 221.102 56.3535 221.173 56.6637C221.226 56.8498 221.049 56.7346 220.969 56.6992C220.783 56.6283 220.57 56.4687 220.428 56.5042C219.746 56.6903 219.551 56.2915 219.294 55.8749C219.126 55.6002 218.674 55.4406 218.443 55.5913C217.903 55.937 217.708 55.5913 217.424 55.3254C217.371 55.2811 217.247 55.3254 217.22 55.2279C217.521 55.1659 217.823 55.095 218.124 55.0329C218.177 54.8291 217.637 54.7671 217.965 54.4391C218.098 54.3062 217.752 54.3151 217.646 54.2796C217.158 54.1023 216.644 53.7833 216.13 54.2442C215.988 54.3771 215.882 54.2619 215.775 54.1998C215.359 53.9251 214.88 53.7567 214.446 53.4997C214.021 53.2426 213.374 52.9945 212.753 52.9679C212.399 52.9502 212.434 53.1895 212.434 53.3933C212.434 53.5085 212.337 53.6149 212.248 53.6149C212.151 53.6238 212.062 53.5263 212.044 53.4022C212.009 53.1186 211.415 52.7906 211.131 52.9324C210.759 53.1186 210.582 52.9768 210.36 52.7286C210.032 52.3652 209.696 51.993 209.075 52.3652C208.995 52.4184 208.774 52.3386 208.65 52.2766C208.331 52.1348 208.029 52.188 207.799 52.3829C207.382 52.7375 207.019 52.7641 206.709 52.3032C206.611 52.1614 206.496 52.0993 206.399 52.1614C206 52.4007 205.707 52.188 205.415 52.0107C204.865 51.6828 204.254 51.8335 203.731 51.9487C203.35 52.0284 203.208 51.8512 203.084 51.7094C202.809 51.3903 203.465 51.6119 203.367 51.3105C203.075 51.2928 202.765 51.2308 202.455 51.2574C202.003 51.2928 201.506 51.4701 201.551 50.7699C201.559 50.6636 201.356 50.6458 201.214 50.6192C200.886 50.5572 200.567 50.4774 200.257 50.3711C199.849 50.2293 199.583 50.247 199.645 50.7345C199.291 50.6901 199.282 50.4154 199.166 50.2381C199.087 50.1052 198.998 49.9988 198.812 49.9988C198.555 49.99 198.652 50.2027 198.573 50.309C198.44 50.4952 198.466 50.9472 197.988 50.5395C197.855 50.4243 197.518 50.4065 197.234 50.4597C196.871 50.5129 196.472 50.5838 196.135 50.3002C195.843 50.052 195.497 50.3002 195.178 50.3002C194.655 50.309 194.301 49.7241 193.716 50.0166C193.636 50.0609 193.547 49.8748 193.53 49.7418C193.503 49.5114 193.68 49.1391 193.397 49.0682C192.971 48.9619 192.502 48.7226 192.041 48.9619C191.722 49.1303 191.5 49.086 191.278 48.8289C191.199 48.7314 190.995 48.5896 190.986 48.5985C190.33 49.0948 189.577 48.0047 188.948 48.696C188.894 48.758 188.788 48.7935 188.717 48.7049C188.15 47.9958 187.459 48.3592 186.767 48.4922C186.377 48.5631 185.801 48.7226 185.748 48.1554C185.695 47.597 185.358 47.7565 185.03 47.7743C184.809 47.792 184.614 47.7299 184.392 47.6413C183.78 47.3843 183.116 47.1804 182.416 47.3577C181.99 47.4641 181.609 47.5793 181.255 47.2248C181.175 47.1539 181.095 46.9589 180.882 47.1095C180.546 47.3488 180.271 47.4286 180.368 46.8702C180.386 46.7816 180.297 46.6575 180.102 46.693C179.526 46.8082 179.119 46.3385 178.551 46.303C178.339 46.2853 177.966 45.9485 177.931 45.594C177.913 45.4433 177.86 45.3636 177.683 45.3813C177.514 45.399 177.568 45.4876 177.55 45.594C177.497 45.8333 177.275 45.9131 177.036 45.8333C176.602 45.7003 176.469 45.8244 176.54 46.2144C176.619 46.6132 176.229 46.6575 176.043 46.5423C175.582 46.2321 174.829 46.3296 174.607 45.7003C174.554 45.5585 174.386 45.6029 174.253 45.6383C173.313 45.8953 172.33 45.9485 171.372 45.9131C170.77 45.8865 170.141 45.6826 169.609 45.2483C169.192 44.9116 168.634 44.6014 167.951 44.6634C166.941 44.7609 165.922 44.8229 164.903 44.9027C164.752 44.9115 164.539 44.8052 164.566 44.7786C164.752 44.5748 164.592 44.3621 164.646 44.1671C164.725 43.8657 165.036 43.5998 164.885 43.2808C164.779 43.0681 164.77 42.944 164.991 42.8288C165.23 42.7136 165.443 42.7224 165.594 42.9617C165.753 43.201 165.824 43.2808 165.94 42.9085C166.09 42.4388 166.737 42.4034 167.083 42.7845C167.446 43.1744 167.845 42.749 168.253 42.8111C169.148 42.944 170.114 42.7401 170.947 43.1744C171.24 43.3251 171.461 43.0947 171.762 43.2099C172.649 43.5467 173.588 43.7239 174.563 43.7594C174.643 43.7594 174.776 43.8037 174.794 43.848C175.104 44.7609 176.105 44.5304 176.797 44.8229C176.885 44.8584 177.027 44.8761 177.107 44.947C177.355 45.1774 177.585 45.1863 177.887 44.9913C178.356 44.6811 178.808 45.2306 178.8 45.3015C178.729 45.789 178.933 46.0194 179.438 46.1346C179.854 46.2321 180.244 46.1701 180.661 46.1258C181.157 46.0726 181.653 45.9308 182.221 46.0637C182.735 46.1789 183.337 46.4891 183.922 46.1612C184.064 46.0815 184.259 46.0283 184.357 46.2498C184.481 46.5157 184.667 46.4448 184.826 46.303C185.074 46.0814 184.72 46.0637 184.649 45.9574C184.463 45.6649 184.162 45.5054 183.834 45.3458C183.586 45.2217 183.169 45.1774 183.231 44.7432C183.24 44.6545 183.063 44.3621 182.885 44.3975C182.699 44.433 182.487 44.5748 182.504 44.8318C182.513 45.0445 182.549 45.2838 182.176 45.2838C181.831 45.2838 181.902 45.1065 181.964 44.9116C182.017 44.7343 181.84 44.8052 181.76 44.7963C181.104 44.6811 180.448 44.6102 179.792 44.7875C179.65 44.8229 179.535 45.009 179.447 44.7343C179.314 44.3 179.065 44.1848 178.613 44.2911C178.268 44.3709 178.091 44.0696 177.816 43.9721C177.585 43.8923 177.763 43.5289 177.878 43.458C178.41 43.1124 177.834 43.1744 177.718 43.0947C177.656 43.0504 177.514 43.0592 177.426 43.0858C177.249 43.1478 177.151 43.0238 177.027 42.9617C177.151 42.8731 177.195 42.6692 177.435 42.7401C177.754 42.8288 178.002 42.7401 178.17 42.359C178.25 42.7667 178.578 42.9883 178.392 43.3517C178.321 43.4935 178.41 43.6442 178.693 43.5733C179.154 43.4669 179.517 43.6707 179.872 43.9189C180.271 44.1937 181.095 44.1228 181.37 43.7771C181.565 43.5289 181.848 43.5644 182.043 43.6353C182.513 43.8214 182.974 44.0164 183.479 44.0696C183.781 44.0962 183.843 44.2734 183.86 44.5039C184.224 44.0607 184.844 43.9189 185.376 44.1671C185.642 44.2911 185.916 44.4064 186.218 44.3177C186.741 44.1582 187.175 44.2646 187.583 44.5836C188.194 45.0622 188.921 44.7875 189.595 44.7963C190.153 44.8052 190.596 45.0268 190.995 45.337C191.11 45.4256 191.154 45.532 190.951 45.6117C190.702 45.7092 190.428 45.7801 190.233 45.9751C190.126 46.0726 189.905 46.0549 189.922 45.9219C189.958 45.656 189.781 45.6826 189.665 45.7535C189.515 45.851 189.55 46.0194 189.701 46.1169C189.878 46.2321 190.082 46.2942 190.312 46.2498C190.578 46.2055 190.871 46.1169 191.11 46.1878C191.314 46.241 191.589 46.4891 191.686 46.2676C191.801 46.0194 191.367 45.9485 191.19 45.8067C191.819 45.3547 192.218 45.6294 192.431 46.1878C192.572 46.5689 193.024 46.56 193.255 46.8259C193.326 46.8968 193.671 46.7373 193.592 46.4714C193.556 46.3385 193.476 46.2144 193.423 46.0903C194.203 45.7181 194.797 46.1524 195.329 46.4803C195.71 46.7196 195.923 46.6575 196.18 46.436C196.756 45.9574 197.332 46.0726 197.527 46.7284C197.615 47.0298 197.917 47.207 198.121 47.3754C198.475 47.659 198.484 47.0918 198.741 47.0209C198.573 46.6841 198.954 46.6753 199.078 46.693C199.955 46.7639 200.842 46.7905 201.71 47.0032C202.082 47.0918 202.118 47.3666 202.33 47.5172C202.853 47.8895 203.465 47.9426 204.05 48.0401C204.617 48.1376 205.167 48.439 205.654 48.4744C206.576 48.5453 207.258 49.2278 208.198 49.086C208.277 49.0771 208.428 49.1037 208.446 49.1391C208.623 49.5911 209.093 49.6177 209.492 49.6532C210.148 49.7152 210.768 49.8127 211.247 50.2736C211.3 50.3179 211.424 50.3268 211.504 50.3179C211.796 50.2736 212.097 50.1141 211.858 50.637C211.769 50.8231 212.283 50.9029 212.541 51.0358C212.691 50.7522 212.283 50.4863 212.523 50.2204C212.611 50.1229 212.611 49.9191 212.842 49.9722C212.922 49.99 213.046 50.0432 213.055 50.0875C213.099 50.2913 212.86 50.1495 212.806 50.2381C212.78 50.2824 212.762 50.3534 212.78 50.3977C212.798 50.4508 212.895 50.5306 212.913 50.5217C213.294 50.3268 213.613 50.8231 213.994 50.5927L214.021 50.5483L213.976 50.5749C214.109 51.2308 214.765 51.1067 215.146 51.0447C215.935 50.9117 216.742 51.0624 217.521 50.8763C217.743 50.8231 218.027 51.1156 218.151 51.1244C218.709 51.1776 219.028 51.6916 219.613 51.6828C220.163 51.6828 220.553 51.9664 220.685 52.4627C220.863 53.1186 221.59 53.5085 222.281 53.3047C222.325 53.287 222.352 53.2515 222.396 53.2515C222.751 53.1806 223.141 52.8084 223.433 53.1008C223.672 53.349 223.548 53.7921 223.46 54.1378C223.344 54.643 223.805 55.1039 224.381 55.0241C224.789 54.962 225.161 54.9177 225.587 55.0684C226.11 55.2545 226.641 54.7405 226.5 54.2442C226.446 54.0758 226.446 53.934 226.517 53.7035C226.898 54.1201 227.262 54.2707 227.678 53.7833C227.794 53.6503 228.139 53.6592 228.352 53.7744C228.618 53.9162 228.511 54.0403 228.299 54.1733C228.228 54.2176 228.343 54.3062 228.405 54.3416C228.503 54.3948 228.573 54.3594 228.618 54.2707C228.768 53.9251 229.079 53.8631 229.451 53.8896C229.637 53.9074 229.947 53.9517 229.921 53.6947C229.885 53.4199 229.451 53.7656 229.344 53.4908C229.291 53.5528 229.256 53.7212 229.132 53.5706C229.087 53.5174 229.15 53.3047 229.3 53.2958C229.566 53.2692 229.823 53.2426 230.045 52.9856C229.61 52.8704 229.22 52.7375 228.813 52.835C228.565 52.897 228.378 52.9856 228.175 52.7286C228.042 52.5602 227.776 52.7552 227.731 52.835C227.377 53.3933 226.898 52.959 226.757 52.8084C226.464 52.4893 226.145 52.4361 225.826 52.5691C225.498 52.6931 225.374 52.5159 225.285 52.3652C225.117 52.0728 225.489 52.2146 225.578 52.1171C226.012 51.6119 226.632 51.9398 227.147 51.8955C227.944 51.8246 228.742 51.86 229.513 51.6296C229.752 51.5587 230.089 51.6207 230.337 51.7182C230.727 51.8689 230.319 52.1348 230.373 52.3209C230.479 52.6577 230.124 53.154 230.771 53.3313C231.037 53.4022 231.073 53.7833 231.028 53.8365C230.683 54.253 231.206 54.2442 231.321 54.253C231.959 54.3062 232.491 54.7227 233.164 54.643C233.333 54.6164 233.563 54.705 233.625 54.5278C233.678 54.3594 233.537 54.1998 233.324 54.1467C233.244 54.1201 233.156 54.0669 233.076 54.0669C232.287 54.1201 231.773 53.6238 231.161 53.3224C231.02 53.2515 230.913 53.2161 231.073 53.0743C231.25 52.9236 231.968 53.1186 232.163 53.2161C232.455 53.349 232.828 53.5617 233.156 53.411C233.395 53.3047 233.608 53.287 233.856 53.2515C233.989 53.2338 234.308 53.3401 234.175 53.0034C234.166 52.9856 234.272 52.9324 234.325 52.897C234.538 53.6592 235.105 52.8172 235.442 53.092C235.664 53.2692 235.912 53.4376 236.196 53.5351C236.382 53.5972 236.648 53.6503 236.701 53.5351C236.958 52.9856 237.357 53.2338 237.711 53.3667C237.915 53.4376 238.074 53.411 238.199 53.3136C239.058 52.6666 239.962 52.0462 240.388 51.0535C240.414 50.9915 240.529 50.9649 240.6 50.9117C240.6 50.8674 240.6 50.832 240.6 50.7876C240.512 50.6192 240.476 50.4597 240.609 50.2913C240.618 49.148 240.627 47.9958 240.636 46.8525C240.326 46.5778 240.228 46.1789 239.936 45.8776C239.643 45.5674 239.43 45.2661 238.881 45.399C238.588 45.4699 238.473 45.1952 238.349 45.0002C238.11 44.6191 237.835 44.2646 237.25 44.2911C236.975 44.3089 236.843 44.1316 236.763 43.9278C236.656 43.653 236.47 43.4137 236.364 43.1478C236.187 42.6958 235.868 42.4743 235.336 42.5186C235.105 42.5363 234.937 42.4743 234.804 42.3147C234.432 41.8982 233.909 41.6943 233.342 41.5614C232.854 41.4462 232.402 41.2335 231.941 41.0651C230.293 40.489 228.689 39.8154 226.96 39.4254C226.305 39.2748 225.728 38.8937 225.037 38.8139C223.796 38.6632 222.742 37.9631 221.474 37.8833C221.217 37.8656 221.005 37.7238 220.765 37.6617C220.455 37.5731 220.101 37.5554 219.906 37.839C219.711 38.1315 219.976 38.2998 220.216 38.4948C220.446 38.681 220.659 38.8316 220.978 38.8582C221.137 38.8759 221.288 38.9468 221.386 39.0709C221.474 39.195 221.519 39.3457 221.457 39.4786C221.359 39.6647 221.191 39.5406 221.04 39.5229C220.251 39.4432 219.959 39.0089 219.906 38.3442C219.87 37.9099 219.932 37.449 219.081 37.4402C218.656 37.4402 218.124 37.1211 217.663 36.8995C217.211 36.6868 216.715 36.6336 216.254 36.4741C214.588 35.9069 212.824 35.6764 211.14 35.2067C208.871 34.5597 206.523 34.2229 204.254 33.5582C203.412 33.3101 202.543 33.1239 201.701 32.8669C201.187 32.7074 200.682 32.4769 200.115 32.734C199.938 32.8137 199.76 32.7162 199.636 32.5833C199.228 32.149 198.741 32.0604 198.103 31.9895C197.323 31.9097 196.508 31.7236 195.737 31.4577C194.203 30.9259 192.555 30.7575 190.977 30.3676C189.967 30.1194 188.921 29.9865 187.955 29.6054C187.787 29.5345 187.592 29.499 187.414 29.5433C186.599 29.7826 185.828 29.4193 185.11 29.2509C184.454 29.1091 183.772 28.8875 183.116 28.657C182.105 28.3025 181.077 28.0898 179.978 28.081C179.003 28.0721 178.082 27.7264 177.133 27.5846C175.511 27.3365 173.96 26.9111 172.392 26.4768C171.177 26.1489 169.919 25.9361 168.678 25.6614C166.197 25.103 163.697 24.589 161.189 24.2522C159.399 24.0129 157.67 23.552 155.88 23.3393C154.914 23.2241 154.01 22.781 153.035 22.7278C152.06 22.6746 151.13 22.4353 150.164 22.3821C149.242 22.329 148.435 21.9035 147.531 21.7795C146.45 21.6288 145.395 21.3186 144.314 21.2122C142.533 21.035 140.796 20.6893 139.28 20.3703C140.175 20.3259 141.292 20.4766 142.4 20.5121C142.63 20.5209 142.807 20.4412 142.905 20.255C143.064 19.9537 142.595 18.899 142.222 18.8104C141.23 18.5622 140.255 18.2786 139.209 18.2786C138.979 18.2786 138.748 18.2875 138.536 18.385C137.773 18.704 136.985 18.5977 136.196 18.4825C135.274 18.3407 134.335 18.447 133.413 18.2963C133.076 18.2432 132.828 18.4293 132.908 18.7838C133.005 19.156 132.819 19.2181 132.473 19.1649C131.844 19.0763 131.224 18.9699 130.603 18.837C129.416 18.58 128.255 18.1368 126.987 18.2698C126.801 18.2875 126.615 18.252 126.447 18.19C124.851 17.5607 123.114 17.543 121.421 17.3392C120.021 17.1708 118.727 16.7453 117.406 16.3642C116.609 16.1338 115.82 15.8679 114.951 15.9743C114.677 16.0097 114.402 15.9743 114.145 15.8591C113.702 15.6463 113.197 15.7261 112.762 15.6198C111.787 15.3893 110.742 15.5577 109.829 15.2652C108.171 14.7335 106.443 14.4587 104.795 13.9092C104.422 13.7851 104.032 13.6611 103.855 13.3331C103.527 12.7305 102.969 12.6418 102.322 12.695C102.074 12.7836 101.834 12.8723 101.604 12.9964C101.772 12.7659 102.056 12.8102 102.286 12.7216C102.49 12.5709 102.676 12.7305 102.871 12.7305C103.217 12.7393 103.421 12.5621 103.572 12.3139C103.731 12.048 103.607 11.8442 103.368 11.6669C103.075 11.4454 102.756 11.2504 102.481 10.9933C102.366 10.887 102.207 10.8161 102.056 10.825C100.718 10.9579 99.3439 10.8072 98.0411 11.2326C97.6068 11.3833 97.4827 11.729 97.7752 12.048C97.9702 12.2607 98.2449 12.3671 98.7412 12.4291C98.7678 12.4734 98.7412 12.5178 98.6881 12.4912C97.6245 11.9948 96.3837 12.2785 95.3025 11.8708C95.2493 11.8442 95.1872 11.8265 95.1252 11.8087C94.9213 11.7556 94.6821 11.7201 94.5668 11.5872C94.0173 10.9579 93.2463 11.1086 92.5816 11.1972C91.7218 11.3124 90.9508 11.1263 90.162 10.9313C89.3821 10.7363 88.6464 10.3109 87.7867 10.63C87.6361 10.6831 87.4854 10.5945 87.3436 10.5147C85.9787 9.79686 84.4543 9.41575 83.0097 8.86626C81.6891 8.36993 81.3877 7.89134 81.5739 6.61509C81.6182 6.28716 81.6891 5.9681 81.5384 5.64903C81.3434 5.23248 81.6093 5.08181 81.9816 4.99318C83.2224 4.71843 83.5769 4.85137 84.3214 5.81743C84.7202 6.34034 84.8886 6.3492 85.5799 6.13649C86.3244 5.90606 87.0688 5.61358 87.902 5.71107C88.2122 5.74652 88.4869 5.60472 88.7528 5.49836C89.2314 5.30338 89.2934 5.06408 88.9566 4.70071C88.8326 4.5589 88.6021 4.44368 88.7617 4.23984C88.9035 4.05372 89.125 4.09803 89.3112 4.20439C89.6036 4.37278 89.8784 4.29301 90.1531 4.16893C90.2063 4.14234 90.2595 4.10689 90.3038 4.06258C90.4456 3.90305 90.5697 3.71693 90.809 3.67261C91.2167 3.59285 91.456 3.41559 91.4737 3.01676C91.4914 2.75087 91.7219 2.6977 91.97 2.72429C92.1295 2.74201 92.3334 2.7686 92.4132 2.87495C92.9095 3.49536 93.8135 3.56626 94.3896 4.10689C94.753 4.45255 95.2847 4.68298 95.781 4.8691C96.4989 5.15271 97.0839 4.71843 97.0839 3.99168C97.0839 3.15857 97.0839 3.15857 96.623 2.93699C96.9864 3.0079 97.3586 2.97245 97.7043 3.06994C98.0677 3.17629 98.431 3.10539 98.7944 3.06994C99.0692 3.04335 99.2819 3.18515 99.4325 3.37127C99.6275 3.6283 99.9643 3.6992 100.212 3.67261C101.4 3.51308 102.623 3.72579 103.784 3.37127C104.05 3.29151 104.227 3.44218 104.351 3.61944C104.573 3.91191 104.857 4.00054 105.238 3.92077C105.504 3.8676 105.805 3.87646 105.902 3.58398C106 3.29151 105.805 3.12311 105.575 2.97245C105.521 2.93699 105.486 2.87495 105.504 2.79519C105.663 2.62679 105.902 2.63566 106.044 2.75087C106.399 3.03449 106.904 3.22947 107.108 3.59285C107.586 4.45255 108.544 4.67412 109.377 5.04636C110.024 5.32997 110.449 5.15271 110.547 4.73616C110.653 4.27529 110.183 3.66375 109.669 3.57512C109.448 3.53967 109.058 3.76124 109.049 3.41559C109.04 3.09653 109.448 3.27378 109.66 3.22061C109.962 3.1497 110.121 2.98131 110.192 2.71542C110.263 2.44954 110.467 2.34318 110.759 2.41408C111.034 2.48499 111.158 2.67997 111.149 2.92813C111.149 3.92964 111.309 4.09803 112.496 4.27529C112.638 4.30188 112.665 4.39937 112.753 4.45255C112.957 4.59435 113.17 4.6298 113.374 4.47027C113.569 4.31074 113.569 4.12462 113.471 3.91191C113.294 3.52194 112.94 3.22061 112.736 2.78633C113.161 2.74201 113.392 2.90154 113.569 3.16743C113.799 3.53081 114.127 3.63716 114.553 3.44218C114.836 3.3181 115.058 3.39786 115.324 3.51308C115.909 3.7701 116.494 4.09803 117.194 3.82328C117.336 3.7701 117.531 3.7701 117.672 3.82328C118.594 4.14234 119.631 4.16007 120.464 4.70957C121.031 5.09067 121.864 4.77161 121.909 4.18666C121.971 3.53967 122.316 3.24719 123.061 3.30923C123.415 3.33582 123.726 3.34469 124.036 3.1497C124.275 2.99017 124.577 3.08766 124.834 3.15857C125.729 3.40673 126.562 3.33582 127.368 2.88382C127.696 2.6977 128.06 2.8395 128.343 2.98131C129.123 3.36241 129.903 3.72579 130.763 3.96509C131.41 4.14234 131.897 4.55004 132.252 5.09067C132.739 5.84402 133.51 6.19853 134.459 6.26057C134.822 6.28716 135.15 6.20739 135.274 5.84402C135.389 5.50723 135.194 5.28566 134.866 5.15271C134.255 4.89569 134.033 4.35505 133.723 3.88532C133.448 3.46877 133.165 3.08766 132.589 2.91927C133.413 2.95472 134.157 3.10539 134.875 3.38014C135.026 3.43332 135.203 3.4599 135.345 3.40673C135.859 3.20288 136.364 3.23833 136.878 3.37127C137.259 3.46877 137.499 3.33582 137.569 2.98131C137.623 2.91927 137.658 2.84837 137.711 2.78633C137.658 2.84837 137.623 2.91927 137.569 2.99017C137.756 3.38014 138.642 3.90305 139.103 3.77897C139.581 3.64602 140.157 3.64602 140.485 3.19402C140.698 2.91041 140.955 2.92813 141.15 3.17629C141.806 3.96509 142.657 4.00054 143.596 3.73465C143.8 3.68148 144.004 3.69034 144.199 3.76124C144.642 3.92964 145.112 4.02713 145.582 4.11576C146.025 4.20438 146.37 4.36392 146.672 4.69184C147.07 5.12612 147.593 5.02863 147.859 4.52345C148.116 4.03599 148.604 3.75238 149.215 3.83214C149.862 3.92077 150.483 3.91191 151.112 3.75238C151.635 3.61944 152.087 3.70806 152.495 4.06258C152.902 4.41709 153.381 4.57663 153.913 4.22211C154.054 4.12462 154.241 4.05372 154.427 4.07144C155.003 4.13348 155.41 3.92964 155.809 3.56626C156.226 3.18515 157.13 3.3181 157.529 3.74352C158.273 4.51459 159.133 4.69184 160.196 4.47027C161.038 4.29301 161.614 3.7701 162.315 3.41559C162.527 3.30923 162.634 3.11425 162.545 2.88382C162.456 2.65338 162.253 2.55589 161.978 2.51158C160.205 2.23683 158.415 2.21024 156.642 2.26342C155.712 2.29 154.905 2.05957 154.072 1.838C153.532 1.69619 153 1.60756 152.459 1.80255C151.91 2.00639 151.325 1.95322 150.766 1.93549C149.543 1.89118 148.302 2.05071 147.097 1.68733C146.645 1.55439 146.14 1.68733 145.661 1.67847C144.181 1.65188 142.719 1.48348 141.265 1.26191C140.982 1.2176 140.725 1.23532 140.468 1.35054C140.282 1.43031 140.087 1.58098 139.9 1.55439C138.952 1.40372 137.951 1.58984 137.073 1.42144C136.205 1.25305 135.425 1.27964 134.6 1.35054C134.397 1.36827 134.184 1.41258 133.989 1.35054C133.129 1.05807 132.216 1.15556 131.357 1.03148C130.204 0.863082 129.061 1.27077 127.953 0.907397C125.755 1.18215 123.566 0.79218 121.368 0.871945C119.675 0.933985 117.965 0.925123 116.263 0.765591C116.104 0.747865 115.944 0.765591 115.802 0.676962C114.845 0.668099 113.879 0.659236 112.922 0.659236C112.284 0.739002 111.646 0.818768 110.999 0.641511C110.086 0.632648 109.173 0.632648 108.26 0.623785C108.03 0.721277 107.799 0.721277 107.569 0.614922C105.734 0.597196 103.908 0.579471 102.083 0.570608C100.709 0.756728 99.3351 0.774454 97.9702 0.535156C97.8372 0.535156 97.6954 0.535156 97.5625 0.535156C96.5255 0.889671 95.462 0.597196 94.425 0.579471C93.7426 0.570608 93.0779 0.668099 92.4043 0.685825C91.8725 0.694688 91.3673 0.712414 90.8356 0.641511C90.029 0.535156 89.2137 0.579471 88.4071 0.676962C88.2919 0.685825 88.1944 0.712414 88.0792 0.703551C86.7321 0.561745 85.3938 0.588333 84.0821 0.925123C83.9491 0.960574 83.8073 0.987163 83.6744 0.969437C82.5576 0.827631 81.6093 1.34168 80.599 1.58097C80.3331 1.64302 80.1026 1.74937 79.8102 1.69619C79.2518 1.58984 78.6757 1.65188 78.1173 1.62529C76.6461 1.54552 75.6092 2.37863 74.3772 2.81291C73.0478 3.28265 72.3919 4.38164 71.3727 5.14385C70.8941 5.49836 70.8675 6.05673 71.0891 6.57077C71.2575 6.96074 71.2752 7.32412 71.1157 7.70522C71.0093 8.29017 71.0536 8.78649 71.612 9.17646C71.8867 9.36258 71.869 9.59301 71.7627 9.88549C71.4968 10.6477 72.3742 11.5163 73.2782 11.339C73.2073 11.9239 73.4821 12.2076 74.1645 12.2164C74.7317 12.2253 75.0242 12.6507 75.2458 13.0584C75.3787 13.3066 75.4851 13.537 75.6623 13.6079C75.4496 13.5015 75.1217 13.3597 74.8026 13.2002C74.5633 13.0761 74.3329 13.0495 74.1025 13.2091C73.8898 13.3597 73.9163 13.5724 73.9518 13.7674C74.0847 14.4942 74.7672 15.0969 75.6003 15.2387C75.8928 15.283 76.8411 16.2845 76.8411 16.5504C76.8411 16.7808 76.6638 16.8606 76.4777 16.8074C75.8928 16.6656 75.2281 16.8783 74.714 16.4263C74.5456 16.2845 74.2709 16.3377 74.0493 16.3642C73.6416 16.4174 73.2428 16.4351 72.8439 16.2933C72.5603 16.1958 72.2767 16.2845 72.1438 16.5326C71.9842 16.8251 72.2235 16.9846 72.4806 17.1087C72.5603 17.1442 72.6401 17.1796 72.7199 17.2328C73.3846 17.6405 73.3668 17.8 72.7287 18.2343C72.2501 18.5622 71.7095 18.7838 71.222 19.0674C70.8498 19.289 70.5041 19.3422 70.061 19.1915C69.4938 19.0054 69.1836 19.289 69.3077 19.8296C69.3431 19.9892 69.4938 20.1576 69.3254 20.2905C69.1215 20.4589 68.8645 20.3614 68.6872 20.255C68.2707 20.0069 67.7921 19.8739 67.4464 19.5194C66.9678 19.032 66.2588 19.1472 65.6473 19.1383C65.3194 19.1383 64.9648 19.289 64.6015 19.3422C64.2204 19.3953 64.052 19.6878 64.0431 20.0246C64.0342 20.2994 64.1938 20.5741 64.4774 20.5652C65.0623 20.5564 65.3991 20.8932 65.7714 21.1768C66.25 21.549 66.7197 21.7263 67.2869 21.3363C67.3844 21.2654 67.5351 21.2122 67.7035 21.3452C67.5439 21.682 67.3135 22.1251 67.801 22.3555C68.3327 22.6126 68.9443 22.8696 69.5558 22.5771C69.9192 22.4087 70.2383 22.2758 70.6459 22.3467C70.7789 22.3644 70.9296 22.3378 71.0448 22.2669C71.5854 21.9213 71.9311 22.1428 72.2058 22.5771C72.3653 22.8253 72.5426 23.0646 72.6933 23.3216C72.9769 23.7736 73.2871 24.1015 73.9784 24.1724C74.6077 24.2345 75.1217 24.7308 75.6712 25.0587C75.8041 25.1296 75.875 25.298 75.7775 25.4398C75.6801 25.5816 75.5205 25.4398 75.4053 25.4664C74.6165 25.6703 73.8454 25.4664 73.0655 25.431C72.7642 25.4132 72.5426 25.5462 72.4274 25.8032C72.3122 26.0691 72.516 26.2463 72.7021 26.3793C73.0478 26.6274 73.3225 26.9111 73.5884 27.2213C73.8986 27.5846 74.2974 27.7442 74.776 27.4162C74.9001 27.3276 75.0331 27.2035 75.1926 27.3188C75.3255 27.4162 75.2369 27.5403 75.1837 27.6555C75.0065 28.0721 75.1837 28.4 75.556 28.6127C75.9725 28.8609 76.4423 28.9672 76.8677 28.5861C76.9031 28.533 76.9209 28.4798 76.9297 28.4177C76.8588 28.143 76.9652 27.886 77.2665 27.8682C78.0908 27.8151 78.8795 27.4783 79.757 27.7973C80.3419 28.0101 80.8826 28.2494 81.3168 28.6393C81.6182 28.9141 81.9107 28.9584 82.3006 28.8698C83.1426 28.6748 84.3834 29.047 84.9152 29.6497C85.1367 29.889 85.3672 29.9865 85.6862 29.8801C86.0053 29.7649 86.0939 29.5256 86.0939 29.2331C86.0939 29.0559 85.9078 28.7634 86.2712 28.7368C86.5371 28.7191 86.6257 28.9761 86.6434 29.1888C86.6612 29.4902 86.8118 29.6763 87.0954 29.8269C87.5209 30.0485 87.6981 30.4296 87.8842 30.8019C88.0083 31.05 88.1147 31.3425 88.4958 31.2627C88.8769 31.183 88.806 30.8639 88.8148 30.6069C88.8148 30.5271 88.806 30.4385 88.806 30.3055C89.5682 31.1298 90.5608 31.6881 91.1901 32.5744C91.3407 32.796 91.5623 32.991 91.8105 33.1417C92.0321 33.2835 92.2891 33.443 92.555 33.2214C92.7765 33.0353 92.6968 32.8049 92.5727 32.601C92.4929 32.4769 92.3954 32.3617 92.36 32.2199C92.3068 31.9452 92.3954 31.7768 92.7322 31.7679C92.7765 31.7679 92.8297 31.759 92.8652 31.7679C94.0351 32.2376 95.462 31.8477 96.5255 32.7074C96.8269 32.9555 97.3055 33.0264 97.7043 32.858C98.8565 32.3794 99.9377 32.8137 101.028 33.053C101.471 33.1505 101.879 33.3101 102.357 33.3101C102.712 33.3101 103.093 33.3721 103.368 33.638C103.58 33.8418 103.873 33.8152 104.13 33.8596C104.36 33.9039 104.635 33.9305 104.573 34.2141C104.52 34.4534 104.263 34.48 104.015 34.4711C103.846 34.4622 103.704 34.3204 103.572 34.3381C102.774 34.409 102.047 34.3736 101.515 33.7C101.409 33.5671 101.072 33.6203 100.948 33.7621C100.478 34.3293 99.8048 34.2495 99.1489 34.2672C98.4488 34.285 98.2095 34.6218 98.4222 35.2422C98.0411 34.604 97.7132 34.4888 97.0573 34.7901C96.9953 34.8167 96.9421 34.8876 96.88 34.8788C95.7545 34.8167 94.6112 35.0383 93.5122 34.7636C92.9538 34.6218 92.4663 34.4622 91.97 34.8167C91.775 34.9585 91.5357 34.9142 91.3142 34.9585C90.7735 35.056 90.5342 35.5346 90.871 35.9512C91.1989 36.3589 91.5269 36.8109 92.227 36.7488C92.3954 36.7311 92.5727 36.8641 92.7588 36.7932C92.9715 36.6602 93.1931 36.6336 93.459 36.6336C94.1237 36.6336 94.7441 36.8375 95.5329 36.7666C95.2493 36.9438 95.0454 36.9084 94.9036 37.0147C94.5402 37.2983 94.1414 37.3427 93.6983 37.1654C93.5122 37.0945 93.2994 37.0768 93.1045 37.1743C92.4752 37.4667 91.9612 37.3427 91.5446 36.7932C91.0571 36.1639 90.5697 36.1639 90.1354 36.7932C89.6834 37.4579 88.4869 37.582 87.6627 36.9527C88.3983 36.9704 89.0098 36.8641 89.6125 36.6248C90.1974 36.4032 90.3215 36.288 90.2152 35.6587C90.1974 35.6055 90.162 35.5524 90.1177 35.508C89.2846 34.9054 88.3008 34.932 87.3347 35.0649C86.8561 35.1269 86.4307 35.1269 86.0319 34.8611C85.0924 34.2229 84.0289 34.4888 83.0008 34.5331C82.726 34.542 82.4602 34.6749 82.4158 34.9674C82.3715 35.2599 82.6729 35.3219 82.8678 35.446C82.9653 35.5169 83.1337 35.5258 83.1249 35.8094C82.6108 35.0472 81.8663 35.0117 81.0864 35.0649C80.5192 35.1004 79.952 34.7281 79.3759 35.1269C79.2961 35.189 79.0125 34.994 78.8441 34.8965C78.4275 34.6572 77.9844 34.6306 77.5324 34.6838C76.46 34.7901 75.3964 34.8256 74.324 35.0738C73.4643 35.2687 72.4274 35.4371 71.5322 34.9054C71.3018 34.7724 71.0625 34.7724 70.8143 34.8433C70.3801 34.9674 69.9635 35.0915 69.5381 34.7547C69.3431 34.5952 69.0506 34.6838 68.8645 34.8699C68.6961 35.0383 68.6784 35.2156 68.7936 35.4283C69.0595 35.9335 69.4051 36.3323 70.0787 36.3943C70.2383 36.4121 70.4066 36.4652 70.5041 36.5805C70.8764 37.0502 71.2752 37.059 71.8602 36.8375C72.8351 36.4741 73.5352 36.6336 73.9784 37.1477C74.2531 37.4756 74.324 37.8035 74.1379 38.2378C73.5175 37.5111 72.7021 37.839 71.9399 37.8833C71.6918 37.901 71.4347 38.0251 71.222 37.8833C70.6194 37.4845 69.9635 37.6085 69.3165 37.7149C68.6429 37.8301 68.0048 37.8035 67.3667 37.5997C67.3046 37.5997 67.2337 37.6085 67.1717 37.6174C66.9767 37.6351 66.7463 37.7592 66.5956 37.5731C66.2145 37.0856 65.8423 37.2452 65.4523 37.5554C65.3371 37.644 65.213 37.7504 65.0358 37.7149C65.018 37.6972 64.9914 37.6794 64.9914 37.6617C65.018 37.2629 65.0623 36.8197 64.4951 36.7223C64.0077 36.6336 63.6177 36.8463 63.3695 37.2452C63.0771 37.7149 62.6073 37.8833 62.0401 37.8213C61.4729 37.7592 60.9145 37.6617 60.3473 37.7149C60.1346 37.7326 59.8864 37.6794 59.7623 37.4224C60.5157 37.2363 61.2602 37.0679 62.0401 37.1388C62.6428 37.2009 63.1657 37.0413 63.6443 36.7311C63.9988 36.5007 64.2824 36.5539 64.7078 36.6779C65.4257 36.8995 66.1347 37.4047 66.9856 36.9438C67.473 36.6868 67.4553 36.3234 67.3844 35.9335C67.3135 35.5524 67.0122 35.446 66.5956 35.4017C65.9132 35.3308 65.2396 35.3042 64.5572 35.2865C64.3001 35.2776 64.0342 35.2599 63.8304 35.1269C63.4227 34.8611 62.9973 34.8345 62.5276 34.9674C62.2971 35.0294 62.0667 34.9851 61.8628 34.8965C61.3399 34.6661 60.7993 34.737 60.3562 34.9763C59.8687 35.2333 59.3812 35.2067 58.9204 35.0826C58.1316 34.8699 57.396 34.7813 56.5983 35.1092C56.1817 35.2776 55.6943 35.3219 55.198 35.2067C54.5244 35.0649 54.0635 35.4106 53.7179 35.8803C53.4874 36.1905 53.6735 36.6957 54.0724 36.7843C54.4889 36.8818 54.7814 37.0945 55.1005 37.3427C55.6234 37.7415 56.2172 37.8478 56.873 37.5022C57.3516 37.2452 57.848 37.1831 58.2557 37.6529C58.3266 37.6972 58.4152 37.7238 58.5038 37.706C58.4152 37.7238 58.3354 37.6883 58.2557 37.6529C57.9632 37.3781 57.6973 37.2452 57.2541 37.5111C56.9351 37.706 56.4919 37.8301 56.0842 37.7858C55.5082 37.7238 54.9409 37.839 54.4889 38.0606C53.6913 38.4505 52.9557 38.1935 52.1757 38.1403C51.4578 38.0871 50.7577 37.9453 50.0486 37.8656C49.508 37.8124 49.3751 37.6706 49.6321 37.254C49.9068 36.802 49.6587 36.5007 49.4016 36.1462C49.1446 35.7917 48.8256 35.7296 48.4001 35.7828C47.0707 35.9335 45.7413 35.9157 44.3941 35.7917C43.5876 35.7119 42.719 35.6055 41.9037 35.9246C41.3453 36.1373 40.7781 35.9157 40.2108 35.9246C39.3866 35.9423 38.6067 36.0575 38.2078 36.8197C38.1103 37.0059 37.942 37.0679 37.7647 36.997C37.3925 36.8552 36.9582 36.8907 36.6037 36.6691C35.806 36.1639 34.9729 36.3943 34.1841 36.6425C33.865 36.7488 33.5726 36.8729 33.2269 36.8729C32.8635 36.8729 32.5001 36.9438 32.1634 37.0856C31.7379 37.2629 31.4898 37.6263 31.5695 37.9719C31.6582 38.3353 31.9418 38.7519 32.5001 38.743C33.1915 38.7253 33.8828 38.9291 34.5918 38.7519C34.9286 38.6632 35.3097 38.6721 35.6731 38.743C36.2048 38.8405 36.7189 38.681 37.2152 38.5391C37.942 38.3264 38.651 38.1226 39.3246 38.7075C39.6436 38.9823 40.0868 38.9114 40.3881 38.6455C40.9819 38.1137 41.8416 38.3885 42.4886 38.0517C42.6747 37.9542 42.852 38.1492 43.0115 38.2821C43.3483 38.5569 43.7471 38.5923 44.0396 38.2733C44.4207 37.8478 44.9436 37.8478 45.4577 37.7681C45.8742 37.706 46.0515 37.9631 46.1401 38.2378C46.2465 38.5746 45.9185 38.5746 45.6704 38.6012C45.4754 38.6278 45.3602 38.7519 45.2272 38.8671C44.7043 39.3457 44.2169 39.4077 43.6674 38.9912C43.109 38.5746 42.5595 38.5835 41.9746 38.8937C41.6555 39.0621 41.3098 39.195 40.9376 39.1595C40.4679 39.1152 40.3881 39.6027 40.0779 39.6559C39.7323 39.7179 39.5373 39.195 39.1207 39.2925C38.5801 39.4166 38.1015 39.3545 37.614 39.0886C37.3925 38.9646 37.1266 39.0532 36.9139 39.2127C36.6834 39.3811 36.4441 39.3634 36.2314 39.195C35.4781 38.6012 34.6627 38.6455 33.8296 39C33.3333 39.2127 32.7483 39.3014 32.6951 39.9838C32.6774 40.2585 32.3761 40.489 31.9772 40.3915C31.543 40.2851 31.0555 40.2054 30.9137 39.7268C30.8517 39.5141 31.0112 39.3811 31.2062 39.2836C31.4277 39.1684 31.6936 39.1684 31.9241 39.0975C31.9861 39.0709 32.0304 39.0266 32.0659 38.9734C32.1634 38.7962 32.0481 38.6632 31.9329 38.5303C31.6848 38.2467 31.4366 37.9896 31.605 37.5465C31.7202 37.2363 31.2948 36.9438 30.8871 37.0147C30.6212 37.059 30.3287 37.0679 30.0983 37.2009C29.4247 37.5908 28.6005 37.2363 27.9092 37.5465C27.9092 37.5465 27.8649 37.5554 27.8471 37.5376C27.1647 36.997 26.6241 37.4756 25.9682 37.644C24.8604 37.9365 23.6816 38.0074 22.5206 37.8567C22.104 37.8035 21.847 37.8124 21.6254 38.1846C21.3241 38.6898 20.8277 38.6278 20.3137 38.4594C19.5249 38.1935 19.0729 38.3264 18.6209 38.9912C18.5057 39.1595 18.3639 39.2039 18.1777 39.2039C17.5928 39.2039 17.061 39.3811 16.5027 39.4875C15.4657 39.6913 14.3933 39.7356 13.3386 39.7622C12.5144 39.7799 12.0092 40.2142 11.3799 40.5156C11.1938 40.6042 11.1849 40.8169 11.1761 41.0119C11.1672 41.65 10.6798 41.8805 10.0948 41.5614C9.61622 41.2955 9.35033 41.3664 9.15535 41.845C8.99581 42.2527 8.70334 42.554 8.23361 42.5363C7.68411 42.5097 7.36505 42.687 7.1612 43.1124C7.06371 43.3251 6.78896 43.4226 6.70919 43.6353C6.50535 43.2099 6.17742 43.1124 5.76087 43.3871C5.56588 43.5112 5.3709 43.5821 5.14933 43.6353C4.88344 43.6973 4.7505 43.8657 4.68846 44.1139C4.42257 45.2749 4.20986 46.436 4.69732 47.597C4.33394 47.6856 4.16555 48.1642 3.64264 47.987C3.43879 47.9161 3.61605 48.1022 3.59833 48.1731C3.53629 48.3592 3.49197 48.439 3.25267 48.4212C2.80953 48.3858 2.43729 48.5631 2.1714 48.8821C2.03846 49.0416 1.94097 48.891 1.82575 48.8644C1.63963 48.8201 1.48896 48.6251 1.24966 48.7758C1.19649 49.0771 1.63963 48.9442 1.63963 49.1923C1.51555 49.343 1.32943 49.0416 1.13445 49.1746C1.03696 49.2455 0.877424 49.2721 0.83311 49.3962C0.77107 49.6 0.983779 49.5291 1.08127 49.5823C1.65736 49.8748 1.14331 49.9191 0.948327 50.0077C0.974916 50.2381 1.1699 50.2204 1.25853 50.185C1.90552 49.9279 2.3398 50.3534 2.75635 50.6104C3.27926 50.9294 2.95134 51.2928 2.49933 51.6207C3.12859 51.736 3.70468 51.6562 4.22759 51.9664C4.4403 52.0905 4.59097 51.5498 4.91003 51.4612C6.36354 51.0181 7.51572 51.4258 8.402 52.4361C8.35769 52.4095 8.27792 52.3298 8.19816 52.25C8.02976 52.0816 7.87909 51.8778 7.56889 52.0018C7.27642 52.1171 7.19665 52.3386 7.24983 52.6134C7.29414 52.8261 7.30301 53.0299 7.01939 53.1186C6.73578 53.2072 6.39899 53.3401 6.19515 53.0831C5.87608 52.6754 5.4418 52.702 4.9898 52.702C4.67073 52.5159 4.19214 52.5513 3.90853 52.7552C3.67809 52.9236 3.98829 52.9856 3.97943 53.0831C3.9617 53.2781 4.05033 53.5794 3.78445 53.6326C3.57174 53.6769 3.53629 53.4022 3.49197 53.2338C3.35903 52.7463 2.87157 52.507 2.55251 52.1437C2.35752 51.9221 2.05619 51.7803 2.22458 51.3814C2.30435 51.1865 0.974916 50.442 0.682441 50.4331C0.257023 50.4331 0.257023 50.7522 0.407692 50.8763C1.27625 51.603 0.115217 51.5676 0 51.9664C0.221572 52.0284 0.460869 52.1437 0.815384 52.0905C1.10786 52.0462 1.52441 52.0373 1.58645 52.5248C1.65736 53.0299 2.29548 52.5336 2.49047 52.9413C2.34866 53.0211 2.4107 53.2604 1.99415 53.3047C1.60418 53.349 1.53328 53.9074 1.35602 54.2442C1.33829 54.2885 1.55987 54.6607 1.85234 54.4214C2.02073 54.2885 2.28662 54.1644 2.36639 54.3682C2.60568 54.9709 2.66772 54.2707 2.81839 54.3594C3.07542 54.5632 3.13746 54.9798 3.58946 55.0152C3.73127 55.0064 3.74013 55.0684 3.75786 55.1304Z" fill="#00D8DA"/>
</svg>
