<svg width="296" height="164" viewBox="0 0 296 164" fill="none" xmlns="http://www.w3.org/2000/svg">
<path d="M293.94 74.4644C290.941 74.1132 287.942 73.8352 284.959 73.3962C276.177 72.1231 267.395 70.9818 258.583 70.7038C257.298 70.6599 256.058 70.3379 254.666 69.4307C255.875 68.4503 257.16 69.1527 257.94 67.9089C259.715 65.114 261.949 65.2896 264.182 65.1433C267.594 64.9238 270.945 64.2361 274.081 61.9095C275.489 60.8705 276.498 59.4219 276.896 57.0075C277.279 54.6077 276.927 53.8761 275.274 53.4224C269.445 51.8567 263.586 50.7885 257.741 49.4862C248.332 47.3791 238.877 46.1792 229.407 45.0671C226.056 44.672 222.705 44.3062 219.339 43.9258C220.456 42.9893 221.665 42.682 222.843 42.2284C224.603 41.5553 226.515 41.8333 228.167 40.3846C228.764 40.2676 229.345 40.1505 229.942 40.0188C237.684 39.7847 245.44 39.5798 253.182 39.3018C258.323 39.1116 263.402 38.058 268.466 36.6972C270.042 36.2728 271.388 35.2632 272.521 33.4341C273.393 32.0147 273.959 30.4343 273.515 28.5174C273.102 26.7469 271.954 27.0103 271.021 26.8493C266.814 26.103 262.591 25.386 258.384 24.6544C260.939 23.8496 263.494 23.396 266.064 23.0301C268.298 22.7229 270.164 21.5083 271.312 18.2891C269.231 14.6309 267.028 11.7483 263.662 13.4457C262.912 13.2701 262.163 13.0945 261.413 12.9189C261.505 12.1287 261.841 11.6019 262.132 10.9874C263.57 7.97301 263.142 6.04148 260.816 5.06109C260.449 4.90013 260.051 4.88549 259.669 4.82696C255.232 4.25629 250.795 3.58318 246.343 3.15883C238.693 2.44182 231.044 1.76871 223.394 1.3151C215.346 0.817581 207.299 0.320066 199.236 0.290801C164.766 0.188371 130.312 -0.572534 95.842 0.876112C86.5246 1.2712 77.2072 1.62238 67.9051 2.2077C57.4556 2.86617 47.0672 5.45617 36.6024 5.6903C35.1489 5.76346 34.078 6.74386 33.6649 8.77781C32.9917 12.0556 31.6759 13.4749 29.5493 13.2701C28.9373 13.2115 28.2947 13.5188 28.157 14.5285C27.9735 15.8893 28.7384 16.343 29.3657 16.6942C31.2475 17.7623 33.2212 17.3965 35.1336 17.06C37.2602 16.6795 39.4175 16.2259 41.4829 16.9575C43.2882 17.6014 44.9253 17.0746 46.6235 16.5186C47.5721 16.2113 48.5207 15.8601 49.4692 15.6406C60.439 13.1384 71.5005 12.8604 82.5467 12.2019C94.0826 11.5288 105.649 11.3532 117.185 10.9435C117.766 10.9288 118.348 10.8557 118.929 10.7971C125.431 10.1826 131.918 10.2118 138.42 10.5045C144.219 9.96307 150.018 10.2704 155.816 10.2265C165.103 10.1533 174.374 10.2265 183.661 10.2557C184.717 10.2557 185.772 10.446 186.843 10.5484V10.724C182.697 11.3093 178.536 11.0898 174.39 11.0752C163.466 11.0605 152.542 10.8849 141.633 11.8507C140.578 11.9385 139.507 11.8214 138.451 11.8068C134.198 12.158 129.945 12.3189 125.691 12.5092C117.277 12.8896 108.862 13.87 100.447 14.7334C91.5582 15.6552 82.6538 16.5186 73.7801 17.8209C66.3599 18.9183 58.9549 20.1329 51.55 21.4059C48.8573 21.8742 46.0116 22.8399 43.4871 24.8592C41.0239 26.8347 41.0392 27.0395 42.049 31.0928C41.6665 31.2538 41.2993 31.4294 40.9321 31.5757C36.7095 33.2731 32.4409 34.7656 28.4783 37.78C27.5298 38.5116 26.4129 39.0384 25.8927 40.6041C25.3266 42.3015 24.3628 42.799 23.353 43.3551C21.8843 44.1599 20.4767 45.2573 19.3751 47.0279C18.5184 48.3888 18.6561 49.6764 19.7729 50.1154C22.2055 51.0666 24.424 53.2907 27.0096 53.2322C28.6466 53.1883 29.993 54.0955 31.2934 55.5588C33.5425 58.0903 36.021 59.6706 38.8667 59.4511C40.1366 59.656 41.3911 59.8609 42.9517 60.1243C41.7889 62.6996 40.2895 63.0801 38.8973 63.7971C32.5633 65.1287 26.3976 67.3968 20.5379 71.5086C19.6811 72.1085 18.702 72.6353 18.3348 74.2595C18.1665 74.2449 18.0135 74.3327 17.8911 74.5083C16.1316 74.6107 14.2804 74.6839 13.3165 77.4348C12.5822 79.5273 11.6183 80.537 10.1954 81.0199C8.87969 81.4735 7.59453 82.2929 6.61537 83.8586C5.6974 85.3219 5.81979 86.5364 7.01315 87.4144C8.22181 88.2924 9.47637 89.2728 10.8992 88.7752C11.2664 88.8484 11.6489 88.9362 12.0161 89.0094C12.9647 90.6921 14.4793 91.2775 15.4279 93.3699C14.8006 93.8675 14.0815 94.0723 13.8214 94.7162C12.0467 99.0621 9.43047 101.389 6.49297 103.349C5.19251 104.213 5.34551 106.218 6.52357 107.769C7.16615 108.617 8.14532 108.808 8.5125 110.432C7.44154 111.676 6.40117 112.934 5.98809 115.144C5.6974 116.709 4.77943 117.324 3.72376 117.602C2.561 117.909 1.56653 118.846 0.679163 120.104C-0.284705 121.48 -0.208207 122.694 0.816859 123.806C2.10202 125.226 3.55547 126.03 5.07012 126.601C11.8784 129.147 18.7326 128.167 25.5714 126.981C27.4533 126.66 29.4728 127.23 31.2169 125.547C33.4354 125.591 35.6538 125.621 37.8722 125.664C37.2755 127.128 36.2964 127.216 35.3478 127.508C32.1502 128.518 28.8914 129.191 25.908 131.474C22.8022 133.844 19.2527 134.547 16.407 137.912C14.9689 139.61 14.8465 139.946 16.2081 141.892C18.6867 145.419 21.7466 145.711 24.8677 145.653C25.449 145.697 26.0151 145.726 26.5965 145.755C27.2238 147.028 26.8719 147.54 26.0151 147.921C23.6437 148.945 21.563 150.833 19.6352 153.247C18.2124 155.047 18.1359 155.954 19.4822 157.901C21.104 160.242 23.0929 161.617 25.2042 162.129C30.1919 163.359 35.1948 164.266 40.2589 163.929C44.91 163.622 49.561 163.461 54.2121 163.095C65.1512 162.232 76.0904 161.09 87.0142 159.759C96.2857 158.632 105.588 157.681 114.875 156.964C126.395 156.071 137.916 155.252 149.436 154.228C156.887 153.569 164.368 153.613 171.835 153.35C184.9 152.896 197.981 152.384 211.062 152.735C219.217 152.955 227.372 152.881 235.526 152.867C241.447 152.867 247.353 153.277 253.258 153.657C256.181 153.847 259.103 153.686 262.025 153.686C260.923 153.569 260.021 152.457 258.812 152.384C251.744 151.93 244.706 151.038 237.668 149.984C229.575 148.77 221.42 148.418 213.281 148.111C197.844 147.541 182.407 147.672 166.985 147.76C166.128 147.76 164.996 148.418 164.476 147.35C163.573 145.448 162.395 146.004 161.339 145.989C156.688 145.916 152.006 146.458 147.371 145.902C143.393 145.419 139.476 145.609 135.498 145.799C125.416 146.282 115.349 147.072 105.266 147.804C100.615 148.14 95.9644 148.477 91.3287 148.901C82.715 149.677 74.1167 150.76 65.4878 151.272C57.9299 151.711 50.3413 151.565 42.7834 151.608C41.2381 151.623 39.6929 151.345 37.9334 151.184C38.6372 149.648 39.3563 149.765 39.9836 149.472C42.4774 148.375 45.1701 148.492 47.5415 146.589C47.924 146.545 48.3065 146.487 48.689 146.443C49.3621 146.677 50.0047 146.721 50.4637 145.682C51.0298 145.58 51.5959 145.477 52.1773 145.375C52.8351 145.697 53.4624 145.624 53.9673 144.804C58.2818 143.985 62.5962 143.151 66.8954 142.331C67.4614 142.931 67.9816 142.917 68.4559 142.082C70.0165 142.068 71.5923 142.141 73.1376 141.658C74.1626 142.053 75.1877 142.404 76.1057 141.146C77.0695 141.087 78.0334 141.029 78.9973 140.985C80.3436 141.468 81.7053 141.175 83.0516 141.014C89.7222 140.253 96.3775 139.302 103.048 138.644C113.697 137.605 124.345 136.654 134.993 135.849C144.77 135.103 154.561 134.59 164.353 134.005C174.435 133.391 184.503 132.674 194.585 132.249C205.83 131.781 217.075 131.079 228.32 130.42C238.693 129.806 249.066 129.615 259.439 129.176C263.417 129.001 267.395 128.781 271.342 128.284C273.5 128.02 275.58 127.055 277.064 123.689C275.489 122.621 274.05 123.631 272.811 122.401C271.036 120.616 268.956 120.353 266.921 120.309C253.06 120.046 239.198 119.489 225.337 119.782C211.277 120.089 197.201 119.928 183.156 120.997C177.924 121.392 172.691 121.45 167.459 121.67C154.363 122.211 141.312 123.923 128.246 124.904C125.829 125.079 123.427 125.664 121.025 126.06C121.209 126.177 121.377 126.279 121.56 126.396C121.377 126.279 121.209 126.177 121.025 126.06C115.624 126.66 110.208 127.303 104.808 127.874C97.372 128.664 89.9823 130.318 82.5162 130.596C79.4257 130.713 76.3505 131.298 73.26 131.664C71.0262 130.596 68.8384 131.942 66.62 132.118C61.5864 132.498 56.5682 133.244 51.5347 133.713C48.4442 134.005 45.3537 134.254 42.2326 133.903C42.4621 133.039 42.8752 133.069 43.2423 132.996C51.6724 131.02 60.0718 128.796 68.5477 127.186C81.4452 124.743 94.3733 122.87 107.317 121.216C116.879 120.002 126.472 119.255 136.064 118.451C144.678 117.734 153.307 117.09 161.921 116.665C170.932 116.212 179.959 116.08 188.985 115.817C207.329 115.261 225.673 115.407 244.018 115.231C244.966 115.217 245.961 115.67 246.848 114.675C247.429 114.69 248.011 114.719 248.577 114.734C248.715 114.427 248.868 114.222 249.036 114.075C248.868 114.222 248.715 114.427 248.577 114.734C253.044 115.861 257.527 116.036 262.01 114.763C263.111 114.456 264.06 113.885 264.458 112.041C264.978 111.719 265.483 111.398 266.003 111.061C266.646 111.588 267.242 111.705 267.793 110.783C268.374 110.768 268.94 110.739 269.522 110.724C269.614 110.183 269.751 109.803 269.92 109.554C270.18 109.173 270.501 109.086 270.853 109.071C270.501 109.086 270.164 109.173 269.92 109.554C269.751 109.803 269.614 110.168 269.522 110.724C272.459 111.5 275.32 110.446 278.105 109.378C280.507 108.456 282.404 106.1 282.633 101.491C272 96.8233 261.092 96.1502 250.321 93.9699C250.795 93.5163 251.254 93.4138 251.729 93.2968C255.737 92.3895 259.807 92.2286 263.8 90.9702C265.85 90.3263 267.395 88.8045 267.824 85.3073C267.227 85.3512 266.63 85.3073 266.018 85.2926C266.615 85.3219 267.227 85.3512 267.824 85.3073C268.589 85.1171 269.338 84.9122 270.103 84.722C270.333 83.5952 270.792 83.6391 271.266 83.7562C270.792 83.6391 270.333 83.5952 270.103 84.722C277.08 85.6292 284.056 85.5414 290.972 84.0196C292.884 83.5952 294.536 81.7222 295.47 78.7079C296.434 75.5179 296.174 74.7278 293.94 74.4644ZM131.735 38.9799C131.628 38.9945 131.536 39.1116 131.444 39.3311C131.643 39.3018 131.842 39.2872 132.041 39.2579C132.607 39.1994 133.157 39.1555 133.724 39.0969C133.892 38.4531 134.075 38.0288 134.274 37.9556C134.075 38.0288 133.892 38.4531 133.724 39.0969C134.167 39.4335 134.596 39.4628 134.978 38.8921C137.487 38.7604 139.996 38.6287 142.49 38.4824C145.596 38.497 148.686 38.5263 151.792 38.5409C163.328 38.5994 174.879 38.6141 186.415 38.775C189.674 38.8189 192.933 39.3164 196.191 40.2529C192.825 40.648 189.475 41.3211 186.109 41.3797C178.934 41.5114 171.743 41.7747 164.583 41.1602C154.393 40.2968 144.219 40.9553 134.045 40.8382C131.153 40.809 128.246 41.4675 125.339 41.3211C124.437 41.2772 123.366 41.9357 122.677 40.2968C122.417 39.8139 122.096 39.5652 121.729 39.5213C122.081 39.5652 122.417 39.8286 122.677 40.2968C123.458 40.4578 124.223 40.4285 124.972 40.0481C125.63 38.5555 126.364 38.2775 127.129 38.5555C126.364 38.2775 125.63 38.5555 124.972 40.0481C126.211 40.7066 127.39 40.3846 128.537 39.492C129.501 39.4335 130.465 39.375 131.429 39.3018C131.551 39.1116 131.643 38.9945 131.735 38.9799ZM132.331 88.9216L132.53 88.7313C132.423 88.5265 132.347 88.468 132.27 88.5119C132.347 88.468 132.423 88.5265 132.53 88.7313C132.943 88.6582 133.356 88.5997 133.769 88.5265C138.925 86.873 144.158 87.3998 149.36 87.1803C157.269 86.8291 165.164 85.9511 173.043 86.0243C172.217 87.3412 170.993 87.1217 169.861 87.2534C166.786 87.59 163.695 87.8387 160.62 88.1168C160.865 88.9362 161.37 88.9508 161.844 89.0825C161.37 88.9508 160.865 88.9508 160.62 88.1168C157.224 87.6485 153.904 88.2631 150.614 89.5654C145.917 89.9898 141.22 90.5897 136.523 91.4091C135.101 91.6579 133.632 91.3945 132.194 91.3506C132.117 91.5701 132.025 91.7603 131.934 91.9213C132.025 91.7603 132.117 91.5701 132.194 91.3506C132.178 90.897 132.178 90.4434 132.178 89.9898C129.669 90.2678 127.145 90.341 124.651 90.8531C120.903 91.614 117.093 90.9409 113.36 92.0676C106.399 92.6968 99.4374 93.326 92.4914 93.9553C92.3996 94.3211 92.3078 94.6137 92.216 94.8186C92.0783 95.1405 91.9253 95.2868 91.757 95.1844C91.6499 95.1112 91.5275 94.9503 91.4204 94.643C91.5428 94.9357 91.6499 95.1112 91.757 95.1844C91.9253 95.2868 92.0783 95.1405 92.216 94.8186C92.3078 94.5991 92.3996 94.3064 92.4914 93.9553C92.0477 93.6187 91.6346 93.6187 91.2369 94.1016C90.273 94.2186 89.3091 94.3357 88.3453 94.4381C86.1421 94.4381 83.9237 94.4381 81.7206 94.4381C83.9543 93.8089 86.1727 93.1505 88.3758 92.3164C102.926 90.1215 117.506 88.8045 132.132 88.8777L132.331 88.9216ZM145.764 74.0108C145.887 74.1864 145.994 74.2595 146.101 74.2156C145.994 74.2595 145.887 74.201 145.764 74.0108ZM209.823 99.5596C209.93 99.6767 210.037 99.8376 210.129 100.028C210.022 99.823 209.93 99.6767 209.823 99.5596ZM235.48 65.4067C233.369 67.2504 231.074 67.0309 228.779 66.8114C225.016 67.2065 221.237 67.5431 217.473 68.0113C215.545 68.2455 213.617 67.9821 211.72 67.8796C205.203 67.5284 198.746 68.7283 192.244 68.9917C187.027 69.1966 181.795 69.8258 176.562 69.9721C175.705 70.0014 174.849 70.4404 174.007 70.7038C174.038 70.9818 174.084 71.2305 174.13 71.4354C174.237 71.8451 174.39 72.0939 174.588 72.2695C174.405 72.1085 174.237 71.8451 174.13 71.4354C174.068 71.2305 174.038 70.9964 174.007 70.7038C173.426 70.7184 172.844 70.7184 172.263 70.733C172.294 71.3037 172.248 71.7719 172.171 72.1524C172.248 71.7719 172.278 71.3037 172.263 70.733C165.439 70.5721 158.662 71.4208 151.884 72.4597C150.155 72.6207 148.411 72.767 146.682 72.9279C146.56 73.4986 146.422 73.9083 146.269 74.1132C146.422 73.9083 146.56 73.4986 146.682 72.9279C146.223 72.6353 145.795 72.6938 145.382 73.1474C144.647 72.8255 143.913 72.8109 143.194 73.2206C142.964 73.8791 142.735 74.2742 142.46 74.1571C142.735 74.2595 142.964 73.8791 143.194 73.206C142.75 72.7085 142.337 72.7816 141.939 73.3816C140.027 73.5425 138.099 73.7035 136.187 73.8644C135.988 74.362 135.804 74.7131 135.605 74.9619C135.406 75.196 135.208 75.3131 135.009 75.3277C134.81 75.3277 134.596 75.2253 134.381 75.0058C134.596 75.2253 134.795 75.3424 135.009 75.3277C135.208 75.3277 135.422 75.2107 135.605 74.9619C135.804 74.7131 136.003 74.362 136.187 73.8644C135.361 73.4401 134.534 73.4694 133.739 74.0254C132.423 73.5279 131.107 73.4986 129.792 73.9522C129.577 74.8595 129.256 75.6643 128.812 75.9862C128.629 76.1179 128.43 76.1472 128.216 76.0886C128.43 76.1472 128.644 76.1033 128.812 75.9862C129.256 75.6789 129.593 74.8595 129.792 73.9522C124.957 73.3377 120.107 73.206 115.272 73.7327C105.527 74.8009 95.7655 75.5179 86.0197 76.9227C78.6913 77.9762 71.3781 79.2786 64.065 80.4053C60.1024 81.0052 56.1092 81.3272 52.1926 79.3956C58.3582 77.2592 64.5698 75.7813 70.7508 74.0547C83.0516 70.6013 95.3677 67.3968 107.852 66.3432C119.847 65.3335 131.842 64.2214 143.837 63.6215C153.429 63.1386 163.037 63.3435 172.63 63.1971C173.671 63.1825 174.772 63.5922 175.751 62.6557C176.47 62.6411 177.205 62.6411 177.924 62.6265C181.244 63.6361 184.579 63.2264 187.899 62.8752C192.565 63.0947 197.247 63.3142 201.913 63.5483C202.311 64.1629 202.724 64.1483 203.168 63.6508C206.809 64.4702 210.496 64.1775 214.153 64.397C217.243 65.5969 220.395 65.2018 223.532 65.0262C224.909 65.1579 226.285 65.2896 227.662 65.4213C230.294 64.8945 232.895 65.4067 235.48 65.4067C238.02 65.2165 240.545 65.4213 243.069 65.4799C240.545 65.4213 238.02 65.2165 235.48 65.4067ZM211.368 41.6577C211.598 41.8625 211.705 42.3015 211.751 42.7698C211.674 43.4136 211.46 43.8819 211.047 43.9843C211.46 43.8819 211.674 43.4136 211.751 42.7698C211.705 42.3015 211.598 41.8625 211.368 41.6577ZM195.044 11.1922C194.386 11.002 193.728 10.9142 193.07 10.8849C193.713 10.9288 194.386 11.002 195.044 11.1922ZM191.969 10.8703C191.28 10.8849 190.607 10.9288 189.919 10.9581C190.607 10.9288 191.296 10.8849 191.969 10.8703ZM248.271 59.1439C248.133 58.9683 248.011 58.778 247.904 58.5293C248.011 58.7927 248.133 58.9829 248.271 59.1439ZM249.158 59.7584C249.005 59.7292 248.868 59.656 248.715 59.5682C248.868 59.656 249.005 59.7292 249.158 59.7584ZM247.888 58.5293C245.609 59.0268 243.329 58.7341 241.049 58.6317C243.329 57.4172 245.609 57.6367 247.888 58.5293Z" fill="#00D8DA"/>
</svg>
