<svg width="219" height="64" viewBox="0 0 219 64" fill="none" xmlns="http://www.w3.org/2000/svg">
<path d="M214.767 55.8614C214.624 56.0858 214.337 56.1038 214.158 56.3282C214.024 56.5077 213.872 56.5167 214.069 56.768C214.212 56.9475 214.015 57.2616 213.89 57.2706C213.406 57.2975 213.478 57.7284 213.272 58.0874C213.138 57.6117 212.744 57.2886 213.29 56.8847C213.585 56.6693 213.12 56.5436 213.12 56.3192C213.12 56.014 212.896 56.2474 212.825 56.2743C212.601 56.3372 212.297 56.409 212.18 56.5795C212.01 56.8308 211.93 56.6603 211.912 56.5526C211.822 56.0948 211.438 56.5526 211.285 56.3372C211.241 56.4 211.151 56.4987 211.16 56.5256C211.285 56.759 211.518 56.75 211.733 56.7141C211.769 56.9295 211.563 56.9116 211.5 57.0462C211.196 57.6655 210.641 57.7463 210.113 57.2976C209.943 57.1539 209.37 57.1809 209.066 57.3514C208.914 56.6782 209.388 56.7859 209.773 56.7859C209.907 56.7859 210.05 57.0462 210.167 56.7411C210.238 56.5436 210.301 56.4449 210.122 56.2205C209.97 56.023 209.406 55.4665 210.31 55.3768C210.426 55.3678 210.516 55.2511 210.516 55.0985C210.507 54.8652 210.399 54.8921 210.229 54.9729C210.176 54.9998 209.997 54.91 210.095 54.7844C210.498 54.2458 209.854 54.2189 209.683 54.0394C209.487 53.824 209.218 53.9855 209.066 54.2817C208.985 54.4433 208.824 54.7126 208.583 54.3446C208.52 54.2458 208.252 54.2728 208.046 54.2458C208.099 54.4343 208.108 54.6318 208.216 54.7574C208.645 55.3139 208.189 55.5473 207.849 55.8076C207.509 56.0769 206.936 56.0589 206.9 56.6962C206.891 56.8398 206.668 56.5256 206.533 56.768C206.927 57.0732 206.327 57.4501 206.551 57.8361C206.578 57.881 206.444 57.9258 206.354 57.9169C206.238 57.9079 206.274 57.854 206.283 57.7643C206.336 57.2796 206.193 57.0911 205.656 57.2886C205.343 57.4053 204.842 57.5848 204.788 56.9026C204.788 56.8936 204.466 56.4359 204.323 56.9026C204.251 57.1539 204.126 56.9744 204.01 56.9834C203.741 57.0014 203.419 56.6693 203.267 56.8847C202.963 57.2975 202.801 57.1719 202.452 56.9475C202.247 56.8129 201.933 57.2347 201.602 57.2078C201.45 57.0821 201.593 56.9654 201.611 56.8398C201.736 56.6423 201.871 56.4538 201.996 56.2564C201.781 56.1397 201.289 56.1576 201.414 55.7986C201.522 55.4755 201.933 55.6999 202.202 55.7717C202.318 55.7986 202.426 55.8525 202.533 55.8973C202.613 55.8704 202.694 55.8884 202.775 55.8973C202.694 55.8973 202.605 55.8704 202.524 55.9063C202.587 55.4934 202.757 55.0895 202.05 55.0088C201.853 54.9818 201.54 54.5241 201.593 54.1651C201.629 53.9586 201.62 53.8868 201.441 53.9407C201.235 53.9945 201.074 54.0484 201.056 53.7522C201.056 53.7252 201.02 53.6983 200.994 53.6714C200.457 54.2458 199.302 53.5547 199.007 54.6408C198.98 54.7215 198.98 54.928 198.783 54.8562C198.667 54.8113 198.586 54.7395 198.676 54.5779C198.81 54.3356 198.81 54.0304 198.559 53.9048C198.21 53.7252 197.799 53.9048 197.611 54.1561C197.324 54.5241 196.931 54.6408 196.573 54.8562C196.465 54.919 196.421 54.8292 196.331 54.7754C195.642 54.3625 194.953 54.5779 194.613 55.3139C194.425 55.7358 194.183 55.9781 193.682 55.9333C193.458 55.9153 193.199 56.014 192.993 56.1307C192.733 56.2833 192.51 56.2474 192.259 56.1666C192.071 56.1217 192.017 55.9333 191.883 55.8345C191.65 55.8076 191.445 55.6909 191.23 55.9961C191.105 56.1846 190.773 56.1307 190.648 55.8255C190.46 55.3947 190.317 54.9998 189.673 55.3409C189.279 55.5473 189.315 54.9908 189.18 54.7664C189.046 54.5331 189.18 54.3446 189.431 54.2548C189.664 54.1561 189.691 54.3984 189.708 54.4792C189.852 55.2062 190.415 54.9459 190.765 54.8382C191.024 54.7574 191.266 54.6856 191.525 54.7036C191.812 54.7215 192.071 54.7844 192.223 54.4343C192.286 54.2907 192.465 54.2548 192.644 54.2548C193.208 54.2728 193.208 54.2638 193.494 53.7881C193.7 54.174 194.112 54.2099 194.443 54.3625C194.953 54.6049 195.239 54.0484 195.463 53.7611C195.982 53.0969 196.582 52.6751 197.432 52.5943C197.62 52.5764 197.736 52.4776 197.879 52.702C197.969 52.8456 198.228 52.7918 198.398 52.72C198.434 52.702 198.452 52.5764 198.443 52.5046C198.389 52.1814 198.157 52.4238 198.014 52.3699C197.96 52.352 197.897 52.3161 197.852 52.343C197.629 52.4597 197.405 52.4238 197.369 52.1725C197.333 51.9211 197.611 51.8942 197.79 51.8314C198.336 51.6519 198.882 51.7147 199.436 51.7865C199.544 51.6967 199.508 51.607 199.445 51.5083C199.168 50.9159 198.631 51.2121 198.201 51.1403C198.121 51.1672 198.04 51.2121 197.96 51.1492C197.978 51.0415 197.843 50.871 198.067 50.8441C198.318 50.8082 198.416 50.6466 198.443 50.4132C198.568 50.2517 198.694 50.3684 198.819 50.4132C199.016 50.3414 199.043 50.512 199.114 50.6197C199.177 50.7005 199.347 50.7812 199.356 50.7453C199.454 50.0004 200.072 50.4402 200.412 50.2696C200.582 50.3325 200.734 50.4671 200.94 50.3863C201.003 50.4402 201.119 50.512 201.11 50.5299C200.788 51.3198 201.486 51.1762 201.844 51.3377C201.915 51.3647 201.987 51.3647 202.041 51.2659C202.327 50.6646 202.551 51.1492 202.784 51.3198C202.81 51.3377 202.81 51.4275 202.819 51.4275C203.464 51.3826 203.831 51.8045 204.224 52.2084C204.287 52.2712 204.457 52.2263 204.564 52.1276C204.69 52.0019 204.815 51.7147 204.976 52.1545C205.048 52.343 205.343 52.1276 205.495 52.0109C205.567 51.957 205.567 51.7416 205.406 51.7237C204.609 51.6519 205.083 51.0595 205.2 50.9338C205.486 50.6197 205.415 50.3594 205.298 50.0542C205.021 49.3003 204.582 48.672 203.938 48.1514C203.643 47.918 203.455 48.0616 203.258 48.0975C202.971 48.1424 202.775 48.0347 202.605 47.8821C202.363 47.6577 202.801 47.568 202.748 47.3615C202.264 47.4423 201.79 47.2 201.289 47.4243C201.012 47.55 200.788 47.1641 200.707 46.9307C200.663 46.823 200.985 46.6524 201.244 46.6345C201.548 46.6076 201.826 46.5806 202.059 46.8499C202.13 46.9307 202.309 46.9486 202.381 46.814C202.434 46.7063 202.408 46.5986 202.264 46.5178C201.835 46.2755 201.414 46.0241 200.94 45.8805C200.761 45.8267 200.537 45.8895 200.492 45.9523C200.063 46.4909 199.848 45.9613 199.678 45.7459C199.231 45.1535 198.721 44.9291 198.031 45.1445C197.915 45.1804 197.808 45.2074 197.682 45.1356C197.011 44.7496 196.671 45.1176 196.429 45.701C196.412 45.7459 196.358 45.7818 196.304 45.8446C196.259 45.7818 196.206 45.7369 196.197 45.692C196.143 45.4048 196.349 45.0099 195.964 44.8663C195.588 44.7227 195.687 45.2792 195.445 45.324C195.203 45.3779 195.257 45.7818 194.953 45.701C194.783 45.6561 194.836 45.5125 194.828 45.3959C194.792 45.0997 194.801 44.8214 195.168 44.7227C195.203 44.7137 195.23 44.6868 195.284 44.6509C194.98 44.22 194.541 44.1841 194.103 44.2739C193.789 44.3457 193.351 44.238 193.226 44.7406C193.19 44.8753 192.51 44.4983 192.447 44.3188C192.25 43.7084 191.883 43.2148 191.391 42.7929C191.355 42.8647 191.328 42.9545 191.275 42.9994C191.122 43.1519 191.588 43.2327 191.319 43.3674C191.131 43.4571 191.114 43.2237 191.006 43.1519C190.935 43.1071 190.791 43.0622 190.747 43.0981C190.353 43.4302 189.914 43.3853 189.458 43.2776C189.342 43.2507 189.154 43.2237 189.091 43.2866C188.473 43.9687 188.017 43.2686 187.704 42.9994C187.355 42.6942 187.059 42.8109 186.836 42.9006C186.496 43.0353 186.12 43.0801 185.816 43.3494C185.628 43.5199 185.395 43.4481 185.252 43.2058C185.001 42.7839 184.759 42.9904 184.598 43.2596C184.419 43.5648 184.169 43.7174 183.829 43.7443L183.838 43.7623C183.936 43.3404 184.07 42.9635 184.589 42.8827C184.661 42.8647 184.921 42.8288 184.84 42.6134C184.786 42.4698 184.643 42.4249 184.482 42.4249C184.24 42.4339 183.99 42.4339 183.739 42.398C183.444 42.3621 183.095 42.4249 182.952 42.8019C182.817 43.1789 182.433 43.3135 182.2 43.6187C182.039 43.3943 182.272 43.2686 182.298 43.0981C182.316 42.9994 182.549 42.9455 182.388 42.8378C182.298 42.775 182.057 42.5955 182.039 42.757C182.003 43.125 181.35 42.6583 181.529 43.1878C181.484 43.3045 181.386 43.3404 181.26 43.3315C180.992 43.3853 180.616 43.7713 180.589 43.0981C180.589 43.0353 180.464 42.9904 180.419 42.9276C180.339 42.8109 179.954 43.0532 180.115 42.7032C180.213 42.4877 180.455 42.5865 180.661 42.6583C181.099 42.8198 181.323 42.5596 181.565 42.1915C181.144 42.1556 180.813 42.2723 180.464 42.1377C180.195 42.039 180.079 42.2993 179.998 42.5057C179.864 42.8468 179.73 43.1968 179.3 43.2686C179.22 43.1071 179.139 42.8917 179.005 42.7121C178.692 42.2634 179.13 42.012 179.336 42.0569C179.775 42.1646 179.989 41.7607 180.365 41.7697C180.526 41.7697 180.643 41.6351 180.616 41.4196C180.589 41.2042 180.446 41.2491 180.312 41.2132C179.936 41.1234 179.542 40.7285 179.193 41.285C179.175 41.3209 178.969 41.276 178.862 41.2312C178.191 40.9709 177.582 41.2581 176.965 41.5902C176.965 41.2491 177.242 41.1683 177.153 40.8721C177.036 40.7734 176.723 41.0786 176.553 40.7465C176.419 40.4862 176.168 40.7016 176.088 40.7913C175.792 41.1773 175.497 41.0068 175.255 40.7824C175.058 40.6118 174.906 40.5849 174.665 40.6298C173.958 40.7554 173.233 40.7465 172.553 41.0516C172.311 41.1683 171.89 40.9619 171.765 40.9978C171.076 41.1953 170.933 40.7465 170.807 40.3067C170.673 39.813 170.441 40.2349 170.432 40.2797C170.333 40.6477 170.047 40.7554 169.76 40.917C169.519 41.0606 169.295 41.1055 169.071 40.9888C168.776 40.8452 169.035 40.6208 169.062 40.4503C169.098 40.2528 169.071 40.2438 168.874 40.1541C168.346 39.9207 167.836 40.1272 167.344 40.1631C167.076 40.181 166.87 40.0733 166.655 40.0464C166.19 39.9656 165.769 40.1272 165.375 40.2438C164.963 40.3605 164.632 40.1272 164.23 40.172C163.8 40.2169 163.37 40.3964 162.941 40.3605C162.44 40.3156 162.18 40.54 162.037 40.9888C162.01 41.0875 161.956 41.303 161.813 41.2312C161.169 40.8991 161.079 41.4735 160.82 41.9043C160.766 41.7338 160.766 41.5902 160.704 41.5543C160.068 41.1594 160.48 40.8811 160.82 40.6388C160.954 40.549 161.008 40.5041 160.909 40.3785C160.829 40.2708 160.668 40.199 160.605 40.3426C160.319 41.0516 159.809 41.3209 159.048 41.3389C158.878 41.3478 158.762 41.5363 158.484 41.3658C158.162 41.1773 157.813 41.5543 157.339 41.6081C157.67 41.3389 157.571 40.9529 157.867 40.6836C158.117 40.4503 157.786 40.2079 157.616 40.0194C157.491 39.8848 157.365 39.7322 157.142 39.9746C156.739 40.3964 155.996 40.4503 155.495 40.1631C154.233 39.436 153.759 39.5078 152.783 40.5849C152.667 40.7195 152.506 40.7913 152.399 40.9529C152.211 41.2222 152.014 41.1145 151.969 40.8003C151.933 40.5221 151.772 40.5041 151.548 40.5131C151.128 40.5311 150.689 40.567 150.278 40.4862C149.955 40.4144 149.776 40.7465 149.445 40.6747C149.544 40.3246 149.857 40.2169 150.063 40.0105C150.233 39.8399 150.34 39.5796 150.143 39.436C149.982 39.3193 149.767 38.9334 149.472 39.3193C149.418 39.3911 149.266 39.4809 149.213 39.445C148.523 39.1309 147.924 39.7412 147.253 39.6155C146.877 39.5437 146.528 39.6694 146.206 39.8669C145.982 40.0015 145.74 40.0464 145.919 40.4413C146.08 40.7913 145.695 41.0606 145.499 41.3299C145.463 41.3748 145.176 41.2491 145.006 41.1953C145.078 40.9888 145.105 40.7375 145.248 40.5939C145.525 40.2977 145.615 40.181 145.132 39.9835C144.675 39.804 145.176 39.445 145.141 39.1668C144.926 39.0321 144.747 39.2296 144.568 39.2834C144.326 39.3552 144.058 39.2834 143.897 39.3193C143.252 39.463 142.599 39.2655 141.955 39.454C141.677 39.5348 141.319 39.9117 140.97 39.5258C140.952 39.463 140.943 39.4001 140.863 39.3912C140.469 39.3642 140.433 40.1092 139.923 39.831C139.377 40.5849 138.876 39.7143 138.348 39.7771C138.285 39.7861 138.178 39.6514 138.151 39.5707C138.097 39.4091 138.151 39.077 137.954 39.1309C137.686 39.2116 137.301 39.1309 137.158 39.4181C137.05 39.6425 136.782 39.6425 136.719 39.8938C136.692 40.0284 136.576 40.0015 136.442 39.9297C135.869 39.6335 135.475 39.7502 135.037 40.2887C134.849 40.5221 134.616 40.549 134.375 40.4233C134.231 40.3515 134.321 39.9566 134.052 40.0913C133.748 40.2438 133.381 40.2797 133.131 40.558C133.059 40.6477 133.041 40.7554 132.925 40.8362C132.513 41.1235 132.128 41.0696 131.887 40.6747C131.699 40.3695 131.475 40.2797 131.18 40.3515C130.884 40.4233 130.705 40.6388 130.696 40.9709C130.669 41.4196 130.419 41.6081 129.971 41.5902C129.622 41.5722 129.282 41.5902 128.88 41.5992C129.094 41.2491 129.309 40.9619 129.461 40.6298C129.605 40.3156 129.837 39.9117 129.166 39.8848C129.032 39.8848 128.889 39.804 128.772 39.7322C128.038 39.3104 127.484 40.1092 126.794 40.0194C126.705 40.0105 126.642 40.1451 126.517 40.0823C125.908 39.7771 125.425 39.8489 124.835 40.1182C124.342 40.3426 124.306 40.8632 124.002 41.2132C123.582 41.7069 122.508 42.1108 122.114 41.6261C121.55 40.917 121.344 41.5812 121.165 41.8056C120.879 42.1736 120.87 41.8505 120.789 41.7248C120.682 41.5453 120.834 41.3119 120.601 41.1145C120.476 41.0068 120.798 40.6298 120.601 40.3605C120.145 40.7195 119.554 40.3246 119.053 40.6747C118.615 40.9798 118.167 41.3299 117.568 41.3837C117.245 41.4107 116.977 41.5004 116.735 41.2222C116.655 41.1145 116.503 41.0247 116.413 41.0965C115.769 41.653 114.919 41.5274 114.185 41.7876C113.352 42.0749 112.52 42.4518 111.589 42.0928C111.428 42.03 111.205 42.1197 111.008 42.1556C110.909 42.1736 110.748 42.2634 110.73 42.2364C110.354 41.6171 109.97 42.1736 109.594 42.2095C109.54 42.2185 109.477 42.2005 109.442 42.2275C109.173 42.4429 108.994 42.7032 108.94 43.0442C108.654 42.9545 108.368 42.8019 108.18 43.2148C108.135 43.3225 107.858 43.3584 107.893 43.3225C108.144 43.0263 107.258 42.9724 107.777 42.6762C108.001 42.5506 108.359 42.5955 108.412 42.1556C107.858 42.407 107.285 42.5506 106.739 42.4429C106.274 42.3531 105.844 42.3531 105.37 42.38C104.296 42.4518 103.204 42.2993 102.184 42.8198C102.023 42.9006 101.629 43.2148 101.745 42.6044C101.772 42.4698 101.638 42.5685 101.575 42.5775C100.832 42.6583 100.063 42.5236 99.3915 43.1071C99.2304 43.2417 98.6755 43.3225 98.3086 43.2327C97.8611 43.116 97.4047 43.1609 97.1004 43.4392C96.6977 43.8072 96.286 43.7892 95.8028 43.861C95.3732 43.9238 94.8631 43.9508 94.4514 44.2111C94.3082 44.3098 94.2277 44.2021 94.1203 44.1662C93.8876 44.0944 93.6191 44.0495 93.4222 44.1662C93.0374 44.3996 92.7242 44.3637 92.3394 44.1393C92.1335 44.0226 91.8471 44.0675 91.6145 44.4355C91.4265 44.7317 90.988 45.0727 90.4868 45.0368C90.4063 45.0638 90.3257 45.1086 90.2452 45.0458C89.8962 44.7227 89.9588 44.5252 90.4152 44.4175C90.5853 44.3726 90.8985 44.3547 90.818 44.0675C90.7374 43.7982 90.5047 43.9687 90.3079 43.9957C89.5293 44.0944 88.7596 44.1931 87.9989 44.4265C87.802 44.4893 87.6678 44.4714 87.5693 44.7317C87.462 45.0189 87.104 44.7317 86.8534 44.8663C86.1374 45.2612 85.2873 45.2702 84.5534 45.6292C84.2849 45.7639 84.0254 45.7818 83.748 45.71C82.9425 45.5215 82.1997 45.9075 81.4211 45.9434C81.2242 45.9523 81.0632 45.9344 80.9021 45.8626C80.4546 45.6831 80.1145 45.6741 79.7118 46.078C79.4791 46.3114 78.9422 46.2037 78.5573 46.3293C78.0204 46.4999 77.555 46.3652 77.0807 46.1408C77.027 46.1139 76.9643 46.069 76.9106 46.078C75.6577 46.3473 74.3064 46.1139 73.143 46.6883C72.2749 47.1192 71.2725 47.4064 70.6192 48.1963C70.5297 48.3129 70.4492 48.2142 70.3597 48.2501C70.1091 48.3578 69.8048 48.3219 69.9659 48.8066C70.0286 48.9951 69.8764 49.4259 69.3753 49.3721C68.9815 49.3362 68.5519 49.7042 68.2029 49.2284C68.4535 48.8694 69.0442 49.1297 69.2679 48.6809C68.4177 48.4386 67.7107 48.9412 66.9321 49.022C66.6547 49.0489 66.5025 49.3721 66.4041 49.6413C66.2788 50.0004 66.0372 49.9824 65.7687 49.8657C65.6613 49.8208 65.5718 49.749 65.4465 49.7131C64.4531 49.4349 63.7551 50.0991 62.9228 50.3953C62.529 50.5299 62.359 51.0864 61.7773 50.8979C61.3566 50.7543 60.8465 51.0236 60.3812 50.862C60.3096 50.8351 60.229 50.8082 60.1574 50.7902C60.0232 51.5172 59.4504 50.9787 59.1193 51.1492C59.0209 51.2031 58.8956 51.1851 58.7882 51.2749C58.6718 51.3826 58.8061 51.607 58.6181 51.6339C58.4212 51.6608 58.5197 51.4454 58.4392 51.3736C58.4213 51.3557 58.3139 51.3826 58.3049 51.4095C58.117 51.9032 57.759 51.7147 57.401 51.6788C56.6403 51.607 56.345 51.8224 55.9781 52.5853C55.8707 52.8008 55.7006 52.8456 55.4411 52.8367C55.1547 52.8187 55.1547 52.6123 55.1726 52.5046C55.2353 52.1366 55.0831 52.1186 54.7968 52.1725C54.6536 52.1994 54.4925 52.1186 54.3135 52.0827C54.1972 52.352 54.4388 52.6033 54.3582 52.8815C54.0092 52.8008 53.7944 52.5943 53.7407 52.2532C53.7049 52.0109 53.6154 52.0288 53.4812 52.1725C53.0248 52.6392 52.1656 52.8995 51.5302 52.693C51.217 52.5943 51.2081 52.8008 51.2439 52.9533C51.2886 53.1598 51.3155 53.3483 51.226 53.5816C50.7606 53.3662 50.2684 53.2406 49.803 53.1508C49.4629 53.079 48.8902 53.061 48.6306 53.5727C48.5769 53.6714 48.4069 53.806 48.3532 53.6624C48.21 53.3213 48.0937 53.5368 47.9057 53.5906C47.1092 53.8419 46.3128 54.1022 45.4626 54.0035C45.0688 53.9676 44.684 54.0125 44.5766 54.5241C44.5408 54.6856 44.3707 54.6228 44.2634 54.6318C43.9949 54.6408 43.6995 54.5779 43.4579 54.6587C43.1089 54.7754 42.5003 54.7754 42.8494 55.4665C42.912 55.5922 42.8762 55.8345 42.6793 55.7448C42.3392 55.5922 41.9634 55.6281 41.6412 55.5114C41.4354 55.4306 41.4085 55.4216 41.2206 55.5653C40.6926 55.9602 40.1287 56.2294 39.3949 55.9692C39.0727 55.8525 38.6163 56.1307 38.4373 56.4538C38.2852 56.7321 38.2404 56.7052 38.0793 56.5256C37.6319 56.041 36.3521 56.1756 36.0926 56.7949C35.9583 57.1091 35.8062 57.0732 35.5914 57.0732C34.8128 57.0552 34.0879 57.2706 33.4257 57.6835C33.0319 57.9258 32.6829 58.222 32.128 58.0066C31.9132 57.9258 31.591 57.9169 31.2868 58.1413C31.0093 58.3387 30.535 58.2669 30.1412 58.3118C29.8638 58.3387 29.7117 58.4195 29.7922 58.7606C29.8638 59.0568 29.7296 59.2901 29.3806 59.2453C28.6736 59.1465 28.0023 59.2632 27.3401 59.4876C27.0269 59.5953 26.7942 59.3799 26.4989 59.3889C25.9082 59.4158 25.3354 59.6492 24.9059 59.9364C24.3868 60.2864 23.8767 60.1698 23.3666 60.2864C23.2681 60.3134 23.0891 60.2864 23.0712 60.3313C22.946 60.6903 22.7133 60.7621 22.3463 60.8519C22.0689 60.9147 21.9973 60.6903 21.8183 60.7173C21.8631 60.3852 21.5141 60.1428 21.6393 59.8018C21.8004 59.3799 22.2569 59.2901 22.5343 58.9939C23.6798 57.7912 25.2101 57.5399 26.7405 57.3514C27.358 57.2796 27.6802 56.9385 27.895 56.3461C27.537 56.3372 27.2327 56.4269 26.9284 56.391C26.6241 56.3551 26.4989 56.5974 26.4094 56.8398C26.2751 57.2168 25.9619 57.3963 25.6308 57.2796C25.058 57.0642 24.7269 57.4412 24.3331 57.6835C23.4024 58.24 22.6059 58.9939 21.6751 59.5504C21.5767 59.6133 21.5678 59.721 21.5141 59.8018C21.0755 59.9723 20.637 60.1698 20.2253 60.3582C19.8495 60.5378 19.5899 61.0673 19.2678 61.4353C19.0172 61.7136 18.8919 62.0098 18.3818 62.0098C18.1401 62.0098 17.46 62.2072 17.451 62.8624C17.451 63.2753 17.1468 63.4548 16.744 63.4548C16.1623 63.4548 15.5896 63.4728 15.0079 63.4638C14.802 63.4548 14.453 63.5895 14.453 63.2843C14.453 63.1138 14.9005 63.0061 15.0616 63.0599C15.5448 63.2035 15.7865 62.7188 15.867 62.5842C16.225 61.9918 17.2542 61.3007 17.9343 61.3904C18.0238 61.4084 18.1133 61.4981 18.1759 61.3635C18.2117 61.2648 18.1133 61.2289 18.0507 61.184C18.1133 61.0763 18.1491 60.9147 18.2386 60.8788C18.7398 60.6544 18.9903 60.071 19.5899 59.9902C19.751 59.9633 19.9658 59.9633 19.93 59.6761C19.9032 59.3978 19.6526 59.6133 19.5899 59.5056C19.402 59.1735 19.044 59.0478 18.8024 58.7875C18.6055 58.5811 18.4444 58.4734 18.2475 58.8324C18.0596 59.1735 17.1557 59.2183 16.8693 58.9491C16.3413 58.4554 16.1534 58.5093 15.876 59.2632C15.8044 59.0209 15.4106 59.0029 15.6433 58.6618C15.6522 58.6439 15.5806 58.5631 15.5359 58.5362C15.4553 58.4913 15.3658 58.5003 15.339 58.608C15.0705 59.4876 14.7215 58.8055 14.462 58.6259C14.3188 58.5272 14.2293 58.5182 14.1845 58.6259C13.8534 59.326 13.4686 58.976 13.0748 58.6978C13.0122 58.6618 12.9495 58.6259 12.8958 58.59C12.9853 58.3836 13.0838 58.4554 13.1822 58.5452C13.2985 58.6618 13.4149 58.6978 13.5491 58.5721C13.388 58.4644 13.5939 58.249 13.4507 58.1592C12.8779 57.7912 13.4775 57.127 13.0927 56.7141C13.1553 56.6693 13.2538 56.5795 13.2627 56.5885C13.7013 56.9744 14.283 56.3282 14.7036 56.7949C15.4106 56.3013 16.4935 57.0732 17.0573 56.0769C17.1647 55.8974 17.3347 56.0499 17.4868 56.0948C17.6658 56.1487 17.7195 56.4 17.7195 56.4C17.2273 56.8039 17.997 56.8847 17.9254 57.1988C17.8806 57.3873 18.0417 57.2706 18.1133 57.2347C18.2833 57.1629 18.4802 57.0014 18.6055 57.0373C19.223 57.2257 19.402 56.8218 19.6347 56.4C19.7868 56.1217 20.1985 55.9602 20.4043 56.1128C20.8966 56.4628 21.0755 56.1128 21.3261 55.8435C21.3709 55.7986 21.4872 55.8435 21.5141 55.7448C21.2456 55.6819 20.9681 55.6101 20.6907 55.5473C20.646 55.3409 21.1292 55.278 20.8339 54.9459C20.7086 54.8113 21.0308 54.8203 21.1203 54.7844C21.5678 54.6049 22.0331 54.2817 22.4895 54.7574C22.6238 54.8921 22.7133 54.7754 22.8117 54.7126C23.1876 54.4343 23.6261 54.2638 24.0109 54.0035C24.3958 53.7432 24.9775 53.4919 25.5413 53.4739C25.8635 53.456 25.8277 53.6983 25.8277 53.9048C25.8277 54.0214 25.9171 54.1291 25.9977 54.1291C26.0872 54.1381 26.1677 54.0394 26.1767 53.9137C26.2125 53.6265 26.7405 53.2944 27 53.438C27.3311 53.6265 27.5012 53.4829 27.6981 53.2316C27.9934 52.8636 28.3066 52.4866 28.8615 52.8636C28.9331 52.9174 29.13 52.8367 29.2463 52.7738C29.5327 52.6302 29.8101 52.6841 30.016 52.8815C30.3918 53.2495 30.723 53.2675 31.0004 52.8008C31.0809 52.6571 31.1973 52.5943 31.2868 52.6571C31.6447 52.8995 31.9132 52.6841 32.1728 52.5046C32.6739 52.1725 33.2198 52.325 33.6941 52.4417C34.0432 52.5225 34.1685 52.343 34.2759 52.1994C34.5264 51.8763 33.9268 52.1007 34.0163 51.7955C34.2759 51.7775 34.5622 51.7237 34.8397 51.7416C35.2513 51.7775 35.6988 51.957 35.663 51.248C35.6541 51.1403 35.842 51.1223 35.9673 51.0954C36.2626 51.0326 36.5579 50.9518 36.8354 50.8441C37.2023 50.7005 37.4439 50.7184 37.3902 51.2121C37.7124 51.1672 37.7124 50.8889 37.8198 50.7094C37.8914 50.5748 37.9719 50.4671 38.142 50.4671C38.3747 50.4581 38.2852 50.6735 38.3568 50.7812C38.4731 50.9697 38.4552 51.4275 38.8848 51.0146C39.0101 50.8979 39.3054 50.8889 39.5649 50.9338C39.8961 50.9877 40.254 51.0595 40.5583 50.7723C40.8178 50.5209 41.14 50.7723 41.4264 50.7723C41.9007 50.7812 42.2229 50.1888 42.742 50.485C42.8136 50.5299 42.8941 50.3414 42.912 50.2068C42.9388 49.9734 42.7688 49.5965 43.0283 49.5246C43.4132 49.4169 43.8427 49.1746 44.2544 49.4169C44.5408 49.5875 44.7466 49.5426 44.9435 49.2913C45.0151 49.1925 45.1941 49.0489 45.212 49.0579C45.8026 49.5605 46.4828 48.4565 47.0556 49.1656C47.1093 49.2285 47.1987 49.2644 47.2614 49.1746C47.7805 48.4565 48.398 48.8245 49.0244 48.9592C49.3734 49.031 49.9015 49.1925 49.9462 48.6181C49.9909 48.0526 50.2952 48.2142 50.5995 48.2411C50.8053 48.2591 50.9754 48.1963 51.1723 48.1065C51.7271 47.8462 52.3267 47.6398 52.9621 47.8282C53.347 47.936 53.696 48.0526 54.0092 47.7026C54.0808 47.6308 54.1524 47.4333 54.3493 47.5859C54.6536 47.8282 54.9042 47.909 54.8147 47.3436C54.7968 47.2538 54.8773 47.1281 55.0563 47.173C55.5754 47.2897 55.9423 46.814 56.4613 46.7781C56.6493 46.7601 56.9894 46.4191 57.0162 46.0601C57.0341 45.9075 57.0788 45.8267 57.2399 45.8446C57.3921 45.8626 57.3473 45.9523 57.3652 46.0601C57.4905 46.3114 57.6874 46.3921 57.9022 46.3114C58.296 46.1767 58.4123 46.3024 58.3497 46.6973C58.2781 47.1012 58.636 47.1461 58.7971 47.0294C59.2088 46.7153 59.8979 46.814 60.0948 46.1767C60.1395 46.0331 60.2917 46.078 60.417 46.1139C61.2672 46.3742 62.1621 46.4281 63.0212 46.3921C63.5671 46.3652 64.1309 46.1678 64.6142 45.7279C64.9901 45.3869 65.5002 45.0727 66.1177 45.1356C67.0305 45.2343 67.9613 45.2971 68.8831 45.3869C69.0173 45.3959 69.2142 45.2881 69.1873 45.2612C69.0173 45.0548 69.1694 44.8394 69.1157 44.6419C69.0442 44.3367 68.7578 44.0675 68.901 43.7443C68.9905 43.5289 69.0084 43.4033 68.8025 43.2866C68.5877 43.1699 68.3908 43.1789 68.2566 43.4212C68.1134 43.6636 68.0508 43.7443 67.9434 43.3674C67.8091 42.8917 67.2185 42.8557 66.9053 43.2417C66.5831 43.6366 66.2161 43.2058 65.8492 43.2686C65.0348 43.4033 64.1667 43.1878 63.415 43.6366C63.1465 43.7892 62.9496 43.5558 62.6722 43.6725C61.8757 44.0136 61.0166 44.1931 60.1395 44.229C60.0679 44.229 59.9426 44.2739 59.9337 44.3188C59.6563 45.2433 58.7434 45.0099 58.1259 45.3061C58.0454 45.342 57.9201 45.36 57.8485 45.4318C57.6248 45.6651 57.41 45.6741 57.1415 45.4766C56.7209 45.1535 56.3092 45.719 56.3182 45.7908C56.3808 46.2844 56.2018 46.5178 55.7454 46.6345C55.3695 46.7332 55.0205 46.6614 54.6357 46.6255C54.1882 46.5717 53.7407 46.4281 53.2217 46.5537C52.7563 46.6704 52.2193 46.9845 51.6824 46.6524C51.5481 46.5717 51.3781 46.5178 51.2886 46.7422C51.1812 47.0115 51.0112 46.9397 50.859 46.7961C50.6353 46.5717 50.9575 46.5537 51.0201 46.446C51.1902 46.1498 51.4586 45.9882 51.754 45.8357C51.9777 45.719 52.3625 45.6651 52.2999 45.2253C52.2909 45.1356 52.452 44.8394 52.6131 44.8753C52.7832 44.9112 52.9711 45.0548 52.9532 45.3151C52.9442 45.5305 52.9174 45.7728 53.2575 45.7728C53.5707 45.7728 53.508 45.5933 53.4544 45.3959C53.4007 45.2163 53.5707 45.2881 53.6423 45.2792C54.2329 45.1625 54.8326 45.0907 55.4232 45.2792C55.5485 45.3151 55.6559 45.5036 55.7364 45.2253C55.8528 44.7855 56.0765 44.6688 56.4971 44.7765C56.8104 44.8573 56.9715 44.5521 57.2131 44.4534C57.4189 44.3726 57.2668 44.0046 57.1594 43.9328C56.6761 43.5828 57.1952 43.6456 57.3026 43.5648C57.3652 43.5199 57.4816 43.5289 57.5711 43.5558C57.7322 43.6187 57.8216 43.493 57.938 43.4302C57.8216 43.3404 57.7858 43.134 57.5621 43.2058C57.2757 43.2956 57.0431 43.2058 56.8999 42.8198C56.8283 43.2327 56.5329 43.4571 56.703 43.8251C56.7656 43.9687 56.6851 44.1213 56.4345 44.0495C56.0228 43.9418 55.6917 44.1482 55.3695 44.3996C55.0115 44.6778 54.2687 44.606 54.0092 44.2559C53.8302 44.0046 53.5707 44.0405 53.4007 44.1123C52.98 44.3008 52.5594 44.4983 52.094 44.5432C51.8256 44.5701 51.7719 44.7496 51.745 44.983C51.4139 44.5342 50.8501 44.3906 50.3758 44.6419C50.1341 44.7676 49.8836 44.8842 49.6151 44.7945C49.1408 44.6329 48.747 44.7406 48.3801 45.0638C47.8252 45.5395 47.1719 45.2702 46.5633 45.2792C46.0622 45.2881 45.6595 45.5125 45.2925 45.8267C45.1851 45.9164 45.1493 46.0241 45.3283 46.1049C45.5521 46.2037 45.8026 46.2755 45.9816 46.4729C46.0711 46.5717 46.277 46.5537 46.2591 46.4191C46.2322 46.1498 46.3844 46.1767 46.4917 46.2485C46.626 46.3473 46.5902 46.5178 46.4649 46.6165C46.3038 46.7332 46.1248 46.7871 45.91 46.7512C45.6684 46.7063 45.3999 46.6165 45.1851 46.6794C44.9972 46.7332 44.7556 46.9845 44.6661 46.7601C44.5676 46.5088 44.9614 46.437 45.1135 46.2934C44.5497 45.8357 44.1828 46.1139 43.9949 46.6794C43.8696 47.0653 43.4579 47.0563 43.2431 47.3256C43.1805 47.3974 42.8672 47.2359 42.9388 46.9576C42.9746 46.823 43.0373 46.6973 43.091 46.5717C42.384 46.1947 41.847 46.6345 41.3638 46.9666C41.0147 47.2089 40.8268 47.1371 40.5941 46.9217C40.075 46.437 39.556 46.5537 39.377 47.2179C39.2965 47.5231 39.028 47.7026 38.84 47.8731C38.5179 48.1604 38.5089 47.5859 38.2762 47.5141C38.4284 47.173 38.0883 47.1641 37.9719 47.182C37.1755 47.2538 36.379 47.2807 35.5914 47.4962C35.2513 47.5859 35.2245 47.8642 35.0276 48.0167C34.5622 48.3937 33.9984 48.4386 33.4794 48.5463C32.9603 48.645 32.4681 48.9502 32.0296 48.9861C31.1973 49.0579 30.5708 49.749 29.7296 49.6054C29.658 49.5964 29.5237 49.6234 29.5058 49.6593C29.3448 50.117 28.9241 50.144 28.5572 50.1799C27.9576 50.2427 27.4027 50.3414 26.9732 50.8082C26.9284 50.853 26.8121 50.862 26.7405 50.853C26.472 50.8082 26.2035 50.6466 26.4183 51.1762C26.4989 51.3647 26.0335 51.4454 25.8008 51.5801C25.6666 51.2928 26.0335 51.0236 25.8187 50.7543C25.7382 50.6556 25.7382 50.4491 25.5323 50.503C25.4607 50.5209 25.3533 50.5748 25.3354 50.6197C25.2907 50.8261 25.5144 50.6825 25.5592 50.7723C25.586 50.8171 25.6039 50.8889 25.586 50.9338C25.5681 50.9877 25.4786 51.0685 25.4697 51.0595C25.1296 50.862 24.8343 51.3647 24.4942 51.1313L24.4674 51.0864L24.5121 51.1133C24.3958 51.7775 23.7961 51.6519 23.4561 51.589C22.7401 51.4544 22.0152 51.607 21.3082 51.4185C21.1024 51.3647 20.8518 51.6608 20.7355 51.6698C20.2253 51.7237 19.9479 52.2353 19.4199 52.2353C18.9187 52.2353 18.5697 52.5135 18.4534 53.0251C18.2923 53.6893 17.639 54.0843 17.0125 53.8778C16.9767 53.8599 16.9409 53.824 16.9051 53.824C16.583 53.7522 16.2339 53.3662 15.9654 53.6714C15.7507 53.9227 15.867 54.3715 15.9386 54.7215C16.046 55.2332 15.6254 55.6999 15.1063 55.6191C14.7394 55.5563 14.3993 55.5024 14.0145 55.664C13.5402 55.8525 13.0569 55.3319 13.1911 54.8292C13.2359 54.6587 13.2448 54.5151 13.1732 54.2817C12.8242 54.7036 12.502 54.8562 12.1172 54.3625C12.0098 54.2279 11.6966 54.2369 11.4997 54.3535C11.2581 54.4971 11.3565 54.6228 11.5445 54.7574C11.6161 54.8023 11.5087 54.8921 11.446 54.928C11.3565 54.9818 11.2939 54.9459 11.2581 54.8562C11.1149 54.5061 10.8375 54.4433 10.5063 54.4702C10.3363 54.4882 10.0589 54.5331 10.0857 54.2728C10.1126 53.9945 10.5063 54.3446 10.6048 54.0663C10.6585 54.1291 10.6853 54.2997 10.7927 54.1471C10.8285 54.0932 10.7748 53.8778 10.6406 53.8689C10.3989 53.8419 10.1663 53.815 9.96937 53.5547C10.3631 53.438 10.7122 53.3034 11.088 53.4021C11.3118 53.465 11.4818 53.5547 11.6608 53.2944C11.7771 53.1239 12.0188 53.3213 12.0635 53.4021C12.3857 53.9676 12.8242 53.5278 12.9495 53.3752C13.218 53.0521 13.5044 52.9982 13.7908 53.1329C14.0861 53.2585 14.1935 53.079 14.274 52.9264C14.4262 52.6302 14.0861 52.7738 14.0055 52.6751C13.6118 52.1635 13.048 52.4956 12.5915 52.4507C11.8756 52.3789 11.1507 52.4148 10.4526 52.1814C10.2379 52.1096 9.93357 52.1725 9.70984 52.2712C9.36082 52.4238 9.72774 52.693 9.67404 52.8815C9.5756 53.2226 9.89778 53.7252 9.30712 53.9048C9.06549 53.9766 9.03864 54.3625 9.07444 54.4164C9.38766 54.8382 8.91335 54.8292 8.80595 54.8382C8.2153 54.8652 7.73203 55.287 7.12347 55.1973C6.97133 55.1703 6.7655 55.2601 6.7118 55.0806C6.66705 54.91 6.79235 54.7485 6.98923 54.6946C7.06083 54.6677 7.14137 54.6138 7.21297 54.6138C7.92892 54.6677 8.39428 54.1651 8.94914 53.8599C9.07444 53.7881 9.17288 53.7522 9.02969 53.6086C8.8686 53.456 8.22424 53.6534 8.03631 53.7522C7.76783 53.8868 7.42775 54.1022 7.14137 53.9496C6.92659 53.8419 6.7297 53.824 6.51492 53.7881C6.38962 53.7701 6.10324 53.8689 6.21959 53.5368C6.22854 53.5188 6.13009 53.465 6.08535 53.429C5.88846 54.201 5.37835 53.3483 5.07407 53.6265C4.86823 53.806 4.65345 53.9766 4.39392 54.0753C4.22388 54.1381 3.98224 54.192 3.9375 54.0753C3.70481 53.5188 3.33789 53.7701 3.02466 53.9048C2.84567 53.9766 2.69354 53.9496 2.57719 53.8509C1.7986 53.1957 0.975256 52.5674 0.590433 51.5621C0.563585 51.4993 0.465142 51.4724 0.402497 51.4185C0.402497 51.3736 0.402497 51.3377 0.402497 51.2928C0.483041 51.1223 0.518838 50.9607 0.393547 50.7902C0.384598 49.6324 0.375649 48.4655 0.366699 47.3077C0.64413 47.0294 0.733623 46.6255 0.993155 46.3203C1.26164 46.0062 1.44957 45.701 1.95074 45.8446C2.21027 45.9164 2.31766 45.6382 2.434 45.4407C2.65774 45.0548 2.89937 44.6958 3.42738 44.7227C3.67797 44.7406 3.79431 44.5611 3.8659 44.3547C3.96435 44.0764 4.13438 43.8341 4.22388 43.5648C4.38497 43.1071 4.67135 42.8827 5.15461 42.9365C5.3694 42.9545 5.51259 42.8916 5.63788 42.7301C5.97795 42.3082 6.44332 42.1018 6.95343 41.9672C7.39195 41.8505 7.80362 41.6351 8.22424 41.4645C9.71879 40.8811 11.1686 40.199 12.7258 39.813C13.3164 39.6604 13.8444 39.2745 14.462 39.1937C15.5806 39.0411 16.5382 38.341 17.6837 38.2602C17.9164 38.2423 18.1043 38.0987 18.3191 38.0358C18.5966 37.9461 18.9277 37.9281 19.0977 38.2153C19.2767 38.5115 19.0261 38.6821 18.8203 38.8795C18.6145 39.068 18.4176 39.2206 18.1312 39.2475C17.988 39.2655 17.8448 39.3283 17.7643 39.463C17.6837 39.5886 17.639 39.7412 17.7016 39.8758C17.7911 40.0643 17.9433 39.9387 18.0775 39.9207C18.7934 39.8399 19.053 39.4091 19.0977 38.727C19.1246 38.2871 19.0709 37.8204 19.8405 37.8204C20.2253 37.8204 20.7086 37.4973 21.1203 37.2729C21.523 37.0575 21.9794 37.0036 22.3911 36.851C23.8946 36.2766 25.4965 36.0522 27.0179 35.5675C29.0673 34.9123 31.1973 34.5712 33.2467 33.907C34.0074 33.6557 34.7949 33.4672 35.5556 33.2069C36.021 33.0454 36.4774 32.812 36.9875 33.0723C37.1486 33.1531 37.3097 33.0544 37.426 32.9197C37.793 32.4799 38.2404 32.3902 38.8132 32.3183C39.5202 32.2376 40.254 32.0491 40.9521 31.7798C42.3392 31.2413 43.8338 31.0797 45.2567 30.6758C46.1696 30.4245 47.1182 30.2899 47.9952 29.9129C48.1474 29.8411 48.3264 29.8052 48.4785 29.85C49.2213 30.0924 49.9104 29.7244 50.5637 29.5628C51.1544 29.4192 51.7719 29.1948 52.3625 28.9615C53.2754 28.6024 54.2061 28.387 55.1995 28.378C56.0765 28.3691 56.9088 28.019 57.7769 27.8754C59.2446 27.6331 60.6496 27.1933 62.0636 26.7624C63.1644 26.4303 64.301 26.2149 65.4197 25.9367C67.657 25.3712 69.9212 24.8506 72.1943 24.5185C73.8142 24.2852 75.3803 23.8184 76.9912 23.603C77.8682 23.4863 78.6826 23.0375 79.5597 22.9837C80.4367 22.9298 81.2869 22.6875 82.1639 22.6336C82.9962 22.5798 83.7301 22.1579 84.5445 22.0323C85.5199 21.8797 86.4775 21.5655 87.453 21.4668C89.0639 21.2873 90.639 20.9462 92.0082 20.6231C91.1938 20.5782 90.1915 20.7308 89.1802 20.7667C88.9744 20.7757 88.8133 20.6949 88.7238 20.5064C88.5806 20.2012 89.0012 19.1331 89.3413 19.0434C90.2363 18.7921 91.1222 18.5048 92.0709 18.5048C92.2857 18.5048 92.4915 18.5138 92.6794 18.6126C93.3685 18.9357 94.0845 18.828 94.7915 18.7113C95.6238 18.5677 96.474 18.6754 97.3063 18.5228C97.6105 18.4689 97.8343 18.6574 97.7627 19.0165C97.6821 19.3934 97.8432 19.4563 98.1564 19.4024C98.7203 19.3216 99.2841 19.2049 99.8479 19.0703C100.922 18.81 101.969 18.3612 103.114 18.4959C103.284 18.5138 103.454 18.4779 103.598 18.4151C105.047 17.7778 106.614 17.7688 108.144 17.5624C109.415 17.3919 110.578 16.97 111.777 16.5841C112.502 16.3507 113.218 16.0814 113.997 16.1981C114.247 16.234 114.498 16.1981 114.722 16.0814C115.124 15.866 115.581 15.9468 115.975 15.8391C116.861 15.6057 117.8 15.7762 118.633 15.4801C120.127 14.9505 121.693 14.6633 123.188 14.1158C123.528 13.9901 123.877 13.8644 124.038 13.5323C124.333 12.922 124.835 12.8322 125.425 12.8861C125.649 12.9759 125.873 13.0656 126.078 13.1913C125.926 12.9579 125.667 13.0028 125.461 12.913C125.282 12.7604 125.103 12.922 124.933 12.922C124.62 12.931 124.432 12.7515 124.298 12.5001C124.154 12.2309 124.271 12.0244 124.477 11.8449C124.745 11.6205 125.031 11.4231 125.282 11.1628C125.38 11.0551 125.533 10.9833 125.667 10.9922C126.875 11.1269 128.119 10.9743 129.3 11.4141C129.694 11.5667 129.81 11.9167 129.542 12.2398C129.363 12.4553 129.121 12.563 128.665 12.6258C128.638 12.6707 128.665 12.7156 128.719 12.6886C129.676 12.186 130.804 12.4732 131.788 12.0603C131.842 12.0334 131.896 12.0155 131.949 11.9975C132.128 11.9437 132.352 11.9078 132.45 11.7731C132.952 11.1358 133.641 11.2974 134.249 11.3872C135.028 11.5038 135.726 11.3154 136.442 11.1179C137.149 10.9204 137.811 10.4986 138.59 10.8127C138.724 10.8666 138.867 10.7768 138.992 10.696C140.227 9.97799 141.606 9.58306 142.912 9.02657C144.111 8.52393 144.38 8.03925 144.21 6.74676C144.165 6.41466 144.103 6.09154 144.237 5.76841C144.416 5.34656 144.174 5.19397 143.834 5.10422C142.715 4.82597 142.384 4.96061 141.722 5.93895C141.355 6.46851 141.212 6.47749 140.585 6.26207C139.914 6.02871 139.234 5.73251 138.491 5.83124C138.205 5.86715 137.963 5.72354 137.722 5.61583C137.283 5.41836 137.229 5.17602 137.534 4.79904C137.65 4.65543 137.856 4.53875 137.713 4.33231C137.587 4.14382 137.382 4.1887 137.212 4.29641C136.943 4.46695 136.701 4.38617 136.451 4.26051C136.397 4.23358 136.352 4.19768 136.317 4.1528C136.191 3.99124 136.075 3.80275 135.851 3.75787C135.484 3.67709 135.269 3.49758 135.243 3.09367C135.225 2.8244 135.019 2.77055 134.786 2.79748C134.643 2.81543 134.464 2.84236 134.383 2.95006C133.936 3.57836 133.113 3.65016 132.594 4.19768C132.262 4.54773 131.788 4.78109 131.341 4.96958C130.687 5.24783 130.159 4.817 130.159 4.08099C130.159 3.23728 130.159 3.23728 130.58 3.01289C130.249 3.0847 129.918 3.03982 129.596 3.14753C129.264 3.25524 128.942 3.17445 128.611 3.14753C128.361 3.1206 128.173 3.26421 128.038 3.4527C127.859 3.71299 127.564 3.7848 127.331 3.75787C126.257 3.59631 125.148 3.80275 124.101 3.4527C123.859 3.37192 123.707 3.5245 123.582 3.70402C123.385 4.00021 123.125 4.08997 122.776 4.00919C122.535 3.95533 122.266 3.96431 122.177 3.66811C122.087 3.37192 122.266 3.20138 122.472 3.0488C122.526 3.01289 122.552 2.95006 122.543 2.86928C122.4 2.69875 122.186 2.70772 122.051 2.8244C121.729 3.11162 121.273 3.30909 121.094 3.67709C120.655 4.54773 119.796 4.77212 119.044 5.14012C118.463 5.42734 118.069 5.24783 117.988 4.817C117.89 4.35026 118.319 3.73094 118.785 3.64119C118.982 3.60528 119.34 3.82968 119.349 3.47963C119.357 3.1565 118.991 3.33602 118.794 3.28216C118.525 3.21036 118.373 3.03982 118.31 2.77055C118.239 2.50128 118.06 2.39357 117.791 2.46538C117.541 2.53718 117.433 2.73465 117.433 2.98597C117.433 4.00021 117.29 4.17075 116.216 4.35026C116.091 4.37719 116.064 4.47592 115.984 4.52978C115.796 4.67339 115.608 4.70929 115.42 4.54773C115.25 4.38617 115.241 4.19768 115.33 3.98226C115.491 3.58733 115.814 3.28216 115.993 2.84236C115.608 2.79748 115.393 2.95904 115.241 3.22831C115.026 3.59631 114.731 3.70402 114.355 3.50655C114.104 3.38089 113.898 3.46167 113.657 3.57836C113.129 3.83865 112.601 4.16177 111.965 3.89251C111.84 3.83865 111.661 3.83865 111.536 3.89251C110.703 4.21563 109.764 4.2246 109.012 4.79007C108.502 5.16705 107.75 4.8529 107.696 4.26051C107.643 3.60528 107.33 3.30011 106.649 3.37192C106.327 3.39885 106.05 3.40782 105.772 3.21036C105.549 3.0488 105.28 3.14753 105.047 3.21933C104.233 3.47065 103.481 3.38987 102.756 2.94109C102.461 2.7526 102.139 2.89621 101.87 3.03982C101.163 3.42577 100.456 3.79377 99.6778 4.03612C99.0961 4.21563 98.6487 4.62851 98.3354 5.17602C97.8969 5.93895 97.1899 6.289 96.3397 6.36081C96.0086 6.38773 95.7133 6.30695 95.5969 5.93895C95.4985 5.59788 95.6685 5.37349 95.9639 5.23885C96.5187 4.97856 96.7156 4.43104 96.993 3.95533C97.2347 3.53348 97.4942 3.14753 98.0133 2.97699C97.2705 3.01289 96.5903 3.16548 95.946 3.44372C95.8117 3.49758 95.6506 3.5245 95.5253 3.47065C95.06 3.26421 94.6035 3.30011 94.1382 3.43475C93.7892 3.53348 93.5744 3.39885 93.5117 3.03982C93.467 2.97699 93.4312 2.90518 93.3864 2.84236C93.4312 2.90518 93.467 2.97699 93.5117 3.0488C93.3506 3.44372 92.5452 3.96431 92.1246 3.84763C91.695 3.71299 91.167 3.71299 90.8717 3.25523C90.6837 2.96801 90.451 2.98597 90.2631 3.23728C89.6724 4.03612 88.9028 4.07202 88.0437 3.80275C87.8647 3.7489 87.6767 3.75787 87.4977 3.82968C87.095 4.00021 86.6744 4.09895 86.2448 4.1887C85.8421 4.27846 85.5289 4.44002 85.2604 4.77212C84.8935 5.21192 84.4281 5.11319 84.1865 4.60158C83.9538 4.10792 83.5063 3.8207 82.9604 3.90148C82.3787 3.99124 81.8149 3.97329 81.2421 3.8207C80.7678 3.68607 80.3651 3.77582 79.9892 4.13485C79.6223 4.49387 79.1927 4.65543 78.7095 4.29641C78.5752 4.19768 78.4052 4.12587 78.2441 4.14382C77.725 4.20665 77.3581 4.00021 76.9912 3.63221C76.6153 3.24626 75.8009 3.38089 75.434 3.81172C74.7628 4.59261 73.9842 4.77212 73.0177 4.53875C72.248 4.35924 71.7379 3.82968 71.0936 3.47065C70.8967 3.36294 70.8072 3.16548 70.8877 2.93211C70.9683 2.69875 71.1562 2.60001 71.4068 2.55514C73.0087 2.27689 74.6286 2.25894 76.2394 2.30382C77.0807 2.33074 77.8056 2.09738 78.5663 1.87299C79.0495 1.72938 79.5328 1.63962 80.025 1.83708C80.5262 2.04352 81.0452 1.98967 81.5643 1.97172C82.674 1.92684 83.7927 2.0884 84.8845 1.7204C85.2962 1.58577 85.7437 1.7204 86.1822 1.71143C87.5156 1.6845 88.8402 1.51396 90.1647 1.29855C90.4152 1.25367 90.6569 1.27162 90.8896 1.3883C91.0596 1.46908 91.2386 1.62167 91.3997 1.59474C92.2588 1.44216 93.1627 1.63064 93.9592 1.46908C94.7378 1.30752 95.4537 1.32547 96.1965 1.39728C96.3845 1.41523 96.5724 1.46011 96.7514 1.39728C97.53 1.10108 98.3533 1.19981 99.1319 1.07416C100.17 0.903618 101.208 1.3165 102.211 0.957472C104.197 1.23572 106.175 0.849764 108.171 0.930545C109.701 0.993374 111.249 0.993374 112.789 0.831813C112.932 0.813862 113.075 0.831813 113.2 0.742056C114.068 0.733081 114.937 0.724105 115.805 0.724105C116.386 0.804886 116.959 0.885667 117.541 0.706154C118.364 0.697178 119.196 0.697178 120.02 0.688203C120.226 0.786935 120.44 0.786935 120.637 0.679227C122.293 0.661276 123.949 0.6523 125.604 0.643324C126.848 0.831813 128.092 0.849764 129.327 0.607422C129.452 0.607422 129.578 0.607422 129.694 0.607422C130.634 0.975423 131.591 0.679227 132.531 0.6523C133.148 0.643324 133.748 0.742056 134.357 0.760008C134.831 0.777959 135.296 0.786935 135.771 0.724105C136.496 0.616398 137.238 0.661276 137.972 0.760008C138.071 0.768983 138.169 0.79591 138.268 0.786935C139.485 0.643324 140.693 0.670251 141.883 1.01133C141.999 1.04723 142.125 1.07416 142.25 1.0562C143.261 0.912594 144.111 1.43318 145.033 1.67552C145.275 1.73835 145.49 1.84606 145.749 1.79221C146.259 1.6845 146.778 1.74733 147.28 1.7204C148.604 1.63962 149.553 2.49231 150.662 2.93211C151.871 3.40782 152.461 4.5208 153.383 5.29271C153.813 5.65173 153.839 6.2172 153.643 6.73778C153.49 7.13271 153.473 7.50071 153.625 7.88666C153.839 8.44315 153.795 8.93681 153.294 9.34072C153.052 9.52921 153.061 9.76257 153.159 10.0588C153.401 10.8307 152.604 11.7103 151.79 11.5308C151.853 12.1232 151.602 12.4104 150.985 12.4194C150.474 12.4283 150.206 12.8592 150.009 13.272C149.893 13.5234 149.785 13.7567 149.633 13.8285C149.821 13.7208 150.125 13.5772 150.412 13.4157C150.627 13.29 150.841 13.2631 151.047 13.4246C151.244 13.5772 151.217 13.7926 151.181 13.9901C151.056 14.7261 150.448 15.3364 149.696 15.4711C149.427 15.516 148.577 16.5212 148.568 16.7995C148.568 17.0328 148.729 17.1136 148.899 17.0598C149.427 16.9162 150.027 17.1405 150.492 16.6828C150.645 16.5392 150.895 16.593 151.092 16.62C151.468 16.6738 151.817 16.6918 152.184 16.5482C152.443 16.4494 152.694 16.5392 152.819 16.7905C152.962 17.0867 152.748 17.2483 152.515 17.3739C152.443 17.4098 152.372 17.4457 152.3 17.4996C151.701 17.9125 151.709 18.065 152.291 18.5138C152.721 18.8459 153.213 19.0703 153.66 19.3665C154.001 19.5909 154.314 19.6448 154.708 19.4922C155.218 19.3037 155.504 19.5909 155.388 20.1384C155.361 20.3 155.218 20.4705 155.37 20.6051C155.549 20.7757 155.79 20.6769 155.943 20.5692C156.318 20.3179 156.757 20.1833 157.061 19.8243C157.5 19.3306 158.135 19.4473 158.69 19.4473C158.994 19.4473 159.307 19.5999 159.639 19.6537C159.988 19.7076 160.131 20.0038 160.149 20.3448C160.158 20.6231 160.014 20.9013 159.755 20.8924C159.227 20.8744 158.923 21.2245 158.592 21.5027C158.153 21.8797 157.732 22.0592 157.222 21.6643C157.133 21.5925 156.999 21.5386 156.846 21.6732C156.99 22.0143 157.195 22.4631 156.766 22.6965C156.292 22.9568 155.728 23.2171 155.182 22.9209C154.86 22.7503 154.564 22.6067 154.188 22.6875C154.063 22.7054 153.929 22.6785 153.83 22.6067C153.338 22.2567 153.025 22.4811 152.774 22.9209C152.631 23.1722 152.47 23.4145 152.336 23.6748C152.076 24.1326 151.799 24.4647 151.173 24.5365C150.6 24.5993 150.143 25.1019 149.642 25.434C149.526 25.5058 149.454 25.6764 149.544 25.82C149.633 25.9636 149.776 25.82 149.875 25.8469C150.582 26.0534 151.28 25.8559 151.987 25.811C152.255 25.7931 152.461 25.9277 152.569 26.188C152.676 26.4662 152.488 26.6368 152.318 26.7714C152.005 27.0227 151.754 27.3099 151.513 27.6241C151.235 27.9921 150.868 28.1537 150.439 27.8216C150.322 27.7318 150.206 27.6061 150.063 27.7228C149.946 27.8216 150.027 27.9472 150.072 28.0639C150.233 28.4858 150.072 28.8179 149.741 29.0333C149.365 29.2846 148.944 29.3923 148.559 29.0063C148.532 28.9525 148.506 28.8986 148.506 28.8358C148.577 28.5576 148.47 28.2973 148.201 28.2793C147.459 28.2255 146.743 27.8844 145.955 28.2075C145.427 28.4229 144.935 28.6653 144.541 29.0602C144.264 29.3384 144.004 29.3833 143.655 29.2936C142.894 29.0961 141.767 29.4731 141.292 30.0744C141.096 30.3168 140.881 30.4155 140.594 30.3078C140.299 30.1911 140.227 29.9488 140.227 29.6526C140.227 29.4731 140.397 29.1769 140.066 29.1499C139.825 29.132 139.744 29.3923 139.735 29.6077C139.717 29.9129 139.583 30.1014 139.332 30.254C138.948 30.4783 138.787 30.8643 138.625 31.2413C138.518 31.4926 138.42 31.7888 138.071 31.708C137.722 31.6272 137.784 31.3041 137.775 31.0438C137.775 30.963 137.784 30.8733 137.784 30.7386C137.095 31.5644 136.191 32.1388 135.636 33.0364C135.502 33.2518 135.296 33.4583 135.082 33.6108C134.876 33.7544 134.643 33.916 134.41 33.6916C134.213 33.5031 134.276 33.2698 134.392 33.0633C134.464 32.9377 134.554 32.821 134.58 32.6774C134.634 32.3991 134.545 32.2286 134.24 32.2106C134.204 32.2106 134.151 32.2017 134.115 32.2106C133.059 32.6863 131.77 32.2914 130.804 33.1621C130.526 33.4134 130.097 33.4852 129.739 33.3146C128.692 32.83 127.716 33.2608 126.732 33.5031C126.329 33.6019 125.962 33.7634 125.533 33.7634C125.21 33.7634 124.87 33.8263 124.62 34.0865C124.432 34.293 124.163 34.2571 123.931 34.3109C123.725 34.3558 123.474 34.3827 123.537 34.67C123.591 34.9123 123.823 34.9392 124.038 34.9303C124.19 34.9213 124.324 34.7777 124.441 34.7956C125.166 34.8674 125.819 34.8315 126.302 34.1584C126.392 34.0237 126.705 34.0776 126.812 34.2212C127.242 34.7956 127.842 34.7148 128.441 34.7328C129.077 34.7507 129.291 35.0918 129.094 35.7201C129.434 35.0739 129.739 34.9572 130.329 35.2624C130.383 35.2893 130.437 35.3611 130.491 35.3521C131.502 35.2893 132.54 35.5227 133.533 35.2354C134.034 35.0918 134.473 34.9303 134.929 35.2893C135.099 35.4329 135.323 35.388 135.52 35.4329C136.012 35.5316 136.227 36.0163 135.923 36.4382C135.627 36.851 135.332 37.3088 134.697 37.246C134.545 37.228 134.383 37.3627 134.213 37.2909C134.026 37.1562 133.82 37.1293 133.578 37.1293C132.978 37.1293 132.415 37.3357 131.699 37.2639C131.958 37.4434 132.137 37.4075 132.271 37.5152C132.603 37.8025 132.961 37.8473 133.363 37.6678C133.533 37.596 133.73 37.5781 133.9 37.6768C134.464 37.973 134.929 37.8473 135.314 37.2998C135.753 36.6626 136.191 36.6626 136.585 37.2998C136.997 37.973 138.08 38.0987 138.822 37.4614C138.16 37.4793 137.605 37.3627 137.059 37.1293C136.531 36.9049 136.415 36.7882 136.513 36.1509C136.531 36.0971 136.558 36.0432 136.594 35.9984C137.355 35.388 138.232 35.4149 139.109 35.5496C139.538 35.6124 139.932 35.6214 140.281 35.3431C141.131 34.6969 142.098 34.9662 143.02 35.011C143.261 35.02 143.512 35.1547 143.548 35.4508C143.583 35.747 143.315 35.8099 143.145 35.9355C143.055 36.0073 142.903 36.0163 142.912 36.3035C143.378 35.5316 144.058 35.4957 144.756 35.5496C145.266 35.5855 145.785 35.2085 146.304 35.6124C146.376 35.6752 146.635 35.4778 146.778 35.379C147.154 35.1367 147.557 35.1098 147.969 35.1636C148.935 35.2713 149.902 35.3072 150.868 35.5586C151.647 35.756 152.587 35.9266 153.392 35.388C153.598 35.2534 153.813 35.2534 154.045 35.3252C154.439 35.4508 154.815 35.5765 155.2 35.2354C155.379 35.0739 155.638 35.1636 155.808 35.3521C155.96 35.5227 155.978 35.7022 155.88 35.9176C155.638 36.4292 155.325 36.8331 154.716 36.8959C154.573 36.9139 154.421 36.9677 154.332 37.0844C154.001 37.5601 153.634 37.5691 153.106 37.3447C152.22 36.9767 151.593 37.1383 151.19 37.6589C150.94 37.991 150.877 38.323 151.047 38.7629C151.611 38.0269 152.354 38.359 153.034 38.4038C153.258 38.4218 153.499 38.5474 153.687 38.4038C154.233 37.9999 154.833 38.1256 155.406 38.2333C156.014 38.35 156.596 38.323 157.169 38.1166C157.231 38.1166 157.285 38.1256 157.339 38.1346C157.518 38.1525 157.723 38.2782 157.858 38.0897C158.207 37.596 158.538 37.7576 158.887 38.0717C158.994 38.1615 159.102 38.2692 159.263 38.2333C159.281 38.2153 159.299 38.1974 159.299 38.1794C159.272 37.7755 159.227 37.3268 159.746 37.228C160.185 37.1383 160.542 37.3537 160.766 37.7576C161.035 38.2333 161.455 38.4038 161.965 38.341C162.476 38.2782 162.977 38.1794 163.505 38.2333C163.702 38.2512 163.925 38.2064 164.033 37.9371C163.353 37.7486 162.681 37.5691 161.974 37.6499C161.428 37.7127 160.954 37.5511 160.525 37.237C160.202 37.0036 159.943 37.0575 159.567 37.1831C158.923 37.4075 158.278 37.9191 157.509 37.4524C157.07 37.1921 157.088 36.8241 157.151 36.4292C157.213 36.0432 157.491 35.9355 157.867 35.8907C158.484 35.8188 159.093 35.7919 159.71 35.774C159.943 35.765 160.185 35.747 160.364 35.6124C160.73 35.3431 161.124 35.3162 161.536 35.4508C161.742 35.5137 161.956 35.4688 162.135 35.379C162.61 35.1457 163.093 35.2175 163.505 35.4598C163.943 35.7291 164.391 35.6932 164.802 35.5675C165.518 35.3521 166.181 35.2624 166.897 35.5945C167.272 35.765 167.711 35.8099 168.167 35.7022C168.776 35.5586 169.197 35.9176 169.51 36.3843C169.716 36.6985 169.555 37.2101 169.188 37.2998C168.812 37.3986 168.543 37.614 168.257 37.8653C167.791 38.2692 167.246 38.3769 166.655 38.0269C166.225 37.7666 165.769 37.6948 165.402 38.1794C165.339 38.2243 165.259 38.2512 165.178 38.2333C165.259 38.2512 165.33 38.2153 165.402 38.1794C165.67 37.9012 165.912 37.7666 166.306 38.0358C166.592 38.2333 166.995 38.359 167.362 38.3141C167.881 38.2512 168.4 38.3679 168.803 38.5923C169.528 38.9872 170.19 38.727 170.897 38.6731C171.55 38.6192 172.177 38.4756 172.821 38.3949C173.313 38.341 173.43 38.1974 173.197 37.7755C172.946 37.3178 173.17 37.0126 173.412 36.6536C173.644 36.2946 173.931 36.2317 174.316 36.2856C175.524 36.4382 176.723 36.4292 177.94 36.2946C178.674 36.2138 179.461 36.115 180.195 36.4292C180.705 36.6446 181.216 36.4202 181.726 36.4292C182.468 36.4471 183.175 36.5638 183.542 37.3357C183.632 37.5242 183.784 37.587 183.945 37.5152C184.285 37.3716 184.679 37.4075 184.992 37.1831C185.708 36.6715 186.469 36.9049 187.176 37.1562C187.462 37.2639 187.731 37.3896 188.044 37.3896C188.375 37.3896 188.697 37.4614 189.001 37.605C189.386 37.7845 189.61 38.1615 189.538 38.5026C189.458 38.8706 189.207 39.2924 188.697 39.2745C188.071 39.2565 187.444 39.463 186.8 39.2834C186.496 39.1937 186.156 39.2027 185.816 39.2745C185.332 39.3732 184.876 39.2027 184.419 39.0591C183.757 38.8436 183.122 38.6372 182.513 39.2296C182.227 39.5078 181.824 39.436 181.556 39.1668C181.019 38.6282 180.24 38.9065 179.649 38.5564C179.479 38.4577 179.318 38.6551 179.175 38.7898C178.871 39.068 178.513 39.1039 178.244 38.7718C177.895 38.341 177.43 38.341 176.965 38.2602C176.589 38.1974 176.428 38.4577 176.347 38.7359C176.249 39.077 176.553 39.077 176.768 39.1129C176.947 39.1398 177.045 39.2655 177.17 39.3822C177.645 39.8669 178.083 39.9297 178.584 39.5078C179.095 39.086 179.587 39.095 180.115 39.4091C180.401 39.5796 180.723 39.7143 181.054 39.6784C181.484 39.6335 181.547 40.1272 181.833 40.181C182.146 40.2438 182.325 39.7143 182.701 39.813C183.193 39.9387 183.623 39.8758 184.061 39.6066C184.258 39.4809 184.5 39.5707 184.697 39.7322C184.912 39.9028 185.117 39.8848 185.314 39.7143C185.995 39.1129 186.728 39.1578 187.489 39.5168C187.937 39.7322 188.473 39.831 188.518 40.5131C188.536 40.7914 188.814 41.0247 189.172 40.926C189.565 40.8183 190.004 40.7465 190.129 40.2528C190.183 40.0374 190.04 39.9028 189.87 39.804C189.664 39.6873 189.431 39.6873 189.216 39.6155C189.163 39.5886 189.118 39.5437 189.082 39.4899C189.001 39.3104 189.1 39.1757 189.198 39.0411C189.422 38.7539 189.646 38.4936 189.494 38.0448C189.386 37.7307 189.771 37.4345 190.147 37.5063C190.389 37.5511 190.648 37.5601 190.863 37.6948C191.48 38.0897 192.223 37.7307 192.841 38.0448C192.841 38.0448 192.877 38.0538 192.903 38.0358C193.521 37.4883 194.013 37.973 194.604 38.1435C195.606 38.4397 196.671 38.5115 197.727 38.3679C198.103 38.3141 198.336 38.3231 198.542 38.7C198.819 39.2116 199.266 39.1488 199.732 38.9783C200.439 38.709 200.85 38.8436 201.262 39.5168C201.37 39.6873 201.495 39.7322 201.665 39.7322C202.193 39.7322 202.676 39.9117 203.177 40.0194C204.117 40.2349 205.092 40.2708 206.041 40.2977C206.784 40.3246 207.249 40.7644 207.813 41.0606C207.974 41.1504 207.992 41.3658 208.001 41.5633C208.01 42.2095 208.448 42.4429 208.985 42.1197C209.415 41.8505 209.657 41.9223 209.836 42.407C209.979 42.8198 210.247 43.134 210.668 43.116C211.16 43.0981 211.455 43.2686 211.634 43.6995C211.724 43.9149 211.966 44.0136 212.046 44.229C212.225 43.7982 212.529 43.6995 212.905 43.9777C213.075 44.1034 213.254 44.1752 213.46 44.229C213.702 44.2918 213.818 44.4624 213.872 44.7137C214.113 45.8895 214.31 47.0653 213.863 48.2411C214.194 48.3309 214.337 48.8156 214.811 48.6361C214.99 48.5643 214.838 48.7527 214.847 48.8245C214.865 48.9771 214.91 49.0579 215.116 49.04C215.51 49.0041 215.85 49.1836 216.091 49.5067C216.208 49.6683 216.297 49.5157 216.404 49.4887C216.574 49.4439 216.709 49.2464 216.924 49.399C216.968 49.7042 216.574 49.5695 216.566 49.8208C216.673 49.9734 216.852 49.6683 217.022 49.8029C217.111 49.8747 217.255 49.9016 217.29 50.0273C217.344 50.2337 217.156 50.1619 217.067 50.2158C216.548 50.512 217.013 50.5568 217.192 50.6466C217.174 50.88 216.986 50.862 216.915 50.8171C216.333 50.5568 215.939 50.9877 215.554 51.248C215.08 51.5711 215.375 51.9391 215.787 52.2712C215.223 52.3879 214.695 52.2981 214.221 52.6212C214.033 52.7469 213.89 52.1994 213.603 52.1007C212.288 51.6429 211.25 52.0648 210.444 53.079C210.489 53.0521 210.552 52.9713 210.623 52.8905C210.775 52.72 210.91 52.5135 211.187 52.6392C211.455 52.7559 211.527 52.9803 211.473 53.2585C211.429 53.4739 211.429 53.6804 211.688 53.7701C211.939 53.8599 212.252 53.9945 212.44 53.7342C212.726 53.3213 213.12 53.3483 213.532 53.3483C213.827 53.1688 214.257 53.1957 214.507 53.4021C214.713 53.5727 214.436 53.6355 214.445 53.7342C214.462 53.9317 214.382 54.2369 214.615 54.2907C214.803 54.3356 214.838 54.0573 214.883 53.8868C214.999 53.3931 215.447 53.1508 215.733 52.7828C215.912 52.5584 216.19 52.4148 216.029 52.0109C215.957 51.8134 217.156 51.0595 217.425 51.0505C217.81 51.0505 217.809 51.3736 217.675 51.4993C216.897 52.2353 217.944 52.1994 218.042 52.6033C217.836 52.6661 217.622 52.7828 217.299 52.729C217.031 52.6841 216.664 52.6751 216.601 53.1598C216.539 53.6714 215.957 53.1688 215.787 53.5727C215.912 53.6534 215.859 53.8958 216.234 53.9407C216.583 53.9855 216.655 54.551 216.807 54.8921C216.825 54.937 216.628 55.3139 216.36 55.0716C216.208 54.937 215.966 54.8113 215.894 55.0177C215.68 55.6281 215.617 54.919 215.483 54.9998C215.25 55.2062 215.196 55.6191 214.785 55.664C214.794 55.7358 214.785 55.8076 214.767 55.8614Z" fill="#00D8DA"/>
</svg>
