<svg width="338" height="367" viewBox="0 0 338 367" fill="none" xmlns="http://www.w3.org/2000/svg">
<path d="M114.991 151.289C115.222 151.136 115.421 150.985 115.593 150.828C115.764 150.671 116.081 150.695 116.547 150.874C116.537 150.054 116.473 149.566 116.355 149.391C116.245 149.877 115.962 150.113 115.502 150.085C115.031 150.061 114.862 150.46 114.991 151.289C114.427 152.084 113.738 152.534 112.941 152.666C111.669 152.29 110.123 152.479 108.293 153.235C106.467 154.003 104.691 154.363 102.967 154.335L102.96 153.609C101.591 154.246 100.305 154.677 99.1051 154.914C97.9054 155.152 96.4436 155.358 94.7312 155.531C94.6151 155.209 94.6109 155.012 94.7259 154.926C94.8373 154.848 94.8962 154.649 94.8865 154.319C93.6276 154.655 92.6343 155.198 91.8978 155.928C91.1576 156.665 90.1097 157.133 88.7381 157.323C88.7338 156.84 88.6686 156.601 88.5621 156.608C87.7717 157.752 86.6683 158.31 85.2359 158.274C83.8079 158.249 82.6982 158.655 81.9105 159.487C82.13 158.68 82.1563 158.362 81.9813 158.526C81.8144 158.694 81.7261 158.378 81.7166 157.577C81.0355 157.929 80.6385 158.269 80.5293 158.589C80.4164 158.917 80.5372 159.066 80.8764 159.046C81.2155 159.026 81.3905 158.862 81.3852 158.545C81.6195 158.857 81.5322 159.133 81.1357 159.39C80.7393 159.647 80.3696 159.789 80.0224 159.804C80.2419 158.998 80.1226 158.6 79.6653 158.63C79.3315 158.967 79.332 159.171 79.6743 159.227C80.0129 159.29 80.0803 159.484 79.8528 159.814C76.8924 160.772 74.202 161.663 71.761 162.467C69.3207 163.29 66.6282 164.226 63.6842 165.295C63.9063 164.647 64.1272 164.351 64.3586 164.402C64.5864 164.461 64.9831 164.306 65.5489 163.937C64.6316 163.551 63.7024 163.639 62.7378 164.208C61.7732 164.776 60.8451 165.272 59.941 165.68C60.1718 166.286 60.6299 166.275 61.3036 165.651C61.9736 165.033 62.5472 164.854 63.0009 165.118C62.3249 165.973 61.1402 166.571 59.4386 166.906C57.1799 168.105 54.8915 169.159 52.5734 170.067C50.256 170.994 48.1397 171.91 46.2282 172.807C45.2218 173.89 43.8675 174.784 42.1743 175.512C40.4893 176.246 39.0212 176.874 37.7855 177.389C37.4462 177.593 37.1663 177.802 36.9452 177.997C36.7159 178.187 36.4978 178.458 36.2712 178.807C35.2557 179.292 34.1046 179.843 32.8142 180.466C31.5238 181.09 30.3198 181.889 29.1985 182.873C28.0693 183.093 27.1764 183.581 26.5074 184.319C25.8384 185.057 24.9419 185.552 23.8171 185.784C21.9157 187.399 19.619 188.92 16.9315 190.359C14.2485 191.809 11.7886 193.492 9.55901 195.391C9.22309 195.774 8.97456 196.166 8.80612 196.584C8.64132 196.994 8.38914 197.394 8.0532 197.776C5.81188 198.06 4.53084 197.291 4.18588 195.457C3.8446 193.615 3.66549 191.491 3.65303 189.097C7.66034 185.459 11.8667 182.142 16.2767 179.158C20.6845 176.219 25.195 173.465 29.7881 170.894C34.3837 168.381 39.0215 166.029 43.6898 163.842C48.3606 161.711 52.9569 159.504 57.4737 157.188C59.3947 156.805 61.5751 156.007 64.0033 154.798C66.4359 153.601 68.7875 152.831 71.0617 152.482C71.2863 152.465 71.3719 152.336 71.3147 152.101C71.2494 151.862 71.335 151.733 71.5677 151.72C71.9104 151.693 72.1891 151.835 72.4271 152.14C73.785 151.239 75.5942 150.545 77.8755 150.08C80.1494 149.629 82.0784 148.964 83.6661 148.076C84.9277 148.186 86.0929 147.976 87.17 147.45C88.247 146.924 89.245 146.494 90.1551 146.136C90.2729 146.783 90.5625 146.903 91.0194 146.484C91.4727 146.073 91.8087 145.691 92.0361 145.361C92.8377 145.342 93.6673 145.33 94.5284 145.316C95.3859 145.309 96.1614 145.137 96.8433 144.804C97.0697 144.64 97.2982 144.43 97.5251 144.183C97.752 143.936 98.0318 143.727 98.3809 143.565C98.6063 143.567 98.7518 143.646 98.814 143.809C98.8761 143.972 99.018 144.059 99.247 144.053C99.594 144.223 99.936 144.177 100.277 143.927C100.615 143.685 101.018 143.478 101.47 143.316C102.269 143.157 103.13 143.124 104.051 143.216C104.968 143.316 105.593 142.952 105.931 142.136C106.735 142.646 107.487 142.582 108.172 141.935C108.981 142.291 109.896 142.353 110.931 142.137C111.966 141.92 113.054 141.678 114.197 141.391C115.343 141.115 116.464 140.872 117.551 140.675C118.645 140.482 119.646 140.497 120.576 140.715C122.527 140.006 124.649 139.694 126.964 139.775C129.269 139.878 131.579 139.622 133.881 138.993C134.113 139.35 134.583 139.521 135.278 139.51C135.973 139.498 136.544 139.345 137.006 139.059C140.014 139.053 142.385 139.025 144.122 138.986C145.856 138.955 148.054 138.861 150.725 138.727C151.188 139.136 151.744 139.382 152.388 139.472C153.029 139.57 153.456 139.293 153.678 138.645C154.271 139.411 155.142 139.541 156.296 139.047C159.673 139.759 162.937 140.105 166.078 140.078C169.22 140.071 172.199 140.696 175.026 141.952C175.258 141.838 175.397 141.644 175.458 141.4C175.511 141.151 175.653 141.052 175.892 141.108C176.833 141.304 177.852 141.57 178.965 141.895C180.073 142.228 180.925 142.459 181.519 142.587C181.99 142.694 182.428 142.663 182.828 142.501C183.228 142.339 183.73 142.324 184.32 142.459C187.244 142.805 189.92 143.461 192.335 144.41C194.751 145.378 197.312 146.138 200.015 146.697C200.955 146.957 202.019 147.257 203.194 147.58C204.374 147.914 205.255 148.087 205.844 148.082C209.269 149.089 212.605 150.232 215.868 151.502C219.124 152.806 222.231 153.871 225.194 154.692C233.762 158.923 242.196 162.989 250.496 166.871C258.812 170.947 267.188 175.888 275.627 181.687C277.677 183.179 279.671 184.658 281.613 186.119C283.552 187.587 285.43 189.3 287.258 191.254C290.522 193.422 293.684 196.183 296.736 199.513C299.784 202.87 302.553 206.518 305.021 210.457C305.411 212.057 305.826 213.485 306.271 214.772C306.711 216.048 307.131 217.487 307.521 219.068C307.294 219.806 307.123 220.435 307.019 220.971C306.903 221.509 306.799 222.434 306.707 223.744C305.966 222.658 305.084 222.078 304.067 222.035C303.041 221.987 302.12 222.08 301.279 222.299C301.036 222.168 300.913 221.758 300.896 221.074C300.06 221.305 299.335 221.171 298.729 220.676C298.124 220.181 297.392 219.793 296.554 219.514C297.259 218.869 298.122 218.523 299.144 218.476C300.158 218.424 300.957 217.877 301.546 216.827C301.172 216.115 300.65 215.536 299.988 215.093C299.325 214.651 298.917 213.967 298.787 213.036C299.029 213.333 299.401 213.618 299.878 213.877C299.633 213.402 299.198 212.833 298.589 212.16C297.976 211.495 297.556 211.266 297.324 211.483C292.691 206.999 288.142 203.125 283.662 199.853C279.188 196.63 274.842 193.44 270.611 190.266C270.369 190.153 270.245 189.928 270.243 189.585C270.24 189.241 270.17 188.869 270.046 188.46C269.465 189.228 268.697 189.385 267.73 188.953C266.767 188.514 265.81 187.92 264.844 187.138C263.875 186.362 262.971 185.622 262.127 184.905C261.279 184.195 260.623 183.821 260.148 183.785C259.793 183.63 259.599 183.034 259.583 181.998C259.338 181.893 259.195 181.87 259.134 181.93C259.073 181.99 258.93 181.967 258.692 181.866C258.687 181.345 258.857 181.252 259.218 181.578C259.216 181.234 259.15 181.078 259.032 181.107C258.911 181.143 258.785 180.964 258.666 180.566C258.555 181.033 258.349 181.116 258.048 180.814C257.747 180.511 257.47 180.222 257.229 179.944C256.985 179.672 256.715 179.471 256.421 179.339C256.124 179.215 255.917 179.38 255.806 179.847C256.047 180.126 256.41 180.406 256.893 180.696C257.371 180.993 257.738 181.534 257.988 182.327C256.32 182.125 254.739 181.461 253.236 180.313C251.73 179.173 250.157 178.782 248.504 179.144C248.147 178.83 247.987 178.595 248.052 178.445C248.105 178.298 248.195 178.078 248.305 177.777C247.703 177.192 247.157 176.803 246.687 176.613C246.209 176.418 245.898 175.787 245.762 174.704C245.521 174.611 245.468 174.758 245.591 175.148C245.713 175.539 245.724 175.887 245.606 176.184C243.58 175.381 241.789 174.604 240.239 173.837C238.686 173.078 237.255 172.32 235.943 171.572C234.628 170.83 233.286 170.121 231.922 169.455C230.555 168.797 229.038 168.252 227.381 167.843C227.615 167.582 227.658 167.087 227.529 166.36C227.288 166.451 226.761 166.517 225.937 166.579C225.114 166.641 224.698 166.24 224.678 165.378C223.967 165.482 223.377 165.283 222.902 164.775C222.885 164.09 223.175 163.841 223.772 164.044C223.642 163.483 223.521 163.316 223.411 163.534C223.294 163.748 223.063 163.715 222.703 163.427C222.716 164.119 222.365 164.429 221.659 164.36C221.661 164.704 221.781 164.917 222.021 164.991C220.841 164.944 219.543 164.721 218.12 164.338C216.702 163.966 215.457 163.698 214.399 163.531C214.158 163.456 214.099 163.267 214.213 162.958C214.323 162.657 214.38 162.42 214.377 162.242C213.914 162.611 212.942 162.519 211.456 161.972C209.976 161.437 208.885 161.151 208.179 161.101C207.942 161.204 207.881 160.977 207.992 160.408C208.099 159.846 208.038 159.618 207.805 159.714C207.449 159.604 207.282 159.773 207.284 160.199C207.294 160.63 207.114 160.783 206.762 160.685C206.409 160.752 206.258 160.624 206.319 160.296C206.369 159.971 206.454 159.74 206.571 159.609C205.875 160.259 205.111 160.242 204.282 159.579C203.452 158.916 202.794 158.689 202.332 158.892C202.089 158.658 201.886 158.345 201.704 157.95C201.518 157.562 201.251 157.232 200.896 156.956C200.775 157.094 200.664 157.192 200.548 157.239C200.427 157.295 200.317 157.392 200.2 157.523C200.202 157.866 200.3 158.021 200.472 157.985C200.644 157.949 200.678 158.087 200.564 158.396C199.623 158.302 198.772 158.071 198.005 157.693C197.235 157.321 196.383 157.09 195.447 157.008C195.677 156.735 195.674 156.474 195.431 156.241C195.205 156.692 195.004 156.805 194.825 156.587C194.646 156.37 194.555 156.099 194.545 155.751C193.961 155.767 193.23 155.787 192.35 155.819C191.47 155.85 190.909 155.491 190.661 154.755C190.315 155.178 189.91 155.328 189.435 155.209C188.968 155.095 188.465 154.97 187.933 154.839C187.402 154.708 186.933 154.639 186.529 154.623C186.114 154.611 185.743 154.817 185.397 155.24C184.451 154.847 183.606 154.564 182.843 154.382C182.077 154.207 181.288 153.77 180.453 153.076C179.995 153.476 179.325 153.621 178.443 153.513C177.569 153.409 176.626 153.156 175.634 152.775C174.638 152.402 173.643 152.149 172.646 152.025C171.653 151.912 170.812 152.029 170.115 152.392L170.104 151.636C165.79 151.313 161.275 150.919 156.556 150.46C151.844 150.069 147.347 150.091 143.072 150.53C142.838 150.505 142.724 150.239 142.715 149.744C142.366 149.703 142.168 149.891 142.113 150.287C142.063 150.695 141.858 150.797 141.509 150.589L141.493 149.35C140.809 150.098 139.914 150.242 138.807 149.781C137.698 149.327 136.973 148.925 136.618 148.547C136.507 149.033 136.565 149.286 136.8 149.312C137.034 149.337 137.151 149.595 137.156 150.097C136.227 150.001 135.7 149.779 135.584 149.438C135.121 149.724 134.642 150.001 134.12 150.283C133.607 150.568 133.058 150.678 132.482 150.615C132.48 150.291 132.592 150.129 132.827 150.155C133.053 150.175 133.169 150.026 133.171 149.694C132.592 149.639 132.247 149.813 132.137 150.216C132.028 150.619 131.801 150.885 131.455 151.021C130.528 150.777 129.948 150.601 129.714 150.493C129.476 150.392 128.848 150.291 127.809 150.209C127.463 150.345 127.382 150.505 127.552 150.68C127.729 150.86 127.7 151.02 127.473 151.165C127.237 150.815 126.948 150.714 126.602 150.85C126.256 150.986 125.938 151.128 125.651 151.269C125.364 151.409 125.075 151.474 124.789 151.449C124.5 151.431 124.292 151.087 124.173 150.421C123.138 151.007 122.224 151.27 121.419 151.213C120.611 151.163 119.524 151.258 118.143 151.508C117.794 151.486 117.732 151.239 117.962 150.762C118.183 150.281 118.01 150.03 117.432 149.994C117.091 149.975 116.919 150.132 116.921 150.457C116.931 150.786 116.873 151.106 116.764 151.427C116.08 151.722 115.501 151.769 115.039 151.583L114.991 151.289ZM46.8351 165.243C47.0642 165.524 47.3212 165.525 47.5943 165.247C47.8754 164.974 47.8997 164.7 47.6742 164.411C47.5613 164.739 47.362 164.89 47.0837 164.85C46.8017 164.817 46.7161 164.947 46.8351 165.243ZM50.2094 163.112C49.989 163.613 50.0498 163.84 50.3837 163.79C50.7257 163.744 50.6649 163.517 50.2094 163.112ZM51.7401 163.137C52.639 162.7 53.4888 162.318 54.2771 161.978C55.0654 161.638 55.9121 161.181 56.8128 160.596C56.2373 160.348 55.3699 160.498 54.1828 161.038C53.0001 161.591 52.1835 162.295 51.7401 163.137ZM54.4661 163.959C54.6889 164.089 55.086 164.036 55.6536 163.807C56.2175 163.586 56.6088 163.298 56.8317 162.957C55.592 162.802 54.7957 163.138 54.4661 163.959ZM57.3514 162.905C57.9206 163.001 58.2568 162.721 58.3644 162.076C57.6841 162.16 57.3435 162.429 57.3514 162.905ZM59.3584 159.358C60.1585 159.588 60.6593 159.369 60.8851 158.715C60.4207 158.287 59.9118 158.501 59.3584 159.358ZM62.2408 158.33C62.0151 158.513 61.7869 158.537 61.556 158.403C61.3251 158.268 61.2145 158.366 61.2234 158.676C61.3388 158.979 61.5366 159.077 61.8248 158.974C62.1005 158.856 62.246 158.648 62.2408 158.33C63.8296 157.85 65.4983 157.293 67.2505 156.652C69.007 156.022 70.5038 155.418 71.7524 154.837C69.8194 154.834 68.1437 155.221 66.7325 155.982C65.3177 156.751 63.8243 157.533 62.2408 158.33ZM62.9973 165.126C63.2194 164.478 63.3279 164.426 63.339 164.978C63.3383 165.533 63.2254 165.573 62.9973 165.126ZM64.1301 160.04C64.693 159.984 64.9786 159.723 64.9707 159.246C64.3013 159.309 64.0121 159.578 64.1301 160.04ZM65.3192 159.454C65.8876 159.244 66.3629 159.076 66.7612 158.959C67.1596 158.842 67.4671 158.537 67.6874 158.036C67.4591 158.061 67.0624 158.216 66.4971 158.501C65.9363 158.799 65.5422 159.112 65.3192 159.454ZM66.2184 163.403C65.9936 163.892 66.0231 163.935 66.3061 163.515C66.5773 163.098 66.5559 163.058 66.2184 163.403ZM68.0814 162.766C68.5359 163.05 68.7615 162.867 68.7591 162.236C68.5308 162.26 68.3062 162.277 68.0816 162.294C67.8489 162.307 67.8515 162.466 68.0814 162.766ZM68.2256 159.67C68.3426 160.298 68.4073 160.333 68.3999 159.774C68.3925 159.215 68.3278 159.18 68.2256 159.67ZM68.5483 158.207C68.6586 157.721 68.9901 157.614 69.5664 157.88C70.1391 158.154 70.3611 157.978 70.2441 157.35C70.1206 157.043 69.7014 157.038 68.9629 157.34C68.2281 157.636 68.0902 157.931 68.5483 158.207ZM72.1275 157.206C71.9029 157.223 71.8413 157.264 71.959 157.337C72.0686 157.405 72.1301 157.365 72.1275 157.206C72.2394 157.045 72.2383 156.924 72.1243 156.843C72.0066 156.77 72.0077 156.891 72.1275 157.206ZM218.414 153.994C217.588 153.897 216.82 153.869 216.122 153.907C215.416 153.941 214.702 153.415 213.973 152.325C211.966 151.875 210.05 151.428 208.224 150.965C206.391 150.517 204.467 149.575 202.451 148.139C202.347 148.795 202.201 148.882 202.019 148.404C201.837 147.926 201.634 148.084 201.41 148.879C200.928 148.405 200.579 148.178 200.342 148.198C200.106 148.218 199.64 148.224 198.931 148.201C197.156 147.043 195.443 146.54 193.81 146.718C192.173 146.904 190.874 146.273 189.918 144.838C189.807 145.324 189.582 145.526 189.227 145.435C188.879 145.349 188.456 145.249 187.989 145.134C187.98 144.62 187.857 144.331 187.625 144.28C187.628 144.623 187.577 144.827 187.457 144.882C187.345 144.942 187.286 145.058 187.285 145.224C184.937 144.839 182.603 144.507 180.26 144.236C177.921 143.976 175.399 143.403 172.709 142.509C170.844 142.821 168.807 142.678 166.592 142.088C164.371 141.512 162.275 141.402 160.305 141.74C159.95 141.177 159.566 140.978 159.162 141.167C158.759 141.355 158.378 141.417 158.036 141.361C157.222 141.567 156.41 141.525 155.592 141.229C154.773 140.933 153.962 140.724 153.147 140.606C151.985 140.604 150.859 140.817 149.766 141.252C148.67 141.694 147.651 141.345 146.711 140.205C146.142 140.97 145.568 141.149 144.982 140.739C144.396 140.328 143.642 140.067 142.712 139.952C142.369 140.081 142.282 140.274 142.464 140.548C142.645 140.822 142.555 141.023 142.216 141.145C140.59 141.124 139.06 141.2 137.621 141.382C136.178 141.571 134.81 141.181 133.525 140.215C133.297 140.36 133.098 140.594 132.929 140.91C132.756 141.233 132.501 141.455 132.155 141.591C131.685 141.216 131.399 141.191 131.29 141.511C131.177 141.838 130.89 141.979 130.43 141.933C128.456 141.436 126.524 141.452 124.637 141.974C122.742 142.51 120.814 142.639 118.846 142.358C118.734 142.52 118.675 142.719 118.682 142.972C118.68 143.221 118.571 143.255 118.338 143.082C114.778 143.575 111.042 144.048 107.144 144.515C103.244 145.028 99.8717 145.863 97.0219 147.01C96.7841 146.521 96.4431 146.4 95.9872 146.653C95.5312 146.905 95.1303 146.864 94.7851 146.547C94.7964 147.201 94.569 147.531 94.1146 147.534C92.8504 147.552 91.3429 147.993 89.5841 148.852C87.8215 149.719 86.3083 149.925 85.0451 149.49C84.5973 150.321 84.0874 150.701 83.5197 150.643C82.9484 150.592 82.3808 150.821 81.8169 151.33C80.564 151.714 79.0004 152.041 77.1225 152.318C75.2409 152.602 73.915 153.419 73.1324 154.753C79.714 152.567 86.486 150.494 93.4404 148.529C100.4 146.696 107.045 145.47 113.36 144.842C120.251 143.537 126.724 142.735 132.782 142.413C138.848 142.196 145.244 142.205 151.971 142.457C159.293 142.588 166.996 143.149 175.114 144.156C183.243 145.345 191.311 147.167 199.318 149.604C200.139 149.485 200.604 149.358 200.717 149.215C204.734 150.867 208.122 152.03 210.901 152.685C213.676 153.367 216.9 154.468 220.573 156.007C226.978 158.519 233.553 161.41 240.291 164.694C247.037 168.104 254.185 171.926 261.746 176.194C261.368 174.814 260.752 174.072 259.918 173.971C259.084 173.871 258.242 173.21 257.389 171.979C257.151 171.878 256.943 171.923 256.769 172.106C256.595 172.289 256.327 172.31 255.969 172.163C251.891 169.423 247.817 167.084 243.755 165.13C239.7 163.227 235.59 161.432 231.424 159.746C231.188 159.664 231.034 159.396 230.968 158.934C230.898 158.48 230.748 158.121 230.508 157.861C229.811 158.307 229.038 158.248 228.201 157.702C227.364 157.155 226.599 157.101 225.898 157.554C225.772 157.171 225.711 156.841 225.708 156.581C225.705 156.32 225.523 156.129 225.162 156.007C224.352 156.595 223.343 156.473 222.155 155.644C220.957 154.79 219.717 154.247 218.414 153.994ZM74.1726 156.576C74.4051 157.035 74.5411 157.072 74.5994 156.668C74.646 156.268 74.9092 156.133 75.3611 156.258L75.3531 155.782C75.235 155.792 75.1504 155.755 75.0959 155.679C75.0414 155.603 74.9451 155.57 74.8387 155.577C74.7258 155.904 74.5904 156.071 74.4172 156.088C74.2513 156.091 74.1673 156.258 74.1726 156.576ZM76.3778 155.708C76.8298 155.361 77.4872 155.2 78.3382 155.226C79.1935 155.265 79.7306 154.871 79.9538 154.057C79.3836 154.414 78.6785 154.569 77.8194 154.538C76.9685 154.511 76.4828 154.905 76.3778 155.708ZM82.5608 157.535C82.2215 158.027 82.0546 158.195 82.0519 158.037C82.1638 157.875 82.2804 157.827 82.398 157.9C82.5121 157.981 82.5624 157.86 82.5608 157.535ZM82.6955 153.925C83.0374 153.593 83.2589 153.5 83.376 153.656C83.4932 153.812 83.6601 153.643 83.8849 153.155C83.7677 152.999 83.5371 152.966 83.2011 153.061C82.8571 153.152 82.6912 153.442 82.6955 153.925ZM83.5907 157.492C83.9379 157.477 84.1883 157.511 84.361 157.577C84.5301 157.65 84.7286 157.767 84.964 157.913C84.9544 157.112 84.7185 156.762 84.268 156.86C83.8139 156.966 83.5854 157.175 83.5907 157.492ZM84.735 152.875C85.0822 152.86 85.4177 152.848 85.7613 152.84C86.1048 152.832 86.3273 152.573 86.4375 152.087C86.094 152.095 85.7233 152.116 85.3247 152.131C84.9297 152.139 84.7307 152.392 84.735 152.875ZM87.6564 153.738C87.4273 153.744 87.3097 153.671 87.3107 153.504C87.3081 153.346 87.1935 153.348 86.9671 153.512C86.7397 153.843 86.8034 154.044 87.1501 154.111C87.4932 154.186 87.6698 154.06 87.6564 153.738ZM91.0684 151.471L91.5859 151.465L91.5817 150.981L91.0641 150.988L91.0684 151.471ZM93.688 155.539C94.0263 155.213 94.0558 155.257 93.7721 155.658C93.4964 156.064 93.4669 156.02 93.688 155.539ZM94.3142 150.437C94.8805 150.272 95.7074 150.101 96.803 149.927C97.8833 149.763 98.6021 149.274 98.9317 148.454C98.0137 148.622 97.19 148.869 96.4486 149.198C95.7037 149.534 94.9934 149.945 94.3142 150.437ZM99.8029 149.444C99.8013 149.12 99.8816 148.96 100.056 148.961C100.23 148.963 100.251 148.716 100.136 148.228C99.8997 148.063 99.7328 148.231 99.6225 148.717C99.5159 149.196 99.5695 149.438 99.8029 149.444ZM100.316 148.955C101.227 148.801 102.147 148.689 103.061 148.611C103.979 148.545 104.778 148.266 105.458 147.792C104.764 147.453 103.875 147.359 102.782 147.507C101.697 147.659 100.876 148.148 100.316 148.955ZM102.054 150.434C102.169 150.922 102.258 150.887 102.31 150.314C102.357 149.747 102.276 149.786 102.054 150.434ZM107.183 147.821C107.294 147.826 107.416 147.91 107.529 148.074C107.643 148.237 107.813 148.246 108.047 148.087L108.034 147.108C107.575 147.266 107.292 147.501 107.183 147.821ZM109.76 147.155C109.869 146.835 110.216 146.801 110.792 147.067C111.368 147.334 111.712 147.058 111.813 146.243C111.578 145.911 111.115 145.891 110.436 146.199C109.749 146.502 109.525 146.824 109.76 147.155ZM111.327 148.441C111.568 149.108 111.649 149.152 111.59 148.574C111.522 147.991 111.437 147.954 111.327 148.441ZM112.532 148.234C113.228 148.917 113.804 148.775 114.254 147.816C113.447 147.62 112.872 147.761 112.532 148.234ZM115.605 145.903C115.255 145.556 115.084 145.629 115.093 146.125C115.102 146.62 115.272 146.546 115.605 145.903ZM116.307 146.432C116.998 146.307 117.652 146.171 118.283 146.041C118.914 145.912 119.455 145.696 119.917 145.391C119.226 145.516 118.503 145.522 117.754 145.394C117.01 145.277 116.527 145.625 116.307 146.432ZM120.793 145.941C120.79 145.782 120.813 145.655 120.873 145.577C120.933 145.498 120.952 145.379 120.953 145.213C120.834 145.204 120.751 145.122 120.693 144.952C120.631 144.788 120.544 144.695 120.433 144.69C120.205 145.492 120.325 145.909 120.793 145.941ZM121.158 147.694C121.267 147.539 121.386 147.465 121.497 147.47C121.257 147.127 121.088 146.952 120.969 146.943C120.982 147.431 121.039 147.685 121.158 147.694ZM124.267 147.159C124.037 147.145 123.918 147.219 123.928 147.382C124.154 147.403 124.266 147.325 124.267 147.159ZM124.591 145.447C124.818 145.302 125.046 145.277 125.284 145.378C125.51 145.482 125.513 145.271 125.278 144.755L124.584 144.703L124.591 145.447ZM124.605 146.935C124.844 147.444 124.931 147.454 124.863 146.955C124.803 146.459 124.716 146.449 124.605 146.935ZM124.808 148.683C125.157 148.706 125.325 148.473 125.317 147.978C125.086 148.13 124.911 148.193 124.8 148.188C124.681 148.179 124.688 148.349 124.808 148.683ZM125.961 144.561C125.497 144.523 125.417 144.766 125.711 145.286C126.005 145.807 126.321 145.997 126.671 145.853C126.78 145.699 126.809 145.456 126.743 145.115C126.674 144.782 126.766 144.619 126.992 144.64C127.234 145.326 127.522 145.676 127.87 145.699C128.326 145.243 128.869 145.001 129.504 144.966C130.135 144.938 130.804 144.958 131.495 145.018C130.9 144.131 129.942 143.806 128.619 144.023C127.312 144.248 126.418 144.43 125.961 144.561ZM125.961 144.561C126.191 144.575 126.306 144.674 126.309 144.833C126.19 144.824 126.14 144.862 126.139 144.945C126.139 145.028 126.081 145.061 125.97 145.057L125.961 144.561ZM126.597 141.122L126.942 141.151L126.927 140.403L126.582 140.373L126.597 141.122ZM130.315 146.405C131.124 146.474 131.468 146.179 131.345 145.501L130.48 145.421C130.485 145.923 130.423 146.251 130.315 146.405ZM132.593 148.344C133.288 148.415 133.575 148.192 133.451 147.68C132.868 147.632 132.585 147.849 132.593 148.344ZM134.513 149.274L135.208 149.346C135.318 148.86 135.287 148.574 135.112 148.47C134.935 148.374 134.731 148.226 134.498 148.035L134.513 149.274ZM139.454 143.08C139.226 143.391 138.883 143.52 138.419 143.462C137.95 143.412 137.519 143.409 137.118 143.45C136.716 143.492 136.362 143.624 136.086 143.844C135.799 144.068 135.66 144.427 135.669 144.922C138.095 144.517 140.254 144.254 142.162 144.142C144.075 144.041 145.959 144.286 147.821 144.861C147.69 144.179 147.742 143.809 147.977 143.751C148.208 143.701 148.434 143.435 148.659 142.965C146.92 143.067 145.363 143.157 143.967 143.233C142.587 143.317 141.079 143.267 139.454 143.08ZM137.675 140.125C137.914 140.819 138.039 140.878 138.026 140.288C138.018 139.71 137.896 139.644 137.675 140.125ZM145.611 148.076L145.261 148.034C145.146 148.018 145.026 148.092 144.922 148.239C144.812 148.559 144.927 148.658 145.278 148.534C145.617 148.412 145.725 148.258 145.611 148.076ZM147.49 145.829L147.144 145.78C146.789 145.236 146.327 145.337 145.758 146.101C145.527 146.069 145.466 146.109 145.584 146.201C145.699 146.301 145.757 146.267 145.758 146.101C146.225 146.503 146.691 146.395 147.144 145.78L147.49 145.829L147.495 146.331C147.841 146.38 148.218 146.427 148.632 146.485C149.037 146.538 149.353 146.256 149.572 145.616C149.117 145.887 148.703 145.913 148.358 145.698C148.005 145.479 147.714 145.525 147.49 145.829ZM147.701 148.359C147.696 147.856 147.522 147.835 147.181 148.289C147.411 148.322 147.526 148.421 147.537 148.584C147.536 148.75 147.584 148.674 147.701 148.359ZM149.554 144.607C149.67 144.457 149.815 144.434 149.986 144.545C150.157 144.656 150.425 144.654 150.764 144.532C150.758 144.196 150.694 143.976 150.579 143.877C150.464 143.777 150.514 143.74 150.753 143.777C150.99 143.979 151.19 144.217 151.371 144.492C151.549 144.773 151.809 144.849 152.156 144.732C151.798 144.01 151.149 143.418 150.216 142.939C150.466 143.815 150.348 144.214 149.887 144.149C149.88 143.812 149.874 143.476 149.868 143.14C149.862 142.803 149.747 142.704 149.516 142.837C149.4 142.987 149.318 143.313 149.275 143.808C149.229 144.311 149.323 144.574 149.554 144.607ZM153.092 148.136C152.617 147.564 152.446 147.536 152.567 148.055C152.687 148.574 152.862 148.594 153.092 148.136ZM153.368 143.65C153.614 144.533 154.227 144.912 155.211 144.816C156.195 144.721 156.801 144.355 157.019 143.715C156.323 143.605 155.734 143.508 155.273 143.443C154.815 143.371 154.174 143.439 153.368 143.65ZM155.2 149.206C155.43 149.238 155.665 149.282 155.896 149.315C156.126 149.347 156.184 149.11 156.063 148.591L155.188 148.45L155.2 149.206ZM157.074 146.743C157.308 146.953 157.479 146.898 157.592 146.571C157.702 146.25 157.635 145.992 157.41 145.787C157.416 146.123 157.357 146.322 157.241 146.389C157.129 146.468 157.071 146.584 157.074 146.743ZM157.919 145.119C158.27 145.18 158.438 144.947 158.433 144.445C158.201 144.578 158.03 144.633 157.914 144.617C157.799 144.601 157.798 144.767 157.919 145.119ZM159.305 144.594C159.429 145.29 159.494 145.344 159.485 144.747C159.472 144.157 159.415 144.108 159.305 144.594ZM161.478 149.243C161.479 149.077 161.587 149.006 161.822 149.05L161.804 148.041L161.282 147.952C161.29 148.798 161.355 149.222 161.478 149.243ZM162.276 144.845C162.16 144.995 162.046 145.016 161.927 144.905C161.804 144.802 161.754 144.839 161.753 145.006C162.111 145.07 162.283 145.015 162.276 144.845ZM162.463 145.641C162.691 145.514 162.977 145.355 163.329 145.166C163.673 144.973 163.732 144.691 163.491 144.31C163.258 144.61 163.032 144.774 162.801 144.824C162.569 144.856 162.462 145.131 162.463 145.641ZM164.377 145.476C165.08 145.941 165.432 145.835 165.42 145.162C165.301 144.968 164.961 145.071 164.377 145.476ZM176.453 146.326C175.036 145.52 173.249 144.939 171.088 144.591C168.928 144.261 167.157 144.55 165.777 145.476C166.484 145.952 167.183 146.036 167.875 145.744C168.566 145.453 169.209 145.71 169.811 146.499C171.671 146.36 173.159 146.492 174.275 146.893C175.39 147.295 176.934 147.54 178.926 147.63C178.679 146.728 178.789 146.325 179.26 146.432C179.381 146.97 179.367 147.305 179.191 147.431C179.022 147.562 179.109 147.757 179.459 148.003C180.04 147.79 180.677 147.812 181.39 148.051C182.1 148.297 182.737 148.402 183.321 148.367C182.478 146.642 181.406 145.847 180.131 145.989C178.84 146.121 177.619 146.237 176.453 146.326ZM168.949 147.336C168.829 147.308 168.714 147.208 168.596 147.015C168.473 146.828 168.298 146.788 168.07 146.914C167.841 147.207 167.961 147.438 168.427 147.617C168.901 147.8 169.075 147.7 168.949 147.336ZM170.176 147.576C170.42 148.3 170.541 148.366 170.528 147.776C170.52 147.179 170.406 147.118 170.176 147.576ZM170.912 149.493C171.036 150.189 171.098 150.25 171.089 149.653C171.076 149.063 171.011 149.009 170.912 149.493ZM171.999 141.587C171.764 141.543 171.652 141.602 171.651 141.768C171.89 141.824 172.006 141.757 171.999 141.587ZM173.333 148.215C173.565 148.266 173.714 148.338 173.769 148.433C173.833 148.532 173.918 148.588 174.038 148.616L174.03 147.852L173.675 147.78L173.333 148.215ZM176.346 150.617C176.933 150.741 177.221 150.555 177.212 150.041C176.626 149.917 176.345 150.108 176.346 150.617ZM177.022 148.985C177.373 149.064 177.665 148.954 177.89 148.669C177.659 148.618 177.512 148.501 177.449 148.319C177.386 148.137 177.239 148.02 177.007 147.968L177.022 148.985ZM179.481 149.273C179.719 149.495 180.014 149.562 180.358 149.471C180.711 149.385 180.94 149.093 181.046 148.614C180.702 148.705 180.35 148.708 179.996 148.636C179.64 148.545 179.471 148.759 179.481 149.273ZM183.161 149.853C183.515 150.277 183.839 150.388 184.128 150.202C184.417 150.016 184.682 150.206 184.923 150.772C185.035 150.629 185.12 150.398 185.174 150.066C185.224 149.742 185.136 149.546 184.905 149.495C184.907 149.838 184.614 149.809 184.028 149.417C183.443 149.025 183.152 149.173 183.161 149.853ZM183.831 147.718C184.313 148.85 185.172 149.27 186.397 148.962C187.618 148.662 188.471 148.745 188.944 149.196C188.226 148.168 187.43 147.847 186.556 148.234C185.691 148.626 184.783 148.447 183.831 147.718ZM185.85 153.024C185.838 152.351 185.716 151.98 185.48 151.916C185.255 152.201 185.194 152.446 185.312 152.64C185.436 152.845 185.611 152.968 185.85 153.024ZM188.487 153.409C188.607 153.437 188.66 153.493 188.668 153.581C188.667 153.664 188.729 153.725 188.849 153.753C188.84 153.073 188.714 152.792 188.485 152.899L188.487 153.409ZM189.129 149.75C189.474 149.493 189.913 149.481 190.443 149.695C190.97 149.916 191.447 150.073 191.855 150.183C192.266 150.286 192.65 150.3 192.999 150.221C193.347 150.141 193.63 149.702 193.854 148.907C192.917 149.01 191.983 148.985 191.044 148.827C190.101 148.676 189.461 148.986 189.129 149.75ZM189.883 153.25C189.648 153.187 189.532 153.254 189.534 153.412L189.71 153.452C189.834 153.492 189.891 153.42 189.883 153.25ZM192.363 154.132C192.364 153.966 192.301 153.867 192.184 153.832C192.065 153.804 192.008 153.875 192.015 154.046C192.135 154.074 192.223 154.186 192.286 154.368C192.337 154.553 192.365 154.476 192.363 154.132ZM193.062 154.317C193.187 155.033 193.251 155.049 193.234 154.364C193.229 153.677 193.174 153.665 193.062 154.317ZM194.039 149.461C194.274 149.524 194.274 149.607 194.042 149.722C193.809 149.836 193.752 149.991 193.879 150.189C197.07 151.54 200.072 152.53 202.9 153.148C205.725 153.792 209.03 154.854 212.82 156.345C212.691 155.618 212.358 155.215 211.829 155.141C211.3 155.067 211.316 154.687 211.896 154.003C209.896 153.908 207.923 153.411 205.967 152.489C204.013 151.586 202.22 151.16 200.578 151.213C200.576 150.87 200.597 150.705 200.661 150.721C200.716 150.733 200.753 150.66 200.746 150.49C199.925 150.609 199.252 150.596 198.72 150.446C198.193 150.308 197.687 150.126 197.219 149.91C196.748 149.7 196.279 149.529 195.807 149.403C195.32 149.286 194.736 149.303 194.039 149.461ZM194.258 152.079C194.502 152.822 194.628 152.899 194.611 152.298C194.602 151.701 194.484 151.628 194.258 152.079ZM195.159 153.585C194.932 154.036 194.958 154.087 195.248 153.735C195.534 153.391 195.508 153.34 195.159 153.585ZM196.422 155.455C196.658 155.518 196.892 155.626 197.127 155.773C197.362 155.919 197.481 155.826 197.475 155.489C197.232 155.256 197.053 155.038 196.938 154.837C196.811 154.639 196.636 154.414 196.401 154.185L196.422 155.455ZM198.641 151.199C198.634 151.028 198.818 150.989 199.17 151.088C199.165 151.261 198.993 151.297 198.641 151.199ZM199.374 153.447C199.268 153.926 199.327 154.199 199.562 154.262C199.798 154.325 200.034 154.388 200.266 154.459L200.247 153.43C200.011 153.367 199.829 153.361 199.721 153.413C199.609 153.473 199.491 153.483 199.374 153.447ZM200.488 156.559C200.478 156.045 200.12 155.693 199.416 155.497C199.426 156.011 199.78 156.37 200.488 156.559ZM202.743 154.895C202.741 154.552 202.796 154.359 202.908 154.3C203.025 154.252 202.963 154.108 202.724 153.867C202.731 154.037 202.671 154.199 202.554 154.33C202.441 154.472 202.508 154.666 202.743 154.895ZM204.515 155.403C204.503 154.545 204.257 154.134 203.788 154.167C203.674 154.475 203.734 154.664 203.977 154.732C204.21 154.802 204.393 155.032 204.515 155.403ZM205.079 157.356C204.846 157.285 204.726 157.341 204.733 157.511C204.957 157.577 205.074 157.529 205.079 157.356ZM204.87 155.762C205.461 156.101 205.867 155.887 206.091 155.092C205.862 155.365 205.599 155.417 205.303 155.248C205.008 155.078 204.861 155.248 204.87 155.762ZM205.613 157.766L205.965 157.865L205.956 157.351L205.604 157.252L205.613 157.766ZM207.684 155.568C207.09 155.051 206.793 155.047 206.803 155.561C206.812 156.075 207.109 156.079 207.684 155.568ZM208.057 156.445C208.519 156.242 208.967 156.291 209.383 156.591C209.799 156.89 210.298 157.124 210.895 157.309C210.645 156.72 210.177 156.281 209.464 155.978C208.744 155.67 208.272 155.831 208.057 156.445ZM208.253 158.042C208.272 159.07 208.54 159.317 209.059 158.793C209.579 158.27 209.541 157.833 208.946 157.483C209.089 158.55 208.855 158.729 208.253 158.042ZM211.247 157.408C211.361 157.099 211.502 157.064 211.689 157.286C211.872 157.515 212.009 157.386 212.124 156.911C211.997 156.528 211.731 156.402 211.325 156.534C210.9 156.664 210.885 156.961 211.247 157.408ZM212.831 157.388C212.835 157.565 212.984 157.739 213.28 157.909C213.58 158.09 213.779 158.022 213.892 157.713C213.543 157.774 213.303 157.616 213.177 157.233C213.058 156.854 212.942 156.902 212.831 157.388ZM213.341 156.517C214.053 156.737 214.403 156.593 214.389 156.067C214.147 155.649 213.879 155.485 213.585 155.557C213.296 155.641 213.219 155.96 213.341 156.517ZM214.601 157.941C214.611 158.455 214.704 158.783 214.888 158.929C215.063 159.07 215.273 159.268 215.521 159.513C215.271 158.924 215.304 158.673 215.596 158.767C215.889 158.861 216.034 158.653 216.028 158.132C215.683 158.37 215.418 158.365 215.234 158.136C215.043 157.902 214.835 157.845 214.601 157.941ZM214.942 157.015C219.321 158.419 224.092 160.229 229.268 162.445C234.446 164.735 239.653 167.153 244.906 169.706C244.9 169.184 244.95 168.86 245.067 168.729C245.083 169.598 245.383 170.15 245.986 170.384C247.166 170.164 248.298 170.574 249.381 171.615C250.468 172.667 251.667 173.456 252.982 173.994C252.852 173.248 252.484 172.752 251.888 172.503C251.289 172.261 250.985 171.699 250.969 170.829C248.945 170.351 247.125 169.447 245.5 168.112C243.88 166.789 242.244 166.235 240.585 166.465C240.097 165.756 239.262 165.145 238.069 164.609C236.874 164.081 235.988 163.878 235.4 164.003C234.316 162.74 233.325 162.212 232.444 162.409C231.563 162.607 230.407 162.368 228.979 161.687L228.956 160.647C226.95 160.808 224.676 160.194 222.116 158.815C219.57 157.471 217.166 156.87 214.942 157.015ZM217.089 158.725C217.218 159.452 217.28 159.514 217.271 158.917C217.257 158.308 217.195 158.247 217.089 158.725ZM217.46 159.871C217.589 160.598 217.65 160.621 217.637 159.93C217.628 159.25 217.568 159.226 217.46 159.871ZM217.627 159.416C218.22 159.608 218.51 159.441 218.5 158.927C217.907 158.735 217.618 158.901 217.627 159.416ZM218.533 160.481C218.769 160.729 218.926 160.99 218.989 161.274C219.056 161.551 219.202 161.732 219.442 161.807C219.315 161.423 219.31 161.208 219.427 161.16C219.544 161.112 219.599 160.92 219.597 160.576C219.354 160.158 219.112 159.943 218.879 159.956C218.638 159.964 218.523 160.133 218.533 160.481ZM220.303 160.543C220.413 160.242 220.259 159.973 219.847 159.75C219.431 159.533 219.28 159.609 219.406 159.992C219.639 159.896 219.788 159.949 219.847 160.138C219.914 160.332 220.062 160.468 220.303 160.543ZM220.482 160.862C220.726 161.115 220.84 161.112 220.837 160.851C220.834 160.591 220.882 160.311 220.996 160.003L220.467 159.827L220.482 160.862ZM222.42 160.609C222.06 160.404 221.889 160.478 221.891 160.822L222.244 160.939L222.6 161.317C222.838 161.048 222.781 160.813 222.42 160.609ZM224.211 161.858L224.748 162.038L224.736 161.263L224.199 161.083L224.211 161.858ZM225.319 164.55C225.214 165.539 225.22 165.671 225.331 164.936C225.423 164.2 225.426 164.071 225.319 164.55ZM225.635 162.343C225.757 162.9 225.851 162.896 225.902 162.303C225.945 161.725 225.858 161.733 225.635 162.343ZM227.1 165.164C226.876 165.774 226.903 165.863 227.191 165.454C227.474 165.034 227.446 164.945 227.1 165.164ZM227.409 162.704C227.172 162.622 227.055 162.67 227.054 162.836C227.291 162.918 227.408 162.87 227.409 162.704ZM227.977 164.955C227.967 164.441 227.794 164.375 227.443 164.768C227.68 164.85 227.8 164.98 227.807 165.15C227.81 165.328 227.863 165.264 227.977 164.955ZM231.154 164.282C230.564 164.249 229.938 164.02 229.285 163.62C228.632 163.219 228.182 163.151 227.952 163.406C228.553 163.787 229.083 164.103 229.561 164.362C230.033 164.609 230.57 164.585 231.154 164.282ZM231.739 167.32C231.385 167.369 231.116 167.269 230.936 167.033C230.757 166.796 230.544 166.811 230.321 167.069C230.568 167.499 230.863 167.733 231.22 167.779C231.57 167.821 231.741 167.664 231.739 167.32ZM235.439 166.098C234.959 165.578 234.364 165.227 233.649 165.052C232.942 164.882 232.282 164.681 231.688 164.47C231.941 165.421 232.477 165.87 233.31 165.831C234.134 165.787 234.841 165.875 235.439 166.098ZM232.102 167.97C232.214 168.013 232.284 168.079 232.284 168.162C232.28 168.252 232.341 168.313 232.466 168.353C232.459 168.182 232.487 168.105 232.547 168.129C232.608 168.152 232.636 168.075 232.629 167.905C232.508 167.858 232.447 167.796 232.447 167.713C232.448 167.63 232.381 167.557 232.265 167.522C232.269 167.7 232.244 167.77 232.184 167.746C232.127 167.716 232.099 167.793 232.102 167.97ZM233.685 167.256C233.564 167.209 233.475 167.142 233.419 167.028C233.359 166.922 233.265 166.843 233.152 166.8C232.918 167.062 232.983 167.301 233.34 167.513C233.693 167.732 233.808 167.647 233.685 167.256ZM239.559 168.674C239.064 167.629 238.528 167.079 237.937 167.027C237.345 166.974 236.695 166.733 235.969 166.293C236.343 167.291 236.884 167.751 237.592 167.672C238.3 167.594 238.954 167.93 239.559 168.674ZM237.806 170.074C237.687 169.862 237.265 169.614 236.555 169.349C236.32 169.777 236.479 170.095 237.017 170.294C237.555 170.493 237.817 170.422 237.806 170.074ZM239.788 171.334C240.031 171.772 240.206 171.792 240.324 171.413C240.435 171.028 240.37 170.789 240.137 170.7C240.147 171.048 240.056 171.147 239.88 170.986C239.683 170.824 239.653 170.946 239.788 171.334ZM242.943 169.455C242.469 169.272 241.933 169.111 241.337 168.964C240.739 168.824 240.328 168.536 240.076 168.094C240.563 168.969 241.106 169.486 241.697 169.621C242.3 169.773 242.709 169.717 242.943 169.455ZM241.3 167.009C241.293 166.839 241.478 166.819 241.831 166.955C241.835 167.133 241.661 167.15 241.3 167.009ZM242.376 167.427C242.366 167.079 242.602 167.04 243.083 167.31C243.561 167.588 243.687 167.851 243.448 168.101C243.2 167.836 243.027 167.77 242.914 167.894C242.797 168.025 242.616 167.872 242.376 167.427ZM243.313 170.378C243.675 170.519 243.73 170.715 243.5 170.97C243.736 171.237 243.893 171.294 243.946 171.147C243.999 171 244.148 170.97 244.389 171.063L244.383 170.542L244.016 169.88C244.026 170.228 243.903 170.309 243.663 170.133C243.426 169.949 243.311 170.034 243.313 170.378ZM245.324 173.486C245.08 173.048 244.78 172.848 244.429 172.871C244.074 172.901 243.721 172.764 243.356 172.446C243.482 173.014 243.79 173.385 244.26 173.575C244.739 173.77 245.09 173.748 245.324 173.486ZM244.932 171.274C245.761 171.262 246.953 171.778 248.514 172.829C250.068 173.894 251.446 174.41 252.634 174.379C251.319 173.842 250.035 173.099 248.771 172.154C247.502 171.216 246.221 170.919 244.932 171.274ZM246.595 174.767L247.133 174.986C247.243 174.684 247.126 174.426 246.76 174.191C246.403 173.96 246.28 174.041 246.411 174.436C246.523 174.479 246.587 174.597 246.595 174.767ZM248.203 175.418L248.561 175.566L248.548 174.791L248.19 174.643L248.203 175.418ZM249.637 176.251C249.634 175.907 249.503 175.512 249.263 175.068C249.28 175.937 249.403 176.328 249.637 176.251ZM250.359 176.8C250.352 176.63 250.416 176.563 250.533 176.617C250.527 176.096 250.34 175.855 249.989 175.877C250.113 176.102 250.144 176.286 250.091 176.433C250.026 176.582 250.118 176.706 250.359 176.8ZM250.705 176.173C250.834 176.919 251.018 177.25 251.252 177.174C251.486 177.097 251.901 177.275 252.507 177.687C252.259 177.238 251.957 176.815 251.596 176.407C251.231 176.005 250.931 175.926 250.705 176.173ZM254.662 178.847C254.293 178.351 254.026 178.104 253.845 178.117C253.663 178.13 253.4 177.978 253.039 177.652C252.811 178.25 252.994 178.664 253.597 178.918C254.193 179.167 254.552 179.148 254.662 178.847ZM253.871 174.374C253.634 174.273 253.571 174.295 253.7 174.429C253.812 174.574 253.875 174.552 253.871 174.374C254.353 174.747 254.47 174.718 254.226 174.262C253.975 173.82 253.862 173.86 253.871 174.374ZM254.078 176.013C254.552 176.215 254.791 176.048 254.781 175.534L254.246 175.309C254.249 175.486 254.223 175.601 254.162 175.661C254.105 175.732 254.079 175.847 254.078 176.013ZM254.935 174.304C254.815 174.257 254.762 174.404 254.764 174.748L255.122 174.896C255.12 174.552 255.052 174.358 254.935 174.304ZM255.685 176.173C255.565 176.126 255.443 176.245 255.333 176.546L255.868 176.772C255.866 176.428 255.802 176.227 255.685 176.173ZM255.668 175.386C256.86 175.718 257.966 176.364 258.998 177.322C260.018 178.282 260.889 178.228 261.579 177.14C261.217 176.98 261.041 176.737 261.034 176.381C260.673 176.056 260.495 176.061 260.497 176.405C260.504 176.76 260.39 176.967 260.152 177.032C259.419 175.848 258.603 175.238 257.712 175.209C256.826 175.191 256.141 175.245 255.668 175.386ZM258.399 178.885C258.393 178.363 258.261 178.051 258.024 177.95C258.041 178.469 258.161 178.784 258.399 178.885ZM263.254 181C262.643 180.391 261.982 179.884 261.269 179.479C260.553 179.082 259.65 178.647 258.575 178.185C259.067 179.09 259.79 179.741 260.752 180.161C261.698 180.573 262.536 180.851 263.254 181ZM258.655 182.864C258.883 182.451 259.001 182.543 259.015 183.152C259.02 183.756 258.905 183.657 258.655 182.864ZM260.243 182.263C260.489 183.063 260.583 183.142 260.51 182.51C260.444 181.882 260.354 181.796 260.243 182.263ZM261.151 182.913C261.281 183.659 261.347 183.732 261.334 183.123C261.32 182.515 261.254 182.442 261.151 182.913ZM262.832 177.699C263.09 178.681 263.059 178.969 262.762 178.577C262.457 178.18 262.068 177.97 261.593 177.934L261.609 178.72C262.802 179.071 263.911 179.691 264.936 180.58C265.961 181.469 266.946 181.781 267.892 181.517C267.409 181.126 266.828 180.561 266.166 179.831C265.495 179.097 264.876 179.039 264.292 179.648C264.269 178.423 263.784 177.771 262.832 177.699ZM288.87 193.905C287.777 193.007 286.623 191.863 285.407 190.472C284.188 189.089 282.972 188.189 281.781 187.774C281.543 187.654 281.298 187.364 281.049 186.896C280.807 186.783 280.599 186.809 280.428 186.985C280.257 187.16 280.041 187.099 279.796 186.808C278.57 185.172 277.209 184.091 275.716 183.559C274.212 183.03 272.98 182.102 272.008 180.779C270.686 180.173 269.754 179.612 269.207 179.102C268.66 178.593 267.902 177.951 266.94 177.16C266.595 177.704 266.153 177.807 265.609 177.475C265.066 177.143 264.553 176.791 264.07 176.4C263.584 176.016 263.166 175.742 262.803 175.583C262.441 175.423 262.21 175.678 262.106 176.315C265.464 177.97 268.616 179.911 271.574 182.136C274.533 184.379 277.568 186.081 280.695 187.231C280.822 187.818 281.252 188.459 281.981 189.159C281.967 188.634 282.025 188.313 282.146 188.194C282.27 188.604 282.394 188.93 282.526 189.159C282.647 189.391 282.771 189.717 282.906 190.124C286.044 192.196 289.258 194.772 292.547 197.834C292.645 196.675 292.179 195.82 291.157 195.294C290.109 194.799 289.35 194.323 288.87 193.905ZM263.44 181.592C263.681 181.87 263.981 182.052 264.339 182.116C264.694 182.189 264.927 181.991 265.038 181.524C264.8 181.589 264.437 181.429 263.963 181.042C263.481 180.67 263.307 180.853 263.44 181.592ZM263.828 183.32C264.08 183.946 264.195 183.963 264.185 183.347C264.18 182.742 264.053 182.729 263.828 183.32ZM265.472 185.6C265.47 185.256 265.459 184.908 265.449 184.56C265.447 184.216 265.258 183.956 264.895 183.797C264.657 183.862 264.575 184.169 264.649 184.718C264.723 185.267 264.997 185.564 265.472 185.6ZM266.674 183.041C266.433 182.928 266.37 182.95 266.495 183.091C266.619 183.233 266.678 183.218 266.674 183.041C266.788 182.917 266.852 183.035 266.863 183.383L267.225 183.543C267.456 183.307 267.395 183.061 267.036 182.811C266.667 182.564 266.547 182.638 266.674 183.041ZM267.761 183.787C268.003 183.9 268.154 184.009 268.21 184.123C268.274 184.241 268.417 184.346 268.658 184.459C268.773 184.17 268.705 183.874 268.464 183.595C268.215 183.312 268.277 183.169 268.636 183.151C269.708 183.474 270.703 184.014 271.608 184.773C272.518 185.544 273.509 186.174 274.589 186.686C274.704 186.396 274.783 186.218 274.844 186.158C274.905 186.098 274.992 185.924 275.099 185.63C274.491 184.995 273.825 184.56 273.107 184.309C272.385 184.066 271.783 183.563 271.294 182.816C271.303 183.516 271.253 183.84 271.137 183.786C270.634 182.347 269.934 181.672 269.042 181.789C268.173 181.901 267.742 182.574 267.761 183.787ZM268.841 184.28C269.205 184.969 269.357 184.995 269.287 184.356C269.216 183.716 269.065 183.69 268.841 184.28ZM273.355 187.136C273.1 186.332 272.855 185.958 272.62 186.016C272.382 186.081 271.967 185.884 271.359 185.434C271.49 186.014 271.761 186.355 272.18 186.462C272.6 186.569 272.997 186.803 273.355 187.136ZM276.614 189.191C276.009 188.9 275.585 188.577 275.344 188.196C275.099 187.823 274.795 187.464 274.433 187.12C274.439 187.641 274.748 188.216 275.355 188.85C275.959 189.493 276.378 189.6 276.614 189.191ZM275.687 187.717C276.281 187.826 276.829 188.086 277.308 188.485C277.795 188.888 278.15 189.062 278.389 188.997C278.134 188.008 277.646 187.299 276.917 186.866C276.2 186.449 275.793 186.728 275.687 187.717ZM281.11 190.834C280.975 190.076 280.67 189.577 280.19 189.345C279.71 189.112 279.162 188.852 278.565 188.565C278.819 189.554 279.187 190.031 279.664 190.003C280.141 189.975 280.619 190.253 281.11 190.834ZM279.149 190.927C278.78 190.227 278.629 190.2 278.699 190.84C278.769 191.479 278.92 191.506 279.149 190.927ZM280.13 195.799C279.767 195.621 279.589 195.626 279.596 195.796C279.951 195.971 280.133 195.977 280.13 195.799ZM280.955 192.064C280.72 192.122 280.478 192.009 280.237 191.711C279.992 191.421 279.874 191.45 279.885 191.798C280.127 191.911 280.363 192.076 280.608 192.283C280.846 192.486 280.966 192.412 280.955 192.064ZM281.291 190.923C282.746 191.981 284.163 193.156 285.56 194.451C286.955 195.753 288.263 196.713 289.467 197.329C288.243 195.666 286.876 194.332 285.359 193.315C283.847 192.309 282.498 191.513 281.291 190.923ZM283.138 193.905C283.269 194.485 283.324 194.478 283.315 193.862C283.301 193.253 283.242 193.268 283.138 193.905ZM284.237 195.223L284.963 195.58C284.95 194.888 284.7 194.586 284.231 194.701L284.237 195.223ZM284.499 200.01C284.865 200.367 285.074 200.341 285.124 199.933C285.171 199.533 285.021 199.155 284.654 198.799C284.664 199.147 284.633 199.352 284.576 199.405C284.516 199.464 284.496 199.667 284.499 200.01ZM289.834 197.519C290.079 197.994 290.451 198.483 290.939 198.988C291.426 199.493 291.784 199.641 292.02 199.417C291.899 199.351 291.835 199.15 291.828 198.795C291.582 198.67 291.249 198.37 290.822 197.888C290.391 197.414 290.062 197.291 289.834 197.519ZM294.781 203.182C294.169 202.516 293.961 202.459 294.152 202.98C294.337 203.514 294.544 203.572 294.781 203.182Z" fill="white"/>
<path d="M308.58 222.959C308.752 222.177 309.317 221.629 310.284 221.299C311.251 220.969 311.882 220.352 312.168 219.445C311.628 219.442 310.77 219.803 309.579 220.519C308.389 221.235 307.918 222.052 308.172 222.963C306.449 224.265 304.227 225.022 301.494 225.217C298.761 225.413 296.171 225.385 293.723 225.133C292.225 225.004 290.619 225.07 288.914 225.336C287.2 225.598 286.007 225.211 285.34 224.169C285.033 223.908 284.806 223.944 284.644 224.27C284.481 224.596 284.264 224.76 284.004 224.759C283.67 224.238 283.75 223.849 284.264 223.592C281.421 223.464 278.569 223.209 275.7 222.822C272.831 222.435 269.817 221.46 266.668 219.903C264.611 220.684 262.462 220.398 260.209 219.028C257.952 217.666 255.706 217.176 253.478 217.571C253.052 217.443 252.964 217.244 253.198 216.985C253.431 216.726 253.396 216.463 253.097 216.206C252.526 215.951 252.269 216.008 252.313 216.399C252.357 216.791 252.267 217.118 252.033 217.377C251.194 217.117 250.066 216.728 248.659 216.206C247.253 215.684 246.024 215.56 244.986 215.823L244.842 214.652C242.72 214.917 240.835 214.332 239.183 212.904C238.643 212.902 238.324 213.039 238.227 213.296C238.117 213.557 238.027 213.884 237.947 214.274C236.169 212.975 234.572 212.292 233.156 212.227C231.737 212.169 230.298 212.194 228.835 212.329C221.977 210.125 215.239 208.598 208.614 207.764C201.992 206.923 195.316 205.92 188.589 204.767C188.167 204.631 187.877 204.67 187.697 204.864C187.517 205.058 187.165 205.158 186.624 205.155C184.533 204.504 182.492 204.315 180.506 204.578C178.524 204.835 176.535 205.041 174.532 205.173C173.912 205.56 173.576 205.857 173.532 206.05C173.496 206.247 173.173 206.664 172.584 207.322C172.17 207.191 171.762 207.194 171.376 207.322C170.989 207.45 170.589 207.458 170.167 207.323C169.086 206.149 168.643 205.013 168.833 203.902C169.032 202.796 169.546 201.786 170.368 200.869C171.199 199.956 172.138 199.14 173.193 198.426C174.248 197.711 175.349 197.153 176.513 196.761C176.605 196.369 176.54 196.145 176.325 196.075C176.118 196.009 175.955 196.043 175.837 196.176C176.939 195.261 178.353 194.516 180.097 193.922C181.838 193.336 183.509 193.494 185.096 194.406C188.343 193.493 191.608 193.295 194.895 193.807C198.178 194.325 201.564 195.032 205.036 195.945C207.87 196.068 210.658 196.326 213.391 196.715C216.124 197.103 218.903 197.818 221.719 198.854C223.063 198.852 224.472 198.848 225.952 198.845C227.425 198.838 228.714 199.428 229.795 200.601C230.445 200.466 231.111 200.405 231.787 200.407C232.456 200.404 233.06 200.404 233.6 200.406C234.052 200.794 234.131 201.157 233.836 201.477C233.538 201.804 233.621 202.16 234.069 202.555C234.601 202.553 234.819 202.389 234.709 202.066C234.6 201.742 234.8 201.446 235.305 201.185C237.036 201.056 238.833 201.442 240.691 202.351C242.55 203.261 244.408 203.587 246.258 203.324C248.622 203.972 250.924 204.681 253.178 205.467C255.423 206.249 257.681 206.566 259.953 206.44C264.742 208.26 269.436 209.519 274.027 210.233C278.619 210.947 283.292 212.082 288.058 213.636C289.908 213.373 291.775 213.534 293.66 214.119C295.545 214.704 297.334 214.794 299.038 214.405C299.904 214.924 301.059 215.281 302.496 215.471C303.932 215.661 305.266 215.597 306.501 215.272C307.736 214.947 308.883 214.424 309.93 213.704C310.985 212.989 311.563 211.977 311.673 210.672C311.356 205.988 310.444 201.367 308.939 196.808C307.431 192.256 304.717 187.698 300.783 183.142C298.32 178.457 295.019 173.804 290.886 169.187C286.745 164.566 282.152 160.31 277.1 156.407C278.516 154.844 279.132 153.278 278.931 151.718C280.826 150.802 282.277 149.502 283.279 147.808C284.274 146.109 285.769 145.201 287.772 145.069C288.484 145.457 288.782 145.883 288.637 146.341C288.492 146.798 288.509 147.222 288.69 147.612C289.222 147.61 289.619 147.837 289.882 148.291C290.137 148.74 290.495 149.171 290.947 149.559C293.565 152.285 296.739 155.607 300.446 159.512C304.153 163.416 307.042 167.185 309.11 170.826C309.957 172.258 310.751 173.755 311.484 175.313C312.213 176.878 312.999 178.371 313.858 179.8C314.219 180.58 314.706 181.232 315.312 181.75C315.909 182.264 316.393 182.923 316.765 183.701C317.981 185.917 318.731 188.191 319.028 190.537C319.317 192.88 319.94 195.159 320.888 197.37C320.904 199.715 320.705 202.158 320.29 204.7C319.867 207.238 318.574 209.556 316.419 211.639C316.023 213.853 315.184 216.032 313.909 218.19C312.64 220.314 310.862 221.915 308.58 222.959ZM182.283 196.159C181.966 196.815 182.005 196.902 182.419 196.45C182.836 195.99 182.788 195.898 182.283 196.159ZM201.567 198.866C201.378 198.471 201.348 198.219 201.467 198.086C201.581 197.96 201.493 197.762 201.194 197.505C199.947 198.293 198.795 198.221 197.749 197.312C196.695 196.398 195.601 196.273 194.475 196.921C195.767 197.568 196.973 198.094 198.093 198.479C199.21 198.871 200.372 199.005 201.567 198.866C202.433 199.385 203.085 199.477 203.516 199.156C203.95 198.828 203.976 198.277 203.615 197.497C203.075 197.494 202.64 197.53 202.315 197.597C201.989 197.665 201.735 198.091 201.567 198.866ZM194.168 197.704C193.509 197.834 193.519 197.897 194.196 197.898C194.864 197.895 194.853 197.833 194.168 197.704ZM205.645 199.253C205.039 198.734 204.507 198.736 204.028 199.257C204.208 199.647 204.415 199.712 204.66 199.451C204.894 199.192 205.227 199.129 205.645 199.253C205.825 199.643 205.994 199.679 206.161 199.346C206.315 199.016 206.55 198.983 206.857 199.245C206.505 199.637 206.623 199.796 207.217 199.733C207.811 199.671 207.885 199.438 207.433 199.051L207.613 198.857C207.122 198.213 206.472 198.348 205.645 199.253ZM206.853 199.252C207.086 198.994 207.28 198.92 207.429 199.058C207.323 199.188 207.121 199.257 206.853 199.252ZM208.822 198.857C208.584 199.123 208.54 199.315 208.694 199.446C208.839 199.572 208.65 199.639 208.118 199.64C208.298 200.031 208.812 200.358 209.651 200.617C210.271 200.231 210.427 199.835 210.11 199.446C209.786 199.053 209.362 198.859 208.822 198.857ZM210.859 200.617C211.545 200.746 212.224 200.805 212.9 200.807C213.568 200.804 214.264 200.995 214.985 201.388C215.635 201.253 215.68 201.061 215.112 200.798C214.542 200.544 214.445 200.341 214.84 200.217C215.293 200.605 215.473 200.411 215.372 199.631C214.595 199.895 213.703 199.992 212.683 199.926C211.661 199.868 211.058 200.094 210.859 200.617ZM216.418 201.585L217.13 200.806C216.677 200.418 216.317 200.222 216.049 200.217C216.229 200.607 216.291 200.838 216.237 200.903C216.172 200.971 216.229 201.191 216.418 201.585ZM217.582 201.194C218.628 202.103 219.783 202.168 221.027 201.386L219.899 200.413C219.508 200.549 219.158 200.707 218.85 200.906C218.538 201.093 218.114 201.192 217.582 201.194ZM224.225 202.744L223.592 202.55C223.527 202.034 223.295 201.832 222.916 201.964C222.525 202.1 222.221 202.292 221.98 202.546C222.278 202.803 222.819 202.806 223.596 202.542C223.654 203.073 223.869 203.143 224.225 202.744C224.677 203.131 224.866 203.065 224.801 202.549C224.736 202.033 224.538 202.095 224.225 202.744ZM225.917 201.774C225.826 202.166 225.701 202.456 225.521 202.65C225.341 202.844 225.267 203.076 225.306 203.333C226.922 203.329 228.572 203.654 230.26 204.301C231.947 204.948 233.605 205.278 235.222 205.274C233.715 203.972 232.233 203.164 230.783 202.835C229.329 202.513 227.706 202.155 225.917 201.774ZM227.046 202.747C227.666 202.36 227.741 202.419 227.27 202.944C226.795 203.458 226.721 203.398 227.046 202.747ZM235.233 202.144L235.685 202.532L236.037 202.14L235.585 201.752L235.233 202.144ZM240.736 205.85C240.789 205.202 240.662 204.746 240.367 204.482C239.862 204.743 239.357 205.004 238.851 205.265C238.346 205.527 238.1 205.204 238.13 204.289C237.418 205.068 237.22 205.591 237.519 205.848C238.438 205.718 239.294 206.11 240.08 207.018C240.665 206.368 241.083 206.2 241.324 206.529C241.566 206.859 241.892 207.083 242.317 207.211C243.144 206.306 243.193 205.645 242.48 205.257C242.173 204.996 241.912 205.06 241.696 205.451C241.476 205.849 241.15 205.982 240.736 205.85ZM243.073 206.823C243.372 207.08 243.786 207.212 244.33 207.207C244.031 206.95 243.614 206.826 243.073 206.823ZM245.85 206.435C245.543 206.174 245.337 206.108 245.218 206.241C245.517 206.498 245.724 206.564 245.85 206.435ZM246.927 207.013C246.536 207.148 245.806 207.212 244.734 207.211C246.359 208.379 248.226 208.832 250.345 208.575C249.207 208.058 249.009 207.828 249.756 207.896C250.504 207.965 250.767 207.666 250.552 207.012C249.595 206.885 249.017 207.145 248.836 207.799C248.647 208.449 248.016 208.19 246.927 207.013ZM248.087 206.628C247.916 207.41 248.031 207.577 248.448 207.117C248.865 206.657 248.738 206.493 248.087 206.628ZM251.021 209.16C251.408 209.032 251.825 209.156 252.274 209.551C252.726 209.939 253.113 209.811 253.438 209.159C254.115 208.116 253.815 207.632 252.553 207.698C251.283 207.759 250.779 208.247 251.021 209.16ZM254.506 207.981C254.154 208.373 254.119 208.693 254.426 208.954C254.725 209.211 254.831 209.542 254.751 209.932C255.138 209.803 255.544 209.865 255.987 210.125C256.422 210.381 256.846 210.575 257.268 210.711C257.348 210.321 257.574 209.993 257.952 209.737C258.321 209.477 258.284 209.155 257.836 208.76C257.04 209.937 256.497 210.168 256.211 209.447C255.905 208.725 255.345 208.24 254.506 207.981ZM252.575 211.89C252.034 211.888 251.815 211.994 251.907 212.185C251.995 212.384 252.148 212.515 252.359 212.573C252.566 212.639 252.766 212.635 252.963 212.573C253.149 212.514 253.023 212.286 252.575 211.89ZM258.293 210.911C258.591 211.169 258.934 211.233 259.321 211.105C259.7 210.972 260.125 211.101 260.577 211.489C261.163 210.838 261.37 210.32 261.189 209.929C260.684 210.191 260.195 210.357 259.737 210.418C259.284 210.491 258.802 210.643 258.293 210.911ZM264.259 211.876C263.807 211.488 263.609 211.55 263.683 212.07C263.744 212.594 263.934 212.527 264.259 211.876C264.439 212.266 264.654 212.336 264.891 212.07C265.125 211.811 265.358 211.552 265.603 211.291C265.178 211.162 264.828 211.028 264.547 210.903C264.257 210.773 263.996 210.838 263.763 211.097C264.061 211.354 264.229 211.624 264.259 211.876ZM268.745 212.259C268.806 212.783 269.144 213.296 269.746 213.822L270.63 212.844C270.178 212.457 269.553 212.267 268.745 212.259ZM273.599 214.011C274.078 214.659 274.421 214.723 274.628 214.205C274.826 213.682 275.142 213.487 275.564 213.623C274.962 213.097 274.311 213.232 273.599 214.011ZM275.792 213.813C275.62 214.595 275.774 214.726 276.244 214.201C276.719 213.688 276.566 213.557 275.792 213.813ZM274.904 214.798L275.581 215.384L275.933 214.992L275.256 214.406L274.904 214.798ZM279.29 214.402C278.983 214.14 278.765 214.012 278.641 214.011C278.505 214.012 278.288 213.884 277.993 213.619C277.25 214.147 276.901 214.597 276.953 214.992C276.997 215.384 277.36 215.054 278.037 214.011C278.336 214.268 278.749 214.399 279.29 214.402C279.887 214.916 280.156 214.921 280.094 214.398C280.032 213.874 279.76 213.877 279.29 214.402ZM280.998 215.173C281.259 215.174 281.585 215.041 281.955 214.781C282.324 214.521 282.225 214.26 281.658 213.998C281.069 214.656 280.853 215.047 280.998 215.173ZM283.019 215.173C283.617 215.687 284.021 215.691 284.228 215.173L283.776 214.785C283.538 215.051 283.378 215.143 283.307 215.076C283.225 215.012 283.134 215.047 283.019 215.173ZM285.888 215.56C286.943 216.474 287.764 216.602 288.353 215.944C288.046 215.682 287.802 215.587 287.613 215.653C287.415 215.715 287.286 215.494 287.225 214.97C287.106 215.104 286.654 215.3 285.888 215.56ZM290.598 216.141C290.427 216.923 290.58 217.054 291.051 216.529C291.517 216.011 291.364 215.881 290.598 216.141Z" fill="white"/>
</svg>
