<svg width="114" height="241" viewBox="0 0 114 241" fill="none" xmlns="http://www.w3.org/2000/svg">
<path d="M47.5295 81.6552C47.5473 82.0196 47.3431 82.4463 46.926 82.944C46.6419 82.9974 46.3757 83.0152 46.1183 82.9885C45.8609 82.9618 45.6922 83.0774 45.6123 83.3352C45.4792 83.7707 45.6301 83.9218 46.065 83.7974C46.4999 83.664 46.6774 83.7352 46.5976 83.9929C46.0206 85.0152 45.639 85.8329 45.4526 86.4463C45.2662 87.0596 44.8047 87.7352 44.0591 88.464C44.5473 88.6063 44.7603 88.7929 44.6981 89.0152C44.636 89.2374 44.5118 89.4507 44.3165 89.6552C44.1301 89.8596 43.926 90.0907 43.7218 90.3396C43.5177 90.5885 43.5266 90.8107 43.7307 91.024C43.5532 91.184 43.42 91.1929 43.3313 91.0418C43.2425 90.8996 43.0916 90.944 42.8875 91.1929C42.6656 91.984 42.568 92.4729 42.5768 92.6596C42.5946 92.8463 42.568 93.2907 42.5058 94.0107C42.3106 94.2596 42.0354 94.4107 41.6893 94.464C41.3431 94.5174 41.1123 94.7574 40.997 95.2018C41.2544 95.2285 41.4052 95.1574 41.4496 94.9796C41.494 94.8018 41.6538 94.7307 41.9023 94.7574C41.7869 95.2018 41.5473 95.6018 41.1834 95.9752C40.8195 96.3396 40.4644 96.6863 40.1183 97.0152C40.3579 97.1307 40.3845 97.5485 40.1981 98.2507C39.8076 98.2063 39.639 98.0907 39.6834 97.9218C39.7277 97.744 39.5502 97.6818 39.1331 97.7263C39.3283 98.0196 39.4437 98.6063 39.4881 99.4774C39.5413 100.348 39.1774 101.015 38.4052 101.468L39.3727 101.584C39.4348 101.868 39.3017 102.011 38.9733 102.02C38.6449 102.028 38.4408 102.162 38.3786 102.428C38.7692 102.473 38.9378 102.58 38.9023 102.757C37.3668 105.957 36.1064 109.353 35.1035 112.935C34.1538 116.535 33.2041 119.975 32.2632 123.255L32.849 123.326C32.3697 123.824 32.0413 124.446 31.855 125.211C31.6774 125.966 31.5976 126.74 31.6153 127.522C31.6419 128.304 31.5709 129.033 31.4112 129.7C31.2514 130.375 30.9585 130.864 30.5147 131.184C30.8254 131.86 30.9496 132.5 30.8697 133.086C30.7987 133.673 30.7899 134.34 30.8254 135.086C30.3993 135.308 30.1331 135.584 30.0266 135.895C29.9289 136.206 29.849 136.562 29.8047 136.971C29.7603 137.38 29.7159 137.771 29.6804 138.135C29.6449 138.5 29.4141 138.793 28.9881 139.024C29.5029 139.264 29.6183 139.717 29.352 140.384C29.0857 141.042 28.8638 141.593 28.6952 142.037C28.9615 142.073 29.1567 142.162 29.2721 142.313C29.3964 142.464 29.2455 142.606 28.8283 142.748C28.9437 142.944 29.1479 142.971 29.423 142.82C29.2277 143.531 29.1745 144.197 29.2544 144.811C29.3431 145.424 29.2899 146.082 29.0946 146.802C28.8194 146.864 28.7218 146.828 28.8017 146.695C28.8816 146.562 28.7839 146.482 28.5177 146.455C28.3757 146.526 28.2692 146.606 28.1981 146.695C28.1271 146.775 28.0206 146.855 27.8786 146.935C27.994 147.228 28.1804 147.46 28.4289 147.62C28.6863 147.788 28.8727 147.975 28.9881 148.171C28.6952 148.508 28.6952 149.015 28.9881 149.7C29.281 150.384 29.0768 150.962 28.3757 151.433C28.5177 151.353 28.7218 151.308 28.9881 151.3C29.2632 151.282 29.3165 151.406 29.1656 151.664C29.1479 151.94 28.9792 152.055 28.6419 152.02C28.3135 151.984 28.136 152.1 28.1183 152.375C27.9763 152.544 28.136 152.606 28.6064 152.571C29.0768 152.535 29.2455 152.597 29.0946 152.766C28.9348 153.3 28.855 154.144 28.8638 155.308C28.8816 156.464 28.6774 157.211 28.2692 157.531C28.4023 157.548 28.6064 157.522 28.8727 157.46C29.1479 157.397 29.2721 157.46 29.2632 157.646C29.1035 158.464 28.9703 159.415 28.8638 160.517C28.7662 161.62 28.5798 162.615 28.2869 163.513C28.2869 163.326 28.1626 163.22 27.8875 163.184C27.7455 163.726 27.4082 163.966 26.8668 163.895C26.9999 164.188 26.9555 164.366 26.7603 164.437C26.5561 164.508 26.6538 164.606 27.0621 164.748C27.0709 164.286 27.3461 164.082 27.8786 164.144C28.1449 164.544 28.136 165.006 27.8609 165.531C28.5354 165.611 28.7307 165.957 28.4555 166.58C28.1804 167.193 27.9763 167.593 27.8431 167.762C28.3757 167.913 28.7839 167.922 29.0502 167.762C28.9171 169.051 28.9171 170.233 29.0502 171.317C29.1922 172.402 29.3697 173.468 29.5916 174.526C29.8135 175.575 30.0088 176.713 30.1686 177.948C30.3372 179.175 30.4526 180.588 30.5236 182.188C30.2573 182.251 29.991 182.215 29.7159 182.091C29.4408 181.966 29.3076 181.993 29.3165 182.18C30.1242 182.366 30.5413 182.651 30.5591 183.024C30.5768 183.397 30.7277 183.833 31.0206 184.34C31.2869 184.277 31.4822 184.233 31.6153 184.197C31.7484 184.162 31.8905 184.304 32.0325 184.597C31.2958 185.815 31.1626 187.042 31.6419 188.268C32.1212 189.495 32.21 190.74 31.8993 192.02C31.349 191.762 31.0206 191.451 30.9319 191.06C30.8431 190.677 30.7189 190.375 30.568 190.171C30.1686 190.215 29.9822 190.357 29.991 190.597C30.0088 190.828 30.0887 191.051 30.2396 191.255C30.3905 191.46 30.5413 191.691 30.6922 191.94C30.8431 192.188 30.7189 192.34 30.3283 192.384C30.6035 192.508 30.7189 192.615 30.6567 192.704C30.5946 192.793 30.7011 192.846 30.9674 192.882C30.8165 192.58 30.9319 192.455 31.3402 192.508C31.3579 192.695 31.3313 192.811 31.2692 192.846C31.207 192.882 31.1804 192.997 31.1981 193.193C32.0058 193.291 32.423 193.477 32.4496 193.762C32.3431 194.126 32.4585 194.651 32.778 195.344C33.1064 196.037 33.4348 196.775 33.7721 197.566C34.1183 198.357 34.3224 199.131 34.3934 199.886C34.4733 200.642 34.1271 201.211 33.3638 201.593C33.6479 201.717 33.923 201.797 34.1893 201.833C34.4644 201.868 34.6064 201.975 34.6242 202.162C35.9378 205.602 37.2337 209.14 38.5118 212.775C39.8342 216.411 41.6094 220.162 43.8372 224.011C43.5976 224.171 43.6597 224.508 44.0147 225.024C44.3697 225.54 44.6981 225.904 44.9999 226.135C44.9289 225.753 44.8135 225.451 44.6449 225.246C45.3372 225.424 45.7632 225.78 45.923 226.322C46.0916 226.855 46.3934 227.3 46.855 227.637C47.8402 227.282 48.497 226.722 48.8165 225.957C49.1449 225.193 49.6508 224.571 50.352 224.082C50.3342 224.74 50.4408 225.317 50.6538 225.815C50.8757 226.313 50.778 226.864 50.3697 227.477C50.9023 227.54 51.1863 227.664 51.2218 227.86C50.8135 228.473 50.4851 229.166 50.2366 229.94C49.9881 230.713 50.2011 231.424 50.849 232.064C49.7928 232.028 49.0473 232.037 48.5857 232.082C48.1331 232.117 47.5916 232.197 46.9526 232.313C45.8165 231.895 44.8047 231.468 43.926 231.033C43.0473 230.597 42.0354 230.171 40.8905 229.753C38.4851 227.575 36.3905 225.202 34.6153 222.633C32.8579 220.064 31.5709 217.46 30.781 214.828C29.7514 213.291 28.9348 211.735 28.3224 210.162C27.7189 208.588 27.1153 206.962 26.5118 205.291C24.3106 198.464 22.7662 191.744 21.8786 185.14C21.1331 178.562 20.2899 171.877 19.3579 165.068C19.5354 162.766 19.5621 160.34 19.4467 157.771C19.349 155.211 19.3845 152.597 19.5443 149.94C19.7129 149.495 19.8283 148.82 19.8905 147.904C19.9615 146.988 20.0236 146.162 20.0768 145.433C20.3875 143.344 20.5029 141.353 20.423 139.451C20.352 137.548 20.5828 135.486 21.1242 133.246C21.1774 132.793 21.3283 132.42 21.568 132.126C21.8076 131.833 21.9496 131.504 22.0029 131.14C22.065 130.686 22.1183 130.028 22.1715 129.157C22.2248 128.286 22.3047 127.495 22.4112 126.775C22.4378 126.597 22.5532 126.491 22.7573 126.473C22.9615 126.446 23.1479 126.357 23.3076 126.197C23.1123 123.966 23.4496 121.673 24.3194 119.3C25.2159 116.935 25.855 114.437 26.2366 111.833C26.9467 110.997 27.0887 110.331 26.6538 109.824C27.2218 109.708 27.5502 109.406 27.6567 108.917C27.7632 108.428 27.7189 107.984 27.5325 107.602C28.3845 105.602 29.068 103.948 29.5739 102.633C30.0887 101.326 30.7632 99.5307 31.6064 97.264C31.9615 96.944 32.2366 96.5174 32.4408 95.9929C32.6449 95.4685 32.6449 95.104 32.423 94.8996C33.5502 93.2107 34.4023 91.4863 34.9615 89.7352C35.5384 87.984 36.3727 86.4018 37.4733 84.9885C37.5621 84.2685 37.8283 83.5129 38.281 82.704C38.7337 81.8952 39.2396 81.0685 39.7721 80.224C40.3135 79.3796 40.8106 78.5796 41.2632 77.8152C41.7159 77.0507 41.9289 76.3485 41.8757 75.7174C42.568 75.2551 42.8254 74.6952 42.6567 74.0463C43.3934 73.8596 43.8461 73.4151 44.0236 72.7129C44.21 72.0107 44.4763 71.3618 44.8224 70.7751C45.0798 70.4463 45.3461 70.1618 45.6301 69.9218C45.9141 69.6818 46.0473 69.424 46.0118 69.1574C46.0739 68.9796 46.0561 68.864 45.9407 68.8107C45.8342 68.7485 45.8076 68.6329 45.8697 68.464C46.0916 68.2151 46.3313 68.0196 46.5887 67.8685C46.8461 67.7174 47.068 67.5663 47.2632 67.4063C47.7159 66.9174 48.0621 66.3485 48.3106 65.6996C48.5591 65.0507 48.7987 64.4285 49.0384 63.824C49.3668 63.6818 49.7484 63.4507 50.2011 63.1485C50.6538 62.8374 50.6449 62.6152 50.1745 62.4729C50.707 61.8152 51.3194 61.0952 52.0295 60.3218C52.7396 59.5485 53.2277 58.6863 53.494 57.7263C54.6301 56.5974 55.6863 55.1929 56.6804 53.504C57.6834 51.824 58.7307 50.5085 59.8135 49.5574C59.6449 49.3618 59.6094 49.1307 59.7248 48.8729C59.8047 48.704 59.9289 48.6507 60.0976 48.7129C60.2662 48.7752 60.3905 48.7218 60.4703 48.5529C61.3757 46.864 62.636 45.1485 64.2514 43.4063C65.8757 41.664 67.1094 40.0818 67.9437 38.6596C71.0147 35.4329 74.0236 32.144 76.9881 28.7752C79.997 25.424 83.1301 22.1085 86.3786 18.8374C89.6715 15.5663 93.0798 12.384 96.6124 9.28182C100.18 6.18849 103.944 3.27293 107.92 0.535156C109.793 0.730712 111.408 1.03293 112.757 1.44182C114.098 1.84182 114.346 2.88182 113.503 4.54404C113.112 4.76627 112.731 4.92627 112.358 5.01516C111.985 5.10404 111.603 5.26405 111.213 5.48627C109.109 7.02404 107.103 8.74849 105.213 10.6596C103.34 12.5707 101.512 14.1885 99.71 15.4952C99.2129 16.3218 98.5828 16.9618 97.8106 17.4152C97.0384 17.8596 96.4171 18.4996 95.9289 19.3352C94.8461 20.0996 93.8875 20.9529 93.0354 21.8774C92.1922 22.8018 91.4378 23.6285 90.7721 24.3574C90.4348 24.4996 90.1686 24.6418 89.9555 24.8018C89.7425 24.9529 89.5029 25.1485 89.2455 25.3885C88.4911 26.2863 87.5946 27.3352 86.5561 28.5529C85.5177 29.7707 84.4348 30.7218 83.3076 31.3974C82.0739 32.7752 80.7692 34.2952 79.3934 35.9752C78.0354 37.6552 76.5709 39.2907 75.0088 40.9085C74.2721 42.1618 73.4822 43.0152 72.6212 43.4596C72.5413 43.0952 72.8342 42.6774 73.5088 42.2152C74.1834 41.7529 74.3165 41.4152 73.9082 41.1929C73.3402 41.8418 72.6922 42.5085 71.9733 43.1929C71.2632 43.8685 70.9348 44.5707 70.9792 45.2907C71.423 44.8907 71.6626 44.6063 71.6715 44.4285C71.6893 44.2507 71.991 44.1085 72.5591 43.9929C70.9082 46.1352 69.426 48.0907 68.1035 49.8685C66.7987 51.6463 65.352 53.6107 63.7721 55.7707C63.4526 55.9129 63.3195 55.8507 63.3638 55.5929C63.4082 55.3263 63.2573 55.3085 62.8934 55.5396C62.7514 55.8774 63.0266 56.0018 63.7189 55.904C63.6124 56.1618 63.3993 56.4285 63.0887 56.704C62.778 56.9796 62.5295 57.024 62.352 56.8196C62.6005 56.8463 62.778 56.7307 62.8845 56.4729C62.991 56.2152 62.9112 56.1174 62.6183 56.1707C62.3342 56.224 61.9615 56.4996 61.491 56.9885C62.1124 57.0596 62.3342 57.1485 62.1567 57.264C61.9792 57.3796 62.2366 57.3885 62.9289 57.2818C62.0591 57.8152 61.4289 58.6152 61.0561 59.6996C60.6834 60.784 59.9467 61.5751 58.8283 62.0818C58.7928 62.1707 58.9615 62.2329 59.3431 62.2774C58.8106 63.2996 58.1538 64.0551 57.3727 64.5529C56.5916 65.0507 55.8993 65.7618 55.278 66.6774C55.5354 66.704 55.7041 66.6774 55.8017 66.5974C55.8993 66.5174 56.0591 66.5351 56.2721 66.6507C55.6597 67.9307 55.0916 69.0152 54.568 69.904C54.0443 70.7929 53.352 71.7263 52.4733 72.7129L53.0413 72.7751C52.5887 74.0818 51.8076 75.3885 50.6981 76.7129C49.5976 78.0374 49.0206 79.1929 48.9585 80.1796C48.639 80.7751 48.0887 81.2551 47.3076 81.6196C46.6952 81.4596 46.3402 81.5574 46.2248 81.904C46.1183 82.2507 45.852 82.4463 45.4437 82.4907C45.5413 82.5885 45.9141 82.6774 46.5532 82.7485C46.5354 82.384 46.6153 82.144 46.7839 82.0285C46.9526 81.9129 47.1301 81.7707 47.3076 81.6107L47.5295 81.6552ZM76.8549 31.424C76.8106 31.6374 76.6419 31.7796 76.349 31.8329C76.5088 32.0285 76.7307 32.0285 77.0236 31.8418C77.3165 31.6552 77.3875 31.4596 77.2277 31.264C77.0325 31.1574 76.9082 31.2107 76.8549 31.424ZM75.1064 33.8329C75.2396 33.584 75.0798 33.5129 74.6183 33.6463C74.8135 34.0196 74.9733 34.0907 75.1064 33.8329ZM71.8934 36.4818C71.139 37.3352 70.7839 37.984 70.8106 38.4374C71.5206 37.7974 72.1153 37.2018 72.5946 36.6329C73.0828 36.064 73.6153 35.4507 74.21 34.8107C73.4289 35.0685 72.6567 35.6374 71.8934 36.4818ZM72.6567 38.6418C72.9851 38.4996 73.3224 38.224 73.6508 37.8152C73.9881 37.4063 74.139 37.1129 74.0946 36.9263C73.3579 37.1129 72.8786 37.6818 72.6567 38.6418ZM71.5384 39.7263C72.0709 39.6996 72.3816 39.4596 72.4703 39.024C72.1064 38.9796 71.7958 39.2107 71.5384 39.7263ZM68.2011 41.3618C68.778 41.2463 69.0887 40.8818 69.1331 40.2596C68.3076 40.6152 67.997 40.9796 68.2011 41.3618ZM64.4289 45.5663C63.4348 46.5707 62.6715 47.8063 62.139 49.2729C62.9378 48.3752 63.8254 47.2907 64.8106 46.0107C65.8047 44.7307 66.7011 43.5218 67.5177 42.3574C67.7662 42.384 67.9703 42.2952 68.139 42.0907C68.3076 41.8863 68.281 41.7263 68.0768 41.6107C67.8283 41.584 67.7307 41.664 67.7662 41.8418C67.8106 42.0285 67.7307 42.1974 67.5177 42.3485C66.4615 43.4863 65.4319 44.5529 64.4289 45.5663ZM72.4348 43.6996C72.0088 43.6552 72.0798 43.5663 72.6479 43.4596C72.9319 43.6729 72.8609 43.7529 72.4348 43.6996ZM67.4822 44.4907C67.855 44.5352 68.139 44.3396 68.3431 43.9129C68.0058 43.7974 67.7218 43.984 67.4822 44.4907ZM66.4792 45.5929C66.0976 45.9929 65.8668 46.2863 65.7869 46.4552C66.2396 46.3218 66.568 46.1174 66.7632 45.824C66.9674 45.5307 67.2248 45.184 67.5532 44.7752C67.2248 44.9085 66.8609 45.184 66.4792 45.5929ZM70.4644 45.8329C70.8727 45.6552 70.855 45.6285 70.4023 45.7618C70.0384 45.984 70.0561 46.0107 70.4644 45.8329ZM69.0088 47.0774C68.9289 47.2463 68.849 47.4152 68.778 47.584C69.2751 47.6374 69.4792 47.4774 69.3816 47.1129C69.2129 46.9174 69.0887 46.9085 69.0088 47.0774ZM66.9408 47.1129C67.3757 47.1574 67.3668 47.1129 66.9052 46.9707C66.497 47.024 66.5147 47.0685 66.9408 47.1129ZM64.8727 47.3529C64.4289 47.8863 64.3224 48.2063 64.5265 48.3218C64.9881 48.464 65.1922 48.304 65.1301 47.8507C65.0768 47.3974 65.2544 47.1485 65.6715 47.104C65.5828 46.7396 65.3165 46.8196 64.8727 47.3529ZM63.6123 49.6996C63.639 49.7885 63.7366 49.7974 63.8964 49.7352C64.0206 49.7529 64.0739 49.7085 64.0473 49.6196C64.0206 49.5307 63.9763 49.5663 63.8964 49.7352C63.6834 49.6196 63.5946 49.6107 63.6123 49.6996ZM20.9555 162.9C21.2751 163.868 21.0976 164.633 20.4052 165.202C20.4052 165.477 20.5029 165.628 20.707 165.655C20.9112 165.682 21.1508 165.753 21.4171 165.877C20.8757 166.366 20.6981 166.953 20.8934 167.628C21.0976 168.304 20.92 168.891 20.3786 169.38C20.5118 169.584 20.7514 169.726 21.0887 169.815C21.426 169.904 21.5946 170.037 21.5946 170.224C21.7544 173.504 22.0206 176.748 22.3934 179.957C22.7928 183.175 23.5029 186.437 24.5147 189.735C24.5325 190.02 24.4437 190.215 24.2484 190.331C24.0532 190.446 23.9644 190.597 23.9733 190.793C24.7011 191.531 24.9851 192.224 24.8342 192.864C24.6834 193.495 25.0916 194.02 26.068 194.42C24.8254 188.375 23.8135 182.677 23.0147 177.308C22.3135 171.966 21.8697 166.775 21.6834 161.735C21.497 158.837 21.5325 156.313 21.7721 154.171C22.0295 152.028 22.0561 149.371 21.8786 146.206C22.0206 146.126 22.2514 145.788 22.5709 145.175C22.8816 138.935 23.6981 132.695 25.0206 126.464C26.4851 120.26 28.1893 114.384 30.1242 108.855C31.8017 103.753 33.568 98.9263 35.423 94.3574C37.3579 89.8063 39.781 84.9796 42.7277 79.8863C44.9733 75.1663 47.778 70.2507 51.1508 65.1396C54.6212 60.0463 58.136 55.0952 61.6774 50.2952C60.4082 50.7752 59.4052 51.7174 58.6597 53.1129C57.923 54.5085 57.2396 55.664 56.5828 56.5796C56.0236 56.9618 55.6863 57.3796 55.5709 57.8152C55.4555 58.2507 55.0118 58.6063 54.2396 58.8818C54.2307 59.8685 53.6449 60.9974 52.4822 62.2596C51.3194 63.5218 50.5561 64.624 50.1922 65.5751C50.0591 65.9218 49.7396 66.064 49.2337 66.0107C49.3934 66.2952 49.3047 66.6063 48.9851 66.9263C48.6656 67.2463 48.6656 67.5218 48.9763 67.7352C47.2899 69.7974 45.6922 72.2774 44.21 75.184C42.7632 78.0907 41.352 80.8729 39.9763 83.5218C40.0561 83.7085 39.994 83.7974 39.7987 83.7707C39.6035 83.744 39.4348 83.7707 39.2751 83.8418C38.9467 85.344 38.3165 86.7929 37.3668 88.1796C36.426 89.5663 35.8845 91.024 35.7248 92.5529C35.6271 92.8996 35.4408 93.1129 35.1567 93.1663C34.8727 93.2196 34.8106 93.4418 34.9792 93.824C34.7839 94.0729 34.5265 94.2507 34.2337 94.3485C33.9408 94.4463 33.7011 94.5796 33.5236 94.7396C33.923 95.7885 33.8431 96.8463 33.3017 97.9218C32.7603 98.9974 32.2721 100.144 31.8372 101.371C31.6419 101.62 31.4644 101.673 31.2958 101.513C31.1271 101.353 30.9496 101.406 30.7544 101.655C30.5857 102.366 30.5768 102.953 30.7366 103.433C30.8964 103.904 30.5946 104.331 29.8402 104.695C30.4703 105.495 30.4615 106.295 29.8135 107.086C29.1656 107.877 28.6863 108.713 28.3668 109.593C28.2336 110.215 28.1715 110.846 28.1804 111.486C28.1893 112.126 27.994 112.748 27.6035 113.344C27.5502 113.611 27.3993 113.886 27.1331 114.18C26.8757 114.473 26.92 114.775 27.2662 115.086C26.4585 116.544 25.9615 118.135 25.7928 119.86C25.6419 121.584 25.1804 123.14 24.426 124.517C24.3816 126.624 24.1331 128.571 23.6804 130.357C23.2455 132.144 22.855 133.94 22.4999 135.744C22.3668 135.726 22.2603 135.762 22.1804 135.842C22.1005 135.922 21.9319 135.948 21.6656 135.922C21.6479 136.1 21.8342 136.215 22.2336 136.268C22.1893 136.633 22.1538 136.953 22.1271 137.22C22.1005 137.495 21.8786 137.646 21.4615 137.691C22.3224 138.526 22.4555 139.557 21.8609 140.784C21.2751 142.002 21.1863 143.335 21.6035 144.766C21.426 145.3 21.2928 145.655 21.2129 145.824C21.1331 146.002 21.2129 146.286 21.4526 146.686C20.7692 146.793 20.5916 146.926 20.9112 147.104C21.2396 147.282 21.1331 147.38 20.5828 147.415C21.1508 149.051 21.355 150.58 21.1952 151.993C21.0532 153.406 20.8757 154.891 20.6626 156.446C21.3194 157.077 21.5325 157.664 21.3017 158.188C21.0798 158.722 20.8934 159.3 20.7337 159.931C20.565 160.953 20.636 161.94 20.9555 162.9ZM62.3786 51.3707C62.3254 51.4952 62.1567 51.5929 61.8638 51.6463C61.8283 51.7263 61.8283 51.7974 61.8727 51.8507C61.9171 51.904 61.9171 51.9663 61.8816 52.0552L62.2544 52.0996C62.281 51.744 62.4585 51.5663 62.7869 51.5574C63.1153 51.5485 63.1331 51.4418 62.8313 51.2285C62.5828 51.1929 62.4319 51.2463 62.3786 51.3707ZM60.2218 53.824C60.0088 54.4729 59.6893 54.9974 59.2544 55.3974C59.9555 55.2996 60.4082 54.9174 60.6212 54.2685C60.8342 53.6196 61.1449 53.1396 61.5443 52.8285C60.8786 52.8374 60.4437 53.1752 60.2218 53.824ZM61.5887 57.5396C61.5621 57.4507 61.6331 57.3618 61.7928 57.2907C61.9171 57.3085 61.7396 57.4151 61.2603 57.6374C61.5088 57.664 61.6242 57.6374 61.5887 57.5396ZM57.568 57.7618C57.3993 58.0107 57.3638 58.1885 57.4526 58.2863C57.9053 58.1529 58.0828 58.0374 57.9851 57.9396C57.8964 57.8418 58.0295 57.6729 58.3845 57.4418C58.0118 57.4151 57.7366 57.5129 57.568 57.7618ZM60.2573 58.8729C60.0532 59.2107 60.2662 59.4152 60.8875 59.4863C60.8342 59.2996 60.7987 59.1396 60.7899 59.0063C60.781 58.8729 60.8254 58.6774 60.9319 58.4196C60.6922 58.384 60.4615 58.5351 60.2573 58.8729ZM56.2455 59.2996C56.1212 59.6018 56.0058 59.8774 55.9082 60.1352C56.3165 60.0907 56.5828 59.9396 56.6804 59.6818C56.7869 59.424 56.8934 59.1663 56.9999 58.9085C56.6183 58.8729 56.3697 58.9974 56.2455 59.2996ZM57.3017 60.8374C57.3461 60.5707 57.2041 60.5085 56.8845 60.6596C56.6893 60.8196 56.6538 60.8996 56.778 60.9174C56.9023 60.9352 56.9289 61.024 56.8668 61.1929C57.1153 61.2196 57.2573 61.104 57.3017 60.8374ZM53.7603 63.5396L53.6094 63.9307L53.9911 63.9752L54.1419 63.584L53.7603 63.5396ZM56.6626 65.9574C56.2721 66.1352 56.2455 66.1174 56.5916 65.8863C57.0354 65.7529 57.062 65.7796 56.6626 65.9574ZM50.8668 67.4685C50.4052 68.0018 49.9792 68.6063 49.5976 69.2818C50.3342 69.0951 50.9112 68.5974 51.3461 67.7885C51.781 66.9796 52.1449 66.3663 52.4378 65.9485C51.852 66.4285 51.3283 66.9352 50.8668 67.4685ZM49.5887 69.824C49.1715 69.8685 49.0029 69.984 49.065 70.1707C49.4112 70.2952 49.6153 70.304 49.6597 70.1707C49.7041 70.0374 49.855 69.9929 50.1123 70.0196C50.1834 69.8418 50.0058 69.7796 49.5887 69.824ZM47.7692 72.1174C47.352 72.9263 47.1745 73.6107 47.2455 74.1618C47.8135 73.6818 48.2484 73.104 48.5591 72.4107C48.8697 71.7263 49.2159 71.0418 49.5887 70.3663C48.7987 70.7307 48.1952 71.3085 47.7692 72.1174ZM50.1035 71.984C50.565 71.9929 50.6183 71.9307 50.2721 71.7974C49.7041 71.9129 49.6419 71.9752 50.1035 71.984ZM46.0029 76.0552L46.7662 76.144C46.9526 75.984 46.997 75.8507 46.8993 75.7529C46.8017 75.6552 46.7662 75.5574 46.7928 75.4685C46.5177 75.5218 46.2514 75.7174 46.0029 76.0552ZM44.6183 77.7974C44.1922 78.2952 44.0768 78.6418 44.2721 78.8463C44.9467 78.8285 45.2484 78.5974 45.2041 78.1352C45.1597 77.6729 45.2751 77.4152 45.5591 77.3618C45.3638 77.1574 45.0532 77.2996 44.6183 77.7974ZM46.1626 78.8551C46.5976 78.9529 46.5887 78.8818 46.1271 78.6507C45.7189 78.6863 45.7277 78.7574 46.1626 78.8551ZM44.8313 80.8018C45.71 80.5352 45.9851 80.1174 45.639 79.5396C45.1686 79.7529 44.9023 80.1796 44.8313 80.8018ZM43.2692 81.3085C42.8875 81.264 42.781 81.3885 42.9496 81.6818C43.5532 81.4774 43.6597 81.3529 43.2692 81.3085ZM41.9555 83.264C41.849 83.8418 41.6449 84.384 41.352 84.8907C41.7159 84.5707 42.0443 84.1707 42.3106 83.7085C42.5857 83.2374 42.8786 82.7574 43.1715 82.2418C42.4792 82.3485 42.0709 82.6863 41.9555 83.264ZM40.6508 85.2196C40.6242 85.3085 40.6686 85.3796 40.7839 85.4418C40.8993 85.504 40.9437 85.5751 40.9171 85.664C41.0502 85.6818 41.1479 85.664 41.2277 85.6285C41.3076 85.5929 41.4141 85.584 41.5384 85.5929C41.6449 85.2374 41.352 85.1129 40.6508 85.2196ZM42.2751 85.8152C42.2484 85.904 42.3372 86.0463 42.5413 86.2507C42.568 86.1618 42.6567 86.0818 42.8165 86.0107C42.8342 85.9218 42.6567 85.8596 42.2751 85.8152ZM41.7958 88.0729C41.6715 88.0552 41.5739 88.1352 41.5295 88.3129C41.6626 88.3307 41.7514 88.2507 41.7958 88.0729ZM39.5147 88.3574L39.3638 88.8818C39.7011 89.104 39.8609 89.1218 39.852 88.9352C39.8431 88.7485 39.923 88.5796 40.1005 88.4196L39.5147 88.3574ZM41.2011 88.7485C41.5739 88.8374 41.5916 88.7663 41.2544 88.5529C40.8461 88.5974 40.8283 88.6596 41.2011 88.7485ZM42.1863 88.7929C42.1597 88.8818 42.0621 89.0063 41.8757 89.1663C42.2573 89.2107 42.4881 89.104 42.568 88.8374C42.3461 88.7218 42.2129 88.7129 42.1863 88.7929ZM37.855 91.3618C37.3135 92.3396 37.3135 93.0951 37.8372 93.6107C37.9792 93.0774 38.1567 92.5796 38.352 92.0996C38.5561 91.6196 38.8934 91.2285 39.3816 90.9263C39.4526 90.6596 39.2573 90.4107 38.7958 90.1796C38.849 90.0018 38.991 89.9485 39.2396 90.0285C39.4881 90.0996 39.6922 90.0996 39.8431 90.0285C40.0473 89.7796 39.9851 89.5218 39.6656 89.2551C39.3461 88.9885 39.1331 89.0329 39.0266 89.3885C38.7869 89.7263 38.4052 90.384 37.855 91.3618ZM39.4082 89.4329C39.3816 89.5218 39.3372 89.5574 39.2751 89.5574C39.2129 89.5485 39.1686 89.5929 39.1419 89.6818C39.0177 89.664 38.9733 89.5751 39.0266 89.3974L39.4082 89.4329ZM35.565 89.5307L35.4851 89.7974L36.0709 89.8685L36.1508 89.6018L35.565 89.5307ZM38.4408 92.864L38.2632 93.5218C38.7603 93.664 39.0887 93.4329 39.2573 92.8196C39.1064 92.8907 38.8313 92.9085 38.4408 92.864ZM39.3905 95.2907C39.7544 95.424 40.0029 95.2285 40.1449 94.6952C39.7632 94.6507 39.5058 94.8463 39.3905 95.2907ZM39.3727 96.1085C39.4526 96.2952 39.5147 96.464 39.5413 96.6063C39.5768 96.7485 39.7899 96.7929 40.1981 96.7485L40.3402 96.2151L39.3727 96.1085ZM32.9822 102.882C32.5384 103.922 32.0325 105.095 31.4733 106.402C31.9082 106.268 32.1745 106.117 32.281 105.948C32.3875 105.78 32.6893 105.771 33.1952 105.922C33.2573 104.464 33.5946 103.024 34.1981 101.593C34.8194 100.162 35.6183 98.544 36.6123 96.7485C36.2218 96.704 35.9023 96.7752 35.6538 96.9796C35.4052 97.1751 35.21 97.424 35.0591 97.7263C34.9171 98.0285 34.8017 98.3574 34.7129 98.7129C34.6242 99.0685 34.4289 99.3174 34.1183 99.4685C33.8076 100.704 33.426 101.842 32.9822 102.882ZM32.3165 98.1618C32.778 98.2151 32.7692 98.1263 32.2899 97.8863C31.855 98.0196 31.8638 98.1085 32.3165 98.1618ZM36.7721 104.277C36.9674 104.028 36.923 103.931 36.639 103.984C36.4881 104.055 36.3993 104.135 36.3816 104.224L36.3194 104.491C36.426 104.606 36.5768 104.535 36.7721 104.277ZM33.6834 106.393C33.7544 106.677 33.6212 106.98 33.2839 107.308C33.8431 107.193 34.1626 106.98 34.2248 106.668C34.2958 106.357 34.3579 106.064 34.42 105.797L34.0295 105.753L34.0916 105.486C34.6952 105.193 34.9082 104.846 34.7218 104.464C34.855 104.482 34.8993 104.437 34.8461 104.34C34.8017 104.242 34.7573 104.286 34.7218 104.464C33.9674 104.828 33.7544 105.175 34.0916 105.486L34.0295 105.753C33.7277 105.895 33.6212 106.108 33.6834 106.393ZM36.1774 105.993C36.0532 105.975 35.9999 105.877 36.0443 105.7C35.5916 105.922 35.565 106.055 35.9555 106.1C36.2396 106.046 36.3106 106.011 36.1774 105.993ZM31.9526 106.944C31.5532 106.944 31.278 106.98 31.1183 107.051C30.9496 107.211 30.994 107.308 31.2603 107.344C31.5266 107.371 31.7839 107.406 32.0502 107.433C31.9703 107.788 31.6242 107.842 31.0118 107.584C31.1183 108.331 31.4112 108.864 31.8727 109.193C32.0591 108.944 32.068 108.74 31.8993 108.58C31.7307 108.42 31.6064 108.251 31.5088 108.055C31.5443 107.877 31.5887 107.833 31.6331 107.931C31.6774 108.028 31.8372 108.091 32.0946 108.117C32.281 107.868 32.3609 107.673 32.3254 107.531C32.2899 107.388 32.352 107.282 32.494 107.211C32.5384 107.033 32.3609 106.944 31.9526 106.944ZM34.3668 109.753C33.994 109.62 33.9674 109.753 34.2869 110.153C34.7129 110.02 34.7396 109.886 34.3668 109.753ZM29.991 111.442C29.92 111.797 29.8313 112.242 29.7248 112.784C30.2839 112.668 30.7455 112.242 31.0916 111.504C31.4467 110.766 31.3135 110.268 30.6922 110.02C30.3017 110.606 30.0709 111.086 29.991 111.442ZM33.9496 111.762L33.8165 112.428C34.1893 112.562 34.3934 112.544 34.4289 112.366C34.4644 112.188 34.4999 112.011 34.5354 111.833L33.9496 111.762ZM31.7662 113.157C31.6863 113.237 31.5088 113.264 31.2514 113.237C31.349 113.433 31.5354 113.495 31.8194 113.442C32.1035 113.38 32.1922 113.255 32.0946 113.06C31.9615 113.042 31.855 113.077 31.7662 113.157ZM30.1863 113.522C30.1686 113.611 30.0798 113.735 29.9112 113.904C30.3017 113.948 30.5325 113.842 30.5768 113.566C30.3372 113.451 30.2041 113.433 30.1863 113.522ZM29.849 114.722C30.3106 114.775 30.2839 114.722 29.778 114.58C29.3697 114.615 29.3964 114.668 29.849 114.722ZM31.8638 116.331L31.7928 116.731L32.5828 116.82C32.6183 116.642 32.6981 116.562 32.8313 116.571C32.8402 116.482 32.5206 116.402 31.8638 116.331ZM29.423 116.455C29.2899 116.437 29.2544 116.482 29.2987 116.58C29.352 116.677 29.2987 116.766 29.1479 116.837C29.2899 116.855 29.3786 116.722 29.423 116.455ZM28.9792 117.228C28.8816 117.397 28.6863 117.557 28.3845 117.708C28.6153 117.922 28.855 117.904 29.1035 117.655C29.352 117.406 29.5561 117.202 29.7159 117.042C29.3254 116.997 29.0768 117.051 28.9792 117.228ZM28.5177 119.237C29.0502 119.3 29.2277 119.042 29.0591 118.473C28.5887 118.873 28.4112 119.131 28.5177 119.237ZM25.0828 130.402C24.6212 131.362 24.9496 132.224 26.0591 132.997C26.2544 132.562 26.3431 132.064 26.352 131.513C26.3609 130.962 26.5206 130.473 26.849 130.055C26.7514 129.771 26.6271 129.682 26.4763 129.806C26.3254 129.931 26.0591 129.913 25.6686 129.78C25.7218 129.415 26.068 129.362 26.6981 129.628C27.1774 128.117 27.4171 126.935 27.4082 126.055C27.4082 125.184 27.7189 124.046 28.3402 122.651C27.8875 122.135 27.8697 121.628 28.2869 121.131C28.7129 120.633 28.8372 120.091 28.6597 119.522C27.5502 120.491 26.8313 121.806 26.4851 123.468C26.1567 125.131 26.1212 126.526 26.3609 127.655C25.9792 128.526 25.5532 129.442 25.0828 130.402ZM29.6183 121.7C29.6094 121.335 29.4674 121.22 29.1656 121.371C29.0058 121.531 28.9792 121.673 29.0946 121.78C29.21 121.886 29.2632 121.984 29.2455 122.073C29.5029 122.188 29.6271 122.064 29.6183 121.7ZM29.1567 123.3C29.6183 123.353 29.6005 123.255 29.1035 123.015C28.6774 123.148 28.6952 123.246 29.1567 123.3ZM30.4703 123.868C30.9319 123.922 30.9052 123.868 30.3905 123.726C29.991 123.762 30.0177 123.815 30.4703 123.868ZM24.1331 123.673C23.9999 123.655 23.92 123.735 23.8934 123.922C24.0265 123.94 24.1064 123.851 24.1331 123.673ZM28.278 125.673L28.2337 125.94L28.8283 126.011C28.8461 125.922 28.8195 125.851 28.7573 125.797C28.6952 125.744 28.6863 125.628 28.7129 125.451L28.278 125.673ZM29.0768 128.526C29.4763 128.571 29.707 128.366 29.7692 127.913C29.3697 127.868 29.139 128.073 29.0768 128.526ZM27.5058 128.206C27.4792 128.384 27.5325 128.508 27.6567 128.571C27.781 128.633 27.8342 128.748 27.8076 128.935C28.1005 128.784 28.2603 128.571 28.2958 128.304L27.5058 128.206ZM27.1863 130.508C27.1508 130.784 27.0532 131.042 26.8757 131.3C27.2839 131.255 27.5768 131.104 27.7455 130.846C27.9141 130.588 27.9496 130.366 27.8342 130.171C27.4437 130.126 27.2307 130.242 27.1863 130.508ZM26.6893 133.628C26.8313 134.108 26.778 134.331 26.5029 134.295C26.4851 134.473 26.6094 134.562 26.8757 134.544C27.1508 134.526 27.355 134.482 27.497 134.411C27.1242 134.18 27.0443 133.966 27.2751 133.762C27.5058 133.557 27.497 133.308 27.2662 132.997C26.7425 132.944 26.5473 133.148 26.6893 133.628ZM25.0561 135.442C24.5147 136.073 24.5413 136.695 25.1449 137.317C24.923 136.917 25.0916 136.277 25.6686 135.371C26.2455 134.473 26.1567 133.788 25.4023 133.335C25.7218 134.108 25.6064 134.811 25.0561 135.442ZM28.8638 134.846C28.7484 134.74 28.5443 134.757 28.2514 134.908C28.2337 135.086 28.4822 135.211 29.0147 135.273C29.0325 135.095 28.9881 134.953 28.8638 134.846ZM28.1893 137.255C28.0384 137.424 28.2248 137.54 28.7573 137.602C28.7662 137.513 28.7396 137.46 28.6686 137.451C28.6064 137.442 28.5709 137.388 28.5798 137.3L28.1893 137.255ZM24.2751 138.873C24.1331 139.593 23.8934 140.304 23.5561 140.997C24.2484 140.891 24.6656 140.713 24.8254 140.455C24.9851 140.197 25.0828 139.904 25.1183 139.593C25.1538 139.273 25.1538 138.908 25.1271 138.491C25.1005 138.073 25.2425 137.744 25.5354 137.504C24.8431 137.691 24.426 138.153 24.2751 138.873ZM28.278 138.233L28.2958 138.1C28.1626 138.082 28.0916 138.162 28.065 138.348C28.1981 138.366 28.2692 138.322 28.278 138.233ZM28.278 140.242C28.1538 140.18 28.0916 140.1 28.1005 140.011C27.9674 139.993 27.8964 140.028 27.8875 140.126C27.8786 140.215 27.9408 140.268 28.0739 140.286C28.3402 140.313 28.4023 140.304 28.278 140.242ZM28.0029 140.971C28.5354 141.033 28.5354 140.988 28.0118 140.837C27.4792 140.864 27.4792 140.908 28.0029 140.971ZM23.4141 142.508C23.3786 142.873 23.3875 143.246 23.4141 143.62C23.4496 143.993 23.4496 144.384 23.4141 144.793C23.3786 145.202 23.21 145.717 22.8816 146.322C23.0147 146.34 23.0857 146.322 23.0857 146.277C23.0857 146.233 23.2277 146.224 23.494 146.26C22.997 147.495 22.8283 148.882 22.997 150.428C23.1745 151.975 23.0236 153.504 22.5354 155.024C23.2366 154.642 23.5384 154.66 23.4496 155.06C23.3609 155.468 23.5916 155.744 24.1153 155.904C23.991 152.926 24.0798 150.348 24.3638 148.162C24.6656 145.975 24.7189 143.628 24.5502 141.122C24.426 141.015 24.2928 141.042 24.1331 141.211C23.9822 141.38 23.9112 141.371 23.9289 141.184C23.6271 141.7 23.4496 142.135 23.4141 142.508ZM26.0058 141.842C26.4763 141.895 26.4496 141.797 25.9348 141.557C25.5177 141.691 25.5443 141.788 26.0058 141.842ZM26.9644 142.437C27.3194 142.251 27.2839 142.224 26.8668 142.357C26.5739 142.597 26.6094 142.624 26.9644 142.437ZM26.9822 143.344C27.0976 143.54 27.2218 143.691 27.3461 143.806C27.4703 143.913 27.5946 144.064 27.71 144.268C27.9763 144.304 28.0828 144.215 28.0295 144.028C27.9763 143.833 27.9585 143.646 27.9763 143.468L26.9822 143.344ZM23.7958 145.184C23.8224 144.908 23.9023 144.784 24.0265 144.793C23.9999 145.068 23.9289 145.193 23.7958 145.184ZM25.4644 145.797C25.3934 145.877 25.349 146.011 25.3313 146.197L26.1301 146.295C26.1479 146.108 26.1567 145.931 26.1745 145.744C26.1922 145.557 25.997 145.495 25.5887 145.54C25.5798 145.62 25.5354 145.708 25.4644 145.797ZM27.1863 145.717C27.1419 146.268 27.3194 146.562 27.7189 146.615C27.7632 146.064 27.5857 145.762 27.1863 145.717ZM25.3934 148.002C25.2514 148.073 25.1183 148.108 24.9851 148.091C25.1094 148.286 25.207 148.348 25.278 148.26C25.3579 148.18 25.5265 148.153 25.7928 148.18C25.6686 147.984 25.5354 147.931 25.3934 148.002ZM25.3224 149.104C25.3313 148.917 25.207 148.855 24.9319 148.917C24.7721 149.264 25.0295 149.486 25.6952 149.566C25.4289 149.442 25.3047 149.291 25.3224 149.104ZM27.2839 149.886C27.1508 149.868 27.0798 149.957 27.0621 150.135C27.2041 150.162 27.2751 150.073 27.2839 149.886ZM25.349 150.144C25.4023 150.384 25.2869 150.571 25.0118 150.731C25.6952 150.624 25.9792 150.34 25.8727 149.86C25.4733 149.815 25.3047 149.913 25.349 150.144ZM26.8402 150.535L26.8224 150.811L27.2218 150.855L27.2396 150.58L26.8402 150.535ZM25.1804 151.308C24.781 151.264 24.7011 151.477 24.9408 151.975C25.4999 151.575 25.5798 151.353 25.1804 151.308ZM24.7544 153.344C24.7987 153.904 25.0118 154.295 25.4023 154.535C25.4289 154.073 25.3757 153.673 25.2603 153.335C25.1449 152.997 25.2337 152.66 25.5177 152.322C24.9763 152.437 24.7189 152.784 24.7544 153.344ZM26.0857 153.077C26.1922 153.548 26.5295 153.62 27.0798 153.264C27.639 152.917 27.5147 152.686 26.7159 152.597C27.0887 153.104 26.8845 153.264 26.0857 153.077ZM24.6834 154.793C24.4703 155.095 24.4881 155.3 24.7544 155.424C25.1626 155.38 25.3047 155.282 25.1715 155.122C25.0473 154.971 25.1183 154.855 25.3845 154.802C25.136 154.5 24.9052 154.491 24.6834 154.793ZM24.7189 156.251C24.9851 156.375 25.0473 156.571 24.8964 156.828C25.1715 156.766 25.278 156.615 25.2159 156.384C25.1626 156.144 25.065 156.02 24.9319 156.002C24.5236 156.046 24.4526 156.126 24.7189 156.251ZM23.2899 156.428C23.1479 156.642 23.2011 156.855 23.4674 157.077C23.8668 157.122 24.0798 156.873 24.1064 156.322C23.707 156.18 23.4408 156.215 23.2899 156.428ZM24.852 157.868C24.9851 158.02 24.9052 158.224 24.6301 158.464C25.0295 158.508 25.2337 158.42 25.2425 158.188C25.2514 157.957 25.4555 157.957 25.8461 158.188C25.7218 157.984 25.6242 157.815 25.5621 157.664C25.4999 157.522 25.2692 157.424 24.8697 157.371C24.7366 157.548 24.7277 157.717 24.852 157.868ZM23.4851 163.131C23.8579 165.166 23.707 166.944 23.0147 168.437L23.8224 168.535C23.9555 169.664 23.8224 170.562 23.423 171.211C23.0236 171.86 23.1656 172.642 23.849 173.566C23.5828 174.002 23.494 174.686 23.5828 175.628C23.6715 176.571 23.9289 177.255 24.3372 177.673C23.6981 178.9 23.6715 180.18 24.2662 181.513C24.8609 182.846 25.065 184.286 24.8786 185.86C25.5621 185.94 25.9082 186.215 25.9348 186.686C25.9615 187.157 26.2544 187.468 26.7958 187.628C26.7337 186.588 26.4496 185.628 25.926 184.722C25.4112 183.824 25.4023 182.935 25.9082 182.055C25.8905 181.584 25.5443 181.308 24.8609 181.228C24.994 181.148 25.2603 181.14 25.6686 181.184C25.1271 177.015 24.6834 172.891 24.3194 168.802C24.0177 164.722 23.9289 160.98 24.0443 157.557C23.3254 159.237 23.1301 161.095 23.4851 163.131ZM24.8964 159.468C25.3668 159.522 25.3313 159.468 24.7987 159.317C24.3993 159.362 24.426 159.415 24.8964 159.468ZM25.5976 159.833C26.139 159.895 26.139 159.851 25.5976 159.691C25.065 159.726 25.0561 159.771 25.5976 159.833ZM24.568 160.411C24.9674 160.455 25.1804 160.251 25.1893 159.788C24.7899 159.735 24.5768 159.94 24.568 160.411ZM25.2603 160.766C25.1893 160.944 25.2869 161.14 25.5443 161.353C25.8106 161.388 25.9792 161.353 26.0502 161.273C26.1212 161.184 26.2899 161.211 26.5561 161.335C26.565 161.148 26.4674 161.024 26.2632 160.953C26.0591 160.882 25.8993 160.748 25.7662 160.544C25.5088 160.517 25.3402 160.588 25.2603 160.766ZM25.1449 161.522C25.0118 161.46 25.0206 161.344 25.1538 161.175C24.8875 161.051 24.781 161.157 24.8431 161.486C24.9052 161.815 25.065 161.948 25.3402 161.895C25.3402 161.7 25.278 161.584 25.1449 161.522ZM24.7277 161.957L24.7189 162.375C24.994 162.313 25.2248 162.295 25.4289 162.322C25.6331 162.348 25.6686 162.26 25.5354 162.055L24.7277 161.957ZM25.2958 163.691L25.1005 163.388L25.1094 163.113C24.8431 163.077 24.7366 163.211 24.7987 163.495C24.8609 163.78 25.0206 163.851 25.2958 163.691ZM24.6656 164.873L24.6567 165.291L25.2603 165.362L25.2692 164.944L24.6656 164.873ZM27.3816 166.028C27.9851 166.002 27.8875 165.993 27.0798 165.993C26.6715 166.037 26.778 166.055 27.3816 166.028ZM25.1538 166.26C25.6242 166.268 25.6597 166.197 25.2603 166.064C24.7189 166.18 24.6834 166.242 25.1538 166.26ZM27.2662 167.477C27.6656 167.291 27.6035 167.264 27.0621 167.388C26.7958 167.637 26.8668 167.664 27.2662 167.477ZM25.2514 167.175C25.1183 167.157 25.0473 167.246 25.0473 167.433C25.1804 167.442 25.2514 167.362 25.2514 167.175ZM26.8579 167.922C26.7248 167.904 26.6538 167.806 26.6538 167.62C26.2455 167.851 26.2455 167.993 26.6538 168.037C26.9289 167.975 26.9999 167.94 26.8579 167.922ZM25.7484 169.184C25.6863 168.802 25.5798 168.375 25.4467 167.895C25.1804 168.046 25.1094 168.393 25.2425 168.917C25.3757 169.442 25.3757 169.931 25.2425 170.384C25.6508 169.957 25.8194 169.566 25.7484 169.184ZM27.9674 170.704C28.0384 170.437 27.9319 170.188 27.6656 169.966C27.3993 170.117 27.3372 170.277 27.4615 170.428C27.5946 170.588 27.5946 170.793 27.4615 171.06C27.7366 171.095 27.9052 170.971 27.9674 170.704ZM25.8638 172.126C26.1301 171.504 25.926 171.06 25.2514 170.793C25.2514 171.255 25.2248 171.771 25.1626 172.322C25.1005 172.873 25.207 173.353 25.4822 173.753C25.4733 173.291 25.6064 172.748 25.8638 172.126ZM27.6745 171.433C27.6745 171.477 27.6123 171.495 27.4703 171.477C27.4703 171.566 27.5058 171.62 27.568 171.628C27.639 171.637 27.6656 171.682 27.6656 171.78C27.7987 171.797 27.8697 171.78 27.8697 171.735C27.8697 171.691 27.9408 171.673 28.0739 171.691C28.0739 171.593 28.0384 171.548 27.9763 171.54C27.9141 171.531 27.8786 171.477 27.8786 171.388C27.7366 171.371 27.6745 171.388 27.6745 171.433ZM27.1774 172.286C27.1064 172.002 26.9378 171.931 26.6715 172.091C26.6715 172.18 26.707 172.26 26.778 172.313C26.849 172.366 26.8845 172.437 26.8845 172.535C27.1508 172.651 27.2484 172.571 27.1774 172.286ZM26.1123 175.513C26.3697 174.988 26.1656 174.544 25.4822 174.18C25.6242 174.757 25.6419 175.264 25.5088 175.717C25.3845 176.171 25.6686 176.624 26.352 177.077C25.9348 176.562 25.8638 176.037 26.1123 175.513ZM28.3313 175.282C28.3224 174.864 28.1183 174.722 27.7189 174.864C27.7277 175.424 27.8076 175.762 27.9408 175.868C28.207 175.895 28.3402 175.7 28.3313 175.282ZM28.0828 177.486C28.1538 177.637 28.0561 177.691 27.7899 177.664C27.7987 177.851 27.9674 177.913 28.2958 177.868C28.6331 177.815 28.6597 177.682 28.3845 177.46C28.1094 177.326 28.0118 177.344 28.0828 177.486ZM26.5029 178.775C26.5561 178.313 26.3076 177.868 25.7573 177.424C26.0325 177.646 26.1479 177.984 26.0857 178.446C26.0325 178.908 26.0147 179.326 26.0236 179.7C26.2987 179.54 26.4496 179.228 26.5029 178.775ZM24.3816 178.66C24.3727 178.375 24.4348 178.251 24.568 178.26C24.5768 178.544 24.5147 178.677 24.3816 178.66ZM24.8076 179.548C24.6745 179.628 24.6834 179.762 24.8254 179.966C24.5591 180.117 24.3905 180.002 24.3106 179.628C24.2307 179.246 24.3283 179.068 24.5946 179.104C24.8697 179.326 24.9408 179.468 24.8076 179.548ZM26.352 180.295C26.4319 180.491 26.3342 180.571 26.0591 180.544L26.4763 180.873L26.8845 180.917C26.8757 180.731 26.9467 180.624 27.0709 180.588C27.2041 180.553 27.2041 180.437 27.0621 180.233C26.7958 180.384 26.6626 180.322 26.6538 180.046C26.3786 180.02 26.281 180.1 26.352 180.295ZM28.8993 181.015C28.8816 180.642 28.6774 180.384 28.2692 180.242C28.4112 180.535 28.4289 180.82 28.3047 181.086C28.1804 181.353 28.2603 181.593 28.5354 181.815C28.7928 181.655 28.9171 181.388 28.8993 181.015ZM26.5206 184.304C26.9112 185.335 27.1331 186.357 27.1952 187.397C27.5502 186.508 27.5236 185.424 27.1242 184.162C26.7336 182.9 26.6538 181.957 26.9023 181.335C26.2632 182.286 26.139 183.273 26.5206 184.304ZM28.9703 182.704C28.6952 182.58 28.5976 182.66 28.6774 182.953C28.7573 183.246 28.9348 183.353 29.1922 183.291L29.1745 182.864C29.0413 182.846 28.9703 182.793 28.9703 182.704ZM28.6331 184.064L28.6508 184.348L29.2544 184.42L29.2366 184.135L28.6331 184.064ZM28.6686 184.908C28.9526 185.131 29.2277 185.255 29.494 185.291C29.6183 185.113 29.352 184.988 28.6686 184.908ZM29.5118 185.637C29.3786 185.664 29.2455 185.628 29.1035 185.522C28.9881 185.788 29.1301 185.948 29.5295 185.993C29.5206 185.895 29.5916 185.86 29.7248 185.877C29.7159 185.682 29.6449 185.602 29.5118 185.637ZM29.0768 186.775C29.2987 187.077 29.5473 187.344 29.8224 187.566C29.6626 187.077 29.6449 186.748 29.7692 186.58C29.8934 186.402 29.6804 186.242 29.139 186.082C28.8816 186.242 28.855 186.473 29.0768 186.775ZM30.4792 188.482C30.4526 188.011 30.1686 187.833 29.6449 187.966C29.7958 188.268 29.849 188.482 29.7869 188.615C29.7337 188.748 29.8402 188.971 30.1331 189.291C30.3993 189.22 30.5147 188.953 30.4792 188.482ZM26.6626 188.588C26.9467 188.811 27.0088 188.722 26.849 188.331C26.9822 188.348 27.0177 188.304 26.9378 188.197C26.8668 188.091 26.8313 188.135 26.849 188.331C26.4408 188.286 26.3786 188.366 26.6626 188.588ZM27.781 188.651C27.7189 188.686 27.6212 188.704 27.4792 188.686L27.5058 189.113C27.9141 189.157 28.1005 188.997 28.0828 188.624C27.9408 188.606 27.8431 188.615 27.781 188.651ZM26.9112 189.326L26.8934 189.042C26.6271 189.006 26.4851 189.042 26.494 189.131C26.5029 189.228 26.6449 189.291 26.9112 189.326ZM28.1715 190.037L28.1449 189.611C27.8786 189.673 27.7544 189.753 27.7544 189.842C27.7632 189.94 27.8964 190.002 28.1715 190.037ZM26.4408 191.3C26.2189 191.975 26.4763 192.633 27.1952 193.282C27.0798 193.451 26.8757 193.522 26.6094 193.495C26.3342 193.46 26.281 193.593 26.4408 193.895C26.7159 193.931 26.8579 194.082 26.8845 194.366C27.9319 193.931 28.207 193.282 27.7455 192.428C27.2751 191.575 27.0798 190.686 27.1508 189.762C26.9023 190.117 26.6626 190.624 26.4408 191.3ZM28.491 191.753C28.5088 191.94 28.7129 192.064 29.1212 192.108C29.1123 191.922 28.8993 191.806 28.491 191.753ZM29.4674 193.975C29.4052 193.22 29.0946 192.615 28.5265 192.18C28.5887 193.033 28.6774 193.744 28.7928 194.322C28.9082 194.9 29.1212 195.433 29.4319 195.94C29.5206 195.388 29.5295 194.731 29.4674 193.975ZM32.2987 192.908C31.8283 192.855 31.7839 192.757 32.1745 192.615C32.7248 192.864 32.7692 192.962 32.2987 192.908ZM31.3757 193.993C31.855 194.1 31.8106 194.02 31.2603 193.771C30.8609 193.815 30.9052 193.886 31.3757 193.993ZM31.6331 194.66C32.1035 194.713 32.068 194.66 31.5177 194.508C31.1183 194.544 31.1626 194.597 31.6331 194.66ZM28.0828 196.624C27.4437 197.015 27.3194 197.495 27.71 198.055C28.1005 198.615 28.3845 199.095 28.5532 199.495C29.0236 198.802 29.0502 198.028 28.6419 197.184C28.2337 196.34 28.0561 195.451 28.1094 194.517L27.497 194.446C27.3905 194.811 27.4526 195.122 27.6745 195.38C27.8964 195.637 27.6656 195.637 26.9644 195.362C26.7514 196.091 27.1242 196.508 28.0828 196.624ZM32.9112 218.126C33.0354 218.944 33.5768 219.362 34.5177 219.38C33.0265 216.66 31.9082 214.028 31.1538 211.495C30.8697 211.362 30.6479 211.246 30.497 211.131C30.3461 211.015 30.1331 210.9 29.8402 210.766C29.9644 210.686 30.2307 210.668 30.639 210.722C30.2928 210.117 29.9023 209.735 29.4851 209.593C29.4496 207.148 28.9615 204.713 28.0206 202.304C27.0976 199.895 26.4585 197.362 26.0946 194.695C25.5621 194.722 25.2958 194.882 25.3224 195.166C25.349 195.451 25.4467 195.788 25.6153 196.188C25.7839 196.58 25.926 196.997 26.0325 197.433C26.139 197.868 25.9348 198.197 25.4112 198.411C25.7573 199.202 26.0502 199.824 26.2987 200.277C26.5473 200.731 26.7248 201.477 26.8313 202.526C27.5946 203.371 27.9763 204.375 27.9763 205.548C27.9851 206.722 28.4555 207.833 29.3875 208.891C29.5473 209.095 29.5384 209.264 29.352 209.38C29.1656 209.495 29.0857 209.655 29.1123 209.842C29.4141 210.064 29.5739 210.268 29.6005 210.464C29.5916 211.406 29.9555 212.384 30.71 213.415C31.4644 214.446 32.0413 215.406 32.4408 216.304C32.6271 216.704 32.7869 217.308 32.9112 218.126ZM29.2721 196.482C29.4408 196.873 29.4674 197.157 29.352 197.335C29.7514 197.291 29.9733 197.131 30.0088 196.855C30.0532 196.58 29.9999 196.34 29.849 196.135C29.2987 195.966 29.1123 196.091 29.2721 196.482ZM31.0118 196.828C31.491 196.882 31.5088 196.793 31.0916 196.553C30.568 196.686 30.5413 196.775 31.0118 196.828ZM31.9615 197.291C31.5532 197.193 31.2869 197.228 31.1715 197.406C31.1981 197.691 31.349 197.851 31.6153 197.877C31.8905 197.913 32.1567 197.94 32.423 197.975C32.5295 197.62 32.3697 197.388 31.9615 197.291ZM29.8047 198.935C29.9023 199.228 30.0709 199.291 30.3283 199.14L30.3017 198.855C30.0354 198.82 29.9644 198.766 30.0887 198.686C30.2218 198.704 30.2573 198.66 30.1774 198.553C30.0976 198.446 30.0709 198.491 30.0887 198.686C29.8047 198.562 29.707 198.642 29.8047 198.935ZM28.4378 200.393C28.1005 201.06 28.4289 201.637 29.423 202.126C29.4319 202.224 29.1656 202.233 28.6242 202.171C29.0768 202.597 29.2987 203.095 29.2899 203.655C29.2899 204.215 29.4496 204.748 29.7692 205.264C30.0354 205.202 30.1952 205.148 30.2573 205.113C30.3194 205.068 30.4792 205.024 30.7455 204.962C30.6479 204.108 30.426 203.308 30.0798 202.562C29.7336 201.815 29.5828 201.024 29.636 200.188C29.7425 199.922 29.8757 199.886 30.0266 200.091C30.1863 200.295 30.3905 200.366 30.6479 200.304C30.6301 200.108 30.5857 199.993 30.5147 199.94C30.4437 199.886 30.3993 199.762 30.3816 199.575C29.4141 199.451 28.7751 199.726 28.4378 200.393ZM30.3816 200.766C30.8609 200.873 30.8875 200.757 30.4437 200.42C29.9289 200.544 29.9023 200.66 30.3816 200.766ZM31.2336 203.113C31.2692 202.784 31.0739 202.553 30.6567 202.411C30.8431 202.9 30.8786 203.237 30.7632 203.406C30.6479 203.584 30.8786 203.797 31.4378 204.046C31.278 203.753 31.207 203.442 31.2336 203.113ZM32.2277 205.7C31.8993 205.193 31.5354 204.908 31.1271 204.864C31.2958 205.166 31.491 205.424 31.7218 205.637C31.9437 205.851 32.0857 206.197 32.1479 206.677C32.5295 206.535 32.5561 206.206 32.2277 205.7ZM30.2396 206.731C30.3816 207.308 30.7987 207.735 31.4999 208.011C31.6153 207.833 31.5798 207.548 31.3934 207.148C31.2159 206.748 31.1626 206.322 31.2425 205.86C30.4348 205.86 30.1064 206.153 30.2396 206.731ZM31.9348 209.042C32.0946 208.686 31.8194 208.366 31.1094 208.1C31.1715 208.58 31.2248 209.006 31.2692 209.388C31.3224 209.771 31.6242 210.037 32.1834 210.206C31.8638 209.788 31.7751 209.397 31.9348 209.042ZM32.8579 208.384C32.3786 208.277 32.3609 208.393 32.8047 208.731C33.3194 208.597 33.3372 208.482 32.8579 208.384ZM36.497 209.451C36.3638 209.433 36.3106 209.566 36.3461 209.86C36.4792 209.868 36.5325 209.735 36.497 209.451ZM33.4526 209.931C33.3638 209.726 33.3017 209.54 33.2751 209.344C33.0088 209.308 32.9467 209.397 33.1064 209.602C33.2662 209.806 33.2928 210.002 33.1774 210.171C33.4615 210.215 33.5502 210.135 33.4526 209.931ZM32.9467 213.611C33.3194 214.828 33.994 215.966 34.9526 217.024C34.8106 216.064 34.42 215.006 33.781 213.851C33.1508 212.695 32.6271 211.522 32.2011 210.348C32.3254 211.3 32.5739 212.393 32.9467 213.611ZM33.9408 212.108C34.42 212.162 34.4467 212.117 34.0206 211.975C33.497 212.002 33.4703 212.046 33.9408 212.108ZM34.349 212.864C34.1271 213.211 34.2958 213.424 34.8372 213.486L34.7573 212.908L34.349 212.864ZM37.9348 213.495C37.8727 213.531 37.7129 213.54 37.4378 213.504C37.6153 213.806 37.8727 213.957 38.2011 213.948C38.5295 213.94 38.6094 213.788 38.4319 213.486C38.1656 213.46 37.997 213.46 37.9348 213.495ZM35.0147 218.091C35.2721 218.446 35.4141 218.722 35.4408 218.917C35.7159 218.953 35.8579 219.015 35.8757 219.113C36.1153 218.953 36.1064 218.668 35.8402 218.26C35.5739 217.851 35.2987 217.531 34.997 217.308C34.7573 217.477 34.7573 217.735 35.0147 218.091ZM38.0768 221.006C37.7129 220.82 37.7041 220.988 38.0591 221.495C38.4408 221.353 38.4408 221.193 38.0768 221.006Z" fill="#1A1A1A"/>
<path d="M49.1715 236.757C47.1656 237.539 45.2573 238.002 43.4378 238.126C41.2366 239.575 39.0976 240.357 37.0295 240.473C34.9526 240.588 33.0177 240.553 31.2159 240.348C29.7691 239.468 28.1893 238.828 26.4585 238.428C24.7366 238.028 23.1833 237.291 21.8165 236.215C21.3194 235.877 20.9467 235.468 20.707 234.979C20.4674 234.491 20.1035 234.073 19.5975 233.744C18.7277 232.997 17.7958 232.295 16.7928 231.628C15.7899 230.962 14.8579 230.251 13.9881 229.513C11.7514 227.691 9.63009 225.246 7.64193 222.171C5.65376 219.104 3.96737 216.473 2.58275 214.313C2.40524 213.948 2.17447 213.646 1.89932 213.424C1.62417 213.193 1.55317 212.882 1.70406 212.482C1.45553 212.313 1.13601 212.268 0.745476 212.339C0.354943 212.411 0.106422 212.162 0.00878906 211.593C0.665594 210.108 1.77506 209.059 3.35494 208.455C4.93482 207.842 6.33719 206.855 7.56204 205.513C8.71589 205.779 10.0828 205.442 11.6804 204.508C13.2958 208.579 15.3194 212.339 17.7425 215.779C20.1656 219.219 22.8461 222.046 25.7751 224.242C28.207 227.522 30.9674 229.904 34.065 231.38C37.1626 232.855 40.4733 233.895 43.997 234.491C45.0265 234.508 45.9674 234.153 46.8106 233.424C47.6538 232.695 48.3727 231.877 48.9585 230.988C49.5532 230.091 49.9703 229.104 50.21 228.019C50.4585 226.935 50.494 226.046 50.3342 225.353C51.1064 224.117 51.5236 222.775 51.5857 221.317C51.6567 219.868 52.0473 218.455 52.7573 217.104C52.8638 213.424 53.2721 209.851 53.991 206.375C54.71 202.891 55.0206 199.299 54.9319 195.584C55.6597 193.904 56.0325 192.188 56.0413 190.455C56.0591 188.713 56.139 186.944 56.2899 185.131C56.9999 183.771 57.2573 182.366 57.0709 180.908C56.8845 179.451 57.0798 178.082 57.6478 176.802C57.9851 176.446 58.2691 176.322 58.491 176.428C58.7129 176.535 58.8993 176.384 59.0413 175.984C58.8638 175.619 58.6153 175.531 58.278 175.726C57.9496 175.922 57.6922 175.833 57.5147 175.468C57.6656 175.068 57.8342 174.615 58.0118 174.117C58.1981 173.611 58.4289 173.122 58.7129 172.651C58.1094 171.744 58.0118 170.748 58.42 169.646C58.8283 168.544 59.2189 167.486 59.5828 166.491C59.5561 164.304 59.7691 162.179 60.2218 160.108C60.6745 158.037 61.2425 155.939 61.926 153.815C62.1833 151.157 62.565 148.571 63.0621 146.082C63.568 143.584 64.6153 141.166 66.2129 138.819C65.9467 137.566 66.2839 136.304 67.2159 135.051C68.1479 133.797 69.1153 132.802 70.1183 132.055C69.9851 132.135 69.9141 132.259 69.9053 132.411C69.8964 132.571 70.0561 132.642 70.3845 132.606C71.0058 131.771 71.7336 130.988 72.5768 130.259C73.42 129.531 74.3076 128.891 75.2307 128.348C76.1626 127.806 77.0768 127.495 77.9911 127.433C78.8964 127.371 79.6508 127.788 80.2544 128.695C80.2366 129.024 80.1301 129.317 79.9171 129.593C79.7041 129.877 79.5976 130.171 79.5798 130.491C78.9141 130.882 78.497 131.086 78.3372 131.104C78.1774 131.122 77.8579 131.353 77.3875 131.779C76.7307 133.264 76.0384 134.731 75.2928 136.188C74.5473 137.646 74.1301 139.184 74.0591 140.802C73.9082 141.202 73.7396 141.459 73.5354 141.575C73.3402 141.691 73.2248 141.913 73.2159 142.233C72.2662 147.344 71.2011 152.402 70.0295 157.406C68.8579 162.411 68.1833 167.557 67.997 172.846C67.491 173.922 67.0739 174.997 66.7277 176.064C66.3904 177.122 66.4703 178.366 66.9851 179.797C66.6567 179.833 66.3816 179.877 66.1508 179.931C65.92 179.984 65.7337 180.215 65.5828 180.615C66.2307 181.957 66.1597 183.415 65.3786 184.971L66.2396 185.166C65.7514 185.922 65.5118 186.846 65.5295 187.939C65.5384 189.033 65.5384 189.895 65.5029 190.544C65.2366 190.695 64.9615 190.748 64.6686 190.677C64.3845 190.606 64.2603 190.802 64.3046 191.246C64.42 191.486 64.6153 191.531 64.8816 191.379C65.1479 191.219 65.2721 191.308 65.2544 191.628C64.3402 193.264 64.1005 194.979 64.5265 196.766C64.9615 198.553 64.5975 200.179 63.426 201.655C63.7632 204.126 63.6833 206.446 63.1952 208.615C62.707 210.784 62.1212 212.935 61.4378 215.059C61.7751 214.704 62.1035 214.668 62.4141 214.962C62.3431 215.157 62.1567 215.308 61.8638 215.406C61.5709 215.495 61.4822 215.673 61.5976 215.913C62.2189 216.491 62.1922 217.406 61.5177 218.668C60.8431 219.922 60.3549 221.113 60.0443 222.242C59.5739 224.091 58.8816 226.019 57.9762 228.046C57.0709 230.064 55.8816 231.664 54.4082 232.846C53.7691 232.588 53.0147 232.873 52.136 233.708C51.2573 234.535 50.7425 235.148 50.5916 235.557C51.3727 235.406 52.0206 234.988 52.5443 234.295C53.0591 233.593 53.6449 233.211 54.2928 233.148C52.8993 234.757 51.1774 235.966 49.1715 236.757ZM68.5384 136.971C68.9999 136.695 68.9378 136.659 68.352 136.846C68.0058 137.211 68.068 137.246 68.5384 136.971ZM63.9585 151.904C63.8165 152.144 63.6745 152.464 63.5236 152.864C64.0295 153.193 64.4555 153.219 64.8283 152.917C65.1922 152.624 65.3076 152.126 65.139 151.442C65.5739 150.562 65.7869 149.682 65.7958 148.819C65.8046 147.948 65.7337 147.006 65.5916 146.002C64.7839 146.793 64.5798 147.619 64.9881 148.473C65.3964 149.326 65.139 150.188 64.1893 151.059C64.3046 151.299 64.4378 151.388 64.562 151.308C64.6952 151.228 64.8904 151.273 65.139 151.442C64.4999 151.513 64.1005 151.664 63.9585 151.904ZM66.4259 145.868C66.6123 145.371 66.5591 145.353 66.2839 145.833C66.1863 146.357 66.2396 146.366 66.4259 145.868ZM63.4792 155.957L63.6745 155.842C63.852 156.206 64.0473 156.171 64.2603 155.735C64.4733 155.291 64.3845 155.193 63.9851 155.424C63.8697 155.175 63.9585 155.006 64.2514 154.917C64.5443 154.819 64.5709 154.686 64.3224 154.526C64.3402 154.197 64.4822 153.966 64.7396 153.806C65.0058 153.646 65.0147 153.486 64.7662 153.326C64.2337 153.637 64.0828 154.037 64.3224 154.526C63.3905 155.059 63.1153 155.539 63.4792 155.957ZM63.6745 155.842C63.6123 155.717 63.7189 155.575 63.9851 155.424C63.9141 155.619 63.8165 155.762 63.6745 155.842ZM63.2484 157.859C63.4615 158.126 63.8076 158.037 64.278 157.611C64.3135 156.962 64.1982 156.562 63.9496 156.393C63.7987 156.793 63.7011 156.935 63.639 156.811C63.5768 156.686 63.4171 156.704 63.1508 156.864C62.9999 157.255 63.0266 157.593 63.2484 157.859ZM62.9112 159.824C62.6804 160.588 62.3609 161.246 61.9437 161.806C62.5206 161.939 62.7159 161.824 62.5384 161.451C62.7425 161.166 62.8757 161.255 62.9112 161.699C62.9555 162.144 63.1153 162.126 63.3993 161.646C63.3017 161.077 63.3372 160.544 63.5236 160.046C63.71 159.539 63.8431 159.033 63.9319 158.508C63.4792 158.624 63.1419 159.059 62.9112 159.824ZM62.6893 162.544C62.6271 162.579 62.4674 162.517 62.21 162.348C62.139 162.544 62.1834 162.837 62.3609 163.202L63.1597 162.731C62.9112 162.562 62.7514 162.499 62.6893 162.544ZM61.9615 164.499C61.7218 164.713 61.5088 164.962 61.2958 165.246L61.7396 166.162C62.6893 165.291 62.9467 164.428 62.5384 163.575C62.3964 163.966 62.2011 164.277 61.9615 164.499ZM61.6064 169.059C61.9881 169.148 62.0946 169.006 61.9171 168.642C62.3165 168.411 62.3254 168.242 61.9437 168.162C62.3609 167.602 62.5029 167.202 62.3875 166.962C62.1212 167.113 61.8904 167.335 61.6774 167.611C61.4733 167.886 61.562 168.073 61.9437 168.162L61.9171 168.642C61.3224 168.837 61.2159 168.971 61.6064 169.059ZM60.1774 173.548C60.0266 174.651 60.2484 175.824 60.8342 177.042C61.278 175.842 61.4822 174.579 61.4467 173.264C61.4112 171.948 61.6153 170.695 62.0591 169.486C61.8727 169.442 61.6686 169.477 61.4733 169.593C61.278 169.708 61.0118 169.779 60.6834 169.815C60.5058 171.202 60.3283 172.437 60.1774 173.548ZM61.2248 170.935C60.6922 171.246 60.6656 171.184 61.136 170.748C61.7307 170.562 61.7573 170.624 61.2248 170.935ZM58.0295 177.051L58.207 177.415L58.6064 177.184L58.4289 176.819L58.0295 177.051ZM59.21 181.886C58.8461 182.019 58.7218 182.206 58.8461 182.455C58.9526 183.024 59.4674 183.033 60.3993 182.491C60.4171 182.162 60.3283 181.904 60.1419 181.699C59.9555 181.495 60.1952 181.193 60.8609 180.802C60.3727 180.144 60.3106 179.477 60.6656 178.802C60.5502 178.553 60.0887 178.668 59.2899 179.139C59.9999 179.193 60.1774 179.397 59.8402 179.753C59.5029 180.108 59.1567 180.464 58.8194 180.819C58.9348 181.059 59.2544 181.193 59.7691 181.202C59.7603 181.522 59.5739 181.753 59.21 181.886ZM59.8402 183.993C59.991 183.593 59.9999 183.273 59.8845 183.024C59.7336 183.424 59.7159 183.744 59.8402 183.993ZM58.8372 184.579C58.7041 184.659 58.6952 184.819 58.8106 185.068C58.9526 184.979 58.9526 184.819 58.8372 184.579ZM59.0502 187.397C58.4999 187.486 58.136 187.895 57.9762 188.615C58.42 188.828 58.7218 188.651 58.8727 188.091C59.0325 187.531 59.1478 187.691 59.2366 188.579C60.0177 187.024 60.1863 185.584 59.7248 184.286C59.4319 185.086 59.1745 185.628 58.9703 185.904C59.5739 186.811 59.6005 187.308 59.0502 187.397ZM58.6242 187.059C59.0946 186.784 58.997 186.677 58.349 186.748C58.065 187.228 58.1626 187.326 58.6242 187.059ZM57.9496 190.162C57.5502 191.104 57.8431 191.362 58.8372 190.935C59.4319 190.739 59.636 190.464 59.4585 190.099C59.281 189.735 59.2987 189.406 59.5029 189.131C58.8638 188.882 58.349 189.219 57.9496 190.162ZM58.2958 193.015C58.7662 193.282 58.4467 193.673 57.3194 194.179C57.497 194.544 57.7366 194.597 58.0384 194.348C58.3402 194.091 58.6597 193.948 58.9792 193.913C58.997 193.584 58.9615 193.255 58.8816 192.908C58.8017 192.562 58.8638 192.251 59.068 191.975C58.7396 192.011 58.5177 191.904 58.4023 191.655C58.2869 191.406 58.0295 191.406 57.6301 191.637C57.6035 192.286 57.8254 192.739 58.2958 193.015ZM61.5976 190.846C61.7041 190.704 61.7573 190.553 61.7662 190.393C61.7751 190.233 61.7129 190.108 61.5887 190.028C61.4644 189.939 61.3313 190.099 61.1804 190.508C61.3579 190.873 61.4999 190.979 61.5976 190.846ZM58.0739 195.744C57.8964 196.082 57.639 196.428 57.3017 196.784C57.5502 196.953 58.0118 196.837 58.6774 196.446C58.4999 196.082 58.5177 195.753 58.7218 195.477C58.926 195.193 58.9703 194.935 58.8549 194.695C58.5088 195.051 58.2514 195.397 58.0739 195.744ZM57.497 198.784C57.2307 198.935 57.1153 199.131 57.1331 199.353C57.1597 199.575 57.1597 199.842 57.1419 200.171C57.4082 200.011 57.6745 199.859 57.9407 199.699C58.207 199.539 58.2159 199.379 57.9674 199.211C58.562 199.015 58.6597 198.882 58.278 198.793C57.8964 198.704 57.7899 198.846 57.9674 199.211C57.7721 199.175 57.6123 199.033 57.497 198.784ZM56.9555 204.046L57.9496 203.459C57.71 202.971 57.4082 202.677 57.0177 202.588C56.8046 203.193 56.778 203.682 56.9555 204.046ZM56.2011 207.788C56.2189 207.459 56.4496 207.246 56.9112 207.139C57.3638 207.024 57.4171 206.766 57.0443 206.357C56.2455 206.819 55.9615 207.299 56.2011 207.788ZM56.4674 208.339C56.9999 208.028 56.9378 207.904 56.2899 207.975C55.8727 208.526 55.9348 208.651 56.4674 208.339ZM56.8845 207.619L57.1508 208.171L57.5502 207.939L57.2839 207.388L56.8845 207.619ZM55.5532 211.228C55.9348 211.317 56.0058 211.113 55.7751 210.624C55.926 210.224 55.9348 209.895 55.8194 209.655C56.8047 209.228 57.1597 208.988 56.8757 208.917C56.5916 208.846 56.139 209.068 55.5354 209.584C55.6508 209.824 55.6952 210.002 55.6597 210.099C55.6242 210.197 55.6597 210.366 55.7839 210.615C55.2425 210.935 55.1715 211.139 55.5532 211.228ZM54.8254 212.366C54.8697 212.811 55.0473 212.899 55.349 212.651C55.6508 212.393 55.8372 212.162 55.9171 211.966C55.8461 211.842 55.491 211.975 54.8254 212.366ZM55.1981 213.673C55.2248 213.735 55.1094 213.842 54.8431 214.002L55.0206 214.366C55.4733 214.251 55.5887 213.948 55.3579 213.468C55.2159 213.539 55.1626 213.611 55.1981 213.673ZM54.0443 216.588C54.426 216.677 54.568 216.793 54.4615 216.926C54.3638 217.059 54.3638 217.255 54.4792 217.504C55.1449 217.113 55.2692 216.491 54.8609 215.637C54.4526 216.188 54.1774 216.508 54.0443 216.588ZM54.1952 219.557C54.7277 219.246 54.6656 219.122 54.0177 219.193C53.6005 219.753 53.6626 219.868 54.1952 219.557Z" fill="#1A1A1A"/>
</svg>
