<svg width="242" height="153" viewBox="0 0 242 153" fill="none" xmlns="http://www.w3.org/2000/svg">
<path d="M171.44 82.8333C171.325 83.0462 171.227 83.2592 171.156 83.4543C171.076 83.6495 170.846 83.7648 170.438 83.8003C170.713 84.4656 170.926 84.8382 171.067 84.9269C170.988 84.4834 171.121 84.1818 171.466 84.0132C171.812 83.8447 171.803 83.4454 171.44 82.8333C171.599 81.9551 171.945 81.3075 172.495 80.8728C173.558 80.6599 174.64 79.8703 175.73 78.513C176.829 77.138 178.017 76.1178 179.294 75.4436L179.542 76.038C180.34 74.9645 181.146 74.0863 181.953 73.4032C182.76 72.7201 183.762 71.9483 184.976 71.1144C185.171 71.3273 185.242 71.487 185.18 71.6023C185.127 71.7177 185.153 71.904 185.26 72.1612C186.075 71.3717 186.634 70.5289 186.926 69.6329C187.228 68.7281 187.848 67.9208 188.797 67.2111C188.956 67.6014 189.089 67.77 189.169 67.7256C189.373 66.4659 190.002 65.561 191.066 65.011C192.13 64.4432 192.812 63.6626 193.114 62.6601C193.22 63.4053 193.309 63.6803 193.38 63.4763C193.451 63.2722 193.619 63.4851 193.894 64.1416C194.275 63.5738 194.461 63.1392 194.435 62.8287C194.408 62.5182 194.275 62.4383 194.027 62.598C193.779 62.7488 193.708 62.9529 193.823 63.219C193.548 63.0593 193.521 62.7932 193.725 62.4295C193.929 62.0569 194.16 61.7907 194.408 61.6399C194.514 62.3851 194.736 62.6601 195.064 62.4561C195.197 62.0391 195.135 61.8794 194.86 61.9682C194.585 62.0569 194.479 61.9238 194.532 61.5601C196.394 59.5729 198.087 57.7454 199.62 56.0954C201.145 54.4276 202.82 52.5646 204.638 50.4976C204.691 51.1186 204.62 51.4469 204.434 51.5001C204.248 51.5444 204.008 51.8283 203.716 52.3695C204.522 52.3162 205.178 51.8549 205.701 51.0033C206.224 50.1428 206.747 49.3621 207.279 48.6613C206.907 48.2621 206.579 48.4572 206.286 49.2379C205.994 50.0186 205.63 50.3912 205.205 50.3646C205.418 49.3887 206.1 48.4218 207.235 47.4548C208.503 45.5563 209.841 43.7644 211.251 42.0788C212.651 40.3755 213.91 38.7698 215.018 37.2529C215.408 35.9576 216.1 34.6802 217.11 33.3939C218.112 32.1075 218.981 30.9986 219.725 30.0671C219.902 29.7566 220.044 29.4816 220.142 29.2332C220.248 28.9848 220.319 28.6744 220.372 28.3018C220.957 27.4945 221.622 26.5719 222.376 25.5428C223.12 24.5049 223.75 23.3605 224.246 22.1096C225 21.4709 225.505 20.708 225.753 19.8297C226.001 18.9515 226.498 18.1885 227.251 17.5321C228.12 15.4384 229.308 13.265 230.806 10.9939C232.304 8.71404 233.563 6.33654 234.573 3.87921C234.697 3.43564 234.751 3.00982 234.733 2.60175C234.715 2.20254 234.768 1.77672 234.893 1.32429C236.453 0.179895 237.649 0.277478 238.518 1.63478C239.387 3.00095 240.22 4.65101 241.018 6.60268C239.272 11.2069 237.268 15.6336 235.008 19.8652C232.73 24.0613 230.318 28.1509 227.783 32.1164C225.23 36.0464 222.588 39.8521 219.867 43.5337C217.128 47.1709 214.468 50.8525 211.915 54.5784C210.621 55.6696 209.283 57.2132 207.891 59.1915C206.499 61.1609 205.019 62.7488 203.459 63.9642C203.299 64.0706 203.281 64.2126 203.397 64.3811C203.521 64.5497 203.503 64.6828 203.335 64.7981C203.095 64.9578 202.838 64.9578 202.563 64.807C201.863 66.0933 200.755 67.3974 199.23 68.7103C197.706 70.0055 196.5 71.3362 195.622 72.7112C194.656 73.1371 193.867 73.7847 193.247 74.654C192.626 75.5234 192.032 76.2775 191.483 76.9428C191.181 76.4638 190.924 76.4815 190.729 77.0138C190.534 77.5372 190.41 77.9808 190.357 78.3445C189.772 78.6816 189.169 79.0364 188.54 79.3913C187.91 79.7461 187.396 80.1986 187.006 80.7575C186.891 80.9792 186.793 81.2454 186.713 81.5381C186.634 81.8309 186.492 82.1148 186.288 82.3898C186.12 82.4874 185.987 82.4696 185.889 82.3632C185.792 82.2567 185.659 82.2478 185.49 82.3365C185.18 82.3454 184.941 82.514 184.772 82.8599C184.604 83.1971 184.373 83.5253 184.09 83.8447C183.549 84.2971 182.928 84.6786 182.219 84.9802C181.51 85.2729 181.164 85.8229 181.191 86.6302C180.428 86.5415 179.897 86.9052 179.604 87.7037C178.895 87.748 178.195 88.0674 177.503 88.6617C176.812 89.2561 176.094 89.9037 175.34 90.6046C174.587 91.2965 173.842 91.953 173.106 92.5562C172.371 93.1595 171.617 93.5587 170.864 93.7538C169.667 95.1289 168.195 96.2467 166.467 97.1249C164.729 97.9854 163.116 99.1387 161.627 100.585C161.334 100.39 160.935 100.434 160.43 100.736C159.925 101.028 159.552 101.383 159.304 101.809C157.088 103.042 155.351 104.027 154.083 104.772C152.815 105.508 151.22 106.475 149.305 107.682C148.826 107.54 148.33 107.566 147.833 107.753C147.328 107.939 147.106 108.338 147.151 108.95C146.459 108.569 145.777 108.817 145.085 109.695C142.355 110.494 139.837 111.541 137.533 112.845C135.219 114.131 132.808 114.832 130.317 114.965C130.184 115.16 130.148 115.364 130.184 115.586C130.228 115.808 130.148 115.95 129.962 116.003C129.209 116.225 128.367 116.429 127.436 116.615C126.505 116.801 125.805 116.961 125.326 117.094C124.945 117.201 124.635 117.405 124.386 117.697C124.138 117.999 123.784 118.212 123.305 118.336C121.036 119.241 118.846 119.8 116.754 120.013C114.653 120.208 112.517 120.634 110.336 121.281C109.556 121.45 108.678 121.645 107.694 121.858C106.719 122.062 106.01 122.284 105.576 122.532C102.721 123.109 99.8759 123.535 97.0569 123.827C94.2203 124.094 91.5786 124.493 89.1231 125.025C81.4021 125.069 73.8406 125.194 66.4298 125.406C58.9481 125.469 51.1295 124.856 42.9918 123.57C40.9795 123.189 39.0205 122.798 37.1146 122.39C35.1998 121.982 33.2407 121.352 31.2462 120.501C28.117 120.057 24.8726 119.099 21.5217 117.626C18.1621 116.136 14.9088 114.282 11.7796 112.073C10.964 110.929 10.1839 109.926 9.43044 109.066C8.67695 108.205 7.89687 107.203 7.08132 106.067C7.01041 105.375 6.92176 104.79 6.82425 104.311C6.72674 103.823 6.49626 103.033 6.13281 101.924C7.037 102.51 7.87914 102.616 8.65036 102.244C9.42158 101.862 10.0776 101.41 10.6183 100.886C10.8399 100.895 11.0704 101.179 11.3009 101.729C11.8416 101.197 12.4178 101.019 13.0295 101.17C13.6411 101.321 14.306 101.348 15.0151 101.232C14.7049 102.048 14.1819 102.678 13.455 103.14C12.7192 103.592 12.3114 104.364 12.2317 105.464C12.7458 105.899 13.322 106.156 13.9602 106.245C14.5985 106.333 15.1215 106.724 15.5293 107.433C15.2456 107.283 14.891 107.203 14.4478 107.194C14.7935 107.478 15.2988 107.77 15.9636 108.072C16.6374 108.365 17.0185 108.374 17.1249 108.108C22.027 109.882 26.6721 111.186 31.0512 112.029C35.4126 112.827 39.6853 113.661 43.8517 114.53C44.0644 114.521 44.2328 114.655 44.3481 114.938C44.4633 115.213 44.6406 115.497 44.8711 115.772C45.0484 114.912 45.5625 114.468 46.4135 114.433C47.2645 114.397 48.1776 114.495 49.1438 114.734C50.1101 114.974 51.0231 115.205 51.883 115.453C52.7428 115.692 53.3545 115.728 53.7179 115.559C54.0371 115.542 54.3739 115.95 54.7285 116.792C54.9413 116.784 55.0565 116.73 55.0831 116.659C55.1097 116.58 55.2249 116.544 55.4377 116.526C55.615 116.943 55.5175 117.094 55.1451 116.979C55.2604 117.254 55.3668 117.36 55.4377 117.28C55.5175 117.201 55.6682 117.298 55.8898 117.573C55.8189 117.147 55.943 116.997 56.2621 117.121C56.5812 117.245 56.8826 117.369 57.1485 117.493C57.4233 117.618 57.6893 117.671 57.9464 117.653C58.2123 117.635 58.3009 117.413 58.23 116.988C57.9641 116.863 57.6006 116.775 57.1485 116.739C56.6964 116.695 56.2532 116.402 55.8011 115.861C57.0954 115.338 58.4871 115.24 59.9675 115.559C61.4567 115.879 62.7421 115.551 63.8502 114.584C64.2225 114.69 64.4086 114.823 64.4175 114.965C64.4264 115.107 64.4352 115.32 64.453 115.613C65.0912 115.843 65.6231 115.941 66.0309 115.905C66.4475 115.87 66.8819 116.26 67.3428 117.085C67.5556 117.067 67.5467 116.917 67.3162 116.651C67.0946 116.376 66.9794 116.101 66.9617 115.817C68.7257 115.639 70.3036 115.55 71.6953 115.542C73.0959 115.533 74.399 115.559 75.6135 115.639C76.8279 115.71 78.0513 115.737 79.2834 115.728C80.5156 115.71 81.8098 115.533 83.1661 115.196C83.0863 115.497 83.2104 115.923 83.5473 116.464C83.6891 116.296 84.0614 116.021 84.6465 115.639C85.2316 115.258 85.6748 115.409 85.9762 116.109C86.4638 115.737 86.969 115.657 87.492 115.879C87.7314 116.429 87.5984 116.748 87.0931 116.828C87.3679 117.227 87.5186 117.316 87.5275 117.094C87.5364 116.872 87.7225 116.801 88.086 116.899C87.8466 116.34 88.0062 115.95 88.5469 115.71C88.4317 115.426 88.2721 115.311 88.0682 115.338C88.9547 114.894 89.983 114.548 91.162 114.282C92.3321 114.007 93.3338 113.723 94.1759 113.421C94.3798 113.386 94.4862 113.51 94.5039 113.812C94.5217 114.104 94.5571 114.317 94.6192 114.459C94.8408 113.971 95.5854 113.652 96.8619 113.492C98.1296 113.324 99.0337 113.111 99.5656 112.863C99.7075 112.685 99.8316 112.845 99.9379 113.35C100.044 113.856 100.168 114.016 100.31 113.838C100.603 113.776 100.683 113.572 100.532 113.235C100.381 112.889 100.461 112.685 100.753 112.632C100.993 112.437 101.144 112.481 101.214 112.765C101.285 113.049 101.294 113.271 101.259 113.43C101.551 112.623 102.127 112.321 102.961 112.525C103.794 112.729 104.353 112.65 104.627 112.286C104.884 112.383 105.141 112.552 105.407 112.8C105.673 113.04 105.984 113.2 106.329 113.279C106.365 113.12 106.427 112.996 106.489 112.907C106.56 112.818 106.613 112.685 106.648 112.534C106.533 112.259 106.409 112.171 106.294 112.268C106.179 112.366 106.108 112.268 106.09 111.975C106.817 111.665 107.517 111.505 108.217 111.505C108.909 111.496 109.618 111.337 110.336 111.026C110.256 111.346 110.345 111.55 110.602 111.647C110.62 111.186 110.735 111.008 110.939 111.115C111.143 111.212 111.302 111.408 111.418 111.683C111.843 111.425 112.375 111.115 113.013 110.733C113.651 110.352 114.183 110.414 114.609 110.911C114.724 110.423 114.972 110.139 115.362 110.041C115.752 109.944 116.16 109.846 116.586 109.731C117.02 109.625 117.392 109.491 117.694 109.332C118.004 109.172 118.208 108.853 118.323 108.374C119.148 108.312 119.874 108.196 120.495 108.028C121.115 107.859 121.851 107.895 122.684 108.116C122.888 107.602 123.332 107.212 124.023 106.945C124.706 106.67 125.477 106.493 126.337 106.395C127.197 106.298 128.012 106.094 128.783 105.792C129.555 105.482 130.131 105.038 130.521 104.461L130.778 105.074C134.067 103.583 137.524 102.057 141.158 100.505C144.757 98.908 148.064 97.054 151.078 94.9515C151.264 94.8805 151.432 95.049 151.601 95.4482C151.876 95.3418 151.955 95.1111 151.858 94.7563C151.76 94.4014 151.876 94.2418 152.204 94.2684L152.629 95.2797C152.886 94.3926 153.498 93.9047 154.464 93.8337C155.43 93.7538 156.104 93.7893 156.485 93.949C156.405 93.5054 156.272 93.328 156.095 93.399C155.918 93.47 155.741 93.3103 155.572 92.9111C156.29 92.6095 156.751 92.574 156.946 92.8135C157.194 92.3965 157.46 91.9707 157.744 91.5272C158.028 91.0836 158.4 90.7731 158.843 90.5868C158.958 90.853 158.923 91.0215 158.746 91.1013C158.568 91.1812 158.533 91.3497 158.648 91.6159C159.091 91.4207 159.286 91.1368 159.233 90.7731C159.18 90.4005 159.26 90.09 159.473 89.8416C160.244 89.6642 160.722 89.5666 160.926 89.5577C161.13 89.5489 161.636 89.3626 162.424 89.0077C162.628 88.7593 162.646 88.5908 162.451 88.5198C162.265 88.4488 162.229 88.298 162.345 88.094C162.637 88.2803 162.885 88.2448 163.089 87.9964C163.293 87.7391 163.488 87.4996 163.648 87.269C163.816 87.0383 164.002 86.8698 164.224 86.7722C164.446 86.6746 164.712 86.8698 165.022 87.3577C165.589 86.4617 166.183 85.8673 166.795 85.5834C167.406 85.2995 168.178 84.7673 169.117 84.0043C169.374 83.8801 169.507 84.0576 169.498 84.5366C169.49 85.0157 169.711 85.1576 170.146 84.9447C170.403 84.8205 170.482 84.6253 170.367 84.3592C170.252 84.0931 170.19 83.8092 170.163 83.4987C170.571 82.9753 170.979 82.7003 171.378 82.6648L171.44 82.8333ZM217.066 43.649C216.8 43.516 216.614 43.6135 216.498 43.9595C216.383 44.2966 216.454 44.5362 216.72 44.6692C216.693 44.3499 216.791 44.1547 217.013 44.066C217.225 43.9773 217.243 43.8353 217.066 43.649ZM215.284 46.7628C215.284 46.2572 215.16 46.0975 214.929 46.2749C214.69 46.4523 214.814 46.612 215.284 46.7628ZM214.14 47.3661C213.617 48.0847 213.121 48.75 212.651 49.3444C212.181 49.9387 211.712 50.6573 211.233 51.5001C211.738 51.4646 212.332 50.9855 213.024 50.0629C213.724 49.1403 214.096 48.2355 214.14 47.3661ZM211.862 47.8008C211.65 47.783 211.375 47.9871 211.038 48.404C210.692 48.8121 210.497 49.2113 210.444 49.5839C211.419 49.2113 211.889 48.6169 211.862 47.8008ZM210.089 49.8412C209.637 50.0008 209.487 50.3557 209.62 50.9323C210.089 50.5863 210.249 50.2226 210.089 49.8412ZM209.779 53.5582C209.114 53.6913 208.813 54.0816 208.866 54.7026C209.354 54.8623 209.655 54.4808 209.779 53.5582ZM207.997 55.572C208.104 55.3325 208.263 55.2171 208.476 55.2349C208.689 55.2526 208.742 55.1284 208.636 54.8712C208.449 54.6671 208.272 54.6671 208.095 54.88C207.918 55.0841 207.891 55.3147 207.997 55.572C206.987 56.6099 205.941 57.7454 204.859 58.9874C203.778 60.2205 202.865 61.3206 202.138 62.3053C203.565 61.5157 204.673 60.5221 205.462 59.3245C206.251 58.118 207.093 56.8672 207.997 55.572ZM205.187 50.3291C205.24 50.9501 205.17 51.0388 204.983 50.5952C204.797 50.1428 204.868 50.0629 205.187 50.3291ZM206.029 54.9421C205.63 55.2171 205.506 55.5454 205.675 55.9357C206.153 55.6075 206.278 55.2792 206.029 54.9421ZM205.356 55.9091C205.01 56.3083 204.709 56.6365 204.451 56.9027C204.194 57.1599 204.07 57.5325 204.07 58.0293C204.23 57.9229 204.469 57.6301 204.797 57.1688C205.116 56.6986 205.302 56.2817 205.356 55.9091ZM203.388 53.0526C203.388 52.5558 203.352 52.538 203.29 52.9993C203.219 53.4518 203.246 53.4695 203.388 53.0526ZM202.218 54.3389C201.792 54.2945 201.677 54.534 201.898 55.0486C202.058 54.9421 202.218 54.8357 202.386 54.7203C202.537 54.6139 202.484 54.4808 202.218 54.3389ZM203.14 56.9204C202.847 56.4591 202.785 56.4502 202.98 56.9027C203.166 57.3551 203.219 57.364 203.14 56.9204ZM203.388 58.2422C203.468 58.6858 203.255 58.9076 202.741 58.9253C202.226 58.9342 202.12 59.1737 202.421 59.635C202.608 59.8391 202.927 59.6705 203.37 59.1205C203.813 58.5793 203.813 58.2866 203.388 58.2422ZM201.083 60.5221C201.243 60.4157 201.269 60.3536 201.163 60.3447C201.056 60.327 201.03 60.3891 201.083 60.5221C201.056 60.6996 201.101 60.7971 201.207 60.8149C201.313 60.8238 201.269 60.7262 201.083 60.5221ZM94.2823 122.798C94.9206 122.541 95.4968 122.248 96.0021 121.938C96.5073 121.618 97.2076 121.76 98.103 122.355C99.734 121.902 101.294 121.485 102.792 121.122C104.29 120.74 106.019 120.731 107.987 121.077C107.845 120.501 107.925 120.368 108.217 120.687C108.51 121.006 108.608 120.793 108.51 120.048C109.024 120.243 109.361 120.279 109.521 120.172C109.689 120.057 110.035 119.862 110.558 119.596C112.251 119.818 113.678 119.525 114.83 118.718C115.974 117.901 117.144 117.884 118.323 118.664C118.243 118.221 118.35 117.963 118.633 117.893C118.926 117.822 119.263 117.733 119.644 117.635C119.821 118.052 120.007 118.239 120.202 118.185C120.087 117.901 120.061 117.724 120.123 117.626C120.185 117.529 120.194 117.413 120.131 117.28C121.993 116.642 123.828 115.95 125.636 115.222C127.445 114.477 129.492 113.918 131.78 113.554C133.047 112.543 134.598 111.825 136.433 111.399C138.26 110.955 139.846 110.201 141.185 109.119C141.637 109.438 141.983 109.438 142.213 109.119C142.453 108.799 142.701 108.595 142.984 108.498C143.516 107.992 144.128 107.699 144.828 107.611C145.529 107.513 146.202 107.353 146.84 107.123C147.7 106.653 148.454 106.014 149.119 105.215C149.784 104.408 150.652 104.284 151.725 104.816C151.893 103.956 152.257 103.574 152.824 103.672C153.391 103.769 154.039 103.672 154.757 103.388C154.969 103.14 154.96 102.944 154.739 102.794C154.517 102.643 154.508 102.448 154.73 102.199C155.936 101.552 157.035 100.869 158.036 100.132C159.038 99.396 160.173 99.1564 161.44 99.4137C161.565 99.2008 161.627 98.9347 161.653 98.6064C161.671 98.2782 161.786 97.9854 161.999 97.737C162.469 97.8524 162.69 97.7548 162.664 97.4443C162.637 97.1338 162.806 96.9031 163.16 96.7435C164.782 96.3442 166.201 95.5458 167.424 94.3482C168.647 93.1417 170.021 92.2457 171.564 91.678C171.59 91.5005 171.564 91.3143 171.484 91.1102C171.395 90.9062 171.475 90.8352 171.706 90.8796C174.17 89.0255 176.767 87.1181 179.48 85.1487C182.184 83.1438 184.391 81.0857 186.111 78.9832C186.448 79.2848 186.74 79.2405 186.997 78.8501C187.254 78.4598 187.556 78.3267 187.919 78.4509C187.697 77.9187 187.751 77.5638 188.087 77.3686C189.009 76.8364 189.976 75.8605 190.995 74.45C192.006 73.0217 193.052 72.2411 194.124 72.0814C194.177 71.2209 194.426 70.6975 194.869 70.5112C195.312 70.3249 195.649 69.9079 195.897 69.2603C196.695 68.4353 197.732 67.5304 199.035 66.5457C200.329 65.5521 201.039 64.3368 201.172 62.9263C197.041 67.3974 192.732 71.8507 188.265 76.2864C183.735 80.6244 179.249 84.3237 174.799 87.4109C170.154 91.2876 165.651 94.5789 161.29 97.3112C156.884 99.9637 152.168 102.563 147.124 105.1C141.681 107.974 135.813 110.662 129.492 113.155C123.101 115.497 116.55 117.307 109.84 118.576C109.272 119.001 108.971 119.303 108.936 119.463C105.425 119.755 102.535 120.19 100.275 120.785C98.0054 121.361 95.2574 121.778 92.0396 122.018C86.4815 122.585 80.684 122.905 74.6207 122.967C68.5218 122.94 61.9797 122.736 54.9944 122.337C55.7302 123.304 56.4305 123.668 57.0776 123.41C57.7247 123.153 58.5669 123.348 59.604 124.005C59.8168 123.987 59.9498 123.872 60.0207 123.65C60.0916 123.428 60.2777 123.304 60.5969 123.277C64.515 123.845 68.2913 124.094 71.9347 124.031C75.5603 123.934 79.1859 123.721 82.8115 123.393C83.0154 123.366 83.2193 123.526 83.4143 123.872C83.6182 124.218 83.8487 124.448 84.1146 124.555C84.487 123.907 85.072 123.641 85.8698 123.748C86.6676 123.854 87.2527 123.579 87.6161 122.931C87.8378 123.198 87.9885 123.437 88.086 123.65C88.1746 123.863 88.3696 123.943 88.671 123.898C89.0788 123.082 89.8589 122.781 91.0113 122.967C92.1371 123.189 93.2363 123.118 94.2823 122.798ZM199.78 61.8617C199.452 61.5778 199.337 61.6133 199.434 61.9593C199.532 62.3053 199.39 62.527 199.009 62.6069L199.168 62.9972C199.248 62.944 199.328 62.9351 199.39 62.9795C199.461 63.015 199.532 63.0061 199.611 62.9617C199.585 62.6512 199.629 62.4561 199.753 62.3762C199.886 62.2964 199.886 62.119 199.78 61.8617ZM198.441 63.4763C198.229 63.9464 197.794 64.3456 197.156 64.665C196.518 64.9844 196.252 65.5255 196.358 66.2796C196.66 65.7562 197.129 65.3392 197.768 65.0199C198.406 64.6916 198.627 64.1771 198.441 63.4763ZM193.273 64.5053C193.362 63.9642 193.424 63.7601 193.477 63.8843C193.451 64.0618 193.38 64.1505 193.273 64.1327C193.167 64.1239 193.167 64.2392 193.273 64.5053ZM194.372 67.5038C194.231 67.9119 194.098 68.0804 193.956 68.0006C193.823 67.9208 193.752 68.1248 193.752 68.6216C193.885 68.7014 194.071 68.6305 194.293 68.4175C194.514 68.1958 194.541 67.8941 194.372 67.5038ZM192.529 64.9578C192.28 65.1086 192.077 65.1884 191.926 65.1973C191.775 65.2062 191.589 65.1973 191.367 65.1707C191.642 65.8183 191.926 66.0135 192.227 65.7473C192.537 65.4812 192.635 65.215 192.529 64.9578ZM193.22 69.1982C192.972 69.349 192.724 69.4998 192.475 69.6507C192.227 69.8015 192.147 70.0942 192.227 70.5378C192.475 70.387 192.75 70.2273 193.034 70.0499C193.318 69.8724 193.38 69.5886 193.22 69.1982ZM190.773 69.6861C190.942 69.5886 191.048 69.6063 191.101 69.7305C191.155 69.8547 191.243 69.8103 191.35 69.5797C191.403 69.216 191.296 69.0829 191.022 69.1627C190.747 69.2514 190.667 69.42 190.773 69.6861ZM189.018 72.9241L188.646 73.1459L188.814 73.5363L189.187 73.3145L189.018 72.9241ZM185.729 70.6709C185.588 71.0701 185.552 71.0523 185.623 70.6087C185.703 70.1652 185.738 70.1829 185.729 70.6709ZM186.962 75.0887C186.598 75.4525 186.04 75.9315 185.295 76.517C184.55 77.0936 184.187 77.7856 184.214 78.584C184.834 78.0783 185.366 77.5372 185.8 76.9694C186.235 76.3928 186.625 75.7718 186.962 75.0887ZM183.247 78.1404C183.354 78.4066 183.354 78.5751 183.221 78.6372C183.097 78.7082 183.159 78.9122 183.407 79.2671C183.629 79.3026 183.708 79.1074 183.62 78.6638C183.54 78.2203 183.416 78.0517 183.247 78.1404ZM183.035 78.7437C182.414 79.2405 181.776 79.7107 181.12 80.1453C180.464 80.5712 179.967 81.1212 179.622 81.7954C180.242 81.7865 180.934 81.5026 181.687 80.9349C182.441 80.3671 182.884 79.6397 183.035 78.7437ZM181.262 78.2469C181.014 77.9009 180.96 77.963 181.111 78.4509C181.262 78.9389 181.315 78.8679 181.262 78.2469ZM178.336 82.4696C178.257 82.514 178.141 82.4874 178 82.4075C177.858 82.3188 177.734 82.3809 177.609 82.6115L177.946 83.41C178.239 83.0906 178.363 82.7801 178.336 82.4696ZM176.661 84.0664C176.688 84.3769 176.448 84.5366 175.925 84.5632C175.411 84.581 175.252 84.9447 175.447 85.6544C175.73 85.8318 176.076 85.6544 176.484 85.131C176.883 84.5898 176.945 84.2439 176.661 84.0664ZM175.083 83.6584C174.684 83.2148 174.604 83.2148 174.844 83.6584C175.083 84.1019 175.163 84.1019 175.083 83.6584ZM174.259 84.3148C173.514 84.0398 173.142 84.3947 173.133 85.3616C173.789 85.1931 174.17 84.8471 174.259 84.3148ZM172.761 87.473C173.133 87.6149 173.239 87.4819 173.062 87.0827C172.902 86.6746 172.796 86.8077 172.761 87.473ZM172.078 87.3222C171.608 87.7037 171.174 88.0851 170.748 88.4488C170.323 88.8126 169.995 89.2118 169.764 89.6465C170.234 89.265 170.757 88.9634 171.351 88.7593C171.945 88.5553 172.184 88.0762 172.078 87.3222ZM168.931 89.5577C168.984 89.6908 169.011 89.7973 168.993 89.886C168.975 89.9747 169.002 90.0811 169.055 90.2142C169.144 90.1699 169.232 90.2053 169.339 90.3207C169.436 90.4271 169.534 90.4715 169.623 90.4271C169.507 89.6819 169.286 89.3892 168.931 89.5577ZM168.08 88.2803C168.053 88.4488 167.991 88.5642 167.903 88.5996C168.195 88.7859 168.381 88.8569 168.461 88.8126C168.293 88.4134 168.169 88.2359 168.08 88.2803ZM165.961 89.9836C166.139 89.9037 166.192 89.7973 166.139 89.6642C165.97 89.7352 165.908 89.8416 165.961 89.9836ZM166.298 91.5094C166.183 91.7223 166.015 91.8377 165.811 91.8554C165.607 91.8643 165.678 92.0328 166.023 92.3611L166.546 92.1215L166.298 91.5094ZM165.784 90.3029C165.438 89.9836 165.376 90.0102 165.589 90.3916C165.802 90.7731 165.873 90.7376 165.784 90.3029ZM165.066 88.9545C164.8 89.0787 164.756 89.336 164.924 89.7352C165.048 89.5223 165.146 89.3981 165.235 89.3537C165.323 89.3182 165.261 89.1852 165.066 88.9545ZM165.58 92.7958C165.935 92.6361 165.917 92.4054 165.527 92.1038C165.137 91.8022 164.836 91.7756 164.632 92.0328C164.605 92.2014 164.667 92.4143 164.818 92.6627C164.977 92.9111 164.969 93.0708 164.791 93.1506C164.392 92.6893 164.056 92.5207 163.79 92.6449C163.603 93.2038 163.284 93.6208 162.823 93.9135C162.362 94.1974 161.866 94.4547 161.334 94.6853C162.061 95.1644 162.877 95.0402 163.781 94.3305C164.685 93.5942 165.288 93.0796 165.58 92.7958ZM165.58 92.7958C165.403 92.8756 165.288 92.849 165.235 92.7159C165.323 92.6715 165.35 92.6183 165.323 92.5562C165.297 92.4853 165.323 92.432 165.412 92.3965L165.58 92.7958ZM166.245 95.8563L165.979 95.9717L166.236 96.5749L166.502 96.4596L166.245 95.8563ZM161.76 93.0619C161.139 93.3369 160.988 93.7184 161.299 94.2151L161.964 93.9224C161.795 93.5232 161.724 93.2304 161.76 93.0619ZM159.428 92.4054C158.896 92.6361 158.755 92.9288 159.012 93.2925C159.464 93.1062 159.597 92.8046 159.428 92.4054ZM157.708 92.432L157.177 92.6538C157.256 93.0885 157.38 93.3192 157.54 93.328C157.7 93.3369 157.904 93.3724 158.134 93.4345L157.708 92.432ZM156.122 99.5024C156.184 99.1564 156.397 98.908 156.76 98.7661C157.123 98.6153 157.443 98.4467 157.726 98.2516C158.01 98.0475 158.223 97.808 158.356 97.5064C158.497 97.2136 158.48 96.8588 158.302 96.4507C156.654 97.7725 155.138 98.8637 153.773 99.7331C152.399 100.594 150.927 101.161 149.358 101.454C149.677 101.96 149.766 102.279 149.606 102.421C149.456 102.554 149.376 102.865 149.367 103.344C150.617 102.554 151.734 101.844 152.735 101.215C153.728 100.585 154.863 100.008 156.122 99.5024ZM158.409 101.188C158.001 100.718 157.895 100.718 158.099 101.197C158.302 101.667 158.4 101.667 158.409 101.188ZM149.925 97.9322L150.2 97.8258C150.289 97.7903 150.351 97.6838 150.386 97.5153C150.36 97.2048 150.245 97.1781 150.032 97.4177C149.81 97.6661 149.775 97.8346 149.925 97.9322ZM149.287 100.54L149.562 100.434C150.005 100.736 150.315 100.461 150.475 99.6089C150.661 99.5379 150.688 99.4847 150.564 99.4581C150.448 99.4226 150.413 99.4758 150.475 99.6089C149.996 99.4758 149.695 99.7508 149.562 100.434L149.287 100.54L149.119 100.132C148.844 100.239 148.551 100.345 148.232 100.469C147.913 100.585 147.78 100.948 147.824 101.561C148.073 101.152 148.365 100.966 148.693 101.002C149.021 101.028 149.216 100.877 149.287 100.54ZM148.285 98.5621C148.454 98.9701 148.596 98.9169 148.693 98.4024C148.516 98.4734 148.392 98.4379 148.339 98.3048C148.285 98.1717 148.268 98.2516 148.285 98.5621ZM148.161 102.377C148.126 102.545 148.028 102.625 147.86 102.607C147.691 102.59 147.505 102.696 147.284 102.936C147.399 103.211 147.514 103.361 147.638 103.397C147.762 103.432 147.727 103.486 147.541 103.548C147.301 103.477 147.071 103.37 146.849 103.211C146.628 103.06 146.406 103.095 146.193 103.335C146.699 103.778 147.372 104 148.215 104C147.745 103.388 147.691 103.015 148.055 102.873C148.17 103.148 148.285 103.415 148.401 103.69C148.516 103.965 148.64 103.991 148.764 103.787C148.8 103.619 148.755 103.317 148.622 102.891C148.498 102.483 148.347 102.306 148.161 102.377ZM144.385 100.94C144.926 101.215 145.059 101.161 144.793 100.789C144.536 100.416 144.403 100.469 144.385 100.94ZM145.67 104.71C145.201 104.089 144.615 104.027 143.924 104.515C143.233 104.994 142.905 105.544 142.949 106.147C143.499 105.952 143.96 105.792 144.332 105.659C144.695 105.535 145.139 105.215 145.67 104.71ZM142.479 100.922C142.293 100.984 142.116 101.055 141.93 101.117C141.743 101.179 141.788 101.401 142.054 101.773L142.745 101.534L142.479 100.922ZM141.912 103.699C141.672 103.628 141.557 103.743 141.584 104.044C141.61 104.346 141.743 104.532 141.983 104.612C141.867 104.337 141.841 104.151 141.903 104.053C141.965 103.947 141.965 103.832 141.912 103.699ZM141.823 105.366C141.548 105.464 141.495 105.712 141.672 106.12C141.797 105.916 141.912 105.801 142 105.774C142.089 105.748 142.036 105.606 141.823 105.366ZM140.981 106.36C140.662 105.845 140.6 105.828 140.795 106.307C140.999 106.786 141.061 106.803 140.981 106.36ZM137.843 103.45C137.896 103.583 137.834 103.681 137.648 103.743L137.994 104.559L138.41 104.417C138.118 103.743 137.932 103.424 137.843 103.45ZM138.703 107.371C138.738 107.203 138.818 107.132 138.933 107.176C139.057 107.212 139.084 107.158 139.031 107.025C138.756 107.114 138.65 107.229 138.703 107.371ZM138.304 106.795C138.18 106.99 138.02 107.238 137.825 107.54C137.63 107.833 137.692 108.09 137.994 108.303C138.065 107.966 138.18 107.735 138.33 107.602C138.49 107.478 138.481 107.212 138.304 106.795ZM136.948 107.717C136.274 107.62 136.052 107.85 136.283 108.4C136.433 108.498 136.655 108.276 136.948 107.717ZM127.764 111.94C129.076 112.02 130.583 111.762 132.294 111.168C133.996 110.556 135.201 109.598 135.919 108.276C135.246 108.178 134.696 108.391 134.279 108.915C133.863 109.429 133.304 109.491 132.604 109.092C131.274 109.962 130.14 110.458 129.182 110.591C128.225 110.716 127.002 111.15 125.512 111.887C126 112.517 126.044 112.889 125.663 113.004C125.397 112.614 125.3 112.33 125.379 112.162C125.459 111.984 125.335 111.86 124.989 111.807C124.635 112.215 124.156 112.463 123.553 112.552C122.95 112.641 122.445 112.818 122.02 113.084C123.216 114.149 124.262 114.362 125.167 113.723C126.071 113.084 126.931 112.49 127.764 111.94ZM132.959 108.054C133.056 108.028 133.18 108.063 133.331 108.17C133.482 108.276 133.623 108.232 133.747 108.037C133.818 107.699 133.65 107.558 133.251 107.611C132.843 107.664 132.746 107.806 132.959 108.054ZM131.975 108.365C131.558 107.877 131.443 107.868 131.647 108.347C131.85 108.826 131.957 108.826 131.975 108.365ZM130.804 107.096C130.476 106.573 130.414 106.555 130.618 107.034C130.822 107.513 130.884 107.54 130.804 107.096ZM132.613 113.989C132.799 113.927 132.861 113.829 132.808 113.696C132.622 113.759 132.551 113.856 132.613 113.989ZM129.439 109.128C129.253 109.181 129.12 109.181 129.04 109.128C128.961 109.074 128.881 109.057 128.783 109.092L129.049 109.713L129.333 109.633L129.439 109.128ZM126.416 108.4C125.947 108.533 125.796 108.808 125.964 109.225C126.443 109.083 126.594 108.808 126.416 108.4ZM126.461 110.006C126.177 110.086 126 110.29 125.929 110.618C126.124 110.565 126.266 110.6 126.372 110.725C126.479 110.849 126.629 110.884 126.815 110.831L126.461 110.006ZM124.555 110.769C124.307 110.68 124.067 110.751 123.846 110.964C123.615 111.177 123.544 111.505 123.624 111.949C123.855 111.727 124.112 111.585 124.395 111.505C124.679 111.434 124.732 111.186 124.555 110.769ZM121.647 111.798C121.24 111.594 120.965 111.638 120.814 111.904C120.663 112.171 120.406 112.126 120.034 111.762C119.999 111.922 120.016 112.144 120.078 112.437C120.149 112.721 120.282 112.845 120.468 112.792C120.353 112.517 120.575 112.419 121.142 112.499C121.709 112.588 121.878 112.348 121.647 111.798ZM121.86 113.821C121.124 113.093 120.362 113.102 119.555 113.856C118.749 114.601 118.101 114.876 117.596 114.699C118.465 115.24 119.156 115.178 119.671 114.513C120.194 113.838 120.92 113.608 121.86 113.821ZM118.616 110.308C118.846 110.858 119.059 111.106 119.254 111.053C119.334 110.725 119.289 110.503 119.139 110.396C118.979 110.29 118.811 110.254 118.616 110.308ZM116.541 111.071C116.444 111.097 116.382 111.071 116.355 111C116.329 110.929 116.267 110.911 116.169 110.929C116.399 111.479 116.586 111.656 116.719 111.479L116.541 111.071ZM117.286 114.317C117.118 114.663 116.798 114.859 116.337 114.903C115.876 114.938 115.478 115 115.132 115.08C114.795 115.16 114.511 115.311 114.281 115.515C114.05 115.719 113.988 116.198 114.086 116.934C114.742 116.473 115.442 116.109 116.187 115.852C116.922 115.586 117.286 115.08 117.286 114.317ZM115.557 111.771C115.752 111.727 115.814 111.629 115.761 111.496L115.619 111.532C115.522 111.55 115.504 111.629 115.557 111.771ZM113.448 112.064C113.501 112.197 113.581 112.259 113.678 112.233C113.776 112.206 113.793 112.126 113.731 111.993C113.634 112.02 113.536 111.967 113.43 111.842C113.323 111.709 113.332 111.78 113.448 112.064ZM112.863 112.197C112.535 111.665 112.481 111.683 112.721 112.233C112.951 112.783 113.004 112.774 112.863 112.197ZM113.758 116.553C113.563 116.597 113.536 116.526 113.669 116.349C113.802 116.163 113.793 116.012 113.634 115.896C110.833 116.092 108.288 116.509 106.001 117.156C103.705 117.786 100.913 118.265 97.6243 118.593C97.9611 119.134 98.3334 119.321 98.7589 119.17C99.1756 119.01 99.282 119.33 99.0869 120.128C100.594 119.392 102.216 118.993 103.962 118.948C105.7 118.886 107.171 118.505 108.359 117.786C108.475 118.061 108.51 118.212 108.466 118.221C108.421 118.23 108.421 118.309 108.483 118.443C109.051 118.008 109.547 117.751 109.99 117.653C110.425 117.555 110.859 117.493 111.276 117.476C111.692 117.458 112.1 117.405 112.49 117.307C112.871 117.218 113.297 116.97 113.758 116.553ZM112.73 114.513C112.304 114.007 112.189 113.989 112.393 114.477C112.597 114.956 112.712 114.974 112.73 114.513ZM111.559 113.643C111.577 113.182 111.542 113.155 111.444 113.554C111.347 113.963 111.382 113.989 111.559 113.643ZM110.017 112.641C109.822 112.685 109.618 112.694 109.388 112.667C109.166 112.641 109.113 112.765 109.228 113.04C109.485 113.129 109.689 113.235 109.84 113.35C109.999 113.466 110.203 113.572 110.451 113.661L110.017 112.641ZM109.795 117.014C109.857 117.147 109.742 117.254 109.45 117.325C109.379 117.183 109.503 117.076 109.795 117.014ZM108.501 115.48C108.421 115.045 108.288 114.85 108.093 114.885C107.898 114.93 107.703 114.974 107.508 115.018L107.863 115.852C108.058 115.808 108.191 115.737 108.262 115.648C108.315 115.559 108.404 115.506 108.501 115.48ZM106.648 113.395C106.826 113.812 107.207 113.954 107.792 113.821C107.615 113.404 107.233 113.262 106.648 113.395ZM105.531 115.666C105.647 115.941 105.673 116.127 105.602 116.216C105.531 116.305 105.629 116.402 105.886 116.5C105.824 116.358 105.815 116.207 105.859 116.056C105.895 115.896 105.789 115.763 105.531 115.666ZM104.06 115.976C104.353 116.668 104.672 116.908 105 116.686C104.982 116.384 104.876 116.26 104.672 116.305C104.485 116.34 104.282 116.234 104.06 115.976ZM103.005 114.61C103.2 114.566 103.271 114.477 103.209 114.344C103.014 114.388 102.943 114.477 103.005 114.61ZM103.679 115.834C103.129 115.799 102.899 116.145 102.996 116.881C103.076 116.562 103.253 116.411 103.528 116.438C103.803 116.447 103.856 116.242 103.679 115.834ZM102.473 114.495L102.181 114.557L102.358 114.974L102.65 114.912L102.473 114.495ZM101.667 117.138C102.278 117.316 102.491 117.201 102.314 116.784C102.145 116.367 101.924 116.482 101.667 117.138ZM101.108 116.571C100.833 116.926 100.488 117.067 100.089 116.997C99.6809 116.926 99.2376 116.934 98.7412 117.032C99.1224 117.413 99.6188 117.573 100.239 117.538C100.851 117.493 101.144 117.165 101.108 116.571ZM100.425 115.355C100.071 114.521 99.7872 114.424 99.5834 115.071C99.3706 115.71 99.5479 116.056 100.097 116.101C99.6543 115.284 99.7606 115.036 100.425 115.355ZM98.4398 117.085C98.4575 117.378 98.36 117.476 98.1562 117.36C97.9434 117.245 97.8813 117.413 97.9611 117.848C98.1827 118.105 98.4132 118.105 98.6792 117.83C98.9362 117.555 98.8565 117.307 98.4398 117.085ZM97.2786 117.759C97.2165 117.618 97.0481 117.538 96.7733 117.511C96.4985 117.484 96.3655 117.618 96.3832 117.919C96.6226 117.724 96.8531 117.759 97.0658 118.017C97.2874 118.283 97.3583 118.194 97.2786 117.759ZM97.181 118.673C96.5871 118.78 96.3744 119.046 96.5517 119.463C96.8708 119.702 97.119 119.729 97.314 119.551C97.509 119.365 97.4647 119.072 97.181 118.673ZM95.7804 118.026C95.6031 117.609 95.4259 117.378 95.2486 117.334C95.0713 117.289 94.8497 117.218 94.5926 117.112C94.9738 117.493 95.0358 117.706 94.7876 117.751C94.5394 117.795 94.5039 118.026 94.6812 118.443C94.8585 118.105 95.0535 117.999 95.2663 118.114C95.4702 118.23 95.6475 118.203 95.7804 118.026ZM95.8425 118.913C92.146 119.551 88.0328 120.022 83.4853 120.323C78.9111 120.563 74.2661 120.714 69.5501 120.776C69.7274 121.201 69.7983 121.485 69.754 121.636C69.4526 120.935 69.0448 120.607 68.5307 120.66C67.7329 121.317 66.7666 121.45 65.6142 121.042C64.4707 120.625 63.3183 120.474 62.1748 120.563C62.5205 121.113 62.9549 121.37 63.4779 121.335C64.0009 121.29 64.4086 121.618 64.71 122.328C66.3589 121.885 67.9988 121.885 69.6388 122.31C71.2698 122.727 72.6616 122.514 73.8051 121.654C74.399 122.027 75.2234 122.195 76.2783 122.142C77.3332 122.089 78.0601 121.893 78.4502 121.547C79.6646 122.133 80.5688 122.168 81.1539 121.645C81.7389 121.122 82.6697 120.847 83.9462 120.82L84.3008 121.663C85.728 120.714 87.6073 120.279 89.9475 120.368C92.2789 120.43 94.2469 119.942 95.8425 118.913ZM93.6884 118.398C93.3515 117.857 93.2895 117.83 93.4934 118.318C93.7061 118.806 93.7682 118.833 93.6884 118.398ZM93.0324 117.609C92.6956 117.067 92.6424 117.076 92.8817 117.635C93.1211 118.194 93.1742 118.185 93.0324 117.609ZM93.059 118.052C92.5626 118.141 92.3942 118.389 92.5803 118.806C93.0767 118.726 93.2363 118.469 93.059 118.052ZM92.0484 117.555C91.7914 117.449 91.5875 117.298 91.4545 117.094C91.3127 116.89 91.1443 116.81 90.9492 116.846C91.1709 117.103 91.2418 117.28 91.1709 117.369C91.0999 117.458 91.1265 117.635 91.2418 117.919C91.5609 118.168 91.8091 118.239 91.9775 118.132C92.1371 118.026 92.1637 117.83 92.0484 117.555ZM90.7188 118.221C90.7365 118.514 90.9404 118.664 91.3215 118.682C91.7027 118.691 91.7825 118.567 91.5609 118.309C91.4191 118.478 91.295 118.505 91.1886 118.372C91.0733 118.238 90.9226 118.185 90.7188 118.221ZM90.4794 118.034C90.2223 117.928 90.1337 117.981 90.2223 118.185C90.311 118.398 90.3642 118.647 90.3819 118.939L90.834 118.868L90.4794 118.034ZM89.132 119.037C89.46 119.055 89.5664 118.93 89.4511 118.655L89.1497 118.7L88.7597 118.54C88.6799 118.851 88.804 119.01 89.132 119.037ZM87.4034 118.744L86.9513 118.815L87.2172 119.445L87.6693 119.374L87.4034 118.744ZM85.6925 117.005C85.4355 116.154 85.3911 116.047 85.5596 116.695C85.728 117.334 85.7723 117.44 85.6925 117.005ZM86.1889 118.93C85.9141 118.522 85.8521 118.567 86.0028 119.072C86.1712 119.569 86.2244 119.516 86.1889 118.93ZM84.1767 117.227C84.1412 116.642 84.088 116.571 84.0083 117.032C83.9373 117.484 83.9905 117.547 84.1767 117.227ZM84.7617 119.365C84.9656 119.339 85.0366 119.25 84.9745 119.108C84.7795 119.143 84.7086 119.223 84.7617 119.365ZM83.5916 117.751C83.7689 118.168 83.9196 118.15 84.0437 117.688C83.8398 117.715 83.7069 117.662 83.6537 117.52C83.6005 117.387 83.5739 117.458 83.5916 117.751ZM81.4818 119.605C81.9339 119.392 82.4658 119.321 83.0775 119.383C83.698 119.445 84.0437 119.321 84.1324 119.01C83.565 118.939 83.0686 118.904 82.6254 118.886C82.191 118.877 81.8098 119.117 81.4818 119.605ZM80.0369 117.36C80.2851 117.183 80.5156 117.147 80.7195 117.272C80.9322 117.387 81.0829 117.298 81.1627 116.988C80.8436 116.73 80.5422 116.668 80.2674 116.775C80.0015 116.881 79.9217 117.076 80.0369 117.36ZM77.7233 119.871C78.2551 120.101 78.8047 120.137 79.3898 119.995C79.9749 119.844 80.5156 119.738 81.0298 119.667C80.5245 118.993 79.9837 118.842 79.3898 119.214C78.787 119.587 78.2285 119.8 77.7233 119.871ZM79.5582 116.979C79.4607 116.988 79.3898 116.961 79.3632 116.89C79.3366 116.819 79.2657 116.792 79.1682 116.801C79.2302 116.934 79.2302 117.014 79.1771 117.023C79.1239 117.032 79.1327 117.103 79.1859 117.245C79.2923 117.227 79.3543 117.254 79.3809 117.334C79.4075 117.405 79.4785 117.431 79.576 117.422C79.5139 117.28 79.5139 117.209 79.5671 117.201C79.6203 117.192 79.6114 117.121 79.5582 116.979ZM78.6274 118.203C78.7338 118.194 78.8225 118.212 78.9023 118.283C78.982 118.345 79.0796 118.372 79.1771 118.354C79.2657 118.043 79.1327 117.875 78.8047 117.848C78.459 117.822 78.4058 117.937 78.6274 118.203ZM73.8228 119.445C74.532 120.101 75.1171 120.323 75.5692 120.128C76.0213 119.924 76.5886 119.862 77.2623 119.924C76.6595 119.259 76.1099 119.108 75.6135 119.463C75.1082 119.809 74.5231 119.809 73.8228 119.445ZM74.6473 117.591C74.8068 117.715 75.1969 117.751 75.8174 117.671C75.844 117.227 75.6224 117.032 75.1614 117.085C74.7004 117.147 74.532 117.307 74.6473 117.591ZM72.7768 117.369C72.4488 117.112 72.3159 117.165 72.3602 117.529C72.4045 117.884 72.5286 118.061 72.7414 118.034C72.6173 117.751 72.6527 117.635 72.8389 117.697C73.0162 117.742 72.9984 117.635 72.7768 117.369ZM71.066 120.181C71.4826 120.137 71.9258 120.048 72.4134 119.924C72.9009 119.791 73.2998 119.862 73.6278 120.119C72.9807 119.605 72.4134 119.409 71.9258 119.534C71.4383 119.667 71.1546 119.88 71.066 120.181ZM73.0871 121.512C73.1491 121.654 73.025 121.743 72.7148 121.769C72.6527 121.627 72.7768 121.547 73.0871 121.512ZM72.1652 121.61C72.2804 121.893 72.1208 122.018 71.6776 121.991C71.2344 121.964 71.0571 121.796 71.1457 121.494C71.4117 121.61 71.5712 121.592 71.6067 121.45C71.651 121.299 71.8372 121.352 72.1652 121.61ZM70.4898 119.587C70.1795 119.622 70.0731 119.48 70.1529 119.179C69.887 119.055 69.7629 119.072 69.7629 119.214C69.7717 119.356 69.6742 119.445 69.4615 119.463L69.6388 119.88L70.1263 120.27C70.0022 119.986 70.0643 119.871 70.3036 119.924C70.5518 119.977 70.605 119.862 70.4898 119.587ZM67.9811 117.866C68.3091 118.123 68.5927 118.168 68.8498 117.999C69.098 117.83 69.4083 117.795 69.7806 117.901C69.4969 117.493 69.1512 117.307 68.7346 117.351C68.3179 117.396 68.0697 117.564 67.9811 117.866ZM69.0005 119.516C68.3977 119.871 67.3428 119.933 65.8447 119.702C64.3466 119.472 63.1587 119.605 62.29 120.11C63.4424 120.013 64.6303 120.093 65.8802 120.35C67.1212 120.607 68.1672 120.332 69.0005 119.516ZM66.6159 117.343L66.1461 117.387C66.1638 117.671 66.3411 117.839 66.678 117.884C67.0148 117.919 67.0769 117.804 66.8553 117.538C66.7666 117.547 66.678 117.484 66.6159 117.343ZM65.2153 117.476L64.9051 117.502L65.171 118.132L65.4813 118.105L65.2153 117.476ZM63.8768 117.369C63.992 117.644 64.2225 117.919 64.5505 118.185C64.2491 117.484 64.0275 117.209 63.8768 117.369ZM63.1676 117.218C63.2297 117.36 63.2031 117.431 63.0967 117.44C63.274 117.857 63.4867 117.981 63.7438 117.822C63.5842 117.688 63.4956 117.547 63.4867 117.405C63.4867 117.263 63.3804 117.201 63.1676 117.218ZM63.1233 117.875C62.7776 117.325 62.5382 117.13 62.3875 117.28C62.2368 117.431 61.8734 117.467 61.2883 117.369C61.6163 117.635 61.9797 117.857 62.3875 118.043C62.7864 118.23 63.0346 118.168 63.1233 117.875ZM59.3115 117.307C59.7459 117.564 60.0295 117.653 60.1536 117.573C60.2777 117.493 60.5348 117.511 60.9071 117.626C60.8805 117.05 60.6057 116.784 60.0827 116.819C59.5597 116.855 59.3026 117.014 59.3115 117.307ZM61.377 120.625C61.5897 120.607 61.6252 120.572 61.4922 120.51C61.3592 120.447 61.3238 120.483 61.377 120.625C60.8983 120.518 60.8274 120.589 61.1553 120.864C61.4833 121.131 61.5631 121.051 61.377 120.625ZM60.6855 119.374C60.2689 119.41 60.1448 119.631 60.3309 120.057L60.8008 120.022C60.7387 119.88 60.721 119.773 60.7476 119.702C60.7653 119.622 60.7387 119.516 60.6855 119.374ZM60.6146 121.122C60.721 121.113 60.7121 120.971 60.588 120.687L60.2777 120.714C60.4019 120.989 60.5171 121.131 60.6146 121.122ZM59.4445 119.897C59.5508 119.889 59.5952 119.738 59.5774 119.454L59.1076 119.489C59.2317 119.773 59.347 119.906 59.4445 119.897ZM59.7193 120.536C58.7353 120.749 57.6981 120.678 56.6255 120.314C55.5529 119.951 54.9324 120.35 54.7817 121.512C55.1008 121.494 55.3136 121.618 55.4377 121.911C55.81 122.035 55.943 121.956 55.8189 121.672C55.6948 121.388 55.7125 121.166 55.8632 121.015C56.794 121.681 57.6006 121.849 58.2655 121.512C58.9392 121.166 59.4179 120.847 59.7193 120.536ZM56.5457 118.797C56.723 119.223 56.9181 119.427 57.1308 119.41C56.9535 118.993 56.7585 118.789 56.5457 118.797ZM52.273 119.055C52.9201 119.303 53.5761 119.445 54.241 119.48C54.9058 119.516 55.7125 119.498 56.661 119.436C56.005 118.904 55.2515 118.655 54.4005 118.709C53.5584 118.771 52.8492 118.877 52.273 119.055ZM55.0388 115.657C55.0122 116.092 54.8881 116.065 54.6753 115.568C54.4714 115.08 54.5955 115.107 55.0388 115.657ZM54.0637 116.792C53.6116 116.242 53.5229 116.216 53.78 116.704C54.0459 117.192 54.1434 117.218 54.0637 116.792ZM53.1861 116.633C52.8404 116.074 52.7694 116.047 52.9822 116.535C53.1949 117.023 53.257 117.059 53.1861 116.633ZM53.6736 121.574C53.1595 120.873 53.0797 120.634 53.4343 120.829C53.7889 121.024 54.1523 121.042 54.5069 120.873L54.2321 120.235C53.2393 120.43 52.211 120.376 51.1561 120.075C50.1012 119.764 49.2768 119.915 48.6651 120.518C49.1527 120.643 49.7643 120.864 50.5001 121.193C51.2359 121.512 51.7146 121.308 51.945 120.581C52.3705 121.574 52.9467 121.902 53.6736 121.574ZM29.101 118.966C30.2002 119.25 31.4324 119.711 32.7975 120.35C34.1538 120.98 35.3505 121.219 36.3699 121.068C36.5916 121.068 36.8664 121.201 37.2032 121.485C37.4248 121.485 37.5667 121.37 37.6376 121.157C37.7085 120.944 37.8858 120.9 38.1606 121.042C39.6055 121.876 40.9618 122.204 42.2472 122.027C43.5325 121.849 44.747 122.097 45.9082 122.781C47.0872 122.736 47.956 122.816 48.5233 123.002C49.0906 123.198 49.8619 123.41 50.837 123.659C50.9167 123.073 51.2004 122.807 51.7145 122.86C52.2198 122.905 52.7162 122.985 53.2038 123.109C53.6914 123.224 54.0903 123.277 54.4094 123.26C54.7285 123.242 54.8172 122.94 54.6842 122.373C51.6614 122.39 48.6917 122.097 45.7753 121.485C42.85 120.856 40.0487 120.714 37.3628 121.051C37.0791 120.625 36.5384 120.279 35.776 120.004C35.9622 120.43 36.0242 120.714 35.9799 120.856C35.7494 120.572 35.5544 120.359 35.386 120.217C35.2175 120.075 35.0225 119.862 34.792 119.578C31.7869 119.17 28.5691 118.38 25.1296 117.218C25.4488 118.203 26.0693 118.709 27.0001 118.718C27.8954 118.753 28.6046 118.824 29.101 118.966ZM51.9273 118.638C51.6525 118.505 51.3777 118.487 51.0852 118.576C50.7926 118.664 50.6951 118.922 50.766 119.347C50.9167 119.197 51.2359 119.179 51.7234 119.303C52.211 119.418 52.2819 119.197 51.9273 118.638ZM51.0763 117.396C50.6863 116.988 50.5887 117.023 50.8015 117.52C51.0142 118.008 51.1029 117.963 51.0763 117.396ZM49.0995 116.198C49.2147 116.473 49.3388 116.757 49.4629 117.041C49.5782 117.325 49.7998 117.458 50.1189 117.44C50.2696 117.289 50.2342 117.005 49.9948 116.588C49.7643 116.171 49.4718 116.038 49.0995 116.198ZM49.064 118.78C49.2768 118.771 49.3122 118.735 49.1793 118.664C49.0463 118.602 49.0108 118.638 49.064 118.78C49.0197 118.922 48.9311 118.859 48.8158 118.576L48.4967 118.593C48.4081 118.886 48.5322 119.055 48.8779 119.117C49.2325 119.17 49.2945 119.064 49.064 118.78ZM48.018 118.611C47.8053 118.62 47.6546 118.593 47.5748 118.522C47.495 118.451 47.3443 118.425 47.1316 118.434C47.1493 118.718 47.2911 118.93 47.5659 119.064C47.8407 119.197 47.8496 119.339 47.5836 119.489C46.6795 119.667 45.7753 119.631 44.8534 119.374C43.9314 119.117 42.9829 119.001 42.0255 119.028C42.0433 119.312 42.0344 119.489 42.0078 119.56C41.9812 119.631 41.9812 119.809 41.9901 120.101C42.6461 120.368 43.2843 120.456 43.896 120.368C44.5076 120.27 45.1193 120.439 45.7309 120.847C45.4916 120.279 45.4207 119.995 45.5271 119.995C46.3781 120.971 47.1138 121.228 47.7343 120.776C48.346 120.323 48.4435 119.596 48.018 118.611ZM47.0606 118.655C46.5642 118.247 46.4401 118.283 46.7061 118.78C46.972 119.268 47.0872 119.223 47.0606 118.655ZM42.779 118.159C43.2311 118.718 43.5414 118.922 43.6921 118.771C43.8428 118.62 44.224 118.611 44.8179 118.735C44.5342 118.318 44.2151 118.15 43.8694 118.23C43.5237 118.318 43.1602 118.292 42.779 118.159ZM39.703 117.813C40.2438 117.804 40.6604 117.901 40.9707 118.105C41.2809 118.309 41.6178 118.478 41.999 118.611C41.8217 118.185 41.405 117.839 40.7402 117.573C40.0842 117.307 39.7385 117.387 39.703 117.813ZM40.8731 118.647C40.3945 118.797 39.9158 118.806 39.4194 118.682C38.9318 118.549 38.6038 118.558 38.4531 118.7C38.9761 119.401 39.5701 119.782 40.2438 119.844C40.9175 119.889 41.1302 119.489 40.8731 118.647ZM35.8381 118.309C36.1838 118.868 36.5827 119.152 37.0082 119.143C37.4426 119.134 37.9301 119.126 38.462 119.117C37.9478 118.416 37.5135 118.176 37.1766 118.389C36.8398 118.611 36.3965 118.584 35.8381 118.309ZM37.2564 117.431C37.7617 117.848 37.8858 117.813 37.6198 117.316C37.3539 116.828 37.2387 116.863 37.2564 117.431ZM34.9161 113.856C35.2441 113.856 35.3682 113.776 35.3151 113.643C34.9871 113.643 34.8541 113.714 34.9161 113.856ZM35.5455 117.245C35.7051 117.103 35.9178 117.094 36.1926 117.236C36.4674 117.369 36.5472 117.298 36.4231 117.023C36.2104 117.023 35.9799 116.997 35.7317 116.926C35.4923 116.855 35.4303 116.961 35.5455 117.245ZM35.6785 118.309C34.2602 118.034 32.8152 117.662 31.3614 117.165C29.8988 116.668 28.6223 116.42 27.5319 116.411C28.9857 117.263 30.4395 117.795 31.8933 118.008C33.3294 118.221 34.597 118.318 35.6785 118.309ZM33.3294 116.633C33.0457 116.207 33.0014 116.242 33.2141 116.739C33.418 117.227 33.4624 117.192 33.3294 116.633ZM32.0795 116.003H31.4235C31.6628 116.562 31.9465 116.704 32.2568 116.42L32.0795 116.003ZM30.2977 112.206C29.9076 112.064 29.7658 112.171 29.8633 112.525C29.9608 112.871 30.2002 113.12 30.5814 113.262C30.4573 112.978 30.4129 112.8 30.4395 112.738C30.4661 112.658 30.4218 112.49 30.2977 112.206ZM27.1951 116.411C26.8582 116.127 26.4239 115.879 25.892 115.657C25.369 115.444 25.0499 115.471 24.9523 115.755C25.0587 115.755 25.174 115.896 25.2981 116.18C25.5197 116.18 25.8654 116.296 26.3352 116.509C26.8139 116.73 27.0976 116.695 27.1951 116.411ZM21.6724 113.812C22.3462 114.104 22.5146 114.069 22.2043 113.714C21.8852 113.359 21.7168 113.395 21.6724 113.812Z" fill="#1A1A1A"/>
<path d="M3.88107 98.3936C4.01404 99.0855 3.7747 99.7598 3.18077 100.416C2.58684 101.064 2.32977 101.818 2.40955 102.67C2.79959 102.448 3.31374 101.818 3.94312 100.762C4.57251 99.7065 4.65229 98.8638 4.1736 98.2339C5.00687 96.4951 6.38089 94.9959 8.3045 93.7362C10.2281 92.4765 12.1251 91.4563 13.9956 90.6756C15.1302 90.1699 16.2738 89.478 17.435 88.5731C18.5963 87.6682 19.5891 87.4997 20.4135 88.0674C20.7238 88.1562 20.8745 88.032 20.8834 87.7126C20.8922 87.3844 20.9986 87.1715 21.1936 87.065C21.6103 87.3489 21.6723 87.6949 21.3886 88.1118C23.4984 87.0739 25.6614 86.1246 27.8775 85.2819C30.0937 84.4391 32.6024 84.0044 35.4036 83.9867C36.6446 82.5318 38.3111 81.8931 40.3943 82.0794C42.4775 82.2656 44.277 81.7511 45.7751 80.5358C46.1297 80.4737 46.2538 80.589 46.1652 80.8906C46.0765 81.1922 46.1918 81.3874 46.4932 81.4761C46.9896 81.4495 47.158 81.2987 46.9985 81.0059C46.8389 80.7132 46.7946 80.4116 46.8832 80.1099C47.5835 79.9769 48.5232 79.8438 49.7199 79.693C50.9166 79.5422 51.8474 79.1518 52.5211 78.522L53.0086 79.4002C54.4624 78.3357 56.0315 78.0429 57.698 78.522C58.0881 78.3002 58.2831 78.0696 58.2653 77.8212C58.2565 77.5728 58.221 77.2711 58.1501 76.9252C59.8698 77.2534 61.2527 77.1558 62.3076 76.6324C63.3625 76.109 64.3996 75.5058 65.4191 74.8049C71.1367 73.8113 76.5441 72.3121 81.6324 70.3161C86.7296 68.32 91.9153 66.4393 97.1986 64.6562C97.5444 64.5941 97.7483 64.4433 97.8192 64.2127C97.8812 63.982 98.1117 63.7691 98.5017 63.5473C100.239 63.2279 101.782 62.5537 103.147 61.5424C104.503 60.5311 105.886 59.573 107.304 58.6593C107.623 58.1004 107.774 57.7278 107.748 57.5503C107.712 57.3818 107.81 56.9116 108.022 56.1487C108.368 56.0866 108.661 55.9269 108.9 55.6608C109.139 55.4035 109.432 55.235 109.778 55.1729C110.948 55.6785 111.639 56.4148 111.861 57.3729C112.073 58.3399 112.029 59.3601 111.728 60.4246C111.426 61.4892 111.001 62.5271 110.469 63.5207C109.937 64.5231 109.308 65.4103 108.59 66.1909C108.652 66.5369 108.776 66.6966 108.944 66.6611C109.113 66.6256 109.228 66.5369 109.272 66.3861C108.767 67.566 107.987 68.737 106.905 69.908C105.833 71.079 104.565 71.6201 103.111 71.5314C101.046 73.5718 98.7322 75.0445 96.1703 75.9582C93.6085 76.8631 90.9136 77.6615 88.0858 78.3268C85.9761 79.3648 83.8663 80.2874 81.7477 81.0769C79.629 81.8664 77.3774 82.4165 74.984 82.7181C74.0089 83.2592 72.9806 83.827 71.8991 84.4302C70.8265 85.0246 69.7007 85.069 68.5305 84.5722C68.0962 84.9448 67.6352 85.2641 67.1477 85.5303C66.6601 85.7964 66.2258 86.0448 65.8268 86.2666C65.3747 86.1335 65.1975 85.8762 65.3038 85.5037C65.4102 85.1222 65.2418 84.8649 64.7808 84.7407C64.3908 84.9536 64.2844 85.1754 64.4706 85.3883C64.6567 85.6012 64.6035 85.9206 64.3199 86.3376C63.1054 87.136 61.6694 87.5529 60.0205 87.5707C58.3717 87.5884 56.9179 88.0763 55.6503 89.0344C53.7178 89.4691 51.8119 89.824 49.9149 90.1078C48.0267 90.3917 46.2804 91.0393 44.6671 92.0595C40.5805 92.5297 36.751 93.4079 33.1786 94.6943C29.6061 95.9717 25.8298 96.9476 21.8496 97.6218C20.5908 98.5799 19.1725 99.2009 17.6123 99.4936C16.0433 99.7864 14.7136 100.425 13.6055 101.428C12.8077 101.357 11.8503 101.543 10.7334 101.96C9.62533 102.386 8.67682 102.971 7.879 103.734C7.09005 104.497 6.42521 105.375 5.89333 106.378C5.36146 107.371 5.27281 108.418 5.60967 109.509C7.36486 113.138 9.53668 116.482 12.1163 119.525C14.6959 122.568 18.1619 125.123 22.5056 127.199C25.8298 129.957 29.748 132.362 34.26 134.402C38.781 136.442 43.5147 138.004 48.4611 139.095C47.9381 140.922 48.0002 142.422 48.6561 143.593C47.5746 145.092 46.9364 146.715 46.7591 148.481C46.5907 150.237 45.7929 151.577 44.3745 152.49C43.7274 152.464 43.3728 152.242 43.3285 151.825C43.2842 151.399 43.1335 151.071 42.8764 150.832C42.4864 151.044 42.1229 151.027 41.7861 150.769C41.4492 150.512 41.0503 150.308 40.5982 150.184C37.797 149.048 34.4107 147.665 30.4394 146.032C26.4681 144.4 23.135 142.537 20.4401 140.443C19.3587 139.636 18.2949 138.758 17.2489 137.8C16.2117 136.842 15.148 135.963 14.0576 135.156C13.5435 134.677 12.9761 134.349 12.3645 134.18C11.7617 134.003 11.1944 133.675 10.6713 133.204C9.06686 131.918 7.77263 130.401 6.79752 128.636C5.82242 126.87 4.6257 125.3 3.21623 123.907C2.43614 122.035 1.78903 119.995 1.26602 117.795C0.75187 115.586 0.938026 113.209 1.82449 110.671C1.39012 108.737 1.29261 106.644 1.52309 104.408C1.7713 102.155 2.55138 100.15 3.88107 98.3936ZM104.592 69.012C104.609 68.3644 104.547 68.3023 104.397 68.8346C104.246 69.3669 104.308 69.4201 104.592 69.012ZM89.6637 74.6098C89.9297 74.8493 90.036 75.0444 89.9917 75.1953C89.9474 75.3461 90.0804 75.4703 90.3818 75.5501C91.0378 74.4146 91.8976 74.0065 92.9614 74.317C94.0251 74.6186 94.8673 74.2815 95.47 73.3057C94.3176 73.3057 93.2716 73.3767 92.3231 73.5186C91.3746 73.6517 90.4881 74.0154 89.6637 74.6098C88.8571 74.5388 88.3606 74.7251 88.1479 75.1598C87.944 75.5945 88.1036 76.0469 88.6177 76.5259C89.0166 76.3042 89.318 76.109 89.5308 75.9227C89.7524 75.7453 89.7967 75.3017 89.6637 74.6098ZM95.4346 72.5605C95.8689 72.1879 95.8424 72.1436 95.3548 72.4097C94.8584 72.6847 94.885 72.7291 95.4346 72.5605ZM86.5611 75.9404C87.1728 76.1179 87.5628 75.8961 87.7313 75.2928C87.4742 75.0533 87.2969 75.0799 87.2082 75.3904C87.1285 75.6921 86.9157 75.8784 86.5611 75.9404C86.3041 75.7009 86.1622 75.7453 86.1534 76.0735C86.1445 76.4018 85.9849 76.5171 85.6835 76.4284C85.8165 75.9759 85.6747 75.8872 85.258 76.18C84.8503 76.4727 84.868 76.6856 85.3201 76.8187L85.258 77.0494C85.8254 77.3687 86.2597 77.005 86.5611 75.9404ZM85.6835 76.4284C85.5949 76.73 85.4797 76.8631 85.3201 76.8187C85.3733 76.6679 85.4885 76.5348 85.6835 76.4284ZM84.3804 77.5373C84.4691 77.2268 84.4336 77.0582 84.2829 77.0139C84.1322 76.9695 84.2475 76.8364 84.6375 76.6235C84.3804 76.384 83.9018 76.3308 83.2015 76.455C82.8823 77.0139 82.8912 77.3953 83.2458 77.5816C83.6181 77.7679 83.9904 77.7502 84.3804 77.5373ZM82.3239 76.9518C81.7831 77.1203 81.269 77.351 80.7726 77.6171C80.285 77.8833 79.7177 78.0163 79.0617 77.9897C78.6273 78.3623 78.6628 78.5309 79.1592 78.5131C79.6556 78.4865 79.7886 78.6107 79.5492 78.868C79.0971 78.7349 79.0262 78.9655 79.3542 79.551C79.8329 79.0276 80.4534 78.593 81.2158 78.2292C81.9781 77.8744 82.3504 77.4486 82.3239 76.9518ZM77.9625 78.4067L77.6965 79.3204C78.1486 79.4535 78.4855 79.4623 78.6716 79.3559C78.4146 79.1164 78.2905 78.9567 78.3171 78.8857C78.3437 78.8059 78.2284 78.6462 77.9625 78.4067ZM77.2444 79.1962C76.1807 78.8946 75.3208 79.3027 74.6648 80.4293L75.8084 80.7575C76.0477 80.4914 76.2516 80.2253 76.4112 79.9414C76.5796 79.6575 76.8544 79.4091 77.2444 79.1962ZM71.8991 80.6245L72.4221 80.5269C72.6437 80.9172 72.8653 80.9793 73.1047 80.7221C73.344 80.4559 73.5036 80.1809 73.5922 79.8704C73.2908 79.7817 72.9008 80.0035 72.4221 80.518C72.2005 80.1277 72.0321 80.1632 71.8991 80.6245C71.4381 80.4914 71.3229 80.6245 71.5356 81.0148C71.7573 81.4051 71.8814 81.2721 71.8991 80.6245ZM70.986 82.0882C70.924 81.7422 70.924 81.4495 70.986 81.2277C71.0481 80.9971 71.0304 80.7842 70.924 80.589C69.7539 81.2366 68.4419 81.6447 66.997 81.8043C65.552 81.964 64.2401 82.3721 63.07 83.0197C64.5947 83.4544 65.9332 83.5076 67.0945 83.1883C68.2557 82.8689 69.55 82.4963 70.986 82.0882ZM69.8425 81.76C69.5234 82.3189 69.4436 82.3011 69.612 81.6979C69.7893 81.0858 69.8691 81.1124 69.8425 81.76ZM64.0717 85.5391L63.6107 85.4061L63.4777 85.8585L63.9387 85.9916L64.0717 85.5391ZM58.8593 84.7851C59.0366 85.3262 59.2759 85.6456 59.5773 85.7343C59.861 85.3262 60.1446 84.9093 60.4283 84.4923C60.712 84.0754 60.9956 84.2439 61.2704 84.9803C61.5364 84.0665 61.5098 83.5697 61.2084 83.481C60.579 83.9601 59.8255 83.9867 58.9568 83.5786C58.7352 84.3415 58.4958 84.6343 58.2033 84.4746C57.9196 84.306 57.6094 84.2617 57.2548 84.3238C56.9534 85.3883 57.1218 85.9295 57.7778 85.9561C58.0881 86.0448 58.2565 85.8851 58.2831 85.4859C58.3274 85.0778 58.5136 84.8472 58.8593 84.7851ZM56.8382 84.9448C56.5368 84.8561 56.191 84.9182 55.7921 85.1399C56.1024 85.2287 56.4481 85.1577 56.8382 84.9448ZM54.95 86.3819C55.2603 86.4706 55.4287 86.4351 55.473 86.2843C55.1627 86.1956 54.9943 86.2222 54.95 86.3819ZM53.9749 86.3464C54.2142 86.0803 54.7284 85.7343 55.5085 85.3085C53.9483 85.0246 52.4324 85.4149 50.9787 86.4795C51.9804 86.4351 52.1931 86.5416 51.6258 86.79C51.0584 87.0384 50.9609 87.3755 51.3332 87.8191C52.0779 87.5352 52.4059 87.1005 52.3261 86.4972C52.2463 85.894 52.7959 85.8408 53.9749 86.3464ZM53.2569 87.1271C53.1328 86.4263 52.9821 86.3464 52.8314 86.8787C52.6807 87.411 52.8225 87.4997 53.2569 87.1271ZM50.2872 86.2755C50.0479 86.5327 49.7022 86.6037 49.2412 86.4706C48.7802 86.3376 48.5498 86.6037 48.5232 87.2513C48.3725 88.3602 48.7448 88.6352 49.649 88.0674C50.5532 87.4997 50.7659 86.9053 50.2872 86.2755ZM48.1331 88.6263C48.2661 88.1739 48.1774 87.8989 47.876 87.8102C47.5747 87.7215 47.3885 87.5086 47.3264 87.1537C47.0871 87.411 46.768 87.5263 46.3602 87.4908C45.9613 87.4553 45.589 87.4731 45.2344 87.5352C45.2965 87.8812 45.2433 88.236 45.0571 88.5909C44.871 88.9457 45.0039 89.1941 45.4649 89.3272C45.6688 88.0674 45.9879 87.6594 46.4311 88.1207C46.8744 88.5909 47.4417 88.7505 48.1331 88.6263ZM48.2661 84.7052C48.6561 84.4835 48.7891 84.3149 48.6561 84.1996C48.532 84.0754 48.3725 84.031 48.204 84.0665C48.0356 84.102 47.8849 84.1818 47.7608 84.3149C47.6456 84.448 47.814 84.581 48.2661 84.7052ZM44.4189 87.8013C44.1175 87.7126 43.8427 87.8013 43.6033 88.0586C43.364 88.3158 43.0183 88.3868 42.5573 88.2537C42.3357 89.0167 42.3623 89.5135 42.6193 89.753C42.903 89.336 43.2044 89.0167 43.5147 88.7771C43.8427 88.5376 44.1441 88.2183 44.4189 87.8013ZM39.7649 89.4336C40.217 89.5667 40.3411 89.4336 40.1195 89.0433C39.9068 88.6441 39.7827 88.7771 39.7649 89.4336C39.5079 89.1941 39.3306 89.2207 39.2419 89.5312C39.1533 89.8328 39.0646 90.1344 38.976 90.4449C39.3306 90.3828 39.6231 90.3385 39.8713 90.3296C40.1195 90.3207 40.288 90.1611 40.3766 89.8594C40.0752 89.7707 39.8713 89.6199 39.7649 89.4336ZM36.3698 90.924C36.1571 90.5337 35.7404 90.2498 35.1288 90.0724L34.8008 91.2167C35.2617 91.3498 35.7847 91.2522 36.3698 90.924ZM32.2655 91.474C31.707 91.1458 31.4322 91.2345 31.45 91.7313C31.4765 92.2281 31.3081 92.5119 30.9624 92.5829C31.5652 92.7603 31.9996 92.3877 32.2655 91.474ZM30.7319 92.5208C30.6078 91.82 30.4483 91.7845 30.2798 92.3877C30.1025 92.991 30.2532 93.0354 30.7319 92.5208ZM31.0599 91.3764L30.3773 91.1813L30.2444 91.6337L30.9269 91.8289L31.0599 91.3764ZM27.9928 93.4612C28.303 93.5499 28.498 93.5676 28.5956 93.5144C28.6931 93.4612 28.897 93.4789 29.1983 93.5676C29.5707 92.8491 29.6682 92.3434 29.5086 92.0506C29.349 91.7579 29.1895 92.166 29.0388 93.2749C28.7374 93.1773 28.3917 93.2483 27.9928 93.4612C27.39 93.2837 27.195 93.3902 27.4077 93.7894C27.6293 94.1797 27.8243 94.0644 27.9928 93.4612ZM26.4946 93.5233C26.2996 93.6297 26.1135 93.8692 25.9273 94.2241C25.7412 94.5789 25.9007 94.7475 26.3971 94.7298C26.6188 93.9668 26.6453 93.5676 26.4946 93.5233ZM25.0231 94.3394C24.4203 94.162 24.1278 94.3306 24.1455 94.8273L24.5976 94.9604C24.6863 94.6499 24.7661 94.5168 24.8458 94.5346C24.9256 94.5612 24.9877 94.4902 25.0231 94.3394ZM22.8158 95.1822C21.7521 94.8806 21.1138 95.1023 20.8922 95.8653C21.2025 95.954 21.4064 95.9274 21.5305 95.8032C21.6546 95.6701 21.823 95.8032 22.0358 96.1935C22.0712 96.0427 22.3372 95.7056 22.8158 95.1822ZM19.1902 96.6193C19.0661 95.9185 18.9066 95.8741 18.7293 96.4863C18.5608 97.0895 18.7204 97.1339 19.1902 96.6193Z" fill="#1A1A1A"/>
</svg>
