<svg width="15" height="16" viewBox="0 0 15 16" fill="none" xmlns="http://www.w3.org/2000/svg">
<path fill-rule="evenodd" clip-rule="evenodd" d="M7.5 0.0585938C5.46346 0.0585938 5.20788 0.0672476 4.40769 0.103594C3.60923 0.13994 3.06404 0.266863 2.58692 0.452055C2.08657 0.640505 1.63334 0.935832 1.25885 1.31744C0.877168 1.6921 0.581837 2.14553 0.393462 2.64609C0.208269 3.12263 0.0819231 3.66782 0.045 4.46629C0.00865388 5.26648 0 5.52206 0 7.55859C0 9.59513 0.00865388 9.85071 0.045 10.6509C0.0813462 11.4494 0.208269 11.9946 0.393462 12.4711C0.585577 12.9644 0.841731 13.3826 1.25885 13.7997C1.63334 14.1814 2.08657 14.4767 2.58692 14.6651C3.06404 14.8497 3.60923 14.9767 4.40769 15.0136C5.20788 15.0499 5.46346 15.0586 7.5 15.0586C9.53654 15.0586 9.79212 15.0499 10.5923 15.0136C11.3908 14.9772 11.936 14.8503 12.4125 14.6651C12.9131 14.4768 13.3665 14.1814 13.7412 13.7997C14.1228 13.4251 14.4182 12.9717 14.6065 12.4711C14.7912 11.9946 14.9181 11.4494 14.955 10.6509C14.9913 9.85071 15 9.59513 15 7.55859C15 5.52206 14.9913 5.26648 14.955 4.46629C14.9187 3.66782 14.7917 3.12263 14.606 2.64609C14.4178 2.14558 14.1226 1.69216 13.7412 1.31744C13.3665 0.935747 12.9131 0.640414 12.4125 0.452055C11.936 0.26744 11.3908 0.140517 10.5923 0.103594C9.79212 0.0672476 9.53654 0.0585938 7.5 0.0585938ZM7.5 1.40975C9.5025 1.40975 9.73962 1.41782 10.5306 1.45359C11.2615 1.48706 11.659 1.60936 11.9233 1.71206C12.2735 1.84821 12.5233 2.01032 12.7858 2.27282C13.0483 2.53532 13.2104 2.78513 13.3465 3.13532C13.4492 3.39956 13.5715 3.79648 13.605 4.52802C13.6408 5.3184 13.6488 5.55609 13.6488 7.55859C13.6488 9.56109 13.6408 9.79821 13.605 10.5892C13.5715 11.3207 13.4492 11.7176 13.3465 11.9819C13.2264 12.3076 13.0348 12.6024 12.7858 12.8444C12.5438 13.0934 12.2491 13.285 11.9233 13.4051C11.659 13.5078 11.2615 13.6301 10.5306 13.6636C9.74019 13.6994 9.5025 13.7074 7.5 13.7074C5.4975 13.7074 5.25981 13.6994 4.46942 13.6636C3.73788 13.6301 3.34096 13.5078 3.07673 13.4051C2.75094 13.285 2.45621 13.0934 2.21423 12.8444C1.96525 12.6023 1.77363 12.3076 1.65346 11.9819C1.55077 11.7176 1.42846 11.3207 1.395 10.5892C1.35923 9.79879 1.35115 9.56109 1.35115 7.55859C1.35115 5.55609 1.35923 5.31898 1.395 4.52802C1.42846 3.79648 1.55077 3.39956 1.65346 3.13532C1.78962 2.78513 1.95173 2.53532 2.21423 2.27282C2.45623 2.02381 2.75095 1.83219 3.07673 1.71206C3.34096 1.60936 3.73788 1.48706 4.46942 1.45359C5.25981 1.41782 5.4975 1.40975 7.5 1.40975Z" fill="white"/>
<path fill-rule="evenodd" clip-rule="evenodd" d="M7.49989 3.52115C6.42882 3.52115 5.40162 3.94663 4.64426 4.70398C3.88691 5.46134 3.46143 6.48854 3.46143 7.55961C3.46143 8.63067 3.88691 9.65787 4.64426 10.4152C5.40162 11.1726 6.42882 11.5981 7.49989 11.5981C8.57095 11.5981 9.59815 11.1726 10.3555 10.4152C11.1129 9.65787 11.5383 8.63067 11.5383 7.55961C11.5383 6.48854 11.1129 5.46134 10.3555 4.70398C9.59815 3.94663 8.57095 3.52115 7.49989 3.52115ZM7.49989 10.1558C6.81134 10.1558 6.151 9.88224 5.66413 9.39537C5.17726 8.90849 4.90373 8.24815 4.90373 7.55961C4.90373 6.87107 5.17726 6.21072 5.66413 5.72385C6.151 5.23698 6.81134 4.96345 7.49989 4.96345C8.18843 4.96345 8.84877 5.23698 9.33565 5.72385C9.82252 6.21072 10.096 6.87107 10.096 7.55961C10.096 8.24815 9.82252 8.90849 9.33565 9.39537C8.84877 9.88224 8.18843 10.1558 7.49989 10.1558ZM12.5191 3.57884C12.5191 3.70006 12.4952 3.82009 12.4489 3.93208C12.4025 4.04408 12.3345 4.14584 12.2488 4.23155C12.163 4.31727 12.0613 4.38526 11.9493 4.43165C11.8373 4.47804 11.7173 4.50192 11.596 4.50192C11.4748 4.50192 11.3548 4.47804 11.2428 4.43165C11.1308 4.38526 11.029 4.31727 10.9433 4.23155C10.8576 4.14584 10.7896 4.04408 10.7432 3.93208C10.6968 3.82009 10.673 3.70006 10.673 3.57884C10.673 3.33402 10.7702 3.09924 10.9433 2.92613C11.1164 2.75301 11.3512 2.65576 11.596 2.65576C11.8409 2.65576 12.0756 2.75301 12.2488 2.92613C12.4219 3.09924 12.5191 3.33402 12.5191 3.57884Z" fill="white"/>
</svg>
