<svg width="32" height="32" viewBox="0 0 32 32" fill="none" xmlns="http://www.w3.org/2000/svg">
<path d="M7.42468 8.42H12.0507C14.5707 8.42 15.8307 9.818 15.8307 12.614C15.8307 14.09 15.4707 15.14 14.7507 15.764C14.0307 16.376 13.0287 16.682 11.7447 16.682H10.3767V23H7.42468V8.42ZM11.4387 14.594C12.0747 14.594 12.5007 14.444 12.7167 14.144C12.9327 13.844 13.0407 13.316 13.0407 12.56C13.0407 12.068 13.0047 11.684 12.9327 11.408C12.8607 11.12 12.7047 10.898 12.4647 10.742C12.2367 10.586 11.8887 10.508 11.4207 10.508H10.3767V14.594H11.4387ZM19.2467 10.616H16.9967V8.42H24.4487V10.616H22.2347V23H19.2467V10.616Z" fill="white"/>
</svg>
