<svg width="16" height="16" viewBox="0 0 16 16" fill="none" xmlns="http://www.w3.org/2000/svg">
<path fill-rule="evenodd" clip-rule="evenodd" d="M3.63219 15.0584V4.89802H0.20278V15.0584H3.63219ZM1.91761 3.51127C3.11333 3.51127 3.85792 2.73043 3.85792 1.75546C3.83557 0.758836 3.11342 0 1.94031 0C0.766942 0 0 0.758836 0 1.75555C0 2.73043 0.744247 3.51135 1.89527 3.51135H1.91761V3.51127Z" fill="white"/>
<path fill-rule="evenodd" clip-rule="evenodd" d="M5.53076 15.0586H8.96052V9.38462C8.96052 9.08098 8.98287 8.77743 9.07356 8.56079C9.32138 7.95386 9.8858 7.32543 10.8332 7.32543C12.0745 7.32543 12.5707 8.25749 12.5707 9.62309V15.0587H16.0001V9.23288C16.0001 6.11208 14.3082 4.65991 12.0515 4.65991C10.2012 4.65991 9.38903 5.67846 8.93782 6.37196H8.96043V4.89822H5.53076C5.5758 5.85143 5.53076 15.0586 5.53076 15.0586Z" fill="white"/>
</svg>
