<svg width="142" height="42" viewBox="0 0 142 42" fill="none" xmlns="http://www.w3.org/2000/svg">
<path fill-rule="evenodd" clip-rule="evenodd" d="M56.57 14.47C56.56 13.82 56.34 13.21 55.98 12.69C56.35 12.16 56.57 11.53 56.57 10.86C56.57 11.53 56.79 12.16 57.16 12.69C56.8 13.21 56.58 13.82 56.57 14.47ZM52.58 18.04C54.78 18.04 56.57 16.47 56.57 14.53C56.57 15.2 56.78 15.83 57.15 16.37C56.78 16.91 56.56 17.54 56.56 18.21C56.56 20.15 58.34 21.72 60.55 21.72C61.32 21.72 62.03 21.53 62.64 21.2C63.25 21.53 63.96 21.72 64.73 21.72C66.93 21.72 68.72 20.15 68.72 18.21C68.72 17.53 68.51 16.91 68.13 16.37C68.5 15.83 68.72 15.2 68.72 14.53V14.36H68.91H69.1V14.53C69.1 16.47 70.88 18.04 73.09 18.04H73.28V18.2C73.28 20.14 75.06 21.71 77.27 21.71C78.04 21.71 78.75 21.52 79.36 21.19C79.97 21.52 80.68 21.71 81.45 21.71C83.65 21.71 85.44 20.14 85.44 18.2C85.44 20.14 87.22 21.71 89.43 21.71C90.2 21.71 90.91 21.52 91.52 21.19C92.13 21.52 92.84 21.71 93.61 21.71C95.81 21.71 97.6 20.14 97.6 18.2V18.04H97.79C98.56 18.04 99.27 17.85 99.88 17.52C100.49 17.85 101.2 18.04 101.97 18.04H102.16V18.2C102.16 20.14 103.95 21.71 106.15 21.71C106.92 21.71 107.63 21.52 108.24 21.19C108.85 21.52 109.56 21.71 110.33 21.71C112.53 21.71 114.32 20.14 114.32 18.2C114.32 17.52 114.1 16.9 113.73 16.36C114.43 17.37 115.69 18.04 117.13 18.04H117.32L117.31 18.2C117.31 20.14 119.09 21.71 121.3 21.71C122.07 21.71 122.78 21.52 123.39 21.19C124 21.52 124.71 21.71 125.48 21.71C126.25 21.71 126.96 21.52 127.57 21.19C128.18 21.52 128.89 21.71 129.66 21.71C130.43 21.71 131.14 21.52 131.75 21.19C132.36 21.52 133.07 21.71 133.84 21.71C134.61 21.71 135.32 21.52 135.93 21.19C136.54 21.52 137.25 21.71 138.02 21.71C140.22 21.71 142.01 20.14 142.01 18.2C142.01 16.26 140.23 14.69 138.02 14.69C137.25 14.69 136.54 14.88 135.93 15.21C135.32 14.88 134.61 14.69 133.84 14.69C133.07 14.69 132.36 14.88 131.75 15.21C131.14 14.88 130.43 14.69 129.66 14.69C128.89 14.69 128.18 14.88 127.57 15.21C126.96 14.88 126.25 14.69 125.48 14.69H125.29V14.53V14.36H125.48C126.25 14.36 126.96 14.17 127.57 13.84C128.18 14.17 128.89 14.36 129.66 14.36C130.43 14.36 131.14 14.17 131.75 13.84C132.36 14.17 133.07 14.36 133.84 14.36C136.04 14.36 137.83 12.79 137.83 10.85C137.83 8.90999 136.05 7.33999 133.84 7.33999C133.07 7.33999 132.36 7.52999 131.75 7.85999C131.14 7.52999 130.43 7.33999 129.66 7.33999C128.89 7.33999 128.18 7.52999 127.57 7.85999C126.96 7.52999 126.25 7.33999 125.48 7.33999H125.29V7.17999V7.01999H125.48C126.25 7.01999 126.96 6.82999 127.57 6.49999C128.18 6.82999 128.89 7.01999 129.66 7.01999C130.43 7.01999 131.14 6.82999 131.75 6.49999C132.36 6.82999 133.07 7.01999 133.84 7.01999C134.61 7.01999 135.32 6.82999 135.93 6.49999C136.54 6.82999 137.25 7.01999 138.02 7.01999C140.22 7.01999 142.01 5.44999 142.01 3.50999C142.01 1.56999 140.23 -9.76585e-06 138.02 -9.76585e-06C137.25 -9.76585e-06 136.54 0.18999 135.93 0.51999C135.32 0.18999 134.61 -9.76585e-06 133.84 -9.76585e-06C133.07 -9.76585e-06 132.36 0.18999 131.75 0.51999C131.14 0.18999 130.43 -9.76585e-06 129.66 -9.76585e-06C128.89 -9.76585e-06 128.18 0.18999 127.57 0.51999C126.96 0.18999 126.25 -9.76585e-06 125.48 -9.76585e-06C124.71 -9.76585e-06 124 0.18999 123.39 0.51999C122.78 0.18999 122.07 -9.76585e-06 121.3 -9.76585e-06C119.1 -9.76585e-06 117.31 1.56999 117.31 3.50999L117.32 3.66999H117.13C114.93 3.66999 113.14 5.23999 113.14 7.17999C113.14 7.85999 113.36 8.47999 113.73 9.01999C113.36 9.55999 113.14 10.19 113.14 10.86C113.14 11.49 113.33 12.08 113.66 12.59C112.95 11.64 111.72 11.02 110.33 11.02H110.14V10.86C110.14 10.18 109.93 9.54999 109.55 9.01999C109.92 8.47999 110.14 7.84999 110.14 7.17999C110.14 5.23999 108.35 3.66999 106.14 3.66999H105.95V3.50999C105.95 1.56999 104.17 -9.76585e-06 101.96 -9.76585e-06C101.2 -9.76585e-06 100.48 0.18999 99.87 0.51999C99.26 0.18999 98.55 -9.76585e-06 97.78 -9.76585e-06C95.58 -9.76585e-06 93.79 1.56999 93.79 3.50999V3.66999H93.6C91.4 3.66999 89.61 5.23999 89.61 7.17999C89.61 7.85999 89.82 8.47999 90.2 9.01999C89.83 9.55999 89.61 10.19 89.61 10.86V11.02H89.42C87.22 11.02 85.44 12.59 85.43 14.52C85.43 13.86 85.21 13.23 84.84 12.7C85.21 12.17 85.43 11.54 85.43 10.87C85.43 10.19 85.21 9.55999 84.84 9.02999C85.21 8.48999 85.43 7.85999 85.43 7.18999C85.43 6.50999 85.21 5.87999 84.84 5.34999C85.21 4.80999 85.43 4.17999 85.43 3.50999C85.43 1.56999 83.65 -9.76585e-06 81.44 -9.76585e-06C80.68 -9.76585e-06 79.96 0.18999 79.37 0.50999C78.76 0.17999 78.05 -0.0100098 77.28 -0.0100098C75.08 -0.0100098 73.29 1.55999 73.29 3.49999C73.29 4.17999 73.51 4.79999 73.88 5.33999C73.51 5.87999 73.29 6.50999 73.29 7.17999V7.33999H73.1H72.91V7.17999C72.91 5.23999 71.12 3.66999 68.92 3.66999H68.73V3.50999C68.73 1.56999 66.95 -9.76585e-06 64.74 -9.76585e-06C63.97 -9.76585e-06 63.26 0.18999 62.63 0.51999C62.02 0.18999 61.31 -9.76585e-06 60.54 -9.76585e-06C58.34 -9.76585e-06 56.55 1.56999 56.55 3.50999C56.55 4.18999 56.77 4.80999 57.14 5.34999C56.78 5.86999 56.56 6.47999 56.55 7.12999C56.52 5.20999 54.75 3.66999 52.56 3.66999H52.37L52.38 3.50999C52.38 1.56999 50.6 -9.76585e-06 48.39 -9.76585e-06C47.63 -9.76585e-06 46.91 0.18999 46.31 0.51999C45.7 0.18999 44.99 -9.76585e-06 44.22 -9.76585e-06C43.45 -9.76585e-06 42.74 0.18999 42.13 0.51999C41.52 0.18999 40.81 -9.76585e-06 40.04 -9.76585e-06C39.28 -9.76585e-06 38.56 0.18999 37.96 0.51999C37.35 0.18999 36.64 -9.76585e-06 35.87 -9.76585e-06C33.66 -9.76585e-06 31.87 1.56999 31.87 3.50999V3.66999H31.68C30.26 3.66999 29.02 4.31999 28.31 5.29999C28.66 4.77999 28.87 4.16999 28.87 3.50999C28.87 1.56999 27.09 -9.76585e-06 24.88 -9.76585e-06C24.11 -9.76585e-06 23.4 0.18999 22.79 0.51999C22.18 0.18999 21.46 -9.76585e-06 20.7 -9.76585e-06C19.94 -9.76585e-06 19.22 0.18999 18.61 0.51999C18 0.18999 17.29 -9.76585e-06 16.52 -9.76585e-06C15.76 -9.76585e-06 15.04 0.18999 14.44 0.51999C13.83 0.18999 13.12 -9.76585e-06 12.35 -9.76585e-06C11.58 -9.76585e-06 10.87 0.18999 10.26 0.51999C9.65 0.18999 8.94 -9.76585e-06 8.17 -9.76585e-06C5.97 -9.76585e-06 4.18 1.56999 4.18 3.50999V3.66999H3.99C1.79 3.66999 0 5.23999 0 7.17999C0 9.11999 1.79 10.7 4 10.69H4.19L4.18 10.85C4.18 12.79 5.96 14.36 8.17 14.36C8.94 14.36 9.65 14.17 10.26 13.84C10.87 14.17 11.58 14.36 12.35 14.36C13.12 14.36 13.83 14.17 14.44 13.84C15.05 14.17 15.76 14.36 16.53 14.36H16.72V14.53V14.69H16.53C15.76 14.69 15.05 14.88 14.44 15.21C13.83 14.88 13.12 14.69 12.35 14.69C11.58 14.69 10.87 14.87 10.26 15.2C9.65 14.88 8.94 14.69 8.17 14.69C7.4 14.69 6.69 14.88 6.08 15.21C5.47 14.88 4.76 14.69 3.99 14.69C1.79 14.69 0 16.26 0 18.2C0 20.14 1.79 21.71 3.97 21.71C4.74 21.71 5.45 21.52 6.06 21.19C6.67 21.52 7.38 21.71 8.15 21.71C8.92 21.71 9.63 21.52 10.24 21.19C10.85 21.52 11.56 21.71 12.33 21.71C13.1 21.71 13.81 21.52 14.42 21.19C15.03 21.52 15.74 21.71 16.51 21.71C17.28 21.71 17.99 21.52 18.6 21.19C19.21 21.52 19.92 21.71 20.69 21.71C22.89 21.71 24.68 20.14 24.68 18.2V18.04H24.87C26.31 18.04 27.58 17.37 28.28 16.36C28.98 17.37 30.24 18.04 31.68 18.04H31.87V18.2C31.87 20.14 33.66 21.71 35.87 21.71C36.64 21.71 37.35 21.52 37.96 21.19C38.57 21.52 39.28 21.71 40.05 21.71C40.82 21.71 41.53 21.52 42.14 21.19C42.75 21.52 43.46 21.71 44.23 21.71C45 21.71 45.71 21.52 46.32 21.19C46.93 21.52 47.65 21.71 48.41 21.71C50.61 21.71 52.4 20.14 52.4 18.2L52.39 18.04H52.58ZM44.41 7.01999L44.4 7.17999C44.4 7.85999 44.62 8.48999 44.99 9.01999C44.62 9.55999 44.4 10.19 44.4 10.86C44.4 11.53 44.62 12.16 44.99 12.69C44.62 13.23 44.4 13.86 44.4 14.53L44.41 14.69H44.22C43.45 14.69 42.74 14.88 42.13 15.21C41.52 14.88 40.81 14.69 40.04 14.69H39.85V14.53C39.85 13.85 39.63 13.23 39.26 12.69C39.63 12.16 39.85 11.53 39.85 10.86C39.85 10.18 39.63 9.54999 39.26 9.01999C39.63 8.47999 39.85 7.84999 39.85 7.17999V7.01999H40.04C40.81 7.01999 41.52 6.82999 42.13 6.49999C42.74 6.82999 43.45 7.01999 44.22 7.01999H44.41ZM28.26 5.38999C27.9 5.90999 27.7 6.51999 27.7 7.17999C27.7 7.85999 27.91 8.48999 28.29 9.00999C27.91 9.54999 27.7 10.18 27.7 10.85C27.7 11.5146 27.9067 12.1399 28.2809 12.6673C27.5693 11.6743 26.3139 11.01 24.88 11.01H24.69V10.85C24.69 8.90999 22.91 7.33999 20.7 7.33999C19.93 7.33999 19.22 7.52999 18.61 7.85999C18 7.52999 17.29 7.33999 16.52 7.33999C15.75 7.33999 15.04 7.52999 14.43 7.85999C13.82 7.52999 13.11 7.33999 12.34 7.33999H12.15V7.17999V7.01999H12.34C13.11 7.01999 13.82 6.82999 14.43 6.49999C15.04 6.82999 15.75 7.01999 16.52 7.01999C17.29 7.01999 18 6.82999 18.61 6.49999C19.22 6.82999 19.93 7.01999 20.7 7.01999C21.47 7.01999 22.18 6.82999 22.79 6.49999C23.4 6.82999 24.11 7.01999 24.88 7.01999C26.31 7.01999 27.55 6.36999 28.26 5.38999ZM84.85 16.37C85.22 15.83 85.44 15.2 85.44 14.53C85.44 15.2 85.65 15.83 86.03 16.37C85.66 16.9 85.44 17.52 85.44 18.19C85.44 17.52 85.22 16.9 84.85 16.37ZM57.16 9.01999C56.8 9.53999 56.58 10.15 56.57 10.8C56.55 10.15 56.34 9.53999 55.98 9.01999C56.35 8.47999 56.57 7.84999 56.57 7.17999C56.57 7.85999 56.79 8.47999 57.16 9.01999ZM102.15 7.01999V7.17999C102.15 7.85999 102.36 8.48999 102.74 9.01999C102.37 9.55999 102.15 10.19 102.15 10.86V11.02H101.96C101.19 11.02 100.48 11.21 99.87 11.54C99.26 11.21 98.55 11.02 97.78 11.02H97.59V10.86C97.59 10.18 97.37 9.54999 97 9.01999C97.37 8.47999 97.59 7.84999 97.59 7.17999V7.01999H97.78C98.55 7.01999 99.26 6.82999 99.87 6.49999C100.48 6.82999 101.19 7.01999 101.96 7.01999H102.15ZM18.79 10.85C18.79 9.91999 19.64 9.16999 20.7 9.16999C21.76 9.16999 22.62 9.92999 22.61 10.85C22.61 11.78 21.75 12.53 20.7 12.53C19.65 12.53 18.79 11.78 18.79 10.85ZM14.61 10.85C14.61 9.91999 15.46 9.16999 16.52 9.16999C17.58 9.16999 18.44 9.92999 18.43 10.85C18.43 11.78 17.58 12.53 16.52 12.53C15.47 12.53 14.61 11.78 14.61 10.85ZM10.44 10.85C10.44 9.91999 11.29 9.16999 12.35 9.16999C13.4 9.16999 14.26 9.92999 14.26 10.85C14.26 11.78 13.41 12.53 12.35 12.53C11.3 12.53 10.44 11.78 10.44 10.85ZM2.08 18.2C2.08 17.27 2.93 16.52 3.99 16.52C5.05 16.52 5.91 17.27 5.9 18.2C5.9 19.13 5.05 19.88 3.99 19.88C2.94 19.88 2.08 19.13 2.08 18.2ZM6.26 18.2C6.26 17.27 7.11 16.52 8.17 16.52C9.23 16.52 10.08 17.27 10.08 18.2C10.08 19.13 9.23 19.88 8.17 19.88C7.12 19.88 6.26 19.13 6.26 18.2ZM10.44 18.2C10.44 17.27 11.29 16.52 12.35 16.52C13.4 16.52 14.26 17.27 14.26 18.2C14.26 19.13 13.41 19.88 12.35 19.88C11.3 19.88 10.44 19.13 10.44 18.2ZM14.61 18.2C14.61 17.27 15.46 16.52 16.52 16.52C17.58 16.52 18.44 17.27 18.43 18.2C18.43 19.13 17.58 19.88 16.52 19.88C15.47 19.88 14.61 19.13 14.61 18.2ZM18.79 18.2C18.79 17.27 19.64 16.52 20.7 16.52C21.76 16.52 22.62 17.27 22.61 18.2C22.61 19.13 21.75 19.88 20.7 19.88C19.65 19.88 18.79 19.13 18.79 18.2ZM22.97 14.53C22.97 13.6 23.82 12.85 24.88 12.85C25.93 12.85 26.79 13.6 26.79 14.53C26.79 15.46 25.94 16.21 24.88 16.21C23.83 16.21 22.97 15.46 22.97 14.53ZM18.79 14.53C18.79 13.6 19.64 12.85 20.7 12.85C21.76 12.85 22.62 13.6 22.61 14.53C22.61 15.46 21.75 16.21 20.7 16.21C19.65 16.21 18.79 15.46 18.79 14.53ZM6.26 10.85C6.26 9.91999 7.11 9.16999 8.17 9.16999C9.23 9.16999 10.08 9.92999 10.08 10.85C10.08 11.78 9.23 12.53 8.17 12.53C7.12 12.53 6.26 11.78 6.26 10.85ZM2.08 7.17999C2.08 6.24999 2.93 5.49999 3.99 5.49999C5.05 5.49999 5.91 6.25999 5.9 7.17999C5.9 8.10999 5.05 8.85999 3.99 8.85999C2.94 8.85999 2.08 8.10999 2.08 7.17999ZM6.26 7.17999C6.26 6.24999 7.11 5.49999 8.17 5.49999C9.23 5.49999 10.08 6.25999 10.08 7.17999C10.08 8.10999 9.23 8.85999 8.17 8.85999C7.12 8.85999 6.26 8.10999 6.26 7.17999ZM22.97 3.50999C22.97 2.57999 23.82 1.82999 24.88 1.82999C25.93 1.82999 26.79 2.57999 26.79 3.50999C26.79 4.43999 25.94 5.18999 24.88 5.18999C23.83 5.18999 22.97 4.43999 22.97 3.50999ZM18.79 3.50999C18.79 2.57999 19.64 1.82999 20.7 1.82999C21.76 1.82999 22.62 2.57999 22.61 3.50999C22.61 4.43999 21.75 5.18999 20.7 5.18999C19.65 5.18999 18.79 4.43999 18.79 3.50999ZM14.61 3.50999C14.61 2.57999 15.46 1.82999 16.52 1.82999C17.58 1.82999 18.44 2.57999 18.43 3.50999C18.43 4.43999 17.58 5.18999 16.52 5.18999C15.47 5.18999 14.61 4.43999 14.61 3.50999ZM10.44 3.50999C10.44 2.57999 11.29 1.82999 12.35 1.82999C13.4 1.82999 14.26 2.57999 14.26 3.50999C14.26 4.43999 13.41 5.18999 12.35 5.18999C11.3 5.18999 10.44 4.43999 10.44 3.50999ZM6.26 3.50999C6.26 2.57999 7.11 1.82999 8.17 1.82999C9.23 1.82999 10.08 2.57999 10.08 3.50999C10.08 4.43999 9.23 5.18999 8.17 5.18999C7.12 5.18999 6.26 4.43999 6.26 3.50999ZM46.48 3.50999C46.48 2.57999 47.33 1.82999 48.39 1.82999C49.45 1.82999 50.31 2.57999 50.3 3.50999C50.3 4.43999 49.45 5.18999 48.39 5.18999C47.34 5.18999 46.48 4.43999 46.48 3.50999ZM42.31 3.50999C42.31 2.57999 43.16 1.82999 44.22 1.82999C45.28 1.82999 46.13 2.57999 46.13 3.50999C46.13 4.43999 45.28 5.18999 44.22 5.18999C43.17 5.18999 42.31 4.43999 42.31 3.50999ZM38.13 3.50999C38.13 2.57999 38.98 1.82999 40.04 1.82999C41.1 1.82999 41.95 2.57999 41.95 3.50999C41.95 4.43999 41.09 5.18999 40.04 5.18999C38.99 5.18999 38.13 4.43999 38.13 3.50999ZM33.96 3.50999C33.96 2.57999 34.81 1.82999 35.87 1.82999C36.92 1.82999 37.78 2.57999 37.78 3.50999C37.78 4.43999 36.93 5.18999 35.87 5.18999C34.82 5.18999 33.96 4.43999 33.96 3.50999ZM29.78 14.53C29.78 13.6 30.63 12.85 31.69 12.85C32.75 12.85 33.6 13.6 33.6 14.53C33.6 15.46 32.75 16.21 31.69 16.21C30.64 16.21 29.78 15.46 29.78 14.53ZM29.78 10.85C29.78 9.91999 30.63 9.16999 31.69 9.16999C32.75 9.16999 33.6 9.92999 33.6 10.85C33.6 11.78 32.75 12.53 31.69 12.53C30.64 12.53 29.78 11.78 29.78 10.85ZM29.78 7.17999C29.78 6.24999 30.63 5.49999 31.69 5.49999C32.75 5.49999 33.6 6.25999 33.6 7.17999C33.6 8.10999 32.75 8.85999 31.69 8.85999C30.64 8.85999 29.78 8.10999 29.78 7.17999ZM46.48 18.2C46.48 17.27 47.33 16.52 48.39 16.52C49.45 16.52 50.31 17.27 50.3 18.2C50.3 19.13 49.45 19.88 48.39 19.88C47.34 19.88 46.48 19.13 46.48 18.2ZM42.31 18.2C42.31 17.27 43.16 16.52 44.22 16.52C45.28 16.52 46.13 17.27 46.13 18.2C46.13 19.13 45.28 19.88 44.22 19.88C43.17 19.88 42.31 19.13 42.31 18.2ZM38.13 18.2C38.13 17.27 38.98 16.52 40.04 16.52C41.1 16.52 41.95 17.27 41.95 18.2C41.95 19.13 41.09 19.88 40.04 19.88C38.99 19.88 38.13 19.13 38.13 18.2ZM33.96 18.2C33.96 17.27 34.81 16.52 35.87 16.52C36.92 16.52 37.78 17.27 37.78 18.2C37.78 19.13 36.93 19.88 35.87 19.88C34.82 19.88 33.96 19.13 33.96 18.2ZM50.66 14.53C50.66 13.6 51.52 12.85 52.57 12.85C53.63 12.85 54.49 13.6 54.48 14.53C54.48 15.46 53.63 16.21 52.57 16.21C51.52 16.21 50.66 15.46 50.66 14.53ZM50.66 10.85C50.66 9.91999 51.52 9.16999 52.57 9.16999C53.63 9.16999 54.49 9.92999 54.48 10.85C54.48 11.78 53.63 12.53 52.57 12.53C51.52 12.53 50.66 11.78 50.66 10.85ZM50.66 7.17999C50.66 6.24999 51.52 5.49999 52.57 5.49999C53.63 5.49999 54.49 6.25999 54.48 7.17999C54.48 8.10999 53.63 8.85999 52.57 8.85999C51.52 8.85999 50.66 8.10999 50.66 7.17999ZM46.48 14.53C46.48 13.6 47.33 12.85 48.39 12.85C49.45 12.85 50.31 13.6 50.3 14.53C50.3 15.46 49.45 16.21 48.39 16.21C47.34 16.21 46.48 15.46 46.48 14.53ZM46.48 10.85C46.48 9.91999 47.33 9.16999 48.39 9.16999C49.45 9.16999 50.31 9.92999 50.3 10.85C50.3 11.78 49.45 12.53 48.39 12.53C47.34 12.53 46.48 11.78 46.48 10.85ZM46.48 7.17999C46.48 6.24999 47.33 5.49999 48.39 5.49999C49.45 5.49999 50.31 6.25999 50.3 7.17999C50.3 8.10999 49.45 8.85999 48.39 8.85999C47.34 8.85999 46.48 8.10999 46.48 7.17999ZM33.96 14.53C33.96 13.6 34.81 12.85 35.87 12.85C36.92 12.85 37.78 13.6 37.78 14.53C37.78 15.46 36.93 16.21 35.87 16.21C34.82 16.21 33.96 15.46 33.96 14.53ZM33.96 10.85C33.96 9.91999 34.81 9.16999 35.87 9.16999C36.92 9.16999 37.78 9.92999 37.78 10.85C37.78 11.78 36.93 12.53 35.87 12.53C34.82 12.53 33.96 11.78 33.96 10.85ZM33.96 7.17999C33.96 6.24999 34.81 5.49999 35.87 5.49999C36.92 5.49999 37.78 6.25999 37.78 7.17999C37.78 8.10999 36.93 8.85999 35.87 8.85999C34.82 8.85999 33.96 8.10999 33.96 7.17999ZM79.53 18.2C79.53 17.27 80.38 16.52 81.44 16.52C82.5 16.52 83.36 17.27 83.35 18.2C83.35 19.13 82.5 19.88 81.44 19.88C80.39 19.88 79.53 19.13 79.53 18.2ZM79.53 14.53C79.53 13.6 80.38 12.85 81.44 12.85C82.5 12.85 83.36 13.6 83.35 14.53C83.35 15.46 82.5 16.21 81.44 16.21C80.39 16.21 79.53 15.46 79.53 14.53ZM79.53 10.85C79.53 9.91999 80.38 9.16999 81.44 9.16999C82.5 9.16999 83.36 9.92999 83.35 10.85C83.35 11.78 82.5 12.53 81.44 12.53C80.39 12.53 79.53 11.78 79.53 10.85ZM79.53 7.17999C79.53 6.24999 80.38 5.49999 81.44 5.49999C82.5 5.49999 83.36 6.25999 83.35 7.17999C83.35 8.10999 82.5 8.85999 81.44 8.85999C80.39 8.85999 79.53 8.10999 79.53 7.17999ZM71.18 14.53C71.18 13.6 72.03 12.85 73.09 12.85C74.15 12.85 75 13.6 75 14.53C75 15.46 74.14 16.21 73.09 16.21C72.04 16.21 71.18 15.46 71.18 14.53ZM71.18 10.85C71.18 9.91999 72.03 9.16999 73.09 9.16999C74.15 9.16999 75 9.92999 75 10.86C75 11.78 74.14 12.53 73.09 12.53C72.04 12.53 71.18 11.78 71.18 10.85ZM75.36 18.2C75.36 17.27 76.21 16.52 77.27 16.52C78.32 16.52 79.18 17.27 79.18 18.2C79.18 19.13 78.33 19.88 77.27 19.88C76.22 19.88 75.36 19.13 75.36 18.2ZM75.36 14.53C75.36 13.6 76.21 12.85 77.27 12.85C78.32 12.85 79.18 13.6 79.18 14.53C79.18 15.46 78.33 16.21 77.27 16.21C76.22 16.21 75.36 15.46 75.36 14.53ZM75.36 10.85C75.36 9.91999 76.21 9.16999 77.27 9.16999C78.32 9.16999 79.18 9.92999 79.18 10.85C79.18 11.78 78.33 12.53 77.27 12.53C76.22 12.53 75.36 11.78 75.36 10.85ZM75.36 7.17999C75.36 6.24999 76.21 5.49999 77.27 5.49999C78.32 5.49999 79.18 6.25999 79.18 7.17999C79.18 8.10999 78.33 8.85999 77.27 8.85999C76.22 8.85999 75.36 8.10999 75.36 7.17999ZM67 10.85C67 9.91999 67.85 9.16999 68.91 9.16999C69.97 9.16999 70.83 9.92999 70.82 10.85C70.82 11.78 69.97 12.53 68.91 12.53C67.86 12.53 67 11.78 67 10.85ZM67 7.17999C67 6.25999 67.86 5.49999 68.91 5.49999C69.97 5.49999 70.83 6.25999 70.82 7.17999C70.82 8.10999 69.97 8.85999 68.91 8.85999C67.86 8.85999 67 8.10999 67 7.17999ZM62.83 18.2C62.83 17.27 63.68 16.52 64.74 16.52C65.79 16.52 66.65 17.27 66.65 18.2C66.65 19.13 65.8 19.88 64.74 19.88C63.69 19.88 62.83 19.13 62.83 18.2ZM62.83 14.53C62.83 13.6 63.68 12.85 64.74 12.85C65.79 12.85 66.65 13.6 66.65 14.53C66.65 15.46 65.8 16.21 64.74 16.21C63.69 16.21 62.83 15.46 62.83 14.53ZM62.83 10.85C62.83 9.91999 63.68 9.16999 64.74 9.16999C65.79 9.16999 66.65 9.92999 66.65 10.85C66.65 11.78 65.8 12.53 64.74 12.53C63.69 12.53 62.83 11.78 62.83 10.85ZM62.83 7.17999C62.83 6.24999 63.68 5.49999 64.74 5.49999C65.79 5.49999 66.65 6.25999 66.65 7.17999C66.65 8.10999 65.8 8.85999 64.74 8.85999C63.69 8.85999 62.83 8.10999 62.83 7.17999ZM58.65 18.2C58.65 17.27 59.51 16.52 60.56 16.52C61.62 16.52 62.47 17.27 62.47 18.2C62.47 19.13 61.62 19.88 60.56 19.88C59.51 19.88 58.65 19.13 58.65 18.2ZM58.65 14.53C58.65 13.6 59.51 12.85 60.56 12.85C61.62 12.85 62.47 13.6 62.47 14.53C62.47 15.46 61.62 16.21 60.56 16.21C59.51 16.21 58.65 15.46 58.65 14.53ZM58.65 10.85C58.65 9.91999 59.51 9.16999 60.56 9.16999C61.62 9.16999 62.47 9.92999 62.47 10.85C62.47 11.78 61.62 12.53 60.56 12.53C59.51 12.53 58.65 11.78 58.65 10.85ZM58.65 7.17999C58.65 6.24999 59.51 5.49999 60.56 5.49999C61.62 5.49999 62.47 6.25999 62.47 7.17999C62.47 8.10999 61.62 8.85999 60.56 8.85999C59.51 8.85999 58.65 8.10999 58.65 7.17999ZM79.53 3.50999C79.53 2.57999 80.38 1.82999 81.44 1.82999C82.5 1.82999 83.36 2.57999 83.35 3.50999C83.35 4.43999 82.5 5.18999 81.44 5.18999C80.39 5.18999 79.53 4.43999 79.53 3.50999ZM75.36 3.50999C75.36 2.57999 76.21 1.82999 77.27 1.82999C78.32 1.82999 79.18 2.57999 79.18 3.50999C79.18 4.43999 78.33 5.18999 77.27 5.18999C76.22 5.18999 75.36 4.43999 75.36 3.50999ZM62.83 3.50999C62.83 2.57999 63.68 1.82999 64.74 1.82999C65.79 1.82999 66.65 2.57999 66.65 3.50999C66.65 4.43999 65.8 5.18999 64.74 5.18999C63.69 5.18999 62.83 4.43999 62.83 3.50999ZM58.65 3.50999C58.65 2.57999 59.51 1.82999 60.56 1.82999C61.62 1.82999 62.47 2.57999 62.47 3.50999C62.47 4.43999 61.62 5.18999 60.56 5.18999C59.51 5.18999 58.65 4.43999 58.65 3.50999ZM119.39 14.53C119.39 13.6 120.24 12.85 121.3 12.85C122.36 12.85 123.21 13.6 123.21 14.53C123.21 15.46 122.36 16.21 121.3 16.21C120.25 16.21 119.39 15.46 119.39 14.53ZM119.39 7.17999C119.39 6.24999 120.24 5.49999 121.3 5.49999C122.36 5.49999 123.21 6.25999 123.21 7.17999C123.21 8.10999 122.36 8.85999 121.3 8.85999C120.25 8.85999 119.39 8.10999 119.39 7.17999ZM115.21 14.53C115.21 13.6 116.06 12.85 117.12 12.85C118.18 12.85 119.03 13.6 119.03 14.53C119.03 15.46 118.18 16.21 117.12 16.21C116.06 16.21 115.21 15.46 115.21 14.53ZM115.21 10.85C115.21 9.91999 116.06 9.16999 117.12 9.16999C118.18 9.16999 119.03 9.92999 119.03 10.85C119.03 11.78 118.18 12.53 117.12 12.53C116.06 12.53 115.21 11.78 115.21 10.85ZM115.21 7.17999C115.21 6.24999 116.06 5.49999 117.12 5.49999C118.18 5.49999 119.03 6.25999 119.03 7.17999C119.03 8.10999 118.18 8.85999 117.12 8.85999C116.06 8.85999 115.21 8.10999 115.21 7.17999ZM131.92 10.85C131.92 9.91999 132.77 9.16999 133.83 9.16999C134.89 9.16999 135.74 9.92999 135.74 10.85C135.74 11.78 134.89 12.53 133.83 12.53C132.78 12.53 131.92 11.78 131.92 10.85ZM127.74 10.85C127.74 9.91999 128.59 9.16999 129.65 9.16999C130.71 9.16999 131.56 9.92999 131.56 10.85C131.56 11.78 130.71 12.53 129.65 12.53C128.6 12.53 127.74 11.78 127.74 10.85ZM123.57 10.85C123.57 9.91999 124.42 9.16999 125.48 9.16999C126.53 9.16999 127.39 9.92999 127.39 10.85C127.39 11.78 126.54 12.53 125.48 12.53C124.43 12.53 123.57 11.78 123.57 10.85ZM119.39 10.85C119.39 9.91999 120.24 9.16999 121.3 9.16999C122.36 9.16999 123.21 9.92999 123.21 10.85C123.21 11.78 122.36 12.53 121.3 12.53C120.25 12.53 119.39 11.78 119.39 10.85ZM136.1 18.2C136.1 17.27 136.95 16.52 138.01 16.52C139.06 16.52 139.92 17.27 139.92 18.2C139.92 19.13 139.06 19.88 138.01 19.88C136.96 19.88 136.1 19.13 136.1 18.2ZM131.92 18.2C131.92 17.27 132.77 16.52 133.83 16.52C134.89 16.52 135.74 17.27 135.74 18.2C135.74 19.13 134.89 19.88 133.83 19.88C132.78 19.88 131.92 19.13 131.92 18.2ZM127.74 18.2C127.74 17.27 128.59 16.52 129.65 16.52C130.71 16.52 131.56 17.27 131.56 18.2C131.56 19.13 130.71 19.88 129.65 19.88C128.6 19.88 127.74 19.13 127.74 18.2ZM123.57 18.2C123.57 17.27 124.42 16.52 125.48 16.52C126.53 16.52 127.39 17.27 127.39 18.2C127.39 19.13 126.54 19.88 125.48 19.88C124.43 19.88 123.57 19.13 123.57 18.2ZM119.39 18.2C119.39 17.27 120.24 16.52 121.3 16.52C122.36 16.52 123.21 17.27 123.21 18.2C123.21 19.13 122.36 19.88 121.3 19.88C120.25 19.88 119.39 19.13 119.39 18.2ZM100.05 14.53C100.05 13.6 100.9 12.85 101.96 12.85C103.02 12.85 103.88 13.6 103.87 14.53C103.87 15.46 103.02 16.21 101.96 16.21C100.91 16.21 100.05 15.46 100.05 14.53ZM95.88 14.53C95.88 13.6 96.73 12.85 97.79 12.85C98.84 12.85 99.7 13.6 99.7 14.53C99.7 15.46 98.85 16.21 97.79 16.21C96.74 16.21 95.88 15.46 95.88 14.53ZM104.23 18.2C104.23 17.27 105.08 16.52 106.14 16.52C107.2 16.52 108.05 17.27 108.05 18.2C108.05 19.13 107.2 19.88 106.14 19.88C105.09 19.88 104.23 19.13 104.23 18.2ZM104.23 14.53C104.23 13.6 105.08 12.85 106.14 12.85C107.2 12.85 108.05 13.6 108.05 14.53C108.05 15.46 107.2 16.21 106.14 16.21C105.09 16.21 104.23 15.46 104.23 14.53ZM104.23 10.85C104.23 9.91999 105.08 9.16999 106.14 9.16999C107.2 9.16999 108.05 9.92999 108.05 10.85C108.05 11.78 107.2 12.53 106.14 12.53C105.09 12.53 104.23 11.78 104.23 10.85ZM104.23 7.17999C104.23 6.24999 105.08 5.49999 106.14 5.49999C107.2 5.49999 108.05 6.25999 108.05 7.17999C108.05 8.10999 107.2 8.85999 106.14 8.85999C105.09 8.85999 104.23 8.10999 104.23 7.17999ZM108.41 18.2C108.41 17.27 109.26 16.52 110.32 16.52C111.37 16.52 112.23 17.27 112.23 18.2C112.23 19.13 111.38 19.88 110.32 19.88C109.26 19.88 108.41 19.13 108.41 18.2ZM108.41 14.53C108.41 13.6 109.26 12.85 110.32 12.85C111.37 12.85 112.23 13.6 112.23 14.53C112.23 15.46 111.38 16.21 110.32 16.21C109.26 16.21 108.41 15.46 108.41 14.53ZM87.52 18.2C87.52 17.27 88.37 16.52 89.43 16.52C90.49 16.52 91.34 17.27 91.34 18.2C91.34 19.13 90.49 19.88 89.43 19.88C88.38 19.88 87.52 19.13 87.52 18.2ZM87.52 14.53C87.52 13.6 88.37 12.85 89.43 12.85C90.49 12.85 91.34 13.6 91.34 14.53C91.34 15.46 90.49 16.21 89.43 16.21C88.38 16.21 87.52 15.46 87.52 14.53ZM91.7 18.2C91.7 17.27 92.55 16.52 93.61 16.52C94.67 16.52 95.52 17.27 95.52 18.2C95.52 19.13 94.66 19.88 93.61 19.88C92.56 19.88 91.7 19.13 91.7 18.2ZM91.7 14.53C91.7 13.6 92.55 12.85 93.61 12.85C94.67 12.85 95.52 13.6 95.52 14.53C95.52 15.46 94.66 16.21 93.61 16.21C92.56 16.21 91.7 15.46 91.7 14.53ZM91.7 10.85C91.7 9.91999 92.55 9.16999 93.61 9.16999C94.67 9.16999 95.52 9.92999 95.52 10.85C95.52 11.78 94.66 12.53 93.61 12.53C92.56 12.53 91.7 11.78 91.7 10.85ZM91.7 7.17999C91.7 6.24999 92.55 5.49999 93.61 5.49999C94.67 5.49999 95.52 6.25999 95.52 7.17999C95.52 8.10999 94.66 8.85999 93.61 8.85999C92.56 8.85999 91.7 8.10999 91.7 7.17999ZM136.1 3.50999C136.1 2.57999 136.95 1.82999 138.01 1.82999C139.06 1.82999 139.92 2.57999 139.92 3.50999C139.92 4.43999 139.06 5.18999 138.01 5.18999C136.96 5.18999 136.1 4.43999 136.1 3.50999ZM131.92 3.50999C131.92 2.57999 132.77 1.82999 133.83 1.82999C134.89 1.82999 135.74 2.57999 135.74 3.50999C135.74 4.43999 134.89 5.18999 133.83 5.18999C132.78 5.18999 131.92 4.43999 131.92 3.50999ZM127.74 3.50999C127.74 2.57999 128.59 1.82999 129.65 1.82999C130.71 1.82999 131.56 2.57999 131.56 3.50999C131.56 4.43999 130.71 5.18999 129.65 5.18999C128.6 5.18999 127.74 4.43999 127.74 3.50999ZM123.57 3.50999C123.57 2.57999 124.42 1.82999 125.48 1.82999C126.53 1.82999 127.39 2.57999 127.39 3.50999C127.39 4.43999 126.54 5.18999 125.48 5.18999C124.43 5.18999 123.57 4.43999 123.57 3.50999ZM119.39 3.50999C119.39 2.57999 120.24 1.82999 121.3 1.82999C122.36 1.82999 123.21 2.57999 123.21 3.50999C123.21 4.43999 122.36 5.18999 121.3 5.18999C120.25 5.18999 119.39 4.43999 119.39 3.50999ZM100.05 3.50999C100.05 2.57999 100.9 1.82999 101.96 1.82999C103.02 1.82999 103.88 2.57999 103.87 3.50999C103.87 4.43999 103.02 5.18999 101.96 5.18999C100.91 5.18999 100.05 4.43999 100.05 3.50999ZM95.88 3.50999C95.88 2.57999 96.73 1.82999 97.79 1.82999C98.84 1.82999 99.7 2.57999 99.7 3.50999C99.7 4.43999 98.85 5.18999 97.79 5.18999C96.74 5.18999 95.88 4.43999 95.88 3.50999ZM75.59 41.28C75.65 41.28 75.69 41.24 75.69 41.19V34.72C75.69 34.68 75.65 34.64 75.59 34.64H74.85C74.8 34.64 74.76 34.67 74.76 34.72V41.19C74.76 41.24 74.79 41.28 74.85 41.28H75.59ZM80.23 39.64L81.31 36.9351V41.19C81.31 41.24 81.34 41.28 81.4 41.28H82.16C82.2 41.28 82.24 41.24 82.24 41.19V34.72C82.24 34.68 82.2 34.64 82.16 34.64H81.42C81.37 34.64 81.35 34.68 81.34 34.7L79.82 38.44L78.27 34.71C78.26 34.66 78.2 34.64 78.18 34.64H77.44C77.38 34.64 77.35 34.67 77.35 34.72V41.19C77.35 41.24 77.38 41.28 77.44 41.28H78.19C78.25 41.28 78.29 41.24 78.29 41.19V36.92L79.33 39.63C79.37 39.72 79.46 39.79 79.62 39.79H79.94C80.1 39.79 80.19 39.73 80.23 39.64ZM84.83 38.92C84.83 38.79 84.88 38.74 85 38.74H86.28C87.77 38.74 88.05 37.91 88.05 36.93V36.4C88.05 34.98 87.27 34.64 86.27 34.64H84C83.94 34.64 83.9 34.67 83.9 34.72V41.19C83.9 41.24 83.93 41.28 84 41.28H84.74C84.78 41.28 84.83 41.24 84.83 41.19V38.92ZM84.98 38C84.89 38 84.83 37.97 84.83 37.86V35.52C84.83 35.42 84.86 35.38 84.96 35.38H85.95C86.8 35.38 87.14 35.78 87.14 36.62V36.72C87.14 37.51 86.86 38 85.94 38H84.98ZM92.59 39.56C92.46 39.03 92.23 38.74 91.65 38.74H90.64C90.52 38.74 90.47 38.79 90.47 38.92V41.18C90.47 41.23 90.42 41.27 90.38 41.27H89.65C89.58 41.27 89.55 41.23 89.55 41.18V34.71C89.55 34.66 89.59 34.63 89.65 34.63H91.92C92.92 34.63 93.7 35.07 93.7 36.49V36.93C93.7 37.59 93.55 38.18 93.02 38.49C93.3 38.69 93.39 38.97 93.46 39.21L93.95 41.14C93.96 41.17 93.96 41.18 93.96 41.2C93.96 41.26 93.91 41.29 93.87 41.29H93.1C93.04 41.29 93.01 41.25 93 41.2L92.59 39.56ZM90.48 37.86C90.48 37.97 90.54 38 90.63 38H91.59C92.51 38 92.79 37.51 92.79 36.72V36.62C92.79 35.78 92.45 35.38 91.6 35.38H90.61C90.51 35.38 90.48 35.42 90.48 35.52V37.86ZM96.95 41.41H98.11C99.32 41.41 99.9 40.9 99.9 39.64V36.28C99.9 35.01 99.32 34.51 98.11 34.51H96.95C95.77 34.51 95.18 35.05 95.18 36.3V39.62C95.18 40.87 95.77 41.41 96.95 41.41ZM98.97 36.49V39.41C98.97 40.23 98.65 40.68 97.77 40.68H97.24C96.44 40.68 96.11 40.24 96.11 39.41V36.49C96.11 35.75 96.25 35.22 97.24 35.22H97.77C98.74 35.22 98.97 35.77 98.97 36.49ZM103.16 41.27C103.12 41.27 103.07 41.24 103.07 41.2L101.12 34.72C101.12 34.66 101.17 34.63 101.21 34.63H102C102.04 34.63 102.09 34.67 102.09 34.71L103.57 39.67L104.88 34.71C104.89 34.68 104.93 34.64 104.97 34.64H105.72C105.81 34.64 105.82 34.71 105.82 34.75L104.05 41.21C104.04 41.25 104 41.28 103.96 41.28H103.16V41.27ZM108.06 41.28C108.11 41.28 108.15 41.24 108.15 41.19V34.72C108.15 34.68 108.12 34.64 108.06 34.64H107.32C107.27 34.64 107.23 34.67 107.23 34.72V41.19C107.23 41.24 107.26 41.28 107.32 41.28H108.06ZM110.74 36.56V41.19C110.74 41.24 110.7 41.28 110.65 41.28H109.91C109.85 41.28 109.82 41.24 109.82 41.19V34.72C109.82 34.67 109.86 34.64 109.91 34.64H110.61C110.66 34.64 110.7 34.67 110.72 34.71L113.4 39.27V34.73C113.4 34.68 113.43 34.65 113.49 34.65H114.21C114.27 34.65 114.3 34.69 114.3 34.73V41.2C114.3 41.25 114.26 41.29 114.21 41.29H113.53C113.5 41.29 113.44 41.25 113.44 41.21L110.74 36.56ZM117.99 40.68C117.29 40.68 116.84 40.41 116.84 39.41H116.86V36.51C116.86 35.78 117.05 35.21 118.04 35.21H118.87C119.121 35.21 119.426 35.2386 119.671 35.2616C119.836 35.2771 119.974 35.29 120.05 35.29C120.09 35.28 120.15 35.25 120.15 35.2V34.7C120.15 34.68 120.1 34.63 120.07 34.61C119.7 34.53 119.1 34.5 118.7 34.5H117.78C116.5 34.5 115.92 35.18 115.92 36.28V39.61C115.92 40.74 116.39 41.4 117.68 41.4H118.7C119.97 41.4 120.54 40.95 120.54 39.62V37.89C120.54 37.85 120.5 37.8 120.44 37.8H118.56C118.5 37.8 118.46 37.85 118.46 37.9V38.49C118.46 38.54 118.49 38.58 118.56 38.58H119.58C119.65 38.58 119.7 38.62 119.7 38.7V39.41C119.7 40.39 119.26 40.68 118.49 40.68H117.99ZM124.04 34.71C124.04 34.66 124.09 34.63 124.13 34.63H124.89C124.94 34.63 124.98 34.67 124.98 34.71V40.38C124.98 40.49 125.04 40.54 125.12 40.54H127.69C127.76 40.54 127.78 40.58 127.78 40.63V41.18C127.78 41.23 127.76 41.27 127.69 41.27H124.13C124.09 41.27 124.04 41.23 124.04 41.18V34.71ZM130.09 41.28C130.15 41.28 130.19 41.24 130.19 41.19V34.72C130.19 34.68 130.15 34.64 130.09 34.64H129.35C129.3 34.64 129.26 34.67 129.26 34.72V41.19C129.26 41.24 129.29 41.28 129.35 41.28H130.09ZM131.85 34.71C131.85 34.66 131.89 34.63 131.94 34.63H135.55C135.61 34.63 135.64 34.67 135.64 34.71V35.25C135.64 35.31 135.61 35.34 135.55 35.34H132.96C132.85 35.34 132.79 35.39 132.79 35.48V37.42C132.79 37.52 132.83 37.57 132.92 37.57H135.36C135.42 37.57 135.46 37.61 135.46 37.66V38.21C135.46 38.27 135.42 38.31 135.36 38.31H132.95C132.86 38.31 132.79 38.36 132.79 38.48V41.19C132.79 41.24 132.76 41.28 132.7 41.28H131.94C131.89 41.28 131.85 41.24 131.85 41.19V34.71ZM137.22 34.63C137.17 34.63 137.13 34.66 137.13 34.71V41.17C137.13 41.22 137.17 41.26 137.22 41.26H140.85C140.89 41.26 140.93 41.22 140.93 41.17V40.58C140.93 40.52 140.89 40.49 140.85 40.49H138.28C138.16 40.49 138.07 40.44 138.07 40.3V38.48C138.07 38.36 138.14 38.31 138.23 38.31H140.64C140.7 38.31 140.74 38.28 140.74 38.22V37.65C140.74 37.6 140.7 37.56 140.64 37.56H138.21C138.11 37.56 138.07 37.5 138.07 37.41V35.54C138.07 35.42 138.11 35.36 138.24 35.36H140.83C140.89 35.36 140.92 35.34 140.92 35.28V34.71C140.92 34.67 140.89 34.63 140.83 34.63H137.22Z" fill="white"/>
</svg>
