<svg width="145" height="145" viewBox="0 0 145 145" fill="none" xmlns="http://www.w3.org/2000/svg">
<g opacity="0.9">
<path d="M93.4391 93.4196H51.71C49.5332 93.4196 47.7688 91.6552 47.7688 89.4784V78.4966C47.7688 76.3198 49.5332 74.5554 51.71 74.5554H93.4434C95.6202 74.5554 97.3846 76.3198 97.3846 78.4966V89.4784C97.3803 91.6552 95.6159 93.4196 93.4391 93.4196Z" stroke="white" stroke-width="10.2353" stroke-miterlimit="10"/>
<path d="M89.804 131.922H75.0256H55.3493C51.1615 131.922 47.7688 128.529 47.7688 124.341V111.765V101.634C47.7688 99.4568 49.5332 97.6924 51.71 97.6924H93.4434C95.6202 97.6924 97.3846 99.4568 97.3846 101.634V124.341C97.3803 128.529 93.9876 131.922 89.804 131.922Z" stroke="white" stroke-width="10.2353" stroke-miterlimit="10"/>
<path d="M65.1025 9.09814V14.5316L65.1068 14.8973V19.2976C65.1068 21.5127 64.4095 23.6683 63.1085 25.4624L59.9751 29.7905L54.244 37.7112L49.7629 43.9057C48.4662 45.6999 47.7646 47.8554 47.7646 50.0705V66.3327C47.7646 68.5095 49.529 70.2739 51.7058 70.2739H93.4392C95.616 70.2739 97.3804 68.5095 97.3804 66.3327V50.0705C97.3804 47.8554 96.6832 45.6999 95.3822 43.9057L82.0408 25.4582C80.744 23.664 80.0425 21.5085 80.0425 19.2934V14.893V14.5274V9.09814" stroke="white" stroke-width="10.2353" stroke-miterlimit="10"/>
</g>
</svg>
