<svg width="145" height="145" viewBox="0 0 145 145" fill="none" xmlns="http://www.w3.org/2000/svg">
<g opacity="0.9">
<path d="M114.232 71.5249L72.2528 113.504L31.1265 72.3817" stroke="white" stroke-width="14.2157" stroke-miterlimit="10"/>
<path d="M81.7186 71.3131C77.5366 67.1311 74.9458 61.3498 74.9458 54.9646C74.9458 42.1942 85.2967 31.8433 98.0671 31.8433C110.837 31.8433 121.188 42.1942 121.188 54.9646C121.188 62.5329 117.553 69.2486 111.931 73.4673" stroke="white" stroke-width="14.2157" stroke-miterlimit="10"/>
<path d="M32.8976 73.7081C30.4374 71.9292 28.3403 69.6729 26.7409 67.0821C24.5704 63.557 23.3137 59.4077 23.3137 54.9646C23.3137 42.1942 33.6647 31.8433 46.435 31.8433C52.5795 31.8433 58.1691 34.2423 62.3103 38.155" stroke="white" stroke-width="14.2157" stroke-miterlimit="10"/>
</g>
</svg>
