<svg width="281" height="189" viewBox="0 0 281 189" fill="none" xmlns="http://www.w3.org/2000/svg">
<path d="M201.568 100.621C201.435 100.886 201.329 101.133 201.249 101.371C201.17 101.609 200.887 101.75 200.409 101.821C200.772 102.597 201.037 103.029 201.214 103.135C201.099 102.615 201.241 102.244 201.648 102.033C202.064 101.812 202.037 101.345 201.568 100.621C201.71 99.5717 202.108 98.7867 202.736 98.2486C203.993 97.9488 205.24 96.9697 206.488 95.3027C207.727 93.6268 209.098 92.3655 210.594 91.5012L210.912 92.1891C211.815 90.8749 212.735 89.7989 213.664 88.9521C214.593 88.1054 215.761 87.1528 217.159 86.1032C217.398 86.3502 217.487 86.5354 217.425 86.6765C217.363 86.8088 217.398 87.0293 217.549 87.338C218.487 86.3678 219.106 85.3358 219.425 84.2598C219.743 83.1749 220.442 82.187 221.54 81.2962C221.752 81.7548 221.911 81.9488 222 81.8871C222.186 80.3877 222.893 79.2851 224.141 78.5795C225.38 77.8651 226.159 76.9037 226.477 75.7041C226.636 76.5862 226.751 76.9037 226.831 76.6567C226.902 76.4097 227.114 76.6655 227.468 77.4241C227.902 76.7361 228.097 76.2069 228.052 75.8452C228.008 75.4748 227.84 75.3954 227.557 75.5895C227.274 75.7835 227.194 76.0305 227.336 76.3304C226.999 76.154 226.955 75.8453 227.185 75.3954C227.415 74.9456 227.672 74.6192 227.964 74.4252C228.123 75.3072 228.397 75.6247 228.778 75.3601C228.919 74.8662 228.831 74.6722 228.512 74.7956C228.194 74.9103 228.052 74.7604 228.105 74.3282C230.238 71.885 232.167 69.6446 233.919 67.616C235.662 65.5697 237.573 63.2852 239.644 60.745C239.733 61.4771 239.671 61.874 239.449 61.9446C239.228 62.0063 238.954 62.3591 238.626 63.003C239.582 62.8971 240.343 62.3326 240.927 61.2919C241.511 60.2511 242.095 59.2985 242.697 58.4429C242.237 57.9843 241.847 58.2312 241.538 59.175C241.228 60.1099 240.812 60.5774 240.308 60.5598C240.52 59.3955 241.281 58.2136 242.6 57.014C244.024 54.7031 245.537 52.5157 247.139 50.4518C248.732 48.3702 250.156 46.4033 251.413 44.5599C251.811 43.0075 252.59 41.4551 253.731 39.8851C254.864 38.3151 255.855 36.9568 256.696 35.8278C256.899 35.4574 257.049 35.1134 257.156 34.8135C257.271 34.5136 257.342 34.1432 257.386 33.6933C258.049 32.7055 258.802 31.5853 259.642 30.324C260.483 29.0627 261.173 27.6779 261.713 26.1609C262.589 25.367 263.146 24.4409 263.403 23.3913C263.659 22.3417 264.217 21.4067 265.084 20.6041C266.022 18.0815 267.341 15.4443 269.031 12.6835C270.712 9.91398 272.101 7.03858 273.198 4.07498C273.322 3.53695 273.367 3.03419 273.331 2.54908C273.296 2.07279 273.34 1.56122 273.464 1.02318C275.269 -0.405697 276.703 -0.335135 277.791 1.23487C278.879 2.81369 279.95 4.74532 280.994 7.02094C279.118 12.5601 276.933 17.8963 274.428 23.0209C271.907 28.1013 269.217 33.0583 266.376 37.8829C263.509 42.6547 260.536 47.2941 257.465 51.7925C254.368 56.2379 251.369 60.7185 248.484 65.261C246.997 66.6193 245.467 68.5068 243.9 70.9147C242.325 73.3138 240.635 75.2631 238.83 76.7714C238.644 76.9037 238.626 77.0713 238.777 77.2653C238.936 77.4594 238.918 77.6269 238.724 77.7592C238.441 77.9621 238.14 77.9709 237.804 77.8033C237.025 79.3645 235.768 80.961 234.007 82.5839C232.247 84.1892 230.875 85.8209 229.893 87.488C228.76 88.0348 227.849 88.8375 227.15 89.8959C226.451 90.9543 225.778 91.8804 225.15 92.6919C224.769 92.1362 224.469 92.1715 224.256 92.8066C224.044 93.4328 223.92 93.9708 223.867 94.403C223.185 94.8352 222.478 95.2762 221.743 95.7349C221.009 96.1847 220.416 96.7492 219.973 97.4195C219.85 97.693 219.743 98.0105 219.655 98.3633C219.566 98.7161 219.416 99.0601 219.186 99.3953C218.991 99.5099 218.832 99.5099 218.708 99.3865C218.584 99.263 218.425 99.2542 218.23 99.3776C217.859 99.3953 217.584 99.6158 217.398 100.03C217.213 100.436 216.956 100.842 216.637 101.23C216.018 101.794 215.292 102.271 214.461 102.659C213.629 103.038 213.248 103.708 213.31 104.661C212.399 104.59 211.779 105.04 211.47 106.01C210.62 106.09 209.806 106.504 209.01 107.245C208.213 107.986 207.382 108.78 206.523 109.644C205.656 110.5 204.798 111.311 203.948 112.061C203.09 112.811 202.223 113.314 201.329 113.587C199.958 115.272 198.267 116.665 196.241 117.785C194.215 118.879 192.339 120.317 190.631 122.107C190.277 121.887 189.799 121.966 189.206 122.337C188.614 122.707 188.189 123.148 187.914 123.66C185.331 125.221 183.304 126.473 181.827 127.408C180.349 128.334 178.499 129.56 176.261 131.069C175.686 130.919 175.102 130.972 174.509 131.219C173.916 131.457 173.668 131.942 173.756 132.674C172.916 132.251 172.111 132.577 171.332 133.644C168.12 134.712 165.164 136.07 162.474 137.719C159.776 139.351 156.944 140.295 153.971 140.559C153.82 140.789 153.785 141.044 153.838 141.309C153.9 141.574 153.82 141.741 153.59 141.812C152.697 142.112 151.705 142.385 150.608 142.65C149.511 142.905 148.679 143.126 148.113 143.311C147.662 143.452 147.299 143.708 147.025 144.07C146.75 144.431 146.325 144.705 145.759 144.881C143.096 146.063 140.512 146.822 138.025 147.166C135.53 147.492 132.999 148.092 130.433 148.956C129.513 149.194 128.469 149.459 127.318 149.759C126.159 150.05 125.327 150.341 124.823 150.65C121.443 151.461 118.08 152.096 114.727 152.572C111.364 153.013 108.232 153.604 105.329 154.354C96.1355 154.751 87.1275 155.236 78.3142 155.827C69.4035 156.242 60.0681 155.862 50.308 154.698C47.9011 154.337 45.5474 153.957 43.2467 153.569C40.946 153.172 38.5923 152.511 36.1766 151.593C32.4335 151.214 28.5224 150.217 24.4608 148.621C20.3904 146.998 16.4351 144.952 12.6124 142.473C11.586 141.15 10.6126 140.004 9.67463 139.007C8.74552 138.019 7.76331 136.864 6.74571 135.558C6.62182 134.738 6.49794 134.05 6.35636 133.485C6.22363 132.912 5.91393 131.977 5.42725 130.681C6.53334 131.333 7.54209 131.43 8.43581 130.945C9.33838 130.46 10.0905 129.896 10.7188 129.252C10.9842 129.252 11.2674 129.578 11.5771 130.222C12.1965 129.569 12.8779 129.322 13.6123 129.481C14.3468 129.64 15.1431 129.631 15.9838 129.463C15.6564 130.443 15.0635 131.219 14.2052 131.792C13.3557 132.365 12.9044 133.3 12.8513 134.606C13.4796 135.091 14.1786 135.373 14.9396 135.452C15.7006 135.532 16.3466 135.973 16.8598 136.793C16.5235 136.634 16.0811 136.555 15.559 136.555C15.9749 136.881 16.5943 137.199 17.4084 137.525C18.2225 137.843 18.6826 137.843 18.7888 137.516C24.7086 139.395 30.2922 140.736 35.5571 141.538C40.7956 142.297 45.9102 143.091 50.9185 143.929C51.1751 143.911 51.3787 144.061 51.5291 144.387C51.6795 144.714 51.9007 145.031 52.1839 145.358C52.352 144.326 52.9449 143.779 53.9625 143.691C54.9801 143.611 56.0596 143.682 57.2277 143.929C58.3957 144.167 59.4929 144.405 60.5282 144.652C61.5635 144.89 62.2891 144.908 62.7139 144.696C63.0855 144.661 63.5103 145.128 63.9704 146.107C64.227 146.081 64.3597 146.028 64.3863 145.94C64.4128 145.851 64.5456 145.799 64.7933 145.772C65.0234 146.266 64.9172 146.442 64.4659 146.319C64.6164 146.645 64.7402 146.76 64.8287 146.672C64.9172 146.575 65.103 146.681 65.3773 146.998C65.2712 146.495 65.4127 146.31 65.8021 146.442C66.1914 146.575 66.5542 146.707 66.8816 146.848C67.209 146.98 67.5276 147.033 67.8373 147.007C68.147 146.972 68.2532 146.707 68.147 146.204C67.8196 146.063 67.386 145.984 66.8462 145.957C66.3065 145.922 65.7578 145.596 65.2004 144.969C66.7224 144.299 68.3682 144.114 70.1557 144.431C71.9431 144.74 73.4651 144.299 74.7304 143.1C75.1729 143.214 75.4118 143.355 75.4206 143.532C75.4383 143.699 75.456 143.955 75.4914 144.299C76.2613 144.546 76.8984 144.634 77.3851 144.573C77.8806 144.511 78.4204 144.952 79.0044 145.913C79.2521 145.878 79.2344 145.71 78.9601 145.402C78.6858 145.093 78.5265 144.767 78.5 144.423C80.5883 144.14 82.4642 143.955 84.1278 143.885C85.7913 143.805 87.3487 143.788 88.7999 143.823C90.2511 143.849 91.7111 143.832 93.1712 143.761C94.6312 143.682 96.1709 143.417 97.7725 142.95C97.684 143.32 97.861 143.814 98.2857 144.44C98.4539 144.229 98.8786 143.893 99.56 143.408C100.241 142.923 100.772 143.091 101.162 143.902C101.728 143.435 102.321 143.32 102.949 143.558C103.259 144.202 103.117 144.59 102.515 144.705C102.869 145.172 103.046 145.269 103.046 145.005C103.055 144.74 103.268 144.652 103.701 144.74C103.391 144.087 103.56 143.611 104.197 143.311C104.046 142.985 103.852 142.844 103.613 142.897C104.648 142.332 105.86 141.874 107.249 141.503C108.63 141.124 109.816 140.736 110.798 140.348C111.037 140.295 111.169 140.445 111.205 140.797C111.24 141.141 111.293 141.397 111.373 141.565C111.612 140.974 112.488 140.559 114.001 140.312C115.505 140.057 116.567 139.766 117.195 139.448C117.355 139.227 117.505 139.413 117.656 140.012C117.806 140.603 117.956 140.789 118.116 140.577C118.47 140.498 118.54 140.251 118.355 139.845C118.16 139.439 118.248 139.201 118.594 139.113C118.868 138.866 119.054 138.91 119.142 139.254C119.24 139.589 119.266 139.854 119.222 140.039C119.54 139.06 120.204 138.681 121.204 138.883C122.204 139.086 122.868 138.963 123.177 138.531C123.487 138.628 123.797 138.822 124.124 139.104C124.451 139.377 124.823 139.554 125.248 139.633C125.292 139.439 125.345 139.289 125.425 139.183C125.504 139.069 125.558 138.919 125.602 138.734C125.451 138.407 125.301 138.31 125.168 138.434C125.035 138.557 124.947 138.442 124.912 138.09C125.761 137.693 126.593 137.472 127.416 137.437C128.239 137.393 129.07 137.172 129.911 136.767C129.831 137.146 129.946 137.393 130.256 137.49C130.256 136.943 130.38 136.731 130.628 136.846C130.876 136.961 131.07 137.172 131.23 137.499C131.725 137.181 132.344 136.784 133.088 136.299C133.831 135.814 134.468 135.867 134.999 136.44C135.114 135.858 135.397 135.505 135.857 135.373C136.309 135.241 136.795 135.1 137.309 134.95C137.822 134.8 138.255 134.623 138.609 134.429C138.972 134.226 139.202 133.838 139.317 133.256C140.299 133.141 141.149 132.974 141.883 132.753C142.618 132.524 143.485 132.533 144.503 132.762C144.724 132.145 145.237 131.66 146.042 131.307C146.839 130.954 147.759 130.707 148.777 130.557C149.794 130.398 150.759 130.125 151.67 129.728C152.573 129.322 153.245 128.775 153.688 128.07L154.024 128.784C157.873 126.861 161.926 124.903 166.182 122.901C170.403 120.837 174.261 118.491 177.747 115.863C177.96 115.766 178.172 115.96 178.393 116.427C178.712 116.286 178.8 116.004 178.676 115.598C178.544 115.183 178.676 114.981 179.066 114.998L179.614 116.171C179.88 115.104 180.588 114.504 181.738 114.372C182.888 114.231 183.685 114.24 184.154 114.416C184.039 113.896 183.879 113.684 183.667 113.781C183.455 113.878 183.242 113.693 183.021 113.217C183.862 112.828 184.41 112.767 184.658 113.031C184.932 112.52 185.224 112.008 185.552 111.47C185.87 110.932 186.295 110.544 186.817 110.306C186.959 110.615 186.932 110.826 186.72 110.923C186.516 111.02 186.481 111.223 186.623 111.541C187.145 111.294 187.366 110.95 187.286 110.509C187.207 110.068 187.286 109.697 187.525 109.389C188.428 109.142 189.003 109.009 189.251 108.992C189.498 108.965 190.082 108.736 191.012 108.277C191.25 107.969 191.25 107.774 191.029 107.695C190.799 107.616 190.755 107.448 190.888 107.192C191.242 107.404 191.534 107.351 191.772 107.042C192.011 106.734 192.224 106.434 192.41 106.152C192.595 105.869 192.817 105.658 193.073 105.534C193.33 105.402 193.657 105.622 194.047 106.196C194.684 105.102 195.356 104.379 196.073 104.017C196.79 103.647 197.683 102.994 198.763 102.041C199.073 101.883 199.232 102.085 199.241 102.659C199.259 103.232 199.515 103.382 200.028 103.117C200.329 102.959 200.409 102.721 200.267 102.412C200.117 102.103 200.028 101.768 199.984 101.406C200.444 100.771 200.922 100.427 201.4 100.366L201.568 100.621ZM254.156 52.0835C253.837 51.9336 253.616 52.0659 253.501 52.4716C253.377 52.8773 253.475 53.1508 253.793 53.3095C253.749 52.9391 253.855 52.6921 254.112 52.5863C254.368 52.4716 254.386 52.304 254.156 52.0835ZM252.174 55.8586C252.147 55.2676 251.997 55.0824 251.731 55.3029C251.457 55.5234 251.608 55.7086 252.174 55.8586ZM250.847 56.6259C250.263 57.508 249.696 58.3106 249.165 59.0427C248.634 59.7748 248.103 60.648 247.581 61.6711C248.183 61.6094 248.864 61.0184 249.652 59.8894C250.431 58.7516 250.829 57.6579 250.847 56.6259ZM248.148 57.2522C247.9 57.2434 247.581 57.4992 247.192 58.0107C246.803 58.5135 246.59 58.9898 246.546 59.4308C247.679 58.9369 248.218 58.2048 248.148 57.2522ZM246.121 59.7483C245.59 59.9512 245.422 60.3922 245.608 61.0625C246.157 60.6303 246.334 60.1981 246.121 59.7483ZM245.927 64.1673C245.139 64.3613 244.803 64.8288 244.891 65.5697C245.475 65.7373 245.82 65.2698 245.927 64.1673ZM243.891 66.6369C244.007 66.3459 244.192 66.2047 244.449 66.2135C244.706 66.2224 244.759 66.0724 244.617 65.7814C244.387 65.552 244.175 65.5609 243.971 65.8078C243.785 66.0636 243.75 66.337 243.891 66.6369C242.732 67.9159 241.538 69.3095 240.308 70.8265C239.069 72.3348 238.042 73.6843 237.22 74.8838C238.883 73.8872 240.157 72.6523 241.042 71.197C241.927 69.7328 242.874 68.2157 243.891 66.6369ZM240.308 60.551C240.396 61.283 240.325 61.3889 240.078 60.8685C239.839 60.3393 239.918 60.2423 240.308 60.551ZM241.529 65.9842C241.069 66.3282 240.936 66.7251 241.148 67.175C241.697 66.7692 241.83 66.3635 241.529 65.9842ZM240.759 67.1573C240.361 67.6512 240.025 68.057 239.733 68.3745C239.441 68.692 239.308 69.1419 239.334 69.7328C239.52 69.5917 239.795 69.2389 240.157 68.6744C240.511 68.1011 240.715 67.5983 240.759 67.1573ZM238.281 63.8585C238.264 63.2764 238.219 63.25 238.157 63.7968C238.104 64.3348 238.14 64.3613 238.281 63.8585ZM236.954 65.4286C236.441 65.3933 236.326 65.6843 236.6 66.2841C236.786 66.143 236.972 66.0107 237.158 65.8784C237.352 65.7461 237.281 65.5961 236.954 65.4286ZM238.166 68.4539C237.795 67.9159 237.724 67.9159 237.972 68.4451C238.219 68.9743 238.29 68.9743 238.166 68.4539ZM238.52 70.0151C238.635 70.5355 238.396 70.8089 237.786 70.853C237.175 70.8883 237.06 71.1705 237.432 71.7086C237.671 71.9379 238.034 71.7262 238.538 71.0559C239.042 70.3943 239.034 70.0415 238.52 70.0151ZM235.875 72.8199C236.06 72.6876 236.096 72.617 235.963 72.6082C235.839 72.5994 235.804 72.67 235.875 72.8199C235.848 73.0316 235.901 73.1463 236.034 73.1639C236.167 73.1727 236.113 73.0581 235.875 72.8199ZM111.461 151.514C112.214 151.179 112.886 150.808 113.47 150.412C114.063 150.015 114.904 150.147 116.001 150.808C117.921 150.2 119.762 149.635 121.531 149.133C123.301 148.612 125.363 148.515 127.717 148.842C127.522 148.162 127.61 148.004 127.973 148.365C128.336 148.727 128.442 148.471 128.292 147.598C128.911 147.801 129.309 147.836 129.504 147.695C129.699 147.554 130.097 147.307 130.716 146.963C132.743 147.148 134.433 146.742 135.76 145.728C137.087 144.705 138.477 144.634 139.919 145.507C139.804 144.987 139.91 144.678 140.255 144.581C140.591 144.484 140.999 144.361 141.45 144.229C141.68 144.714 141.91 144.925 142.131 144.855C141.981 144.528 141.936 144.308 142.016 144.193C142.087 144.079 142.087 143.937 142.016 143.779C144.202 142.932 146.352 142.041 148.485 141.089C150.608 140.127 153.024 139.369 155.723 138.831C157.192 137.569 159.006 136.652 161.165 136.07C163.324 135.47 165.173 134.491 166.722 133.15C167.27 133.503 167.686 133.494 167.952 133.106C168.217 132.718 168.518 132.462 168.837 132.339C169.447 131.721 170.164 131.342 170.996 131.201C171.827 131.06 172.615 130.839 173.367 130.531C174.367 129.931 175.243 129.146 175.995 128.167C176.747 127.179 177.774 126.985 179.075 127.585C179.234 126.562 179.65 126.094 180.331 126.182C181.012 126.271 181.773 126.129 182.623 125.759C182.862 125.459 182.853 125.23 182.579 125.062C182.304 124.895 182.296 124.656 182.534 124.365C183.941 123.545 185.224 122.681 186.384 121.763C187.543 120.837 188.888 120.502 190.41 120.758C190.543 120.502 190.613 120.176 190.622 119.788C190.631 119.391 190.755 119.047 190.994 118.738C191.56 118.853 191.817 118.729 191.772 118.368C191.728 117.997 191.914 117.715 192.33 117.521C194.241 116.974 195.896 115.96 197.294 114.487C198.692 112.996 200.294 111.876 202.108 111.126C202.134 110.915 202.099 110.694 201.984 110.456C201.878 110.218 201.957 110.13 202.232 110.174C205.081 107.863 208.09 105.481 211.24 103.02C214.372 100.515 216.912 97.9752 218.867 95.4085C219.283 95.7525 219.628 95.6908 219.911 95.2145C220.195 94.7382 220.557 94.5706 220.991 94.6941C220.699 94.0767 220.752 93.6445 221.141 93.4063C222.221 92.736 223.327 91.5364 224.469 89.8077C225.61 88.0701 226.822 87.091 228.096 86.8529C228.123 85.8298 228.397 85.2035 228.911 84.9654C229.424 84.7184 229.813 84.2068 230.079 83.4306C230.99 82.4163 232.193 81.2962 233.689 80.0613C235.184 78.8177 235.972 77.3535 236.069 75.6777C231.353 81.1638 226.424 86.6412 221.292 92.1098C216.098 97.4548 210.912 102.059 205.753 105.922C200.391 110.729 195.17 114.84 190.1 118.279C184.977 121.622 179.473 124.921 173.58 128.158C167.226 131.818 160.36 135.267 152.944 138.504C145.441 141.574 137.716 144.008 129.778 145.825C129.124 146.363 128.778 146.725 128.743 146.919C124.575 147.421 121.16 148.065 118.487 148.877C115.806 149.662 112.559 150.279 108.736 150.711C102.144 151.629 95.2418 152.273 88.0301 152.625C80.7564 152.864 72.9607 152.916 64.6164 152.758C65.5366 153.878 66.3861 154.266 67.1471 153.931C67.9081 153.596 68.9168 153.79 70.1822 154.522C70.43 154.495 70.5892 154.345 70.66 154.081C70.7308 153.816 70.952 153.657 71.3237 153.613C76.0135 154.116 80.5264 154.24 84.8622 154.001C89.1716 153.719 93.4809 153.305 97.7902 152.758C98.0291 152.714 98.2769 152.89 98.5335 153.296C98.7901 153.693 99.0733 153.957 99.3918 154.081C99.7989 153.296 100.489 152.952 101.445 153.04C102.4 153.128 103.082 152.784 103.489 151.99C103.763 152.29 103.958 152.572 104.073 152.819C104.188 153.066 104.427 153.155 104.79 153.084C105.232 152.105 106.152 151.699 107.533 151.876C108.931 152.07 110.232 151.946 111.461 151.514ZM234.388 74.4781C233.99 74.1606 233.857 74.1959 233.981 74.6104C234.114 75.0161 233.946 75.2808 233.503 75.3954L233.715 75.8452C233.813 75.7747 233.901 75.7659 233.981 75.81C234.061 75.8541 234.158 75.8364 234.246 75.7747C234.202 75.4042 234.246 75.1749 234.388 75.0691C234.53 74.9809 234.53 74.778 234.388 74.4781ZM232.866 76.445C232.627 77.0095 232.132 77.5034 231.388 77.918C230.636 78.3237 230.344 78.9764 230.503 79.8673C230.84 79.2322 231.379 78.7206 232.132 78.3061C232.875 77.8915 233.123 77.2653 232.866 76.445ZM226.76 77.9004C226.84 77.2565 226.911 77.0095 226.982 77.1595C226.955 77.3712 226.875 77.477 226.743 77.4682C226.61 77.4505 226.619 77.5917 226.76 77.9004ZM228.203 81.4108C228.052 81.9048 227.902 82.1076 227.734 82.0194C227.566 81.9312 227.495 82.1782 227.512 82.7603C227.681 82.8485 227.893 82.7603 228.141 82.4957C228.397 82.2311 228.415 81.8695 228.203 81.4108ZM225.893 78.4737C225.601 78.6677 225.371 78.7647 225.194 78.7912C225.017 78.8088 224.796 78.8 224.53 78.7824C224.884 79.5409 225.238 79.7526 225.583 79.4263C225.929 79.0911 226.035 78.7736 225.893 78.4737ZM226.902 83.4659C226.61 83.66 226.327 83.8452 226.035 84.0304C225.743 84.2157 225.663 84.5773 225.778 85.0977C226.07 84.9125 226.38 84.7008 226.716 84.4803C227.052 84.2686 227.114 83.9246 226.902 83.4659ZM224.017 84.1539C224.212 84.0304 224.345 84.0392 224.415 84.198C224.486 84.348 224.584 84.2862 224.707 84.0128C224.761 83.5806 224.619 83.4218 224.292 83.5365C223.964 83.6423 223.867 83.854 224.017 84.1539ZM222.062 88.0789L221.619 88.3523L221.832 88.811L222.274 88.5376L222.062 88.0789ZM218.053 85.5563C217.903 86.0414 217.859 86.015 217.929 85.4858C217.991 84.9566 218.035 84.983 218.053 85.5563ZM219.717 90.7426C219.301 91.1925 218.664 91.7834 217.797 92.5155C216.938 93.2299 216.531 94.0679 216.602 95.0204C217.319 94.3854 217.92 93.7239 218.416 93.0271C218.912 92.3214 219.345 91.5629 219.717 90.7426ZM215.425 94.5265C215.567 94.8352 215.567 95.0293 215.416 95.1175C215.266 95.2057 215.354 95.4526 215.664 95.8584C215.938 95.8936 216.009 95.6467 215.894 95.1263C215.779 94.6147 215.629 94.4118 215.425 94.5265ZM215.195 95.2586C214.478 95.876 213.735 96.4581 212.983 97.005C212.222 97.543 211.656 98.2222 211.275 99.0248C212.018 98.9895 212.824 98.6191 213.7 97.9135C214.567 97.2079 215.062 96.317 215.195 95.2586ZM213.063 94.747C212.753 94.3413 212.691 94.4207 212.894 94.994C213.098 95.5585 213.151 95.4791 213.063 94.747ZM209.78 99.8892C209.682 99.9421 209.541 99.9245 209.373 99.8275C209.204 99.7304 209.054 99.8098 208.921 100.083L209.355 101.009C209.682 100.621 209.824 100.251 209.78 99.8892ZM207.851 101.856C207.895 102.218 207.612 102.429 207.001 102.474C206.391 102.518 206.214 102.959 206.479 103.788C206.824 103.982 207.231 103.761 207.683 103.117C208.143 102.474 208.196 102.05 207.851 101.856ZM205.948 101.442C205.453 100.93 205.364 100.93 205.665 101.45C205.975 101.971 206.063 101.962 205.948 101.442ZM205.001 102.262C204.108 101.971 203.674 102.403 203.701 103.55C204.479 103.32 204.913 102.888 205.001 102.262ZM203.364 106.072C203.816 106.222 203.931 106.063 203.709 105.596C203.488 105.128 203.373 105.287 203.364 106.072ZM202.533 105.931C201.993 106.407 201.488 106.875 201.002 107.325C200.515 107.775 200.143 108.26 199.878 108.789C200.418 108.313 201.037 107.933 201.736 107.669C202.426 107.395 202.692 106.813 202.533 105.931ZM198.887 108.718C198.958 108.868 198.993 109.001 198.975 109.106C198.958 109.212 198.993 109.336 199.064 109.494C199.17 109.442 199.276 109.477 199.4 109.609C199.524 109.733 199.639 109.777 199.736 109.724C199.586 108.842 199.303 108.507 198.887 108.718ZM197.816 107.236C197.79 107.439 197.719 107.572 197.621 107.625C197.975 107.827 198.197 107.907 198.303 107.854C198.082 107.395 197.922 107.184 197.816 107.236ZM195.374 109.353C195.577 109.247 195.648 109.115 195.569 108.965C195.365 109.062 195.303 109.195 195.374 109.353ZM195.834 111.153C195.701 111.408 195.516 111.55 195.268 111.576C195.029 111.594 195.117 111.797 195.542 112.167L196.161 111.858L195.834 111.153ZM195.179 109.741C194.755 109.38 194.675 109.415 194.949 109.856C195.215 110.297 195.294 110.262 195.179 109.741ZM194.25 108.18C193.94 108.339 193.896 108.648 194.117 109.115C194.25 108.851 194.374 108.701 194.471 108.648C194.578 108.595 194.498 108.436 194.25 108.18ZM195.038 112.705C195.454 112.502 195.418 112.229 194.94 111.885C194.463 111.541 194.109 111.523 193.87 111.841C193.843 112.044 193.923 112.29 194.126 112.582C194.33 112.864 194.321 113.067 194.117 113.164C193.613 112.634 193.215 112.449 192.905 112.608C192.71 113.278 192.348 113.79 191.817 114.152C191.286 114.504 190.702 114.831 190.082 115.131C190.976 115.669 191.941 115.483 192.985 114.593C194.011 113.702 194.701 113.067 195.038 112.705ZM195.038 112.705C194.834 112.811 194.693 112.776 194.622 112.626C194.728 112.573 194.755 112.511 194.719 112.432C194.684 112.352 194.719 112.29 194.816 112.238L195.038 112.705ZM195.976 116.312L195.666 116.462L196.002 117.168L196.312 117.018L195.976 116.312ZM190.498 113.199C189.773 113.552 189.605 114.01 190.003 114.593L190.781 114.222C190.56 113.746 190.472 113.402 190.498 113.199ZM187.702 112.529C187.074 112.82 186.923 113.181 187.251 113.605C187.773 113.349 187.923 112.996 187.702 112.529ZM185.649 112.634L185.021 112.926C185.136 113.446 185.286 113.702 185.481 113.711C185.676 113.711 185.915 113.746 186.198 113.808L185.649 112.634ZM184.074 121.093C184.136 120.678 184.375 120.379 184.8 120.193C185.224 119.999 185.596 119.779 185.923 119.532C186.251 119.285 186.499 118.976 186.64 118.623C186.791 118.262 186.755 117.847 186.534 117.38C184.623 119.02 182.88 120.387 181.287 121.481C179.685 122.566 177.96 123.307 176.11 123.721C176.517 124.304 176.632 124.683 176.455 124.859C176.278 125.027 176.199 125.397 176.208 125.962C177.659 124.965 178.96 124.074 180.128 123.28C181.278 122.487 182.596 121.755 184.074 121.093ZM186.879 122.989C186.375 122.451 186.242 122.46 186.508 123.016C186.764 123.563 186.897 123.563 186.879 122.989ZM176.623 119.514L176.942 119.373C177.048 119.329 177.119 119.197 177.146 119.003C177.101 118.641 176.96 118.606 176.712 118.906C176.473 119.197 176.447 119.4 176.623 119.514ZM175.978 122.628L176.296 122.495C176.836 122.831 177.19 122.495 177.349 121.472C177.561 121.384 177.597 121.314 177.455 121.287C177.314 121.252 177.278 121.314 177.349 121.472C176.774 121.331 176.42 121.675 176.296 122.495L175.978 122.628L175.756 122.151C175.438 122.284 175.093 122.434 174.712 122.592C174.341 122.751 174.19 123.183 174.279 123.907C174.553 123.413 174.898 123.175 175.287 123.201C175.686 123.228 175.916 123.034 175.978 122.628ZM174.703 120.326C174.925 120.802 175.084 120.731 175.181 120.123C174.969 120.211 174.827 120.176 174.748 120.026C174.677 119.867 174.668 119.964 174.703 120.326ZM174.73 124.859C174.694 125.062 174.579 125.159 174.385 125.142C174.19 125.124 173.96 125.265 173.721 125.556C173.872 125.874 174.022 126.05 174.164 126.085C174.305 126.121 174.279 126.182 174.057 126.271C173.765 126.2 173.491 126.076 173.217 125.909C172.942 125.732 172.686 125.794 172.438 126.085C173.057 126.588 173.872 126.817 174.88 126.791C174.287 126.085 174.217 125.644 174.641 125.468C174.792 125.785 174.942 126.103 175.093 126.42C175.243 126.738 175.385 126.773 175.526 126.526C175.562 126.323 175.491 125.971 175.314 125.477C175.137 124.974 174.942 124.771 174.73 124.859ZM170.164 123.325C170.819 123.624 170.978 123.563 170.651 123.131C170.323 122.698 170.164 122.769 170.164 123.325ZM171.863 127.744C171.27 127.029 170.58 126.985 169.775 127.585C168.969 128.185 168.607 128.846 168.695 129.569C169.341 129.314 169.89 129.102 170.314 128.925C170.739 128.758 171.261 128.361 171.863 127.744ZM167.89 123.395C167.677 123.483 167.456 123.563 167.244 123.651C167.031 123.739 167.085 123.995 167.412 124.427L168.226 124.11L167.89 123.395ZM167.341 126.712C167.049 126.632 166.925 126.773 166.97 127.144C167.014 127.505 167.182 127.717 167.465 127.796C167.315 127.479 167.279 127.258 167.35 127.135C167.412 127.003 167.412 126.861 167.341 126.712ZM167.315 128.696C166.987 128.82 166.943 129.128 167.164 129.605C167.306 129.358 167.43 129.216 167.536 129.172C167.642 129.128 167.571 128.97 167.315 128.696ZM166.35 129.913C165.943 129.314 165.863 129.296 166.129 129.86C166.394 130.416 166.465 130.434 166.35 129.913ZM162.474 126.606C162.545 126.764 162.483 126.888 162.262 126.967L162.713 127.92L163.2 127.735C162.828 126.932 162.589 126.562 162.474 126.606ZM163.687 131.21C163.722 131.007 163.811 130.928 163.961 130.972C164.111 131.007 164.138 130.945 164.067 130.786C163.731 130.91 163.607 131.051 163.687 131.21ZM163.182 130.548C163.041 130.786 162.864 131.086 162.643 131.448C162.43 131.81 162.501 132.11 162.873 132.348C162.943 131.942 163.067 131.669 163.244 131.501C163.43 131.351 163.403 131.033 163.182 130.548ZM161.607 131.695C160.802 131.616 160.545 131.898 160.846 132.533C161.032 132.656 161.28 132.383 161.607 131.695ZM150.856 137.128C152.422 137.164 154.21 136.793 156.218 136.008C158.218 135.205 159.616 134.015 160.404 132.418C159.59 132.33 158.953 132.612 158.484 133.247C158.015 133.882 157.351 133.971 156.493 133.53C154.953 134.623 153.617 135.267 152.484 135.461C151.352 135.655 149.918 136.22 148.166 137.164C148.768 137.896 148.847 138.337 148.396 138.478C148.06 138.028 147.927 137.702 148.024 137.49C148.113 137.278 147.954 137.137 147.547 137.084C147.14 137.587 146.582 137.896 145.865 138.037C145.149 138.169 144.556 138.398 144.069 138.734C145.538 139.942 146.803 140.145 147.839 139.351C148.892 138.557 149.891 137.816 150.856 137.128ZM156.873 132.286C156.988 132.251 157.13 132.286 157.316 132.409C157.501 132.524 157.67 132.471 157.811 132.233C157.882 131.836 157.678 131.677 157.201 131.748C156.714 131.818 156.608 132.004 156.873 132.286ZM155.714 132.692C155.192 132.127 155.059 132.127 155.325 132.683C155.59 133.247 155.714 133.247 155.714 132.692ZM154.254 131.245C153.847 130.645 153.767 130.619 154.033 131.183C154.298 131.739 154.378 131.757 154.254 131.245ZM156.732 139.342C156.953 139.263 157.024 139.148 156.953 138.989C156.723 139.06 156.652 139.183 156.732 139.342ZM152.723 133.715C152.502 133.785 152.343 133.794 152.254 133.732C152.157 133.671 152.059 133.662 151.944 133.697L152.281 134.42L152.617 134.306L152.723 133.715ZM149.095 132.983C148.538 133.168 148.37 133.494 148.6 133.979C149.157 133.794 149.316 133.468 149.095 132.983ZM149.219 134.888C148.883 134.994 148.679 135.25 148.608 135.638C148.83 135.567 149.007 135.602 149.139 135.743C149.272 135.885 149.449 135.92 149.67 135.849L149.219 134.888ZM146.98 135.885C146.679 135.796 146.396 135.885 146.14 136.149C145.874 136.414 145.803 136.811 145.918 137.322C146.175 137.058 146.476 136.872 146.812 136.758C147.157 136.661 147.21 136.37 146.98 135.885ZM143.565 137.234C143.078 137.014 142.751 137.075 142.582 137.402C142.414 137.728 142.105 137.684 141.653 137.269C141.618 137.463 141.644 137.728 141.742 138.072C141.839 138.407 141.998 138.548 142.22 138.478C142.069 138.151 142.335 138.028 143.007 138.098C143.68 138.169 143.866 137.878 143.565 137.234ZM143.91 139.616C143.007 138.786 142.087 138.831 141.167 139.757C140.246 140.674 139.477 141.036 138.875 140.85C139.937 141.459 140.76 141.353 141.344 140.533C141.919 139.713 142.777 139.413 143.91 139.616ZM139.884 135.602C140.184 136.237 140.45 136.528 140.68 136.467C140.751 136.079 140.698 135.814 140.512 135.691C140.317 135.558 140.114 135.532 139.884 135.602ZM137.45 136.599C137.335 136.634 137.264 136.608 137.22 136.528C137.185 136.449 137.105 136.423 136.99 136.458C137.291 137.102 137.521 137.305 137.671 137.084L137.45 136.599ZM138.477 140.418C138.291 140.842 137.919 141.08 137.371 141.15C136.822 141.212 136.344 141.309 135.946 141.415C135.548 141.53 135.211 141.715 134.946 141.971C134.681 142.226 134.627 142.791 134.778 143.664C135.539 143.082 136.353 142.623 137.229 142.288C138.105 141.944 138.521 141.318 138.477 140.418ZM136.318 137.472C136.548 137.41 136.618 137.287 136.548 137.137L136.38 137.19C136.256 137.216 136.238 137.313 136.318 137.472ZM133.805 137.913C133.875 138.072 133.973 138.134 134.088 138.107C134.203 138.072 134.22 137.975 134.141 137.816C134.026 137.852 133.902 137.79 133.769 137.649C133.645 137.499 133.654 137.587 133.805 137.913ZM133.123 138.098C132.707 137.481 132.645 137.499 132.955 138.143C133.256 138.795 133.309 138.778 133.123 138.098ZM134.38 143.232C134.15 143.294 134.114 143.214 134.265 142.985C134.415 142.756 134.397 142.579 134.203 142.456C130.876 142.817 127.867 143.426 125.168 144.299C122.46 145.146 119.16 145.843 115.258 146.381C115.682 147.007 116.142 147.219 116.629 147.016C117.116 146.813 117.266 147.183 117.063 148.136C118.824 147.192 120.735 146.645 122.814 146.513C124.885 146.363 126.611 145.843 128 144.943C128.15 145.269 128.203 145.437 128.141 145.455C128.088 145.472 128.088 145.56 128.168 145.719C128.823 145.181 129.407 144.846 129.929 144.714C130.442 144.573 130.955 144.484 131.451 144.449C131.946 144.405 132.424 144.326 132.884 144.202C133.353 144.061 133.849 143.743 134.38 143.232ZM133.061 140.85C132.53 140.268 132.389 140.259 132.663 140.824C132.928 141.388 133.061 141.397 133.061 140.85ZM131.637 139.88C131.637 139.333 131.592 139.298 131.495 139.783C131.398 140.259 131.442 140.295 131.637 139.88ZM129.743 138.751C129.513 138.813 129.265 138.831 129 138.813C128.734 138.795 128.672 138.945 128.823 139.263C129.132 139.36 129.38 139.474 129.566 139.607C129.761 139.73 130.008 139.854 130.309 139.951L129.743 138.751ZM129.672 143.955C129.752 144.114 129.61 144.246 129.265 144.334C129.194 144.167 129.327 144.043 129.672 143.955ZM128.071 142.191C127.956 141.679 127.787 141.45 127.557 141.512C127.327 141.574 127.097 141.635 126.867 141.688L127.327 142.659C127.557 142.597 127.717 142.509 127.787 142.403C127.858 142.288 127.956 142.218 128.071 142.191ZM125.77 139.801C126 140.286 126.46 140.436 127.15 140.259C126.92 139.774 126.46 139.616 125.77 139.801ZM124.549 142.553C124.699 142.879 124.735 143.091 124.664 143.205C124.584 143.311 124.699 143.417 125.009 143.523C124.929 143.364 124.912 143.179 124.956 142.994C124.991 142.8 124.85 142.65 124.549 142.553ZM122.806 142.985C123.186 143.796 123.575 144.061 123.965 143.788C123.929 143.435 123.797 143.285 123.558 143.347C123.328 143.399 123.071 143.276 122.806 142.985ZM121.478 141.415C121.708 141.362 121.788 141.247 121.708 141.089C121.487 141.141 121.407 141.247 121.478 141.415ZM122.345 142.826C121.691 142.808 121.434 143.223 121.584 144.096C121.664 143.717 121.868 143.532 122.195 143.541C122.522 143.549 122.575 143.311 122.345 142.826ZM120.841 141.3L120.496 141.388L120.726 141.874L121.071 141.785L120.841 141.3ZM120.009 144.467C120.744 144.652 121 144.502 120.77 144.017C120.54 143.532 120.284 143.682 120.009 144.467ZM119.31 143.823C119.001 144.255 118.594 144.44 118.107 144.37C117.62 144.299 117.089 144.334 116.496 144.467C116.965 144.899 117.558 145.075 118.302 144.996C119.054 144.917 119.39 144.52 119.31 143.823ZM118.452 142.403C117.992 141.433 117.656 141.335 117.434 142.103C117.213 142.87 117.434 143.267 118.098 143.294C117.514 142.35 117.638 142.059 118.452 142.403ZM116.151 144.555C116.187 144.908 116.081 145.014 115.824 144.899C115.567 144.775 115.505 144.969 115.612 145.481C115.886 145.781 116.169 145.763 116.461 145.428C116.771 145.084 116.656 144.793 116.151 144.555ZM114.797 145.393C114.718 145.225 114.514 145.137 114.187 145.128C113.851 145.111 113.709 145.278 113.744 145.631C114.019 145.393 114.293 145.419 114.567 145.719C114.833 146.019 114.912 145.913 114.797 145.393ZM114.736 146.487C114.028 146.645 113.789 146.963 114.028 147.457C114.417 147.73 114.718 147.748 114.939 147.527C115.151 147.298 115.081 146.954 114.736 146.487ZM113.037 145.781C112.806 145.296 112.585 145.031 112.364 144.987C112.152 144.943 111.886 144.864 111.568 144.758C112.037 145.19 112.116 145.446 111.824 145.507C111.532 145.569 111.497 145.843 111.727 146.337C111.922 145.931 112.152 145.799 112.408 145.922C112.674 146.046 112.877 145.993 113.037 145.781ZM113.143 146.839C108.771 147.765 103.887 148.506 98.4804 149.071C93.0385 149.565 87.5168 149.953 81.8979 150.235C82.128 150.729 82.2253 151.064 82.1811 151.249C81.7917 150.429 81.2962 150.059 80.6768 150.147C79.7565 150.967 78.6062 151.161 77.2258 150.729C75.8365 150.288 74.465 150.156 73.1023 150.323C73.5359 150.967 74.0668 151.249 74.6862 151.179C75.3056 151.099 75.81 151.479 76.1993 152.299C78.146 151.708 80.1016 151.629 82.0749 152.061C84.0393 152.484 85.6852 152.167 87.0125 151.091C87.7381 151.514 88.7203 151.664 89.9768 151.558C91.2333 151.443 92.0828 151.179 92.5341 150.756C94.0118 151.399 95.0914 151.391 95.7639 150.747C96.4364 150.103 97.5336 149.732 99.0556 149.644L99.5246 150.623C101.179 149.432 103.4 148.842 106.196 148.833C108.966 148.797 111.293 148.127 113.143 146.839ZM110.559 146.319C110.134 145.693 110.055 145.666 110.32 146.231C110.594 146.804 110.674 146.831 110.559 146.319ZM109.745 145.419C109.32 144.793 109.258 144.802 109.568 145.455C109.869 146.098 109.931 146.09 109.745 145.419ZM109.798 145.94C109.205 146.063 109.028 146.372 109.258 146.857C109.851 146.733 110.028 146.425 109.798 145.94ZM108.559 145.393C108.249 145.278 108.002 145.111 107.825 144.872C107.648 144.643 107.444 144.546 107.205 144.599C107.48 144.899 107.577 145.102 107.497 145.208C107.418 145.313 107.453 145.525 107.603 145.851C107.993 146.125 108.294 146.204 108.488 146.072C108.692 145.94 108.718 145.719 108.559 145.393ZM107.011 146.248C107.046 146.592 107.294 146.769 107.745 146.769C108.196 146.76 108.294 146.61 108.019 146.31C107.86 146.522 107.71 146.548 107.577 146.398C107.435 146.248 107.249 146.195 107.011 146.248ZM106.719 146.037C106.4 145.922 106.303 145.984 106.418 146.231C106.533 146.478 106.612 146.769 106.648 147.122L107.179 147.016L106.719 146.037ZM105.161 147.28C105.559 147.289 105.674 147.13 105.524 146.804L105.17 146.875L104.701 146.698C104.613 147.077 104.763 147.272 105.161 147.28ZM103.082 147.016L102.542 147.122L102.887 147.854L103.427 147.748L103.082 147.016ZM100.967 145.022C100.631 144.026 100.569 143.902 100.79 144.661C101.029 145.41 101.082 145.534 100.967 145.022ZM101.648 147.289C101.303 146.822 101.224 146.875 101.436 147.466C101.648 148.039 101.719 147.986 101.648 147.289ZM99.1706 145.358C99.0998 144.661 99.0379 144.59 98.9671 145.128C98.9052 145.675 98.9671 145.746 99.1706 145.358ZM99.967 147.862C100.206 147.818 100.286 147.713 100.215 147.554C99.9759 147.598 99.8962 147.704 99.967 147.862ZM98.507 146.01C98.737 146.495 98.914 146.469 99.0467 145.913C98.8078 145.957 98.6485 145.896 98.5689 145.737C98.4893 145.569 98.4716 145.657 98.507 146.01ZM96.0647 148.295C96.5868 148.021 97.2239 147.915 97.9583 147.959C98.6928 148.004 99.1087 147.836 99.1972 147.474C98.5158 147.421 97.9229 147.395 97.4009 147.395C96.8876 147.404 96.4364 147.704 96.0647 148.295ZM94.2507 145.702C94.5339 145.472 94.8082 145.428 95.0648 145.56C95.3214 145.693 95.4984 145.569 95.578 145.208C95.1798 144.925 94.8259 144.855 94.4985 144.996C94.1799 145.137 94.1003 145.375 94.2507 145.702ZM91.5961 148.78C92.2332 149.027 92.8969 149.053 93.5871 148.85C94.2684 148.647 94.9232 148.498 95.5249 148.392C94.8967 147.616 94.2419 147.466 93.5428 147.933C92.8526 148.401 92.2067 148.683 91.5961 148.78ZM93.6579 145.269C93.5428 145.287 93.4543 145.261 93.4189 145.181C93.3836 145.093 93.3039 145.066 93.18 145.093C93.2597 145.252 93.2685 145.34 93.2066 145.349C93.1446 145.358 93.1535 145.446 93.2331 145.604C93.357 145.587 93.4366 145.613 93.472 145.693C93.5074 145.772 93.5959 145.807 93.711 145.781C93.6313 145.613 93.6225 145.534 93.6844 145.525C93.7463 145.525 93.7375 145.437 93.6579 145.269ZM92.6049 146.769C92.7287 146.751 92.8349 146.769 92.9323 146.848C93.0296 146.919 93.1446 146.945 93.2597 146.928C93.3482 146.557 93.1889 146.363 92.7907 146.345C92.3925 146.319 92.3306 146.46 92.6049 146.769ZM86.9417 148.453C87.8177 149.194 88.5168 149.441 89.0477 149.186C89.5786 148.93 90.2423 148.824 91.0563 148.868C90.3042 148.109 89.6405 147.951 89.0654 148.392C88.4902 148.833 87.7823 148.85 86.9417 148.453ZM87.8442 146.213C88.0389 146.354 88.5079 146.372 89.2335 146.257C89.2512 145.728 88.9769 145.507 88.4283 145.596C87.8796 145.684 87.685 145.887 87.8442 146.213ZM85.5967 146.037C85.1985 145.746 85.0392 145.816 85.1011 146.24C85.1719 146.663 85.3312 146.857 85.5701 146.822C85.4109 146.495 85.4462 146.354 85.6675 146.416C85.9064 146.469 85.8798 146.337 85.5967 146.037ZM83.6942 149.459C84.1809 149.388 84.7118 149.265 85.287 149.097C85.8621 148.921 86.34 148.983 86.747 149.274C85.9506 148.692 85.2604 148.48 84.6941 148.656C84.1101 148.824 83.7827 149.088 83.6942 149.459ZM86.163 150.941C86.2426 151.1 86.0922 151.214 85.7294 151.267C85.6498 151.1 85.7913 150.994 86.163 150.941ZM85.0569 151.099C85.2162 151.426 85.0304 151.585 84.4994 151.576C83.9685 151.558 83.7473 151.373 83.8446 151.011C84.172 151.135 84.349 151.108 84.3932 150.932C84.4375 150.747 84.6587 150.8 85.0569 151.099ZM82.9774 148.771C82.6058 148.824 82.4731 148.665 82.5616 148.303C82.243 148.171 82.0837 148.198 82.1014 148.365C82.1191 148.533 82.0041 148.639 81.7563 148.674L81.9864 149.168L82.5881 149.609C82.4288 149.283 82.4996 149.141 82.7828 149.186C83.0659 149.238 83.1279 149.097 82.9774 148.771ZM79.9069 146.848C80.3051 147.139 80.6502 147.174 80.9422 146.972C81.2343 146.76 81.5971 146.707 82.0483 146.822C81.6944 146.345 81.2697 146.151 80.783 146.213C80.2874 146.275 79.9954 146.478 79.9069 146.848ZM81.1989 148.753C80.491 149.194 79.2433 149.318 77.447 149.124C75.6507 148.912 74.2438 149.133 73.235 149.776C74.5977 149.609 76.0224 149.653 77.5178 149.9C79.0132 150.138 80.2432 149.759 81.1989 148.753ZM78.2611 146.284L77.7036 146.354C77.739 146.698 77.9514 146.883 78.3673 146.919C78.7743 146.954 78.8451 146.813 78.5619 146.504C78.4469 146.522 78.3407 146.442 78.2611 146.284ZM76.5975 146.495L76.2259 146.539L76.571 147.272L76.9426 147.227L76.5975 146.495ZM75.0047 146.442C75.1552 146.769 75.4383 147.077 75.8365 147.377C75.4472 146.557 75.1729 146.248 75.0047 146.442ZM74.1464 146.292C74.2261 146.451 74.1995 146.548 74.0756 146.557C74.3057 147.051 74.5712 147.183 74.8632 146.98C74.6597 146.831 74.5535 146.672 74.5358 146.504C74.5269 146.328 74.3942 146.257 74.1464 146.292ZM74.1199 147.069C73.6863 146.425 73.3854 146.204 73.2173 146.398C73.0492 146.592 72.6156 146.636 71.9165 146.557C72.3236 146.857 72.766 147.104 73.2527 147.307C73.7394 147.501 74.0314 147.421 74.1199 147.069ZM69.5628 146.566C70.0937 146.848 70.43 146.945 70.5804 146.839C70.7308 146.733 71.0228 146.742 71.4741 146.866C71.4122 146.178 71.0759 145.878 70.4477 145.948C69.8283 146.019 69.5274 146.222 69.5628 146.566ZM72.1732 150.42C72.4209 150.394 72.4652 150.341 72.297 150.279C72.1378 150.2 72.0935 150.253 72.1732 150.42C71.598 150.314 71.5095 150.403 71.9165 150.711C72.3236 151.002 72.4032 150.905 72.1732 150.42ZM71.2883 148.965C70.7928 149.018 70.66 149.3 70.8901 149.785L71.4476 149.724C71.3679 149.556 71.3414 149.432 71.3679 149.344C71.3856 149.247 71.3591 149.124 71.2883 148.965ZM71.2883 151.038C71.4122 151.02 71.3945 150.853 71.244 150.526L70.8724 150.57C71.0228 150.897 71.1644 151.047 71.2883 151.038ZM69.8371 149.644C69.961 149.627 70.0141 149.45 69.9787 149.106L69.4212 149.168C69.5716 149.494 69.7132 149.653 69.8371 149.644ZM70.191 150.385C69.023 150.685 67.793 150.641 66.4923 150.262C65.2004 149.873 64.4748 150.376 64.3509 151.77C64.7314 151.735 64.988 151.876 65.1473 152.211C65.5986 152.334 65.749 152.237 65.5986 151.911C65.4393 151.576 65.4481 151.32 65.6251 151.135C66.7666 151.885 67.7311 152.043 68.5098 151.611C69.2796 151.17 69.8459 150.764 70.191 150.385ZM66.333 148.462C66.5631 148.956 66.8108 149.186 67.0586 149.159C66.8197 148.674 66.5808 148.436 66.333 148.462ZM61.245 148.956C62.0325 149.221 62.8201 149.362 63.6076 149.38C64.3951 149.388 65.3596 149.335 66.4834 149.221C65.6693 148.612 64.7668 148.365 63.758 148.462C62.767 148.559 61.9263 148.727 61.245 148.956ZM64.3951 144.802C64.3774 145.313 64.2359 145.287 63.9615 144.714C63.6961 144.14 63.8377 144.176 64.3951 144.802ZM63.289 146.195C62.7316 145.56 62.6165 145.534 62.9528 146.098C63.2802 146.663 63.3952 146.698 63.289 146.195ZM62.2272 146.046C61.7936 145.402 61.7051 145.366 61.9794 145.94C62.2537 146.513 62.3422 146.548 62.2272 146.046ZM63.0324 151.884C62.3865 151.082 62.2891 150.791 62.7139 151.011C63.1475 151.232 63.5722 151.232 63.9969 151.02L63.643 150.279C62.4661 150.561 61.245 150.544 59.9796 150.226C58.7143 149.909 57.732 150.12 57.033 150.861C57.617 150.985 58.3603 151.223 59.2452 151.576C60.1389 151.929 60.6964 151.664 60.9353 150.782C61.4839 151.937 62.183 152.308 63.0324 151.884ZM33.6458 149.9C34.9731 150.191 36.4597 150.685 38.1056 151.382C39.7514 152.07 41.1849 152.299 42.3884 152.079C42.645 152.07 42.9812 152.22 43.3971 152.537C43.6537 152.52 43.8219 152.387 43.8926 152.131C43.9634 151.876 44.1758 151.823 44.5121 151.973C46.273 152.899 47.91 153.225 49.4231 152.961C50.9451 152.687 52.4051 152.934 53.8121 153.693C55.2102 153.587 56.2543 153.64 56.9445 153.843C57.6347 154.045 58.5638 154.266 59.7319 154.522C59.7938 153.825 60.1301 153.499 60.7406 153.534C61.3512 153.569 61.944 153.64 62.5281 153.763C63.1121 153.878 63.5899 153.922 63.9704 153.887C64.3509 153.851 64.4394 153.49 64.2536 152.828C60.6521 152.987 57.1038 152.767 53.5997 152.176C50.0868 151.567 46.7419 151.514 43.5564 152.034C43.1936 151.541 42.5476 151.152 41.6185 150.861C41.8574 151.355 41.9459 151.69 41.8928 151.867C41.6097 151.54 41.3619 151.294 41.1495 151.144C40.946 150.985 40.6983 150.738 40.4062 150.42C36.8137 150.068 32.9379 149.274 28.7879 148.057C29.2038 149.212 29.9736 149.785 31.0797 149.759C32.1946 149.688 33.053 149.75 33.6458 149.9ZM60.8291 148.489C60.5017 148.348 60.1654 148.33 59.8292 148.453C59.4929 148.568 59.3779 148.877 59.4841 149.38C59.6611 149.194 60.0416 149.159 60.6167 149.283C61.1919 149.388 61.2627 149.124 60.8291 148.489ZM59.7496 147.042C59.2629 146.575 59.1567 146.619 59.431 147.201C59.6965 147.774 59.8115 147.721 59.7496 147.042ZM57.3516 145.719C57.502 146.046 57.6613 146.372 57.8205 146.698C57.971 147.025 58.2453 147.174 58.6258 147.139C58.8027 146.954 58.7408 146.619 58.4399 146.134C58.1391 145.649 57.7763 145.507 57.3516 145.719ZM57.4223 148.78C57.679 148.762 57.7232 148.709 57.5551 148.639C57.3869 148.568 57.3427 148.612 57.4223 148.78C57.3781 148.956 57.2719 148.877 57.1126 148.55L56.7321 148.586C56.6348 148.93 56.7941 149.133 57.21 149.186C57.6347 149.23 57.7055 149.097 57.4223 148.78ZM56.1658 148.63C55.9092 148.647 55.7322 148.621 55.6349 148.542C55.5287 148.462 55.3606 148.436 55.104 148.453C55.1305 148.789 55.3163 149.036 55.6437 149.177C55.98 149.318 55.9888 149.485 55.688 149.688C54.6261 149.935 53.5378 149.935 52.4317 149.679C51.3167 149.415 50.1929 149.327 49.0426 149.397C49.0691 149.732 49.078 149.944 49.0514 150.032C49.0249 150.12 49.0249 150.332 49.0603 150.667C49.8567 150.958 50.6177 151.029 51.3433 150.897C52.0689 150.756 52.8033 150.923 53.5466 151.382C53.2369 150.72 53.1396 150.385 53.2634 150.376C54.3164 151.488 55.2102 151.77 55.9269 151.197C56.626 150.641 56.7056 149.776 56.1658 148.63ZM55.0243 148.718C54.4138 148.251 54.2722 148.303 54.6084 148.877C54.9447 149.45 55.0863 149.397 55.0243 148.718ZM49.9098 148.33C50.4761 148.965 50.8477 149.194 51.0247 149.018C51.2017 148.833 51.6441 148.806 52.3609 148.921C51.9981 148.436 51.6176 148.251 51.2105 148.365C50.8035 148.48 50.3611 148.462 49.9098 148.33ZM46.2199 148.057C46.8658 148.021 47.3702 148.109 47.7418 148.348C48.1135 148.577 48.5294 148.762 48.9895 148.903C48.7594 148.409 48.2462 148.021 47.4498 147.73C46.6534 147.43 46.2464 147.545 46.2199 148.057ZM47.6534 148.983C47.0959 149.186 46.5119 149.221 45.9278 149.088C45.335 148.956 44.9545 148.974 44.7775 149.159C45.4235 149.971 46.1491 150.394 46.9632 150.429C47.7595 150.456 47.9896 149.979 47.6534 148.983ZM41.6451 148.815C42.0875 149.468 42.5653 149.785 43.0786 149.759C43.5918 149.732 44.1758 149.697 44.8129 149.662C44.167 148.85 43.6449 148.586 43.2467 148.859C42.8485 149.133 42.3176 149.115 41.6451 148.815ZM43.2909 147.713C43.9103 148.189 44.0519 148.136 43.7157 147.563C43.3794 146.989 43.2378 147.042 43.2909 147.713ZM40.3443 143.576C40.7337 143.558 40.8841 143.461 40.8044 143.302C40.4239 143.32 40.2647 143.408 40.3443 143.576ZM41.2469 147.563C41.4239 147.386 41.6805 147.369 42.0167 147.527C42.353 147.677 42.4415 147.589 42.2822 147.263C42.0256 147.28 41.7513 147.245 41.4504 147.174C41.1584 147.104 41.0876 147.236 41.2469 147.563ZM41.4504 148.824C39.7426 148.568 38.0171 148.18 36.2562 147.668C34.4953 147.148 32.9556 146.91 31.6549 146.945C33.4246 147.898 35.1767 148.462 36.9198 148.647C38.6542 148.824 40.1585 148.886 41.4504 148.824ZM38.5746 146.936C38.2118 146.451 38.1675 146.487 38.4418 147.069C38.7161 147.642 38.7604 147.598 38.5746 146.936ZM37.0614 146.248L36.2827 146.284C36.5924 146.936 36.9375 147.095 37.2915 146.742L37.0614 146.248ZM34.7696 141.821C34.3006 141.671 34.1325 141.803 34.2652 142.218C34.398 142.623 34.69 142.906 35.159 143.055C34.9997 142.729 34.9377 142.517 34.9643 142.438C34.9908 142.35 34.92 142.147 34.7696 141.821ZM31.2567 146.954C30.8408 146.628 30.3099 146.354 29.6727 146.125C29.0356 145.896 28.664 145.94 28.5578 146.275C28.6905 146.275 28.8321 146.434 28.9914 146.769C29.2569 146.76 29.6727 146.875 30.2479 147.113C30.8231 147.342 31.1593 147.289 31.2567 146.954ZM24.5582 144.114C25.3723 144.431 25.5758 144.378 25.1864 143.982C24.7971 143.567 24.5936 143.62 24.5582 144.114Z" fill="white"/>
<path d="M2.66655 126.623C2.85237 127.444 2.60461 128.246 1.92326 129.049C1.2419 129.852 0.967593 130.751 1.10917 131.748C1.56931 131.474 2.14447 130.698 2.85237 129.419C3.56027 128.14 3.61336 127.135 3.01165 126.412C3.92307 124.312 5.48929 122.469 7.72802 120.89C9.96674 119.311 12.1789 118.015 14.3646 117C15.6919 116.357 17.028 115.475 18.3642 114.354C19.7092 113.234 20.8861 112.987 21.8948 113.622C22.2665 113.711 22.4434 113.561 22.4434 113.172C22.4434 112.784 22.5585 112.52 22.7797 112.387C23.2841 112.705 23.3814 113.111 23.054 113.613C25.5228 112.282 28.0535 111.064 30.6551 109.962C33.2566 108.859 36.2297 108.233 39.5657 108.083C40.9815 106.302 42.9282 105.472 45.4236 105.605C47.9189 105.728 50.0338 105.04 51.7593 103.532C52.1751 103.435 52.3344 103.576 52.2459 103.938C52.1574 104.299 52.299 104.529 52.6618 104.617C53.2547 104.564 53.4494 104.379 53.2458 104.035C53.0423 103.691 52.9804 103.338 53.0689 102.976C53.8918 102.791 55.0156 102.579 56.4314 102.35C57.8472 102.121 58.9444 101.609 59.7142 100.833L60.3337 101.856C62.0238 100.524 63.8731 100.11 65.8818 100.604C66.3419 100.33 66.5543 100.039 66.5278 99.7481C66.5101 99.4482 66.4481 99.0954 66.3508 98.6896C68.4125 98.9984 70.0584 98.822 71.2884 98.1604C72.5183 97.4901 73.7306 96.7316 74.9164 95.8584C81.6768 94.4207 88.0479 92.4096 94.0296 89.8077C100.011 87.2145 106.108 84.7449 112.311 82.3899C112.727 82.3017 112.957 82.1164 113.028 81.843C113.099 81.5696 113.355 81.2961 113.815 81.0227C115.868 80.5641 117.682 79.6997 119.257 78.4384C120.832 77.1859 122.434 75.9775 124.08 74.8309C124.443 74.1518 124.602 73.7019 124.558 73.4991C124.505 73.2962 124.602 72.7405 124.823 71.8232C125.23 71.735 125.575 71.5233 125.85 71.2058C126.124 70.8883 126.46 70.6766 126.876 70.5884C128.292 71.1352 129.15 71.9732 129.46 73.111C129.761 74.2488 129.752 75.4571 129.442 76.7361C129.124 78.015 128.672 79.2587 128.079 80.467C127.487 81.6754 126.788 82.7603 125.965 83.7217C126.053 84.1363 126.204 84.3127 126.416 84.2686C126.619 84.2245 126.743 84.1098 126.788 83.9246C126.239 85.3446 125.354 86.7647 124.124 88.2112C122.894 89.6489 121.408 90.3545 119.673 90.3104C117.302 92.8242 114.612 94.6764 111.603 95.876C108.595 97.0667 105.418 98.134 102.082 99.0513C99.622 100.383 97.1443 101.565 94.6579 102.597C92.1714 103.629 89.5079 104.379 86.6763 104.846C85.5348 105.534 84.3402 106.257 83.0837 107.016C81.8361 107.774 80.4911 107.88 79.0753 107.333C78.5797 107.792 78.04 108.189 77.4648 108.533C76.8985 108.877 76.3852 109.186 75.9251 109.459C75.3765 109.327 75.1553 109.027 75.2703 108.577C75.3853 108.118 75.1641 107.827 74.6155 107.686C74.1642 107.96 74.0492 108.224 74.2792 108.471C74.5093 108.718 74.4651 109.098 74.1465 109.6C72.7307 110.606 71.0406 111.161 69.0762 111.258C67.1118 111.356 65.3951 111.999 63.9351 113.19C61.6521 113.79 59.3957 114.301 57.1481 114.716C54.9094 115.131 52.8565 115.986 50.9806 117.265C46.1403 118.006 41.6186 119.223 37.4155 120.899C33.2123 122.575 28.7614 123.898 24.0539 124.877C22.5939 126.068 20.9392 126.87 19.0898 127.285C17.2404 127.699 15.683 128.528 14.4 129.763C13.4443 129.719 12.3117 129.975 11.0109 130.531C9.71013 131.086 8.60404 131.827 7.69262 132.762C6.7812 133.697 6.02906 134.773 5.44505 135.982C4.85218 137.19 4.79024 138.434 5.25037 139.713C7.5068 143.937 10.2411 147.801 13.4531 151.302C16.6652 154.795 20.9038 157.679 26.1776 159.937C30.2569 163.069 35.0352 165.741 40.5037 167.955C45.981 170.169 51.6885 171.809 57.6348 172.885C57.095 175.073 57.2366 176.855 58.0684 178.213C56.8473 180.039 56.1659 181.997 56.0332 184.096C55.9093 186.195 55.0244 187.809 53.3786 188.956C52.6087 188.956 52.1751 188.709 52.1044 188.206C52.0336 187.703 51.8389 187.315 51.5203 187.042C51.069 187.315 50.6355 187.307 50.2196 187.015C49.8125 186.724 49.3259 186.504 48.7772 186.372C45.397 185.154 41.2912 183.664 36.4864 181.9C31.6815 180.136 27.6288 178.081 24.3282 175.726C23.0009 174.817 21.6913 173.82 20.4082 172.736C19.1252 171.642 17.8244 170.645 16.4882 169.745C15.8511 169.199 15.1609 168.837 14.4265 168.661C13.7009 168.484 13.0107 168.114 12.3647 167.576C10.3915 166.12 8.78986 164.374 7.54219 162.328C6.30337 160.281 4.80794 158.464 3.06474 156.877C2.05599 154.689 1.18881 152.299 0.463216 149.706C-0.25353 147.113 -0.138497 144.281 0.808317 141.23C0.206604 138.954 -0.00576577 136.484 0.16236 133.812C0.339334 131.175 1.17111 128.767 2.66655 126.623ZM121.319 87.2322C121.31 86.456 121.239 86.3942 121.08 87.0293C120.921 87.6732 121 87.7349 121.319 87.2322ZM103.79 94.5441C104.117 94.8176 104.25 95.0381 104.206 95.2233C104.161 95.3997 104.321 95.5408 104.683 95.629C105.409 94.2531 106.418 93.7327 107.692 94.0502C108.975 94.3677 109.957 93.9267 110.639 92.7448C109.267 92.7977 108.019 92.9212 106.904 93.1329C105.79 93.3358 104.745 93.8032 103.79 94.5441C102.834 94.5 102.241 94.747 102.011 95.2674C101.781 95.7966 101.993 96.3258 102.631 96.8727C103.091 96.5993 103.445 96.3435 103.692 96.1141C103.94 95.8848 103.976 95.3556 103.79 94.5441ZM110.568 91.854C111.072 91.3953 111.037 91.3424 110.462 91.6864C109.895 92.0304 109.931 92.0833 110.568 91.854ZM100.162 96.2641C100.896 96.4405 101.347 96.1671 101.533 95.435C101.215 95.1616 101.011 95.2057 100.914 95.5761C100.825 95.9377 100.569 96.1671 100.162 96.2641C99.8432 95.9907 99.6839 96.0436 99.6839 96.4405C99.6928 96.8286 99.507 96.9785 99.1353 96.8903C99.268 96.3435 99.0999 96.2553 98.6221 96.6169C98.1442 96.9785 98.1796 97.2343 98.7283 97.3666L98.6575 97.64C99.3477 97.9928 99.8432 97.5342 100.162 96.2641ZM99.1353 96.8815C99.0468 97.2431 98.9141 97.4107 98.7283 97.3578C98.7637 97.1814 98.9052 97.0138 99.1353 96.8815ZM97.631 98.2575C97.7195 97.887 97.6753 97.6841 97.4894 97.64C97.3125 97.5959 97.4452 97.4372 97.8965 97.1638C97.5779 96.8903 97.0028 96.8462 96.1798 97.0314C95.817 97.7106 95.8524 98.1604 96.286 98.3633C96.7284 98.5662 97.1709 98.5309 97.631 98.2575ZM95.1534 97.6489C94.5163 97.8782 93.9146 98.1693 93.3394 98.5132C92.7731 98.8572 92.1006 99.0336 91.3219 99.0336C90.8264 99.4923 90.8706 99.6952 91.4635 99.6511C92.0563 99.5981 92.2245 99.7393 91.9413 100.057C91.3927 99.9245 91.3219 100.198 91.7378 100.877C92.2864 100.233 93.0031 99.6863 93.8969 99.2277C94.7906 98.7602 95.2065 98.2398 95.1534 97.6489ZM90.0211 99.5805L89.7468 100.674C90.2954 100.807 90.6848 100.807 90.9148 100.674C90.5963 100.401 90.4459 100.216 90.4636 100.127C90.4901 100.03 90.3485 99.8539 90.0211 99.5805ZM89.1982 100.542C87.924 100.224 86.9152 100.754 86.1896 102.121L87.5612 102.456C87.8355 102.13 88.0656 101.803 88.2425 101.459C88.4284 101.124 88.7469 100.815 89.1982 100.542ZM82.8979 102.482L83.5173 102.341C83.7916 102.791 84.0748 102.862 84.3402 102.544C84.6145 102.218 84.7915 101.883 84.8889 101.521C84.5261 101.433 84.0659 101.706 83.5173 102.35C83.243 101.883 83.0306 101.927 82.8979 102.482C82.3493 102.35 82.2166 102.509 82.4909 102.959C82.7652 103.408 82.9068 103.25 82.8979 102.482ZM81.8714 104.255C81.783 103.841 81.7653 103.505 81.8361 103.232C81.9068 102.959 81.8715 102.703 81.7299 102.482C80.3583 103.311 78.8186 103.849 77.1108 104.105C75.403 104.361 73.8545 104.899 72.483 105.728C74.3146 106.178 75.9163 106.178 77.2878 105.746C78.6594 105.305 80.1902 104.811 81.8714 104.255ZM80.4999 103.92C80.1371 104.599 80.0486 104.582 80.2256 103.849C80.4114 103.126 80.4999 103.144 80.4999 103.92ZM73.8014 108.665L73.2528 108.533L73.1201 109.08L73.6687 109.212L73.8014 108.665ZM67.5542 108.004C67.7843 108.639 68.0851 109.001 68.4479 109.098C68.7665 108.595 69.0851 108.092 69.4036 107.589C69.7222 107.087 70.0673 107.263 70.4301 108.136C70.7044 107.042 70.6513 106.451 70.2885 106.363C69.5629 106.954 68.6692 107.025 67.6162 106.575C67.3949 107.483 67.1118 107.854 66.7667 107.669C66.4216 107.483 66.0499 107.439 65.634 107.536C65.3155 108.806 65.5544 109.45 66.3242 109.45C66.6959 109.539 66.8906 109.344 66.9083 108.868C66.926 108.383 67.1472 108.092 67.5542 108.004ZM65.1562 108.286C64.7934 108.198 64.3864 108.286 63.9262 108.568C64.289 108.657 64.6961 108.559 65.1562 108.286ZM62.9617 110.068C63.3334 110.156 63.5369 110.112 63.5811 109.927C63.2183 109.838 63.0148 109.883 62.9617 110.068ZM61.8025 110.077C62.0769 109.75 62.6697 109.318 63.5811 108.771C61.7052 108.507 59.9266 109.036 58.2365 110.359C59.4222 110.262 59.6877 110.376 59.0241 110.694C58.3604 111.012 58.2631 111.426 58.7232 111.929C59.5904 111.558 59.9709 111.02 59.847 110.315C59.7319 109.609 60.3779 109.53 61.8025 110.077ZM60.9796 111.029C60.7938 110.209 60.6257 110.112 60.4664 110.756C60.3071 111.4 60.4841 111.488 60.9796 111.029ZM57.4136 110.156C57.1393 110.473 56.7322 110.571 56.1836 110.429C55.635 110.297 55.3607 110.615 55.3607 111.391C55.228 112.714 55.6881 113.014 56.7322 112.308C57.7852 111.602 58.0064 110.888 57.4136 110.156ZM54.9536 113.04C55.0864 112.493 54.9802 112.176 54.6085 112.088C54.2457 111.999 54.0157 111.744 53.9183 111.338C53.644 111.655 53.2724 111.805 52.7857 111.788C52.3079 111.77 51.8654 111.805 51.4495 111.894C51.5469 112.299 51.4938 112.723 51.2814 113.155C51.0779 113.587 51.246 113.869 51.7946 114.01C51.9716 112.502 52.3344 112.008 52.883 112.537C53.4494 113.058 54.1307 113.225 54.9536 113.04ZM54.9359 108.392C55.3961 108.118 55.5377 107.907 55.3784 107.774C55.2191 107.633 55.0333 107.589 54.8298 107.642C54.6262 107.686 54.4581 107.792 54.3165 107.951C54.1838 108.101 54.3873 108.251 54.9359 108.392ZM50.4939 112.229C50.1311 112.141 49.8125 112.255 49.5382 112.573C49.2728 112.89 48.8569 112.987 48.3083 112.855C48.087 113.763 48.1313 114.354 48.4498 114.628C48.7684 114.125 49.1135 113.719 49.4763 113.428C49.8302 113.128 50.1753 112.74 50.4939 112.229ZM45.0165 114.372C45.5651 114.504 45.7067 114.346 45.4236 113.896C45.1493 113.437 45.0165 113.596 45.0165 114.372C44.698 114.099 44.4856 114.143 44.3971 114.513C44.3086 114.875 44.2201 115.236 44.1228 115.607C44.5387 115.51 44.8926 115.457 45.1847 115.43C45.4855 115.404 45.6802 115.21 45.7687 114.848C45.4059 114.76 45.1493 114.593 45.0165 114.372ZM41.0434 116.304C40.7691 115.845 40.2648 115.536 39.5303 115.351L39.1941 116.718C39.7427 116.851 40.3532 116.709 41.0434 116.304ZM36.1767 117.142C35.4953 116.78 35.1768 116.895 35.221 117.486C35.2741 118.077 35.0883 118.421 34.6724 118.509C35.4068 118.694 35.9023 118.235 36.1767 117.142ZM34.3981 118.447C34.2122 117.627 34.0264 117.583 33.8494 118.315C33.6636 119.038 33.8494 119.082 34.3981 118.447ZM34.7343 117.071L33.9114 116.868L33.7787 117.415L34.6016 117.618L34.7343 117.071ZM31.1771 119.682C31.5488 119.77 31.7877 119.779 31.8939 119.717C32.0089 119.647 32.2478 119.655 32.6106 119.752C33.0177 118.879 33.1238 118.279 32.9115 117.935C32.708 117.591 32.5398 118.085 32.4071 119.408C32.0443 119.32 31.6373 119.408 31.1771 119.682C30.4515 119.505 30.2215 119.638 30.4958 120.096C30.7701 120.555 31.0002 120.414 31.1771 119.682ZM29.3985 119.832C29.1773 119.964 28.9561 120.255 28.7526 120.687C28.5491 121.12 28.7437 121.314 29.3366 121.269C29.5578 120.352 29.5755 119.876 29.3985 119.832ZM27.6819 120.864C26.9563 120.687 26.6112 120.89 26.6554 121.481L27.2041 121.613C27.2925 121.243 27.3899 121.075 27.4784 121.102C27.5757 121.12 27.6376 121.04 27.6819 120.864ZM25.0804 121.966C23.7973 121.649 23.0452 121.949 22.8239 122.866C23.1956 122.954 23.4433 122.919 23.5761 122.76C23.7177 122.601 23.9212 122.742 24.1955 123.201C24.2397 123.016 24.5406 122.601 25.0804 121.966ZM20.833 123.827C20.6471 123.007 20.4613 122.963 20.2844 123.695C20.1074 124.418 20.2932 124.462 20.833 123.827Z" fill="white"/>
</svg>
