<svg width="320" height="261" viewBox="0 0 320 261" fill="none" xmlns="http://www.w3.org/2000/svg">
<path d="M116.424 97.7285C116.643 97.5617 116.833 97.399 116.999 97.233C117.164 97.0671 117.449 97.0625 117.857 97.1937C117.904 96.4058 117.881 95.9418 117.787 95.7838C117.653 96.2611 117.382 96.5122 116.969 96.5261C116.546 96.5439 116.365 96.9422 116.424 97.7285C115.86 98.5429 115.207 99.036 114.479 99.2328C113.357 98.9826 111.949 99.2993 110.245 100.187C108.545 101.085 106.917 101.587 105.364 101.71L105.409 101.013C104.129 101.744 102.938 102.271 101.84 102.605C100.741 102.938 99.4075 103.265 97.8508 103.58C97.7685 103.28 97.7784 103.092 97.8881 102.999C97.9941 102.914 98.0611 102.717 98.0754 102.401C96.9163 102.834 95.9823 103.444 95.2669 104.21C94.5477 104.983 93.5697 105.525 92.3191 105.828C92.349 105.364 92.3068 105.139 92.2103 105.155C91.4173 106.326 90.3829 106.959 89.0932 107.049C87.8067 107.15 86.7773 107.638 86.0087 108.506C86.263 107.712 86.309 107.402 86.1396 107.576C85.9773 107.752 85.9197 107.456 85.967 106.686C85.328 107.085 84.9462 107.446 84.8253 107.764C84.7006 108.089 84.7992 108.221 85.1065 108.173C85.4138 108.124 85.5831 107.951 85.6005 107.646C85.7901 107.926 85.6921 108.2 85.3164 108.481C84.9408 108.763 84.5975 108.932 84.2832 108.977C84.5375 108.182 84.4576 107.81 84.043 107.878C83.7183 108.232 83.7046 108.428 84.0095 108.452C84.3105 108.483 84.3577 108.664 84.1295 109.001C81.392 110.181 78.9027 111.274 76.6444 112.261C74.3855 113.266 71.8912 114.402 69.1608 115.687C69.4064 115.044 69.6264 114.74 69.8315 114.769C70.0329 114.806 70.4016 114.622 70.9377 114.218C70.1372 113.926 69.2928 114.092 68.3829 114.724C67.473 115.355 66.6011 115.913 65.7571 116.384C65.9229 116.947 66.3369 116.897 66.9883 116.237C67.6359 115.585 68.1659 115.362 68.5567 115.577C67.8872 116.458 66.7767 117.137 65.2182 117.608C63.0969 118.959 60.9589 120.173 58.8043 121.249C56.649 122.343 54.6759 123.409 52.8889 124.44C51.9053 125.569 50.6212 126.548 49.0429 127.397C47.4716 128.249 46.1033 128.983 44.9527 129.585C44.6323 129.812 44.3652 130.037 44.1521 130.244C43.932 130.447 43.7164 130.726 43.4876 131.082C42.5376 131.638 41.4607 132.268 40.2531 132.981C39.0455 133.693 37.9035 134.568 36.8233 135.612C35.7892 135.923 34.9497 136.469 34.2946 137.238C33.6396 138.007 32.7963 138.561 31.7653 138.883C29.9373 140.603 27.7592 142.267 25.2343 143.886C22.7127 145.516 20.3761 147.349 18.2321 149.372C17.9024 149.769 17.6508 150.169 17.4697 150.585C17.2924 150.994 17.0369 151.401 16.7072 151.798C14.6655 152.267 13.5635 151.639 13.3803 149.904C13.2009 148.162 13.1876 146.135 13.3435 143.832C17.2125 139.982 21.2387 136.424 25.4254 133.167C29.607 129.954 33.8682 126.91 38.1913 124.036C42.5125 121.216 46.8605 118.548 51.2247 116.036C55.587 113.579 59.8876 111.053 64.1239 108.43C65.8836 107.894 67.9063 106.936 70.1813 105.56C72.4594 104.196 74.6346 103.25 76.7106 102.716C76.9144 102.68 77.0006 102.548 76.9654 102.327C76.9232 102.103 77.0094 101.971 77.2202 101.938C77.5313 101.883 77.7727 101.995 77.9661 102.267C79.2541 101.281 80.9347 100.456 83.0251 99.8091C85.1079 99.1767 86.8946 98.3678 88.3889 97.3749C89.5193 97.3711 90.5852 97.0672 91.5935 96.4668C92.6019 95.8664 93.5322 95.3652 94.3782 94.9415C94.4393 95.5536 94.6922 95.6438 95.1336 95.2013C95.5713 94.7662 95.901 94.3691 96.1292 94.0316C96.8537 93.9437 97.603 93.859 98.3808 93.7701C99.1548 93.6886 99.8664 93.4558 100.505 93.0754C100.721 92.8978 100.941 92.6766 101.163 92.4191C101.385 92.1615 101.652 91.9359 101.978 91.7492C102.182 91.7314 102.307 91.7947 102.352 91.9463C102.397 92.0979 102.519 92.1685 102.726 92.1434C103.027 92.2763 103.339 92.2023 103.664 91.9322C103.986 91.6695 104.363 91.4348 104.782 91.2394C105.515 91.0171 106.293 90.9101 107.118 90.9185C107.938 90.9342 108.527 90.5292 108.889 89.7144C109.579 90.1349 110.262 90.0077 110.925 89.3258C111.63 89.5973 112.452 89.5767 113.4 89.2784C114.348 88.98 115.348 88.6518 116.398 88.2756C117.452 87.9103 118.48 87.578 119.474 87.2934C120.475 87.0123 121.377 86.9397 122.2 87.0678C124.01 86.2149 125.945 85.73 128.029 85.6055C130.101 85.5029 132.202 85.0553 134.323 84.2482C134.508 84.5716 134.919 84.6955 135.547 84.6237C136.175 84.5518 136.701 84.3546 137.138 84.0392C139.852 83.7702 141.993 83.5359 143.563 83.3472C145.129 83.1657 147.119 82.8831 149.537 82.521C149.927 82.8738 150.411 83.0618 150.986 83.0924C151.557 83.1303 151.961 82.8262 152.207 82.1838C152.689 82.8688 153.465 82.9179 154.54 82.3418C157.538 82.732 160.458 82.7789 163.294 82.4789C166.129 82.1971 168.772 82.5386 171.235 83.4998C171.453 83.3693 171.591 83.1712 171.663 82.9306C171.728 82.6865 171.863 82.5791 172.075 82.6119C172.91 82.7181 173.811 82.8848 174.792 83.1011C175.769 83.3246 176.521 83.472 177.048 83.5432C177.466 83.6054 177.862 83.5373 178.235 83.3462C178.607 83.1552 179.061 83.097 179.584 83.1756C182.198 83.2528 184.566 83.6496 186.678 84.3517C188.79 85.0719 191.047 85.5794 193.447 85.8814C194.277 86.0493 195.216 86.2444 196.253 86.4525C197.295 86.6713 198.077 86.7602 198.609 86.7044C201.628 87.3736 204.558 88.1821 207.413 89.1188C210.259 90.0882 212.988 90.8419 215.604 91.3726C223.038 94.6943 230.363 97.8691 237.579 100.879C244.797 104.073 252.008 108.095 259.216 112.937C260.962 114.193 262.658 115.442 264.308 116.678C265.954 117.92 267.528 119.404 269.041 121.124C271.835 122.925 274.495 125.305 277.015 128.242C279.531 131.205 281.774 134.473 283.725 138.047C283.966 139.552 284.241 140.89 284.552 142.089C284.86 143.278 285.138 144.626 285.38 146.113C285.124 146.843 284.925 147.463 284.794 147.987C284.652 148.516 284.493 149.414 284.319 150.683C283.727 149.702 282.972 149.221 282.057 149.269C281.135 149.313 280.297 149.482 279.523 149.767C279.314 149.662 279.231 149.278 279.263 148.621C278.493 148.917 277.848 148.851 277.336 148.428C276.825 148.004 276.192 147.695 275.456 147.501C276.136 146.818 276.939 146.41 277.864 146.275C278.782 146.137 279.542 145.541 280.146 144.479C279.859 143.827 279.428 143.315 278.861 142.947C278.294 142.579 277.974 141.957 277.922 141.073C278.119 141.338 278.435 141.579 278.847 141.787C278.659 141.351 278.307 140.841 277.804 140.247C277.298 139.661 276.935 139.478 276.71 139.706C272.843 135.797 269.011 132.468 265.197 129.711C261.386 127.002 257.688 124.312 254.093 121.628C253.882 121.541 253.786 121.336 253.808 121.005C253.83 120.675 253.792 120.323 253.709 119.94C253.131 120.73 252.427 120.948 251.586 120.617C250.748 120.279 249.925 119.791 249.109 119.123C248.289 118.461 247.525 117.828 246.813 117.212C246.098 116.603 245.533 116.301 245.106 116.307C244.797 116.189 244.663 115.633 244.721 114.638C244.507 114.558 244.38 114.549 244.321 114.612C244.262 114.674 244.134 114.666 243.927 114.589C243.958 114.088 244.118 113.984 244.421 114.265C244.443 113.935 244.395 113.791 244.287 113.829C244.175 113.874 244.074 113.712 243.994 113.34C243.861 113.799 243.669 113.897 243.419 113.632C243.168 113.368 242.939 113.114 242.741 112.867C242.539 112.627 242.311 112.457 242.054 112.356C241.795 112.262 241.597 112.44 241.464 112.899C241.662 113.146 241.97 113.384 242.385 113.62C242.796 113.864 243.089 114.352 243.259 115.093C241.768 115.045 240.388 114.545 239.113 113.572C237.834 112.606 236.442 112.367 234.925 112.86C234.625 112.589 234.497 112.377 234.566 112.227C234.625 112.081 234.721 111.862 234.841 111.563C234.339 111.052 233.874 110.726 233.463 110.584C233.045 110.438 232.809 109.858 232.762 108.829C232.551 108.76 232.493 108.906 232.576 109.271C232.66 109.636 232.645 109.97 232.518 110.265C230.746 109.67 229.185 109.079 227.84 108.477C226.492 107.882 225.254 107.278 224.123 106.673C222.988 106.075 221.827 105.509 220.643 104.988C219.456 104.474 218.125 104.082 216.659 103.834C216.888 103.562 216.961 103.082 216.896 102.394C216.672 102.502 216.192 102.612 215.444 102.744C214.697 102.876 214.35 102.526 214.392 101.698C213.743 101.861 213.225 101.721 212.832 101.274C212.865 100.616 213.144 100.351 213.668 100.494C213.59 99.9662 213.492 99.8154 213.378 100.035C213.257 100.251 213.052 100.24 212.747 99.9944C212.71 100.659 212.372 100.987 211.74 100.983C211.718 101.313 211.811 101.508 212.022 101.559C210.961 101.616 209.806 101.515 208.549 101.271C207.295 101.037 206.191 100.888 205.248 100.82C205.036 100.769 204.996 100.592 205.12 100.285C205.241 99.9857 205.309 99.7524 205.318 99.5818C204.875 99.9771 204.004 99.9731 202.702 99.5771C201.404 99.192 200.44 99.0117 199.807 99.0256C199.586 99.1453 199.547 98.9319 199.686 98.3746C199.822 97.8247 199.783 97.6113 199.566 97.7237C199.252 97.6489 199.09 97.8257 199.062 98.2361C199.041 98.6499 198.868 98.8124 198.558 98.7485C198.235 98.8444 198.107 98.734 198.185 98.4135C198.253 98.0969 198.346 97.8668 198.46 97.7307C197.787 98.4164 197.099 98.4675 196.397 97.9021C195.694 97.3367 195.117 97.1756 194.686 97.4112C194.483 97.2077 194.322 96.9237 194.185 96.5596C194.044 96.2027 193.827 95.9088 193.525 95.6743C193.407 95.8177 193.3 95.921 193.192 95.9772C193.079 96.0407 192.973 96.144 192.858 96.2801C192.836 96.6105 192.913 96.7507 193.071 96.701C193.229 96.6513 193.25 96.7815 193.126 97.0883C192.284 97.0802 191.532 96.9328 190.866 96.6353C190.197 96.345 189.445 96.1976 188.606 96.2004C188.833 95.9174 188.848 95.6668 188.645 95.4634C188.41 95.917 188.221 96.0434 188.074 95.8499C187.928 95.6564 187.865 95.4035 187.88 95.0695C187.352 95.1362 186.692 95.2194 185.895 95.3267C185.099 95.4339 184.619 95.137 184.446 94.4506C184.105 94.8878 183.729 95.0681 183.308 94.9951C182.895 94.9256 182.45 94.8494 181.98 94.77C181.51 94.6906 181.091 94.6647 180.728 94.6851C180.354 94.7093 180.005 94.9399 179.663 95.3771C178.838 95.0822 178.094 94.8839 177.419 94.7752C176.74 94.6737 176.059 94.322 175.354 93.7277C174.913 94.152 174.299 94.3506 173.511 94.3235C172.729 94.3 171.896 94.1394 171.028 93.8597C170.155 93.5872 169.276 93.4311 168.384 93.3984C167.497 93.3765 166.73 93.5631 166.076 93.9727L166.118 93.2466C162.249 93.313 158.204 93.328 153.979 93.2987C149.755 93.3346 145.696 93.7488 141.809 94.5447C141.6 94.5408 141.516 94.2955 141.542 93.8199C141.23 93.8105 141.038 94.0095 140.961 94.3952C140.888 94.7918 140.695 94.9074 140.395 94.7381L140.468 93.5471C139.798 94.3271 138.98 94.5435 138.015 94.1964C137.045 93.8567 136.42 93.5331 136.125 93.2005C135.992 93.6779 136.026 93.9168 136.236 93.9206C136.446 93.9245 136.534 94.1624 136.503 94.6454C135.672 94.6335 135.212 94.4669 135.13 94.149C134.693 94.4644 134.242 94.7728 133.751 95.0891C133.268 95.4089 132.765 95.5622 132.25 95.5524C132.271 95.2401 132.383 95.0751 132.593 95.0789C132.795 95.0792 132.911 94.925 132.936 94.6054C132.417 94.6029 132.094 94.8004 131.967 95.1979C131.84 95.5954 131.617 95.871 131.295 96.0323C130.476 95.8787 129.965 95.76 129.761 95.6763C129.554 95.5998 128.994 95.5582 128.062 95.5697C127.741 95.7309 127.657 95.8918 127.798 96.0455C127.945 96.2028 127.908 96.3593 127.693 96.5188C127.504 96.2027 127.251 96.1306 126.929 96.2918C126.607 96.453 126.31 96.6175 126.042 96.7778C125.773 96.9381 125.508 97.0259 125.252 97.0264C124.992 97.0343 124.828 96.7213 124.768 96.0911C123.793 96.7454 122.95 97.0783 122.228 97.0937C121.502 97.1163 120.515 97.3029 119.252 97.6644C118.939 97.6731 118.9 97.4416 119.14 96.9625C119.373 96.4798 119.235 96.2535 118.716 96.2692C118.41 96.2815 118.244 96.4474 118.223 96.7597C118.209 97.0755 118.134 97.3887 118.013 97.7063C117.376 98.0503 116.851 98.1459 116.446 98.0074L116.424 97.7285ZM53.9644 117.109C54.1514 117.36 54.3832 117.338 54.6489 117.047C54.9216 116.76 54.9626 116.494 54.7793 116.236C54.6546 116.561 54.4643 116.724 54.216 116.71C53.9639 116.703 53.8777 116.835 53.9644 117.109ZM57.157 114.765C56.9233 115.265 56.9623 115.479 57.2671 115.401C57.5788 115.327 57.5398 115.114 57.157 114.765ZM58.5363 114.655C59.3777 114.155 60.171 113.714 60.9059 113.318C61.6408 112.922 62.4365 112.408 63.2898 111.767C62.7879 111.579 61.995 111.799 60.8863 112.422C59.7809 113.057 58.995 113.806 58.5363 114.655ZM60.9381 115.207C61.13 115.313 61.4919 115.227 62.0199 114.958C62.5442 114.695 62.9172 114.384 63.1422 114.036C62.0346 113.996 61.2927 114.389 60.9381 115.207ZM63.6145 113.941C64.1214 113.984 64.4442 113.685 64.5863 113.055C63.9667 113.196 63.6406 113.484 63.6145 113.941ZM65.6727 110.353C66.3784 110.505 66.8455 110.251 67.0949 109.601C66.7058 109.23 66.2317 109.481 65.6727 110.353ZM68.3447 109.113C68.1284 109.308 67.9208 109.352 67.7219 109.242C67.523 109.133 67.4164 109.237 67.4028 109.534C67.4857 109.816 67.6573 109.893 67.9245 109.769C68.1815 109.63 68.3273 109.418 68.3447 109.113C69.8116 108.512 71.3558 107.83 72.9813 107.06C74.6099 106.301 76.0023 105.589 77.1693 104.921C75.4256 105.087 73.8869 105.605 72.5607 106.461C71.2307 107.325 69.829 108.207 68.3447 109.113ZM68.5529 115.584C68.7985 114.942 68.9 114.882 68.8715 115.412C68.8321 115.946 68.7274 115.995 68.5529 115.584ZM69.9298 110.592C70.4415 110.49 70.7174 110.213 70.7435 109.756C70.1353 109.874 69.8556 110.158 69.9298 110.592ZM71.0435 109.925C71.5709 109.673 72.0114 109.47 72.3789 109.323C72.7464 109.175 73.0451 108.855 73.2788 108.354C73.0712 108.397 72.7025 108.581 72.1726 108.905C71.6459 109.24 71.2685 109.577 71.0435 109.925ZM71.579 113.645C71.3421 114.135 71.3657 114.175 71.6503 113.746C71.9241 113.32 71.9075 113.284 71.579 113.645ZM73.3042 112.87C73.6944 113.103 73.9107 112.907 73.9525 112.301C73.7448 112.344 73.5411 112.38 73.3373 112.416C73.1264 112.448 73.1177 112.601 73.3042 112.87ZM73.6503 109.879C73.712 110.473 73.7679 110.501 73.8003 109.964C73.8326 109.426 73.7767 109.398 73.6503 109.879ZM74.0435 108.443C74.1769 107.966 74.4835 107.834 74.9848 108.04C75.4823 108.253 75.6948 108.065 75.6331 107.471C75.5432 107.186 75.1654 107.217 74.4781 107.573C73.7946 107.921 73.6495 108.218 74.0435 108.443ZM77.3423 107.167C77.1385 107.203 77.0801 107.248 77.1812 107.308C77.2752 107.364 77.3336 107.32 77.3423 107.167C77.4545 107.002 77.462 106.886 77.3647 106.819C77.2637 106.759 77.2562 106.875 77.3423 107.167ZM209.536 91.2934C208.797 91.2727 208.107 91.313 207.474 91.4103C206.835 91.5041 206.228 91.0606 205.646 90.0761C203.867 89.8184 202.17 89.5558 200.555 89.2701C198.933 88.999 197.262 88.2607 195.544 87.0553C195.405 87.696 195.266 87.7925 195.136 87.3485C195.005 86.9044 194.811 87.0744 194.553 87.8585C194.151 87.4443 193.852 87.2569 193.637 87.2966C193.423 87.3364 193.002 87.3831 192.364 87.4225C190.843 86.4642 189.334 86.1296 187.848 86.4439C186.358 86.7655 185.231 86.2724 184.468 84.9753C184.334 85.4526 184.117 85.6666 183.803 85.61C183.495 85.5569 183.121 85.4977 182.707 85.4283C182.734 84.9345 182.644 84.6675 182.439 84.6382C182.417 84.9687 182.357 85.1692 182.245 85.2327C182.139 85.2997 182.078 85.4167 182.066 85.5765C179.974 85.411 177.892 85.2961 175.797 85.2394C173.705 85.1936 171.47 84.8636 169.106 84.2381C167.402 84.7011 165.574 84.7417 163.617 84.3672C161.653 84.0073 159.77 84.0851 157.969 84.5823C157.688 84.0717 157.356 83.9139 156.979 84.1304C156.602 84.3469 156.254 84.4397 155.949 84.4156C155.201 84.6853 154.471 84.7153 153.753 84.502C153.035 84.2888 152.318 84.159 151.591 84.1164C150.543 84.2168 149.512 84.5202 148.496 85.0336C147.476 85.5544 146.582 85.3078 145.813 84.2937C145.246 85.0792 144.716 85.3018 144.216 84.958C143.716 84.6143 143.054 84.4292 142.223 84.3991C141.905 84.553 141.813 84.7468 141.958 84.9947C142.102 85.2427 142.006 85.4438 141.692 85.5903C140.227 85.7121 138.841 85.9196 137.53 86.2202C136.215 86.5281 135.008 86.272 133.916 85.4555C133.701 85.6149 133.505 85.8575 133.33 86.176C133.152 86.5017 132.906 86.7379 132.585 86.8991C132.187 86.5791 131.931 86.5796 131.81 86.8971C131.685 87.222 131.417 87.3824 131.005 87.3782C129.259 87.0728 127.515 87.2571 125.776 87.9238C124.029 88.6051 122.281 88.8983 120.525 88.7999C120.412 88.9649 120.345 89.1619 120.334 89.4052C120.315 89.6449 120.214 89.6864 120.016 89.5409C116.77 90.3264 113.367 91.1072 109.818 91.8976C106.264 92.7316 103.163 93.8303 100.512 95.1829C100.332 94.7324 100.032 94.6466 99.6035 94.9292C99.1745 95.2119 98.8157 95.2068 98.5264 94.9322C98.491 95.5603 98.2628 95.8978 97.8526 95.9407C96.7109 96.0681 95.3202 96.6239 93.6735 97.6047C92.023 98.5928 90.6434 98.9235 89.5342 98.6151C89.0723 99.4533 88.5857 99.8638 88.0776 99.8576C87.5658 99.8586 87.0378 100.128 86.4936 100.667C85.3365 101.146 83.9031 101.598 82.1896 102.028C80.4723 102.466 79.2192 103.368 78.4201 104.719C84.5101 102.041 90.7641 99.4548 97.175 96.9565C103.582 94.5853 109.662 92.8251 115.402 91.669C121.71 89.8108 127.605 88.4745 133.093 87.6344C138.581 86.896 144.35 86.3452 150.401 86.0002C156.997 85.4868 163.907 85.3528 171.16 85.6122C178.41 86.0458 185.562 87.0941 192.615 88.7388C193.364 88.5525 193.793 88.3896 193.904 88.2427C197.413 89.4807 200.389 90.303 202.849 90.691C205.306 91.1046 208.137 91.882 211.343 93.0415C216.946 94.8985 222.676 97.1052 228.525 99.6764C234.373 102.367 240.554 105.419 247.077 108.865C246.833 107.57 246.329 106.911 245.584 106.886C244.838 106.862 244.125 106.301 243.441 105.191C243.234 105.114 243.043 105.176 242.873 105.367C242.703 105.558 242.46 105.602 242.147 105.491C238.659 103.212 235.148 101.317 231.62 99.793C228.094 98.3158 224.511 96.9484 220.872 95.6908C220.664 95.6325 220.544 95.3878 220.516 94.9493C220.485 94.5181 220.375 94.1862 220.177 93.9572C219.517 94.4468 218.823 94.4581 218.106 94.0054C217.389 93.5527 216.703 93.5675 216.039 94.0643C215.952 93.7066 215.92 93.3952 215.935 93.1447C215.951 92.8941 215.8 92.7261 215.483 92.6405C214.712 93.277 213.81 93.2481 212.795 92.5536C211.775 91.8374 210.694 91.4233 209.536 91.2934ZM79.2312 106.382C79.409 106.804 79.529 106.827 79.6098 106.434C79.6798 106.045 79.9266 105.892 80.3256 105.972L80.3517 105.515C80.2444 105.535 80.1707 105.507 80.1268 105.439C80.0829 105.371 79.9984 105.347 79.9019 105.363C79.7772 105.688 79.6434 105.86 79.4859 105.892C79.3361 105.909 79.2486 106.077 79.2312 106.382ZM81.2812 105.355C81.7132 104.981 82.3175 104.768 83.0833 104.72C83.8523 104.682 84.3643 104.256 84.6224 103.454C84.0831 103.847 83.4362 104.057 82.6634 104.103C81.8976 104.151 81.432 104.572 81.2812 105.355ZM86.7315 106.572C86.3911 107.075 86.2288 107.251 86.2375 107.099C86.3497 106.934 86.4582 106.878 86.5592 106.938C86.6565 107.005 86.7103 106.884 86.7315 106.572ZM87.105 103.087C87.4367 102.737 87.6429 102.629 87.7377 102.769C87.8325 102.909 87.9949 102.732 88.2318 102.242C88.137 102.102 87.9312 102.091 87.6215 102.212C87.3047 102.33 87.1349 102.623 87.105 103.087ZM87.6636 106.441C87.9779 106.396 88.2014 106.407 88.3527 106.455C88.5001 106.511 88.671 106.606 88.8731 106.726C88.9204 105.956 88.732 105.64 88.3188 105.774C87.9017 105.915 87.681 106.136 87.6636 106.441ZM89.0182 101.899C89.3325 101.854 89.636 101.813 89.9465 101.775C90.257 101.737 90.4757 101.469 90.6091 100.992C90.2986 101.029 89.9628 101.082 89.6021 101.131C89.2453 101.174 89.0481 101.434 89.0182 101.899ZM91.5934 102.474C91.3864 102.499 91.2854 102.439 91.2979 102.279C91.3066 102.127 91.2031 102.139 90.9874 102.317C90.7592 102.654 90.8026 102.842 91.1107 102.877C91.4149 102.919 91.583 102.782 91.5934 102.474ZM94.8297 99.9946L95.2971 99.9434L95.327 99.4786L94.8596 99.5298L94.8297 99.9946ZM96.9091 103.679C97.237 103.336 97.2605 103.376 96.9765 103.787C96.6996 104.201 96.676 104.162 96.9091 103.679ZM97.8301 98.7161C98.3524 98.5081 99.1104 98.2709 100.111 98.008C101.097 97.7562 101.78 97.2227 102.134 96.4044C101.294 96.6466 100.534 96.9564 99.8421 97.3376C99.1466 97.7262 98.4771 98.1832 97.8301 98.7161ZM102.851 97.2815C102.872 96.9692 102.956 96.8082 103.113 96.7948C103.269 96.7813 103.306 96.5413 103.236 96.0818C103.035 95.9436 102.872 96.1203 102.739 96.5977C102.609 97.0678 102.641 97.2958 102.851 97.2815ZM103.348 96.7656C104.18 96.538 105.018 96.3503 105.848 96.1953C106.681 96.0512 107.421 95.7127 108.068 95.198C107.465 94.9321 106.67 94.9196 105.674 95.1571C104.685 95.3981 103.909 95.9403 103.348 96.7656ZM104.812 98.0368C104.882 98.4963 104.965 98.4551 105.052 97.8987C105.134 97.3496 105.058 97.3944 104.812 98.0368ZM109.622 95.0748C109.721 95.0696 109.826 95.1404 109.917 95.2877C110.008 95.4349 110.161 95.4288 110.383 95.2547L110.44 94.3142C110.014 94.5062 109.743 94.7573 109.622 95.0748ZM111.993 94.2092C112.114 93.8917 112.429 93.8285 112.93 94.0344C113.432 94.2403 113.761 93.9447 113.909 93.1515C113.72 92.8535 113.303 92.8748 112.67 93.2297C112.029 93.5811 111.804 93.9112 111.993 94.2092ZM113.317 95.3086C113.488 95.9297 113.558 95.9649 113.545 95.4137C113.524 94.8591 113.451 94.8312 113.317 95.3086ZM114.419 95.0041C114.999 95.6005 115.528 95.4142 116.001 94.4524C115.287 94.3335 114.759 94.5198 114.419 95.0041ZM117.354 92.4934C117.062 92.1898 116.903 92.2758 116.876 92.7514C116.849 93.2271 117.009 93.1411 117.354 92.4934ZM117.95 92.9408C118.582 92.76 119.182 92.5725 119.76 92.3926C120.338 92.2127 120.841 91.9579 121.279 91.6243C120.647 91.8051 119.994 91.8737 119.328 91.8156C118.665 91.7684 118.205 92.1458 117.95 92.9408ZM122.031 92.0764C122.04 91.9239 122.069 91.8001 122.129 91.7194C122.188 91.6386 122.214 91.5221 122.226 91.3623C122.119 91.364 122.051 91.2926 122.01 91.1336C121.965 90.982 121.893 90.8997 121.794 90.905C121.532 91.6964 121.612 92.0869 122.031 92.0764ZM122.239 93.7308C122.347 93.5731 122.46 93.4914 122.56 93.4862C122.367 93.1774 122.227 93.0237 122.12 93.0254C122.097 93.4937 122.132 93.7326 122.239 93.7308ZM125.08 92.9447C124.874 92.9516 124.761 93.0333 124.759 93.1893C124.962 93.1896 125.068 93.1045 125.08 92.9447ZM125.492 91.2693C125.707 91.1098 125.915 91.0666 126.122 91.143C126.318 91.2233 126.336 91.0198 126.16 90.5439L125.537 90.554L125.492 91.2693ZM125.401 92.7C125.581 93.1687 125.659 93.171 125.632 92.6963C125.613 92.225 125.534 92.2227 125.401 92.7ZM125.462 94.364C125.775 94.3553 125.943 94.1168 125.97 93.6412C125.751 93.808 125.589 93.8832 125.489 93.8884C125.382 93.8902 125.377 94.0535 125.462 94.364ZM126.79 90.2978C126.374 90.301 126.284 90.5418 126.514 91.0169C126.743 91.492 127.015 91.6472 127.34 91.4787C127.449 91.321 127.492 91.0845 127.457 90.7622C127.418 90.4472 127.512 90.2825 127.715 90.2828C127.885 90.9221 128.12 91.2339 128.433 91.2252C128.876 90.7464 129.383 90.4661 129.958 90.377C130.529 90.2951 131.131 90.2563 131.75 90.2535C131.276 89.4523 130.434 89.2229 129.225 89.5473C128.03 89.8787 127.212 90.1314 126.79 90.2978ZM126.79 90.2978C126.997 90.2909 127.093 90.3763 127.084 90.5288C126.978 90.5306 126.93 90.5712 126.924 90.6512C126.918 90.7311 126.863 90.7682 126.763 90.7735L126.79 90.2978ZM127.604 86.9328L127.913 86.9314L127.952 86.2126L127.642 86.214L127.604 86.9328ZM130.589 91.6908C131.314 91.6862 131.645 91.3725 131.581 90.7315L130.806 90.7296C130.776 91.2125 130.697 91.533 130.589 91.6908ZM132.509 93.3572C133.131 93.3653 133.405 93.125 133.329 92.6438C132.806 92.6487 132.536 92.8816 132.509 93.3572ZM134.176 94.0847L134.798 94.0927C134.931 93.6153 134.923 93.3434 134.773 93.2588C134.619 93.1815 134.445 93.0573 134.248 92.8937L134.176 94.0847ZM139.066 87.6934C138.838 88.0127 138.52 88.1666 138.105 88.1516C137.686 88.1439 137.297 88.1792 136.932 88.254C136.567 88.3289 136.238 88.4866 135.974 88.723C135.7 88.9633 135.549 89.3212 135.522 89.7969C137.739 89.195 139.705 88.7531 141.435 88.4784C143.168 88.2144 144.85 88.285 146.489 88.6756C146.419 88.031 146.491 87.6707 146.707 87.5947C146.919 87.5259 147.142 87.2502 147.378 86.7785C145.802 87.029 144.391 87.2514 143.126 87.4461C141.875 87.6478 140.518 87.7315 139.066 87.6934ZM137.667 85.0064C137.834 85.653 137.942 85.6984 137.972 85.132C138.005 84.5765 137.9 84.5238 137.667 85.0064ZM144.271 91.9618L143.958 91.9524C143.856 91.9468 143.743 92.0285 143.638 92.1789C143.517 92.4964 143.614 92.5819 143.939 92.4315C144.253 92.285 144.361 92.1272 144.271 91.9618ZM146.123 89.6355L145.814 89.6188C145.532 89.1264 145.108 89.2639 144.542 90.0494C144.336 90.0382 144.277 90.0827 144.378 90.1609C144.474 90.2464 144.529 90.2092 144.542 90.0494C144.935 90.3949 145.363 90.2501 145.814 89.6188L146.123 89.6355L146.092 90.1185C146.401 90.1352 146.738 90.1479 147.107 90.1673C147.469 90.1832 147.774 89.8844 148.016 89.2493C147.587 89.5501 147.211 89.6106 146.915 89.434C146.612 89.254 146.347 89.3236 146.123 89.6355ZM146.137 92.0512C146.168 91.5683 146.012 91.5635 145.673 92.0298C145.878 92.0409 145.975 92.1264 145.973 92.2824C145.961 92.4422 146.01 92.3653 146.137 92.0512ZM148.07 88.2799C148.186 88.1257 148.318 88.0908 148.464 88.1828C148.611 88.2747 148.853 88.249 149.167 88.1024C149.185 87.7793 149.143 87.5732 149.046 87.4878C148.949 87.4023 148.997 87.3616 149.21 87.3763C149.41 87.5508 149.573 87.7621 149.718 88.0101C149.859 88.2653 150.088 88.316 150.409 88.173C150.136 87.5099 149.592 86.9964 148.784 86.6178C148.948 87.4386 148.814 87.8325 148.402 87.8102C148.42 87.487 148.438 87.1639 148.456 86.8407C148.474 86.5176 148.378 86.4321 148.16 86.5808C148.044 86.735 147.948 87.0558 147.875 87.5358C147.798 88.0231 147.864 88.2687 148.07 88.2799ZM151.016 91.3662C150.628 90.8574 150.475 90.8453 150.548 91.3339C150.62 91.8224 150.776 91.8271 151.016 91.3662ZM151.578 87.0258C151.738 87.8539 152.265 88.1646 153.159 87.9868C154.054 87.8091 154.625 87.4044 154.867 86.7693C154.247 86.7249 153.722 86.6827 153.311 86.6603C152.903 86.6307 152.319 86.7526 151.578 87.0258ZM152.843 92.2107C153.048 92.2219 153.257 92.2439 153.463 92.2551C153.669 92.2662 153.737 92.033 153.665 91.5444L152.885 91.4845L152.843 92.2107ZM154.705 89.6775C154.902 89.8593 155.06 89.7914 155.185 89.4666C155.306 89.149 155.264 88.9067 155.075 88.7284C155.057 89.0515 154.99 89.2485 154.881 89.3228C154.775 89.4079 154.714 89.525 154.705 89.6775ZM155.581 88.0418C155.893 88.0694 156.061 87.8309 156.092 87.3479C155.873 87.4965 155.715 87.5644 155.612 87.5588C155.509 87.5533 155.497 87.7131 155.581 88.0418ZM156.868 87.4151C156.931 88.0743 156.986 88.1205 157.02 87.5468C157.05 86.9805 157.001 86.9377 156.868 87.4151ZM158.504 91.698C158.517 91.5382 158.619 91.4603 158.828 91.4823L158.882 90.5129L158.417 90.4733C158.365 91.2867 158.394 91.6889 158.504 91.698ZM159.531 87.3972C159.415 87.5515 159.311 87.5822 159.211 87.4859C159.108 87.3968 159.06 87.4375 159.048 87.5973C159.366 87.6284 159.525 87.5606 159.531 87.3972ZM159.644 88.1463C159.858 88.005 160.127 87.8265 160.458 87.6143C160.782 87.3987 160.855 87.1218 160.664 86.7767C160.433 87.0851 160.218 87.2627 160.006 87.3315C159.794 87.3821 159.678 87.656 159.644 88.1463ZM161.382 87.8206C161.984 88.2062 162.309 88.074 162.345 87.4277C162.251 87.2515 161.937 87.3799 161.382 87.8206ZM172.217 87.5829C170.995 86.9317 169.423 86.5292 167.498 86.3827C165.572 86.2544 163.955 86.6869 162.645 87.6985C163.25 88.095 163.875 88.1138 164.519 87.7733C165.163 87.4327 165.725 87.6231 166.213 88.3298C167.901 88.0339 169.234 88.0304 170.212 88.3192C171.191 88.608 172.566 88.709 174.357 88.6219C174.197 87.7757 174.324 87.3782 174.742 87.4403C174.813 87.947 174.778 88.2704 174.609 88.4074C174.448 88.5479 174.513 88.7282 174.812 88.9337C175.35 88.6783 175.924 88.6436 176.551 88.8112C177.174 88.986 177.741 89.0312 178.27 88.9465C177.63 87.3608 176.718 86.69 175.558 86.9374C174.384 87.1777 173.275 87.3952 172.217 87.5829ZM165.377 89.2103C165.271 89.1939 165.174 89.1084 165.08 88.9322C164.983 88.7633 164.827 88.7404 164.613 88.8818C164.386 89.1829 164.478 89.3954 164.886 89.5266C165.301 89.6614 165.465 89.5499 165.377 89.2103ZM166.467 89.3341C166.636 90.0097 166.741 90.0624 166.771 89.496C166.805 88.9223 166.707 88.8731 166.467 89.3341ZM166.997 91.1138C167.06 91.773 167.112 91.8266 167.145 91.2529C167.175 90.6865 167.12 90.6403 166.997 91.1138ZM168.529 83.4132C168.321 83.3912 168.215 83.4582 168.203 83.618C168.415 83.6508 168.524 83.5765 168.529 83.4132ZM169.271 89.673C169.476 89.7024 169.606 89.7583 169.649 89.8447C169.699 89.9345 169.772 89.9805 169.878 89.9969L169.924 89.2634L169.609 89.225L169.271 89.673ZM171.821 91.7211C172.341 91.7888 172.615 91.5848 172.642 91.0911C172.122 91.0233 171.856 91.2308 171.821 91.7211ZM172.544 90.0915C172.856 90.1372 173.127 90.0058 173.35 89.712C173.145 89.6827 173.02 89.5831 172.976 89.4134C172.932 89.2436 172.807 89.144 172.602 89.1147L172.544 90.0915ZM174.742 90.1537C174.942 90.3463 175.204 90.3856 175.521 90.268C175.844 90.1539 176.071 89.8528 176.201 89.3827C175.884 89.5003 175.567 89.5345 175.252 89.4961C174.937 89.4395 174.77 89.6599 174.742 90.1537ZM178.022 90.3906C178.312 90.7668 178.597 90.8456 178.87 90.6416C179.144 90.4377 179.369 90.5972 179.547 91.1203C179.659 90.9734 179.752 90.7434 179.823 90.4194C179.891 90.1027 179.826 89.9224 179.621 89.8931C179.599 90.2235 179.336 90.2205 178.835 89.8949C178.334 89.5694 178.062 89.737 178.022 90.3906ZM178.776 88.2781C179.132 89.3242 179.877 89.6531 181.004 89.2503C182.126 88.8548 182.89 88.8605 183.285 89.2531C182.709 88.3266 182.013 88.0876 181.198 88.5362C180.39 88.9882 179.583 88.8961 178.776 88.2781ZM180.227 93.206C180.263 92.5597 180.179 92.2128 179.97 92.1727C179.747 92.4665 179.675 92.7071 179.769 92.8833C179.865 93.0704 180.015 93.1732 180.227 93.206ZM182.579 93.3455C182.685 93.362 182.729 93.412 182.73 93.4954C182.724 93.5753 182.775 93.6289 182.881 93.6453C182.921 92.9917 182.827 92.7321 182.613 92.8553L182.579 93.3455ZM183.414 89.7698C183.743 89.4924 184.139 89.4424 184.603 89.6017C185.063 89.7684 185.482 89.8777 185.842 89.948C186.206 90.011 186.552 89.9909 186.872 89.8841C187.192 89.7773 187.477 89.3301 187.734 88.5461C186.882 88.7268 186.042 88.7839 185.205 88.7141C184.365 88.6516 183.766 89.0059 183.414 89.7698ZM183.85 93.071C183.641 93.0308 183.532 93.1052 183.523 93.2576L183.679 93.2805C183.788 93.3078 183.844 93.2343 183.85 93.071ZM186.025 93.7031C186.037 93.5433 185.987 93.4534 185.885 93.4297C185.779 93.4133 185.723 93.4867 185.717 93.65C185.823 93.6665 185.895 93.7669 185.939 93.9367C185.972 94.1102 186.003 94.0335 186.025 93.7031ZM186.643 93.82C186.705 94.4973 186.762 94.5073 186.795 93.8502C186.838 93.1893 186.789 93.1828 186.643 93.82ZM187.863 89.0627C188.071 89.1029 188.065 89.1827 187.847 89.3133C187.629 89.4437 187.567 89.5971 187.668 89.7769C190.452 90.7981 193.091 91.488 195.599 91.8354C198.103 92.2082 201.011 92.9409 204.325 94.0443C204.259 93.3561 203.987 92.9978 203.515 92.9728C203.043 92.9478 203.084 92.5808 203.656 91.8714C201.858 91.955 200.112 91.6496 198.413 90.9336C196.712 90.2357 195.125 89.9822 193.64 90.1768C193.662 89.8463 193.692 89.6863 193.748 89.6962C193.798 89.7027 193.836 89.6295 193.842 89.4662C193.092 89.6525 192.487 89.6986 192.017 89.601C191.551 89.5143 191.107 89.3836 190.701 89.2161C190.29 89.0559 189.879 88.932 189.462 88.8517C189.031 88.7825 188.502 88.8492 187.863 89.0627ZM187.878 91.5618C188.046 92.2555 188.154 92.3191 188.181 91.7419C188.215 91.1682 188.113 91.1082 187.878 91.5618ZM188.585 92.9324C188.349 93.386 188.369 93.4329 188.655 93.0691C188.937 92.7126 188.917 92.6658 188.585 92.9324ZM189.594 94.6209C189.803 94.661 190.006 94.7448 190.208 94.8648C190.41 94.9849 190.524 94.8851 190.542 94.562C190.339 94.3585 190.193 94.165 190.103 93.9815C190.002 93.8017 189.86 93.6009 189.664 93.4009L189.594 94.6209ZM191.893 90.3321C191.898 90.1688 192.067 90.1153 192.378 90.1792C192.362 90.3463 192.204 90.396 191.893 90.3321ZM192.398 92.4315C192.268 92.9016 192.302 93.1586 192.511 93.1987C192.719 93.2389 192.927 93.279 193.132 93.3265L193.187 92.3389C192.978 92.2988 192.814 92.3087 192.713 92.3684C192.608 92.4354 192.5 92.4552 192.398 92.4315ZM193.185 95.328C193.213 94.8342 192.914 94.5271 192.292 94.3993C192.265 94.8931 192.56 95.2075 193.185 95.328ZM195.336 93.5301C195.358 93.1996 195.421 93.01 195.526 92.943C195.635 92.8868 195.589 92.7533 195.39 92.5425C195.385 92.7058 195.319 92.8665 195.204 93.0026C195.093 93.1495 195.14 93.3301 195.336 93.5301ZM196.899 93.8638C196.948 93.0396 196.755 92.6654 196.329 92.7377C196.205 93.0444 196.245 93.2215 196.461 93.2651C196.665 93.3126 196.815 93.5169 196.899 93.8638ZM197.271 95.6933C197.066 95.6458 196.954 95.7093 196.949 95.8726C197.146 95.9166 197.255 95.8604 197.271 95.6933ZM197.194 94.1782C197.704 94.4529 198.085 94.2109 198.343 93.4268C198.116 93.7098 197.876 93.7826 197.621 93.6453C197.366 93.508 197.221 93.6844 197.194 94.1782ZM197.725 96.0414L198.036 96.1053L198.063 95.6115L197.752 95.5476L197.725 96.0414ZM199.747 93.745C199.246 93.2997 198.979 93.3222 198.952 93.8159C198.924 94.3097 199.192 94.2873 199.747 93.745ZM200.021 94.5567C200.452 94.3212 200.854 94.3292 201.208 94.581C201.562 94.8328 201.996 95.0143 202.522 95.14C202.337 94.5953 201.945 94.2135 201.324 93.9842C200.695 93.7514 200.259 93.9471 200.021 94.5567ZM200.087 96.0756C200.033 97.0631 200.256 97.2771 200.762 96.7284C201.267 96.1797 201.264 95.7626 200.751 95.4771C200.805 96.4919 200.582 96.6842 200.087 96.0756ZM202.832 95.2039C202.956 94.8972 203.086 94.8515 203.239 95.0486C203.389 95.2529 203.521 95.1165 203.658 94.65C203.57 94.2923 203.339 94.1945 202.964 94.3566C202.571 94.5189 202.536 94.8061 202.832 95.2039ZM204.263 95.0465C204.253 95.2171 204.376 95.3711 204.631 95.5084C204.889 95.6566 205.073 95.5738 205.197 95.2671C204.878 95.3557 204.673 95.2248 204.585 94.8671C204.505 94.5129 204.396 94.5691 204.263 95.0465ZM204.783 94.1638C205.411 94.3132 205.736 94.1447 205.76 93.6401C205.571 93.2586 205.341 93.1245 205.071 93.2196C204.804 93.3255 204.712 93.639 204.783 94.1638ZM205.821 95.4238C205.794 95.9176 205.854 96.2249 206.01 96.3494C206.159 96.4703 206.334 96.6415 206.54 96.8558C206.356 96.3111 206.404 96.0673 206.661 96.132C206.918 96.1968 207.064 95.984 207.095 95.4829C206.766 95.7422 206.528 95.7605 206.378 95.5562C206.222 95.3484 206.038 95.3114 205.821 95.4238ZM206.193 94.5036C210.046 95.4712 214.223 96.7963 218.737 98.4751C223.249 100.226 227.778 102.097 232.339 104.094C232.37 103.593 232.437 103.277 232.552 103.141C232.506 103.976 232.738 104.48 233.265 104.652C234.346 104.337 235.338 104.633 236.242 105.54C237.15 106.458 238.176 107.112 239.325 107.514C239.26 106.808 238.962 106.363 238.442 106.175C237.919 105.995 237.684 105.48 237.73 104.645C235.937 104.362 234.358 103.652 232.986 102.51C231.616 101.378 230.179 100.988 228.667 101.354C228.276 100.714 227.565 100.2 226.527 99.7887C225.485 99.3848 224.7 99.267 224.161 99.439C223.271 98.318 222.414 97.8966 221.606 98.1637C220.797 98.4307 219.771 98.3023 218.53 97.7711L218.582 96.7727C216.761 97.1033 214.752 96.7116 212.54 95.6085C210.336 94.5379 208.209 94.1698 206.193 94.5036ZM208.01 95.9614C208.076 96.6495 208.127 96.7031 208.161 96.1294C208.191 95.5449 208.14 95.4913 208.01 95.9614ZM208.266 97.031C208.331 97.7191 208.384 97.7364 208.421 97.072C208.46 96.4184 208.408 96.4011 208.266 97.031ZM208.448 96.5782C208.969 96.7112 209.242 96.5254 209.27 96.0316C208.748 95.8986 208.475 96.0844 208.448 96.5782ZM209.191 97.5238C209.386 97.7419 209.509 97.9793 209.547 98.2471C209.588 98.5076 209.707 98.6689 209.918 98.7199C209.831 98.3622 209.841 98.1553 209.95 98.0991C210.058 98.0429 210.122 97.8533 210.143 97.5228C209.954 97.1414 209.75 96.9561 209.539 96.9885C209.322 97.0174 209.206 97.1898 209.191 97.5238ZM210.783 97.429C210.903 97.1296 210.783 96.8849 210.427 96.7057C210.067 96.5338 209.925 96.6195 210.012 96.9772C210.23 96.8648 210.36 96.9026 210.4 97.0797C210.447 97.2603 210.571 97.378 210.783 97.429ZM210.922 97.7205C211.124 97.9422 211.228 97.9296 211.243 97.6791C211.259 97.4285 211.322 97.1554 211.446 96.8487L210.981 96.7257L210.922 97.7205ZM212.688 97.3074C212.378 97.1419 212.218 97.2279 212.197 97.5584L212.507 97.6404L212.801 97.973C213.034 97.6935 212.999 97.4728 212.688 97.3074ZM214.217 98.3526L214.689 98.4792L214.732 97.7348L214.26 97.6083L214.217 98.3526ZM215.029 100.846C214.865 101.806 214.86 101.933 215.013 101.216C215.147 100.5 215.158 100.376 215.029 100.846ZM215.467 98.6951C215.538 99.2199 215.624 99.2076 215.711 98.6331C215.79 98.0731 215.712 98.0889 215.467 98.6951ZM216.592 101.281C216.348 101.887 216.366 101.971 216.654 101.552C216.939 101.123 216.92 101.04 216.592 101.281ZM217.042 98.8871C216.835 98.8288 216.726 98.885 216.714 99.0448C216.921 99.1031 217.03 99.0469 217.042 98.8871ZM217.398 101.003C217.425 100.51 217.274 100.461 216.929 100.87C217.137 100.928 217.236 101.042 217.231 101.206C217.221 101.376 217.273 101.31 217.398 101.003ZM220.311 100.078C219.781 100.098 219.232 99.9325 218.671 99.6043C218.11 99.2761 217.709 99.2499 217.483 99.5148C217.999 99.8292 218.456 100.087 218.868 100.294C219.277 100.49 219.763 100.421 220.311 100.078ZM220.627 102.95C220.304 103.028 220.068 102.955 219.923 102.744C219.777 102.532 219.584 102.564 219.365 102.832C219.558 103.225 219.807 103.424 220.127 103.437C220.439 103.446 220.605 103.28 220.627 102.95ZM224.05 101.45C223.653 100.992 223.141 100.707 222.508 100.601C221.882 100.499 221.3 100.363 220.779 100.212C220.941 101.105 221.394 101.49 222.148 101.38C222.894 101.266 223.526 101.288 224.05 101.45ZM220.909 103.544C221.007 103.575 221.066 103.632 221.059 103.712C221.049 103.799 221.101 103.853 221.21 103.88C221.216 103.716 221.247 103.64 221.299 103.657C221.352 103.674 221.383 103.598 221.389 103.434C221.283 103.4 221.232 103.346 221.238 103.266C221.244 103.186 221.19 103.122 221.087 103.098C221.078 103.269 221.051 103.338 220.998 103.321C220.949 103.296 220.918 103.373 220.909 103.544ZM222.387 102.718C222.281 102.683 222.205 102.627 222.162 102.522C222.116 102.425 222.036 102.357 221.938 102.326C221.708 102.598 221.751 102.823 222.058 102.995C222.361 103.175 222.47 103.083 222.387 102.718ZM227.586 103.569C227.214 102.607 226.768 102.124 226.238 102.126C225.709 102.127 225.139 101.951 224.515 101.592C224.782 102.519 225.238 102.915 225.882 102.777C226.527 102.64 227.093 102.906 227.586 103.569ZM225.908 105.069C225.815 104.875 225.452 104.674 224.83 104.481C224.587 104.913 224.709 105.205 225.181 105.35C225.652 105.494 225.893 105.403 225.908 105.069ZM227.607 106.108C227.796 106.508 227.953 106.513 228.086 106.137C228.213 105.757 228.171 105.533 227.967 105.468C227.952 105.802 227.863 105.905 227.715 105.766C227.549 105.627 227.513 105.747 227.607 106.108ZM230.585 104.025C230.17 103.89 229.698 103.782 229.171 103.692C228.641 103.61 228.29 103.369 228.094 102.966C228.472 103.765 228.926 104.215 229.449 104.294C229.983 104.387 230.356 104.297 230.585 104.025ZM229.273 101.815C229.279 101.652 229.447 101.617 229.757 101.717C229.747 101.887 229.59 101.919 229.273 101.815ZM230.216 102.123C230.23 101.789 230.446 101.731 230.861 101.949C231.273 102.175 231.368 102.416 231.135 102.677C230.93 102.445 230.779 102.397 230.668 102.525C230.553 102.662 230.401 102.53 230.216 102.123ZM230.855 104.88C231.171 104.984 231.208 105.168 230.982 105.433C231.176 105.669 231.314 105.711 231.372 105.565C231.43 105.419 231.567 105.377 231.778 105.446L231.809 104.945L231.523 104.34C231.509 104.674 231.392 104.763 231.187 104.614C230.986 104.457 230.877 104.55 230.855 104.88ZM232.452 107.695C232.263 107.295 232.005 107.129 231.687 107.181C231.365 107.241 231.056 107.141 230.749 106.866C230.823 107.402 231.075 107.732 231.486 107.874C231.904 108.019 232.222 107.967 232.452 107.695ZM232.252 105.601C233.001 105.516 234.04 105.91 235.376 106.784C236.703 107.673 237.91 108.049 238.984 107.915C237.835 107.513 236.729 106.911 235.654 106.112C234.575 105.32 233.44 105.147 232.252 105.601ZM233.509 108.816L233.979 108.979C234.1 108.68 234.012 108.442 233.698 108.248C233.392 108.057 233.275 108.146 233.366 108.514C233.464 108.545 233.514 108.653 233.509 108.816ZM234.914 109.302L235.226 109.413L235.269 108.668L234.957 108.557L234.914 109.302ZM236.149 109.978C236.171 109.647 236.08 109.279 235.895 108.872C235.849 109.707 235.933 110.072 236.149 109.978ZM236.763 110.443C236.768 110.28 236.831 110.21 236.933 110.252C236.964 109.751 236.811 109.536 236.493 109.588C236.589 109.793 236.605 109.967 236.546 110.113C236.477 110.263 236.552 110.374 236.763 110.443ZM237.118 109.81C237.183 110.516 237.326 110.819 237.542 110.724C237.759 110.63 238.12 110.766 238.638 111.109C238.446 110.699 238.203 110.318 237.906 109.957C237.605 109.602 237.34 109.552 237.118 109.81ZM240.501 112.037C240.204 111.592 239.98 111.378 239.815 111.406C239.651 111.434 239.424 111.31 239.121 111.029C238.873 111.624 239.01 112.006 239.536 112.197C240.056 112.385 240.381 112.336 240.501 112.037ZM240.1 107.803C239.893 107.726 239.836 107.752 239.942 107.87C240.033 108 240.091 107.973 240.1 107.803C240.509 108.119 240.617 108.081 240.429 107.663C240.232 107.26 240.128 107.309 240.1 107.803ZM240.172 109.361C240.586 109.514 240.813 109.333 240.84 108.839L240.373 108.669C240.364 108.839 240.332 108.952 240.273 109.015C240.217 109.088 240.185 109.201 240.172 109.361ZM241.066 107.642C240.96 107.607 240.902 107.753 240.88 108.084L241.193 108.195C241.214 107.864 241.167 107.684 241.066 107.642ZM241.611 109.374C241.506 109.34 241.388 109.465 241.268 109.764L241.735 109.934C241.756 109.604 241.713 109.416 241.611 109.374ZM241.651 108.619C242.703 108.834 243.656 109.359 244.52 110.19C245.373 111.025 246.163 110.896 246.861 109.789C246.545 109.668 246.404 109.449 246.422 109.107C246.119 108.826 245.958 108.846 245.936 109.177C245.918 109.518 245.801 109.727 245.581 109.81C245.002 108.735 244.309 108.22 243.507 108.27C242.709 108.33 242.087 108.441 241.651 108.619ZM243.87 111.746C243.901 111.245 243.804 110.956 243.597 110.88C243.577 111.377 243.663 111.67 243.87 111.746ZM248.102 113.357C247.594 112.825 247.033 112.395 246.418 112.067C245.8 111.747 245.015 111.408 244.078 111.057C244.459 111.885 245.065 112.449 245.904 112.769C246.729 113.082 247.465 113.276 248.102 113.357ZM243.823 115.552C244.058 115.135 244.158 115.213 244.128 115.797C244.09 116.378 243.994 116.293 243.823 115.552ZM245.298 114.835C245.464 115.583 245.544 115.651 245.521 115.049C245.506 114.451 245.43 114.376 245.298 114.835ZM246.072 115.381C246.137 116.088 246.192 116.152 246.222 115.568C246.252 114.983 246.198 114.919 246.072 115.381ZM247.952 110.218C248.116 111.14 248.068 111.42 247.827 111.069C247.58 110.714 247.244 110.545 246.818 110.552L246.778 111.307C247.829 111.54 248.786 112.04 249.649 112.806C250.512 113.572 251.379 113.786 252.25 113.449C251.842 113.115 251.358 112.622 250.811 111.978C250.257 111.33 249.702 111.328 249.134 111.965C249.198 110.789 248.806 110.204 247.952 110.218ZM270.311 123.534C269.388 122.765 268.426 121.765 267.426 120.534C266.423 119.309 265.389 118.55 264.343 118.255C264.137 118.16 263.936 117.902 263.744 117.474C263.534 117.387 263.344 117.43 263.178 117.614C263.012 117.798 262.821 117.757 262.62 117.499C261.628 116.032 260.476 115.111 259.167 114.73C257.846 114.352 256.799 113.567 256.015 112.379C254.865 111.912 254.063 111.454 253.605 111.011C253.147 110.569 252.508 110.017 251.696 109.341C251.347 109.894 250.94 110.031 250.473 109.76C250.006 109.488 249.568 109.194 249.16 108.86C248.748 108.533 248.39 108.306 248.074 108.185C247.758 108.063 247.533 108.328 247.394 108.95C250.308 110.249 253.016 111.841 255.529 113.722C258.042 115.622 260.661 116.994 263.402 117.828C263.475 118.381 263.819 118.96 264.427 119.57C264.451 119.066 264.526 118.753 264.644 118.627C264.727 119.01 264.816 119.314 264.919 119.522C265.011 119.735 265.101 120.038 265.195 120.418C267.881 122.137 270.6 124.335 273.354 126.992C273.523 125.869 273.162 125.087 272.277 124.67C271.366 124.286 270.714 123.894 270.311 123.534ZM248.229 113.91C248.427 114.157 248.685 114.305 249.004 114.336C249.319 114.375 249.543 114.164 249.676 113.705C249.456 113.788 249.14 113.666 248.739 113.336C248.33 113.019 248.16 113.211 248.229 113.91ZM248.459 115.538C248.642 116.119 248.744 116.125 248.779 115.533C248.816 114.952 248.702 114.95 248.459 115.538ZM249.783 117.588C249.805 117.258 249.819 116.924 249.834 116.59C249.856 116.259 249.704 116.026 249.388 115.904C249.168 115.988 249.073 116.29 249.102 116.812C249.13 117.334 249.356 117.595 249.783 117.588ZM251.046 115.021C250.835 114.934 250.778 114.96 250.88 115.086C250.983 115.211 251.036 115.192 251.046 115.021C251.157 114.892 251.206 115 251.192 115.334L251.507 115.456C251.733 115.21 251.694 114.978 251.388 114.769C251.072 114.564 250.959 114.645 251.046 115.021ZM251.974 115.645C252.184 115.732 252.312 115.824 252.355 115.929C252.405 116.037 252.526 116.125 252.737 116.213C252.86 115.924 252.82 115.645 252.622 115.398C252.417 115.148 252.482 115.005 252.807 114.956C253.753 115.173 254.612 115.605 255.376 116.257C256.143 116.919 256.992 117.438 257.931 117.837C258.055 117.548 258.139 117.369 258.198 117.306C258.257 117.244 258.348 117.068 258.465 116.776C257.961 116.218 257.39 115.858 256.76 115.679C256.126 115.508 255.618 115.078 255.229 114.402C255.188 115.074 255.121 115.39 255.019 115.348C254.666 114.008 254.082 113.419 253.269 113.61C252.477 113.794 252.041 114.479 251.974 115.645ZM252.913 116.025C253.194 116.655 253.329 116.667 253.31 116.058C253.292 115.449 253.157 115.437 252.913 116.025ZM256.786 118.378C256.613 117.626 256.418 117.288 256.202 117.364C255.983 117.448 255.622 117.294 255.105 116.914C255.182 117.461 255.403 117.765 255.774 117.832C256.145 117.898 256.487 118.089 256.786 118.378ZM259.583 120.07C259.058 119.843 258.698 119.569 258.507 119.224C258.312 118.886 258.063 118.567 257.76 118.268C257.729 118.769 257.968 119.294 258.471 119.852C258.971 120.417 259.342 120.484 259.583 120.07ZM258.85 118.732C259.378 118.785 259.855 118.988 260.259 119.33C260.67 119.675 260.978 119.811 261.198 119.728C261.037 118.798 260.647 118.159 260.019 117.806C259.401 117.468 259.014 117.772 258.85 118.732ZM263.524 121.257C263.456 120.54 263.215 120.087 262.799 119.905C262.382 119.723 261.905 119.521 261.387 119.297C261.547 120.227 261.846 120.653 262.278 120.585C262.71 120.516 263.122 120.741 263.524 121.257ZM261.749 121.518C261.465 120.877 261.33 120.865 261.349 121.474C261.367 122.083 261.502 122.095 261.749 121.518ZM262.294 126.12C261.979 125.98 261.818 126.001 261.813 126.164C262.121 126.301 262.285 126.291 262.294 126.12ZM263.299 122.454C263.083 122.53 262.873 122.443 262.676 122.178C262.475 121.92 262.367 121.958 262.352 122.292C262.562 122.379 262.764 122.517 262.971 122.695C263.171 122.87 263.284 122.788 263.299 122.454ZM263.682 121.327C264.921 122.218 266.116 123.225 267.287 124.348C268.454 125.479 269.567 126.288 270.61 126.776C269.623 125.283 268.482 124.119 267.185 123.273C265.891 122.438 264.729 121.789 263.682 121.327ZM265.14 124.035C265.218 124.582 265.268 124.57 265.302 123.978C265.332 123.394 265.278 123.413 265.14 124.035ZM266.039 125.207L266.669 125.487C266.706 124.822 266.502 124.553 266.07 124.706L266.039 125.207ZM265.941 129.79C266.247 130.1 266.437 130.057 266.511 129.661C266.581 129.272 266.472 128.921 266.166 128.611C266.151 128.945 266.109 129.145 266.053 129.2C265.994 129.263 265.963 129.459 265.941 129.79ZM270.928 126.926C271.116 127.362 271.418 127.8 271.822 128.243C272.227 128.686 272.539 128.797 272.768 128.562C272.663 128.509 272.619 128.321 272.638 127.98C272.425 127.882 272.145 127.621 271.794 127.195C271.438 126.777 271.15 126.687 270.928 126.926ZM274.996 131.943C274.49 131.356 274.306 131.319 274.443 131.803C274.572 132.301 274.755 132.338 274.996 131.943Z" fill="white"/>
<path d="M284.391 157.79C284.597 157.043 285.136 156.481 286.015 156.089C286.895 155.697 287.497 155.066 287.813 154.191C287.334 154.234 286.549 154.646 285.444 155.419C284.339 156.192 283.866 156.997 284.029 157.829C282.412 159.196 280.391 160.095 277.954 160.511C275.517 160.928 273.222 161.123 271.069 161.097C269.75 161.104 268.321 161.303 266.791 161.698C265.253 162.09 264.222 161.83 263.701 160.911C263.447 160.692 263.244 160.745 263.077 161.064C262.911 161.383 262.707 161.556 262.476 161.577C262.216 161.118 262.313 160.746 262.786 160.462C260.275 160.585 257.763 160.59 255.246 160.472C252.728 160.355 250.122 159.699 247.436 158.51C245.559 159.417 243.673 159.333 241.768 158.242C239.86 157.158 237.902 156.891 235.899 157.452C235.531 157.368 235.466 157.19 235.691 156.927C235.915 156.665 235.902 156.421 235.655 156.205C235.166 156.015 234.934 156.091 234.946 156.454C234.959 156.817 234.856 157.131 234.632 157.394C233.905 157.222 232.931 156.954 231.72 156.585C230.509 156.216 229.427 156.205 228.489 156.54L228.441 155.455C226.541 155.885 224.91 155.498 223.542 154.302C223.064 154.345 222.772 154.501 222.668 154.751C222.553 155.004 222.451 155.319 222.353 155.69C220.865 154.625 219.495 154.123 218.245 154.182C216.991 154.249 215.712 154.396 214.406 154.647C208.475 153.168 202.605 152.314 196.787 152.099C190.973 151.876 185.122 151.507 179.236 151.002C178.871 150.911 178.611 150.973 178.438 151.17C178.265 151.366 177.946 151.49 177.467 151.534C175.657 151.103 173.86 151.1 172.081 151.517C170.306 151.926 168.529 152.289 166.744 152.584C166.167 153 165.849 153.307 165.797 153.491C165.752 153.679 165.437 154.097 164.87 154.764C164.512 154.676 164.15 154.715 163.798 154.868C163.446 155.021 163.091 155.062 162.726 154.971C161.848 153.965 161.533 152.938 161.777 151.881C162.029 150.827 162.554 149.837 163.346 148.908C164.144 147.982 165.033 147.137 166.017 146.377C167.001 145.617 168.016 145 169.075 144.534C169.183 144.158 169.14 143.954 168.955 143.907C168.776 143.863 168.629 143.908 168.515 144.043C169.555 143.092 170.86 142.273 172.447 141.568C174.03 140.87 175.501 140.875 176.846 141.594C179.788 140.461 182.697 139.997 185.576 140.195C188.451 140.4 191.406 140.773 194.422 141.331C196.927 141.205 199.381 141.208 201.778 141.338C204.175 141.469 206.59 141.901 209.016 142.631C210.209 142.514 211.458 142.39 212.771 142.261C214.077 142.128 215.179 142.571 216.058 143.577C216.644 143.395 217.239 143.281 217.838 143.225C218.431 143.165 218.967 143.113 219.446 143.07C219.82 143.394 219.865 143.728 219.582 144.052C219.295 144.384 219.344 144.71 219.715 145.042C220.187 144.995 220.391 144.823 220.316 144.529C220.241 144.236 220.438 143.941 220.904 143.654C222.448 143.384 224.015 143.593 225.601 144.286C227.186 144.979 228.812 145.125 230.47 144.721C232.522 145.127 234.515 145.594 236.46 146.138C238.397 146.678 240.378 146.783 242.401 146.47C246.523 147.765 250.599 148.544 254.622 148.821C258.644 149.097 262.71 149.761 266.831 150.809C268.489 150.405 270.134 150.396 271.765 150.783C273.397 151.17 274.976 151.102 276.515 150.592C277.247 151.004 278.247 151.239 279.508 151.295C280.768 151.35 281.955 151.176 283.073 150.766C284.19 150.356 285.243 149.768 286.22 149.004C287.204 148.244 287.786 147.246 287.973 146.014C288.011 141.653 287.519 137.401 286.496 133.259C285.468 129.123 283.374 125.084 280.196 121.153C278.333 116.973 275.723 112.896 272.374 108.924C269.018 104.949 265.235 101.354 261.022 98.1292C262.385 96.5435 263.037 95.0232 262.966 93.5792C264.709 92.5589 266.084 91.2175 267.089 89.5441C268.086 87.8672 269.474 86.8886 271.259 86.5938C271.865 86.8967 272.099 87.2704 271.94 87.7115C271.78 88.1526 271.766 88.5483 271.899 88.8984C272.371 88.8512 272.708 89.0291 272.91 89.4321C273.106 89.8315 273.394 90.2043 273.768 90.529C275.903 92.8598 278.491 95.7009 281.512 99.042C284.532 102.383 286.836 105.667 288.421 108.902C289.074 110.171 289.676 111.506 290.22 112.903C290.759 114.307 291.354 115.638 292.019 116.903C292.285 117.604 292.673 118.172 293.174 118.606C293.669 119.037 294.053 119.613 294.33 120.31C295.257 122.283 295.767 124.348 295.87 126.522C295.966 128.691 296.362 130.773 297.052 132.764C296.907 134.96 296.563 137.266 296.022 139.683C295.473 142.097 294.168 144.379 292.115 146.515C291.613 148.622 290.72 150.736 289.442 152.867C288.172 154.965 286.486 156.617 284.391 157.79ZM174.232 143.476C173.906 144.118 173.935 144.197 174.333 143.737C174.734 143.271 174.698 143.189 174.232 143.476ZM191.146 144.364C191.006 144.011 190.997 143.777 191.111 143.642C191.221 143.515 191.157 143.336 190.909 143.121C189.749 143.966 188.733 143.997 187.867 143.235C186.995 142.469 186.034 142.445 184.991 143.148C186.092 143.644 187.126 144.034 188.093 144.299C189.056 144.571 190.078 144.597 191.146 144.364C191.879 144.777 192.451 144.807 192.855 144.47C193.262 144.125 193.323 143.607 193.056 142.906C192.577 142.95 192.189 143.021 191.896 143.112C191.603 143.203 191.348 143.624 191.146 144.364ZM184.665 143.908C184.072 144.087 184.077 144.144 184.676 144.088C185.269 144.028 185.264 143.97 184.665 143.908ZM194.736 144.378C194.234 143.944 193.762 143.991 193.302 144.52C193.435 144.87 193.614 144.914 193.85 144.648C194.074 144.385 194.374 144.298 194.736 144.378C194.869 144.728 195.017 144.748 195.187 144.421C195.347 144.099 195.557 144.049 195.811 144.267C195.472 144.665 195.567 144.803 196.097 144.694C196.628 144.585 196.71 144.361 196.335 144.036L196.508 143.839C196.117 143.278 195.531 143.46 194.736 144.378ZM195.807 144.275C196.032 144.012 196.208 143.927 196.332 144.043C196.228 144.174 196.045 144.256 195.807 144.275ZM197.58 143.736C197.352 144.005 197.299 144.189 197.426 144.299C197.547 144.405 197.374 144.483 196.902 144.53C197.035 144.88 197.469 145.143 198.195 145.315C198.771 144.899 198.936 144.515 198.683 144.178C198.422 143.837 198.059 143.692 197.58 143.736ZM199.266 145.211C199.866 145.273 200.463 145.271 201.063 145.214C201.656 145.154 202.26 145.274 202.872 145.58C203.458 145.398 203.51 145.214 203.026 145.017C202.537 144.827 202.465 144.645 202.824 144.496C203.198 144.82 203.371 144.623 203.336 143.901C202.628 144.215 201.83 144.382 200.931 144.408C200.028 144.44 199.478 144.704 199.266 145.211ZM204.129 145.643L204.814 144.852C204.439 144.527 204.133 144.374 203.896 144.392C204.029 144.742 204.068 144.954 204.016 145.019C203.953 145.088 203.989 145.289 204.129 145.643ZM205.188 145.176C206.054 145.939 207.074 145.901 208.23 145.063L207.296 144.247C206.94 144.408 206.619 144.585 206.333 144.798C206.043 145.001 205.66 145.129 205.188 145.176ZM210.973 146.061L210.425 145.933C210.403 145.455 210.21 145.286 209.865 145.442C209.51 145.603 209.227 145.809 208.995 146.067C209.243 146.283 209.722 146.239 210.429 145.926C210.444 146.418 210.63 146.465 210.973 146.061C211.347 146.385 211.52 146.307 211.497 145.829C211.474 145.352 211.295 145.426 210.973 146.061ZM212.54 145.007C212.432 145.383 212.302 145.665 212.129 145.862C211.956 146.059 211.874 146.283 211.891 146.52C213.324 146.379 214.765 146.542 216.218 147.004C217.67 147.466 219.118 147.633 220.551 147.491C219.304 146.401 218.045 145.77 216.782 145.586C215.515 145.409 214.1 145.212 212.54 145.007ZM213.474 145.823C214.051 145.407 214.113 145.456 213.66 145.989C213.203 146.51 213.141 146.461 213.474 145.823ZM220.774 144.558L221.149 144.883L221.488 144.485L221.113 144.161L220.774 144.558ZM225.401 147.56C225.493 146.948 225.411 146.532 225.168 146.309C224.702 146.597 224.236 146.885 223.77 147.173C223.304 147.461 223.108 147.18 223.198 146.32C222.513 147.111 222.301 147.618 222.549 147.833C223.372 147.633 224.105 147.926 224.74 148.71C225.303 148.051 225.685 147.858 225.877 148.146C226.069 148.434 226.342 148.616 226.71 148.7C227.505 147.781 227.594 147.158 226.989 146.855C226.734 146.636 226.498 146.719 226.28 147.104C226.058 147.496 225.759 147.648 225.401 147.56ZM227.407 148.272C227.655 148.487 228.012 148.575 228.495 148.524C228.248 148.309 227.886 148.228 227.407 148.272ZM229.896 147.671C229.642 147.452 229.463 147.408 229.349 147.543C229.596 147.758 229.775 147.802 229.896 147.671ZM230.811 148.12C230.456 148.28 229.804 148.402 228.853 148.493C230.215 149.449 231.84 149.714 233.735 149.291C232.762 148.904 232.602 148.706 233.26 148.706C233.918 148.706 234.172 148.404 234.026 147.809C233.186 147.772 232.656 148.065 232.451 148.694C232.238 149.319 231.697 149.13 230.811 148.12ZM231.867 147.661C231.661 148.408 231.752 148.554 232.153 148.087C232.554 147.621 232.453 147.479 231.867 147.661ZM234.295 149.782C234.647 149.629 235.009 149.709 235.379 150.041C235.754 150.366 236.106 150.213 236.439 149.575C237.11 148.539 236.877 148.112 235.754 148.281C234.624 148.447 234.143 148.947 234.295 149.782ZM237.466 148.379C237.127 148.776 237.074 149.079 237.329 149.298C237.576 149.513 237.647 149.814 237.55 150.186C237.901 150.033 238.258 150.056 238.633 150.262C239.001 150.464 239.364 150.609 239.728 150.701C239.826 150.329 240.049 150.002 240.402 149.73C240.747 149.455 240.736 149.157 240.365 148.825C239.579 149.995 239.082 150.258 238.878 149.607C238.656 148.957 238.192 148.551 237.466 148.379ZM235.486 152.207C235.007 152.251 234.805 152.369 234.874 152.54C234.939 152.719 235.066 152.829 235.248 152.865C235.427 152.909 235.605 152.888 235.784 152.813C235.953 152.742 235.857 152.539 235.486 152.207ZM240.623 150.801C240.871 151.016 241.17 151.048 241.522 150.895C241.867 150.738 242.235 150.822 242.61 151.147C243.173 150.487 243.392 149.984 243.259 149.633C242.793 149.921 242.348 150.119 241.938 150.216C241.531 150.323 241.093 150.506 240.623 150.801ZM245.848 151.195C245.474 150.87 245.294 150.945 245.324 151.426C245.343 151.911 245.515 151.833 245.848 151.195C245.981 151.545 246.167 151.592 246.395 151.323C246.62 151.06 246.845 150.798 247.08 150.532C246.712 150.448 246.411 150.352 246.17 150.259C245.922 150.162 245.686 150.245 245.461 150.507C245.708 150.723 245.838 150.961 245.848 151.195ZM249.799 151.171C249.818 151.656 250.082 152.108 250.58 152.549L251.431 151.558C251.056 151.233 250.516 151.109 249.799 151.171ZM253.984 152.397C254.365 152.963 254.664 152.994 254.883 152.49C255.095 151.984 255.388 151.774 255.753 151.865C255.255 151.424 254.669 151.606 253.984 152.397ZM255.942 152.024C255.736 152.771 255.864 152.881 256.317 152.349C256.773 151.827 256.646 151.718 255.942 152.024ZM255.088 153.023L255.648 153.513L255.986 153.116L255.427 152.625L255.088 153.023ZM259.004 152.276C258.749 152.058 258.565 151.956 258.455 151.965C258.335 151.978 258.151 151.877 257.907 151.654C257.213 152.212 256.872 152.663 256.891 153.03C256.904 153.392 257.248 153.053 257.919 152.017C258.167 152.232 258.525 152.32 259.004 152.276C259.498 152.707 259.736 152.689 259.717 152.204C259.698 151.719 259.457 151.744 259.004 152.276ZM260.466 152.853C260.696 152.831 260.995 152.679 261.341 152.404C261.686 152.129 261.616 151.893 261.131 151.696C260.564 152.363 260.346 152.747 260.466 152.853ZM262.258 152.68C262.752 153.111 263.111 153.08 263.329 152.577L262.955 152.252C262.726 152.522 262.578 152.621 262.52 152.565C262.451 152.512 262.368 152.553 262.258 152.68ZM264.776 152.798C265.648 153.564 266.368 153.613 266.935 152.946C266.681 152.728 266.471 152.659 266.298 152.737C266.119 152.812 266.02 152.616 266.001 152.131C265.886 152.266 265.472 152.488 264.776 152.798ZM268.912 152.94C268.707 153.687 268.834 153.796 269.287 153.264C269.736 152.739 269.609 152.63 268.912 152.94Z" fill="white"/>
</svg>
