<svg width="300" height="269" viewBox="0 0 300 269" fill="none" xmlns="http://www.w3.org/2000/svg">
<path d="M195.44 104.43C195.228 104.277 195.044 104.126 194.884 103.972C194.725 103.818 194.444 103.823 194.037 103.964C194.01 103.205 194.045 102.756 194.142 102.601C194.262 103.057 194.524 103.29 194.932 103.289C195.35 103.291 195.519 103.669 195.44 104.43C195.977 105.197 196.61 105.65 197.325 105.815C198.441 105.534 199.825 105.79 201.488 106.588C203.147 107.395 204.743 107.823 206.277 107.887L206.25 107.216C207.497 107.878 208.661 108.345 209.739 108.629C210.817 108.912 212.128 109.181 213.659 109.431C213.748 109.139 213.743 108.957 213.637 108.871C213.535 108.793 213.473 108.605 213.468 108.301C214.603 108.678 215.511 109.234 216.199 109.948C216.89 110.67 217.843 111.159 219.072 111.408C219.055 110.96 219.102 110.742 219.197 110.755C219.951 111.856 220.958 112.432 222.231 112.473C223.501 112.526 224.507 112.961 225.245 113.773C225.014 113.014 224.976 112.718 225.139 112.879C225.295 113.044 225.36 112.756 225.333 112.014C225.955 112.377 226.323 112.712 226.434 113.015C226.549 113.324 226.448 113.455 226.146 113.419C225.843 113.383 225.68 113.222 225.671 112.928C225.476 113.205 225.566 113.466 225.93 113.724C226.294 113.983 226.629 114.134 226.939 114.167C226.708 113.408 226.797 113.046 227.205 113.098C227.517 113.428 227.526 113.616 227.223 113.65C226.925 113.691 226.874 113.867 227.09 114.185C229.768 115.228 232.201 116.196 234.41 117.07C236.618 117.961 239.056 118.971 241.723 120.116C241.497 119.505 241.287 119.218 241.083 119.254C240.883 119.296 240.523 119.131 240.003 118.76C240.803 118.451 241.634 118.581 242.517 119.159C243.401 119.737 244.249 120.245 245.072 120.67C244.893 121.22 244.485 121.186 243.858 120.572C243.234 119.964 242.715 119.768 242.323 119.989C242.963 120.816 244.044 121.432 245.573 121.833C247.636 123.063 249.719 124.16 251.823 125.124C253.926 126.105 255.85 127.065 257.591 127.997C258.535 129.053 259.779 129.953 261.319 130.717C262.851 131.486 264.185 132.146 265.308 132.687C265.619 132.895 265.877 133.103 266.082 133.295C266.295 133.484 266.501 133.746 266.718 134.081C267.643 134.584 268.692 135.155 269.868 135.801C271.044 136.447 272.151 137.251 273.192 138.221C274.207 138.485 275.023 138.984 275.651 139.703C276.279 140.422 277.099 140.928 278.111 141.202C279.874 142.798 281.985 144.329 284.441 145.803C286.893 147.289 289.157 148.977 291.225 150.855C291.541 151.227 291.779 151.603 291.948 151.999C292.112 152.388 292.354 152.772 292.67 153.144C294.678 153.524 295.784 152.88 296.01 151.199C296.232 149.512 296.298 147.554 296.203 145.337C292.476 141.756 288.586 138.461 284.529 135.463C280.476 132.508 276.34 129.719 272.139 127.095C267.938 124.524 263.706 122.1 259.454 119.827C255.203 117.607 251.015 115.319 246.893 112.936C245.166 112.479 243.19 111.625 240.975 110.377C238.757 109.139 236.631 108.302 234.591 107.859C234.39 107.831 234.309 107.707 234.349 107.492C234.397 107.274 234.315 107.15 234.107 107.126C233.801 107.083 233.559 107.2 233.361 107.469C232.112 106.563 230.471 105.825 228.421 105.273C226.377 104.735 224.631 104.017 223.178 103.111C222.06 103.146 221.014 102.89 220.032 102.346C219.05 101.802 218.143 101.35 217.317 100.971C217.241 101.564 216.988 101.66 216.563 101.248C216.142 100.843 215.826 100.471 215.609 100.154C214.895 100.094 214.156 100.038 213.389 99.9797C212.625 99.9281 211.927 99.7281 211.306 99.3832C211.097 99.2193 210.884 99.0135 210.672 98.7726C210.459 98.5318 210.2 98.3233 209.883 98.1545C209.682 98.1444 209.556 98.2098 209.508 98.3578C209.46 98.5057 209.337 98.5781 209.133 98.561C208.832 98.6999 208.525 98.6393 208.211 98.39C207.899 98.1475 207.532 97.9342 207.123 97.7602C206.404 97.5711 205.637 97.4951 204.821 97.5319C204.009 97.5757 203.436 97.2053 203.1 96.4314C202.407 96.8614 201.735 96.7625 201.097 96.1274C200.392 96.4141 199.58 96.4229 198.649 96.168C197.719 95.9131 196.739 95.6311 195.71 95.3047C194.677 94.9888 193.669 94.7039 192.693 94.4638C191.71 94.2275 190.82 94.1888 190.002 94.3412C188.235 93.5811 186.333 93.1806 184.275 93.1331C182.228 93.1064 180.161 92.7475 178.085 92.0425C177.894 92.3611 177.483 92.4951 176.864 92.4477C176.245 92.4002 175.73 92.2282 175.306 91.939C172.629 91.774 170.517 91.6226 168.969 91.4952C167.425 91.3747 165.464 91.1713 163.082 90.9061C162.687 91.2603 162.203 91.4587 161.634 91.5082C161.068 91.5647 160.676 91.2854 160.449 90.6738C159.955 91.3519 159.186 91.4263 158.137 90.9077C155.163 91.389 152.273 91.5362 149.476 91.3456C146.679 91.1724 144.056 91.5944 141.595 92.6081C141.383 92.4898 141.252 92.3033 141.187 92.0736C141.128 91.8403 140.998 91.7413 140.787 91.7804C139.958 91.912 139.063 92.1044 138.087 92.3473C137.115 92.5972 136.367 92.7657 135.844 92.8529C135.43 92.9275 135.039 92.8756 134.675 92.7041C134.312 92.5327 133.865 92.4924 133.345 92.5865C130.758 92.7523 128.406 93.2179 126.299 93.9694C124.191 94.7383 121.945 95.3069 119.564 95.6821C118.739 95.8732 117.805 96.0943 116.773 96.3313C115.738 96.579 114.962 96.692 114.437 96.6567C111.433 97.4081 108.514 98.2907 105.667 99.2945C102.826 100.33 100.108 101.152 97.5066 101.756C90.0681 105.222 82.7411 108.542 75.5253 111.699C68.3038 115.035 61.0675 119.168 53.8127 124.094C52.0538 125.367 50.3441 126.632 48.68 127.882C47.0195 129.139 45.4241 130.626 43.8831 132.34C41.0737 134.175 38.3812 136.566 35.8123 139.489C33.2471 142.437 30.9444 145.67 28.9218 149.188C28.6448 150.649 28.3384 151.95 27.9994 153.118C27.6638 154.276 27.3541 155.588 27.077 157.031C27.3109 157.727 27.4914 158.318 27.6078 158.82C27.7348 159.325 27.8681 160.187 28.0077 161.406C28.6191 160.438 29.3784 159.947 30.2822 159.961C31.193 159.972 32.0169 160.106 32.7749 160.354C32.9851 160.245 33.0771 159.872 33.0616 159.239C33.8162 159.497 34.4555 159.411 34.9726 158.985C35.4897 158.558 36.1237 158.238 36.857 158.024C36.2015 157.39 35.418 157.023 34.5064 156.926C33.6019 156.824 32.8662 156.275 32.2957 155.271C32.5967 154.632 33.0358 154.123 33.6061 153.748C34.1763 153.373 34.5091 152.761 34.5834 151.905C34.3814 152.168 34.0633 152.412 33.6501 152.627C33.8472 152.2 34.209 151.696 34.7213 151.105C35.2372 150.521 35.6014 150.332 35.8176 150.544C39.7431 146.636 43.6203 143.288 47.4632 140.494C51.3028 137.746 55.0302 135.021 58.6556 132.304C58.8658 132.213 58.9663 132.011 58.9532 131.693C58.9402 131.375 58.9868 131.035 59.0788 130.662C59.6296 131.404 60.3203 131.59 61.1616 131.241C61.9992 130.885 62.8252 130.386 63.6499 129.712C64.4781 129.045 65.2502 128.407 65.9698 127.788C66.6929 127.175 67.2602 126.863 67.6821 126.855C67.9905 126.73 68.1375 126.188 68.1055 125.23C68.3193 125.145 68.4458 125.132 68.5025 125.19C68.5592 125.249 68.6857 125.236 68.8926 125.155C68.8747 124.672 68.7193 124.577 68.412 124.86C68.399 124.542 68.4506 124.401 68.5564 124.434C68.6657 124.473 68.77 124.314 68.8586 123.952C68.978 124.39 69.1651 124.478 69.4197 124.214C69.6744 123.95 69.908 123.697 70.11 123.451C70.3157 123.213 70.5464 123.04 70.8023 122.934C71.0617 122.834 71.2529 122.999 71.3723 123.437C71.1703 123.683 70.8592 123.923 70.4426 124.166C70.0297 124.415 69.7275 124.897 69.5397 125.618C71.0158 125.52 72.3937 124.989 73.6801 124.005C74.97 123.028 76.3533 122.749 77.8406 123.172C78.1444 122.9 78.2764 122.691 78.212 122.548C78.1582 122.41 78.0686 122.201 77.9574 121.916C78.4668 121.406 78.9354 121.075 79.3457 120.924C79.7629 120.768 80.0117 120.2 80.0848 119.205C80.2952 119.131 80.3491 119.27 80.2569 119.625C80.1647 119.98 80.1707 120.302 80.289 120.583C82.0563 119.947 83.6163 119.322 84.9617 118.694C86.3107 118.072 87.5507 117.446 88.6851 116.822C89.8232 116.205 90.9861 115.619 92.1704 115.075C93.3583 114.537 94.6842 114.112 96.1413 113.822C95.9213 113.567 95.8614 113.106 95.9441 112.44C96.1629 112.537 96.6348 112.626 97.3705 112.727C98.1063 112.828 98.4587 112.478 98.4384 111.681C99.076 111.815 99.5917 111.662 99.9926 111.216C99.9771 110.583 99.708 110.337 99.1852 110.494C99.2762 109.981 99.377 109.832 99.4841 110.04C99.5982 110.244 99.802 110.226 100.11 109.979C100.129 110.619 100.455 110.924 101.08 110.898C101.093 111.216 100.996 111.407 100.786 111.464C101.834 111.482 102.979 111.344 104.229 111.064C105.475 110.795 106.571 110.613 107.505 110.514C107.716 110.457 107.76 110.285 107.645 109.993C107.534 109.708 107.473 109.486 107.468 109.321C107.896 109.687 108.758 109.653 110.055 109.225C111.35 108.808 112.308 108.601 112.934 108.592C113.149 108.7 113.193 108.493 113.07 107.959C112.949 107.433 112.994 107.226 113.205 107.327C113.518 107.244 113.674 107.409 113.691 107.804C113.701 108.203 113.867 108.353 114.176 108.281C114.493 108.362 114.623 108.251 114.553 107.945C114.495 107.641 114.409 107.423 114.299 107.295C114.947 107.933 115.626 107.959 116.335 107.389C117.045 106.818 117.62 106.643 118.04 106.855C118.246 106.651 118.413 106.372 118.558 106.015C118.706 105.666 118.929 105.375 119.233 105.138C119.347 105.272 119.449 105.368 119.555 105.419C119.665 105.476 119.767 105.572 119.877 105.699C119.89 106.018 119.811 106.156 119.656 106.113C119.501 106.071 119.477 106.197 119.592 106.489C120.425 106.452 121.173 106.283 121.838 105.973C122.508 105.669 123.255 105.501 124.085 105.474C123.868 105.209 123.859 104.967 124.065 104.764C124.287 105.194 124.47 105.309 124.62 105.117C124.77 104.925 124.838 104.679 124.832 104.357C125.353 104.403 126.004 104.46 126.789 104.536C127.574 104.612 128.056 104.308 128.245 103.64C128.571 104.05 128.938 104.211 129.356 104.126C129.767 104.044 130.209 103.955 130.676 103.862C131.143 103.769 131.558 103.729 131.917 103.736C132.286 103.747 132.625 103.957 132.952 104.367C133.776 104.054 134.516 103.836 135.187 103.708C135.861 103.586 136.544 103.223 137.257 102.625C137.682 103.019 138.284 103.189 139.064 103.136C139.838 103.086 140.666 102.901 141.532 102.601C142.402 102.308 143.276 102.126 144.158 102.064C145.037 102.012 145.791 102.165 146.427 102.538L146.404 101.838C150.229 101.767 154.23 101.64 158.41 101.465C162.586 101.352 166.59 101.61 170.414 102.243C170.621 102.232 170.711 101.992 170.697 101.534C171.006 101.514 171.19 101.699 171.256 102.069C171.319 102.449 171.506 102.554 171.807 102.38L171.767 101.233C172.409 101.963 173.212 102.143 174.176 101.774C175.144 101.412 175.771 101.078 176.071 100.747C176.19 101.203 176.15 101.435 175.943 101.446C175.735 101.457 175.642 101.69 175.66 102.155C176.482 102.114 176.942 101.937 177.031 101.628C177.455 101.917 177.893 102.199 178.37 102.487C178.84 102.779 179.333 102.909 179.843 102.882C179.83 102.581 179.723 102.426 179.516 102.437C179.316 102.444 179.205 102.299 179.189 101.992C179.702 101.971 180.017 102.151 180.132 102.53C180.248 102.909 180.461 103.167 180.775 103.312C181.589 103.135 182.098 103.003 182.301 102.915C182.508 102.834 183.063 102.774 183.984 102.753C184.298 102.897 184.377 103.049 184.234 103.203C184.084 103.36 184.117 103.509 184.325 103.656C184.52 103.344 184.773 103.266 185.087 103.41C185.401 103.554 185.69 103.703 185.952 103.848C186.213 103.994 186.474 104.069 186.727 104.061C186.984 104.059 187.153 103.751 187.23 103.141C188.177 103.738 189.002 104.03 189.716 104.02C190.433 104.017 191.405 104.162 192.645 104.467C192.954 104.465 192.998 104.24 192.773 103.786C192.555 103.328 192.697 103.105 193.211 103.102C193.513 103.103 193.673 103.257 193.686 103.558C193.691 103.862 193.757 104.162 193.868 104.464C194.49 104.774 195.007 104.848 195.411 104.7L195.44 104.43ZM256.717 120.959C256.525 121.207 256.297 121.194 256.041 120.923C255.779 120.655 255.745 120.4 255.933 120.144C256.048 120.454 256.232 120.604 256.478 120.582C256.728 120.566 256.81 120.691 256.717 120.959ZM253.62 118.807C253.838 119.282 253.794 119.49 253.494 119.425C253.188 119.365 253.232 119.157 253.62 118.807ZM252.258 118.749C251.439 118.296 250.666 117.898 249.949 117.541C249.232 117.184 248.459 116.716 247.631 116.127C248.133 115.928 248.911 116.113 249.992 116.676C251.069 117.25 251.827 117.946 252.258 118.749ZM249.868 119.366C249.676 119.475 249.32 119.405 248.805 119.163C248.293 118.928 247.932 118.641 247.719 118.313C248.815 118.235 249.539 118.589 249.868 119.366ZM247.254 118.238C246.751 118.296 246.44 118.019 246.316 117.416C246.925 117.53 247.24 117.797 247.254 118.238ZM245.311 114.846C244.609 115.017 244.154 114.788 243.924 114.169C244.318 113.798 244.781 114.023 245.311 114.846ZM242.7 113.742C242.909 113.923 243.113 113.957 243.313 113.845C243.512 113.733 243.615 113.829 243.621 114.116C243.532 114.39 243.36 114.471 243.099 114.36C242.848 114.236 242.709 114.035 242.7 113.742C241.265 113.213 239.755 112.609 238.167 111.922C236.576 111.246 235.217 110.608 234.08 110.003C235.801 110.103 237.309 110.55 238.599 111.329C239.892 112.116 241.256 112.919 242.7 113.742ZM242.327 119.996C242.101 119.384 242.002 119.33 242.016 119.841C242.041 120.355 242.144 120.398 242.327 119.996ZM241.094 115.225C240.591 115.144 240.325 114.887 240.311 114.446C240.909 114.539 241.179 114.804 241.094 115.225ZM240.01 114.62C239.495 114.395 239.064 114.215 238.705 114.085C238.345 113.956 238.058 113.657 237.84 113.182C238.044 113.216 238.404 113.381 238.919 113.675C239.432 113.98 239.796 114.291 240.01 114.62ZM239.384 118.23C239.606 118.694 239.581 118.733 239.311 118.329C239.051 117.928 239.068 117.893 239.384 118.23ZM237.698 117.541C237.306 117.78 237.097 117.599 237.071 117.015C237.275 117.049 237.476 117.077 237.677 117.104C237.884 117.128 237.889 117.275 237.698 117.541ZM237.433 114.666C237.356 115.242 237.3 115.271 237.282 114.753C237.264 114.236 237.32 114.207 237.433 114.666ZM237.081 113.294C236.961 112.838 236.661 112.721 236.16 112.938C235.663 113.161 235.457 112.986 235.534 112.411C235.63 112.133 236.003 112.15 236.674 112.469C237.341 112.782 237.476 113.063 237.081 113.294ZM233.851 112.178C234.052 112.205 234.108 112.246 234.007 112.308C233.912 112.365 233.856 112.325 233.851 112.178C233.744 112.022 233.74 111.91 233.838 111.842C233.939 111.78 233.944 111.892 233.851 112.178ZM103.51 101.468C104.242 101.422 104.924 101.437 105.547 101.509C106.177 101.577 106.789 101.128 107.389 100.157C109.156 99.8461 110.841 99.5334 112.446 99.2012C114.057 98.8829 115.729 98.112 117.46 96.8885C117.581 97.5021 117.715 97.5904 117.856 97.1572C117.997 96.724 118.184 96.8814 118.419 97.6293C118.827 97.2154 119.128 97.024 119.339 97.0549C119.55 97.0858 119.965 97.1162 120.595 97.132C122.124 96.1538 123.626 95.7782 125.087 96.0298C126.552 96.2883 127.681 95.7729 128.469 94.4941C128.588 94.9503 128.797 95.1492 129.11 95.0836C129.415 95.0217 129.788 94.9515 130.198 94.87C130.184 94.3943 130.28 94.1335 130.484 94.098C130.497 94.4162 130.551 94.6077 130.661 94.665C130.763 94.726 130.82 94.8369 130.829 94.9907C132.902 94.758 134.964 94.5744 137.038 94.4466C139.108 94.3294 141.328 93.9328 143.682 93.2466C145.355 93.634 147.162 93.6094 149.107 93.1796C151.059 92.7637 152.919 92.773 154.688 93.1901C154.979 92.6875 155.312 92.5235 155.679 92.7194C156.047 92.9152 156.388 92.9926 156.691 92.9587C157.424 93.193 158.145 93.1964 158.86 92.9655C159.576 92.7347 160.289 92.5843 161.009 92.5178C162.043 92.5782 163.054 92.835 164.046 93.2952C165.041 93.7624 165.933 93.4931 166.719 92.4873C167.26 93.2258 167.778 93.4222 168.282 93.0729C168.785 92.7237 169.445 92.5219 170.267 92.4639C170.578 92.6013 170.664 92.7852 170.514 93.0295C170.365 93.2739 170.454 93.4647 170.761 93.5952C172.207 93.6616 173.573 93.8135 174.862 94.058C176.154 94.3093 177.355 94.02 178.456 93.1937C178.664 93.3401 178.853 93.5674 179.017 93.8687C179.184 94.1769 179.422 94.3963 179.736 94.5407C180.138 94.2179 180.391 94.2095 180.502 94.5118C180.617 94.821 180.878 94.9664 181.286 94.948C183.021 94.5923 184.741 94.7094 186.444 95.2922C188.154 95.889 189.875 96.111 191.615 95.9547C191.722 96.1101 191.783 96.2979 191.788 96.5323C191.801 96.763 191.899 96.7996 192.099 96.6522C195.29 97.2972 198.635 97.9321 202.125 98.5712C205.619 99.2523 208.657 100.205 211.244 101.418C211.434 100.977 211.732 100.883 212.149 101.141C212.566 101.399 212.921 101.382 213.215 101.107C213.233 101.712 213.45 102.029 213.855 102.057C214.981 102.14 216.342 102.628 217.945 103.517C219.552 104.413 220.908 104.684 222.013 104.348C222.449 105.141 222.919 105.52 223.422 105.496C223.928 105.479 224.443 105.721 224.968 106.222C226.1 106.645 227.506 107.03 229.19 107.386C230.877 107.749 232.093 108.576 232.848 109.852C226.894 107.48 220.775 105.201 214.499 103.013C208.223 100.948 202.255 99.4612 196.607 98.5455C190.417 96.9719 184.62 95.8877 179.214 95.2683C173.805 94.7469 168.113 94.4166 162.137 94.2948C155.626 94.0293 148.795 94.1411 141.615 94.6446C134.432 95.3162 127.332 96.5776 120.313 98.4114C119.577 98.2577 119.157 98.1154 119.051 97.9774C115.548 99.2949 112.584 100.192 110.14 100.653C107.7 101.138 104.879 101.987 101.678 103.218C96.0882 105.206 90.364 107.536 84.5124 110.222C78.6582 113.024 72.4657 116.186 65.9246 119.739C66.1997 118.481 66.715 117.827 67.4531 117.777C68.1912 117.728 68.9111 117.161 69.6164 116.066C69.8233 115.985 70.0101 116.037 70.1732 116.216C70.3364 116.395 70.5758 116.429 70.8878 116.311C74.3967 113.989 77.9191 112.037 81.4477 110.443C84.9732 108.894 88.5523 107.449 92.1849 106.108C92.3919 106.045 92.5166 105.804 92.5555 105.38C92.598 104.963 92.715 104.638 92.9172 104.41C93.5572 104.86 94.2428 104.847 94.9636 104.385C95.6844 103.923 96.3629 103.913 97.0065 104.369C97.1023 104.021 97.1421 103.719 97.1332 103.478C97.1243 103.237 97.2777 103.069 97.5934 102.976C98.34 103.563 99.2327 103.504 100.254 102.798C101.282 102.071 102.362 101.634 103.51 101.468ZM232.003 111.486C231.816 111.899 231.697 111.926 231.627 111.549C231.568 111.176 231.328 111.037 230.931 111.128L230.917 110.688C231.023 110.703 231.096 110.674 231.142 110.606C231.187 110.539 231.271 110.513 231.366 110.525C231.481 110.834 231.609 110.996 231.764 111.021C231.912 111.032 231.994 111.192 232.003 111.486ZM230.002 110.566C229.584 110.22 228.992 110.036 228.236 110.015C227.476 110.006 226.981 109.613 226.746 108.847C227.27 109.208 227.904 109.388 228.667 109.405C229.423 109.425 229.873 109.816 230.002 110.566ZM224.58 111.931C224.903 112.404 225.059 112.569 225.055 112.422C224.948 112.267 224.842 112.216 224.741 112.278C224.643 112.346 224.593 112.232 224.58 111.931ZM224.3 108.58C223.981 108.254 223.78 108.156 223.683 108.295C223.585 108.433 223.429 108.268 223.208 107.803C223.305 107.665 223.509 107.647 223.812 107.753C224.122 107.856 224.283 108.132 224.3 108.58ZM223.661 111.837C223.351 111.804 223.13 111.823 222.979 111.874C222.832 111.933 222.661 112.031 222.458 112.154C222.431 111.413 222.625 111.101 223.03 111.216C223.439 111.337 223.652 111.543 223.661 111.837ZM222.439 107.5C222.129 107.467 221.83 107.438 221.524 107.413C221.218 107.387 221.008 107.136 220.889 106.679C221.195 106.705 221.526 106.744 221.881 106.779C222.233 106.807 222.421 107.052 222.439 107.5ZM219.877 108.145C220.081 108.162 220.182 108.1 220.174 107.946C220.17 107.799 220.272 107.808 220.48 107.972C220.697 108.29 220.649 108.472 220.344 108.517C220.042 108.568 219.879 108.442 219.877 108.145ZM216.74 105.864L216.279 105.831L216.261 105.383L216.722 105.417L216.74 105.864ZM214.588 109.493C214.273 109.174 214.248 109.213 214.519 109.6C214.782 109.99 214.806 109.951 214.588 109.493ZM213.805 104.735C213.294 104.552 212.551 104.35 211.568 104.131C210.599 103.922 209.938 103.431 209.608 102.653C210.433 102.858 211.177 103.13 211.851 103.474C212.529 103.825 213.179 104.243 213.805 104.735ZM208.876 103.525C208.864 103.224 208.785 103.072 208.63 103.064C208.475 103.057 208.446 102.827 208.526 102.381C208.729 102.24 208.885 102.405 209.005 102.861C209.121 103.31 209.084 103.532 208.876 103.525ZM208.398 103.044C207.581 102.854 206.757 102.702 205.94 102.581C205.12 102.471 204.396 102.17 203.77 101.696C204.373 101.418 205.16 101.379 206.14 101.573C207.112 101.771 207.864 102.267 208.398 103.044ZM206.917 104.323C206.836 104.769 206.755 104.732 206.684 104.198C206.617 103.671 206.691 103.711 206.917 104.323ZM202.237 101.631C202.138 101.63 202.033 101.702 201.939 101.847C201.846 101.992 201.694 101.992 201.479 101.832L201.447 100.926C201.863 101.096 202.125 101.329 202.237 101.631ZM199.913 100.879C199.802 100.576 199.492 100.526 198.991 100.742C198.49 100.959 198.171 100.685 198.046 99.9244C198.24 99.6302 198.652 99.6362 199.27 99.9566C199.895 100.273 200.108 100.584 199.913 100.879ZM198.575 101.986C198.39 102.592 198.32 102.628 198.348 102.095C198.382 101.559 198.456 101.53 198.575 101.986ZM197.494 101.731C196.904 102.326 196.386 102.165 195.943 101.253C196.652 101.113 197.17 101.275 197.494 101.731ZM194.655 99.4094C194.952 99.1061 195.107 99.1836 195.121 99.6418C195.136 100.1 194.98 100.023 194.655 99.4094ZM194.054 99.862C193.434 99.7096 192.846 99.5495 192.278 99.3961C191.711 99.2426 191.22 99.0142 190.796 98.7074C191.416 98.8599 192.06 98.9033 192.72 98.824C193.377 98.7552 193.823 99.1036 194.054 99.862ZM190.04 99.1701C190.035 99.0232 190.01 98.9047 189.953 98.8288C189.896 98.7529 189.874 98.6413 189.866 98.4875C189.971 98.4855 190.041 98.4141 190.086 98.2593C190.134 98.1113 190.207 98.0294 190.305 98.031C190.543 98.7858 190.455 99.1655 190.04 99.1701ZM189.792 100.774C189.689 100.626 189.58 100.551 189.481 100.549C189.679 100.245 189.822 100.091 189.928 100.089C189.938 100.54 189.898 100.772 189.792 100.774ZM187.002 100.115C187.206 100.114 187.316 100.189 187.313 100.339C187.113 100.347 187.01 100.268 187.002 100.115ZM186.638 98.5118C186.429 98.3653 186.225 98.3308 186.018 98.4118C185.822 98.4961 185.81 98.3004 185.996 97.8348L186.611 97.8228L186.638 98.5118ZM186.691 99.8896C186.501 100.348 186.424 100.353 186.462 99.8941C186.494 99.4385 186.571 99.4335 186.691 99.8896ZM186.587 101.498C186.278 101.501 186.118 101.276 186.104 100.818C186.316 100.971 186.475 101.038 186.573 101.04C186.679 101.038 186.68 101.195 186.587 101.498ZM185.379 97.6193C185.79 97.6078 185.873 97.8372 185.634 98.3038C185.395 98.7704 185.122 98.9297 184.804 98.7784C184.701 98.6299 184.664 98.4031 184.708 98.0908C184.754 97.7854 184.665 97.6297 184.465 97.6371C184.28 98.2601 184.04 98.5693 183.73 98.5718C183.305 98.1251 182.811 97.8722 182.244 97.8062C181.681 97.7472 181.086 97.7307 180.475 97.7496C180.964 96.9596 181.803 96.7089 182.99 96.9798C184.163 97.258 184.967 97.4733 185.379 97.6193ZM185.379 97.6193C185.175 97.6197 185.077 97.7056 185.082 97.8525C185.187 97.8505 185.234 97.8881 185.238 97.965C185.242 98.0419 185.295 98.0759 185.393 98.0775L185.379 97.6193ZM184.661 94.3995L184.355 94.4089L184.336 93.7163L184.642 93.7069L184.661 94.3995ZM181.586 99.0964C180.869 99.1174 180.55 98.8261 180.629 98.2051L181.396 98.1762C181.413 98.6413 181.483 98.9479 181.586 99.0964ZM179.644 100.772C179.029 100.801 178.763 100.579 178.851 100.112C179.368 100.098 179.63 100.314 179.644 100.772ZM177.976 101.532L177.361 101.562C177.241 101.106 177.257 100.843 177.407 100.756C177.561 100.676 177.736 100.55 177.935 100.385L177.976 101.532ZM173.305 95.5336C173.522 95.8339 173.832 95.9713 174.243 95.9423C174.658 95.9203 175.042 95.9408 175.401 96.0003C175.76 96.0599 176.081 96.2006 176.336 96.4196C176.601 96.642 176.741 96.9822 176.755 97.4404C174.578 96.9368 172.645 96.5789 170.941 96.374C169.234 96.1797 167.568 96.3066 165.937 96.7407C166.023 96.1161 165.961 95.7708 165.749 95.705C165.541 95.646 165.328 95.3877 165.107 94.9405C166.659 95.1273 168.049 95.2928 169.295 95.4366C170.527 95.5876 171.867 95.6211 173.305 95.5336ZM174.758 92.8911C174.576 93.521 174.468 93.5687 174.453 93.023C174.435 92.4879 174.54 92.4333 174.758 92.8911ZM168.046 99.8355L168.355 99.8155C168.457 99.8065 168.567 99.8814 168.666 100.023C168.778 100.325 168.68 100.411 168.363 100.277C168.056 100.147 167.952 99.9983 168.046 99.8355ZM166.274 97.6546L166.58 97.6277C166.872 97.1425 167.288 97.2605 167.828 97.9989C168.032 97.9809 168.088 98.0218 167.987 98.1008C167.889 98.1867 167.836 98.1527 167.828 97.9989C167.43 98.3461 167.01 98.2213 166.58 97.6277L166.274 97.6546L166.292 98.1197C165.986 98.1467 165.652 98.1707 165.287 98.2023C164.929 98.2302 164.635 97.9525 164.412 97.3478C164.829 97.6232 165.198 97.6685 165.496 97.4878C165.8 97.3034 166.061 97.3613 166.274 97.6546ZM166.198 99.9869C166.18 99.5218 166.335 99.5118 166.658 99.95C166.454 99.968 166.356 100.054 166.354 100.204C166.362 100.358 166.316 100.286 166.198 99.9869ZM164.383 96.414C164.273 96.2691 164.143 96.2401 163.996 96.334C163.849 96.4278 163.61 96.4115 163.303 96.281C163.293 95.9697 163.341 95.7693 163.439 95.6834C163.537 95.5975 163.491 95.5599 163.28 95.5815C163.077 95.7569 162.91 95.9666 162.761 96.211C162.615 96.4623 162.387 96.5193 162.073 96.3924C162.36 95.7428 162.911 95.2282 163.721 94.8344C163.537 95.6325 163.659 96.0081 164.067 95.9721C164.058 95.6608 164.048 95.3495 164.039 95.0382C164.029 94.727 164.127 94.6411 164.339 94.7769C164.449 94.9218 164.536 95.2281 164.596 95.6889C164.659 96.1566 164.587 96.396 164.383 96.414ZM161.39 99.4959C161.787 98.9912 161.938 98.9743 161.854 99.4484C161.77 99.9225 161.615 99.9325 161.39 99.4959ZM160.946 95.3258C160.766 96.1308 160.238 96.449 159.358 96.3087C158.477 96.1683 157.922 95.7976 157.7 95.193C158.315 95.1285 158.834 95.0694 159.242 95.0335C159.646 94.9906 160.22 95.088 160.946 95.3258ZM159.562 100.375C159.358 100.393 159.15 100.421 158.947 100.439C158.743 100.457 158.681 100.235 158.766 99.7604L159.539 99.6754L159.562 100.375ZM157.785 97.9946C157.586 98.177 157.431 98.117 157.316 97.8077C157.204 97.5054 157.252 97.27 157.444 97.0913C157.453 97.4026 157.514 97.5904 157.62 97.6583C157.723 97.7368 157.78 97.8477 157.785 97.9946ZM156.96 96.4462C156.651 96.4837 156.491 96.2594 156.474 95.7942C156.686 95.9301 156.841 95.9901 156.943 95.9811C157.045 95.9721 157.053 96.126 156.96 96.4462ZM155.704 95.8862C155.625 96.5247 155.569 96.5713 155.55 96.0187C155.536 95.473 155.585 95.43 155.704 95.8862ZM153.975 100.078C153.967 99.9237 153.868 99.8521 153.661 99.8806L153.632 98.9467L154.092 98.8923C154.123 99.6756 154.084 100.065 153.975 100.078ZM153.071 95.9619C153.181 96.1067 153.283 96.1327 153.384 96.0363C153.489 95.9467 153.535 95.9843 153.543 96.1382C153.227 96.1793 153.072 96.1193 153.071 95.9619ZM152.939 96.6889C152.731 96.5599 152.469 96.397 152.148 96.2038C151.833 96.0069 151.768 95.7422 151.966 95.4024C152.186 95.6921 152.395 95.856 152.603 95.915C152.811 95.9564 152.918 96.2168 152.939 96.6889ZM151.228 96.4351C150.623 96.8284 150.306 96.7121 150.287 96.0895C150.384 95.9161 150.691 96.0291 151.228 96.4351ZM140.518 96.5838C141.744 95.9125 143.309 95.4691 145.217 95.2606C147.125 95.0695 148.713 95.4306 149.983 96.3613C149.374 96.7651 148.756 96.8052 148.127 96.4989C147.499 96.1926 146.938 96.396 146.437 97.0952C144.776 96.8685 143.457 96.9117 142.482 97.2246C141.507 97.5375 140.144 97.683 138.375 97.6614C138.555 96.839 138.439 96.4597 138.025 96.5343C137.941 97.0259 137.968 97.3368 138.131 97.4631C138.286 97.5931 138.217 97.7694 137.917 97.9783C137.391 97.7505 136.825 97.737 136.2 97.9206C135.579 98.1112 135.017 98.1746 134.496 98.1112C135.17 96.5583 136.089 95.8789 137.23 96.0772C138.385 96.2683 139.476 96.4395 140.518 96.5838ZM147.242 97.916C147.347 97.8965 147.445 97.8106 147.542 97.6372C147.643 97.4708 147.797 97.4433 148.006 97.5722C148.222 97.855 148.126 98.0633 147.719 98.2042C147.305 98.3488 147.146 98.2469 147.242 97.916ZM146.16 98.0735C145.975 98.7316 145.87 98.7861 145.855 98.2405C145.837 97.6878 145.935 97.6369 146.16 98.0735ZM145.59 99.81C145.51 100.448 145.458 100.502 145.44 99.9494C145.425 99.4037 145.481 99.3571 145.59 99.81ZM144.273 92.4301C144.481 92.4016 144.583 92.4626 144.591 92.6164C144.381 92.6555 144.275 92.5876 144.273 92.4301ZM143.378 98.4986C143.175 98.534 143.045 98.5926 143 98.6774C142.948 98.7659 142.874 98.8128 142.769 98.8324L142.742 98.126L143.055 98.0779L143.378 98.4986ZM140.803 100.564C140.286 100.648 140.021 100.461 140.007 99.985C140.523 99.9015 140.781 100.092 140.803 100.564ZM140.129 99.0167C139.82 99.0717 139.556 98.9543 139.343 98.6785C139.546 98.643 139.672 98.5426 139.72 98.3772C139.768 98.2118 139.894 98.1113 140.098 98.0759L140.129 99.0167ZM137.954 99.1535C137.751 99.3464 137.492 99.3934 137.181 99.291C136.864 99.1921 136.647 98.9094 136.531 98.4602C136.842 98.5626 137.155 98.5845 137.467 98.5365C137.78 98.4709 137.94 98.6778 137.954 99.1535ZM134.704 99.4966C134.408 99.8698 134.124 99.9559 133.858 99.7685C133.593 99.5812 133.366 99.7431 133.177 100.254C133.07 100.116 132.984 99.8975 132.922 99.5872C132.863 99.2839 132.932 99.1076 133.136 99.0721C133.149 99.3903 133.409 99.3783 133.913 99.0465C134.416 98.7147 134.681 98.8671 134.704 99.4966ZM134.013 97.4837C133.634 98.506 132.888 98.8495 131.784 98.4999C130.685 98.1573 129.929 98.1895 129.527 98.5823C130.122 97.6678 130.816 97.4128 131.61 97.8173C132.398 98.2255 133.198 98.1085 134.013 97.4837ZM132.45 102.291C132.431 101.669 132.524 101.331 132.731 101.285C132.944 101.561 133.009 101.79 132.912 101.964C132.811 102.148 132.661 102.252 132.45 102.291ZM130.121 102.508C130.015 102.528 129.97 102.577 129.967 102.658C129.971 102.735 129.919 102.788 129.814 102.808C129.791 102.178 129.891 101.924 130.099 102.036L130.121 102.508ZM129.387 99.0855C129.069 98.8292 128.678 98.7948 128.215 98.9648C127.756 99.1417 127.338 99.2618 126.98 99.3422C126.619 99.4158 126.278 99.4084 125.964 99.3165C125.65 99.2246 125.38 98.8029 125.145 98.055C125.983 98.1997 126.813 98.2256 127.643 98.1289C128.475 98.0393 129.058 98.3604 129.387 99.0855ZM128.871 102.287C129.078 102.241 129.184 102.309 129.188 102.456L129.034 102.484C128.925 102.514 128.872 102.445 128.871 102.287ZM126.703 102.973C126.695 102.82 126.747 102.731 126.848 102.705C126.954 102.685 127.007 102.754 127.008 102.911C126.903 102.931 126.83 103.03 126.782 103.196C126.745 103.365 126.716 103.292 126.703 102.973ZM126.088 103.108C126.009 103.764 125.953 103.775 125.938 103.142C125.911 102.506 125.961 102.498 126.088 103.108ZM125.005 98.5582C124.798 98.6042 124.802 98.6811 125.014 98.7995C125.226 98.9179 125.283 99.0637 125.179 99.2408C122.399 100.324 119.771 101.082 117.281 101.505C114.795 101.952 111.9 102.761 108.593 103.941C108.676 103.275 108.955 102.919 109.422 102.879C109.889 102.838 109.859 102.485 109.312 101.82C111.088 101.838 112.822 101.483 114.522 100.732C116.222 99.9993 117.798 99.6992 119.262 99.8352C119.249 99.517 119.223 99.3635 119.167 99.3751C119.118 99.383 119.082 99.3137 119.081 99.1563C119.817 99.31 120.415 99.3333 120.882 99.2228C121.345 99.1228 121.787 98.9812 122.194 98.8053C122.604 98.6363 123.014 98.5024 123.429 98.4103C123.857 98.3285 124.378 98.3744 125.005 98.5582ZM124.925 100.971C124.741 101.647 124.632 101.712 124.621 101.155C124.603 100.603 124.704 100.541 124.925 100.971ZM124.19 102.319C124.412 102.748 124.391 102.794 124.118 102.453C123.848 102.119 123.869 102.073 124.19 102.319ZM123.148 103.984C122.941 104.03 122.738 104.118 122.535 104.241C122.332 104.364 122.222 104.271 122.213 103.96C122.419 103.757 122.568 103.565 122.662 103.384C122.766 103.207 122.912 103.009 123.111 102.809L123.148 103.984ZM120.986 99.9242C120.985 99.7667 120.819 99.721 120.51 99.7935C120.522 99.9542 120.677 99.9967 120.986 99.9242ZM120.432 101.968C120.548 102.418 120.508 102.667 120.301 102.713C120.094 102.759 119.887 102.805 119.683 102.858L119.654 101.906C119.862 101.86 120.023 101.864 120.122 101.918C120.225 101.979 120.33 101.995 120.432 101.968ZM119.579 104.792C119.564 104.316 119.868 104.009 120.486 103.864C120.5 104.34 120.2 104.654 119.579 104.792ZM117.498 103.131C117.485 102.813 117.427 102.632 117.325 102.571C117.219 102.521 117.267 102.39 117.469 102.18C117.471 102.337 117.532 102.49 117.642 102.618C117.748 102.755 117.697 102.931 117.498 103.131ZM115.943 103.508C115.916 102.714 116.117 102.346 116.536 102.401C116.651 102.693 116.606 102.865 116.392 102.915C116.188 102.968 116.035 103.17 115.943 103.508ZM115.528 105.287C115.731 105.234 115.841 105.291 115.842 105.449C115.646 105.498 115.54 105.448 115.528 105.287ZM115.643 103.822C115.132 104.105 114.761 103.884 114.527 103.137C114.743 103.402 114.979 103.464 115.235 103.322C115.49 103.181 115.629 103.346 115.643 103.822ZM115.07 105.639L114.761 105.711L114.747 105.236L115.056 105.163L115.07 105.639ZM113.13 103.493C113.636 103.045 113.9 103.058 113.914 103.533C113.928 104.009 113.665 103.997 113.13 103.493ZM112.837 104.286C112.417 104.073 112.02 104.095 111.663 104.351C111.306 104.606 110.872 104.796 110.349 104.936C110.545 104.404 110.943 104.022 111.564 103.779C112.191 103.532 112.618 103.706 112.837 104.286ZM112.732 105.754C112.761 106.706 112.534 106.92 112.048 106.408C111.563 105.896 111.577 105.493 112.092 105.2C112.011 106.181 112.227 106.359 112.732 105.754ZM110.04 105.009C109.925 104.717 109.798 104.677 109.642 104.873C109.488 105.075 109.361 104.948 109.238 104.503C109.334 104.154 109.565 104.052 109.932 104.195C110.316 104.338 110.343 104.614 110.04 105.009ZM108.629 104.907C108.634 105.071 108.509 105.224 108.253 105.365C107.994 105.517 107.814 105.444 107.699 105.152C108.013 105.226 108.219 105.093 108.315 104.745C108.404 104.4 108.51 104.45 108.629 104.907ZM108.137 104.073C107.513 104.239 107.195 104.087 107.184 103.601C107.382 103.226 107.613 103.089 107.877 103.171C108.138 103.264 108.221 103.564 108.137 104.073ZM107.078 105.325C107.092 105.801 107.024 106.1 106.867 106.225C106.717 106.347 106.539 106.519 106.33 106.733C106.526 106.2 106.485 105.967 106.229 106.038C105.973 106.11 105.834 105.909 105.816 105.427C106.135 105.665 106.371 105.675 106.524 105.472C106.684 105.266 106.866 105.224 107.078 105.325ZM106.734 104.45C102.899 105.518 98.7321 106.943 94.2237 108.721C89.716 110.569 85.188 112.533 80.6258 114.62C80.608 114.138 80.5493 113.834 80.4393 113.707C80.4632 114.511 80.2209 115.006 79.6949 115.191C78.6343 114.925 77.6452 115.245 76.7274 116.152C75.8062 117.069 74.7741 117.737 73.6275 118.165C73.7101 117.481 74.0161 117.041 74.535 116.842C75.0575 116.65 75.3032 116.144 75.2793 115.34C77.0596 115.004 78.6397 114.263 80.0268 113.113C81.4104 111.973 82.8418 111.546 84.3281 111.846C84.7311 111.216 85.4479 110.694 86.4854 110.261C87.5265 109.835 88.3061 109.694 88.8347 109.841C89.7438 108.728 90.6019 108.291 91.3949 108.521C92.1879 108.75 93.2065 108.591 94.4469 108.034L94.4219 107.073C96.2138 107.328 98.2111 106.88 100.428 105.738C102.635 104.628 104.748 104.198 106.734 104.45ZM104.899 105.92C104.816 106.587 104.764 106.641 104.746 106.088C104.731 105.525 104.783 105.471 104.899 105.92ZM104.619 106.962C104.536 107.628 104.483 107.647 104.464 107.007C104.442 106.377 104.495 106.359 104.619 106.962ZM104.45 106.531C103.931 106.678 103.666 106.508 103.652 106.032C104.171 105.886 104.436 106.055 104.45 106.531ZM103.691 107.47C103.492 107.687 103.364 107.921 103.32 108.18C103.273 108.433 103.151 108.593 102.941 108.65C103.036 108.301 103.031 108.102 102.925 108.052C102.819 108.001 102.762 107.82 102.749 107.502C102.946 107.127 103.152 106.941 103.36 106.965C103.575 106.986 103.685 107.148 103.691 107.47ZM102.119 107.434C102.008 107.149 102.132 106.909 102.489 106.723C102.85 106.545 102.988 106.623 102.892 106.971C102.68 106.87 102.551 106.911 102.506 107.083C102.455 107.259 102.329 107.377 102.119 107.434ZM101.973 107.72C101.768 107.941 101.665 107.933 101.657 107.691C101.648 107.45 101.593 107.189 101.478 106.897L101.941 106.762L101.973 107.72ZM100.237 107.383C100.549 107.212 100.704 107.29 100.717 107.608L100.408 107.698L100.108 108.029C99.8848 107.768 99.9254 107.554 100.237 107.383ZM98.6981 108.445L98.2279 108.584L98.2047 107.867L98.6749 107.728L98.6981 108.445ZM97.8309 110.88C97.9682 111.802 97.9691 111.924 97.8372 111.237C97.7228 110.55 97.7149 110.431 97.8309 110.88ZM97.4526 108.819C97.3687 109.329 97.2842 109.32 97.2131 108.768C97.1491 108.23 97.2266 108.243 97.4526 108.819ZM96.2733 111.355C96.4993 111.932 96.4788 112.013 96.205 111.619C95.9346 111.215 95.9551 111.134 96.2733 111.355ZM95.8897 109.06C96.0966 108.996 96.2025 109.047 96.2108 109.201C96.0038 109.264 95.8979 109.214 95.8897 109.06ZM95.4837 111.115C95.4695 110.639 95.6203 110.587 95.9503 110.97C95.7433 111.033 95.6422 111.147 95.6434 111.304C95.6482 111.469 95.5985 111.407 95.4837 111.115ZM92.6257 110.324C93.1496 110.324 93.6968 110.145 94.2603 109.809C94.8239 109.473 95.2209 109.433 95.4374 109.681C94.9194 110.003 94.4608 110.267 94.0476 110.482C93.6377 110.685 93.1591 110.635 92.6257 110.324ZM92.2395 113.106C92.5564 113.17 92.7914 113.092 92.941 112.883C93.0906 112.673 93.2807 112.698 93.4901 112.949C93.2891 113.335 93.0375 113.535 92.7212 113.559C92.4119 113.579 92.2525 113.425 92.2395 113.106ZM88.892 111.779C89.2963 111.323 89.811 111.029 90.4394 110.905C91.0609 110.785 91.64 110.633 92.1591 110.469C91.976 111.337 91.5184 111.724 90.7758 111.644C90.0402 111.56 89.4146 111.604 88.892 111.779ZM91.9451 113.69C91.8469 113.723 91.7876 113.78 91.7917 113.857C91.7994 113.941 91.747 113.995 91.6383 114.025C91.637 113.867 91.6083 113.794 91.5557 113.813C91.5031 113.831 91.4744 113.758 91.4732 113.601C91.5784 113.564 91.6307 113.51 91.6266 113.433C91.6225 113.356 91.6783 113.292 91.78 113.266C91.7848 113.43 91.81 113.496 91.8626 113.478C91.9116 113.452 91.9403 113.525 91.9451 113.69ZM90.5046 112.944C90.6098 112.907 90.6867 112.85 90.7316 112.747C90.7801 112.652 90.8604 112.584 90.9586 112.55C91.1786 112.805 91.1311 113.023 90.8231 113.201C90.5186 113.385 90.4124 113.3 90.5046 112.944ZM85.3397 113.948C85.7332 113.005 86.1866 112.524 86.7104 112.507C87.2342 112.49 87.8024 112.3 88.429 111.931C88.1407 112.836 87.6796 113.234 87.0458 113.123C86.4119 113.013 85.8444 113.29 85.3397 113.948ZM86.961 115.337C87.058 115.146 87.4221 114.94 88.0429 114.731C88.2711 115.14 88.1433 115.426 87.6733 115.582C87.2033 115.738 86.9671 115.659 86.961 115.337ZM85.2533 116.399C85.0559 116.791 84.9012 116.801 84.7789 116.443C84.6635 116.082 84.7111 115.864 84.9145 115.793C84.9205 116.115 85.0057 116.211 85.1558 116.072C85.3235 115.932 85.356 116.047 85.2533 116.399ZM82.3619 114.492C82.7757 114.347 83.246 114.226 83.7692 114.122C84.2959 114.024 84.6491 113.779 84.8535 113.383C84.4587 114.168 83.9981 114.618 83.4784 114.712C82.9482 114.82 82.5819 114.747 82.3619 114.492ZM83.7164 112.313C83.7152 112.156 83.5497 112.127 83.241 112.235C83.2458 112.399 83.4008 112.424 83.7164 112.313ZM82.7765 112.643C82.7705 112.321 82.5591 112.273 82.1424 112.498C81.7293 112.73 81.6292 112.966 81.8526 113.21C82.0618 112.979 82.2126 112.927 82.319 113.047C82.429 113.175 82.5827 113.042 82.7765 112.643ZM82.0731 115.327C81.7574 115.438 81.7166 115.617 81.9331 115.865C81.7345 116.1 81.5977 116.145 81.5438 116.006C81.49 115.867 81.3561 115.831 81.1457 115.905L81.1279 115.422L81.4257 114.829C81.4317 115.15 81.5449 115.232 81.7511 115.081C81.9539 114.923 82.06 115.009 82.0731 115.327ZM80.4208 118.099C80.6182 117.707 80.8771 117.538 81.1904 117.577C81.5072 117.623 81.8158 117.516 82.1267 117.24C82.0393 117.76 81.7816 118.087 81.3714 118.238C80.9541 118.393 80.6408 118.354 80.4208 118.099ZM80.6723 116.072C79.9334 116.016 78.8957 116.432 77.5524 117.322C76.2161 118.227 75.0131 118.631 73.954 118.54C75.1005 118.112 76.2104 117.492 77.2942 116.683C78.3816 115.882 79.5087 115.674 80.6723 116.072ZM79.3465 119.219L78.8766 119.393C78.7654 119.108 78.8585 118.875 79.1735 118.677C79.4814 118.482 79.5946 118.563 79.4954 118.922C79.3972 118.956 79.3452 119.062 79.3465 119.219ZM77.9439 119.736L77.6319 119.854L77.6087 119.137L77.9208 119.019L77.9439 119.736ZM76.7045 120.432C76.6915 120.114 76.7907 119.755 76.9845 119.356C77.0083 120.161 76.9162 120.516 76.7045 120.432ZM76.0858 120.903C76.0845 120.745 76.0243 120.68 75.9226 120.724C75.9048 120.241 76.0614 120.028 76.3746 120.068C76.2742 120.269 76.2544 120.438 76.3083 120.577C76.3727 120.719 76.2962 120.829 76.0858 120.903ZM75.7505 120.304C75.668 120.988 75.5191 121.285 75.3074 121.202C75.0958 121.118 74.7347 121.262 74.2135 121.611C74.4143 121.208 74.6646 120.833 74.9677 120.473C75.2744 120.121 75.5377 120.063 75.7505 120.304ZM72.3467 122.571C72.6527 122.132 72.8796 121.917 73.0415 121.939C73.2035 121.96 73.431 121.833 73.7383 121.551C73.9678 122.117 73.823 122.49 73.2971 122.693C72.7782 122.892 72.4579 122.856 72.3467 122.571ZM72.8528 118.47C73.0596 118.389 73.116 118.413 73.0079 118.53C72.914 118.658 72.8576 118.635 72.8528 118.47C72.4403 118.79 72.3345 118.757 72.5318 118.347C72.7362 117.951 72.8385 117.995 72.8528 118.47ZM72.7414 119.977C72.3277 120.14 72.1084 119.972 72.0942 119.497L72.5604 119.316C72.5652 119.48 72.5942 119.588 72.6509 119.647C72.7042 119.716 72.7332 119.824 72.7414 119.977ZM71.9024 118.349C72.0076 118.312 72.0614 118.451 72.0744 118.769L71.7624 118.887C71.7493 118.569 71.8007 118.393 71.9024 118.349ZM71.3177 120.04C71.4229 120.003 71.5364 120.12 71.6476 120.405L71.1813 120.585C71.1683 120.267 71.2161 120.084 71.3177 120.04ZM71.298 119.313C70.252 119.557 69.2962 120.097 68.4201 120.929C67.5545 121.765 66.7766 121.668 66.1144 120.624C66.4299 120.496 66.5759 120.279 66.5663 119.951C66.8735 119.668 67.0319 119.682 67.0449 120.001C67.0545 120.33 67.1651 120.527 67.3801 120.6C67.9802 119.542 68.6795 119.021 69.4708 119.04C70.2588 119.07 70.8713 119.156 71.298 119.313ZM69.0224 122.409C69.0045 121.926 69.1078 121.644 69.3147 121.563C69.3219 122.042 69.2292 122.328 69.0224 122.409ZM64.7948 124.111C65.3111 123.58 65.8773 123.145 66.4936 122.808C67.1135 122.477 67.8984 122.122 68.8344 121.751C68.4363 122.563 67.8218 123.128 66.984 123.467C66.1602 123.798 65.427 124.011 64.7948 124.111ZM68.9701 126.081C68.749 125.686 68.6476 125.765 68.6626 126.328C68.6845 126.888 68.7823 126.802 68.9701 126.081ZM67.5304 125.44C67.3462 126.168 67.2658 126.236 67.3035 125.655C67.3341 125.077 67.4109 125.002 67.5304 125.44ZM66.7505 125.994C66.668 126.679 66.6122 126.743 66.5973 126.179C66.5823 125.616 66.6381 125.552 66.7505 125.994ZM65.0243 121.076C64.8379 121.972 64.8786 122.241 65.1256 121.893C65.3796 121.541 65.7158 121.367 66.1377 121.359L66.1574 122.086C65.1116 122.348 64.1521 122.864 63.279 123.633C62.4058 124.403 61.5426 124.64 60.6894 124.345C61.1017 124.008 61.5936 123.515 62.1513 122.875C62.7159 122.23 63.2643 122.209 63.8105 122.804C63.7771 121.671 64.1805 121.092 65.0243 121.076ZM42.5654 134.71C43.4982 133.936 44.475 132.937 45.4958 131.713C46.5202 130.496 47.5621 129.727 48.604 129.406C48.8107 129.307 49.0162 129.051 49.2169 128.631C49.4271 128.54 49.6138 128.574 49.7734 128.746C49.9329 128.918 50.1225 128.872 50.3279 128.617C51.347 127.165 52.5107 126.236 53.8156 125.822C55.1311 125.412 56.1869 124.618 56.9935 123.444C58.1431 122.953 58.9482 122.482 59.4125 122.039C59.8767 121.596 60.5229 121.041 61.344 120.36C61.6751 120.882 62.0734 121 62.5424 120.722C63.0115 120.443 63.4522 120.144 63.8645 119.807C64.2804 119.477 64.6408 119.246 64.9563 119.117C65.2718 118.989 65.4882 119.237 65.6089 119.833C62.6937 121.188 59.9742 122.819 57.4396 124.723C54.9051 126.645 52.2788 128.061 49.5465 128.961C49.4592 129.498 49.105 130.068 48.4873 130.679C48.4765 130.192 48.4109 129.893 48.2974 129.776C48.2054 130.149 48.1092 130.445 48.0018 130.65C47.905 130.858 47.8088 131.154 47.7062 131.523C45.0052 133.277 42.2585 135.493 39.4661 138.154C39.3275 137.076 39.7049 136.309 40.5912 135.875C41.5023 135.473 42.1567 135.071 42.5654 134.71ZM64.6548 124.649C64.4527 124.895 64.1937 125.047 63.8775 125.088C63.565 125.136 63.3489 124.941 63.2295 124.502C63.4445 124.575 63.76 124.446 64.1653 124.113C64.5778 123.793 64.7409 123.972 64.6548 124.649ZM64.3858 126.229C64.1898 126.797 64.0879 126.806 64.0693 126.236C64.0474 125.676 64.1599 125.67 64.3858 126.229ZM63.0231 128.254C63.0101 127.936 63.004 127.614 62.998 127.292C62.985 126.974 63.1414 126.744 63.4569 126.615C63.672 126.688 63.7586 126.977 63.7169 127.481C63.6751 127.986 63.445 128.246 63.0231 128.254ZM61.8402 125.82C62.0505 125.729 62.1069 125.752 62.0024 125.877C61.8979 126.001 61.845 125.985 61.8402 125.82C61.7338 125.7 61.6818 125.806 61.6879 126.128L61.3724 126.257C61.1561 126.026 61.2 125.801 61.5078 125.589C61.8262 125.38 61.9358 125.455 61.8402 125.82ZM60.9062 126.455C60.696 126.546 60.5666 126.64 60.5217 126.742C60.4697 126.848 60.3474 126.938 60.1371 127.029C60.0224 126.755 60.0695 126.485 60.2716 126.239C60.4806 125.99 60.4198 125.855 60.0995 125.819C59.159 126.062 58.2974 126.509 57.5254 127.164C56.7499 127.83 55.896 128.361 54.9569 128.779C54.8422 128.504 54.7635 128.334 54.7068 128.276C54.6501 128.218 54.5644 128.051 54.4567 127.773C54.9693 127.217 55.5432 126.849 56.1711 126.655C56.8026 126.468 57.3162 126.034 57.7189 125.369C57.7415 126.016 57.8001 126.319 57.9018 126.275C58.2854 124.969 58.8786 124.38 59.6781 124.536C60.4564 124.685 60.8693 125.332 60.9062 126.455ZM59.9669 126.854C59.6728 127.472 59.5394 127.489 59.5734 126.9C59.6075 126.312 59.741 126.295 59.9669 126.854ZM56.0754 129.261C56.2666 128.529 56.468 128.196 56.6795 128.262C56.8945 128.335 57.2555 128.174 57.7764 127.789C57.6856 128.32 57.4594 128.621 57.0908 128.699C56.7221 128.776 56.379 128.971 56.0754 129.261ZM53.2651 130.992C53.7908 130.754 54.1543 130.478 54.3521 130.138C54.5535 129.805 54.8077 129.488 55.1148 129.188C55.1326 129.671 54.8835 130.187 54.3709 130.743C53.8619 131.306 53.4932 131.383 53.2651 130.992ZM54.025 129.675C53.5016 129.745 53.025 129.957 52.6162 130.301C52.2005 130.648 51.8921 130.791 51.6771 130.718C51.8599 129.815 52.2629 129.184 52.8931 128.822C53.5128 128.474 53.8877 128.754 54.025 129.675ZM49.3367 132.276C49.4227 131.581 49.6724 131.135 50.0894 130.945C50.5064 130.755 50.983 130.543 51.5016 130.309C51.3187 131.212 51.0126 131.634 50.5867 131.583C50.1608 131.532 49.7476 131.764 49.3367 132.276ZM51.0859 132.466C51.3834 131.837 51.5169 131.82 51.4828 132.409C51.4487 132.997 51.3152 133.014 51.0859 132.466ZM50.4279 136.926C50.7432 136.78 50.9016 136.795 50.9028 136.952C50.5945 137.095 50.4327 137.091 50.4279 136.926ZM49.5285 133.423C49.74 133.489 49.9503 133.398 50.1522 133.135C50.3577 132.879 50.4634 132.912 50.4694 133.233C50.2591 133.325 50.0563 133.465 49.8467 133.645C49.6441 133.82 49.5345 133.745 49.5285 133.423ZM49.179 132.349C47.9307 133.251 46.7219 134.265 45.535 135.391C44.3518 136.523 43.2294 137.343 42.1854 137.85C43.2007 136.374 44.3591 135.211 45.6641 134.349C46.9656 133.498 48.1313 132.831 49.179 132.349ZM47.6666 135.013C47.5758 135.544 47.5265 135.534 47.508 134.964C47.493 134.401 47.5459 134.417 47.6666 135.013ZM46.7473 136.176L46.1166 136.468C46.0976 135.828 46.3065 135.561 46.7295 135.693L46.7473 136.176ZM46.7255 140.596C46.415 140.907 46.2283 140.872 46.1656 140.492C46.1064 140.118 46.2233 139.777 46.5338 139.466C46.5399 139.788 46.5765 139.98 46.6297 140.031C46.6864 140.089 46.7125 140.278 46.7255 140.596ZM41.8667 138.006C41.6695 138.434 41.36 138.867 40.9485 139.309C40.537 139.751 40.2249 139.869 40.0052 139.649C40.1102 139.594 40.1581 139.411 40.1485 139.083C40.3622 138.98 40.645 138.72 41.0039 138.296C41.3663 137.88 41.6539 137.783 41.8667 138.006ZM37.7139 142.99C38.2297 142.406 38.4123 142.364 38.2647 142.836C38.1244 143.322 37.9418 143.364 37.7139 142.99Z" fill="white"/>
<path d="M27.3771 165.414C27.1919 164.692 26.6702 164.163 25.8049 163.812C24.9396 163.461 24.3575 162.866 24.0658 162.024C24.5413 162.049 25.3117 162.423 26.3911 163.138C27.4705 163.853 27.9201 164.622 27.7364 165.438C29.3095 166.715 31.298 167.52 33.7122 167.841C36.1264 168.162 38.4051 168.272 40.5485 168.171C41.8614 168.131 43.2778 168.275 44.7908 168.607C46.3108 168.935 47.3436 168.645 47.8857 167.73C48.1445 167.508 48.3455 167.553 48.5028 167.858C48.6601 168.164 48.8585 168.325 49.0875 168.338C49.3585 167.88 49.2712 167.521 48.808 167.26C51.3044 167.292 53.8035 167.209 56.3122 167.006C58.8209 166.803 61.4311 166.072 64.1357 164.818C65.9799 165.637 67.8589 165.489 69.7829 164.358C71.7105 163.234 73.6655 162.906 75.6443 163.382C76.0133 163.287 76.0823 163.111 75.8656 162.863C75.6489 162.615 75.6682 162.376 75.9199 162.158C76.4113 161.955 76.6406 162.021 76.6187 162.375C76.5969 162.729 76.6908 163.032 76.9075 163.28C77.6348 163.088 78.6112 162.792 79.8262 162.39C81.0413 161.988 82.1182 161.939 83.0429 162.233L83.1192 161.173C84.9985 161.526 86.6322 161.091 88.024 159.876C88.4995 159.902 88.7858 160.043 88.8827 160.283C88.9902 160.526 89.0841 160.829 89.1714 161.189C90.6803 160.098 92.0562 159.559 93.2992 159.574C94.5457 159.595 95.8139 159.693 97.1076 159.892C103.048 158.242 108.913 157.203 114.708 156.789C120.5 156.368 126.333 155.803 132.203 155.103C132.569 155.002 132.826 155.053 132.993 155.239C133.16 155.425 133.474 155.534 133.95 155.56C135.763 155.076 137.551 155.01 139.31 155.354C141.066 155.691 142.825 155.983 144.594 156.208C145.157 156.593 145.466 156.881 145.513 157.059C145.553 157.24 145.855 157.637 146.403 158.268C146.761 158.17 147.12 158.194 147.466 158.331C147.812 158.468 148.165 158.496 148.53 158.395C149.43 157.382 149.771 156.37 149.555 155.348C149.333 154.329 148.836 153.382 148.072 152.504C147.301 151.629 146.44 150.836 145.48 150.129C144.52 149.423 143.527 148.857 142.485 148.439C142.387 148.077 142.435 147.876 142.621 147.824C142.8 147.775 142.945 147.814 143.055 147.941C142.044 147.05 140.767 146.297 139.206 145.665C137.649 145.04 136.185 145.097 134.828 145.845C131.93 144.843 129.047 144.493 126.176 144.787C123.309 145.088 120.359 145.555 117.343 146.206C114.854 146.17 112.411 146.26 110.022 146.471C107.634 146.682 105.219 147.188 102.785 147.985C101.602 147.913 100.362 147.836 99.0584 147.756C97.7621 147.673 96.6532 148.143 95.7528 149.155C95.1742 148.998 94.5855 148.908 93.9902 148.874C93.402 148.837 92.8701 148.805 92.3946 148.779C92.0134 149.109 91.9596 149.436 92.2331 149.742C92.5102 150.056 92.4528 150.376 92.0752 150.712C91.6067 150.683 91.4083 150.522 91.4906 150.233C91.5728 149.944 91.384 149.664 90.9278 149.4C89.3982 149.191 87.8335 149.449 86.2372 150.181C84.641 150.913 83.0195 151.113 81.3798 150.777C79.3273 151.244 77.3317 151.77 75.3823 152.368C73.44 152.963 71.4662 153.135 69.4611 152.9C65.3247 154.309 61.2477 155.211 57.2373 155.622C53.2269 156.033 49.1631 156.823 45.0354 157.99C43.3956 157.654 41.7589 157.703 40.1251 158.138C38.4914 158.572 36.921 158.561 35.4037 158.117C34.6641 158.545 33.6628 158.81 32.4067 158.908C31.1505 159.006 29.9736 158.878 28.8723 158.518C27.7711 158.157 26.7388 157.62 25.7862 156.91C24.8266 156.203 24.2734 155.251 24.1198 154.055C24.1957 149.804 24.797 145.641 25.9235 141.565C27.0535 137.496 29.2438 133.484 32.5084 129.539C34.4723 125.398 37.1762 121.33 40.6129 117.339C44.0567 113.345 47.9152 109.706 52.1918 106.414C50.8775 104.915 50.2675 103.456 50.3762 102.045C48.6684 101.111 47.3348 99.8516 46.3788 98.255C45.4298 96.6548 44.0743 95.7492 42.3052 95.5243C41.695 95.841 41.4515 96.2136 41.5991 96.6382C41.7468 97.0627 41.7498 97.4481 41.6082 97.7942C41.1397 97.7647 40.7996 97.95 40.588 98.3501C40.3833 98.7464 40.087 99.1201 39.7058 99.4498C37.5202 101.798 34.8703 104.659 31.7772 108.023C28.6841 111.387 26.3051 114.671 24.6437 117.881C23.9599 119.141 23.326 120.464 22.7488 121.845C22.1752 123.233 21.5482 124.552 20.8539 125.81C20.5706 126.502 20.1701 127.07 19.6596 127.511C19.156 127.948 18.7591 128.524 18.4652 129.213C17.4912 131.169 16.9297 133.202 16.7702 135.324C16.6177 137.443 16.1689 139.488 15.4309 141.454C15.5179 143.589 15.7994 145.826 16.2754 148.164C16.7583 150.499 17.997 152.678 19.9843 154.689C20.4298 156.727 21.2624 158.757 22.4788 160.79C23.688 162.791 25.3232 164.343 27.3771 165.414ZM137.38 147.589C137.688 148.203 137.657 148.281 137.273 147.847C136.886 147.406 136.924 147.325 137.38 147.589ZM120.524 149.049C120.672 148.699 120.688 148.471 120.578 148.343C120.472 148.223 120.541 148.046 120.792 147.828C121.925 148.611 122.935 148.606 123.817 147.832C124.705 147.054 125.662 146.997 126.681 147.647C125.573 148.169 124.534 148.585 123.564 148.877C122.598 149.176 121.581 149.238 120.524 149.049C119.784 149.476 119.214 149.526 118.821 149.211C118.424 148.89 118.378 148.386 118.661 147.694C119.137 147.72 119.521 147.775 119.81 147.854C120.1 147.932 120.342 148.334 120.524 149.049ZM126.986 148.376C127.572 148.53 127.565 148.586 126.97 148.552C126.382 148.514 126.388 148.458 126.986 148.376ZM116.951 149.188C117.462 148.747 117.93 148.777 118.374 149.276C118.233 149.622 118.054 149.671 117.826 149.42C117.61 149.172 117.313 149.097 116.951 149.188C116.81 149.534 116.662 149.558 116.501 149.246C116.351 148.937 116.143 148.896 115.884 149.118C116.211 149.493 116.113 149.632 115.588 149.544C115.063 149.456 114.987 149.24 115.368 148.911L115.201 148.725C115.605 148.163 116.184 148.32 116.951 149.188ZM115.888 149.125C115.671 148.877 115.498 148.799 115.372 148.918C115.471 149.042 115.652 149.115 115.888 149.125ZM114.138 148.661C114.358 148.916 114.405 149.094 114.276 149.205C114.153 149.313 114.323 149.383 114.791 149.412C114.65 149.758 114.212 150.03 113.484 150.223C112.922 149.838 112.767 149.469 113.029 149.131C113.297 148.79 113.662 148.635 114.138 148.661ZM112.421 150.159C111.823 150.241 111.228 150.259 110.633 150.225C110.044 150.188 109.44 150.326 108.823 150.646C108.244 150.489 108.197 150.311 108.685 150.102C109.176 149.9 109.252 149.72 108.899 149.586C108.518 149.916 108.351 149.73 108.405 149.025C109.101 149.306 109.891 149.441 110.785 149.434C111.683 149.434 112.223 149.672 112.421 150.159ZM107.57 150.751L106.91 150.004C107.291 149.674 107.599 149.514 107.835 149.523C107.694 149.869 107.649 150.077 107.699 150.139C107.76 150.204 107.719 150.401 107.57 150.751ZM106.528 150.333C105.647 151.107 104.633 151.106 103.504 150.329L104.455 149.501C104.805 149.645 105.119 149.807 105.399 150.005C105.682 150.192 106.06 150.304 106.528 150.333ZM100.749 151.399L101.297 151.255C101.332 150.788 101.528 150.616 101.867 150.757C102.216 150.901 102.492 151.091 102.716 151.336C102.464 151.554 101.989 151.529 101.293 151.248C101.265 151.728 101.079 151.781 100.749 151.399C100.367 151.728 100.198 151.658 100.233 151.191C100.268 150.725 100.445 150.791 100.749 151.399ZM99.2165 150.426C99.3144 150.789 99.4362 151.06 99.6032 151.246C99.7701 151.432 99.8457 151.647 99.8229 151.879C98.3998 151.791 96.9615 152.001 95.5043 152.503C94.0471 153.004 92.6018 153.218 91.1787 153.13C92.4481 152.023 93.7174 151.364 94.9796 151.139C96.2454 150.922 97.6588 150.681 99.2165 150.426ZM98.2653 151.254C97.7026 150.869 97.6396 150.92 98.0765 151.423C98.517 151.915 98.5799 151.865 98.2653 151.254ZM91.0332 150.277L90.652 150.607L90.3252 150.231L90.7064 149.902L91.0332 150.277ZM86.3501 153.367C86.2751 152.773 86.3669 152.365 86.6152 152.139C87.0714 152.404 87.5276 152.668 87.9839 152.933C88.4401 153.197 88.6421 152.916 88.5757 152.08C89.2364 152.828 89.4339 153.314 89.1821 153.533C88.3675 153.367 87.6306 153.679 86.9783 154.466C86.4348 153.842 86.0602 153.667 85.8618 153.955C85.6634 154.243 85.3867 154.43 85.0178 154.525C84.2505 153.657 84.1789 153.052 84.789 152.736C85.0478 152.513 85.2808 152.586 85.4878 152.953C85.6985 153.327 85.9918 153.465 86.3501 153.367ZM84.3352 154.132C84.0834 154.35 83.7251 154.448 83.246 154.416C83.4978 154.197 83.8597 154.106 84.3352 154.132ZM81.8738 153.633C82.1326 153.411 82.3118 153.362 82.422 153.489C82.1702 153.708 81.991 153.757 81.8738 153.633ZM80.9516 154.103C81.3012 154.247 81.9463 154.343 82.8903 154.398C81.5107 155.378 79.8866 155.693 78.0109 155.348C78.99 154.936 79.1539 154.737 78.4992 154.76C77.8446 154.784 77.5994 154.497 77.7603 153.913C78.5977 153.847 79.1174 154.114 79.3052 154.72C79.5 155.322 80.0441 155.119 80.9516 154.103ZM79.9133 153.692C80.0985 154.414 80.0045 154.559 79.6173 154.118C79.2301 153.677 79.3346 153.535 79.9133 153.692ZM77.4409 155.846C77.0948 155.709 76.7329 155.8 76.3553 156.137C75.9741 156.467 75.628 156.33 75.3134 155.719C74.672 154.733 74.9151 154.308 76.0287 154.433C77.1492 154.555 77.6141 155.026 77.4409 155.846ZM74.3223 154.589C74.6492 154.965 74.6937 155.258 74.4349 155.48C74.1831 155.699 74.1044 155.995 74.1917 156.354C73.8456 156.217 73.4903 156.252 73.1118 156.466C72.7402 156.677 72.3753 156.831 72.0099 156.933C71.9226 156.573 71.7089 156.262 71.3654 156.01C71.029 155.753 71.0478 155.462 71.4254 155.126C72.177 156.239 72.6647 156.478 72.885 155.836C73.123 155.194 73.595 154.782 74.3223 154.589ZM76.1923 158.253C76.6677 158.278 76.8658 158.387 76.7931 158.556C76.7241 158.733 76.5947 158.844 76.412 158.886C76.2328 158.935 76.0566 158.921 75.8801 158.854C75.7141 158.791 75.8146 158.589 76.1923 158.253ZM71.1166 157.062C70.8649 157.281 70.5659 157.322 70.2198 157.185C69.8807 157.044 69.5118 157.139 69.1306 157.469C68.5871 156.845 68.3826 156.362 68.5243 156.016C68.9805 156.28 69.4185 156.457 69.824 156.537C70.226 156.627 70.6568 156.791 71.1166 157.062ZM65.9069 157.629C66.2881 157.3 66.4646 157.366 66.4225 157.837C66.391 158.31 66.2215 158.24 65.9069 157.629C65.7652 157.975 65.5791 158.028 65.3588 157.773C65.1421 157.525 64.9254 157.277 64.6981 157.026C65.067 156.931 65.369 156.827 65.6112 156.728C65.8603 156.625 66.0933 156.697 66.31 156.945C66.0582 157.164 65.9227 157.401 65.9069 157.629ZM61.9751 157.744C61.9436 158.218 61.669 158.668 61.162 159.116L60.3414 158.179C60.7226 157.849 61.2637 157.709 61.9751 157.744ZM57.7784 159.087C57.3849 159.652 57.086 159.693 56.8815 159.21C56.6841 158.723 56.3974 158.529 56.032 158.631C56.5391 158.183 57.1177 158.34 57.7784 159.087ZM55.8397 158.792C56.0249 159.514 55.8955 159.625 55.4585 159.122C55.0181 158.629 55.1475 158.518 55.8397 158.792ZM56.6638 159.736L56.0939 160.234L55.767 159.859L56.337 159.361L56.6638 159.736ZM52.7864 159.146C53.0452 158.923 53.231 158.818 53.3402 158.823C53.46 158.831 53.6457 158.726 53.894 158.501C54.5705 159.02 54.8977 159.448 54.8688 159.806C54.8469 160.16 54.5135 159.841 53.8721 158.855C53.6203 159.073 53.2619 159.172 52.7864 159.146C52.2829 159.583 52.0469 159.574 52.0784 159.1C52.1099 158.626 52.3495 158.643 52.7864 159.146ZM51.3161 159.759C51.0871 159.746 50.7938 159.608 50.4573 159.352C50.1209 159.096 50.1965 158.863 50.6843 158.654C51.2314 159.285 51.4384 159.652 51.3161 159.759ZM49.5373 159.654C49.0337 160.091 48.678 160.074 48.4735 159.59L48.8547 159.261C49.075 159.516 49.22 159.608 49.2794 159.55C49.3494 159.496 49.4307 159.533 49.5373 159.654ZM47.0286 159.857C46.1404 160.634 45.4227 160.708 44.8756 160.077C45.1344 159.855 45.3451 159.781 45.5146 159.851C45.6912 159.918 45.7953 159.723 45.8268 159.25C45.9369 159.377 46.3434 159.579 47.0286 159.857ZM42.908 160.14C43.0932 160.862 42.9638 160.973 42.5268 160.47C42.0934 159.974 42.2228 159.863 42.908 160.14Z" fill="white"/>
</svg>
