<svg width="87" height="187" viewBox="0 0 87 187" fill="none" xmlns="http://www.w3.org/2000/svg">
<path d="M73.7778 122.946H13.2445C10.0868 122.946 7.52734 120.387 7.52734 117.229V101.299C7.52734 98.141 10.0868 95.5815 13.2445 95.5815H73.784C76.9417 95.5815 79.5012 98.141 79.5012 101.299V117.229C79.495 120.387 76.9355 122.946 73.7778 122.946Z" stroke="white" stroke-width="14.8476" stroke-miterlimit="10"/>
<path d="M68.5047 178.8H47.0667H18.5239C12.4489 178.8 7.52734 173.878 7.52734 167.803V149.56V134.863C7.52734 131.705 10.0868 129.146 13.2445 129.146H73.784C76.9417 129.146 79.5012 131.705 79.5012 134.863V167.803C79.495 173.878 74.5734 178.8 68.5047 178.8Z" stroke="white" stroke-width="14.8476" stroke-miterlimit="10"/>
<path d="M32.6722 0.62793V8.5099L32.6784 9.0403V15.4236C32.6784 18.6368 31.6669 21.7637 29.7797 24.3663L25.2343 30.6448L16.9206 42.1347L10.4202 51.1206C8.53911 53.7233 7.52148 56.8502 7.52148 60.0634V83.6538C7.52148 86.8115 10.081 89.371 13.2387 89.371H73.7781C76.9358 89.371 79.4953 86.8115 79.4953 83.6538V60.0634C79.4953 56.8502 78.4839 53.7233 76.5966 51.1206L57.2433 24.3602C55.3622 21.7575 54.3446 18.6306 54.3446 15.4174V9.03413V8.50373V0.62793" stroke="white" stroke-width="14.8476" stroke-miterlimit="10"/>
</svg>
