<svg width="87" height="100" viewBox="0 0 87 100" fill="none" xmlns="http://www.w3.org/2000/svg">
<path d="M43.4204 99.7913V56.6699" stroke="#1A1A1A" stroke-width="8" stroke-miterlimit="10"/>
<path d="M43.4208 63.35C39.2359 67.1374 33.685 69.4486 27.593 69.4486C25.9631 69.4486 24.3734 69.2816 22.837 68.9677C12.0859 66.77 4 57.258 4 45.8556C4 41.2232 5.33596 36.9013 7.64382 33.2542C10.4994 28.7453 14.838 25.2685 19.9781 23.5184C20.0482 23.495 20.1183 23.4716 20.1885 23.4482" stroke="#1A1A1A" stroke-width="8" stroke-miterlimit="10"/>
<path d="M31.2539 47.8061C24.4071 43.6779 19.8281 36.1699 19.8281 27.593C19.8281 26.1802 19.9517 24.7942 20.1888 23.4482C22.1494 12.3932 31.805 4 43.4211 4C55.0406 4 64.6929 12.3932 66.6534 23.4482C76.0586 26.5543 82.8452 35.4117 82.8452 45.8556C82.8452 58.8845 72.2812 69.4486 59.2522 69.4486" stroke="#1A1A1A" stroke-width="8" stroke-miterlimit="10"/>
</svg>
