<svg width="69" height="82" viewBox="0 0 69 82" fill="none" xmlns="http://www.w3.org/2000/svg">
<path d="M34.1528 65.3768V47.6594L41.5761 39.0601" stroke="#1A1A1A" stroke-width="7" stroke-miterlimit="10"/>
<path d="M26.7295 4H41.576" stroke="#1A1A1A" stroke-width="7" stroke-miterlimit="10"/>
<path d="M58.756 23.999L54.1738 29.4313C58.5631 34.2471 61.244 40.649 61.244 47.6621C61.244 61.4031 50.9606 72.7865 37.6841 74.5221V81.633C54.8637 79.8594 68.306 65.3008 68.306 47.6621C68.3032 38.4843 64.6663 30.1402 58.756 23.999Z" fill="#1A1A1A"/>
<path d="M30.6219 74.5194C17.3453 72.7838 7.06199 61.4004 7.06199 47.6594C7.06199 32.7206 19.214 20.5686 34.1529 20.5686C39.5336 20.5686 44.553 22.1466 48.7739 24.8628L53.3588 19.4359C47.883 15.6985 41.2692 13.5093 34.1529 13.5093C15.3218 13.5093 0 28.8284 0 47.6594C0 65.2981 13.4422 79.8567 30.6219 81.6303V74.5194Z" fill="#1A1A1A"/>
</svg>
