<svg width="82" height="60" viewBox="0 0 82 60" fill="none" xmlns="http://www.w3.org/2000/svg">
<path d="M68.5177 29.1544C68.8367 27.713 69.0053 26.2133 69.0053 24.6737C69.0053 13.2558 59.7495 4 48.3316 4C42.9125 4 37.9779 6.08547 34.2915 9.49889" stroke="#1A1A1A" stroke-width="7" stroke-miterlimit="10"/>
<path d="M55.4773 32.35C57.8694 30.3106 60.97 29.0808 64.3589 29.0808C71.9218 29.0808 78.0525 35.2114 78.0525 42.7743C78.0525 50.3372 71.9218 56.4679 64.3589 56.4679H20.9321H20.9107C11.5721 56.4679 4 48.8958 4 39.5572C4 30.2186 11.5721 22.6465 20.9107 22.6465C25.879 22.6465 30.3474 24.7902 33.4419 28.2006" stroke="#1A1A1A" stroke-width="7" stroke-miterlimit="10"/>
</svg>
