<svg width="288" height="424" viewBox="0 0 288 424" fill="none" xmlns="http://www.w3.org/2000/svg">
<path d="M0 0H288V424H0V0Z" fill="#00D8DA"/>
<path d="M116.956 166.638C104.728 175.611 97.0307 190.405 98.0985 206.971C99.5965 230.278 119.04 249.232 142.377 250.159C168.798 251.22 190.548 230.108 190.548 203.923C190.548 188.596 183.066 175.055 171.594 166.631V71.3188C171.594 56.295 159.299 44 144.275 44C129.251 44 116.956 56.295 116.956 71.3188V138.652" stroke="white" stroke-width="18" stroke-miterlimit="10"/>
<path d="M144.275 196.153V67.5078" stroke="white" stroke-width="18" stroke-miterlimit="10"/>
<path d="M144.275 209.553C150.066 209.553 154.761 204.858 154.761 199.067C154.761 193.275 150.066 188.581 144.275 188.581C138.484 188.581 133.789 193.275 133.789 199.067C133.789 204.858 138.484 209.553 144.275 209.553Z" fill="white" stroke="white" stroke-width="18" stroke-miterlimit="10"/>
<path d="M49.344 312.384C55.136 312.384 56.8 309.088 56.8 304.672V302.432H51.2V305.152C51.2 306.72 51.136 308.32 49.344 308.32C47.648 308.32 47.36 306.912 47.36 305.152V292.96C47.36 291.392 47.52 289.76 49.344 289.76C51.168 289.76 51.2 291.36 51.2 292.864V295.456H56.8V293.216C56.8 288.8 55.072 285.728 49.344 285.728C43.424 285.728 41.568 289.024 41.568 294.4V303.744C41.568 308.992 43.424 312.384 49.344 312.384ZM66.4153 312.384C72.2713 312.384 74.2553 309.184 74.2553 303.84V294.208C74.2553 288.864 72.2713 285.728 66.4153 285.728C60.5913 285.728 58.6393 288.864 58.6393 294.208V303.84C58.6393 309.184 60.5913 312.384 66.4153 312.384ZM66.4153 308.32C64.6233 308.32 64.4953 306.752 64.4953 305.28V292.8C64.4953 291.264 64.7193 289.76 66.4153 289.76C68.2073 289.76 68.3993 291.264 68.3993 292.8V305.28C68.3993 306.752 68.2073 308.32 66.4153 308.32ZM75.8453 312H85.9973V308.856H80.3093L83.8613 303.552C85.2533 301.512 86.5253 299.784 86.5253 297.432C86.5253 294.216 84.7253 292.296 81.2453 292.296C77.3333 292.296 75.7973 294.864 75.7973 298.296V299.328H79.6853V298.368C79.6853 296.88 79.9973 295.704 81.3173 295.704C82.0853 295.704 82.5653 296.256 82.5653 297.36C82.5653 299.04 81.5333 300.432 80.5013 302.016L75.8453 309.168V312ZM94.3689 312H99.7769L100.673 306.528H104.481L105.345 312H110.625L105.793 286.08H99.2649L94.3689 312ZM101.185 303.104L102.561 292.992L103.937 303.104H101.185ZM112.282 312H117.178V298.56L122.49 312H126.362V286.08H121.626V298.56L116.314 286.08H112.282V312ZM129.259 312H135.883C142.571 312 144.523 309.504 144.523 303.68V294.272C144.523 288.512 142.571 286.08 135.819 286.08H129.259V312ZM134.987 308.032V290.08H135.851C138.379 290.08 138.635 291.008 138.635 293.28V304.576C138.635 306.912 138.475 308.032 135.883 308.032H134.987ZM49.344 352.384C55.136 352.384 56.8 349.088 56.8 344.672V342.432H51.2V345.152C51.2 346.72 51.136 348.32 49.344 348.32C47.648 348.32 47.36 346.912 47.36 345.152V332.96C47.36 331.392 47.52 329.76 49.344 329.76C51.168 329.76 51.2 331.36 51.2 332.864V335.456H56.8V333.216C56.8 328.8 55.072 325.728 49.344 325.728C43.424 325.728 41.568 329.024 41.568 334.4V343.744C41.568 348.992 43.424 352.384 49.344 352.384ZM58.9913 352H70.6713V348.128H64.7193V326.08H58.9913V352ZM72.2508 352H77.9788V326.08H72.2508V352ZM80.7877 352H84.9157L85.2997 334.624L88.4997 352H92.1157L95.1237 334.752L95.6038 352H99.6677L99.2197 326.08H93.2997L90.2277 341.152L87.3797 326.08H81.2357L80.7877 352ZM101.207 352H106.615L107.511 346.528H111.319L112.183 352H117.463L112.631 326.08H106.103L101.207 352ZM108.023 343.104L109.399 332.992L110.775 343.104H108.023ZM120.081 352H125.841V330.336H129.713V326.08H116.177V330.336H120.081V352ZM131.035 352H142.747V348.128H136.763V340.384H141.275V336.416H136.763V329.984H142.683V326.08H131.035V352ZM159.039 352.384C164.831 352.384 166.495 349.088 166.495 344.672V342.432H160.895V345.152C160.895 346.72 160.831 348.32 159.039 348.32C157.343 348.32 157.055 346.912 157.055 345.152V332.96C157.055 331.392 157.215 329.76 159.039 329.76C160.863 329.76 160.895 331.36 160.895 332.864V335.456H166.495V333.216C166.495 328.8 164.767 325.728 159.039 325.728C153.119 325.728 151.263 329.024 151.263 334.4V343.744C151.263 348.992 153.119 352.384 159.039 352.384ZM168.782 352H174.51V340.672H178.51V352H184.27V326.08H178.51V336.576H174.51V326.08H168.782V352ZM186.009 352H191.417L192.313 346.528H196.121L196.985 352H202.265L197.433 326.08H190.905L186.009 352ZM192.825 343.104L194.201 332.992L195.577 343.104H192.825ZM203.923 352H208.819V338.56L214.131 352H218.003V326.08H213.267V338.56L207.955 326.08H203.923V352ZM227.652 352.384C229.924 352.384 231.14 351.328 231.844 349.856L232.164 352H235.94V338.56H228.452V341.92H230.788V344.96C230.788 346.72 230.308 348.32 228.548 348.32C226.788 348.32 226.404 346.784 226.404 345.024V333.024C226.404 331.456 226.532 329.76 228.388 329.76C230.18 329.76 230.308 331.232 230.308 332.864V334.976H235.908V333.312C235.908 328.8 234.052 325.728 228.324 325.728C222.404 325.728 220.548 329.216 220.548 334.72V343.424C220.548 348.768 222.276 352.384 227.652 352.384ZM238.565 352H250.277V348.128H244.293V340.384H248.805V336.416H244.293V329.984H250.213V326.08H238.565V352Z" fill="#1A1A1A"/>
<rect x="40" y="368" width="108" height="16" fill="white"/>
</svg>
