<svg width="288" height="424" viewBox="0 0 288 424" fill="none" xmlns="http://www.w3.org/2000/svg">
<path d="M0 0H288V424H0V0Z" fill="#BF53FF"/>
<path d="M217.891 145.785L144.066 219.61L71.7402 147.292" stroke="white" stroke-width="25" stroke-miterlimit="10"/>
<path d="M160.713 145.412C153.358 138.058 148.802 127.891 148.802 116.662C148.802 94.2034 167.005 76 189.463 76C211.922 76 230.125 94.2034 230.125 116.662C230.125 129.972 223.732 141.782 213.845 149.201" stroke="white" stroke-width="25" stroke-miterlimit="10"/>
<path d="M74.8544 149.624C70.5278 146.496 66.8398 142.528 64.0271 137.972C60.2099 131.772 58 124.475 58 116.662C58 94.2034 76.2034 76 98.6616 76C109.467 76 119.297 80.219 126.58 87.1" stroke="white" stroke-width="25" stroke-miterlimit="10"/>
<path d="M49.344 312.384C55.136 312.384 56.8 309.088 56.8 304.672V302.432H51.2V305.152C51.2 306.72 51.136 308.32 49.344 308.32C47.648 308.32 47.36 306.912 47.36 305.152V292.96C47.36 291.392 47.52 289.76 49.344 289.76C51.168 289.76 51.2 291.36 51.2 292.864V295.456H56.8V293.216C56.8 288.8 55.072 285.728 49.344 285.728C43.424 285.728 41.568 289.024 41.568 294.4V303.744C41.568 308.992 43.424 312.384 49.344 312.384ZM66.4153 312.384C72.2713 312.384 74.2553 309.184 74.2553 303.84V294.208C74.2553 288.864 72.2713 285.728 66.4153 285.728C60.5913 285.728 58.6393 288.864 58.6393 294.208V303.84C58.6393 309.184 60.5913 312.384 66.4153 312.384ZM66.4153 308.32C64.6233 308.32 64.4953 306.752 64.4953 305.28V292.8C64.4953 291.264 64.7193 289.76 66.4153 289.76C68.2073 289.76 68.3993 291.264 68.3993 292.8V305.28C68.3993 306.752 68.2073 308.32 66.4153 308.32ZM76.6853 312H80.8133L81.1973 294.624L84.3973 312H88.0133L91.0213 294.752L91.5013 312H95.5653L95.1173 286.08H89.1973L86.1253 301.152L83.2773 286.08H77.1333L76.6853 312ZM98.2565 312H102.384L102.768 294.624L105.968 312H109.584L112.592 294.752L113.073 312H117.136L116.688 286.08H110.768L107.696 301.152L104.848 286.08H98.7045L98.2565 312ZM127.412 312.384C133.364 312.384 135.092 309.408 135.092 303.968V286.08H129.396V304.832C129.396 306.464 129.236 308.256 127.412 308.256C125.588 308.256 125.396 306.464 125.396 304.832V286.08H119.732V303.968C119.732 309.408 121.428 312.384 127.412 312.384ZM137.776 312H142.672V298.56L147.984 312H151.856V286.08H147.12V298.56L141.808 286.08H137.776V312ZM154.786 312H160.514V286.08H154.786V312ZM165.755 312H171.515V290.336H175.387V286.08H161.851V290.336H165.755V312ZM179.973 312H185.477V301.408L190.309 286.08H185.125L182.917 294.272L180.453 286.08H175.045L179.973 301.408V312ZM48.8 352.384C52.928 352.384 55.584 349.536 55.584 345.856C55.584 342.272 53.792 340 51.552 338.08L49.408 336.192C47.904 334.88 46.912 333.856 46.912 331.936C46.912 331.04 47.392 329.92 48.448 329.92C49.92 329.92 50.08 331.392 50.144 333.696L55.072 333.088C54.976 330.048 54.176 325.728 48.64 325.728C44.16 325.728 41.376 328.128 41.376 332.512C41.376 335.648 42.88 337.6 44.864 339.264L47.104 341.216C48.864 342.72 49.952 344 49.952 346.144C49.952 347.04 49.696 348.032 48.512 348.032C47.072 348.032 46.304 346.784 46.24 343.424L41.344 344.16C41.536 349.92 43.904 352.384 48.8 352.384ZM64.8855 352.384C70.8375 352.384 72.5655 349.408 72.5655 343.968V326.08H66.8695V344.832C66.8695 346.464 66.7095 348.256 64.8855 348.256C63.0615 348.256 62.8695 346.464 62.8695 344.832V326.08H57.2055V343.968C57.2055 349.408 58.9015 352.384 64.8855 352.384ZM75.25 352H80.978V340.992H83.282C87.474 340.992 90.77 339.584 90.77 333.6C90.77 328.8 88.594 326.08 83.954 326.08H75.25V352ZM80.978 336.992V330.112H82.866C85.17 330.112 85.394 331.552 85.394 333.504C85.394 335.872 85.01 336.992 82.898 336.992H80.978ZM92.5712 352H98.2992V340.992H100.603C104.795 340.992 108.091 339.584 108.091 333.6C108.091 328.8 105.915 326.08 101.275 326.08H92.5712V352ZM98.2992 336.992V330.112H100.187C102.491 330.112 102.715 331.552 102.715 333.504C102.715 335.872 102.331 336.992 100.219 336.992H98.2992ZM117.317 352.384C123.173 352.384 125.157 349.184 125.157 343.84V334.208C125.157 328.864 123.173 325.728 117.317 325.728C111.493 325.728 109.541 328.864 109.541 334.208V343.84C109.541 349.184 111.493 352.384 117.317 352.384ZM117.317 348.32C115.525 348.32 115.397 346.752 115.397 345.28V332.8C115.397 331.264 115.621 329.76 117.317 329.76C119.109 329.76 119.301 331.264 119.301 332.8V345.28C119.301 346.752 119.109 348.32 117.317 348.32ZM127.682 352H133.41V340.384H135.042L137.89 352H143.81L140.258 339.456C142.818 338.24 143.426 336.128 143.426 332.928C143.426 327.488 140.034 326.08 134.818 326.08H127.682V352ZM133.41 337.088V329.92H135.266C137.442 329.92 138.114 331.232 138.114 333.44C138.114 335.744 137.41 337.088 135.01 337.088H133.41ZM147.996 352H153.756V330.336H157.628V326.08H144.092V330.336H147.996V352Z" fill="#1A1A1A"/>
<rect x="40" y="368" width="108" height="16" fill="white"/>
</svg>
