<svg width="288" height="424" viewBox="0 0 288 424" fill="none" xmlns="http://www.w3.org/2000/svg">
<path d="M0 0H288V424H0V0Z" fill="#5DDB93"/>
<path d="M149.657 229.897C153.682 227.824 161.575 223.368 170.285 216.387C188.015 202.187 209.139 177.533 207.897 141.227C205.802 79.9223 149.506 50.3248 147.11 49.0978L144.971 48L142.833 49.0978C140.437 50.3248 84.1475 79.9294 82.0524 141.227C80.8111 177.483 101.877 202.115 119.593 216.329" stroke="white" stroke-width="18" stroke-miterlimit="10"/>
<path d="M144.971 76.4639V256.618" stroke="white" stroke-width="18" stroke-miterlimit="10"/>
<path d="M144.971 188.044L206.771 131.073" stroke="white" stroke-width="18" stroke-miterlimit="10"/>
<path d="M144.971 130.787L192.499 86.0928" stroke="white" stroke-width="18" stroke-miterlimit="10"/>
<path d="M144.9 188.044L83.1001 131.073" stroke="white" stroke-width="18" stroke-miterlimit="10"/>
<path d="M144.971 130.787L98.7559 87.1548" stroke="white" stroke-width="18" stroke-miterlimit="10"/>
<path d="M41.92 312H46.816V298.56L52.128 312H56V286.08H51.264V298.56L45.952 286.08H41.92V312ZM57.6495 312H63.0575L63.9535 306.528H67.7615L68.6255 312H73.9055L69.0735 286.08H62.5455L57.6495 312ZM64.4655 303.104L65.8415 292.992L67.2175 303.104H64.4655ZM76.5235 312H82.2835V290.336H86.1555V286.08H72.6195V290.336H76.5235V312ZM94.9655 312.384C100.917 312.384 102.646 309.408 102.646 303.968V286.08H96.9495V304.832C96.9495 306.464 96.7895 308.256 94.9655 308.256C93.1415 308.256 92.9495 306.464 92.9495 304.832V286.08H87.2855V303.968C87.2855 309.408 88.9815 312.384 94.9655 312.384ZM105.33 312H111.058V300.384H112.69L115.538 312H121.458L117.906 299.456C120.466 298.24 121.074 296.128 121.074 292.928C121.074 287.488 117.682 286.08 112.466 286.08H105.33V312ZM111.058 297.088V289.92H112.914C115.09 289.92 115.762 291.232 115.762 293.44C115.762 295.744 115.058 297.088 112.658 297.088H111.058ZM123.557 312H135.269V308.128H129.285V300.384H133.797V296.416H129.285V289.984H135.205V286.08H123.557V312ZM149.609 312.384C151.593 312.384 153.161 311.584 154.249 310.208C155.145 311.328 156.585 312.48 158.217 312.48C158.505 312.48 158.826 312.416 159.113 312.384V308.576C158.281 308.512 157.417 308.064 157.001 307.52C158.185 305.312 158.953 303.04 158.953 299.264H155.433C155.369 300.96 155.049 303.68 154.473 304.672L151.433 298.976C153.257 296.96 155.817 294.816 155.817 291.2C155.817 287.936 153.513 285.696 150.217 285.696C146.537 285.696 144.553 288.224 144.553 291.392C144.553 293.664 145.833 296.064 147.145 298.336C145.001 300.576 143.465 302.88 143.465 306.176C143.465 310.016 145.993 312.384 149.609 312.384ZM149.961 296.224C149.417 294.912 148.777 293.152 148.777 291.392C148.777 290.176 149.385 289.376 150.281 289.376C151.081 289.376 151.785 289.984 151.785 291.104C151.785 292.672 150.857 295.008 149.961 296.224ZM149.801 308.896C148.361 308.896 147.593 307.648 147.593 305.952C147.593 304.544 148.009 303.2 148.937 301.696L152.105 307.552C151.529 308.384 150.729 308.896 149.801 308.896ZM41.92 352H49.888C54.88 352 57.728 349.696 57.728 344.32C57.728 340.64 56.128 338.464 53.12 338.08C55.488 337.632 56.928 336 56.928 332.864C56.928 327.104 53.12 326.08 48.672 326.08H41.92V352ZM47.648 336.448V329.92H48.64C50.784 329.92 51.904 330.976 51.904 333.024C51.904 335.2 51.36 336.448 48.768 336.448H47.648ZM47.648 348V340.224H48.832C51.328 340.224 52.192 341.312 52.192 344.224C52.192 346.72 51.392 348 48.864 348H47.648ZM59.8045 352H65.5325V326.08H59.8045V352ZM75.8615 352.384C81.7175 352.384 83.7015 349.184 83.7015 343.84V334.208C83.7015 328.864 81.7175 325.728 75.8615 325.728C70.0375 325.728 68.0855 328.864 68.0855 334.208V343.84C68.0855 349.184 70.0375 352.384 75.8615 352.384ZM75.8615 348.32C74.0695 348.32 73.9415 346.752 73.9415 345.28V332.8C73.9415 331.264 74.1655 329.76 75.8615 329.76C77.6535 329.76 77.8455 331.264 77.8455 332.8V345.28C77.8455 346.752 77.6535 348.32 75.8615 348.32ZM86.2275 352H92.8515C99.5395 352 101.491 349.504 101.491 343.68V334.272C101.491 328.512 99.5395 326.08 92.7875 326.08H86.2275V352ZM91.9555 348.032V330.08H92.8195C95.3475 330.08 95.6035 331.008 95.6035 333.28V344.576C95.6035 346.912 95.4435 348.032 92.8515 348.032H91.9555ZM104.049 352H109.778V326.08H104.049V352ZM116.138 352H122.186L126.922 326.08H121.738L119.146 343.68L116.362 326.08H111.466L116.138 352ZM128.566 352H140.278V348.128H134.294V340.384H138.806V336.416H134.294V329.984H140.214V326.08H128.566V352ZM141.919 352H147.647V340.384H149.279L152.127 352H158.047L154.495 339.456C157.055 338.24 157.663 336.128 157.663 332.928C157.663 327.488 154.271 326.08 149.055 326.08H141.919V352ZM147.647 337.088V329.92H149.503C151.679 329.92 152.351 331.232 152.351 333.44C152.351 335.744 151.647 337.088 149.247 337.088H147.647ZM166.901 352.384C171.029 352.384 173.685 349.536 173.685 345.856C173.685 342.272 171.893 340 169.653 338.08L167.509 336.192C166.005 334.88 165.013 333.856 165.013 331.936C165.013 331.04 165.493 329.92 166.549 329.92C168.021 329.92 168.181 331.392 168.245 333.696L173.173 333.088C173.077 330.048 172.277 325.728 166.741 325.728C162.261 325.728 159.477 328.128 159.477 332.512C159.477 335.648 160.981 337.6 162.965 339.264L165.205 341.216C166.965 342.72 168.053 344 168.053 346.144C168.053 347.04 167.797 348.032 166.613 348.032C165.173 348.032 164.405 346.784 164.341 343.424L159.445 344.16C159.637 349.92 162.005 352.384 166.901 352.384ZM175.531 352H181.259V326.08H175.531V352ZM186.5 352H192.26V330.336H196.132V326.08H182.596V330.336H186.5V352ZM200.718 352H206.222V341.408L211.054 326.08H205.87L203.662 334.272L201.198 326.08H195.79L200.718 341.408V352Z" fill="#1A1A1A"/>
<rect x="40" y="368" width="108" height="16" fill="white"/>
</svg>
