<svg width="288" height="424" viewBox="0 0 288 424" fill="none" xmlns="http://www.w3.org/2000/svg">
<path d="M0 0H288V424H0V0Z" fill="#FB6A69"/>
<path d="M181.324 199.29H107.938C104.11 199.29 101.007 196.187 101.007 192.359V173.046C101.007 169.218 104.11 166.115 107.938 166.115H181.332C185.16 166.115 188.263 169.218 188.263 173.046V192.359C188.255 196.187 185.152 199.29 181.324 199.29Z" stroke="white" stroke-width="18" stroke-miterlimit="10"/>
<path d="M174.931 267H148.942H114.339C106.974 267 101.007 261.034 101.007 253.669V231.552V213.735C101.007 209.907 104.11 206.804 107.938 206.804H181.332C185.16 206.804 188.263 209.907 188.263 213.735V253.669C188.255 261.034 182.289 267 174.931 267Z" stroke="white" stroke-width="18" stroke-miterlimit="10"/>
<path d="M131.491 51V60.5555L131.498 61.1985V68.9371C131.498 72.8325 130.272 76.6233 127.984 79.7786L122.474 87.39L112.395 101.319L104.514 112.213C102.234 115.369 101 119.159 101 123.055V151.654C101 155.482 104.103 158.585 107.931 158.585H181.324C185.152 158.585 188.255 155.482 188.255 151.654V123.055C188.255 119.159 187.029 115.369 184.741 112.213L161.279 79.7711C158.998 76.6158 157.765 72.825 157.765 68.9296V61.191V60.548V51" stroke="white" stroke-width="18" stroke-miterlimit="10"/>
<path d="M41.92 326.08H50.624C52.9067 326.08 54.6133 326.731 55.744 328.032C56.8747 329.312 57.44 331.168 57.44 333.6C57.44 336.373 56.7787 338.304 55.456 339.392C54.1547 340.459 52.32 340.992 49.952 340.992H47.648V352H41.92V326.08ZM49.568 336.992C50.5707 336.992 51.232 336.725 51.552 336.192C51.8933 335.659 52.064 334.763 52.064 333.504C52.064 332.352 51.904 331.499 51.584 330.944C51.264 330.389 50.5813 330.112 49.536 330.112H47.648V336.992H49.568ZM59.2413 326.08H64.9693V348.128H70.9213V352H59.2413V326.08ZM76.1168 326.08H82.6448L87.4768 352H82.1968L81.3328 346.528H77.5248L76.6288 352H71.2207L76.1168 326.08ZM80.7888 343.104L79.4128 332.992L78.0368 343.104H80.7888ZM95.7637 352.384C93.2891 352.384 91.4437 351.733 90.2277 350.432C89.0331 349.109 88.3931 347.019 88.3077 344.16L93.2037 343.424C93.2251 345.067 93.4171 346.251 93.7797 346.976C94.1637 347.68 94.7291 348.032 95.4757 348.032C96.4357 348.032 96.9157 347.403 96.9157 346.144C96.9157 345.141 96.6811 344.277 96.2117 343.552C95.7637 342.827 95.0491 342.048 94.0677 341.216L91.8277 339.264C90.7184 338.325 89.8544 337.333 89.2357 336.288C88.6384 335.221 88.3397 333.963 88.3397 332.512C88.3397 330.336 88.9797 328.661 90.2597 327.488C91.5611 326.315 93.3424 325.728 95.6037 325.728C98.0571 325.728 99.7211 326.443 100.596 327.872C101.492 329.301 101.972 331.04 102.036 333.088L97.1077 333.696C97.0651 332.352 96.9371 331.392 96.7237 330.816C96.5317 330.219 96.0944 329.92 95.4117 329.92C94.9211 329.92 94.5371 330.133 94.2597 330.56C94.0037 330.965 93.8757 331.424 93.8757 331.936C93.8757 332.811 94.0677 333.547 94.4517 334.144C94.8571 334.741 95.4971 335.424 96.3717 336.192L98.5157 338.08C99.7957 339.168 100.788 340.32 101.492 341.536C102.196 342.752 102.548 344.192 102.548 345.856C102.548 347.072 102.26 348.181 101.684 349.184C101.129 350.165 100.34 350.944 99.3157 351.52C98.2917 352.096 97.1077 352.384 95.7637 352.384ZM106.697 330.336H102.793V326.08H116.329V330.336H112.457V352H106.697V330.336ZM117.683 326.08H123.411V352H117.683V326.08ZM133.74 352.384C130.924 352.384 128.919 351.648 127.724 350.176C126.551 348.683 125.964 346.539 125.964 343.744V334.4C125.964 331.541 126.551 329.387 127.724 327.936C128.898 326.464 130.903 325.728 133.74 325.728C136.45 325.728 138.37 326.379 139.5 327.68C140.631 328.981 141.196 330.827 141.196 333.216V335.456H135.596V332.864C135.596 331.861 135.49 331.093 135.276 330.56C135.063 330.027 134.551 329.76 133.74 329.76C132.93 329.76 132.396 330.048 132.14 330.624C131.884 331.179 131.756 331.957 131.756 332.96V345.152C131.756 346.176 131.884 346.965 132.14 347.52C132.418 348.053 132.951 348.32 133.74 348.32C134.53 348.32 135.031 348.053 135.244 347.52C135.479 346.965 135.596 346.176 135.596 345.152V342.432H141.196V344.672C141.196 347.104 140.631 349.003 139.5 350.368C138.37 351.712 136.45 352.384 133.74 352.384ZM150.267 352.384C147.793 352.384 145.947 351.733 144.731 350.432C143.537 349.109 142.897 347.019 142.811 344.16L147.707 343.424C147.729 345.067 147.921 346.251 148.283 346.976C148.667 347.68 149.233 348.032 149.979 348.032C150.939 348.032 151.419 347.403 151.419 346.144C151.419 345.141 151.185 344.277 150.715 343.552C150.267 342.827 149.553 342.048 148.571 341.216L146.331 339.264C145.222 338.325 144.358 337.333 143.739 336.288C143.142 335.221 142.843 333.963 142.843 332.512C142.843 330.336 143.483 328.661 144.763 327.488C146.065 326.315 147.846 325.728 150.107 325.728C152.561 325.728 154.225 326.443 155.099 327.872C155.995 329.301 156.475 331.04 156.539 333.088L151.611 333.696C151.569 332.352 151.441 331.392 151.227 330.816C151.035 330.219 150.598 329.92 149.915 329.92C149.425 329.92 149.041 330.133 148.763 330.56C148.507 330.965 148.379 331.424 148.379 331.936C148.379 332.811 148.571 333.547 148.955 334.144C149.361 334.741 150.001 335.424 150.875 336.192L153.019 338.08C154.299 339.168 155.291 340.32 155.995 341.536C156.699 342.752 157.051 344.192 157.051 345.856C157.051 347.072 156.763 348.181 156.187 349.184C155.633 350.165 154.843 350.944 153.819 351.52C152.795 352.096 151.611 352.384 150.267 352.384Z" fill="#1A1A1A"/>
<rect x="40" y="368" width="108" height="16" fill="white"/>
</svg>
