<svg width="288" height="424" viewBox="0 0 288 424" fill="none" xmlns="http://www.w3.org/2000/svg">
<path opacity="0.9" d="M0 0H288V424H0V0Z" fill="#DDE541"/>
<path d="M143.814 149.731C167.764 149.731 187.179 130.316 187.179 106.366C187.179 82.4154 167.764 63 143.814 63C119.864 63 100.448 82.4154 100.448 106.366C100.448 130.316 119.864 149.731 143.814 149.731Z" stroke="white" stroke-width="25" stroke-miterlimit="10"/>
<path d="M144.356 149.724C189.288 149.724 225.713 186.149 225.713 231.08" stroke="white" stroke-width="25" stroke-miterlimit="10"/>
<path d="M63 231.08C63 208.615 72.1043 188.274 86.8271 173.551" stroke="white" stroke-width="25" stroke-miterlimit="10"/>
<path d="M140.951 218H65" stroke="white" stroke-width="25" stroke-miterlimit="10"/>
<path d="M48.8 312.384C46.3253 312.384 44.48 311.733 43.264 310.432C42.0693 309.109 41.4293 307.019 41.344 304.16L46.24 303.424C46.2613 305.067 46.4533 306.251 46.816 306.976C47.2 307.68 47.7653 308.032 48.512 308.032C49.472 308.032 49.952 307.403 49.952 306.144C49.952 305.141 49.7173 304.277 49.248 303.552C48.8 302.827 48.0853 302.048 47.104 301.216L44.864 299.264C43.7547 298.325 42.8907 297.333 42.272 296.288C41.6747 295.221 41.376 293.963 41.376 292.512C41.376 290.336 42.016 288.661 43.296 287.488C44.5973 286.315 46.3787 285.728 48.64 285.728C51.0933 285.728 52.7573 286.443 53.632 287.872C54.528 289.301 55.008 291.04 55.072 293.088L50.144 293.696C50.1013 292.352 49.9733 291.392 49.76 290.816C49.568 290.219 49.1307 289.92 48.448 289.92C47.9573 289.92 47.5733 290.133 47.296 290.56C47.04 290.965 46.912 291.424 46.912 291.936C46.912 292.811 47.104 293.547 47.488 294.144C47.8933 294.741 48.5333 295.424 49.408 296.192L51.552 298.08C52.832 299.168 53.824 300.32 54.528 301.536C55.232 302.752 55.584 304.192 55.584 305.856C55.584 307.072 55.296 308.181 54.72 309.184C54.1653 310.165 53.376 310.944 52.352 311.52C51.328 312.096 50.144 312.384 48.8 312.384ZM64.8215 312.384C62.0268 312.384 60.0322 311.669 58.8375 310.24C57.6428 308.789 57.0455 306.656 57.0455 303.84V294.208C57.0455 291.392 57.6428 289.28 58.8375 287.872C60.0322 286.443 62.0268 285.728 64.8215 285.728C67.6375 285.728 69.6428 286.443 70.8375 287.872C72.0535 289.301 72.6615 291.413 72.6615 294.208V303.84C72.6615 306.656 72.0535 308.789 70.8375 310.24C69.6428 311.669 67.6375 312.384 64.8215 312.384ZM64.8215 308.32C65.6322 308.32 66.1655 308.053 66.4215 307.52C66.6775 306.965 66.8055 306.219 66.8055 305.28V292.8C66.8055 291.84 66.6775 291.093 66.4215 290.56C66.1655 290.027 65.6322 289.76 64.8215 289.76C64.0535 289.76 63.5415 290.037 63.2855 290.592C63.0295 291.125 62.9015 291.861 62.9015 292.8V305.28C62.9015 306.219 63.0188 306.965 63.2535 307.52C63.4882 308.053 64.0108 308.32 64.8215 308.32ZM82.6115 312.384C79.7955 312.384 77.7902 311.648 76.5955 310.176C75.4222 308.683 74.8355 306.539 74.8355 303.744V294.4C74.8355 291.541 75.4222 289.387 76.5955 287.936C77.7688 286.464 79.7742 285.728 82.6115 285.728C85.3208 285.728 87.2408 286.379 88.3715 287.68C89.5022 288.981 90.0675 290.827 90.0675 293.216V295.456H84.4675V292.864C84.4675 291.861 84.3608 291.093 84.1475 290.56C83.9342 290.027 83.4222 289.76 82.6115 289.76C81.8008 289.76 81.2675 290.048 81.0115 290.624C80.7555 291.179 80.6275 291.957 80.6275 292.96V305.152C80.6275 306.176 80.7555 306.965 81.0115 307.52C81.2888 308.053 81.8222 308.32 82.6115 308.32C83.4008 308.32 83.9022 308.053 84.1155 307.52C84.3502 306.965 84.4675 306.176 84.4675 305.152V302.432H90.0675V304.672C90.0675 307.104 89.5022 309.003 88.3715 310.368C87.2408 311.712 85.3208 312.384 82.6115 312.384ZM92.2907 286.08H98.0187V312H92.2907V286.08ZM104.572 286.08H111.1L115.932 312H110.652L109.788 306.528H105.98L105.084 312H99.6757L104.572 286.08ZM109.244 303.104L107.868 292.992L106.492 303.104H109.244ZM117.589 286.08H123.317V308.128H129.269V312H117.589V286.08ZM41.952 326.08H47.68V352H41.952V326.08ZM50.585 326.08H54.617L59.929 338.56V326.08H64.665V352H60.793L55.481 338.56V352H50.585V326.08ZM74.9865 352.384C72.1705 352.384 70.1652 351.648 68.9705 350.176C67.7972 348.683 67.2105 346.539 67.2105 343.744V334.4C67.2105 331.541 67.7972 329.387 68.9705 327.936C70.1438 326.464 72.1492 325.728 74.9865 325.728C77.6958 325.728 79.6158 326.379 80.7465 327.68C81.8772 328.981 82.4425 330.827 82.4425 333.216V335.456H76.8425V332.864C76.8425 331.861 76.7358 331.093 76.5225 330.56C76.3092 330.027 75.7972 329.76 74.9865 329.76C74.1758 329.76 73.6425 330.048 73.3865 330.624C73.1305 331.179 73.0025 331.957 73.0025 332.96V345.152C73.0025 346.176 73.1305 346.965 73.3865 347.52C73.6638 348.053 74.1972 348.32 74.9865 348.32C75.7758 348.32 76.2772 348.053 76.4905 347.52C76.7252 346.965 76.8425 346.176 76.8425 345.152V342.432H82.4425V344.672C82.4425 347.104 81.8772 349.003 80.7465 350.368C79.6158 351.712 77.6958 352.384 74.9865 352.384ZM84.6337 326.08H90.3617V348.128H96.3137V352H84.6337V326.08ZM104.849 352.384C102.908 352.384 101.372 352.075 100.241 351.456C99.1106 350.816 98.3106 349.888 97.8412 348.672C97.3932 347.435 97.1692 345.867 97.1692 343.968V326.08H102.833V344.832C102.833 345.877 102.961 346.709 103.217 347.328C103.495 347.947 104.039 348.256 104.849 348.256C105.66 348.256 106.193 347.947 106.449 347.328C106.705 346.709 106.833 345.877 106.833 344.832V326.08H112.529V343.968C112.529 345.867 112.295 347.435 111.825 348.672C111.356 349.888 110.556 350.816 109.425 351.456C108.316 352.075 106.791 352.384 104.849 352.384ZM122.094 352.384C119.619 352.384 117.774 351.733 116.558 350.432C115.363 349.109 114.723 347.019 114.638 344.16L119.534 343.424C119.555 345.067 119.747 346.251 120.11 346.976C120.494 347.68 121.059 348.032 121.806 348.032C122.766 348.032 123.246 347.403 123.246 346.144C123.246 345.141 123.011 344.277 122.542 343.552C122.094 342.827 121.379 342.048 120.398 341.216L118.158 339.264C117.048 338.325 116.184 337.333 115.566 336.288C114.968 335.221 114.67 333.963 114.67 332.512C114.67 330.336 115.31 328.661 116.59 327.488C117.891 326.315 119.672 325.728 121.934 325.728C124.387 325.728 126.051 326.443 126.926 327.872C127.822 329.301 128.302 331.04 128.366 333.088L123.438 333.696C123.395 332.352 123.267 331.392 123.054 330.816C122.862 330.219 122.424 329.92 121.742 329.92C121.251 329.92 120.867 330.133 120.59 330.56C120.334 330.965 120.206 331.424 120.206 331.936C120.206 332.811 120.398 333.547 120.782 334.144C121.187 334.741 121.827 335.424 122.702 336.192L124.846 338.08C126.126 339.168 127.118 340.32 127.822 341.536C128.526 342.752 128.878 344.192 128.878 345.856C128.878 347.072 128.59 348.181 128.014 349.184C127.459 350.165 126.67 350.944 125.646 351.52C124.622 352.096 123.438 352.384 122.094 352.384ZM130.723 326.08H136.451V352H130.723V326.08ZM138.14 326.08H143.036L145.82 343.68L148.412 326.08H153.596L148.86 352H142.812L138.14 326.08ZM155.272 326.08H161V352H155.272V326.08ZM166.241 330.336H162.337V326.08H175.873V330.336H172.001V352H166.241V330.336ZM180.459 341.408L175.531 326.08H180.939L183.403 334.272L185.611 326.08H190.795L185.963 341.408V352H180.459V341.408Z" fill="#1A1A1A"/>
<rect x="40" y="368" width="108" height="16" fill="white"/>
</svg>
